%
M48
M72
T01C0.0236
T02C0.0315
T03C0.0320
T04C0.0354
T05C0.0400
T06C0.1050
T07C0.1260
%
T01
X2414Y2113
X3164Y1988
X3726Y3175
X3476Y3925
X3976Y3925
X3601Y4675
X4101Y5300
X5101Y5550
X4601Y7050
X3726Y7925
X4101Y8425
X4851Y8425
X5976Y8800
X4476Y9675
X3101Y9300
X2726Y8550
X3039Y7613
X2851Y7175
X1476Y7175
X3008Y5394
X1601Y3675
X4601Y3175
X5601Y2675
X6101Y2675
X6351Y2175
X6976Y3925
X9851Y4050
X10976Y3175
X11601Y2800
X11601Y2050
X12351Y1800
X14101Y3175
X14351Y5425
X11476Y5925
X10976Y6425
X9851Y7050
X9851Y8050
X10351Y8050
X10851Y8675
X11476Y8925
X13226Y8300
X12976Y10425
X12726Y11425
X11226Y11300
X10601Y11300
X8476Y11800
X6726Y12425
X5476Y12050
X5101Y13300
X3976Y12050
X3351Y13800
X2726Y14175
X6601Y14425
X9476Y8925
X9476Y8425
X14226Y11175
X14851Y10800
X9976Y2175
T02
X15726Y7425
X15726Y8425
X15726Y9425
X15726Y10425
X15726Y11425
T03
X16226Y5925
X16226Y4925
X11226Y1425
X10476Y1425
X8226Y15675
X7476Y15675
X6226Y15675
X5476Y15675
X4226Y15675
X3476Y15675
T04
X1601Y5323
X1601Y2527
T05
X1726Y8925
X1726Y9925
X1726Y10925
X1726Y11925
X1726Y12925
X1726Y13925
X9851Y15675
X10851Y15675
X11851Y15675
X12851Y15675
X13851Y15675
X14851Y15675
X14851Y13675
X13851Y13675
X12476Y13175
X11476Y13175
X10476Y13175
X10476Y14175
X11476Y14175
X12476Y14175
X15851Y13675
X16851Y13675
T06
X16476Y15425
X16476Y1675
X1851Y15425
T07
X1851Y15425
X16476Y15425
X16476Y1675
M30
