G75*
%MOIN*%
%OFA0B0*%
%FSLAX24Y24*%
%IPPOS*%
%LPD*%
%AMOC8*
5,1,8,0,0,1.08239X$1,22.5*
%
%ADD10C,0.0000*%
%ADD11C,0.1130*%
%ADD12C,0.0840*%
%ADD13C,0.0820*%
%ADD14C,0.0680*%
%ADD15OC8,0.0680*%
%ADD16C,0.0680*%
%ADD17OC8,0.0710*%
%ADD18R,0.0592X0.0671*%
%ADD19R,0.0474X0.0867*%
%ADD20R,0.0789X0.0474*%
%ADD21C,0.0434*%
%ADD22C,0.0480*%
%ADD23C,0.1950*%
%ADD24C,0.0476*%
D10*
X000851Y000675D02*
X000851Y016421D01*
X017471Y016421D01*
X017471Y000675D01*
X000851Y000675D01*
X001424Y002527D02*
X001426Y002553D01*
X001432Y002579D01*
X001442Y002604D01*
X001455Y002627D01*
X001471Y002647D01*
X001491Y002665D01*
X001513Y002680D01*
X001536Y002692D01*
X001562Y002700D01*
X001588Y002704D01*
X001614Y002704D01*
X001640Y002700D01*
X001666Y002692D01*
X001690Y002680D01*
X001711Y002665D01*
X001731Y002647D01*
X001747Y002627D01*
X001760Y002604D01*
X001770Y002579D01*
X001776Y002553D01*
X001778Y002527D01*
X001776Y002501D01*
X001770Y002475D01*
X001760Y002450D01*
X001747Y002427D01*
X001731Y002407D01*
X001711Y002389D01*
X001689Y002374D01*
X001666Y002362D01*
X001640Y002354D01*
X001614Y002350D01*
X001588Y002350D01*
X001562Y002354D01*
X001536Y002362D01*
X001512Y002374D01*
X001491Y002389D01*
X001471Y002407D01*
X001455Y002427D01*
X001442Y002450D01*
X001432Y002475D01*
X001426Y002501D01*
X001424Y002527D01*
X001424Y005323D02*
X001426Y005349D01*
X001432Y005375D01*
X001442Y005400D01*
X001455Y005423D01*
X001471Y005443D01*
X001491Y005461D01*
X001513Y005476D01*
X001536Y005488D01*
X001562Y005496D01*
X001588Y005500D01*
X001614Y005500D01*
X001640Y005496D01*
X001666Y005488D01*
X001690Y005476D01*
X001711Y005461D01*
X001731Y005443D01*
X001747Y005423D01*
X001760Y005400D01*
X001770Y005375D01*
X001776Y005349D01*
X001778Y005323D01*
X001776Y005297D01*
X001770Y005271D01*
X001760Y005246D01*
X001747Y005223D01*
X001731Y005203D01*
X001711Y005185D01*
X001689Y005170D01*
X001666Y005158D01*
X001640Y005150D01*
X001614Y005146D01*
X001588Y005146D01*
X001562Y005150D01*
X001536Y005158D01*
X001512Y005170D01*
X001491Y005185D01*
X001471Y005203D01*
X001455Y005223D01*
X001442Y005246D01*
X001432Y005271D01*
X001426Y005297D01*
X001424Y005323D01*
X001326Y015425D02*
X001328Y015470D01*
X001334Y015515D01*
X001343Y015559D01*
X001357Y015602D01*
X001374Y015644D01*
X001394Y015684D01*
X001418Y015723D01*
X001446Y015759D01*
X001476Y015792D01*
X001509Y015823D01*
X001544Y015851D01*
X001582Y015876D01*
X001622Y015897D01*
X001663Y015915D01*
X001706Y015930D01*
X001750Y015940D01*
X001795Y015947D01*
X001840Y015950D01*
X001885Y015949D01*
X001930Y015944D01*
X001974Y015935D01*
X002018Y015923D01*
X002060Y015907D01*
X002100Y015887D01*
X002139Y015864D01*
X002176Y015837D01*
X002210Y015808D01*
X002242Y015776D01*
X002270Y015741D01*
X002296Y015704D01*
X002318Y015664D01*
X002337Y015623D01*
X002352Y015581D01*
X002364Y015537D01*
X002372Y015493D01*
X002376Y015448D01*
X002376Y015402D01*
X002372Y015357D01*
X002364Y015313D01*
X002352Y015269D01*
X002337Y015227D01*
X002318Y015186D01*
X002296Y015146D01*
X002270Y015109D01*
X002242Y015074D01*
X002210Y015042D01*
X002176Y015013D01*
X002139Y014986D01*
X002100Y014963D01*
X002060Y014943D01*
X002018Y014927D01*
X001974Y014915D01*
X001930Y014906D01*
X001885Y014901D01*
X001840Y014900D01*
X001795Y014903D01*
X001750Y014910D01*
X001706Y014920D01*
X001663Y014935D01*
X001622Y014953D01*
X001582Y014974D01*
X001544Y014999D01*
X001509Y015027D01*
X001476Y015058D01*
X001446Y015091D01*
X001418Y015127D01*
X001394Y015166D01*
X001374Y015206D01*
X001357Y015248D01*
X001343Y015291D01*
X001334Y015335D01*
X001328Y015380D01*
X001326Y015425D01*
X015951Y015425D02*
X015953Y015470D01*
X015959Y015515D01*
X015968Y015559D01*
X015982Y015602D01*
X015999Y015644D01*
X016019Y015684D01*
X016043Y015723D01*
X016071Y015759D01*
X016101Y015792D01*
X016134Y015823D01*
X016169Y015851D01*
X016207Y015876D01*
X016247Y015897D01*
X016288Y015915D01*
X016331Y015930D01*
X016375Y015940D01*
X016420Y015947D01*
X016465Y015950D01*
X016510Y015949D01*
X016555Y015944D01*
X016599Y015935D01*
X016643Y015923D01*
X016685Y015907D01*
X016725Y015887D01*
X016764Y015864D01*
X016801Y015837D01*
X016835Y015808D01*
X016867Y015776D01*
X016895Y015741D01*
X016921Y015704D01*
X016943Y015664D01*
X016962Y015623D01*
X016977Y015581D01*
X016989Y015537D01*
X016997Y015493D01*
X017001Y015448D01*
X017001Y015402D01*
X016997Y015357D01*
X016989Y015313D01*
X016977Y015269D01*
X016962Y015227D01*
X016943Y015186D01*
X016921Y015146D01*
X016895Y015109D01*
X016867Y015074D01*
X016835Y015042D01*
X016801Y015013D01*
X016764Y014986D01*
X016725Y014963D01*
X016685Y014943D01*
X016643Y014927D01*
X016599Y014915D01*
X016555Y014906D01*
X016510Y014901D01*
X016465Y014900D01*
X016420Y014903D01*
X016375Y014910D01*
X016331Y014920D01*
X016288Y014935D01*
X016247Y014953D01*
X016207Y014974D01*
X016169Y014999D01*
X016134Y015027D01*
X016101Y015058D01*
X016071Y015091D01*
X016043Y015127D01*
X016019Y015166D01*
X015999Y015206D01*
X015982Y015248D01*
X015968Y015291D01*
X015959Y015335D01*
X015953Y015380D01*
X015951Y015425D01*
X015951Y001675D02*
X015953Y001720D01*
X015959Y001765D01*
X015968Y001809D01*
X015982Y001852D01*
X015999Y001894D01*
X016019Y001934D01*
X016043Y001973D01*
X016071Y002009D01*
X016101Y002042D01*
X016134Y002073D01*
X016169Y002101D01*
X016207Y002126D01*
X016247Y002147D01*
X016288Y002165D01*
X016331Y002180D01*
X016375Y002190D01*
X016420Y002197D01*
X016465Y002200D01*
X016510Y002199D01*
X016555Y002194D01*
X016599Y002185D01*
X016643Y002173D01*
X016685Y002157D01*
X016725Y002137D01*
X016764Y002114D01*
X016801Y002087D01*
X016835Y002058D01*
X016867Y002026D01*
X016895Y001991D01*
X016921Y001954D01*
X016943Y001914D01*
X016962Y001873D01*
X016977Y001831D01*
X016989Y001787D01*
X016997Y001743D01*
X017001Y001698D01*
X017001Y001652D01*
X016997Y001607D01*
X016989Y001563D01*
X016977Y001519D01*
X016962Y001477D01*
X016943Y001436D01*
X016921Y001396D01*
X016895Y001359D01*
X016867Y001324D01*
X016835Y001292D01*
X016801Y001263D01*
X016764Y001236D01*
X016725Y001213D01*
X016685Y001193D01*
X016643Y001177D01*
X016599Y001165D01*
X016555Y001156D01*
X016510Y001151D01*
X016465Y001150D01*
X016420Y001153D01*
X016375Y001160D01*
X016331Y001170D01*
X016288Y001185D01*
X016247Y001203D01*
X016207Y001224D01*
X016169Y001249D01*
X016134Y001277D01*
X016101Y001308D01*
X016071Y001341D01*
X016043Y001377D01*
X016019Y001416D01*
X015999Y001456D01*
X015982Y001498D01*
X015968Y001541D01*
X015959Y001585D01*
X015953Y001630D01*
X015951Y001675D01*
D11*
X016476Y001675D03*
X016476Y015425D03*
X001851Y015425D03*
D12*
X015726Y011425D03*
X015726Y010425D03*
X015726Y009425D03*
X015726Y008425D03*
X015726Y007425D03*
D13*
X001726Y008925D03*
X001726Y009925D03*
X001726Y010925D03*
X001726Y011925D03*
X001726Y012925D03*
X001726Y013925D03*
D14*
X012476Y014175D03*
D15*
X011476Y014175D03*
X010476Y014175D03*
X010476Y013175D03*
X011476Y013175D03*
X012476Y013175D03*
D16*
X013851Y013375D02*
X013851Y013975D01*
X014851Y013975D02*
X014851Y013375D01*
X015851Y013375D02*
X015851Y013975D01*
X016851Y013975D02*
X016851Y013375D01*
X014851Y015375D02*
X014851Y015975D01*
X013851Y015975D02*
X013851Y015375D01*
X012851Y015375D02*
X012851Y015975D01*
X011851Y015975D02*
X011851Y015375D01*
X010851Y015375D02*
X010851Y015975D01*
X009851Y015975D02*
X009851Y015375D01*
D17*
X008226Y015675D03*
X007476Y015675D03*
X006226Y015675D03*
X005476Y015675D03*
X004226Y015675D03*
X003476Y015675D03*
X016226Y005925D03*
X016226Y004925D03*
X011226Y001425D03*
X010476Y001425D03*
D18*
X008538Y007363D03*
X007790Y007363D03*
D19*
X007847Y006425D03*
X007257Y006425D03*
X006666Y006425D03*
X006076Y006425D03*
X005485Y006425D03*
X004895Y006425D03*
X004304Y006425D03*
X003714Y006425D03*
X003123Y006425D03*
X002532Y006425D03*
X001942Y006425D03*
X001351Y006425D03*
X001351Y001307D03*
X001942Y001307D03*
X002532Y001307D03*
X003123Y001307D03*
X003714Y001307D03*
X004304Y001307D03*
X004895Y001307D03*
X005485Y001307D03*
X006076Y001307D03*
X006666Y001307D03*
X007257Y001307D03*
X007847Y001307D03*
X008438Y001307D03*
X008438Y006425D03*
D20*
X009127Y005933D03*
X009127Y005342D03*
X009127Y004752D03*
X009127Y004161D03*
X009127Y003571D03*
X009127Y002980D03*
X009127Y002390D03*
X009127Y001799D03*
D21*
X001601Y002527D03*
X001601Y005323D03*
D22*
X001601Y003675D03*
X002414Y002113D03*
X003601Y004675D03*
X005976Y008800D03*
X008476Y011800D03*
X006726Y012425D03*
X005476Y012050D03*
X005101Y013300D03*
X009476Y008925D03*
X009476Y008425D03*
X010851Y008675D03*
X009851Y007050D03*
X010976Y006425D03*
X011476Y005925D03*
X009851Y004050D03*
X010976Y003175D03*
X011601Y002800D03*
X011601Y002050D03*
X012351Y001800D03*
X014101Y003175D03*
X014351Y005425D03*
X013226Y008300D03*
X012976Y010425D03*
X012726Y011425D03*
X011226Y011300D03*
X010601Y011300D03*
X014226Y011175D03*
D23*
X016476Y015425D03*
X016476Y001675D03*
X001851Y015425D03*
D24*
X002726Y014175D03*
X003351Y013800D03*
X003976Y012050D03*
X004476Y009675D03*
X004101Y008425D03*
X003726Y007925D03*
X003039Y007613D03*
X002851Y007175D03*
X001476Y007175D03*
X002726Y008550D03*
X003101Y009300D03*
X004851Y008425D03*
X004601Y007050D03*
X005101Y005550D03*
X004101Y005300D03*
X003008Y005394D03*
X003476Y003925D03*
X003976Y003925D03*
X003726Y003175D03*
X004601Y003175D03*
X005601Y002675D03*
X006101Y002675D03*
X006351Y002175D03*
X006976Y003925D03*
X009976Y002175D03*
X009851Y008050D03*
X010351Y008050D03*
X011476Y008925D03*
X014851Y010800D03*
X006601Y014425D03*
X003164Y001988D03*
M02*
