G75*
%MOIN*%
%OFA0B0*%
%FSLAX25Y25*%
%IPPOS*%
%LPD*%
%AMOC8*
5,1,8,0,0,1.08239X$1,22.5*
%
%ADD10C,0.00000*%
%ADD11OC8,0.06300*%
%ADD12C,0.06000*%
%ADD13R,0.04600X0.06300*%
%ADD14C,0.23000*%
%ADD15R,0.06300X0.04600*%
%ADD16OC8,0.08500*%
%ADD17C,0.03969*%
%ADD18C,0.05000*%
%ADD19C,0.06000*%
%ADD20OC8,0.06000*%
%ADD21C,0.05200*%
%ADD22C,0.01600*%
%ADD23C,0.02400*%
%ADD24C,0.01200*%
%ADD25C,0.00800*%
D10*
X0032510Y0001517D02*
X0285010Y0001517D01*
X0285433Y0001522D01*
X0285855Y0001537D01*
X0286278Y0001563D01*
X0286699Y0001599D01*
X0287119Y0001645D01*
X0287539Y0001701D01*
X0287956Y0001767D01*
X0288372Y0001843D01*
X0288786Y0001929D01*
X0289198Y0002026D01*
X0289607Y0002132D01*
X0290014Y0002248D01*
X0290418Y0002374D01*
X0290818Y0002509D01*
X0291216Y0002654D01*
X0291609Y0002809D01*
X0291999Y0002973D01*
X0292385Y0003147D01*
X0292766Y0003330D01*
X0293143Y0003522D01*
X0293515Y0003723D01*
X0293882Y0003933D01*
X0294244Y0004151D01*
X0294600Y0004379D01*
X0294951Y0004615D01*
X0295296Y0004859D01*
X0295635Y0005112D01*
X0295968Y0005373D01*
X0296295Y0005641D01*
X0296615Y0005918D01*
X0296928Y0006202D01*
X0297234Y0006494D01*
X0297533Y0006793D01*
X0297825Y0007099D01*
X0298109Y0007412D01*
X0298386Y0007732D01*
X0298654Y0008059D01*
X0298915Y0008392D01*
X0299168Y0008731D01*
X0299412Y0009076D01*
X0299648Y0009427D01*
X0299876Y0009783D01*
X0300094Y0010145D01*
X0300304Y0010512D01*
X0300505Y0010884D01*
X0300697Y0011261D01*
X0300880Y0011642D01*
X0301054Y0012028D01*
X0301218Y0012418D01*
X0301373Y0012811D01*
X0301518Y0013209D01*
X0301653Y0013609D01*
X0301779Y0014013D01*
X0301895Y0014420D01*
X0302001Y0014829D01*
X0302098Y0015241D01*
X0302184Y0015655D01*
X0302260Y0016071D01*
X0302326Y0016488D01*
X0302382Y0016908D01*
X0302428Y0017328D01*
X0302464Y0017749D01*
X0302490Y0018172D01*
X0302505Y0018594D01*
X0302510Y0019017D01*
X0302461Y0019017D02*
X0302510Y0030267D01*
X0295010Y0037767D01*
X0295010Y0129017D01*
X0302461Y0136467D01*
X0302461Y0149066D01*
X0302510Y0149017D02*
X0302535Y0149410D01*
X0302551Y0149804D01*
X0302558Y0150197D01*
X0302555Y0150591D01*
X0302542Y0150985D01*
X0302520Y0151378D01*
X0302488Y0151771D01*
X0302447Y0152162D01*
X0302397Y0152553D01*
X0302337Y0152942D01*
X0302268Y0153330D01*
X0302189Y0153716D01*
X0302101Y0154100D01*
X0302004Y0154481D01*
X0301897Y0154861D01*
X0301782Y0155237D01*
X0301657Y0155611D01*
X0301523Y0155981D01*
X0301381Y0156348D01*
X0301230Y0156712D01*
X0301069Y0157072D01*
X0300901Y0157428D01*
X0300723Y0157779D01*
X0300538Y0158127D01*
X0300344Y0158469D01*
X0300141Y0158807D01*
X0299931Y0159140D01*
X0299712Y0159468D01*
X0299486Y0159790D01*
X0299252Y0160107D01*
X0299011Y0160418D01*
X0298762Y0160723D01*
X0298505Y0161022D01*
X0298242Y0161315D01*
X0297971Y0161601D01*
X0297694Y0161881D01*
X0297410Y0162154D01*
X0297120Y0162420D01*
X0296823Y0162679D01*
X0296520Y0162930D01*
X0296211Y0163175D01*
X0295896Y0163411D01*
X0295576Y0163640D01*
X0295250Y0163861D01*
X0294919Y0164075D01*
X0294582Y0164280D01*
X0294241Y0164477D01*
X0293896Y0164666D01*
X0293546Y0164846D01*
X0293191Y0165018D01*
X0292833Y0165181D01*
X0292470Y0165335D01*
X0292104Y0165481D01*
X0291735Y0165618D01*
X0291363Y0165746D01*
X0290987Y0165864D01*
X0290609Y0165974D01*
X0290228Y0166075D01*
X0289845Y0166166D01*
X0289460Y0166248D01*
X0289073Y0166320D01*
X0288684Y0166384D01*
X0288294Y0166438D01*
X0287902Y0166482D01*
X0287510Y0166517D01*
X0032510Y0166517D01*
X0032115Y0166543D01*
X0031720Y0166559D01*
X0031324Y0166565D01*
X0030928Y0166562D01*
X0030532Y0166549D01*
X0030137Y0166526D01*
X0029743Y0166494D01*
X0029349Y0166453D01*
X0028957Y0166401D01*
X0028565Y0166341D01*
X0028176Y0166271D01*
X0027788Y0166191D01*
X0027403Y0166102D01*
X0027019Y0166004D01*
X0026638Y0165896D01*
X0026260Y0165779D01*
X0025885Y0165653D01*
X0025513Y0165518D01*
X0025144Y0165374D01*
X0024779Y0165221D01*
X0024418Y0165059D01*
X0024061Y0164889D01*
X0023708Y0164710D01*
X0023359Y0164522D01*
X0023015Y0164326D01*
X0022676Y0164121D01*
X0022342Y0163909D01*
X0022014Y0163688D01*
X0021691Y0163460D01*
X0021373Y0163224D01*
X0021061Y0162980D01*
X0020756Y0162728D01*
X0020456Y0162469D01*
X0020163Y0162204D01*
X0019876Y0161931D01*
X0019596Y0161651D01*
X0019323Y0161364D01*
X0019058Y0161071D01*
X0018799Y0160771D01*
X0018547Y0160466D01*
X0018303Y0160154D01*
X0018067Y0159836D01*
X0017839Y0159513D01*
X0017618Y0159185D01*
X0017406Y0158851D01*
X0017201Y0158512D01*
X0017005Y0158168D01*
X0016817Y0157819D01*
X0016638Y0157466D01*
X0016468Y0157109D01*
X0016306Y0156748D01*
X0016153Y0156383D01*
X0016009Y0156014D01*
X0015874Y0155642D01*
X0015748Y0155267D01*
X0015631Y0154889D01*
X0015523Y0154508D01*
X0015425Y0154124D01*
X0015336Y0153739D01*
X0015256Y0153351D01*
X0015186Y0152962D01*
X0015126Y0152570D01*
X0015074Y0152178D01*
X0015033Y0151784D01*
X0015001Y0151390D01*
X0014978Y0150995D01*
X0014965Y0150599D01*
X0014962Y0150203D01*
X0014968Y0149807D01*
X0014984Y0149412D01*
X0015010Y0149017D01*
X0015010Y0019017D01*
X0014984Y0018622D01*
X0014968Y0018227D01*
X0014962Y0017831D01*
X0014965Y0017435D01*
X0014978Y0017039D01*
X0015001Y0016644D01*
X0015033Y0016250D01*
X0015074Y0015856D01*
X0015126Y0015464D01*
X0015186Y0015072D01*
X0015256Y0014683D01*
X0015336Y0014295D01*
X0015425Y0013910D01*
X0015523Y0013526D01*
X0015631Y0013145D01*
X0015748Y0012767D01*
X0015874Y0012392D01*
X0016009Y0012020D01*
X0016153Y0011651D01*
X0016306Y0011286D01*
X0016468Y0010925D01*
X0016638Y0010568D01*
X0016817Y0010215D01*
X0017005Y0009866D01*
X0017201Y0009522D01*
X0017406Y0009183D01*
X0017618Y0008849D01*
X0017839Y0008521D01*
X0018067Y0008198D01*
X0018303Y0007880D01*
X0018547Y0007568D01*
X0018799Y0007263D01*
X0019058Y0006963D01*
X0019323Y0006670D01*
X0019596Y0006383D01*
X0019876Y0006103D01*
X0020163Y0005830D01*
X0020456Y0005565D01*
X0020756Y0005306D01*
X0021061Y0005054D01*
X0021373Y0004810D01*
X0021691Y0004574D01*
X0022014Y0004346D01*
X0022342Y0004125D01*
X0022676Y0003913D01*
X0023015Y0003708D01*
X0023359Y0003512D01*
X0023708Y0003324D01*
X0024061Y0003145D01*
X0024418Y0002975D01*
X0024779Y0002813D01*
X0025144Y0002660D01*
X0025513Y0002516D01*
X0025885Y0002381D01*
X0026260Y0002255D01*
X0026638Y0002138D01*
X0027019Y0002030D01*
X0027403Y0001932D01*
X0027788Y0001843D01*
X0028176Y0001763D01*
X0028565Y0001693D01*
X0028957Y0001633D01*
X0029349Y0001581D01*
X0029743Y0001540D01*
X0030137Y0001508D01*
X0030532Y0001485D01*
X0030928Y0001472D01*
X0031324Y0001469D01*
X0031720Y0001475D01*
X0032115Y0001491D01*
X0032510Y0001517D01*
X0109129Y0007142D02*
X0109131Y0007247D01*
X0109137Y0007352D01*
X0109147Y0007456D01*
X0109161Y0007560D01*
X0109179Y0007664D01*
X0109201Y0007766D01*
X0109226Y0007868D01*
X0109256Y0007969D01*
X0109289Y0008068D01*
X0109326Y0008166D01*
X0109367Y0008263D01*
X0109412Y0008358D01*
X0109460Y0008451D01*
X0109511Y0008543D01*
X0109567Y0008632D01*
X0109625Y0008719D01*
X0109687Y0008804D01*
X0109751Y0008887D01*
X0109819Y0008967D01*
X0109890Y0009044D01*
X0109964Y0009118D01*
X0110041Y0009190D01*
X0110120Y0009259D01*
X0110202Y0009324D01*
X0110286Y0009387D01*
X0110373Y0009446D01*
X0110462Y0009502D01*
X0110553Y0009555D01*
X0110646Y0009604D01*
X0110740Y0009649D01*
X0110836Y0009691D01*
X0110934Y0009729D01*
X0111033Y0009763D01*
X0111134Y0009794D01*
X0111235Y0009820D01*
X0111338Y0009843D01*
X0111441Y0009862D01*
X0111545Y0009877D01*
X0111649Y0009888D01*
X0111754Y0009895D01*
X0111859Y0009898D01*
X0111964Y0009897D01*
X0112069Y0009892D01*
X0112173Y0009883D01*
X0112277Y0009870D01*
X0112381Y0009853D01*
X0112484Y0009832D01*
X0112586Y0009807D01*
X0112687Y0009779D01*
X0112786Y0009746D01*
X0112885Y0009710D01*
X0112982Y0009670D01*
X0113077Y0009627D01*
X0113171Y0009579D01*
X0113263Y0009529D01*
X0113353Y0009475D01*
X0113441Y0009417D01*
X0113526Y0009356D01*
X0113609Y0009292D01*
X0113690Y0009225D01*
X0113768Y0009155D01*
X0113843Y0009081D01*
X0113915Y0009006D01*
X0113985Y0008927D01*
X0114051Y0008846D01*
X0114115Y0008762D01*
X0114175Y0008676D01*
X0114231Y0008588D01*
X0114285Y0008497D01*
X0114335Y0008405D01*
X0114381Y0008311D01*
X0114424Y0008215D01*
X0114463Y0008117D01*
X0114498Y0008019D01*
X0114529Y0007918D01*
X0114557Y0007817D01*
X0114581Y0007715D01*
X0114601Y0007612D01*
X0114617Y0007508D01*
X0114629Y0007404D01*
X0114637Y0007299D01*
X0114641Y0007194D01*
X0114641Y0007090D01*
X0114637Y0006985D01*
X0114629Y0006880D01*
X0114617Y0006776D01*
X0114601Y0006672D01*
X0114581Y0006569D01*
X0114557Y0006467D01*
X0114529Y0006366D01*
X0114498Y0006265D01*
X0114463Y0006167D01*
X0114424Y0006069D01*
X0114381Y0005973D01*
X0114335Y0005879D01*
X0114285Y0005787D01*
X0114231Y0005696D01*
X0114175Y0005608D01*
X0114115Y0005522D01*
X0114051Y0005438D01*
X0113985Y0005357D01*
X0113915Y0005278D01*
X0113843Y0005203D01*
X0113768Y0005129D01*
X0113690Y0005059D01*
X0113609Y0004992D01*
X0113526Y0004928D01*
X0113441Y0004867D01*
X0113353Y0004809D01*
X0113263Y0004755D01*
X0113171Y0004705D01*
X0113077Y0004657D01*
X0112982Y0004614D01*
X0112885Y0004574D01*
X0112786Y0004538D01*
X0112687Y0004505D01*
X0112586Y0004477D01*
X0112484Y0004452D01*
X0112381Y0004431D01*
X0112277Y0004414D01*
X0112173Y0004401D01*
X0112069Y0004392D01*
X0111964Y0004387D01*
X0111859Y0004386D01*
X0111754Y0004389D01*
X0111649Y0004396D01*
X0111545Y0004407D01*
X0111441Y0004422D01*
X0111338Y0004441D01*
X0111235Y0004464D01*
X0111134Y0004490D01*
X0111033Y0004521D01*
X0110934Y0004555D01*
X0110836Y0004593D01*
X0110740Y0004635D01*
X0110646Y0004680D01*
X0110553Y0004729D01*
X0110462Y0004782D01*
X0110373Y0004838D01*
X0110286Y0004897D01*
X0110202Y0004960D01*
X0110120Y0005025D01*
X0110041Y0005094D01*
X0109964Y0005166D01*
X0109890Y0005240D01*
X0109819Y0005317D01*
X0109751Y0005397D01*
X0109687Y0005480D01*
X0109625Y0005565D01*
X0109567Y0005652D01*
X0109511Y0005741D01*
X0109460Y0005833D01*
X0109412Y0005926D01*
X0109367Y0006021D01*
X0109326Y0006118D01*
X0109289Y0006216D01*
X0109256Y0006315D01*
X0109226Y0006416D01*
X0109201Y0006518D01*
X0109179Y0006620D01*
X0109161Y0006724D01*
X0109147Y0006828D01*
X0109137Y0006932D01*
X0109131Y0007037D01*
X0109129Y0007142D01*
X0109129Y0018392D02*
X0109131Y0018497D01*
X0109137Y0018602D01*
X0109147Y0018706D01*
X0109161Y0018810D01*
X0109179Y0018914D01*
X0109201Y0019016D01*
X0109226Y0019118D01*
X0109256Y0019219D01*
X0109289Y0019318D01*
X0109326Y0019416D01*
X0109367Y0019513D01*
X0109412Y0019608D01*
X0109460Y0019701D01*
X0109511Y0019793D01*
X0109567Y0019882D01*
X0109625Y0019969D01*
X0109687Y0020054D01*
X0109751Y0020137D01*
X0109819Y0020217D01*
X0109890Y0020294D01*
X0109964Y0020368D01*
X0110041Y0020440D01*
X0110120Y0020509D01*
X0110202Y0020574D01*
X0110286Y0020637D01*
X0110373Y0020696D01*
X0110462Y0020752D01*
X0110553Y0020805D01*
X0110646Y0020854D01*
X0110740Y0020899D01*
X0110836Y0020941D01*
X0110934Y0020979D01*
X0111033Y0021013D01*
X0111134Y0021044D01*
X0111235Y0021070D01*
X0111338Y0021093D01*
X0111441Y0021112D01*
X0111545Y0021127D01*
X0111649Y0021138D01*
X0111754Y0021145D01*
X0111859Y0021148D01*
X0111964Y0021147D01*
X0112069Y0021142D01*
X0112173Y0021133D01*
X0112277Y0021120D01*
X0112381Y0021103D01*
X0112484Y0021082D01*
X0112586Y0021057D01*
X0112687Y0021029D01*
X0112786Y0020996D01*
X0112885Y0020960D01*
X0112982Y0020920D01*
X0113077Y0020877D01*
X0113171Y0020829D01*
X0113263Y0020779D01*
X0113353Y0020725D01*
X0113441Y0020667D01*
X0113526Y0020606D01*
X0113609Y0020542D01*
X0113690Y0020475D01*
X0113768Y0020405D01*
X0113843Y0020331D01*
X0113915Y0020256D01*
X0113985Y0020177D01*
X0114051Y0020096D01*
X0114115Y0020012D01*
X0114175Y0019926D01*
X0114231Y0019838D01*
X0114285Y0019747D01*
X0114335Y0019655D01*
X0114381Y0019561D01*
X0114424Y0019465D01*
X0114463Y0019367D01*
X0114498Y0019269D01*
X0114529Y0019168D01*
X0114557Y0019067D01*
X0114581Y0018965D01*
X0114601Y0018862D01*
X0114617Y0018758D01*
X0114629Y0018654D01*
X0114637Y0018549D01*
X0114641Y0018444D01*
X0114641Y0018340D01*
X0114637Y0018235D01*
X0114629Y0018130D01*
X0114617Y0018026D01*
X0114601Y0017922D01*
X0114581Y0017819D01*
X0114557Y0017717D01*
X0114529Y0017616D01*
X0114498Y0017515D01*
X0114463Y0017417D01*
X0114424Y0017319D01*
X0114381Y0017223D01*
X0114335Y0017129D01*
X0114285Y0017037D01*
X0114231Y0016946D01*
X0114175Y0016858D01*
X0114115Y0016772D01*
X0114051Y0016688D01*
X0113985Y0016607D01*
X0113915Y0016528D01*
X0113843Y0016453D01*
X0113768Y0016379D01*
X0113690Y0016309D01*
X0113609Y0016242D01*
X0113526Y0016178D01*
X0113441Y0016117D01*
X0113353Y0016059D01*
X0113263Y0016005D01*
X0113171Y0015955D01*
X0113077Y0015907D01*
X0112982Y0015864D01*
X0112885Y0015824D01*
X0112786Y0015788D01*
X0112687Y0015755D01*
X0112586Y0015727D01*
X0112484Y0015702D01*
X0112381Y0015681D01*
X0112277Y0015664D01*
X0112173Y0015651D01*
X0112069Y0015642D01*
X0111964Y0015637D01*
X0111859Y0015636D01*
X0111754Y0015639D01*
X0111649Y0015646D01*
X0111545Y0015657D01*
X0111441Y0015672D01*
X0111338Y0015691D01*
X0111235Y0015714D01*
X0111134Y0015740D01*
X0111033Y0015771D01*
X0110934Y0015805D01*
X0110836Y0015843D01*
X0110740Y0015885D01*
X0110646Y0015930D01*
X0110553Y0015979D01*
X0110462Y0016032D01*
X0110373Y0016088D01*
X0110286Y0016147D01*
X0110202Y0016210D01*
X0110120Y0016275D01*
X0110041Y0016344D01*
X0109964Y0016416D01*
X0109890Y0016490D01*
X0109819Y0016567D01*
X0109751Y0016647D01*
X0109687Y0016730D01*
X0109625Y0016815D01*
X0109567Y0016902D01*
X0109511Y0016991D01*
X0109460Y0017083D01*
X0109412Y0017176D01*
X0109367Y0017271D01*
X0109326Y0017368D01*
X0109289Y0017466D01*
X0109256Y0017565D01*
X0109226Y0017666D01*
X0109201Y0017768D01*
X0109179Y0017870D01*
X0109161Y0017974D01*
X0109147Y0018078D01*
X0109137Y0018182D01*
X0109131Y0018287D01*
X0109129Y0018392D01*
D11*
X0095635Y0017767D03*
X0095635Y0007767D03*
X0031885Y0079017D03*
X0021885Y0079017D03*
X0230010Y0042142D03*
X0240010Y0042142D03*
X0233135Y0104017D03*
D12*
X0202510Y0153517D02*
X0202510Y0159517D01*
X0192510Y0159517D02*
X0192510Y0153517D01*
X0182510Y0153517D02*
X0182510Y0159517D01*
X0126760Y0079642D02*
X0120760Y0079642D01*
X0120760Y0069642D02*
X0126760Y0069642D01*
X0126760Y0059642D02*
X0120760Y0059642D01*
X0120760Y0049642D02*
X0126760Y0049642D01*
X0126760Y0039642D02*
X0120760Y0039642D01*
D13*
X0097885Y0062767D03*
X0091885Y0062767D03*
X0085885Y0062767D03*
X0053510Y0072142D03*
X0047510Y0072142D03*
X0041510Y0072142D03*
D14*
X0032510Y0019017D03*
X0032510Y0149017D03*
X0285010Y0019017D03*
X0287510Y0149017D03*
D15*
X0250948Y0062204D03*
X0250948Y0056204D03*
X0250948Y0050204D03*
X0218760Y0051517D03*
X0218760Y0057517D03*
X0218760Y0045517D03*
D16*
X0288760Y0042767D03*
X0288760Y0052767D03*
X0288760Y0062767D03*
X0288760Y0072767D03*
X0288760Y0094017D03*
X0288760Y0104017D03*
X0288760Y0114017D03*
X0288760Y0124017D03*
X0265010Y0147767D03*
X0265010Y0157767D03*
D17*
X0214873Y0086841D03*
X0210148Y0086841D03*
D18*
X0103135Y0105267D03*
X0103135Y0110892D03*
D19*
X0021885Y0118392D03*
D20*
X0031885Y0118392D03*
X0031885Y0108392D03*
X0021885Y0108392D03*
X0021885Y0098392D03*
X0031885Y0098392D03*
D21*
X0030010Y0042142D03*
X0020010Y0042142D03*
D22*
X0017379Y0013583D02*
X0018818Y0010324D01*
X0021009Y0007515D01*
X0023818Y0005325D01*
X0027077Y0003885D01*
X0030588Y0003284D01*
X0031750Y0003302D01*
X0031765Y0003317D01*
X0032441Y0003317D01*
X0033116Y0003369D01*
X0033176Y0003317D01*
X0093368Y0003317D01*
X0090885Y0005799D01*
X0090885Y0009734D01*
X0093668Y0012517D01*
X0097603Y0012517D01*
X0100385Y0009734D01*
X0100385Y0005799D01*
X0097903Y0003317D01*
X0109267Y0003317D01*
X0108023Y0004561D01*
X0107330Y0006235D01*
X0107330Y0008048D01*
X0108023Y0009722D01*
X0109305Y0011004D01*
X0110979Y0011698D01*
X0112792Y0011698D01*
X0114466Y0011004D01*
X0115748Y0009722D01*
X0116441Y0008048D01*
X0116441Y0006235D01*
X0115748Y0004561D01*
X0114503Y0003317D01*
X0215635Y0003317D01*
X0215635Y0003892D01*
X0134182Y0003892D01*
X0095432Y0042642D01*
X0080095Y0042642D01*
X0079722Y0042268D01*
X0078692Y0041842D01*
X0077578Y0041842D01*
X0076549Y0042268D01*
X0075762Y0043056D01*
X0075415Y0043892D01*
X0066345Y0043892D01*
X0065972Y0043518D01*
X0064942Y0043092D01*
X0063828Y0043092D01*
X0063260Y0043327D01*
X0063260Y0039438D01*
X0063058Y0039236D01*
X0063435Y0038324D01*
X0063435Y0037210D01*
X0063009Y0036181D01*
X0062222Y0035393D01*
X0061192Y0034967D01*
X0060078Y0034967D01*
X0059049Y0035393D01*
X0058262Y0036181D01*
X0057936Y0036968D01*
X0057936Y0036420D01*
X0058291Y0036065D01*
X0058874Y0035496D01*
X0058875Y0035481D01*
X0058885Y0035470D01*
X0058885Y0034726D01*
X0059259Y0034353D01*
X0059685Y0033324D01*
X0059685Y0032210D01*
X0059259Y0031181D01*
X0058472Y0030393D01*
X0057442Y0029967D01*
X0056328Y0029967D01*
X0055299Y0030393D01*
X0054512Y0031181D01*
X0054085Y0032210D01*
X0054085Y0033324D01*
X0054455Y0034217D01*
X0053947Y0034712D01*
X0053946Y0034728D01*
X0053936Y0034738D01*
X0053936Y0035554D01*
X0053925Y0036369D01*
X0053936Y0036380D01*
X0053936Y0063607D01*
X0053562Y0063981D01*
X0053136Y0065010D01*
X0053136Y0066124D01*
X0053562Y0067153D01*
X0053801Y0067392D01*
X0050548Y0067392D01*
X0050510Y0067429D01*
X0050473Y0067392D01*
X0044548Y0067392D01*
X0044510Y0067429D01*
X0044473Y0067392D01*
X0038548Y0067392D01*
X0037610Y0068329D01*
X0037610Y0069342D01*
X0037578Y0069342D01*
X0036549Y0069768D01*
X0035762Y0070556D01*
X0035335Y0071585D01*
X0035335Y0072699D01*
X0035762Y0073728D01*
X0036549Y0074515D01*
X0037578Y0074942D01*
X0037610Y0074942D01*
X0037610Y0075954D01*
X0038548Y0076892D01*
X0044473Y0076892D01*
X0044510Y0076854D01*
X0044548Y0076892D01*
X0045510Y0076892D01*
X0045510Y0077345D01*
X0046682Y0078517D01*
X0047932Y0079767D01*
X0056924Y0079767D01*
X0057012Y0079978D01*
X0057799Y0080765D01*
X0058828Y0081192D01*
X0059357Y0081192D01*
X0063010Y0084845D01*
X0064182Y0086017D01*
X0067307Y0086017D01*
X0068010Y0086720D01*
X0068010Y0103563D01*
X0065760Y0101313D01*
X0065760Y0095664D01*
X0065822Y0095603D01*
X0066248Y0094574D01*
X0066248Y0093460D01*
X0065822Y0092431D01*
X0065689Y0092298D01*
X0066134Y0091853D01*
X0066560Y0090824D01*
X0066560Y0089710D01*
X0066134Y0088681D01*
X0065347Y0087893D01*
X0064317Y0087467D01*
X0063203Y0087467D01*
X0062174Y0087893D01*
X0061387Y0088681D01*
X0060960Y0089710D01*
X0060960Y0090238D01*
X0060760Y0090438D01*
X0060760Y0089438D01*
X0059589Y0088267D01*
X0053964Y0082642D01*
X0035261Y0082642D01*
X0036835Y0081067D01*
X0036835Y0079017D01*
X0031886Y0079017D01*
X0031886Y0079017D01*
X0036835Y0079017D01*
X0036835Y0076966D01*
X0033936Y0074067D01*
X0031885Y0074067D01*
X0031885Y0079017D01*
X0031885Y0079017D01*
X0026935Y0079017D01*
X0026935Y0081067D01*
X0028510Y0082642D01*
X0024978Y0082642D01*
X0026635Y0080984D01*
X0026635Y0077049D01*
X0023885Y0074299D01*
X0023885Y0061095D01*
X0038885Y0046095D01*
X0038885Y0039726D01*
X0039259Y0039353D01*
X0039685Y0038324D01*
X0039685Y0037210D01*
X0039259Y0036181D01*
X0038472Y0035393D01*
X0037442Y0034967D01*
X0036328Y0034967D01*
X0035299Y0035393D01*
X0034512Y0036181D01*
X0034085Y0037210D01*
X0034085Y0038324D01*
X0034512Y0039353D01*
X0034885Y0039726D01*
X0034885Y0044438D01*
X0021057Y0058267D01*
X0019885Y0059438D01*
X0019885Y0074299D01*
X0017135Y0077049D01*
X0017135Y0080984D01*
X0019918Y0083767D01*
X0023682Y0083767D01*
X0021057Y0086392D01*
X0019885Y0087563D01*
X0019885Y0093886D01*
X0017285Y0096486D01*
X0017285Y0100297D01*
X0019980Y0102992D01*
X0023791Y0102992D01*
X0024885Y0101897D01*
X0024885Y0104220D01*
X0026057Y0105392D01*
X0027285Y0106620D01*
X0027285Y0110297D01*
X0029980Y0112992D01*
X0033791Y0112992D01*
X0036485Y0110297D01*
X0036485Y0106486D01*
X0033791Y0103792D01*
X0030114Y0103792D01*
X0028885Y0102563D01*
X0028885Y0102180D01*
X0029897Y0103192D01*
X0031685Y0103192D01*
X0031685Y0098592D01*
X0032085Y0098592D01*
X0032085Y0103192D01*
X0033874Y0103192D01*
X0036685Y0100380D01*
X0036685Y0098592D01*
X0032086Y0098592D01*
X0032086Y0098192D01*
X0036685Y0098192D01*
X0036685Y0096403D01*
X0033874Y0093592D01*
X0032085Y0093592D01*
X0032085Y0098192D01*
X0031685Y0098192D01*
X0031685Y0093592D01*
X0030139Y0093592D01*
X0032714Y0091017D01*
X0050432Y0091017D01*
X0053010Y0093595D01*
X0053010Y0114220D01*
X0054182Y0115392D01*
X0054182Y0115392D01*
X0063460Y0124670D01*
X0063460Y0125199D01*
X0063506Y0125309D01*
X0061385Y0123188D01*
X0061385Y0123188D01*
X0060214Y0122017D01*
X0034766Y0122017D01*
X0036485Y0120297D01*
X0036485Y0116486D01*
X0033791Y0113792D01*
X0029980Y0113792D01*
X0028885Y0114886D01*
X0028885Y0112563D01*
X0026485Y0110163D01*
X0026485Y0106486D01*
X0023791Y0103792D01*
X0019980Y0103792D01*
X0017285Y0106486D01*
X0017285Y0110297D01*
X0019980Y0112992D01*
X0023657Y0112992D01*
X0024885Y0114220D01*
X0024885Y0114886D01*
X0024491Y0114492D01*
X0022800Y0113792D01*
X0020970Y0113792D01*
X0019280Y0114492D01*
X0017986Y0115786D01*
X0017285Y0117477D01*
X0017285Y0119307D01*
X0017986Y0120997D01*
X0019280Y0122291D01*
X0020970Y0122992D01*
X0022800Y0122992D01*
X0024491Y0122291D01*
X0024974Y0121809D01*
X0026057Y0122892D01*
X0029182Y0126017D01*
X0058557Y0126017D01*
X0061760Y0129220D01*
X0062932Y0130392D01*
X0063051Y0130392D01*
X0063424Y0130765D01*
X0064453Y0131192D01*
X0065567Y0131192D01*
X0066254Y0130907D01*
X0066387Y0131228D01*
X0067174Y0132015D01*
X0068203Y0132442D01*
X0068732Y0132442D01*
X0069182Y0132892D01*
X0074710Y0132892D01*
X0074710Y0133949D01*
X0075137Y0134978D01*
X0075510Y0135351D01*
X0075510Y0139845D01*
X0080807Y0145142D01*
X0060214Y0145142D01*
X0047810Y0132738D01*
X0047810Y0132210D01*
X0047384Y0131181D01*
X0047220Y0131017D01*
X0056682Y0131017D01*
X0060510Y0134845D01*
X0060510Y0138932D01*
X0060137Y0139306D01*
X0059710Y0140335D01*
X0059710Y0141449D01*
X0060137Y0142478D01*
X0060924Y0143265D01*
X0061953Y0143692D01*
X0063067Y0143692D01*
X0064097Y0143265D01*
X0064884Y0142478D01*
X0065310Y0141449D01*
X0065310Y0140335D01*
X0064884Y0139306D01*
X0064510Y0138932D01*
X0064510Y0133188D01*
X0063339Y0132017D01*
X0059510Y0128188D01*
X0058339Y0127017D01*
X0040095Y0127017D01*
X0039722Y0126643D01*
X0038692Y0126217D01*
X0037578Y0126217D01*
X0036549Y0126643D01*
X0035762Y0127431D01*
X0035335Y0128460D01*
X0035335Y0129574D01*
X0035762Y0130603D01*
X0036549Y0131390D01*
X0037578Y0131817D01*
X0038692Y0131817D01*
X0039722Y0131390D01*
X0040095Y0131017D01*
X0042801Y0131017D01*
X0042637Y0131181D01*
X0042210Y0132210D01*
X0042210Y0133324D01*
X0042637Y0134353D01*
X0043424Y0135140D01*
X0044453Y0135567D01*
X0044982Y0135567D01*
X0057385Y0147970D01*
X0058557Y0149142D01*
X0120214Y0149142D01*
X0121385Y0147970D01*
X0121385Y0147970D01*
X0122539Y0146817D01*
X0123067Y0146817D01*
X0124097Y0146390D01*
X0124884Y0145603D01*
X0125310Y0144574D01*
X0125310Y0143517D01*
X0130214Y0143517D01*
X0133964Y0139767D01*
X0144085Y0139767D01*
X0144085Y0140824D01*
X0144260Y0141246D01*
X0144260Y0147970D01*
X0146682Y0150392D01*
X0179130Y0150392D01*
X0178611Y0150911D01*
X0177910Y0152602D01*
X0177910Y0160432D01*
X0178611Y0162122D01*
X0179905Y0163416D01*
X0181595Y0164117D01*
X0183425Y0164117D01*
X0185116Y0163416D01*
X0186410Y0162122D01*
X0187110Y0160432D01*
X0187110Y0152602D01*
X0186410Y0150911D01*
X0185891Y0150392D01*
X0189130Y0150392D01*
X0188611Y0150911D01*
X0187910Y0152602D01*
X0187910Y0160432D01*
X0188611Y0162122D01*
X0189905Y0163416D01*
X0191595Y0164117D01*
X0193425Y0164117D01*
X0195116Y0163416D01*
X0196410Y0162122D01*
X0197110Y0160432D01*
X0197110Y0152602D01*
X0196410Y0150911D01*
X0195116Y0149617D01*
X0194510Y0149366D01*
X0194510Y0148813D01*
X0193260Y0147563D01*
X0192089Y0146392D01*
X0148339Y0146392D01*
X0148260Y0146313D01*
X0148260Y0146192D01*
X0149317Y0146192D01*
X0150347Y0145765D01*
X0150720Y0145392D01*
X0152714Y0145392D01*
X0153339Y0144767D01*
X0172714Y0144767D01*
X0182714Y0134767D01*
X0183885Y0133595D01*
X0183885Y0120351D01*
X0184259Y0119978D01*
X0184685Y0118949D01*
X0184685Y0117835D01*
X0184450Y0117267D01*
X0187835Y0117267D01*
X0187835Y0118324D01*
X0188262Y0119353D01*
X0189049Y0120140D01*
X0190078Y0120567D01*
X0191192Y0120567D01*
X0192222Y0120140D01*
X0192595Y0119767D01*
X0193339Y0119767D01*
X0193964Y0119142D01*
X0237932Y0119142D01*
X0243010Y0124220D01*
X0243010Y0124557D01*
X0242637Y0124931D01*
X0242210Y0125960D01*
X0242210Y0127074D01*
X0242637Y0128103D01*
X0243424Y0128890D01*
X0244453Y0129317D01*
X0245567Y0129317D01*
X0246597Y0128890D01*
X0247384Y0128103D01*
X0247810Y0127074D01*
X0247810Y0125960D01*
X0247384Y0124931D01*
X0247010Y0124557D01*
X0247010Y0122563D01*
X0245839Y0121392D01*
X0242127Y0117680D01*
X0242222Y0117640D01*
X0243009Y0116853D01*
X0243435Y0115824D01*
X0243435Y0114710D01*
X0243009Y0113681D01*
X0242222Y0112893D01*
X0241192Y0112467D01*
X0240078Y0112467D01*
X0239049Y0112893D01*
X0238676Y0113267D01*
X0162089Y0113267D01*
X0154002Y0105180D01*
X0154097Y0105140D01*
X0154470Y0104767D01*
X0157307Y0104767D01*
X0161057Y0108517D01*
X0216464Y0108517D01*
X0217635Y0107345D01*
X0217635Y0107345D01*
X0225839Y0099142D01*
X0234589Y0099142D01*
X0234714Y0099017D01*
X0272510Y0099017D01*
X0287510Y0084017D01*
X0293210Y0084017D01*
X0293210Y0090194D01*
X0291184Y0088167D01*
X0286337Y0088167D01*
X0282910Y0091594D01*
X0282910Y0091617D01*
X0282033Y0091617D01*
X0281151Y0091982D01*
X0269901Y0103232D01*
X0269226Y0103907D01*
X0268860Y0104789D01*
X0268860Y0124273D01*
X0240266Y0152867D01*
X0238991Y0152867D01*
X0239060Y0152699D01*
X0239060Y0152170D01*
X0240135Y0151095D01*
X0240135Y0138813D01*
X0239060Y0137738D01*
X0239060Y0137210D01*
X0238634Y0136181D01*
X0237847Y0135393D01*
X0236817Y0134967D01*
X0235703Y0134967D01*
X0234674Y0135393D01*
X0233887Y0136181D01*
X0233460Y0137210D01*
X0233460Y0138324D01*
X0233887Y0139353D01*
X0234674Y0140140D01*
X0235703Y0140567D01*
X0236135Y0140567D01*
X0236135Y0149342D01*
X0235703Y0149342D01*
X0234674Y0149768D01*
X0233887Y0150556D01*
X0233460Y0151585D01*
X0233460Y0152699D01*
X0233530Y0152867D01*
X0217158Y0152867D01*
X0216192Y0152467D01*
X0215078Y0152467D01*
X0214049Y0152893D01*
X0213885Y0153057D01*
X0213885Y0148067D01*
X0214942Y0148067D01*
X0215972Y0147640D01*
X0216759Y0146853D01*
X0217159Y0145887D01*
X0223870Y0139176D01*
X0224545Y0138501D01*
X0224910Y0137619D01*
X0224910Y0134542D01*
X0238391Y0134542D01*
X0243487Y0139637D01*
X0243887Y0140603D01*
X0244674Y0141390D01*
X0245703Y0141817D01*
X0246817Y0141817D01*
X0247847Y0141390D01*
X0248634Y0140603D01*
X0249060Y0139574D01*
X0249060Y0138460D01*
X0248634Y0137431D01*
X0247847Y0136643D01*
X0246881Y0136243D01*
X0241420Y0130782D01*
X0240745Y0130107D01*
X0239863Y0129742D01*
X0224910Y0129742D01*
X0224910Y0128664D01*
X0225310Y0127699D01*
X0225310Y0126585D01*
X0224884Y0125556D01*
X0224097Y0124768D01*
X0223067Y0124342D01*
X0221953Y0124342D01*
X0220924Y0124768D01*
X0220137Y0125556D01*
X0219710Y0126585D01*
X0219710Y0127699D01*
X0220110Y0128664D01*
X0220110Y0136148D01*
X0213885Y0142373D01*
X0213885Y0131313D01*
X0210214Y0127642D01*
X0209060Y0127642D01*
X0209060Y0127170D01*
X0212089Y0124142D01*
X0233051Y0124142D01*
X0233424Y0124515D01*
X0234453Y0124942D01*
X0235567Y0124942D01*
X0236597Y0124515D01*
X0237384Y0123728D01*
X0237810Y0122699D01*
X0237810Y0121585D01*
X0237384Y0120556D01*
X0236597Y0119768D01*
X0235567Y0119342D01*
X0234453Y0119342D01*
X0233424Y0119768D01*
X0233051Y0120142D01*
X0210432Y0120142D01*
X0209260Y0121313D01*
X0206232Y0124342D01*
X0205703Y0124342D01*
X0204674Y0124768D01*
X0203887Y0125556D01*
X0203460Y0126585D01*
X0203460Y0127642D01*
X0203220Y0127642D01*
X0202847Y0127268D01*
X0201817Y0126842D01*
X0200703Y0126842D01*
X0199674Y0127268D01*
X0198887Y0128056D01*
X0198460Y0129085D01*
X0198460Y0130199D01*
X0198887Y0131228D01*
X0199674Y0132015D01*
X0200703Y0132442D01*
X0201817Y0132442D01*
X0202847Y0132015D01*
X0203220Y0131642D01*
X0208557Y0131642D01*
X0209885Y0132970D01*
X0209885Y0154845D01*
X0211135Y0156095D01*
X0212307Y0157267D01*
X0213676Y0157267D01*
X0214049Y0157640D01*
X0215078Y0158067D01*
X0216192Y0158067D01*
X0217158Y0157667D01*
X0241738Y0157667D01*
X0242620Y0157301D01*
X0243295Y0156626D01*
X0243295Y0156626D01*
X0273295Y0126626D01*
X0273660Y0125744D01*
X0273660Y0106261D01*
X0283196Y0096725D01*
X0285346Y0098875D01*
X0282710Y0101511D01*
X0282710Y0103817D01*
X0288560Y0103817D01*
X0288560Y0104217D01*
X0282710Y0104217D01*
X0282710Y0106523D01*
X0285204Y0109017D01*
X0282710Y0111511D01*
X0282710Y0113817D01*
X0288560Y0113817D01*
X0288560Y0114217D01*
X0282710Y0114217D01*
X0282710Y0116523D01*
X0285346Y0119158D01*
X0282910Y0121594D01*
X0282910Y0126440D01*
X0286337Y0129867D01*
X0291184Y0129867D01*
X0293210Y0127840D01*
X0293210Y0129762D01*
X0300661Y0137213D01*
X0300661Y0148408D01*
X0300659Y0148411D01*
X0300661Y0148446D01*
X0300661Y0149811D01*
X0300724Y0149874D01*
X0300737Y0151051D01*
X0300041Y0154771D01*
X0298406Y0158184D01*
X0295942Y0161058D01*
X0292820Y0163196D01*
X0289250Y0164453D01*
X0287409Y0164717D01*
X0033176Y0164717D01*
X0033116Y0164665D01*
X0032441Y0164717D01*
X0031765Y0164717D01*
X0031750Y0164731D01*
X0030588Y0164749D01*
X0027077Y0164148D01*
X0023818Y0162709D01*
X0021009Y0160518D01*
X0018818Y0157709D01*
X0017379Y0154450D01*
X0016778Y0150939D01*
X0016796Y0149777D01*
X0016810Y0149762D01*
X0016810Y0149086D01*
X0016862Y0148411D01*
X0016810Y0148351D01*
X0016810Y0044881D01*
X0017631Y0045702D01*
X0019175Y0046342D01*
X0020846Y0046342D01*
X0022390Y0045702D01*
X0023571Y0044521D01*
X0024210Y0042977D01*
X0024210Y0041306D01*
X0023571Y0039763D01*
X0022390Y0038581D01*
X0020846Y0037942D01*
X0019175Y0037942D01*
X0017631Y0038581D01*
X0016810Y0039402D01*
X0016810Y0019683D01*
X0016862Y0019622D01*
X0016810Y0018948D01*
X0016810Y0018271D01*
X0016796Y0018256D01*
X0016778Y0017094D01*
X0017379Y0013583D01*
X0017256Y0014305D02*
X0020211Y0014305D01*
X0020303Y0013960D02*
X0022028Y0010973D01*
X0024467Y0008534D01*
X0027454Y0006809D01*
X0030786Y0005917D01*
X0034235Y0005917D01*
X0037567Y0006809D01*
X0040554Y0008534D01*
X0042993Y0010973D01*
X0044718Y0013960D01*
X0045610Y0017292D01*
X0045610Y0020741D01*
X0044718Y0024073D01*
X0042993Y0027060D01*
X0040554Y0029499D01*
X0037567Y0031224D01*
X0034235Y0032117D01*
X0030786Y0032117D01*
X0027454Y0031224D01*
X0024467Y0029499D01*
X0022028Y0027060D01*
X0020303Y0024073D01*
X0019410Y0020741D01*
X0019410Y0017292D01*
X0020303Y0013960D01*
X0021027Y0012706D02*
X0017766Y0012706D01*
X0018472Y0011108D02*
X0021950Y0011108D01*
X0023492Y0009509D02*
X0019454Y0009509D01*
X0020700Y0007911D02*
X0025547Y0007911D01*
X0022552Y0006312D02*
X0029310Y0006312D01*
X0025201Y0004714D02*
X0091971Y0004714D01*
X0090885Y0006312D02*
X0035711Y0006312D01*
X0039474Y0007911D02*
X0090885Y0007911D01*
X0090885Y0009509D02*
X0041529Y0009509D01*
X0043071Y0011108D02*
X0092259Y0011108D01*
X0093668Y0013017D02*
X0097603Y0013017D01*
X0100385Y0015799D01*
X0100385Y0019734D01*
X0097603Y0022517D01*
X0093668Y0022517D01*
X0090885Y0019734D01*
X0090885Y0015799D01*
X0093668Y0013017D01*
X0092380Y0014305D02*
X0044810Y0014305D01*
X0045238Y0015903D02*
X0090885Y0015903D01*
X0090885Y0017502D02*
X0045610Y0017502D01*
X0045610Y0019100D02*
X0090885Y0019100D01*
X0091850Y0020699D02*
X0045610Y0020699D01*
X0045194Y0022297D02*
X0093449Y0022297D01*
X0097822Y0022297D02*
X0109409Y0022297D01*
X0109305Y0022254D02*
X0108023Y0020972D01*
X0107330Y0019298D01*
X0107330Y0017485D01*
X0108023Y0015811D01*
X0109305Y0014529D01*
X0110979Y0013836D01*
X0112792Y0013836D01*
X0114466Y0014529D01*
X0115748Y0015811D01*
X0116441Y0017485D01*
X0116441Y0019298D01*
X0115748Y0020972D01*
X0114466Y0022254D01*
X0112792Y0022948D01*
X0110979Y0022948D01*
X0109305Y0022254D01*
X0107910Y0020699D02*
X0099421Y0020699D01*
X0100385Y0019100D02*
X0107330Y0019100D01*
X0107330Y0017502D02*
X0100385Y0017502D01*
X0100385Y0015903D02*
X0107985Y0015903D01*
X0109847Y0014305D02*
X0098891Y0014305D01*
X0099012Y0011108D02*
X0109555Y0011108D01*
X0107935Y0009509D02*
X0100385Y0009509D01*
X0100385Y0007911D02*
X0107330Y0007911D01*
X0107330Y0006312D02*
X0100385Y0006312D01*
X0099300Y0004714D02*
X0107960Y0004714D01*
X0115811Y0004714D02*
X0133360Y0004714D01*
X0131761Y0006312D02*
X0116441Y0006312D01*
X0116441Y0007911D02*
X0130163Y0007911D01*
X0128564Y0009509D02*
X0115836Y0009509D01*
X0114216Y0011108D02*
X0126966Y0011108D01*
X0125367Y0012706D02*
X0043994Y0012706D01*
X0044765Y0023896D02*
X0114178Y0023896D01*
X0114362Y0022297D02*
X0115776Y0022297D01*
X0115861Y0020699D02*
X0117375Y0020699D01*
X0116441Y0019100D02*
X0118973Y0019100D01*
X0120572Y0017502D02*
X0116441Y0017502D01*
X0115786Y0015903D02*
X0122170Y0015903D01*
X0123769Y0014305D02*
X0113924Y0014305D01*
X0124630Y0019100D02*
X0141431Y0019100D01*
X0141903Y0019296D02*
X0140924Y0018890D01*
X0140137Y0018103D01*
X0139710Y0017074D01*
X0139710Y0015960D01*
X0139774Y0015807D01*
X0139674Y0015765D01*
X0138887Y0014978D01*
X0138460Y0013949D01*
X0138460Y0012835D01*
X0138887Y0011806D01*
X0139674Y0011018D01*
X0140703Y0010592D01*
X0141817Y0010592D01*
X0142847Y0011018D01*
X0143220Y0011392D01*
X0194807Y0011392D01*
X0196682Y0009517D01*
X0201464Y0009517D01*
X0202635Y0010688D01*
X0203164Y0011217D01*
X0203692Y0011217D01*
X0204722Y0011643D01*
X0205509Y0012431D01*
X0205935Y0013460D01*
X0205935Y0014574D01*
X0205509Y0015603D01*
X0204722Y0016390D01*
X0203692Y0016817D01*
X0202578Y0016817D01*
X0201549Y0016390D01*
X0200948Y0015789D01*
X0200347Y0016390D01*
X0199317Y0016817D01*
X0198789Y0016817D01*
X0198339Y0017267D01*
X0196089Y0017267D01*
X0200039Y0021217D01*
X0200567Y0021217D01*
X0201597Y0021643D01*
X0202384Y0022431D01*
X0202810Y0023460D01*
X0202810Y0024574D01*
X0202384Y0025603D01*
X0201597Y0026390D01*
X0200567Y0026817D01*
X0199453Y0026817D01*
X0198424Y0026390D01*
X0197637Y0025603D01*
X0197510Y0025298D01*
X0197384Y0025603D01*
X0197010Y0025976D01*
X0197010Y0029845D01*
X0195839Y0031017D01*
X0195760Y0031095D01*
X0195760Y0032682D01*
X0196134Y0033056D01*
X0196560Y0034085D01*
X0196560Y0035199D01*
X0196134Y0036228D01*
X0195347Y0037015D01*
X0194317Y0037442D01*
X0193203Y0037442D01*
X0192174Y0037015D01*
X0191387Y0036228D01*
X0190960Y0035199D01*
X0190960Y0034085D01*
X0191387Y0033056D01*
X0191760Y0032682D01*
X0191760Y0029438D01*
X0193010Y0028188D01*
X0193010Y0025976D01*
X0192637Y0025603D01*
X0192210Y0024574D01*
X0192210Y0023460D01*
X0192637Y0022431D01*
X0193424Y0021643D01*
X0194403Y0021238D01*
X0192307Y0019142D01*
X0147714Y0019142D01*
X0137810Y0029045D01*
X0137810Y0029574D01*
X0137384Y0030603D01*
X0136597Y0031390D01*
X0135567Y0031817D01*
X0134453Y0031817D01*
X0133424Y0031390D01*
X0132637Y0030603D01*
X0132210Y0029574D01*
X0132210Y0028460D01*
X0132637Y0027431D01*
X0133424Y0026643D01*
X0134453Y0026217D01*
X0134982Y0026217D01*
X0141903Y0019296D01*
X0140500Y0020699D02*
X0123032Y0020699D01*
X0121433Y0022297D02*
X0138901Y0022297D01*
X0137303Y0023896D02*
X0119835Y0023896D01*
X0118236Y0025494D02*
X0135704Y0025494D01*
X0132974Y0027093D02*
X0116638Y0027093D01*
X0115464Y0028267D02*
X0129589Y0028267D01*
X0141776Y0040454D01*
X0142948Y0041626D01*
X0142948Y0048619D01*
X0143322Y0048993D01*
X0143748Y0050022D01*
X0143748Y0051136D01*
X0143322Y0052165D01*
X0142534Y0052953D01*
X0141505Y0053379D01*
X0140391Y0053379D01*
X0139362Y0052953D01*
X0138574Y0052165D01*
X0138148Y0051136D01*
X0138148Y0050022D01*
X0138574Y0048993D01*
X0138948Y0048619D01*
X0138948Y0043283D01*
X0127932Y0032267D01*
X0114589Y0032267D01*
X0099214Y0047642D01*
X0105432Y0047642D01*
X0107089Y0047642D01*
X0107539Y0048092D01*
X0108067Y0048092D01*
X0109097Y0048518D01*
X0109884Y0049306D01*
X0110106Y0049842D01*
X0113010Y0046938D01*
X0113010Y0041313D01*
X0115510Y0038813D01*
X0116559Y0037765D01*
X0116861Y0037036D01*
X0118155Y0035742D01*
X0119845Y0035042D01*
X0127675Y0035042D01*
X0129366Y0035742D01*
X0130660Y0037036D01*
X0131360Y0038727D01*
X0131360Y0040557D01*
X0130660Y0042247D01*
X0129366Y0043541D01*
X0127675Y0044242D01*
X0119845Y0044242D01*
X0118155Y0043541D01*
X0117297Y0042684D01*
X0117010Y0042970D01*
X0117010Y0046886D01*
X0118155Y0045742D01*
X0119845Y0045042D01*
X0127675Y0045042D01*
X0129366Y0045742D01*
X0130660Y0047036D01*
X0131360Y0048727D01*
X0131360Y0050557D01*
X0130660Y0052247D01*
X0129366Y0053541D01*
X0127675Y0054242D01*
X0119845Y0054242D01*
X0118155Y0053541D01*
X0116861Y0052247D01*
X0116750Y0051980D01*
X0110839Y0057892D01*
X0106345Y0057892D01*
X0105972Y0058265D01*
X0104942Y0058692D01*
X0103828Y0058692D01*
X0102799Y0058265D01*
X0102426Y0057892D01*
X0080839Y0057892D01*
X0070310Y0068420D01*
X0070310Y0068949D01*
X0069884Y0069978D01*
X0069097Y0070765D01*
X0068067Y0071192D01*
X0066953Y0071192D01*
X0065924Y0070765D01*
X0065551Y0070392D01*
X0060935Y0070392D01*
X0060935Y0071449D01*
X0060509Y0072478D01*
X0060345Y0072642D01*
X0067932Y0072642D01*
X0070432Y0070142D01*
X0070551Y0070142D01*
X0070924Y0069768D01*
X0071953Y0069342D01*
X0073067Y0069342D01*
X0074097Y0069768D01*
X0074884Y0070556D01*
X0075106Y0071092D01*
X0076585Y0069613D01*
X0076585Y0069085D01*
X0077012Y0068056D01*
X0077799Y0067268D01*
X0078828Y0066842D01*
X0079942Y0066842D01*
X0080972Y0067268D01*
X0081759Y0068056D01*
X0082185Y0069085D01*
X0082185Y0070142D01*
X0086432Y0070142D01*
X0085510Y0069220D01*
X0083885Y0067595D01*
X0083885Y0067517D01*
X0082923Y0067517D01*
X0081985Y0066579D01*
X0081985Y0058954D01*
X0082923Y0058017D01*
X0088848Y0058017D01*
X0088885Y0058054D01*
X0088923Y0058017D01*
X0094848Y0058017D01*
X0094885Y0058054D01*
X0094923Y0058017D01*
X0100848Y0058017D01*
X0101785Y0058954D01*
X0101785Y0066579D01*
X0100848Y0067517D01*
X0099885Y0067517D01*
X0099885Y0067595D01*
X0099060Y0068420D01*
X0099060Y0068949D01*
X0098634Y0069978D01*
X0097847Y0070765D01*
X0096817Y0071192D01*
X0095703Y0071192D01*
X0094674Y0070765D01*
X0093887Y0069978D01*
X0093885Y0069975D01*
X0093885Y0071095D01*
X0093139Y0071842D01*
X0093692Y0071842D01*
X0094722Y0072268D01*
X0095509Y0073056D01*
X0095935Y0074085D01*
X0095935Y0075142D01*
X0114807Y0075142D01*
X0117281Y0072668D01*
X0116861Y0072247D01*
X0116160Y0070557D01*
X0116160Y0068727D01*
X0116861Y0067036D01*
X0118155Y0065742D01*
X0119845Y0065042D01*
X0127675Y0065042D01*
X0129366Y0065742D01*
X0130660Y0067036D01*
X0130828Y0067442D01*
X0133162Y0067442D01*
X0133748Y0066855D01*
X0133748Y0058105D01*
X0135037Y0056817D01*
X0135623Y0056230D01*
X0136912Y0054942D01*
X0140126Y0054942D01*
X0140299Y0054768D01*
X0141328Y0054342D01*
X0142442Y0054342D01*
X0143354Y0054719D01*
X0150932Y0047142D01*
X0144807Y0041017D01*
X0143635Y0039845D01*
X0143635Y0035601D01*
X0143472Y0035765D01*
X0142442Y0036192D01*
X0141328Y0036192D01*
X0140299Y0035765D01*
X0139512Y0034978D01*
X0139085Y0033949D01*
X0139085Y0032835D01*
X0139512Y0031806D01*
X0139885Y0031432D01*
X0139885Y0027563D01*
X0141057Y0026392D01*
X0144885Y0022563D01*
X0146057Y0021392D01*
X0178557Y0021392D01*
X0178635Y0021313D01*
X0179807Y0020142D01*
X0181176Y0020142D01*
X0181549Y0019768D01*
X0182578Y0019342D01*
X0183692Y0019342D01*
X0184722Y0019768D01*
X0185509Y0020556D01*
X0185935Y0021585D01*
X0185935Y0022699D01*
X0185509Y0023728D01*
X0184722Y0024515D01*
X0183692Y0024942D01*
X0182578Y0024942D01*
X0181549Y0024515D01*
X0181320Y0024286D01*
X0180214Y0025392D01*
X0147714Y0025392D01*
X0143885Y0029220D01*
X0143885Y0031182D01*
X0144049Y0031018D01*
X0145078Y0030592D01*
X0146192Y0030592D01*
X0147222Y0031018D01*
X0148009Y0031806D01*
X0148435Y0032835D01*
X0148435Y0033949D01*
X0148009Y0034978D01*
X0147635Y0035351D01*
X0147635Y0038188D01*
X0154589Y0045142D01*
X0177932Y0045142D01*
X0181760Y0041313D01*
X0182932Y0040142D01*
X0206413Y0040142D01*
X0206444Y0040112D01*
X0207235Y0040142D01*
X0207926Y0040142D01*
X0207953Y0040168D01*
X0208100Y0040174D01*
X0209402Y0041576D01*
X0209941Y0042156D01*
X0210500Y0042716D01*
X0210500Y0042759D01*
X0211390Y0043717D01*
X0211760Y0043717D01*
X0211760Y0041313D01*
X0212510Y0040563D01*
X0212510Y0019017D01*
X0215635Y0015892D01*
X0215635Y0007892D01*
X0135839Y0007892D01*
X0115464Y0028267D01*
X0110981Y0027093D02*
X0042960Y0027093D01*
X0043897Y0025494D02*
X0112579Y0025494D01*
X0109382Y0028691D02*
X0041362Y0028691D01*
X0039185Y0030290D02*
X0055548Y0030290D01*
X0054219Y0031888D02*
X0035087Y0031888D01*
X0036042Y0035085D02*
X0016810Y0035085D01*
X0016810Y0033487D02*
X0054153Y0033487D01*
X0053936Y0035085D02*
X0037729Y0035085D01*
X0039468Y0036684D02*
X0053936Y0036684D01*
X0053936Y0038282D02*
X0039685Y0038282D01*
X0038885Y0039881D02*
X0053936Y0039881D01*
X0053936Y0041479D02*
X0038885Y0041479D01*
X0038885Y0043078D02*
X0053936Y0043078D01*
X0053936Y0044676D02*
X0038885Y0044676D01*
X0038706Y0046275D02*
X0053936Y0046275D01*
X0053936Y0047873D02*
X0037107Y0047873D01*
X0035509Y0049472D02*
X0053936Y0049472D01*
X0053936Y0051071D02*
X0033910Y0051071D01*
X0032311Y0052669D02*
X0053936Y0052669D01*
X0053936Y0054268D02*
X0030713Y0054268D01*
X0029114Y0055866D02*
X0053936Y0055866D01*
X0053936Y0057465D02*
X0027516Y0057465D01*
X0025917Y0059063D02*
X0053936Y0059063D01*
X0053936Y0060662D02*
X0024319Y0060662D01*
X0023885Y0062260D02*
X0053936Y0062260D01*
X0053684Y0063859D02*
X0023885Y0063859D01*
X0023885Y0065457D02*
X0053136Y0065457D01*
X0053522Y0067056D02*
X0023885Y0067056D01*
X0023885Y0068654D02*
X0037610Y0068654D01*
X0036065Y0070253D02*
X0023885Y0070253D01*
X0023885Y0071851D02*
X0035335Y0071851D01*
X0035647Y0073450D02*
X0023885Y0073450D01*
X0024634Y0075048D02*
X0028854Y0075048D01*
X0029835Y0074067D02*
X0026935Y0076966D01*
X0026935Y0079017D01*
X0031885Y0079017D01*
X0031885Y0079017D01*
X0031885Y0074067D01*
X0029835Y0074067D01*
X0031885Y0075048D02*
X0031885Y0075048D01*
X0031885Y0076647D02*
X0031885Y0076647D01*
X0031885Y0078245D02*
X0031885Y0078245D01*
X0036516Y0076647D02*
X0038303Y0076647D01*
X0037610Y0075048D02*
X0034917Y0075048D01*
X0036835Y0078245D02*
X0046411Y0078245D01*
X0054363Y0083041D02*
X0061206Y0083041D01*
X0062805Y0084639D02*
X0055961Y0084639D01*
X0057560Y0086238D02*
X0067528Y0086238D01*
X0068010Y0087836D02*
X0065210Y0087836D01*
X0066447Y0089435D02*
X0068010Y0089435D01*
X0068010Y0091033D02*
X0066474Y0091033D01*
X0065905Y0092632D02*
X0068010Y0092632D01*
X0068010Y0094230D02*
X0066248Y0094230D01*
X0065760Y0095829D02*
X0068010Y0095829D01*
X0068010Y0097427D02*
X0065760Y0097427D01*
X0065760Y0099026D02*
X0068010Y0099026D01*
X0068010Y0100624D02*
X0065760Y0100624D01*
X0066670Y0102223D02*
X0068010Y0102223D01*
X0073885Y0102223D02*
X0092385Y0102223D01*
X0092385Y0103821D02*
X0074519Y0103821D01*
X0073885Y0103188D02*
X0082714Y0112017D01*
X0092385Y0112017D01*
X0092385Y0093346D01*
X0094964Y0090767D01*
X0097738Y0090767D01*
X0098112Y0090393D01*
X0099141Y0089967D01*
X0100255Y0089967D01*
X0101284Y0090393D01*
X0102072Y0091181D01*
X0102498Y0092210D01*
X0102498Y0093267D01*
X0145214Y0093267D01*
X0148010Y0096063D01*
X0148010Y0094845D01*
X0145432Y0092267D01*
X0103557Y0092267D01*
X0102385Y0091095D01*
X0100432Y0089142D01*
X0095095Y0089142D01*
X0094722Y0089515D01*
X0093692Y0089942D01*
X0092578Y0089942D01*
X0091549Y0089515D01*
X0090762Y0088728D01*
X0090335Y0087699D01*
X0090335Y0086585D01*
X0090762Y0085556D01*
X0091549Y0084768D01*
X0092578Y0084342D01*
X0093692Y0084342D01*
X0094722Y0084768D01*
X0095095Y0085142D01*
X0102089Y0085142D01*
X0105214Y0088267D01*
X0107057Y0088267D01*
X0102932Y0084142D01*
X0080310Y0084142D01*
X0080310Y0085199D01*
X0079884Y0086228D01*
X0079097Y0087015D01*
X0078067Y0087442D01*
X0077539Y0087442D01*
X0073885Y0091095D01*
X0073885Y0103188D01*
X0073885Y0100624D02*
X0092385Y0100624D01*
X0092385Y0099026D02*
X0073885Y0099026D01*
X0073885Y0097427D02*
X0092385Y0097427D01*
X0092385Y0095829D02*
X0073885Y0095829D01*
X0073885Y0094230D02*
X0092385Y0094230D01*
X0093099Y0092632D02*
X0073885Y0092632D01*
X0073947Y0091033D02*
X0094698Y0091033D01*
X0094802Y0089435D02*
X0100725Y0089435D01*
X0101924Y0091033D02*
X0102324Y0091033D01*
X0102385Y0091095D02*
X0102385Y0091095D01*
X0102498Y0092632D02*
X0145797Y0092632D01*
X0146178Y0094230D02*
X0147396Y0094230D01*
X0147776Y0095829D02*
X0148010Y0095829D01*
X0153974Y0094230D02*
X0198835Y0094230D01*
X0198835Y0095267D02*
X0198835Y0070771D01*
X0204460Y0065146D01*
X0204460Y0064017D01*
X0202556Y0064017D01*
X0202006Y0064567D01*
X0154506Y0064567D01*
X0153685Y0065387D01*
X0153685Y0074015D01*
X0154090Y0074419D01*
X0154485Y0075374D01*
X0154485Y0076409D01*
X0154090Y0077364D01*
X0153358Y0078096D01*
X0152510Y0078447D01*
X0152510Y0092767D01*
X0155010Y0095267D01*
X0198835Y0095267D01*
X0198835Y0092632D02*
X0152510Y0092632D01*
X0152510Y0091033D02*
X0198835Y0091033D01*
X0198835Y0089435D02*
X0152510Y0089435D01*
X0152510Y0087836D02*
X0198835Y0087836D01*
X0198835Y0086238D02*
X0152510Y0086238D01*
X0152510Y0084639D02*
X0198835Y0084639D01*
X0198835Y0083041D02*
X0152510Y0083041D01*
X0152510Y0081442D02*
X0198835Y0081442D01*
X0198835Y0079844D02*
X0152510Y0079844D01*
X0152998Y0078245D02*
X0198835Y0078245D01*
X0198835Y0076647D02*
X0154387Y0076647D01*
X0154350Y0075048D02*
X0198835Y0075048D01*
X0198835Y0073450D02*
X0153685Y0073450D01*
X0153685Y0071851D02*
X0198835Y0071851D01*
X0199354Y0070253D02*
X0153685Y0070253D01*
X0153685Y0068654D02*
X0200952Y0068654D01*
X0202551Y0067056D02*
X0153685Y0067056D01*
X0153685Y0065457D02*
X0204149Y0065457D01*
X0207006Y0067692D02*
X0205211Y0069486D01*
X0205546Y0069625D01*
X0206277Y0070356D01*
X0206673Y0071312D01*
X0206673Y0072346D01*
X0206277Y0073302D01*
X0205546Y0074033D01*
X0204590Y0074429D01*
X0204310Y0074429D01*
X0204310Y0095267D01*
X0233090Y0095267D01*
X0241240Y0087116D01*
X0240801Y0083603D01*
X0240710Y0083512D01*
X0240710Y0082879D01*
X0240632Y0082250D01*
X0240710Y0082149D01*
X0240710Y0082021D01*
X0241158Y0081573D01*
X0241547Y0081073D01*
X0241674Y0081057D01*
X0242410Y0080321D01*
X0242410Y0079749D01*
X0242806Y0078794D01*
X0243538Y0078062D01*
X0244493Y0077667D01*
X0245528Y0077667D01*
X0246483Y0078062D01*
X0247215Y0078794D01*
X0247610Y0079749D01*
X0247610Y0080784D01*
X0247215Y0081739D01*
X0246483Y0082471D01*
X0245528Y0082867D01*
X0244956Y0082867D01*
X0244406Y0083417D01*
X0244845Y0086931D01*
X0244935Y0087021D01*
X0244935Y0087655D01*
X0245014Y0088283D01*
X0244935Y0088384D01*
X0244935Y0088512D01*
X0244487Y0088960D01*
X0244099Y0089460D01*
X0243972Y0089476D01*
X0238181Y0095267D01*
X0271260Y0095267D01*
X0287510Y0079017D01*
X0293210Y0079017D01*
X0293210Y0076307D01*
X0291101Y0078417D01*
X0286420Y0078417D01*
X0283110Y0075107D01*
X0283110Y0070426D01*
X0285770Y0067767D01*
X0283110Y0065107D01*
X0283110Y0060426D01*
X0285770Y0057767D01*
X0283110Y0055107D01*
X0283110Y0050426D01*
X0285770Y0047767D01*
X0283110Y0045107D01*
X0283110Y0040426D01*
X0286420Y0037117D01*
X0291101Y0037117D01*
X0293210Y0039226D01*
X0293210Y0037021D01*
X0294265Y0035967D01*
X0300707Y0029524D01*
X0300658Y0018279D01*
X0300662Y0018275D01*
X0300576Y0016967D01*
X0299515Y0013009D01*
X0297466Y0009459D01*
X0294568Y0006561D01*
X0291019Y0004512D01*
X0287060Y0003451D01*
X0285010Y0003317D01*
X0220635Y0003317D01*
X0220635Y0004092D01*
X0242006Y0004092D01*
X0243060Y0005146D01*
X0244956Y0007042D01*
X0245528Y0007042D01*
X0246483Y0007437D01*
X0247215Y0008169D01*
X0247610Y0009124D01*
X0247610Y0009696D01*
X0268685Y0030771D01*
X0268685Y0045387D01*
X0267631Y0046442D01*
X0260560Y0053512D01*
X0260560Y0062452D01*
X0260965Y0062856D01*
X0261360Y0063812D01*
X0261360Y0064846D01*
X0260965Y0065802D01*
X0260233Y0066533D01*
X0259278Y0066929D01*
X0258243Y0066929D01*
X0257435Y0066595D01*
X0257435Y0069762D01*
X0255110Y0072087D01*
X0255110Y0072659D01*
X0254715Y0073614D01*
X0253983Y0074346D01*
X0253207Y0074667D01*
X0253881Y0075342D01*
X0254935Y0076396D01*
X0254935Y0084521D01*
X0258706Y0088292D01*
X0259278Y0088292D01*
X0260233Y0088687D01*
X0260965Y0089419D01*
X0261360Y0090374D01*
X0261360Y0091409D01*
X0260965Y0092364D01*
X0260233Y0093096D01*
X0259278Y0093492D01*
X0258243Y0093492D01*
X0257288Y0093096D01*
X0256556Y0092364D01*
X0256160Y0091409D01*
X0256160Y0090837D01*
X0251335Y0086012D01*
X0251335Y0077887D01*
X0248210Y0074762D01*
X0248210Y0068271D01*
X0249148Y0067334D01*
X0249148Y0065904D01*
X0247218Y0065904D01*
X0246398Y0065084D01*
X0246398Y0059324D01*
X0246518Y0059204D01*
X0246398Y0059084D01*
X0246398Y0053324D01*
X0246518Y0053204D01*
X0246398Y0053084D01*
X0246398Y0047324D01*
X0247218Y0046504D01*
X0254678Y0046504D01*
X0255498Y0047324D01*
X0255498Y0048467D01*
X0256765Y0048467D01*
X0260535Y0044696D01*
X0260535Y0044124D01*
X0260931Y0043169D01*
X0261663Y0042437D01*
X0262618Y0042042D01*
X0263653Y0042042D01*
X0264608Y0042437D01*
X0265085Y0042915D01*
X0265085Y0032262D01*
X0245065Y0012242D01*
X0244493Y0012242D01*
X0243538Y0011846D01*
X0242806Y0011114D01*
X0242410Y0010159D01*
X0242410Y0009587D01*
X0240515Y0007692D01*
X0220635Y0007692D01*
X0220635Y0018392D01*
X0217510Y0021517D01*
X0217510Y0038467D01*
X0219265Y0038467D01*
X0220085Y0037646D01*
X0220085Y0027646D01*
X0221140Y0026592D01*
X0221785Y0025946D01*
X0221785Y0025374D01*
X0222181Y0024419D01*
X0222913Y0023687D01*
X0223868Y0023292D01*
X0224903Y0023292D01*
X0225858Y0023687D01*
X0226590Y0024419D01*
X0226985Y0025374D01*
X0226985Y0026409D01*
X0226590Y0027364D01*
X0225858Y0028096D01*
X0224903Y0028492D01*
X0224331Y0028492D01*
X0223685Y0029137D01*
X0223685Y0035867D01*
X0223868Y0035792D01*
X0224903Y0035792D01*
X0225858Y0036187D01*
X0226590Y0036919D01*
X0226985Y0037874D01*
X0226985Y0038732D01*
X0228126Y0037592D01*
X0231895Y0037592D01*
X0234560Y0040257D01*
X0234560Y0044026D01*
X0233870Y0044717D01*
X0234890Y0044717D01*
X0235520Y0044086D01*
X0235460Y0044026D01*
X0235460Y0040257D01*
X0238126Y0037592D01*
X0241895Y0037592D01*
X0244560Y0040257D01*
X0244560Y0044026D01*
X0241895Y0046692D01*
X0238126Y0046692D01*
X0238066Y0046632D01*
X0236381Y0048317D01*
X0225637Y0048317D01*
X0225233Y0048721D01*
X0224278Y0049117D01*
X0223310Y0049117D01*
X0223310Y0054397D01*
X0223190Y0054517D01*
X0223310Y0054637D01*
X0223310Y0060397D01*
X0223235Y0060472D01*
X0223235Y0061409D01*
X0222840Y0062364D01*
X0222108Y0063096D01*
X0221153Y0063492D01*
X0220118Y0063492D01*
X0219163Y0063096D01*
X0218431Y0062364D01*
X0218035Y0061409D01*
X0218035Y0061217D01*
X0215031Y0061217D01*
X0214210Y0060397D01*
X0214210Y0056517D01*
X0208860Y0056517D01*
X0208860Y0057034D01*
X0208465Y0057989D01*
X0208135Y0058319D01*
X0208135Y0064017D01*
X0208060Y0064017D01*
X0208060Y0066637D01*
X0207006Y0067692D01*
X0207642Y0067056D02*
X0249148Y0067056D01*
X0248210Y0068654D02*
X0206044Y0068654D01*
X0206173Y0070253D02*
X0248210Y0070253D01*
X0248210Y0071851D02*
X0206673Y0071851D01*
X0206129Y0073450D02*
X0248210Y0073450D01*
X0248496Y0075048D02*
X0204310Y0075048D01*
X0204310Y0076647D02*
X0250095Y0076647D01*
X0251335Y0078245D02*
X0246666Y0078245D01*
X0247610Y0079844D02*
X0251335Y0079844D01*
X0251335Y0081442D02*
X0247338Y0081442D01*
X0244782Y0083041D02*
X0251335Y0083041D01*
X0251335Y0084639D02*
X0244559Y0084639D01*
X0244758Y0086238D02*
X0251561Y0086238D01*
X0253159Y0087836D02*
X0244958Y0087836D01*
X0244118Y0089435D02*
X0254758Y0089435D01*
X0256160Y0091033D02*
X0242414Y0091033D01*
X0240816Y0092632D02*
X0256824Y0092632D01*
X0260697Y0092632D02*
X0273895Y0092632D01*
X0272297Y0094230D02*
X0239217Y0094230D01*
X0235725Y0092632D02*
X0204310Y0092632D01*
X0204310Y0094230D02*
X0234126Y0094230D01*
X0237323Y0091033D02*
X0204310Y0091033D01*
X0204310Y0089435D02*
X0207956Y0089435D01*
X0208231Y0089710D02*
X0207279Y0088758D01*
X0206764Y0087515D01*
X0206764Y0086168D01*
X0207279Y0084924D01*
X0208231Y0083972D01*
X0209475Y0083457D01*
X0210821Y0083457D01*
X0212065Y0083972D01*
X0212510Y0084418D01*
X0212956Y0083972D01*
X0214199Y0083457D01*
X0215546Y0083457D01*
X0216790Y0083972D01*
X0217742Y0084924D01*
X0218257Y0086168D01*
X0218257Y0087515D01*
X0217742Y0088758D01*
X0216790Y0089710D01*
X0215546Y0090226D01*
X0214199Y0090226D01*
X0212956Y0089710D01*
X0212510Y0089265D01*
X0212065Y0089710D01*
X0210821Y0090226D01*
X0209475Y0090226D01*
X0208231Y0089710D01*
X0206897Y0087836D02*
X0204310Y0087836D01*
X0204310Y0086238D02*
X0206764Y0086238D01*
X0207564Y0084639D02*
X0204310Y0084639D01*
X0204310Y0083041D02*
X0240710Y0083041D01*
X0240931Y0084639D02*
X0217456Y0084639D01*
X0218257Y0086238D02*
X0241130Y0086238D01*
X0240520Y0087836D02*
X0218124Y0087836D01*
X0217065Y0089435D02*
X0238922Y0089435D01*
X0241260Y0081442D02*
X0204310Y0081442D01*
X0204310Y0079844D02*
X0242410Y0079844D01*
X0243355Y0078245D02*
X0204310Y0078245D01*
X0212341Y0089435D02*
X0212680Y0089435D01*
X0210220Y0099017D02*
X0210509Y0099306D01*
X0210935Y0100335D01*
X0210935Y0101449D01*
X0210509Y0102478D01*
X0209722Y0103265D01*
X0208692Y0103692D01*
X0207578Y0103692D01*
X0206549Y0103265D01*
X0206376Y0103092D01*
X0195974Y0103092D01*
X0195349Y0102467D01*
X0184523Y0102467D01*
X0184259Y0103103D01*
X0183472Y0103890D01*
X0182442Y0104317D01*
X0181328Y0104317D01*
X0180299Y0103890D01*
X0179512Y0103103D01*
X0179248Y0102467D01*
X0160664Y0102467D01*
X0162714Y0104517D01*
X0214807Y0104517D01*
X0220307Y0099017D01*
X0210220Y0099017D01*
X0210229Y0099026D02*
X0220298Y0099026D01*
X0218699Y0100624D02*
X0210935Y0100624D01*
X0210615Y0102223D02*
X0217101Y0102223D01*
X0215502Y0103821D02*
X0183541Y0103821D01*
X0180230Y0103821D02*
X0162019Y0103821D01*
X0159559Y0107018D02*
X0155841Y0107018D01*
X0154242Y0105420D02*
X0157960Y0105420D01*
X0157439Y0108617D02*
X0231018Y0108617D01*
X0231168Y0108767D02*
X0228385Y0105984D01*
X0228385Y0102049D01*
X0231168Y0099267D01*
X0235103Y0099267D01*
X0237885Y0102049D01*
X0237885Y0105984D01*
X0235103Y0108767D01*
X0231168Y0108767D01*
X0229420Y0107018D02*
X0217962Y0107018D01*
X0219561Y0105420D02*
X0228385Y0105420D01*
X0228385Y0103821D02*
X0221159Y0103821D01*
X0222758Y0102223D02*
X0228385Y0102223D01*
X0229810Y0100624D02*
X0224356Y0100624D01*
X0234705Y0099026D02*
X0274107Y0099026D01*
X0274100Y0097427D02*
X0275706Y0097427D01*
X0275698Y0095829D02*
X0277304Y0095829D01*
X0277297Y0094230D02*
X0278903Y0094230D01*
X0278895Y0092632D02*
X0280501Y0092632D01*
X0280494Y0091033D02*
X0283471Y0091033D01*
X0282092Y0089435D02*
X0285069Y0089435D01*
X0283691Y0087836D02*
X0293210Y0087836D01*
X0293210Y0086238D02*
X0285289Y0086238D01*
X0286888Y0084639D02*
X0293210Y0084639D01*
X0293210Y0089435D02*
X0292452Y0089435D01*
X0288760Y0094017D02*
X0282510Y0094017D01*
X0271260Y0105267D01*
X0271260Y0125267D01*
X0241260Y0155267D01*
X0215635Y0155267D01*
X0211613Y0156572D02*
X0209510Y0156572D01*
X0209510Y0154974D02*
X0210014Y0154974D01*
X0209885Y0153375D02*
X0209510Y0153375D01*
X0209510Y0151777D02*
X0209885Y0151777D01*
X0209885Y0150178D02*
X0209510Y0150178D01*
X0209510Y0148580D02*
X0209885Y0148580D01*
X0209885Y0146981D02*
X0209510Y0146981D01*
X0209510Y0145383D02*
X0209885Y0145383D01*
X0209885Y0143784D02*
X0209510Y0143784D01*
X0209510Y0142186D02*
X0209885Y0142186D01*
X0209885Y0140587D02*
X0209510Y0140587D01*
X0209510Y0139438D02*
X0209510Y0158188D01*
X0210839Y0159517D01*
X0247738Y0159517D01*
X0248112Y0159143D01*
X0249141Y0158717D01*
X0250255Y0158717D01*
X0251284Y0159143D01*
X0252072Y0159931D01*
X0252498Y0160960D01*
X0252498Y0162074D01*
X0252072Y0163103D01*
X0251284Y0163890D01*
X0250255Y0164317D01*
X0249141Y0164317D01*
X0248112Y0163890D01*
X0247738Y0163517D01*
X0209182Y0163517D01*
X0208010Y0162345D01*
X0206975Y0161310D01*
X0206959Y0161359D01*
X0206616Y0162032D01*
X0206172Y0162644D01*
X0205637Y0163178D01*
X0205026Y0163622D01*
X0204353Y0163965D01*
X0203634Y0164198D01*
X0202888Y0164317D01*
X0202710Y0164317D01*
X0202710Y0156717D01*
X0202310Y0156717D01*
X0202310Y0156317D01*
X0197710Y0156317D01*
X0197710Y0153139D01*
X0197829Y0152393D01*
X0198062Y0151674D01*
X0198405Y0151001D01*
X0198849Y0150390D01*
X0199383Y0149855D01*
X0199995Y0149411D01*
X0200668Y0149068D01*
X0201386Y0148835D01*
X0202133Y0148717D01*
X0202310Y0148717D01*
X0202310Y0156317D01*
X0202710Y0156317D01*
X0202710Y0148717D01*
X0202888Y0148717D01*
X0203634Y0148835D01*
X0204353Y0149068D01*
X0205026Y0149411D01*
X0205510Y0149763D01*
X0205510Y0141095D01*
X0204182Y0139767D01*
X0203220Y0139767D01*
X0202847Y0140140D01*
X0201817Y0140567D01*
X0200703Y0140567D01*
X0199674Y0140140D01*
X0198887Y0139353D01*
X0198460Y0138324D01*
X0198460Y0137210D01*
X0198887Y0136181D01*
X0199674Y0135393D01*
X0200703Y0134967D01*
X0201817Y0134967D01*
X0202847Y0135393D01*
X0203220Y0135767D01*
X0205839Y0135767D01*
X0208339Y0138267D01*
X0209510Y0139438D01*
X0209885Y0138989D02*
X0209061Y0138989D01*
X0209885Y0137390D02*
X0207462Y0137390D01*
X0205864Y0135792D02*
X0209885Y0135792D01*
X0209885Y0134193D02*
X0183287Y0134193D01*
X0183885Y0132595D02*
X0209510Y0132595D01*
X0211970Y0129398D02*
X0220110Y0129398D01*
X0220110Y0130996D02*
X0213568Y0130996D01*
X0213885Y0132595D02*
X0220110Y0132595D01*
X0220110Y0134193D02*
X0213885Y0134193D01*
X0213885Y0135792D02*
X0220110Y0135792D01*
X0218868Y0137390D02*
X0213885Y0137390D01*
X0213885Y0138989D02*
X0217269Y0138989D01*
X0215671Y0140587D02*
X0213885Y0140587D01*
X0213885Y0142186D02*
X0214072Y0142186D01*
X0219262Y0143784D02*
X0236135Y0143784D01*
X0236135Y0142186D02*
X0220861Y0142186D01*
X0222459Y0140587D02*
X0236135Y0140587D01*
X0233736Y0138989D02*
X0224058Y0138989D01*
X0224910Y0137390D02*
X0233460Y0137390D01*
X0234276Y0135792D02*
X0224910Y0135792D01*
X0222510Y0137142D02*
X0222510Y0132142D01*
X0222510Y0127142D01*
X0219870Y0126201D02*
X0210030Y0126201D01*
X0210371Y0127799D02*
X0219752Y0127799D01*
X0221325Y0124602D02*
X0211628Y0124602D01*
X0209169Y0121405D02*
X0183885Y0121405D01*
X0183885Y0123004D02*
X0207570Y0123004D01*
X0205075Y0124602D02*
X0183885Y0124602D01*
X0183885Y0126201D02*
X0203620Y0126201D01*
X0199143Y0127799D02*
X0183885Y0127799D01*
X0183885Y0129398D02*
X0198460Y0129398D01*
X0198791Y0130996D02*
X0183885Y0130996D01*
X0179885Y0130996D02*
X0174669Y0130996D01*
X0174722Y0131018D02*
X0175509Y0131806D01*
X0175935Y0132835D01*
X0175935Y0133949D01*
X0175509Y0134978D01*
X0174722Y0135765D01*
X0173692Y0136192D01*
X0172578Y0136192D01*
X0171549Y0135765D01*
X0170762Y0134978D01*
X0170498Y0134342D01*
X0162172Y0134342D01*
X0160922Y0135592D01*
X0126145Y0135592D01*
X0125972Y0135765D01*
X0124942Y0136192D01*
X0124510Y0136192D01*
X0124510Y0137057D01*
X0124884Y0137431D01*
X0125310Y0138460D01*
X0125310Y0139517D01*
X0128557Y0139517D01*
X0131135Y0136938D01*
X0132307Y0135767D01*
X0167426Y0135767D01*
X0167799Y0135393D01*
X0168828Y0134967D01*
X0169942Y0134967D01*
X0170972Y0135393D01*
X0171759Y0136181D01*
X0172185Y0137210D01*
X0172185Y0138324D01*
X0171759Y0139353D01*
X0170972Y0140140D01*
X0169942Y0140567D01*
X0168828Y0140567D01*
X0167799Y0140140D01*
X0167426Y0139767D01*
X0149685Y0139767D01*
X0149685Y0140744D01*
X0150347Y0141018D01*
X0150720Y0141392D01*
X0151057Y0141392D01*
X0151682Y0140767D01*
X0171057Y0140767D01*
X0179885Y0131938D01*
X0179885Y0120351D01*
X0179512Y0119978D01*
X0179085Y0118949D01*
X0179085Y0117835D01*
X0179321Y0117267D01*
X0162089Y0117267D01*
X0160432Y0117267D01*
X0153260Y0110095D01*
X0153260Y0115807D01*
X0153634Y0116181D01*
X0154060Y0117210D01*
X0154060Y0118324D01*
X0153634Y0119353D01*
X0152847Y0120140D01*
X0151817Y0120567D01*
X0150703Y0120567D01*
X0149674Y0120140D01*
X0148887Y0119353D01*
X0148460Y0118324D01*
X0148460Y0117210D01*
X0148887Y0116181D01*
X0149260Y0115807D01*
X0149260Y0108595D01*
X0146135Y0105470D01*
X0146135Y0099845D01*
X0143557Y0097267D01*
X0142843Y0097267D01*
X0142847Y0097268D01*
X0143634Y0098056D01*
X0144060Y0099085D01*
X0144060Y0099613D01*
X0145135Y0100688D01*
X0145135Y0124845D01*
X0143964Y0126017D01*
X0138789Y0131192D01*
X0159099Y0131192D01*
X0160349Y0129942D01*
X0172797Y0129942D01*
X0173447Y0130592D01*
X0173692Y0130592D01*
X0174722Y0131018D01*
X0175836Y0132595D02*
X0179229Y0132595D01*
X0177631Y0134193D02*
X0175834Y0134193D01*
X0176032Y0135792D02*
X0174658Y0135792D01*
X0174434Y0137390D02*
X0172185Y0137390D01*
X0171910Y0138989D02*
X0172835Y0138989D01*
X0171237Y0140587D02*
X0149685Y0140587D01*
X0144085Y0140587D02*
X0133143Y0140587D01*
X0131545Y0142186D02*
X0144260Y0142186D01*
X0144260Y0143784D02*
X0125310Y0143784D01*
X0124975Y0145383D02*
X0144260Y0145383D01*
X0144260Y0146981D02*
X0122374Y0146981D01*
X0120776Y0148580D02*
X0144870Y0148580D01*
X0146469Y0150178D02*
X0045610Y0150178D01*
X0045610Y0150741D02*
X0045610Y0147292D01*
X0044718Y0143960D01*
X0042993Y0140973D01*
X0040554Y0138534D01*
X0037567Y0136809D01*
X0034235Y0135917D01*
X0030786Y0135917D01*
X0027454Y0136809D01*
X0024467Y0138534D01*
X0022028Y0140973D01*
X0020303Y0143960D01*
X0019410Y0147292D01*
X0019410Y0150741D01*
X0020303Y0154073D01*
X0022028Y0157060D01*
X0024467Y0159499D01*
X0027454Y0161224D01*
X0030786Y0162117D01*
X0034235Y0162117D01*
X0037567Y0161224D01*
X0040554Y0159499D01*
X0042993Y0157060D01*
X0044718Y0154073D01*
X0045610Y0150741D01*
X0045333Y0151777D02*
X0178252Y0151777D01*
X0177910Y0153375D02*
X0044905Y0153375D01*
X0044198Y0154974D02*
X0177910Y0154974D01*
X0177910Y0156572D02*
X0043275Y0156572D01*
X0041883Y0158171D02*
X0177910Y0158171D01*
X0177910Y0159769D02*
X0040086Y0159769D01*
X0037030Y0161368D02*
X0178298Y0161368D01*
X0179455Y0162966D02*
X0024401Y0162966D01*
X0022098Y0161368D02*
X0027991Y0161368D01*
X0024935Y0159769D02*
X0020425Y0159769D01*
X0019178Y0158171D02*
X0023138Y0158171D01*
X0021746Y0156572D02*
X0018316Y0156572D01*
X0017610Y0154974D02*
X0020823Y0154974D01*
X0020116Y0153375D02*
X0017195Y0153375D01*
X0016921Y0151777D02*
X0019688Y0151777D01*
X0019410Y0150178D02*
X0016790Y0150178D01*
X0016849Y0148580D02*
X0019410Y0148580D01*
X0019494Y0146981D02*
X0016810Y0146981D01*
X0016810Y0145383D02*
X0019922Y0145383D01*
X0020405Y0143784D02*
X0016810Y0143784D01*
X0016810Y0142186D02*
X0021328Y0142186D01*
X0022414Y0140587D02*
X0016810Y0140587D01*
X0016810Y0138989D02*
X0024012Y0138989D01*
X0026448Y0137390D02*
X0016810Y0137390D01*
X0016810Y0135792D02*
X0045207Y0135792D01*
X0046805Y0137390D02*
X0038573Y0137390D01*
X0041009Y0138989D02*
X0048404Y0138989D01*
X0050003Y0140587D02*
X0042607Y0140587D01*
X0043693Y0142186D02*
X0051601Y0142186D01*
X0053200Y0143784D02*
X0044616Y0143784D01*
X0045099Y0145383D02*
X0054798Y0145383D01*
X0056397Y0146981D02*
X0045527Y0146981D01*
X0045610Y0148580D02*
X0057995Y0148580D01*
X0058856Y0143784D02*
X0079450Y0143784D01*
X0077851Y0142186D02*
X0065005Y0142186D01*
X0065310Y0140587D02*
X0076253Y0140587D01*
X0075510Y0138989D02*
X0064567Y0138989D01*
X0064510Y0137390D02*
X0075510Y0137390D01*
X0075510Y0135792D02*
X0064510Y0135792D01*
X0064510Y0134193D02*
X0074812Y0134193D01*
X0068885Y0132595D02*
X0063917Y0132595D01*
X0063981Y0130996D02*
X0062318Y0130996D01*
X0061938Y0129398D02*
X0060720Y0129398D01*
X0060339Y0127799D02*
X0059121Y0127799D01*
X0058741Y0126201D02*
X0016810Y0126201D01*
X0016810Y0127799D02*
X0035609Y0127799D01*
X0035335Y0129398D02*
X0016810Y0129398D01*
X0016810Y0130996D02*
X0036155Y0130996D01*
X0042210Y0132595D02*
X0016810Y0132595D01*
X0016810Y0134193D02*
X0042571Y0134193D01*
X0047810Y0132595D02*
X0058260Y0132595D01*
X0059858Y0134193D02*
X0049265Y0134193D01*
X0050864Y0135792D02*
X0060510Y0135792D01*
X0060510Y0137390D02*
X0052462Y0137390D01*
X0054061Y0138989D02*
X0060454Y0138989D01*
X0059710Y0140587D02*
X0055659Y0140587D01*
X0057258Y0142186D02*
X0060016Y0142186D01*
X0066040Y0130996D02*
X0066291Y0130996D01*
X0063392Y0124602D02*
X0062799Y0124602D01*
X0061794Y0123004D02*
X0061201Y0123004D01*
X0060195Y0121405D02*
X0035377Y0121405D01*
X0036485Y0119806D02*
X0058597Y0119806D01*
X0056998Y0118208D02*
X0036485Y0118208D01*
X0036485Y0116609D02*
X0055400Y0116609D01*
X0053801Y0115011D02*
X0035010Y0115011D01*
X0034969Y0111814D02*
X0053010Y0111814D01*
X0053010Y0113412D02*
X0028885Y0113412D01*
X0028802Y0111814D02*
X0028136Y0111814D01*
X0027285Y0110215D02*
X0026538Y0110215D01*
X0026485Y0108617D02*
X0027285Y0108617D01*
X0027285Y0107018D02*
X0026485Y0107018D01*
X0026085Y0105420D02*
X0025419Y0105420D01*
X0024885Y0103821D02*
X0023821Y0103821D01*
X0024560Y0102223D02*
X0024885Y0102223D01*
X0028885Y0102223D02*
X0028928Y0102223D01*
X0031685Y0102223D02*
X0032085Y0102223D01*
X0032085Y0100624D02*
X0031685Y0100624D01*
X0031685Y0099026D02*
X0032085Y0099026D01*
X0032085Y0097427D02*
X0031685Y0097427D01*
X0031685Y0095829D02*
X0032085Y0095829D01*
X0032085Y0094230D02*
X0031685Y0094230D01*
X0031099Y0092632D02*
X0052047Y0092632D01*
X0053010Y0094230D02*
X0034512Y0094230D01*
X0036111Y0095829D02*
X0053010Y0095829D01*
X0053010Y0097427D02*
X0036685Y0097427D01*
X0036685Y0099026D02*
X0053010Y0099026D01*
X0053010Y0100624D02*
X0036441Y0100624D01*
X0034842Y0102223D02*
X0053010Y0102223D01*
X0053010Y0103821D02*
X0033821Y0103821D01*
X0035419Y0105420D02*
X0053010Y0105420D01*
X0053010Y0107018D02*
X0036485Y0107018D01*
X0036485Y0108617D02*
X0053010Y0108617D01*
X0053010Y0110215D02*
X0036485Y0110215D01*
X0024078Y0113412D02*
X0016810Y0113412D01*
X0016810Y0111814D02*
X0018802Y0111814D01*
X0017285Y0110215D02*
X0016810Y0110215D01*
X0016810Y0108617D02*
X0017285Y0108617D01*
X0017285Y0107018D02*
X0016810Y0107018D01*
X0016810Y0105420D02*
X0018352Y0105420D01*
X0016810Y0103821D02*
X0019950Y0103821D01*
X0019211Y0102223D02*
X0016810Y0102223D01*
X0016810Y0100624D02*
X0017613Y0100624D01*
X0017285Y0099026D02*
X0016810Y0099026D01*
X0016810Y0097427D02*
X0017285Y0097427D01*
X0016810Y0095829D02*
X0017943Y0095829D01*
X0016810Y0094230D02*
X0019541Y0094230D01*
X0019885Y0092632D02*
X0016810Y0092632D01*
X0016810Y0091033D02*
X0019885Y0091033D01*
X0019885Y0089435D02*
X0016810Y0089435D01*
X0016810Y0087836D02*
X0019885Y0087836D01*
X0021211Y0086238D02*
X0016810Y0086238D01*
X0016810Y0084639D02*
X0022809Y0084639D01*
X0019192Y0083041D02*
X0016810Y0083041D01*
X0016810Y0081442D02*
X0017594Y0081442D01*
X0017135Y0079844D02*
X0016810Y0079844D01*
X0016810Y0078245D02*
X0017135Y0078245D01*
X0016810Y0076647D02*
X0017538Y0076647D01*
X0016810Y0075048D02*
X0019136Y0075048D01*
X0019885Y0073450D02*
X0016810Y0073450D01*
X0016810Y0071851D02*
X0019885Y0071851D01*
X0019885Y0070253D02*
X0016810Y0070253D01*
X0016810Y0068654D02*
X0019885Y0068654D01*
X0019885Y0067056D02*
X0016810Y0067056D01*
X0016810Y0065457D02*
X0019885Y0065457D01*
X0019885Y0063859D02*
X0016810Y0063859D01*
X0016810Y0062260D02*
X0019885Y0062260D01*
X0019885Y0060662D02*
X0016810Y0060662D01*
X0016810Y0059063D02*
X0020261Y0059063D01*
X0021859Y0057465D02*
X0016810Y0057465D01*
X0016810Y0055866D02*
X0023458Y0055866D01*
X0025056Y0054268D02*
X0016810Y0054268D01*
X0016810Y0052669D02*
X0026655Y0052669D01*
X0028253Y0051071D02*
X0016810Y0051071D01*
X0016810Y0049472D02*
X0029852Y0049472D01*
X0031450Y0047873D02*
X0016810Y0047873D01*
X0016810Y0046275D02*
X0019014Y0046275D01*
X0021007Y0046275D02*
X0029014Y0046275D01*
X0029175Y0046342D02*
X0027631Y0045702D01*
X0026450Y0044521D01*
X0025810Y0042977D01*
X0025810Y0041306D01*
X0026450Y0039763D01*
X0027631Y0038581D01*
X0029175Y0037942D01*
X0030846Y0037942D01*
X0032390Y0038581D01*
X0033571Y0039763D01*
X0034210Y0041306D01*
X0034210Y0042977D01*
X0033571Y0044521D01*
X0032390Y0045702D01*
X0030846Y0046342D01*
X0029175Y0046342D01*
X0031007Y0046275D02*
X0033049Y0046275D01*
X0033415Y0044676D02*
X0034647Y0044676D01*
X0034885Y0043078D02*
X0034169Y0043078D01*
X0034210Y0041479D02*
X0034885Y0041479D01*
X0034885Y0039881D02*
X0033620Y0039881D01*
X0034085Y0038282D02*
X0031669Y0038282D01*
X0034303Y0036684D02*
X0016810Y0036684D01*
X0016810Y0038282D02*
X0018352Y0038282D01*
X0021669Y0038282D02*
X0028352Y0038282D01*
X0026401Y0039881D02*
X0023620Y0039881D01*
X0024210Y0041479D02*
X0025810Y0041479D01*
X0025852Y0043078D02*
X0024169Y0043078D01*
X0023415Y0044676D02*
X0026606Y0044676D01*
X0029934Y0031888D02*
X0016810Y0031888D01*
X0016810Y0030290D02*
X0025836Y0030290D01*
X0023659Y0028691D02*
X0016810Y0028691D01*
X0016810Y0027093D02*
X0022060Y0027093D01*
X0021124Y0025494D02*
X0016810Y0025494D01*
X0016810Y0023896D02*
X0020256Y0023896D01*
X0019827Y0022297D02*
X0016810Y0022297D01*
X0016810Y0020699D02*
X0019410Y0020699D01*
X0019410Y0019100D02*
X0016822Y0019100D01*
X0016784Y0017502D02*
X0019410Y0017502D01*
X0019783Y0015903D02*
X0016982Y0015903D01*
X0058223Y0030290D02*
X0107784Y0030290D01*
X0106185Y0031888D02*
X0059552Y0031888D01*
X0059618Y0033487D02*
X0104587Y0033487D01*
X0102988Y0035085D02*
X0061479Y0035085D01*
X0059792Y0035085D02*
X0058885Y0035085D01*
X0058053Y0036684D02*
X0057936Y0036684D01*
X0057936Y0038565D02*
X0057936Y0063607D01*
X0058309Y0063981D01*
X0058736Y0065010D01*
X0058736Y0065538D01*
X0059589Y0066392D01*
X0065551Y0066392D01*
X0065924Y0066018D01*
X0066953Y0065592D01*
X0067482Y0065592D01*
X0078932Y0054142D01*
X0077089Y0054142D01*
X0068260Y0062970D01*
X0067089Y0064142D01*
X0063220Y0064142D01*
X0062847Y0064515D01*
X0061817Y0064942D01*
X0060703Y0064942D01*
X0059674Y0064515D01*
X0058887Y0063728D01*
X0058460Y0062699D01*
X0058460Y0061585D01*
X0058887Y0060556D01*
X0059260Y0060182D01*
X0059260Y0041095D01*
X0058635Y0040470D01*
X0058635Y0039726D01*
X0058262Y0039353D01*
X0057936Y0038565D01*
X0057936Y0039881D02*
X0058635Y0039881D01*
X0059260Y0041479D02*
X0057936Y0041479D01*
X0057936Y0043078D02*
X0059260Y0043078D01*
X0059260Y0044676D02*
X0057936Y0044676D01*
X0057936Y0046275D02*
X0059260Y0046275D01*
X0059260Y0047873D02*
X0057936Y0047873D01*
X0057936Y0049472D02*
X0059260Y0049472D01*
X0059260Y0051071D02*
X0057936Y0051071D01*
X0057936Y0052669D02*
X0059260Y0052669D01*
X0059260Y0054268D02*
X0057936Y0054268D01*
X0057936Y0055866D02*
X0059260Y0055866D01*
X0059260Y0057465D02*
X0057936Y0057465D01*
X0057936Y0059063D02*
X0059260Y0059063D01*
X0058843Y0060662D02*
X0057936Y0060662D01*
X0057936Y0062260D02*
X0058460Y0062260D01*
X0058187Y0063859D02*
X0059018Y0063859D01*
X0058736Y0065457D02*
X0067617Y0065457D01*
X0067372Y0063859D02*
X0069215Y0063859D01*
X0068970Y0062260D02*
X0070814Y0062260D01*
X0070569Y0060662D02*
X0072412Y0060662D01*
X0072167Y0059063D02*
X0074011Y0059063D01*
X0073766Y0057465D02*
X0075609Y0057465D01*
X0075364Y0055866D02*
X0077208Y0055866D01*
X0076963Y0054268D02*
X0078806Y0054268D01*
X0079667Y0059063D02*
X0081985Y0059063D01*
X0081985Y0060662D02*
X0078069Y0060662D01*
X0076470Y0062260D02*
X0081985Y0062260D01*
X0081985Y0063859D02*
X0074872Y0063859D01*
X0073273Y0065457D02*
X0081985Y0065457D01*
X0082462Y0067056D02*
X0080459Y0067056D01*
X0078312Y0067056D02*
X0071675Y0067056D01*
X0070310Y0068654D02*
X0076764Y0068654D01*
X0075946Y0070253D02*
X0074581Y0070253D01*
X0070321Y0070253D02*
X0069609Y0070253D01*
X0068723Y0071851D02*
X0060769Y0071851D01*
X0056956Y0079844D02*
X0036835Y0079844D01*
X0036460Y0081442D02*
X0059608Y0081442D01*
X0059158Y0087836D02*
X0062311Y0087836D01*
X0061074Y0089435D02*
X0060757Y0089435D01*
X0050449Y0091033D02*
X0032697Y0091033D01*
X0027311Y0081442D02*
X0026177Y0081442D01*
X0026635Y0079844D02*
X0026935Y0079844D01*
X0026935Y0078245D02*
X0026635Y0078245D01*
X0026233Y0076647D02*
X0027255Y0076647D01*
X0063260Y0060142D02*
X0065432Y0060142D01*
X0071882Y0053692D01*
X0071328Y0053692D01*
X0070299Y0053265D01*
X0069512Y0052478D01*
X0069085Y0051449D01*
X0069085Y0050335D01*
X0069512Y0049306D01*
X0070299Y0048518D01*
X0071328Y0048092D01*
X0071857Y0048092D01*
X0072057Y0047892D01*
X0066345Y0047892D01*
X0065972Y0048265D01*
X0064942Y0048692D01*
X0063828Y0048692D01*
X0063260Y0048456D01*
X0063260Y0060142D01*
X0063260Y0059063D02*
X0066511Y0059063D01*
X0068109Y0057465D02*
X0063260Y0057465D01*
X0063260Y0055866D02*
X0069708Y0055866D01*
X0071306Y0054268D02*
X0063260Y0054268D01*
X0063260Y0052669D02*
X0069703Y0052669D01*
X0069085Y0051071D02*
X0063260Y0051071D01*
X0063260Y0049472D02*
X0069443Y0049472D01*
X0063260Y0043078D02*
X0075752Y0043078D01*
X0063260Y0041479D02*
X0096594Y0041479D01*
X0098193Y0039881D02*
X0063260Y0039881D01*
X0063435Y0038282D02*
X0099791Y0038282D01*
X0101390Y0036684D02*
X0063218Y0036684D01*
X0100581Y0046275D02*
X0113010Y0046275D01*
X0113010Y0044676D02*
X0102179Y0044676D01*
X0103778Y0043078D02*
X0113010Y0043078D01*
X0113010Y0041479D02*
X0105376Y0041479D01*
X0106975Y0039881D02*
X0114443Y0039881D01*
X0116041Y0038282D02*
X0108573Y0038282D01*
X0110172Y0036684D02*
X0117213Y0036684D01*
X0119740Y0035085D02*
X0111770Y0035085D01*
X0113369Y0033487D02*
X0129152Y0033487D01*
X0127781Y0035085D02*
X0130751Y0035085D01*
X0130308Y0036684D02*
X0132349Y0036684D01*
X0131176Y0038282D02*
X0133948Y0038282D01*
X0135546Y0039881D02*
X0131360Y0039881D01*
X0130978Y0041479D02*
X0137145Y0041479D01*
X0138743Y0043078D02*
X0129830Y0043078D01*
X0129899Y0046275D02*
X0138948Y0046275D01*
X0138948Y0047873D02*
X0131007Y0047873D01*
X0131360Y0049472D02*
X0138376Y0049472D01*
X0138148Y0051071D02*
X0131148Y0051071D01*
X0130238Y0052669D02*
X0139078Y0052669D01*
X0142818Y0052669D02*
X0145405Y0052669D01*
X0147003Y0051071D02*
X0143748Y0051071D01*
X0143520Y0049472D02*
X0148602Y0049472D01*
X0150200Y0047873D02*
X0142948Y0047873D01*
X0142948Y0046275D02*
X0150065Y0046275D01*
X0148467Y0044676D02*
X0142948Y0044676D01*
X0142948Y0043078D02*
X0146868Y0043078D01*
X0145270Y0041479D02*
X0142802Y0041479D01*
X0143671Y0039881D02*
X0141203Y0039881D01*
X0139605Y0038282D02*
X0143635Y0038282D01*
X0143635Y0036684D02*
X0138006Y0036684D01*
X0136408Y0035085D02*
X0139619Y0035085D01*
X0139085Y0033487D02*
X0134809Y0033487D01*
X0133211Y0031888D02*
X0139477Y0031888D01*
X0139885Y0030290D02*
X0137514Y0030290D01*
X0138164Y0028691D02*
X0139885Y0028691D01*
X0139763Y0027093D02*
X0140356Y0027093D01*
X0141057Y0026392D02*
X0141057Y0026392D01*
X0141361Y0025494D02*
X0141954Y0025494D01*
X0142960Y0023896D02*
X0143553Y0023896D01*
X0144885Y0022563D02*
X0144885Y0022563D01*
X0145151Y0022297D02*
X0144558Y0022297D01*
X0146157Y0020699D02*
X0179250Y0020699D01*
X0185568Y0020699D02*
X0193864Y0020699D01*
X0192770Y0022297D02*
X0185935Y0022297D01*
X0185341Y0023896D02*
X0192210Y0023896D01*
X0192592Y0025494D02*
X0147611Y0025494D01*
X0146013Y0027093D02*
X0193010Y0027093D01*
X0192507Y0028691D02*
X0144414Y0028691D01*
X0143885Y0030290D02*
X0191760Y0030290D01*
X0191760Y0031888D02*
X0148043Y0031888D01*
X0148435Y0033487D02*
X0191208Y0033487D01*
X0190960Y0035085D02*
X0147901Y0035085D01*
X0147635Y0036684D02*
X0191843Y0036684D01*
X0195678Y0036684D02*
X0212510Y0036684D01*
X0212510Y0038282D02*
X0147730Y0038282D01*
X0149328Y0039881D02*
X0212510Y0039881D01*
X0211760Y0041479D02*
X0209312Y0041479D01*
X0210797Y0043078D02*
X0211760Y0043078D01*
X0208307Y0046275D02*
X0207370Y0046275D01*
X0207498Y0046585D02*
X0207072Y0045556D01*
X0206284Y0044768D01*
X0205255Y0044342D01*
X0204141Y0044342D01*
X0203112Y0044768D01*
X0202738Y0045142D01*
X0196464Y0045142D01*
X0196248Y0044926D01*
X0196248Y0044397D01*
X0196142Y0044142D01*
X0206269Y0044142D01*
X0207060Y0044932D01*
X0207598Y0045512D01*
X0207598Y0045512D01*
X0208460Y0046440D01*
X0208460Y0047074D01*
X0208887Y0048103D01*
X0209674Y0048890D01*
X0210703Y0049317D01*
X0211760Y0049317D01*
X0211760Y0050688D01*
X0211057Y0051392D01*
X0204807Y0051392D01*
X0203635Y0052563D01*
X0201760Y0054438D01*
X0201760Y0056452D01*
X0201192Y0056217D01*
X0200078Y0056217D01*
X0199049Y0056643D01*
X0198676Y0057017D01*
X0152089Y0057017D01*
X0150432Y0057017D01*
X0148885Y0058563D01*
X0148885Y0057970D01*
X0155839Y0051017D01*
X0187401Y0051017D01*
X0187539Y0050879D01*
X0188067Y0050879D01*
X0189097Y0050453D01*
X0189884Y0049665D01*
X0190310Y0048636D01*
X0190310Y0047522D01*
X0189884Y0046493D01*
X0189097Y0045705D01*
X0188067Y0045279D01*
X0186953Y0045279D01*
X0185924Y0045705D01*
X0185137Y0046493D01*
X0184920Y0047017D01*
X0181714Y0047017D01*
X0184589Y0044142D01*
X0190754Y0044142D01*
X0190648Y0044397D01*
X0190648Y0045511D01*
X0191074Y0046540D01*
X0191862Y0047328D01*
X0192891Y0047754D01*
X0193420Y0047754D01*
X0194807Y0049142D01*
X0202738Y0049142D01*
X0203112Y0049515D01*
X0204141Y0049942D01*
X0205255Y0049942D01*
X0206284Y0049515D01*
X0207072Y0048728D01*
X0207498Y0047699D01*
X0207498Y0046585D01*
X0207426Y0047873D02*
X0208792Y0047873D01*
X0206327Y0049472D02*
X0211760Y0049472D01*
X0211378Y0051071D02*
X0155785Y0051071D01*
X0154186Y0052669D02*
X0203530Y0052669D01*
X0201931Y0054268D02*
X0152588Y0054268D01*
X0150989Y0055866D02*
X0201760Y0055866D01*
X0208682Y0057465D02*
X0214210Y0057465D01*
X0214210Y0059063D02*
X0208135Y0059063D01*
X0208135Y0060662D02*
X0214475Y0060662D01*
X0218388Y0062260D02*
X0208135Y0062260D01*
X0208135Y0063859D02*
X0246398Y0063859D01*
X0246398Y0062260D02*
X0222883Y0062260D01*
X0223235Y0060662D02*
X0246398Y0060662D01*
X0246398Y0059063D02*
X0223310Y0059063D01*
X0223310Y0057465D02*
X0246398Y0057465D01*
X0246398Y0055866D02*
X0223310Y0055866D01*
X0223310Y0054268D02*
X0246398Y0054268D01*
X0246398Y0052669D02*
X0223310Y0052669D01*
X0223310Y0051071D02*
X0246398Y0051071D01*
X0246398Y0049472D02*
X0223310Y0049472D01*
X0233910Y0044676D02*
X0234930Y0044676D01*
X0234560Y0043078D02*
X0235460Y0043078D01*
X0235460Y0041479D02*
X0234560Y0041479D01*
X0234184Y0039881D02*
X0235837Y0039881D01*
X0237435Y0038282D02*
X0232586Y0038282D01*
X0227435Y0038282D02*
X0226985Y0038282D01*
X0226355Y0036684D02*
X0265085Y0036684D01*
X0265085Y0038282D02*
X0242586Y0038282D01*
X0244184Y0039881D02*
X0265085Y0039881D01*
X0265085Y0041479D02*
X0244560Y0041479D01*
X0244560Y0043078D02*
X0261022Y0043078D01*
X0260535Y0044676D02*
X0243910Y0044676D01*
X0242312Y0046275D02*
X0258957Y0046275D01*
X0257358Y0047873D02*
X0255498Y0047873D01*
X0263002Y0051071D02*
X0283110Y0051071D01*
X0283110Y0052669D02*
X0261404Y0052669D01*
X0260560Y0054268D02*
X0283110Y0054268D01*
X0283870Y0055866D02*
X0260560Y0055866D01*
X0260560Y0057465D02*
X0277645Y0057465D01*
X0277806Y0057075D02*
X0278538Y0056344D01*
X0279493Y0055948D01*
X0280528Y0055948D01*
X0281483Y0056344D01*
X0282215Y0057075D01*
X0282610Y0058031D01*
X0282610Y0059065D01*
X0282215Y0060021D01*
X0282210Y0060025D01*
X0282210Y0070665D01*
X0282215Y0070669D01*
X0282610Y0071624D01*
X0282610Y0072659D01*
X0282215Y0073614D01*
X0281483Y0074346D01*
X0280528Y0074742D01*
X0279493Y0074742D01*
X0278538Y0074346D01*
X0277806Y0073614D01*
X0277410Y0072659D01*
X0277410Y0071624D01*
X0277806Y0070669D01*
X0277810Y0070665D01*
X0277810Y0060025D01*
X0277806Y0060021D01*
X0277410Y0059065D01*
X0277410Y0058031D01*
X0277806Y0057075D01*
X0277410Y0059063D02*
X0260560Y0059063D01*
X0260560Y0060662D02*
X0277810Y0060662D01*
X0277810Y0062260D02*
X0260560Y0062260D01*
X0261360Y0063859D02*
X0277810Y0063859D01*
X0277810Y0065457D02*
X0261107Y0065457D01*
X0257435Y0067056D02*
X0277810Y0067056D01*
X0277810Y0068654D02*
X0257435Y0068654D01*
X0256945Y0070253D02*
X0277810Y0070253D01*
X0277410Y0071851D02*
X0255347Y0071851D01*
X0254783Y0073450D02*
X0277738Y0073450D01*
X0280010Y0072142D02*
X0280010Y0058548D01*
X0282376Y0057465D02*
X0285468Y0057465D01*
X0284474Y0059063D02*
X0282610Y0059063D01*
X0282210Y0060662D02*
X0283110Y0060662D01*
X0283110Y0062260D02*
X0282210Y0062260D01*
X0282210Y0063859D02*
X0283110Y0063859D01*
X0283461Y0065457D02*
X0282210Y0065457D01*
X0282210Y0067056D02*
X0285059Y0067056D01*
X0284883Y0068654D02*
X0282210Y0068654D01*
X0282210Y0070253D02*
X0283284Y0070253D01*
X0283110Y0071851D02*
X0282610Y0071851D01*
X0282283Y0073450D02*
X0283110Y0073450D01*
X0283110Y0075048D02*
X0253588Y0075048D01*
X0254935Y0076647D02*
X0284650Y0076647D01*
X0286249Y0078245D02*
X0254935Y0078245D01*
X0254935Y0079844D02*
X0286683Y0079844D01*
X0285085Y0081442D02*
X0254935Y0081442D01*
X0254935Y0083041D02*
X0283486Y0083041D01*
X0281888Y0084639D02*
X0255054Y0084639D01*
X0256652Y0086238D02*
X0280289Y0086238D01*
X0278691Y0087836D02*
X0258251Y0087836D01*
X0260971Y0089435D02*
X0277092Y0089435D01*
X0275494Y0091033D02*
X0261360Y0091033D01*
X0280895Y0099026D02*
X0285195Y0099026D01*
X0283898Y0097427D02*
X0282494Y0097427D01*
X0283597Y0100624D02*
X0279297Y0100624D01*
X0277698Y0102223D02*
X0282710Y0102223D01*
X0288560Y0103821D02*
X0276100Y0103821D01*
X0274501Y0105420D02*
X0282710Y0105420D01*
X0283206Y0107018D02*
X0273660Y0107018D01*
X0273660Y0108617D02*
X0284805Y0108617D01*
X0284006Y0110215D02*
X0273660Y0110215D01*
X0273660Y0111814D02*
X0282710Y0111814D01*
X0282710Y0113412D02*
X0273660Y0113412D01*
X0273660Y0115011D02*
X0282710Y0115011D01*
X0282797Y0116609D02*
X0273660Y0116609D01*
X0273660Y0118208D02*
X0284396Y0118208D01*
X0284697Y0119806D02*
X0273660Y0119806D01*
X0273660Y0121405D02*
X0283099Y0121405D01*
X0282910Y0123004D02*
X0273660Y0123004D01*
X0273660Y0124602D02*
X0282910Y0124602D01*
X0282910Y0126201D02*
X0273471Y0126201D01*
X0272122Y0127799D02*
X0284270Y0127799D01*
X0285868Y0129398D02*
X0270524Y0129398D01*
X0268925Y0130996D02*
X0294444Y0130996D01*
X0293210Y0129398D02*
X0291653Y0129398D01*
X0296043Y0132595D02*
X0267327Y0132595D01*
X0265728Y0134193D02*
X0297641Y0134193D01*
X0299240Y0135792D02*
X0264130Y0135792D01*
X0262531Y0137390D02*
X0281448Y0137390D01*
X0282454Y0136809D02*
X0279467Y0138534D01*
X0277028Y0140973D01*
X0275303Y0143960D01*
X0274410Y0147292D01*
X0274410Y0150741D01*
X0275303Y0154073D01*
X0277028Y0157060D01*
X0279467Y0159499D01*
X0282454Y0161224D01*
X0285786Y0162117D01*
X0289235Y0162117D01*
X0292567Y0161224D01*
X0295554Y0159499D01*
X0297993Y0157060D01*
X0299718Y0154073D01*
X0300610Y0150741D01*
X0300610Y0147292D01*
X0299718Y0143960D01*
X0297993Y0140973D01*
X0295554Y0138534D01*
X0292567Y0136809D01*
X0289235Y0135917D01*
X0285786Y0135917D01*
X0282454Y0136809D01*
X0279012Y0138989D02*
X0260933Y0138989D01*
X0259334Y0140587D02*
X0277414Y0140587D01*
X0276328Y0142186D02*
X0267703Y0142186D01*
X0267434Y0141917D02*
X0270860Y0145344D01*
X0270860Y0150190D01*
X0268284Y0152767D01*
X0270860Y0155344D01*
X0270860Y0160190D01*
X0267434Y0163617D01*
X0262587Y0163617D01*
X0259160Y0160190D01*
X0259160Y0155344D01*
X0261737Y0152767D01*
X0259160Y0150190D01*
X0259160Y0145344D01*
X0262587Y0141917D01*
X0267434Y0141917D01*
X0269301Y0143784D02*
X0275405Y0143784D01*
X0274922Y0145383D02*
X0270860Y0145383D01*
X0270860Y0146981D02*
X0274494Y0146981D01*
X0274410Y0148580D02*
X0270860Y0148580D01*
X0270860Y0150178D02*
X0274410Y0150178D01*
X0274688Y0151777D02*
X0269274Y0151777D01*
X0268892Y0153375D02*
X0275116Y0153375D01*
X0275823Y0154974D02*
X0270491Y0154974D01*
X0270860Y0156572D02*
X0276746Y0156572D01*
X0278138Y0158171D02*
X0270860Y0158171D01*
X0270860Y0159769D02*
X0279935Y0159769D01*
X0282991Y0161368D02*
X0269682Y0161368D01*
X0268084Y0162966D02*
X0293155Y0162966D01*
X0292030Y0161368D02*
X0295490Y0161368D01*
X0295086Y0159769D02*
X0297047Y0159769D01*
X0296883Y0158171D02*
X0298412Y0158171D01*
X0298275Y0156572D02*
X0299178Y0156572D01*
X0299198Y0154974D02*
X0299944Y0154974D01*
X0299905Y0153375D02*
X0300302Y0153375D01*
X0300333Y0151777D02*
X0300601Y0151777D01*
X0300610Y0150178D02*
X0300727Y0150178D01*
X0300661Y0148580D02*
X0300610Y0148580D01*
X0300661Y0146981D02*
X0300527Y0146981D01*
X0300661Y0145383D02*
X0300099Y0145383D01*
X0299616Y0143784D02*
X0300661Y0143784D01*
X0300661Y0142186D02*
X0298693Y0142186D01*
X0297607Y0140587D02*
X0300661Y0140587D01*
X0300661Y0138989D02*
X0296009Y0138989D01*
X0293573Y0137390D02*
X0300661Y0137390D01*
X0268531Y0124602D02*
X0247056Y0124602D01*
X0247010Y0123004D02*
X0268860Y0123004D01*
X0268860Y0121405D02*
X0245852Y0121405D01*
X0244254Y0119806D02*
X0268860Y0119806D01*
X0268860Y0118208D02*
X0242655Y0118208D01*
X0243110Y0116609D02*
X0268860Y0116609D01*
X0268860Y0115011D02*
X0243435Y0115011D01*
X0242741Y0113412D02*
X0268860Y0113412D01*
X0268860Y0111814D02*
X0160636Y0111814D01*
X0159038Y0110215D02*
X0268860Y0110215D01*
X0268860Y0108617D02*
X0235253Y0108617D01*
X0236851Y0107018D02*
X0268860Y0107018D01*
X0268860Y0105420D02*
X0237885Y0105420D01*
X0237885Y0103821D02*
X0269312Y0103821D01*
X0270910Y0102223D02*
X0237885Y0102223D01*
X0236461Y0100624D02*
X0272509Y0100624D01*
X0288560Y0104217D02*
X0288560Y0107967D01*
X0288560Y0113817D01*
X0288960Y0113817D01*
X0288960Y0104217D01*
X0288560Y0104217D01*
X0288560Y0105420D02*
X0288960Y0105420D01*
X0288960Y0107018D02*
X0288560Y0107018D01*
X0288560Y0108617D02*
X0288960Y0108617D01*
X0288960Y0110215D02*
X0288560Y0110215D01*
X0288560Y0111814D02*
X0288960Y0111814D01*
X0288960Y0113412D02*
X0288560Y0113412D01*
X0266932Y0126201D02*
X0247810Y0126201D01*
X0247510Y0127799D02*
X0265334Y0127799D01*
X0263735Y0129398D02*
X0224910Y0129398D01*
X0225269Y0127799D02*
X0242511Y0127799D01*
X0242210Y0126201D02*
X0225151Y0126201D01*
X0223696Y0124602D02*
X0233634Y0124602D01*
X0236387Y0124602D02*
X0242965Y0124602D01*
X0241794Y0123004D02*
X0237684Y0123004D01*
X0237736Y0121405D02*
X0240195Y0121405D01*
X0238597Y0119806D02*
X0236635Y0119806D01*
X0233386Y0119806D02*
X0192555Y0119806D01*
X0188715Y0119806D02*
X0184330Y0119806D01*
X0184685Y0118208D02*
X0187835Y0118208D01*
X0179441Y0119806D02*
X0153180Y0119806D01*
X0154060Y0118208D02*
X0179085Y0118208D01*
X0179885Y0121405D02*
X0145135Y0121405D01*
X0145135Y0119806D02*
X0149340Y0119806D01*
X0148460Y0118208D02*
X0145135Y0118208D01*
X0145135Y0116609D02*
X0148709Y0116609D01*
X0149260Y0115011D02*
X0145135Y0115011D01*
X0145135Y0113412D02*
X0149260Y0113412D01*
X0149260Y0111814D02*
X0145135Y0111814D01*
X0145135Y0110215D02*
X0149260Y0110215D01*
X0149260Y0108617D02*
X0145135Y0108617D01*
X0145135Y0107018D02*
X0147684Y0107018D01*
X0146135Y0105420D02*
X0145135Y0105420D01*
X0145135Y0103821D02*
X0146135Y0103821D01*
X0146135Y0102223D02*
X0145135Y0102223D01*
X0145072Y0100624D02*
X0146135Y0100624D01*
X0145316Y0099026D02*
X0144036Y0099026D01*
X0143718Y0097427D02*
X0143006Y0097427D01*
X0130960Y0097427D02*
X0128435Y0097427D01*
X0128435Y0097267D02*
X0128435Y0098324D01*
X0128009Y0099353D01*
X0127835Y0099526D01*
X0127835Y0106007D01*
X0128009Y0106181D01*
X0128435Y0107210D01*
X0128435Y0108324D01*
X0128372Y0108477D01*
X0128472Y0108518D01*
X0129259Y0109306D01*
X0129685Y0110335D01*
X0129685Y0111449D01*
X0129259Y0112478D01*
X0128472Y0113265D01*
X0127442Y0113692D01*
X0126328Y0113692D01*
X0125299Y0113265D01*
X0124926Y0112892D01*
X0121682Y0112892D01*
X0116057Y0107267D01*
X0114885Y0106095D01*
X0114885Y0100351D01*
X0114512Y0099978D01*
X0114085Y0098949D01*
X0114085Y0097835D01*
X0114321Y0097267D01*
X0099158Y0097267D01*
X0098784Y0097640D01*
X0097755Y0098067D01*
X0096641Y0098067D01*
X0096385Y0097961D01*
X0096385Y0104577D01*
X0096953Y0104342D01*
X0098067Y0104342D01*
X0099035Y0104743D01*
X0099035Y0104451D01*
X0099457Y0103434D01*
X0099049Y0103265D01*
X0098262Y0102478D01*
X0097835Y0101449D01*
X0097835Y0100335D01*
X0098262Y0099306D01*
X0099049Y0098518D01*
X0100078Y0098092D01*
X0101192Y0098092D01*
X0102222Y0098518D01*
X0102595Y0098892D01*
X0106464Y0098892D01*
X0107635Y0100063D01*
X0114589Y0107017D01*
X0115760Y0108188D01*
X0115760Y0113307D01*
X0116134Y0113681D01*
X0116560Y0114710D01*
X0116560Y0115767D01*
X0117307Y0115767D01*
X0117385Y0115688D01*
X0118557Y0114517D01*
X0123676Y0114517D01*
X0124049Y0114143D01*
X0125078Y0113717D01*
X0126192Y0113717D01*
X0127222Y0114143D01*
X0127510Y0114432D01*
X0127799Y0114143D01*
X0128828Y0113717D01*
X0129942Y0113717D01*
X0130510Y0113952D01*
X0130510Y0104845D01*
X0130432Y0104767D01*
X0129260Y0103595D01*
X0129260Y0102851D01*
X0128887Y0102478D01*
X0128460Y0101449D01*
X0128460Y0100335D01*
X0128887Y0099306D01*
X0129674Y0098518D01*
X0130703Y0098092D01*
X0130960Y0098092D01*
X0130960Y0097267D01*
X0128435Y0097267D01*
X0128145Y0099026D02*
X0129166Y0099026D01*
X0128460Y0100624D02*
X0127835Y0100624D01*
X0127835Y0102223D02*
X0128781Y0102223D01*
X0129487Y0103821D02*
X0127835Y0103821D01*
X0127835Y0105420D02*
X0130510Y0105420D01*
X0130510Y0107018D02*
X0128356Y0107018D01*
X0128570Y0108617D02*
X0130510Y0108617D01*
X0130510Y0110215D02*
X0129636Y0110215D01*
X0129534Y0111814D02*
X0130510Y0111814D01*
X0130510Y0113412D02*
X0128116Y0113412D01*
X0125654Y0113412D02*
X0115866Y0113412D01*
X0115760Y0111814D02*
X0120604Y0111814D01*
X0119006Y0110215D02*
X0115760Y0110215D01*
X0115760Y0108617D02*
X0117407Y0108617D01*
X0115809Y0107018D02*
X0114591Y0107018D01*
X0114589Y0107017D02*
X0114589Y0107017D01*
X0114885Y0105420D02*
X0112992Y0105420D01*
X0111394Y0103821D02*
X0114885Y0103821D01*
X0114885Y0102223D02*
X0109795Y0102223D01*
X0108197Y0100624D02*
X0114885Y0100624D01*
X0114117Y0099026D02*
X0106598Y0099026D01*
X0107635Y0100063D02*
X0107635Y0100063D01*
X0114254Y0097427D02*
X0098997Y0097427D01*
X0098541Y0099026D02*
X0096385Y0099026D01*
X0096385Y0100624D02*
X0097835Y0100624D01*
X0098156Y0102223D02*
X0096385Y0102223D01*
X0096385Y0103821D02*
X0099296Y0103821D01*
X0092385Y0105420D02*
X0076117Y0105420D01*
X0077716Y0107018D02*
X0092385Y0107018D01*
X0092385Y0108617D02*
X0079314Y0108617D01*
X0080913Y0110215D02*
X0092385Y0110215D01*
X0092385Y0111814D02*
X0082511Y0111814D01*
X0096385Y0110592D02*
X0096385Y0109706D01*
X0096953Y0109942D01*
X0098067Y0109942D01*
X0098979Y0109564D01*
X0099169Y0109754D01*
X0099035Y0110076D01*
X0099035Y0111707D01*
X0099660Y0113214D01*
X0100813Y0114367D01*
X0102320Y0114992D01*
X0103951Y0114992D01*
X0105458Y0114367D01*
X0106611Y0113214D01*
X0107235Y0111707D01*
X0107235Y0110076D01*
X0106611Y0108569D01*
X0106121Y0108079D01*
X0106611Y0107589D01*
X0107235Y0106082D01*
X0107235Y0105320D01*
X0111760Y0109845D01*
X0111760Y0113307D01*
X0111387Y0113681D01*
X0110960Y0114710D01*
X0110960Y0115767D01*
X0097843Y0115767D01*
X0097847Y0115765D01*
X0098634Y0114978D01*
X0099060Y0113949D01*
X0099060Y0112835D01*
X0098634Y0111806D01*
X0097847Y0111018D01*
X0096817Y0110592D01*
X0096385Y0110592D01*
X0096385Y0110215D02*
X0099035Y0110215D01*
X0099080Y0111814D02*
X0098638Y0111814D01*
X0099060Y0113412D02*
X0099858Y0113412D01*
X0098601Y0115011D02*
X0110960Y0115011D01*
X0111655Y0113412D02*
X0106413Y0113412D01*
X0107191Y0111814D02*
X0111760Y0111814D01*
X0111760Y0110215D02*
X0107235Y0110215D01*
X0106631Y0108617D02*
X0110532Y0108617D01*
X0108934Y0107018D02*
X0106848Y0107018D01*
X0107235Y0105420D02*
X0107335Y0105420D01*
X0118885Y0104438D02*
X0118885Y0100351D01*
X0119259Y0099978D01*
X0119685Y0098949D01*
X0119685Y0097835D01*
X0119450Y0097267D01*
X0122835Y0097267D01*
X0122835Y0098324D01*
X0123262Y0099353D01*
X0123435Y0099526D01*
X0123435Y0106007D01*
X0123262Y0106181D01*
X0122835Y0107210D01*
X0122835Y0108324D01*
X0122881Y0108434D01*
X0118885Y0104438D01*
X0118885Y0103821D02*
X0123435Y0103821D01*
X0123435Y0102223D02*
X0118885Y0102223D01*
X0118885Y0100624D02*
X0123435Y0100624D01*
X0123126Y0099026D02*
X0119653Y0099026D01*
X0119517Y0097427D02*
X0122835Y0097427D01*
X0123435Y0105420D02*
X0119867Y0105420D01*
X0121466Y0107018D02*
X0122915Y0107018D01*
X0118063Y0115011D02*
X0116560Y0115011D01*
X0140583Y0129398D02*
X0179885Y0129398D01*
X0179885Y0127799D02*
X0142181Y0127799D01*
X0143780Y0126201D02*
X0179885Y0126201D01*
X0179885Y0124602D02*
X0145135Y0124602D01*
X0145135Y0123004D02*
X0179885Y0123004D01*
X0181689Y0135792D02*
X0199276Y0135792D01*
X0198460Y0137390D02*
X0180090Y0137390D01*
X0178492Y0138989D02*
X0198736Y0138989D01*
X0205003Y0140587D02*
X0176893Y0140587D01*
X0175295Y0142186D02*
X0205510Y0142186D01*
X0205510Y0143784D02*
X0173696Y0143784D01*
X0186769Y0151777D02*
X0188252Y0151777D01*
X0187910Y0153375D02*
X0187110Y0153375D01*
X0187110Y0154974D02*
X0187910Y0154974D01*
X0187910Y0156572D02*
X0187110Y0156572D01*
X0187110Y0158171D02*
X0187910Y0158171D01*
X0187910Y0159769D02*
X0187110Y0159769D01*
X0186723Y0161368D02*
X0188298Y0161368D01*
X0189455Y0162966D02*
X0185566Y0162966D01*
X0195566Y0162966D02*
X0199172Y0162966D01*
X0199383Y0163178D02*
X0198849Y0162644D01*
X0198405Y0162032D01*
X0198062Y0161359D01*
X0197829Y0160641D01*
X0197710Y0159894D01*
X0197710Y0156717D01*
X0202310Y0156717D01*
X0202310Y0164317D01*
X0202133Y0164317D01*
X0201386Y0164198D01*
X0200668Y0163965D01*
X0199995Y0163622D01*
X0199383Y0163178D01*
X0198066Y0161368D02*
X0196723Y0161368D01*
X0197110Y0159769D02*
X0197710Y0159769D01*
X0197710Y0158171D02*
X0197110Y0158171D01*
X0197110Y0156572D02*
X0202310Y0156572D01*
X0202310Y0154974D02*
X0202710Y0154974D01*
X0202710Y0153375D02*
X0202310Y0153375D01*
X0202310Y0151777D02*
X0202710Y0151777D01*
X0202710Y0150178D02*
X0202310Y0150178D01*
X0199061Y0150178D02*
X0195677Y0150178D01*
X0196769Y0151777D02*
X0198029Y0151777D01*
X0197710Y0153375D02*
X0197110Y0153375D01*
X0197110Y0154974D02*
X0197710Y0154974D01*
X0202310Y0158171D02*
X0202710Y0158171D01*
X0202710Y0159769D02*
X0202310Y0159769D01*
X0202310Y0161368D02*
X0202710Y0161368D01*
X0202710Y0162966D02*
X0202310Y0162966D01*
X0205849Y0162966D02*
X0208632Y0162966D01*
X0207033Y0161368D02*
X0206954Y0161368D01*
X0209510Y0158171D02*
X0259160Y0158171D01*
X0259160Y0159769D02*
X0251910Y0159769D01*
X0252498Y0161368D02*
X0260338Y0161368D01*
X0261937Y0162966D02*
X0252128Y0162966D01*
X0259160Y0156572D02*
X0243349Y0156572D01*
X0244947Y0154974D02*
X0259530Y0154974D01*
X0261129Y0153375D02*
X0246546Y0153375D01*
X0248144Y0151777D02*
X0260747Y0151777D01*
X0259160Y0150178D02*
X0249743Y0150178D01*
X0251341Y0148580D02*
X0259160Y0148580D01*
X0259160Y0146981D02*
X0252940Y0146981D01*
X0254539Y0145383D02*
X0259160Y0145383D01*
X0260720Y0143784D02*
X0256137Y0143784D01*
X0257736Y0142186D02*
X0262318Y0142186D01*
X0265010Y0147767D02*
X0265010Y0157767D01*
X0247750Y0145383D02*
X0240135Y0145383D01*
X0240135Y0146981D02*
X0246152Y0146981D01*
X0244553Y0148580D02*
X0240135Y0148580D01*
X0240135Y0150178D02*
X0242955Y0150178D01*
X0241356Y0151777D02*
X0239454Y0151777D01*
X0234264Y0150178D02*
X0213885Y0150178D01*
X0213885Y0148580D02*
X0236135Y0148580D01*
X0236135Y0146981D02*
X0216631Y0146981D01*
X0217664Y0145383D02*
X0236135Y0145383D01*
X0240135Y0143784D02*
X0249349Y0143784D01*
X0250947Y0142186D02*
X0240135Y0142186D01*
X0240135Y0140587D02*
X0243880Y0140587D01*
X0242838Y0138989D02*
X0240135Y0138989D01*
X0239060Y0137390D02*
X0241240Y0137390D01*
X0239641Y0135792D02*
X0238245Y0135792D01*
X0239385Y0132142D02*
X0222510Y0132142D01*
X0222510Y0137142D02*
X0214385Y0145267D01*
X0213885Y0151777D02*
X0233460Y0151777D01*
X0248641Y0140587D02*
X0252546Y0140587D01*
X0254144Y0138989D02*
X0249060Y0138989D01*
X0248594Y0137390D02*
X0255743Y0137390D01*
X0257341Y0135792D02*
X0246429Y0135792D01*
X0244831Y0134193D02*
X0258940Y0134193D01*
X0260538Y0132595D02*
X0243232Y0132595D01*
X0241634Y0130996D02*
X0262137Y0130996D01*
X0246260Y0139017D02*
X0239385Y0132142D01*
X0205510Y0145383D02*
X0152723Y0145383D01*
X0171370Y0135792D02*
X0171613Y0135792D01*
X0159295Y0130996D02*
X0138984Y0130996D01*
X0132282Y0135792D02*
X0125908Y0135792D01*
X0124844Y0137390D02*
X0130684Y0137390D01*
X0129085Y0138989D02*
X0125310Y0138989D01*
X0120510Y0137057D02*
X0120510Y0134438D01*
X0121585Y0133363D01*
X0121585Y0132892D01*
X0080310Y0132892D01*
X0080310Y0133949D01*
X0079884Y0134978D01*
X0079510Y0135351D01*
X0079510Y0138188D01*
X0083964Y0142642D01*
X0112932Y0142642D01*
X0114085Y0141488D01*
X0114085Y0140960D01*
X0114512Y0139931D01*
X0115299Y0139143D01*
X0116328Y0138717D01*
X0117442Y0138717D01*
X0118472Y0139143D01*
X0118845Y0139517D01*
X0119710Y0139517D01*
X0119710Y0138460D01*
X0120137Y0137431D01*
X0120510Y0137057D01*
X0120177Y0137390D02*
X0079510Y0137390D01*
X0079510Y0135792D02*
X0120510Y0135792D01*
X0120756Y0134193D02*
X0080209Y0134193D01*
X0080311Y0138989D02*
X0115672Y0138989D01*
X0114240Y0140587D02*
X0081909Y0140587D01*
X0083508Y0142186D02*
X0113388Y0142186D01*
X0118099Y0138989D02*
X0119710Y0138989D01*
X0153812Y0116609D02*
X0159775Y0116609D01*
X0158176Y0115011D02*
X0153260Y0115011D01*
X0153260Y0113412D02*
X0156578Y0113412D01*
X0154979Y0111814D02*
X0153260Y0111814D01*
X0153260Y0110215D02*
X0153381Y0110215D01*
X0106627Y0087836D02*
X0104783Y0087836D01*
X0105028Y0086238D02*
X0103185Y0086238D01*
X0103430Y0084639D02*
X0094411Y0084639D01*
X0091860Y0084639D02*
X0080310Y0084639D01*
X0079874Y0086238D02*
X0090479Y0086238D01*
X0090392Y0087836D02*
X0077144Y0087836D01*
X0075546Y0089435D02*
X0091469Y0089435D01*
X0108389Y0081442D02*
X0116298Y0081442D01*
X0116312Y0081484D02*
X0116079Y0080766D01*
X0115960Y0080019D01*
X0115960Y0079842D01*
X0123560Y0079842D01*
X0123560Y0079442D01*
X0115960Y0079442D01*
X0115960Y0079264D01*
X0115980Y0079142D01*
X0106089Y0079142D01*
X0111464Y0084517D01*
X0142307Y0084517D01*
X0144885Y0081938D01*
X0144885Y0075095D01*
X0144510Y0075470D01*
X0143339Y0076642D01*
X0130514Y0076642D01*
X0130866Y0077126D01*
X0131209Y0077799D01*
X0131442Y0078518D01*
X0131560Y0079264D01*
X0131560Y0079442D01*
X0123961Y0079442D01*
X0123961Y0079842D01*
X0131560Y0079842D01*
X0131560Y0080019D01*
X0131442Y0080766D01*
X0131209Y0081484D01*
X0130866Y0082157D01*
X0130422Y0082769D01*
X0129887Y0083303D01*
X0129276Y0083747D01*
X0128603Y0084090D01*
X0127884Y0084323D01*
X0127138Y0084442D01*
X0123960Y0084442D01*
X0123960Y0079842D01*
X0123560Y0079842D01*
X0123560Y0084442D01*
X0120383Y0084442D01*
X0119636Y0084323D01*
X0118918Y0084090D01*
X0118245Y0083747D01*
X0117633Y0083303D01*
X0117099Y0082769D01*
X0116655Y0082157D01*
X0116312Y0081484D01*
X0115960Y0079844D02*
X0106791Y0079844D01*
X0109988Y0083041D02*
X0117371Y0083041D01*
X0123560Y0083041D02*
X0123960Y0083041D01*
X0123960Y0081442D02*
X0123560Y0081442D01*
X0123560Y0079844D02*
X0123960Y0079844D01*
X0130518Y0076647D02*
X0144885Y0076647D01*
X0144885Y0078245D02*
X0131354Y0078245D01*
X0131560Y0079844D02*
X0144885Y0079844D01*
X0144885Y0081442D02*
X0131222Y0081442D01*
X0130150Y0083041D02*
X0143783Y0083041D01*
X0133548Y0067056D02*
X0130668Y0067056D01*
X0128678Y0065457D02*
X0133748Y0065457D01*
X0133748Y0063859D02*
X0128600Y0063859D01*
X0129366Y0063541D02*
X0127675Y0064242D01*
X0119845Y0064242D01*
X0118155Y0063541D01*
X0116861Y0062247D01*
X0116160Y0060557D01*
X0116160Y0058727D01*
X0116861Y0057036D01*
X0118155Y0055742D01*
X0119845Y0055042D01*
X0127675Y0055042D01*
X0129366Y0055742D01*
X0130660Y0057036D01*
X0131360Y0058727D01*
X0131360Y0060557D01*
X0130660Y0062247D01*
X0129366Y0063541D01*
X0130647Y0062260D02*
X0133748Y0062260D01*
X0133748Y0060662D02*
X0131317Y0060662D01*
X0131360Y0059063D02*
X0133748Y0059063D01*
X0134389Y0057465D02*
X0130838Y0057465D01*
X0129490Y0055866D02*
X0135987Y0055866D01*
X0135623Y0056230D02*
X0135623Y0056230D01*
X0135037Y0056817D02*
X0135037Y0056817D01*
X0143806Y0054268D02*
X0114463Y0054268D01*
X0112864Y0055866D02*
X0118031Y0055866D01*
X0116683Y0057465D02*
X0111266Y0057465D01*
X0116160Y0059063D02*
X0101785Y0059063D01*
X0101785Y0060662D02*
X0116204Y0060662D01*
X0116873Y0062260D02*
X0101785Y0062260D01*
X0101785Y0063859D02*
X0118921Y0063859D01*
X0118842Y0065457D02*
X0101785Y0065457D01*
X0101309Y0067056D02*
X0116853Y0067056D01*
X0116190Y0068654D02*
X0099060Y0068654D01*
X0098359Y0070253D02*
X0116160Y0070253D01*
X0116697Y0071851D02*
X0093715Y0071851D01*
X0093885Y0070253D02*
X0094162Y0070253D01*
X0095672Y0073450D02*
X0116499Y0073450D01*
X0114900Y0075048D02*
X0095935Y0075048D01*
X0084945Y0068654D02*
X0082007Y0068654D01*
X0109953Y0049472D02*
X0110477Y0049472D01*
X0112075Y0047873D02*
X0107321Y0047873D01*
X0117010Y0046275D02*
X0117622Y0046275D01*
X0117010Y0044676D02*
X0138948Y0044676D01*
X0144807Y0041017D02*
X0144807Y0041017D01*
X0150927Y0041479D02*
X0181594Y0041479D01*
X0179996Y0043078D02*
X0152525Y0043078D01*
X0154124Y0044676D02*
X0178397Y0044676D01*
X0182456Y0046275D02*
X0185355Y0046275D01*
X0184054Y0044676D02*
X0190648Y0044676D01*
X0190964Y0046275D02*
X0189666Y0046275D01*
X0190310Y0047873D02*
X0193539Y0047873D01*
X0189964Y0049472D02*
X0203068Y0049472D01*
X0203333Y0044676D02*
X0196248Y0044676D01*
X0206063Y0044676D02*
X0206804Y0044676D01*
X0217510Y0038282D02*
X0219449Y0038282D01*
X0220085Y0036684D02*
X0217510Y0036684D01*
X0217510Y0035085D02*
X0220085Y0035085D01*
X0220085Y0033487D02*
X0217510Y0033487D01*
X0217510Y0031888D02*
X0220085Y0031888D01*
X0220085Y0030290D02*
X0217510Y0030290D01*
X0217510Y0028691D02*
X0220085Y0028691D01*
X0220639Y0027093D02*
X0217510Y0027093D01*
X0217510Y0025494D02*
X0221785Y0025494D01*
X0222704Y0023896D02*
X0217510Y0023896D01*
X0217510Y0022297D02*
X0255121Y0022297D01*
X0256719Y0023896D02*
X0226067Y0023896D01*
X0226985Y0025494D02*
X0258318Y0025494D01*
X0259916Y0027093D02*
X0226702Y0027093D01*
X0224131Y0028691D02*
X0261515Y0028691D01*
X0263113Y0030290D02*
X0223685Y0030290D01*
X0223685Y0031888D02*
X0264712Y0031888D01*
X0265085Y0033487D02*
X0223685Y0033487D01*
X0223685Y0035085D02*
X0265085Y0035085D01*
X0268685Y0035085D02*
X0295146Y0035085D01*
X0294265Y0035967D02*
X0294265Y0035967D01*
X0293548Y0036684D02*
X0268685Y0036684D01*
X0268685Y0038282D02*
X0285254Y0038282D01*
X0283656Y0039881D02*
X0268685Y0039881D01*
X0268685Y0041479D02*
X0283110Y0041479D01*
X0283110Y0043078D02*
X0268685Y0043078D01*
X0268685Y0044676D02*
X0283110Y0044676D01*
X0284278Y0046275D02*
X0267798Y0046275D01*
X0266199Y0047873D02*
X0285663Y0047873D01*
X0284065Y0049472D02*
X0264601Y0049472D01*
X0246398Y0047873D02*
X0236824Y0047873D01*
X0212510Y0035085D02*
X0196560Y0035085D01*
X0196313Y0033487D02*
X0212510Y0033487D01*
X0212510Y0031888D02*
X0195760Y0031888D01*
X0196566Y0030290D02*
X0212510Y0030290D01*
X0212510Y0028691D02*
X0197010Y0028691D01*
X0197010Y0027093D02*
X0212510Y0027093D01*
X0212510Y0025494D02*
X0202429Y0025494D01*
X0202810Y0023896D02*
X0212510Y0023896D01*
X0212510Y0022297D02*
X0202251Y0022297D01*
X0199521Y0020699D02*
X0212510Y0020699D01*
X0212510Y0019100D02*
X0197922Y0019100D01*
X0196324Y0017502D02*
X0214025Y0017502D01*
X0215624Y0015903D02*
X0205209Y0015903D01*
X0205935Y0014305D02*
X0215635Y0014305D01*
X0215635Y0012706D02*
X0205623Y0012706D01*
X0203055Y0011108D02*
X0215635Y0011108D01*
X0215635Y0009509D02*
X0134221Y0009509D01*
X0132623Y0011108D02*
X0139585Y0011108D01*
X0138514Y0012706D02*
X0131024Y0012706D01*
X0129426Y0014305D02*
X0138608Y0014305D01*
X0139734Y0015903D02*
X0127827Y0015903D01*
X0126229Y0017502D02*
X0139888Y0017502D01*
X0142936Y0011108D02*
X0195091Y0011108D01*
X0200834Y0015903D02*
X0201062Y0015903D01*
X0215635Y0007911D02*
X0135820Y0007911D01*
X0132210Y0028691D02*
X0130014Y0028691D01*
X0131612Y0030290D02*
X0132507Y0030290D01*
X0117691Y0043078D02*
X0117010Y0043078D01*
X0117282Y0052669D02*
X0116061Y0052669D01*
X0149391Y0057465D02*
X0149984Y0057465D01*
X0197429Y0025494D02*
X0197592Y0025494D01*
X0218328Y0020699D02*
X0253522Y0020699D01*
X0251923Y0019100D02*
X0219927Y0019100D01*
X0220635Y0017502D02*
X0250325Y0017502D01*
X0248726Y0015903D02*
X0220635Y0015903D01*
X0220635Y0014305D02*
X0247128Y0014305D01*
X0245529Y0012706D02*
X0220635Y0012706D01*
X0220635Y0011108D02*
X0242804Y0011108D01*
X0242332Y0009509D02*
X0220635Y0009509D01*
X0220635Y0007911D02*
X0240734Y0007911D01*
X0244227Y0006312D02*
X0282582Y0006312D01*
X0283312Y0006117D02*
X0286709Y0006117D01*
X0289990Y0006996D01*
X0292931Y0008694D01*
X0295333Y0011096D01*
X0297031Y0014037D01*
X0297910Y0017318D01*
X0297910Y0020715D01*
X0297031Y0023996D01*
X0295333Y0026937D01*
X0292931Y0029339D01*
X0289990Y0031038D01*
X0286709Y0031917D01*
X0283312Y0031917D01*
X0280031Y0031038D01*
X0277090Y0029339D01*
X0274688Y0026937D01*
X0272990Y0023996D01*
X0272110Y0020715D01*
X0272110Y0017318D01*
X0272990Y0014037D01*
X0274688Y0011096D01*
X0277090Y0008694D01*
X0280031Y0006996D01*
X0283312Y0006117D01*
X0287438Y0006312D02*
X0294137Y0006312D01*
X0295918Y0007911D02*
X0291574Y0007911D01*
X0293746Y0009509D02*
X0297495Y0009509D01*
X0298418Y0011108D02*
X0295340Y0011108D01*
X0296263Y0012706D02*
X0299341Y0012706D01*
X0299863Y0014305D02*
X0297103Y0014305D01*
X0297531Y0015903D02*
X0300291Y0015903D01*
X0300611Y0017502D02*
X0297910Y0017502D01*
X0297910Y0019100D02*
X0300662Y0019100D01*
X0300669Y0020699D02*
X0297910Y0020699D01*
X0297486Y0022297D02*
X0300676Y0022297D01*
X0300683Y0023896D02*
X0297058Y0023896D01*
X0296166Y0025494D02*
X0300690Y0025494D01*
X0300697Y0027093D02*
X0295178Y0027093D01*
X0293579Y0028691D02*
X0300704Y0028691D01*
X0299942Y0030290D02*
X0291285Y0030290D01*
X0286814Y0031888D02*
X0298343Y0031888D01*
X0296745Y0033487D02*
X0268685Y0033487D01*
X0268685Y0031888D02*
X0283207Y0031888D01*
X0278736Y0030290D02*
X0268204Y0030290D01*
X0266606Y0028691D02*
X0276442Y0028691D01*
X0274843Y0027093D02*
X0265007Y0027093D01*
X0263409Y0025494D02*
X0273855Y0025494D01*
X0272963Y0023896D02*
X0261810Y0023896D01*
X0260212Y0022297D02*
X0272534Y0022297D01*
X0272110Y0020699D02*
X0258613Y0020699D01*
X0257015Y0019100D02*
X0272110Y0019100D01*
X0272110Y0017502D02*
X0255416Y0017502D01*
X0253818Y0015903D02*
X0272490Y0015903D01*
X0272918Y0014305D02*
X0252219Y0014305D01*
X0250621Y0012706D02*
X0273758Y0012706D01*
X0274681Y0011108D02*
X0249022Y0011108D01*
X0247610Y0009509D02*
X0276275Y0009509D01*
X0278447Y0007911D02*
X0246956Y0007911D01*
X0242628Y0004714D02*
X0291368Y0004714D01*
X0292266Y0038282D02*
X0293210Y0038282D01*
X0246771Y0065457D02*
X0208060Y0065457D01*
X0291272Y0078245D02*
X0293210Y0078245D01*
X0293210Y0076647D02*
X0292871Y0076647D01*
X0205510Y0146981D02*
X0192678Y0146981D01*
X0194277Y0148580D02*
X0205510Y0148580D01*
X0288470Y0164565D02*
X0029512Y0164565D01*
X0027767Y0124602D02*
X0016810Y0124602D01*
X0016810Y0123004D02*
X0026169Y0123004D01*
X0018393Y0121405D02*
X0016810Y0121405D01*
X0016810Y0119806D02*
X0017492Y0119806D01*
X0017285Y0118208D02*
X0016810Y0118208D01*
X0016810Y0116609D02*
X0017645Y0116609D01*
X0016810Y0115011D02*
X0018761Y0115011D01*
D23*
X0038135Y0129017D03*
X0045010Y0132767D03*
X0058135Y0139017D03*
X0062510Y0140892D03*
X0077510Y0133392D03*
X0068760Y0129642D03*
X0065010Y0128392D03*
X0066260Y0124642D03*
X0073135Y0121517D03*
X0068135Y0118392D03*
X0065635Y0116517D03*
X0067510Y0114017D03*
X0053760Y0115892D03*
X0045010Y0116517D03*
X0026260Y0131517D03*
X0086885Y0142142D03*
X0116885Y0141517D03*
X0122510Y0144017D03*
X0122510Y0139017D03*
X0116885Y0135892D03*
X0124385Y0133392D03*
X0127510Y0139017D03*
X0140635Y0130267D03*
X0135010Y0127767D03*
X0148135Y0126517D03*
X0156260Y0130267D03*
X0169385Y0137767D03*
X0173135Y0133392D03*
X0189385Y0130267D03*
X0201260Y0129642D03*
X0206260Y0127142D03*
X0213760Y0126517D03*
X0222510Y0127142D03*
X0229385Y0127767D03*
X0235010Y0122142D03*
X0245010Y0126517D03*
X0245010Y0132767D03*
X0246260Y0139017D03*
X0245635Y0144017D03*
X0235323Y0145267D03*
X0236260Y0152142D03*
X0225635Y0149017D03*
X0225635Y0145267D03*
X0225635Y0141517D03*
X0236260Y0137767D03*
X0214385Y0145267D03*
X0201260Y0137767D03*
X0192510Y0139017D03*
X0215635Y0155267D03*
X0239385Y0158392D03*
X0249698Y0161517D03*
X0270635Y0137767D03*
X0263760Y0117142D03*
X0250635Y0113392D03*
X0240635Y0115267D03*
X0225948Y0102142D03*
X0212198Y0102142D03*
X0208135Y0100892D03*
X0198760Y0098392D03*
X0193135Y0103392D03*
X0193135Y0109642D03*
X0181885Y0101517D03*
X0170635Y0103392D03*
X0165010Y0094017D03*
X0152510Y0097767D03*
X0145010Y0099329D03*
X0141260Y0099642D03*
X0138760Y0097767D03*
X0136260Y0099642D03*
X0133760Y0097767D03*
X0130010Y0097767D03*
X0125635Y0097767D03*
X0121260Y0099642D03*
X0116885Y0098392D03*
X0121260Y0105892D03*
X0125635Y0107767D03*
X0129385Y0107767D03*
X0126885Y0110892D03*
X0117510Y0112767D03*
X0113760Y0115267D03*
X0106260Y0115267D03*
X0096260Y0113392D03*
X0091885Y0117142D03*
X0097510Y0107142D03*
X0103135Y0105267D03*
X0100635Y0100892D03*
X0097198Y0095267D03*
X0099698Y0092767D03*
X0097510Y0089642D03*
X0093135Y0087142D03*
X0086260Y0076517D03*
X0093135Y0074642D03*
X0100010Y0071517D03*
X0096260Y0068392D03*
X0102510Y0065579D03*
X0089385Y0068392D03*
X0079385Y0069642D03*
X0072510Y0072142D03*
X0077510Y0074642D03*
X0072510Y0078392D03*
X0075010Y0080267D03*
X0077510Y0084642D03*
X0068135Y0081517D03*
X0062510Y0077767D03*
X0059385Y0078392D03*
X0056260Y0081517D03*
X0066885Y0087142D03*
X0063760Y0090267D03*
X0063448Y0094017D03*
X0045010Y0092767D03*
X0026885Y0089017D03*
X0038135Y0072142D03*
X0055936Y0065567D03*
X0060010Y0065892D03*
X0061260Y0062142D03*
X0070010Y0062142D03*
X0067510Y0068392D03*
X0062198Y0072142D03*
X0058135Y0070892D03*
X0080635Y0062767D03*
X0070635Y0054017D03*
X0071885Y0050892D03*
X0067510Y0048392D03*
X0064385Y0045892D03*
X0068135Y0043392D03*
X0060635Y0037767D03*
X0056885Y0032767D03*
X0054385Y0027767D03*
X0036885Y0037767D03*
X0050635Y0054017D03*
X0078135Y0044642D03*
X0078135Y0039642D03*
X0104385Y0052142D03*
X0107510Y0050892D03*
X0104385Y0055892D03*
X0112510Y0036517D03*
X0110635Y0024642D03*
X0121885Y0024017D03*
X0135010Y0029017D03*
X0141885Y0033392D03*
X0145635Y0033392D03*
X0156885Y0042767D03*
X0140948Y0050579D03*
X0141885Y0057142D03*
X0156260Y0053392D03*
X0176885Y0065267D03*
X0191260Y0065267D03*
X0200635Y0059017D03*
X0206260Y0056517D03*
X0216260Y0052454D03*
X0211260Y0046517D03*
X0204698Y0047142D03*
X0193448Y0044954D03*
X0187510Y0048079D03*
X0198135Y0038392D03*
X0193760Y0034642D03*
X0198760Y0030892D03*
X0200010Y0024017D03*
X0195010Y0024017D03*
X0183135Y0022142D03*
X0198760Y0014017D03*
X0203135Y0014017D03*
X0224385Y0025892D03*
X0225010Y0030892D03*
X0225010Y0034017D03*
X0224385Y0038392D03*
X0210010Y0039017D03*
X0210010Y0029642D03*
X0223760Y0046517D03*
X0223760Y0050267D03*
X0220635Y0060892D03*
X0231260Y0069017D03*
X0248135Y0067142D03*
X0252510Y0072142D03*
X0258760Y0064329D03*
X0265635Y0065892D03*
X0269385Y0065892D03*
X0267510Y0060892D03*
X0267510Y0057767D03*
X0267510Y0054642D03*
X0265635Y0049642D03*
X0269385Y0049642D03*
X0263135Y0044642D03*
X0255635Y0056204D03*
X0280010Y0058548D03*
X0280010Y0072142D03*
X0280635Y0077142D03*
X0263135Y0085267D03*
X0258760Y0090892D03*
X0251885Y0094017D03*
X0245010Y0080267D03*
X0225010Y0089017D03*
X0205635Y0084017D03*
X0192510Y0077142D03*
X0204073Y0071829D03*
X0176885Y0081517D03*
X0191260Y0089017D03*
X0154385Y0082767D03*
X0151885Y0075892D03*
X0155635Y0067142D03*
X0143760Y0092767D03*
X0131260Y0100892D03*
X0146260Y0107142D03*
X0152510Y0102767D03*
X0162823Y0112142D03*
X0151260Y0117767D03*
X0155635Y0121517D03*
X0173135Y0120267D03*
X0181885Y0118392D03*
X0186260Y0120892D03*
X0190635Y0117767D03*
X0218760Y0110267D03*
X0277510Y0105267D03*
X0150635Y0140267D03*
X0146885Y0140267D03*
X0148760Y0143392D03*
X0126885Y0153392D03*
X0121260Y0120892D03*
X0125635Y0116517D03*
X0129385Y0116517D03*
X0135010Y0117142D03*
X0138135Y0117142D03*
X0102510Y0018392D03*
X0102510Y0007142D03*
X0120010Y0006517D03*
X0141260Y0013392D03*
X0142510Y0016517D03*
X0073760Y0018392D03*
X0073760Y0008392D03*
X0245010Y0009642D03*
D24*
X0141885Y0057142D02*
X0137823Y0057142D01*
X0135948Y0059017D01*
X0135948Y0067767D01*
X0134073Y0069642D01*
X0123760Y0069642D01*
X0125635Y0097767D02*
X0125635Y0107767D01*
X0152510Y0097767D02*
X0155010Y0100267D01*
X0181885Y0100267D01*
X0196260Y0100267D01*
X0196885Y0100892D01*
X0202510Y0100892D01*
X0208135Y0100892D01*
X0173135Y0133392D02*
X0171885Y0132142D01*
X0161260Y0132142D01*
X0160010Y0133392D01*
X0124385Y0133392D01*
X0041510Y0072142D02*
X0041260Y0072142D01*
X0038135Y0072142D01*
D25*
X0041260Y0072142D02*
X0046885Y0072142D01*
X0047510Y0072142D02*
X0047510Y0076517D01*
X0048760Y0077767D01*
X0056260Y0077767D01*
X0059385Y0074642D01*
X0068760Y0074642D01*
X0071260Y0072142D01*
X0072510Y0072142D01*
X0073135Y0075892D02*
X0070635Y0075892D01*
X0068760Y0077767D01*
X0062510Y0077767D01*
X0059385Y0078392D02*
X0065010Y0084017D01*
X0068135Y0084017D01*
X0070010Y0085892D01*
X0070010Y0105267D01*
X0081885Y0117142D01*
X0091885Y0117142D01*
X0093135Y0114017D02*
X0096885Y0117767D01*
X0118135Y0117767D01*
X0119385Y0116517D01*
X0125635Y0116517D01*
X0123760Y0118392D02*
X0124385Y0119017D01*
X0126885Y0119017D01*
X0129385Y0116517D01*
X0123760Y0118392D02*
X0120010Y0118392D01*
X0118760Y0119642D01*
X0081260Y0119642D01*
X0063760Y0102142D01*
X0063760Y0095892D01*
X0063448Y0095579D01*
X0063448Y0094017D01*
X0060635Y0093392D02*
X0063760Y0090267D01*
X0058760Y0090267D02*
X0058760Y0109642D01*
X0065635Y0116517D01*
X0068135Y0118392D02*
X0066885Y0119642D01*
X0066885Y0121517D01*
X0072510Y0127142D01*
X0131260Y0127142D01*
X0138135Y0120267D01*
X0138135Y0117142D01*
X0138135Y0103392D01*
X0136260Y0101517D01*
X0136260Y0099642D01*
X0138760Y0100892D02*
X0138760Y0097767D01*
X0141260Y0099642D02*
X0143135Y0101517D01*
X0143135Y0124017D01*
X0136260Y0130892D01*
X0070010Y0130892D01*
X0068760Y0129642D01*
X0068135Y0126517D02*
X0069385Y0126517D01*
X0071885Y0129017D01*
X0133760Y0129017D01*
X0135010Y0127767D01*
X0140635Y0122142D01*
X0140635Y0102767D01*
X0138760Y0100892D01*
X0135010Y0103392D02*
X0135010Y0117142D01*
X0135010Y0120267D01*
X0130010Y0125267D01*
X0076885Y0125267D01*
X0073135Y0121517D01*
X0078760Y0123392D02*
X0128760Y0123392D01*
X0132510Y0119642D01*
X0132510Y0104017D01*
X0131260Y0102767D01*
X0131260Y0100892D01*
X0133760Y0102142D02*
X0135010Y0103392D01*
X0133760Y0102142D02*
X0133760Y0097767D01*
X0144385Y0095267D02*
X0148135Y0099017D01*
X0148135Y0104642D01*
X0151260Y0107767D01*
X0151260Y0117767D01*
X0161260Y0115267D02*
X0150010Y0104017D01*
X0150010Y0094017D01*
X0146260Y0090267D01*
X0104385Y0090267D01*
X0101260Y0087142D01*
X0093135Y0087142D01*
X0095793Y0092767D02*
X0094385Y0094174D01*
X0094385Y0111517D01*
X0096260Y0113392D01*
X0093135Y0114017D02*
X0081885Y0114017D01*
X0071885Y0104017D01*
X0071885Y0090267D01*
X0077510Y0084642D01*
X0076260Y0082767D02*
X0073760Y0082767D01*
X0072510Y0081517D01*
X0068135Y0081517D01*
X0072510Y0078392D02*
X0073135Y0077767D01*
X0078760Y0077767D01*
X0082510Y0074017D01*
X0088135Y0074017D01*
X0088760Y0074642D01*
X0093135Y0074642D01*
X0090635Y0076517D02*
X0086260Y0076517D01*
X0090635Y0076517D02*
X0091260Y0077142D01*
X0115635Y0077142D01*
X0118135Y0074642D01*
X0142510Y0074642D01*
X0145010Y0072142D01*
X0145010Y0055892D01*
X0153760Y0047142D01*
X0145635Y0039017D01*
X0145635Y0033392D01*
X0141885Y0033392D02*
X0141885Y0028392D01*
X0146885Y0023392D01*
X0179385Y0023392D01*
X0180635Y0022142D01*
X0183135Y0022142D01*
X0193135Y0017142D02*
X0146885Y0017142D01*
X0135010Y0029017D01*
X0128760Y0030267D02*
X0140948Y0042454D01*
X0140948Y0050579D01*
X0146885Y0057142D02*
X0155010Y0049017D01*
X0186573Y0049017D01*
X0187510Y0048079D01*
X0193448Y0044954D02*
X0195635Y0047142D01*
X0204698Y0047142D01*
X0208500Y0043544D02*
X0207098Y0042142D01*
X0183760Y0042142D01*
X0178760Y0047142D01*
X0153760Y0047142D01*
X0146885Y0057142D02*
X0146885Y0082767D01*
X0143135Y0086517D01*
X0110635Y0086517D01*
X0104385Y0080267D01*
X0075010Y0080267D01*
X0076885Y0082142D02*
X0076260Y0082767D01*
X0076885Y0082142D02*
X0103760Y0082142D01*
X0110010Y0088392D01*
X0144385Y0088392D01*
X0148760Y0084017D01*
X0148760Y0061517D01*
X0151260Y0059017D01*
X0200635Y0059017D01*
X0203760Y0060267D02*
X0203760Y0055267D01*
X0205635Y0053392D01*
X0211885Y0053392D01*
X0213760Y0051517D01*
X0213760Y0042142D01*
X0215635Y0040267D01*
X0220010Y0040267D01*
X0221885Y0038392D01*
X0221885Y0028392D01*
X0224385Y0025892D01*
X0203135Y0014017D02*
X0200635Y0011517D01*
X0197510Y0011517D01*
X0195635Y0013392D01*
X0141260Y0013392D01*
X0143760Y0015267D02*
X0197510Y0015267D01*
X0198760Y0014017D01*
X0193135Y0017142D02*
X0200010Y0024017D01*
X0195010Y0024017D02*
X0195010Y0029017D01*
X0193760Y0030267D01*
X0193760Y0034642D01*
X0207198Y0042142D02*
X0208500Y0043544D01*
X0211260Y0046517D01*
X0218760Y0045517D02*
X0218760Y0042767D01*
X0219385Y0042142D01*
X0230010Y0042142D01*
X0224385Y0038392D02*
X0221885Y0038392D01*
X0223760Y0046517D02*
X0235635Y0046517D01*
X0240010Y0042142D01*
X0250948Y0050204D02*
X0251010Y0050267D01*
X0257510Y0050267D01*
X0263135Y0044642D01*
X0266885Y0044642D02*
X0266885Y0031517D01*
X0245010Y0009642D01*
X0241260Y0005892D01*
X0135010Y0005892D01*
X0096260Y0044642D01*
X0078135Y0044642D01*
X0076260Y0047142D02*
X0075010Y0045892D01*
X0064385Y0045892D01*
X0061260Y0040267D02*
X0060635Y0039642D01*
X0060635Y0037767D01*
X0061260Y0040267D02*
X0061260Y0062142D01*
X0066260Y0062142D01*
X0076260Y0052142D01*
X0104385Y0052142D01*
X0105635Y0053392D01*
X0109385Y0053392D01*
X0115010Y0047767D01*
X0115010Y0042142D01*
X0117510Y0039642D01*
X0123760Y0039642D01*
X0123760Y0049642D02*
X0116260Y0049642D01*
X0110010Y0055892D01*
X0104385Y0055892D01*
X0080010Y0055892D01*
X0067510Y0068392D01*
X0058760Y0068392D01*
X0055936Y0065567D01*
X0055936Y0035567D01*
X0056885Y0034642D01*
X0056885Y0032767D01*
X0036885Y0037767D02*
X0036885Y0045267D01*
X0021885Y0060267D01*
X0021885Y0079017D01*
X0025635Y0084642D02*
X0021885Y0088392D01*
X0021885Y0098392D01*
X0026885Y0094017D02*
X0031885Y0089017D01*
X0051260Y0089017D01*
X0055010Y0092767D01*
X0055010Y0113392D01*
X0066260Y0124642D01*
X0068135Y0126517D01*
X0065010Y0128392D02*
X0063760Y0128392D01*
X0059385Y0124017D01*
X0030010Y0124017D01*
X0026885Y0120892D01*
X0026885Y0113392D01*
X0021885Y0108392D01*
X0026885Y0103392D02*
X0026885Y0094017D01*
X0026885Y0089017D02*
X0029385Y0086517D01*
X0051885Y0086517D01*
X0056885Y0091517D01*
X0056885Y0111517D01*
X0065010Y0119642D01*
X0066885Y0119642D01*
X0067510Y0114017D02*
X0069385Y0114017D01*
X0078760Y0123392D01*
X0080010Y0121517D02*
X0120635Y0121517D01*
X0121260Y0120892D01*
X0113760Y0115267D02*
X0113760Y0109017D01*
X0105635Y0100892D01*
X0100635Y0100892D01*
X0099385Y0107142D02*
X0103135Y0110892D01*
X0099385Y0107142D02*
X0097510Y0107142D01*
X0097198Y0095267D02*
X0144385Y0095267D01*
X0152510Y0102767D02*
X0158135Y0102767D01*
X0161885Y0106517D01*
X0215635Y0106517D01*
X0225010Y0097142D01*
X0233760Y0097142D01*
X0243135Y0087767D01*
X0242510Y0082767D01*
X0245010Y0080267D01*
X0250010Y0074017D02*
X0253135Y0077142D01*
X0253135Y0085267D01*
X0258760Y0090892D01*
X0250010Y0074017D02*
X0250010Y0069017D01*
X0250948Y0068079D01*
X0250948Y0062204D01*
X0258760Y0064329D02*
X0258760Y0052767D01*
X0266885Y0044642D01*
X0255635Y0056204D02*
X0250948Y0056204D01*
X0255635Y0056204D02*
X0255635Y0069017D01*
X0252510Y0072142D01*
X0220635Y0060892D02*
X0220635Y0059392D01*
X0218760Y0057517D01*
X0218760Y0057767D02*
X0218760Y0051517D01*
X0216260Y0052454D01*
X0206260Y0056517D02*
X0206260Y0065892D01*
X0200635Y0071517D01*
X0200635Y0096517D01*
X0198760Y0098392D01*
X0202510Y0100892D02*
X0202510Y0073392D01*
X0204073Y0071829D01*
X0201260Y0062767D02*
X0203760Y0060267D01*
X0201260Y0062767D02*
X0153760Y0062767D01*
X0151885Y0064642D01*
X0151885Y0075892D01*
X0116885Y0098392D02*
X0116885Y0105267D01*
X0122510Y0110892D01*
X0126885Y0110892D01*
X0099698Y0092767D02*
X0095793Y0092767D01*
X0077510Y0074642D02*
X0080010Y0072142D01*
X0090010Y0072142D01*
X0091885Y0070267D01*
X0091885Y0062767D01*
X0085635Y0062767D01*
X0085885Y0062767D02*
X0085885Y0066767D01*
X0087510Y0068392D01*
X0089385Y0068392D01*
X0096260Y0068392D02*
X0097885Y0066767D01*
X0097885Y0062767D01*
X0079385Y0069642D02*
X0073135Y0075892D01*
X0058135Y0070892D02*
X0056885Y0072142D01*
X0053510Y0072142D01*
X0053135Y0084642D02*
X0058760Y0090267D01*
X0060635Y0093392D02*
X0060635Y0102142D01*
X0080010Y0121517D01*
X0077510Y0133392D02*
X0077510Y0139017D01*
X0083135Y0144642D01*
X0113760Y0144642D01*
X0116885Y0141517D01*
X0129385Y0141517D01*
X0133135Y0137767D01*
X0169385Y0137767D01*
X0171885Y0142767D02*
X0181885Y0132767D01*
X0181885Y0118392D01*
X0190635Y0117767D02*
X0192510Y0117767D01*
X0193135Y0117142D01*
X0238760Y0117142D01*
X0245010Y0123392D01*
X0245010Y0126517D01*
X0235010Y0122142D02*
X0211260Y0122142D01*
X0206260Y0127142D01*
X0209385Y0129642D02*
X0211885Y0132142D01*
X0211885Y0154017D01*
X0213135Y0155267D01*
X0215635Y0155267D01*
X0210010Y0161517D02*
X0207510Y0159017D01*
X0207510Y0140267D01*
X0205010Y0137767D01*
X0201260Y0137767D01*
X0201260Y0129642D02*
X0209385Y0129642D01*
X0236260Y0137767D02*
X0238135Y0139642D01*
X0238135Y0150267D01*
X0236260Y0152142D01*
X0249698Y0161517D02*
X0210010Y0161517D01*
X0192510Y0156517D02*
X0192510Y0149642D01*
X0191260Y0148392D01*
X0147510Y0148392D01*
X0146260Y0147142D01*
X0146260Y0140892D01*
X0146885Y0140267D01*
X0148760Y0143392D02*
X0151885Y0143392D01*
X0152510Y0142767D01*
X0171885Y0142767D01*
X0124385Y0133392D02*
X0122510Y0135267D01*
X0122510Y0139017D01*
X0122510Y0144017D02*
X0119385Y0147142D01*
X0059385Y0147142D01*
X0045010Y0132767D01*
X0038135Y0129017D02*
X0057510Y0129017D01*
X0062510Y0134017D01*
X0062510Y0140892D01*
X0031885Y0108392D02*
X0026885Y0103392D01*
X0025635Y0084642D02*
X0053135Y0084642D01*
X0071885Y0050892D02*
X0073135Y0049642D01*
X0106260Y0049642D01*
X0107510Y0050892D01*
X0096885Y0047142D02*
X0113760Y0030267D01*
X0128760Y0030267D01*
X0142510Y0016517D02*
X0143760Y0015267D01*
X0096885Y0047142D02*
X0076260Y0047142D01*
X0181885Y0100267D02*
X0181885Y0101517D01*
X0161260Y0115267D02*
X0240635Y0115267D01*
M02*
