G75*
%MOIN*%
%OFA0B0*%
%FSLAX25Y25*%
%IPPOS*%
%LPD*%
%AMOC8*
5,1,8,0,0,1.08239X$1,22.5*
%
%ADD10C,0.00000*%
%ADD11R,0.04600X0.06300*%
%ADD12R,0.06300X0.04600*%
D10*
X0032510Y0001517D02*
X0285010Y0001517D01*
X0285433Y0001522D01*
X0285855Y0001537D01*
X0286278Y0001563D01*
X0286699Y0001599D01*
X0287119Y0001645D01*
X0287539Y0001701D01*
X0287956Y0001767D01*
X0288372Y0001843D01*
X0288786Y0001929D01*
X0289198Y0002026D01*
X0289607Y0002132D01*
X0290014Y0002248D01*
X0290418Y0002374D01*
X0290818Y0002509D01*
X0291216Y0002654D01*
X0291609Y0002809D01*
X0291999Y0002973D01*
X0292385Y0003147D01*
X0292766Y0003330D01*
X0293143Y0003522D01*
X0293515Y0003723D01*
X0293882Y0003933D01*
X0294244Y0004151D01*
X0294600Y0004379D01*
X0294951Y0004615D01*
X0295296Y0004859D01*
X0295635Y0005112D01*
X0295968Y0005373D01*
X0296295Y0005641D01*
X0296615Y0005918D01*
X0296928Y0006202D01*
X0297234Y0006494D01*
X0297533Y0006793D01*
X0297825Y0007099D01*
X0298109Y0007412D01*
X0298386Y0007732D01*
X0298654Y0008059D01*
X0298915Y0008392D01*
X0299168Y0008731D01*
X0299412Y0009076D01*
X0299648Y0009427D01*
X0299876Y0009783D01*
X0300094Y0010145D01*
X0300304Y0010512D01*
X0300505Y0010884D01*
X0300697Y0011261D01*
X0300880Y0011642D01*
X0301054Y0012028D01*
X0301218Y0012418D01*
X0301373Y0012811D01*
X0301518Y0013209D01*
X0301653Y0013609D01*
X0301779Y0014013D01*
X0301895Y0014420D01*
X0302001Y0014829D01*
X0302098Y0015241D01*
X0302184Y0015655D01*
X0302260Y0016071D01*
X0302326Y0016488D01*
X0302382Y0016908D01*
X0302428Y0017328D01*
X0302464Y0017749D01*
X0302490Y0018172D01*
X0302505Y0018594D01*
X0302510Y0019017D01*
X0302461Y0019017D02*
X0302510Y0030267D01*
X0295010Y0037767D01*
X0295010Y0129017D01*
X0302461Y0136467D01*
X0302461Y0149066D01*
X0302510Y0149017D02*
X0302535Y0149410D01*
X0302551Y0149804D01*
X0302558Y0150197D01*
X0302555Y0150591D01*
X0302542Y0150985D01*
X0302520Y0151378D01*
X0302488Y0151771D01*
X0302447Y0152162D01*
X0302397Y0152553D01*
X0302337Y0152942D01*
X0302268Y0153330D01*
X0302189Y0153716D01*
X0302101Y0154100D01*
X0302004Y0154481D01*
X0301897Y0154861D01*
X0301782Y0155237D01*
X0301657Y0155611D01*
X0301523Y0155981D01*
X0301381Y0156348D01*
X0301230Y0156712D01*
X0301069Y0157072D01*
X0300901Y0157428D01*
X0300723Y0157779D01*
X0300538Y0158127D01*
X0300344Y0158469D01*
X0300141Y0158807D01*
X0299931Y0159140D01*
X0299712Y0159468D01*
X0299486Y0159790D01*
X0299252Y0160107D01*
X0299011Y0160418D01*
X0298762Y0160723D01*
X0298505Y0161022D01*
X0298242Y0161315D01*
X0297971Y0161601D01*
X0297694Y0161881D01*
X0297410Y0162154D01*
X0297120Y0162420D01*
X0296823Y0162679D01*
X0296520Y0162930D01*
X0296211Y0163175D01*
X0295896Y0163411D01*
X0295576Y0163640D01*
X0295250Y0163861D01*
X0294919Y0164075D01*
X0294582Y0164280D01*
X0294241Y0164477D01*
X0293896Y0164666D01*
X0293546Y0164846D01*
X0293191Y0165018D01*
X0292833Y0165181D01*
X0292470Y0165335D01*
X0292104Y0165481D01*
X0291735Y0165618D01*
X0291363Y0165746D01*
X0290987Y0165864D01*
X0290609Y0165974D01*
X0290228Y0166075D01*
X0289845Y0166166D01*
X0289460Y0166248D01*
X0289073Y0166320D01*
X0288684Y0166384D01*
X0288294Y0166438D01*
X0287902Y0166482D01*
X0287510Y0166517D01*
X0032510Y0166517D01*
X0032115Y0166543D01*
X0031720Y0166559D01*
X0031324Y0166565D01*
X0030928Y0166562D01*
X0030532Y0166549D01*
X0030137Y0166526D01*
X0029743Y0166494D01*
X0029349Y0166453D01*
X0028957Y0166401D01*
X0028565Y0166341D01*
X0028176Y0166271D01*
X0027788Y0166191D01*
X0027403Y0166102D01*
X0027019Y0166004D01*
X0026638Y0165896D01*
X0026260Y0165779D01*
X0025885Y0165653D01*
X0025513Y0165518D01*
X0025144Y0165374D01*
X0024779Y0165221D01*
X0024418Y0165059D01*
X0024061Y0164889D01*
X0023708Y0164710D01*
X0023359Y0164522D01*
X0023015Y0164326D01*
X0022676Y0164121D01*
X0022342Y0163909D01*
X0022014Y0163688D01*
X0021691Y0163460D01*
X0021373Y0163224D01*
X0021061Y0162980D01*
X0020756Y0162728D01*
X0020456Y0162469D01*
X0020163Y0162204D01*
X0019876Y0161931D01*
X0019596Y0161651D01*
X0019323Y0161364D01*
X0019058Y0161071D01*
X0018799Y0160771D01*
X0018547Y0160466D01*
X0018303Y0160154D01*
X0018067Y0159836D01*
X0017839Y0159513D01*
X0017618Y0159185D01*
X0017406Y0158851D01*
X0017201Y0158512D01*
X0017005Y0158168D01*
X0016817Y0157819D01*
X0016638Y0157466D01*
X0016468Y0157109D01*
X0016306Y0156748D01*
X0016153Y0156383D01*
X0016009Y0156014D01*
X0015874Y0155642D01*
X0015748Y0155267D01*
X0015631Y0154889D01*
X0015523Y0154508D01*
X0015425Y0154124D01*
X0015336Y0153739D01*
X0015256Y0153351D01*
X0015186Y0152962D01*
X0015126Y0152570D01*
X0015074Y0152178D01*
X0015033Y0151784D01*
X0015001Y0151390D01*
X0014978Y0150995D01*
X0014965Y0150599D01*
X0014962Y0150203D01*
X0014968Y0149807D01*
X0014984Y0149412D01*
X0015010Y0149017D01*
X0015010Y0019017D01*
X0014984Y0018622D01*
X0014968Y0018227D01*
X0014962Y0017831D01*
X0014965Y0017435D01*
X0014978Y0017039D01*
X0015001Y0016644D01*
X0015033Y0016250D01*
X0015074Y0015856D01*
X0015126Y0015464D01*
X0015186Y0015072D01*
X0015256Y0014683D01*
X0015336Y0014295D01*
X0015425Y0013910D01*
X0015523Y0013526D01*
X0015631Y0013145D01*
X0015748Y0012767D01*
X0015874Y0012392D01*
X0016009Y0012020D01*
X0016153Y0011651D01*
X0016306Y0011286D01*
X0016468Y0010925D01*
X0016638Y0010568D01*
X0016817Y0010215D01*
X0017005Y0009866D01*
X0017201Y0009522D01*
X0017406Y0009183D01*
X0017618Y0008849D01*
X0017839Y0008521D01*
X0018067Y0008198D01*
X0018303Y0007880D01*
X0018547Y0007568D01*
X0018799Y0007263D01*
X0019058Y0006963D01*
X0019323Y0006670D01*
X0019596Y0006383D01*
X0019876Y0006103D01*
X0020163Y0005830D01*
X0020456Y0005565D01*
X0020756Y0005306D01*
X0021061Y0005054D01*
X0021373Y0004810D01*
X0021691Y0004574D01*
X0022014Y0004346D01*
X0022342Y0004125D01*
X0022676Y0003913D01*
X0023015Y0003708D01*
X0023359Y0003512D01*
X0023708Y0003324D01*
X0024061Y0003145D01*
X0024418Y0002975D01*
X0024779Y0002813D01*
X0025144Y0002660D01*
X0025513Y0002516D01*
X0025885Y0002381D01*
X0026260Y0002255D01*
X0026638Y0002138D01*
X0027019Y0002030D01*
X0027403Y0001932D01*
X0027788Y0001843D01*
X0028176Y0001763D01*
X0028565Y0001693D01*
X0028957Y0001633D01*
X0029349Y0001581D01*
X0029743Y0001540D01*
X0030137Y0001508D01*
X0030532Y0001485D01*
X0030928Y0001472D01*
X0031324Y0001469D01*
X0031720Y0001475D01*
X0032115Y0001491D01*
X0032510Y0001517D01*
X0109129Y0007142D02*
X0109131Y0007247D01*
X0109137Y0007352D01*
X0109147Y0007456D01*
X0109161Y0007560D01*
X0109179Y0007664D01*
X0109201Y0007766D01*
X0109226Y0007868D01*
X0109256Y0007969D01*
X0109289Y0008068D01*
X0109326Y0008166D01*
X0109367Y0008263D01*
X0109412Y0008358D01*
X0109460Y0008451D01*
X0109511Y0008543D01*
X0109567Y0008632D01*
X0109625Y0008719D01*
X0109687Y0008804D01*
X0109751Y0008887D01*
X0109819Y0008967D01*
X0109890Y0009044D01*
X0109964Y0009118D01*
X0110041Y0009190D01*
X0110120Y0009259D01*
X0110202Y0009324D01*
X0110286Y0009387D01*
X0110373Y0009446D01*
X0110462Y0009502D01*
X0110553Y0009555D01*
X0110646Y0009604D01*
X0110740Y0009649D01*
X0110836Y0009691D01*
X0110934Y0009729D01*
X0111033Y0009763D01*
X0111134Y0009794D01*
X0111235Y0009820D01*
X0111338Y0009843D01*
X0111441Y0009862D01*
X0111545Y0009877D01*
X0111649Y0009888D01*
X0111754Y0009895D01*
X0111859Y0009898D01*
X0111964Y0009897D01*
X0112069Y0009892D01*
X0112173Y0009883D01*
X0112277Y0009870D01*
X0112381Y0009853D01*
X0112484Y0009832D01*
X0112586Y0009807D01*
X0112687Y0009779D01*
X0112786Y0009746D01*
X0112885Y0009710D01*
X0112982Y0009670D01*
X0113077Y0009627D01*
X0113171Y0009579D01*
X0113263Y0009529D01*
X0113353Y0009475D01*
X0113441Y0009417D01*
X0113526Y0009356D01*
X0113609Y0009292D01*
X0113690Y0009225D01*
X0113768Y0009155D01*
X0113843Y0009081D01*
X0113915Y0009006D01*
X0113985Y0008927D01*
X0114051Y0008846D01*
X0114115Y0008762D01*
X0114175Y0008676D01*
X0114231Y0008588D01*
X0114285Y0008497D01*
X0114335Y0008405D01*
X0114381Y0008311D01*
X0114424Y0008215D01*
X0114463Y0008117D01*
X0114498Y0008019D01*
X0114529Y0007918D01*
X0114557Y0007817D01*
X0114581Y0007715D01*
X0114601Y0007612D01*
X0114617Y0007508D01*
X0114629Y0007404D01*
X0114637Y0007299D01*
X0114641Y0007194D01*
X0114641Y0007090D01*
X0114637Y0006985D01*
X0114629Y0006880D01*
X0114617Y0006776D01*
X0114601Y0006672D01*
X0114581Y0006569D01*
X0114557Y0006467D01*
X0114529Y0006366D01*
X0114498Y0006265D01*
X0114463Y0006167D01*
X0114424Y0006069D01*
X0114381Y0005973D01*
X0114335Y0005879D01*
X0114285Y0005787D01*
X0114231Y0005696D01*
X0114175Y0005608D01*
X0114115Y0005522D01*
X0114051Y0005438D01*
X0113985Y0005357D01*
X0113915Y0005278D01*
X0113843Y0005203D01*
X0113768Y0005129D01*
X0113690Y0005059D01*
X0113609Y0004992D01*
X0113526Y0004928D01*
X0113441Y0004867D01*
X0113353Y0004809D01*
X0113263Y0004755D01*
X0113171Y0004705D01*
X0113077Y0004657D01*
X0112982Y0004614D01*
X0112885Y0004574D01*
X0112786Y0004538D01*
X0112687Y0004505D01*
X0112586Y0004477D01*
X0112484Y0004452D01*
X0112381Y0004431D01*
X0112277Y0004414D01*
X0112173Y0004401D01*
X0112069Y0004392D01*
X0111964Y0004387D01*
X0111859Y0004386D01*
X0111754Y0004389D01*
X0111649Y0004396D01*
X0111545Y0004407D01*
X0111441Y0004422D01*
X0111338Y0004441D01*
X0111235Y0004464D01*
X0111134Y0004490D01*
X0111033Y0004521D01*
X0110934Y0004555D01*
X0110836Y0004593D01*
X0110740Y0004635D01*
X0110646Y0004680D01*
X0110553Y0004729D01*
X0110462Y0004782D01*
X0110373Y0004838D01*
X0110286Y0004897D01*
X0110202Y0004960D01*
X0110120Y0005025D01*
X0110041Y0005094D01*
X0109964Y0005166D01*
X0109890Y0005240D01*
X0109819Y0005317D01*
X0109751Y0005397D01*
X0109687Y0005480D01*
X0109625Y0005565D01*
X0109567Y0005652D01*
X0109511Y0005741D01*
X0109460Y0005833D01*
X0109412Y0005926D01*
X0109367Y0006021D01*
X0109326Y0006118D01*
X0109289Y0006216D01*
X0109256Y0006315D01*
X0109226Y0006416D01*
X0109201Y0006518D01*
X0109179Y0006620D01*
X0109161Y0006724D01*
X0109147Y0006828D01*
X0109137Y0006932D01*
X0109131Y0007037D01*
X0109129Y0007142D01*
X0109129Y0018392D02*
X0109131Y0018497D01*
X0109137Y0018602D01*
X0109147Y0018706D01*
X0109161Y0018810D01*
X0109179Y0018914D01*
X0109201Y0019016D01*
X0109226Y0019118D01*
X0109256Y0019219D01*
X0109289Y0019318D01*
X0109326Y0019416D01*
X0109367Y0019513D01*
X0109412Y0019608D01*
X0109460Y0019701D01*
X0109511Y0019793D01*
X0109567Y0019882D01*
X0109625Y0019969D01*
X0109687Y0020054D01*
X0109751Y0020137D01*
X0109819Y0020217D01*
X0109890Y0020294D01*
X0109964Y0020368D01*
X0110041Y0020440D01*
X0110120Y0020509D01*
X0110202Y0020574D01*
X0110286Y0020637D01*
X0110373Y0020696D01*
X0110462Y0020752D01*
X0110553Y0020805D01*
X0110646Y0020854D01*
X0110740Y0020899D01*
X0110836Y0020941D01*
X0110934Y0020979D01*
X0111033Y0021013D01*
X0111134Y0021044D01*
X0111235Y0021070D01*
X0111338Y0021093D01*
X0111441Y0021112D01*
X0111545Y0021127D01*
X0111649Y0021138D01*
X0111754Y0021145D01*
X0111859Y0021148D01*
X0111964Y0021147D01*
X0112069Y0021142D01*
X0112173Y0021133D01*
X0112277Y0021120D01*
X0112381Y0021103D01*
X0112484Y0021082D01*
X0112586Y0021057D01*
X0112687Y0021029D01*
X0112786Y0020996D01*
X0112885Y0020960D01*
X0112982Y0020920D01*
X0113077Y0020877D01*
X0113171Y0020829D01*
X0113263Y0020779D01*
X0113353Y0020725D01*
X0113441Y0020667D01*
X0113526Y0020606D01*
X0113609Y0020542D01*
X0113690Y0020475D01*
X0113768Y0020405D01*
X0113843Y0020331D01*
X0113915Y0020256D01*
X0113985Y0020177D01*
X0114051Y0020096D01*
X0114115Y0020012D01*
X0114175Y0019926D01*
X0114231Y0019838D01*
X0114285Y0019747D01*
X0114335Y0019655D01*
X0114381Y0019561D01*
X0114424Y0019465D01*
X0114463Y0019367D01*
X0114498Y0019269D01*
X0114529Y0019168D01*
X0114557Y0019067D01*
X0114581Y0018965D01*
X0114601Y0018862D01*
X0114617Y0018758D01*
X0114629Y0018654D01*
X0114637Y0018549D01*
X0114641Y0018444D01*
X0114641Y0018340D01*
X0114637Y0018235D01*
X0114629Y0018130D01*
X0114617Y0018026D01*
X0114601Y0017922D01*
X0114581Y0017819D01*
X0114557Y0017717D01*
X0114529Y0017616D01*
X0114498Y0017515D01*
X0114463Y0017417D01*
X0114424Y0017319D01*
X0114381Y0017223D01*
X0114335Y0017129D01*
X0114285Y0017037D01*
X0114231Y0016946D01*
X0114175Y0016858D01*
X0114115Y0016772D01*
X0114051Y0016688D01*
X0113985Y0016607D01*
X0113915Y0016528D01*
X0113843Y0016453D01*
X0113768Y0016379D01*
X0113690Y0016309D01*
X0113609Y0016242D01*
X0113526Y0016178D01*
X0113441Y0016117D01*
X0113353Y0016059D01*
X0113263Y0016005D01*
X0113171Y0015955D01*
X0113077Y0015907D01*
X0112982Y0015864D01*
X0112885Y0015824D01*
X0112786Y0015788D01*
X0112687Y0015755D01*
X0112586Y0015727D01*
X0112484Y0015702D01*
X0112381Y0015681D01*
X0112277Y0015664D01*
X0112173Y0015651D01*
X0112069Y0015642D01*
X0111964Y0015637D01*
X0111859Y0015636D01*
X0111754Y0015639D01*
X0111649Y0015646D01*
X0111545Y0015657D01*
X0111441Y0015672D01*
X0111338Y0015691D01*
X0111235Y0015714D01*
X0111134Y0015740D01*
X0111033Y0015771D01*
X0110934Y0015805D01*
X0110836Y0015843D01*
X0110740Y0015885D01*
X0110646Y0015930D01*
X0110553Y0015979D01*
X0110462Y0016032D01*
X0110373Y0016088D01*
X0110286Y0016147D01*
X0110202Y0016210D01*
X0110120Y0016275D01*
X0110041Y0016344D01*
X0109964Y0016416D01*
X0109890Y0016490D01*
X0109819Y0016567D01*
X0109751Y0016647D01*
X0109687Y0016730D01*
X0109625Y0016815D01*
X0109567Y0016902D01*
X0109511Y0016991D01*
X0109460Y0017083D01*
X0109412Y0017176D01*
X0109367Y0017271D01*
X0109326Y0017368D01*
X0109289Y0017466D01*
X0109256Y0017565D01*
X0109226Y0017666D01*
X0109201Y0017768D01*
X0109179Y0017870D01*
X0109161Y0017974D01*
X0109147Y0018078D01*
X0109137Y0018182D01*
X0109131Y0018287D01*
X0109129Y0018392D01*
D11*
X0097885Y0062767D03*
X0091885Y0062767D03*
X0085885Y0062767D03*
X0053510Y0072142D03*
X0047510Y0072142D03*
X0041510Y0072142D03*
D12*
X0218760Y0057517D03*
X0218760Y0051517D03*
X0218760Y0045517D03*
X0250948Y0050204D03*
X0250948Y0056204D03*
X0250948Y0062204D03*
M02*
