G75*
%MOIN*%
%OFA0B0*%
%FSLAX25Y25*%
%IPPOS*%
%LPD*%
%AMOC8*
5,1,8,0,0,1.08239X$1,22.5*
%
%ADD10C,0.00000*%
%ADD11C,0.00300*%
%ADD12C,0.00700*%
%ADD13C,0.00600*%
%ADD14C,0.00500*%
%ADD15C,0.00400*%
%ADD16R,0.04000X0.06000*%
%ADD17R,0.06000X0.04000*%
D10*
X0032510Y0001517D02*
X0285010Y0001517D01*
X0285433Y0001522D01*
X0285855Y0001537D01*
X0286278Y0001563D01*
X0286699Y0001599D01*
X0287119Y0001645D01*
X0287539Y0001701D01*
X0287956Y0001767D01*
X0288372Y0001843D01*
X0288786Y0001929D01*
X0289198Y0002026D01*
X0289607Y0002132D01*
X0290014Y0002248D01*
X0290418Y0002374D01*
X0290818Y0002509D01*
X0291216Y0002654D01*
X0291609Y0002809D01*
X0291999Y0002973D01*
X0292385Y0003147D01*
X0292766Y0003330D01*
X0293143Y0003522D01*
X0293515Y0003723D01*
X0293882Y0003933D01*
X0294244Y0004151D01*
X0294600Y0004379D01*
X0294951Y0004615D01*
X0295296Y0004859D01*
X0295635Y0005112D01*
X0295968Y0005373D01*
X0296295Y0005641D01*
X0296615Y0005918D01*
X0296928Y0006202D01*
X0297234Y0006494D01*
X0297533Y0006793D01*
X0297825Y0007099D01*
X0298109Y0007412D01*
X0298386Y0007732D01*
X0298654Y0008059D01*
X0298915Y0008392D01*
X0299168Y0008731D01*
X0299412Y0009076D01*
X0299648Y0009427D01*
X0299876Y0009783D01*
X0300094Y0010145D01*
X0300304Y0010512D01*
X0300505Y0010884D01*
X0300697Y0011261D01*
X0300880Y0011642D01*
X0301054Y0012028D01*
X0301218Y0012418D01*
X0301373Y0012811D01*
X0301518Y0013209D01*
X0301653Y0013609D01*
X0301779Y0014013D01*
X0301895Y0014420D01*
X0302001Y0014829D01*
X0302098Y0015241D01*
X0302184Y0015655D01*
X0302260Y0016071D01*
X0302326Y0016488D01*
X0302382Y0016908D01*
X0302428Y0017328D01*
X0302464Y0017749D01*
X0302490Y0018172D01*
X0302505Y0018594D01*
X0302510Y0019017D01*
X0302461Y0019017D02*
X0302510Y0030267D01*
X0295010Y0037767D01*
X0295010Y0129017D01*
X0302461Y0136467D01*
X0302461Y0149066D01*
X0302510Y0149017D02*
X0302535Y0149410D01*
X0302551Y0149804D01*
X0302558Y0150197D01*
X0302555Y0150591D01*
X0302542Y0150985D01*
X0302520Y0151378D01*
X0302488Y0151771D01*
X0302447Y0152162D01*
X0302397Y0152553D01*
X0302337Y0152942D01*
X0302268Y0153330D01*
X0302189Y0153716D01*
X0302101Y0154100D01*
X0302004Y0154481D01*
X0301897Y0154861D01*
X0301782Y0155237D01*
X0301657Y0155611D01*
X0301523Y0155981D01*
X0301381Y0156348D01*
X0301230Y0156712D01*
X0301069Y0157072D01*
X0300901Y0157428D01*
X0300723Y0157779D01*
X0300538Y0158127D01*
X0300344Y0158469D01*
X0300141Y0158807D01*
X0299931Y0159140D01*
X0299712Y0159468D01*
X0299486Y0159790D01*
X0299252Y0160107D01*
X0299011Y0160418D01*
X0298762Y0160723D01*
X0298505Y0161022D01*
X0298242Y0161315D01*
X0297971Y0161601D01*
X0297694Y0161881D01*
X0297410Y0162154D01*
X0297120Y0162420D01*
X0296823Y0162679D01*
X0296520Y0162930D01*
X0296211Y0163175D01*
X0295896Y0163411D01*
X0295576Y0163640D01*
X0295250Y0163861D01*
X0294919Y0164075D01*
X0294582Y0164280D01*
X0294241Y0164477D01*
X0293896Y0164666D01*
X0293546Y0164846D01*
X0293191Y0165018D01*
X0292833Y0165181D01*
X0292470Y0165335D01*
X0292104Y0165481D01*
X0291735Y0165618D01*
X0291363Y0165746D01*
X0290987Y0165864D01*
X0290609Y0165974D01*
X0290228Y0166075D01*
X0289845Y0166166D01*
X0289460Y0166248D01*
X0289073Y0166320D01*
X0288684Y0166384D01*
X0288294Y0166438D01*
X0287902Y0166482D01*
X0287510Y0166517D01*
X0032510Y0166517D01*
X0032115Y0166543D01*
X0031720Y0166559D01*
X0031324Y0166565D01*
X0030928Y0166562D01*
X0030532Y0166549D01*
X0030137Y0166526D01*
X0029743Y0166494D01*
X0029349Y0166453D01*
X0028957Y0166401D01*
X0028565Y0166341D01*
X0028176Y0166271D01*
X0027788Y0166191D01*
X0027403Y0166102D01*
X0027019Y0166004D01*
X0026638Y0165896D01*
X0026260Y0165779D01*
X0025885Y0165653D01*
X0025513Y0165518D01*
X0025144Y0165374D01*
X0024779Y0165221D01*
X0024418Y0165059D01*
X0024061Y0164889D01*
X0023708Y0164710D01*
X0023359Y0164522D01*
X0023015Y0164326D01*
X0022676Y0164121D01*
X0022342Y0163909D01*
X0022014Y0163688D01*
X0021691Y0163460D01*
X0021373Y0163224D01*
X0021061Y0162980D01*
X0020756Y0162728D01*
X0020456Y0162469D01*
X0020163Y0162204D01*
X0019876Y0161931D01*
X0019596Y0161651D01*
X0019323Y0161364D01*
X0019058Y0161071D01*
X0018799Y0160771D01*
X0018547Y0160466D01*
X0018303Y0160154D01*
X0018067Y0159836D01*
X0017839Y0159513D01*
X0017618Y0159185D01*
X0017406Y0158851D01*
X0017201Y0158512D01*
X0017005Y0158168D01*
X0016817Y0157819D01*
X0016638Y0157466D01*
X0016468Y0157109D01*
X0016306Y0156748D01*
X0016153Y0156383D01*
X0016009Y0156014D01*
X0015874Y0155642D01*
X0015748Y0155267D01*
X0015631Y0154889D01*
X0015523Y0154508D01*
X0015425Y0154124D01*
X0015336Y0153739D01*
X0015256Y0153351D01*
X0015186Y0152962D01*
X0015126Y0152570D01*
X0015074Y0152178D01*
X0015033Y0151784D01*
X0015001Y0151390D01*
X0014978Y0150995D01*
X0014965Y0150599D01*
X0014962Y0150203D01*
X0014968Y0149807D01*
X0014984Y0149412D01*
X0015010Y0149017D01*
X0015010Y0019017D01*
X0014984Y0018622D01*
X0014968Y0018227D01*
X0014962Y0017831D01*
X0014965Y0017435D01*
X0014978Y0017039D01*
X0015001Y0016644D01*
X0015033Y0016250D01*
X0015074Y0015856D01*
X0015126Y0015464D01*
X0015186Y0015072D01*
X0015256Y0014683D01*
X0015336Y0014295D01*
X0015425Y0013910D01*
X0015523Y0013526D01*
X0015631Y0013145D01*
X0015748Y0012767D01*
X0015874Y0012392D01*
X0016009Y0012020D01*
X0016153Y0011651D01*
X0016306Y0011286D01*
X0016468Y0010925D01*
X0016638Y0010568D01*
X0016817Y0010215D01*
X0017005Y0009866D01*
X0017201Y0009522D01*
X0017406Y0009183D01*
X0017618Y0008849D01*
X0017839Y0008521D01*
X0018067Y0008198D01*
X0018303Y0007880D01*
X0018547Y0007568D01*
X0018799Y0007263D01*
X0019058Y0006963D01*
X0019323Y0006670D01*
X0019596Y0006383D01*
X0019876Y0006103D01*
X0020163Y0005830D01*
X0020456Y0005565D01*
X0020756Y0005306D01*
X0021061Y0005054D01*
X0021373Y0004810D01*
X0021691Y0004574D01*
X0022014Y0004346D01*
X0022342Y0004125D01*
X0022676Y0003913D01*
X0023015Y0003708D01*
X0023359Y0003512D01*
X0023708Y0003324D01*
X0024061Y0003145D01*
X0024418Y0002975D01*
X0024779Y0002813D01*
X0025144Y0002660D01*
X0025513Y0002516D01*
X0025885Y0002381D01*
X0026260Y0002255D01*
X0026638Y0002138D01*
X0027019Y0002030D01*
X0027403Y0001932D01*
X0027788Y0001843D01*
X0028176Y0001763D01*
X0028565Y0001693D01*
X0028957Y0001633D01*
X0029349Y0001581D01*
X0029743Y0001540D01*
X0030137Y0001508D01*
X0030532Y0001485D01*
X0030928Y0001472D01*
X0031324Y0001469D01*
X0031720Y0001475D01*
X0032115Y0001491D01*
X0032510Y0001517D01*
X0109129Y0007142D02*
X0109131Y0007247D01*
X0109137Y0007352D01*
X0109147Y0007456D01*
X0109161Y0007560D01*
X0109179Y0007664D01*
X0109201Y0007766D01*
X0109226Y0007868D01*
X0109256Y0007969D01*
X0109289Y0008068D01*
X0109326Y0008166D01*
X0109367Y0008263D01*
X0109412Y0008358D01*
X0109460Y0008451D01*
X0109511Y0008543D01*
X0109567Y0008632D01*
X0109625Y0008719D01*
X0109687Y0008804D01*
X0109751Y0008887D01*
X0109819Y0008967D01*
X0109890Y0009044D01*
X0109964Y0009118D01*
X0110041Y0009190D01*
X0110120Y0009259D01*
X0110202Y0009324D01*
X0110286Y0009387D01*
X0110373Y0009446D01*
X0110462Y0009502D01*
X0110553Y0009555D01*
X0110646Y0009604D01*
X0110740Y0009649D01*
X0110836Y0009691D01*
X0110934Y0009729D01*
X0111033Y0009763D01*
X0111134Y0009794D01*
X0111235Y0009820D01*
X0111338Y0009843D01*
X0111441Y0009862D01*
X0111545Y0009877D01*
X0111649Y0009888D01*
X0111754Y0009895D01*
X0111859Y0009898D01*
X0111964Y0009897D01*
X0112069Y0009892D01*
X0112173Y0009883D01*
X0112277Y0009870D01*
X0112381Y0009853D01*
X0112484Y0009832D01*
X0112586Y0009807D01*
X0112687Y0009779D01*
X0112786Y0009746D01*
X0112885Y0009710D01*
X0112982Y0009670D01*
X0113077Y0009627D01*
X0113171Y0009579D01*
X0113263Y0009529D01*
X0113353Y0009475D01*
X0113441Y0009417D01*
X0113526Y0009356D01*
X0113609Y0009292D01*
X0113690Y0009225D01*
X0113768Y0009155D01*
X0113843Y0009081D01*
X0113915Y0009006D01*
X0113985Y0008927D01*
X0114051Y0008846D01*
X0114115Y0008762D01*
X0114175Y0008676D01*
X0114231Y0008588D01*
X0114285Y0008497D01*
X0114335Y0008405D01*
X0114381Y0008311D01*
X0114424Y0008215D01*
X0114463Y0008117D01*
X0114498Y0008019D01*
X0114529Y0007918D01*
X0114557Y0007817D01*
X0114581Y0007715D01*
X0114601Y0007612D01*
X0114617Y0007508D01*
X0114629Y0007404D01*
X0114637Y0007299D01*
X0114641Y0007194D01*
X0114641Y0007090D01*
X0114637Y0006985D01*
X0114629Y0006880D01*
X0114617Y0006776D01*
X0114601Y0006672D01*
X0114581Y0006569D01*
X0114557Y0006467D01*
X0114529Y0006366D01*
X0114498Y0006265D01*
X0114463Y0006167D01*
X0114424Y0006069D01*
X0114381Y0005973D01*
X0114335Y0005879D01*
X0114285Y0005787D01*
X0114231Y0005696D01*
X0114175Y0005608D01*
X0114115Y0005522D01*
X0114051Y0005438D01*
X0113985Y0005357D01*
X0113915Y0005278D01*
X0113843Y0005203D01*
X0113768Y0005129D01*
X0113690Y0005059D01*
X0113609Y0004992D01*
X0113526Y0004928D01*
X0113441Y0004867D01*
X0113353Y0004809D01*
X0113263Y0004755D01*
X0113171Y0004705D01*
X0113077Y0004657D01*
X0112982Y0004614D01*
X0112885Y0004574D01*
X0112786Y0004538D01*
X0112687Y0004505D01*
X0112586Y0004477D01*
X0112484Y0004452D01*
X0112381Y0004431D01*
X0112277Y0004414D01*
X0112173Y0004401D01*
X0112069Y0004392D01*
X0111964Y0004387D01*
X0111859Y0004386D01*
X0111754Y0004389D01*
X0111649Y0004396D01*
X0111545Y0004407D01*
X0111441Y0004422D01*
X0111338Y0004441D01*
X0111235Y0004464D01*
X0111134Y0004490D01*
X0111033Y0004521D01*
X0110934Y0004555D01*
X0110836Y0004593D01*
X0110740Y0004635D01*
X0110646Y0004680D01*
X0110553Y0004729D01*
X0110462Y0004782D01*
X0110373Y0004838D01*
X0110286Y0004897D01*
X0110202Y0004960D01*
X0110120Y0005025D01*
X0110041Y0005094D01*
X0109964Y0005166D01*
X0109890Y0005240D01*
X0109819Y0005317D01*
X0109751Y0005397D01*
X0109687Y0005480D01*
X0109625Y0005565D01*
X0109567Y0005652D01*
X0109511Y0005741D01*
X0109460Y0005833D01*
X0109412Y0005926D01*
X0109367Y0006021D01*
X0109326Y0006118D01*
X0109289Y0006216D01*
X0109256Y0006315D01*
X0109226Y0006416D01*
X0109201Y0006518D01*
X0109179Y0006620D01*
X0109161Y0006724D01*
X0109147Y0006828D01*
X0109137Y0006932D01*
X0109131Y0007037D01*
X0109129Y0007142D01*
X0109129Y0018392D02*
X0109131Y0018497D01*
X0109137Y0018602D01*
X0109147Y0018706D01*
X0109161Y0018810D01*
X0109179Y0018914D01*
X0109201Y0019016D01*
X0109226Y0019118D01*
X0109256Y0019219D01*
X0109289Y0019318D01*
X0109326Y0019416D01*
X0109367Y0019513D01*
X0109412Y0019608D01*
X0109460Y0019701D01*
X0109511Y0019793D01*
X0109567Y0019882D01*
X0109625Y0019969D01*
X0109687Y0020054D01*
X0109751Y0020137D01*
X0109819Y0020217D01*
X0109890Y0020294D01*
X0109964Y0020368D01*
X0110041Y0020440D01*
X0110120Y0020509D01*
X0110202Y0020574D01*
X0110286Y0020637D01*
X0110373Y0020696D01*
X0110462Y0020752D01*
X0110553Y0020805D01*
X0110646Y0020854D01*
X0110740Y0020899D01*
X0110836Y0020941D01*
X0110934Y0020979D01*
X0111033Y0021013D01*
X0111134Y0021044D01*
X0111235Y0021070D01*
X0111338Y0021093D01*
X0111441Y0021112D01*
X0111545Y0021127D01*
X0111649Y0021138D01*
X0111754Y0021145D01*
X0111859Y0021148D01*
X0111964Y0021147D01*
X0112069Y0021142D01*
X0112173Y0021133D01*
X0112277Y0021120D01*
X0112381Y0021103D01*
X0112484Y0021082D01*
X0112586Y0021057D01*
X0112687Y0021029D01*
X0112786Y0020996D01*
X0112885Y0020960D01*
X0112982Y0020920D01*
X0113077Y0020877D01*
X0113171Y0020829D01*
X0113263Y0020779D01*
X0113353Y0020725D01*
X0113441Y0020667D01*
X0113526Y0020606D01*
X0113609Y0020542D01*
X0113690Y0020475D01*
X0113768Y0020405D01*
X0113843Y0020331D01*
X0113915Y0020256D01*
X0113985Y0020177D01*
X0114051Y0020096D01*
X0114115Y0020012D01*
X0114175Y0019926D01*
X0114231Y0019838D01*
X0114285Y0019747D01*
X0114335Y0019655D01*
X0114381Y0019561D01*
X0114424Y0019465D01*
X0114463Y0019367D01*
X0114498Y0019269D01*
X0114529Y0019168D01*
X0114557Y0019067D01*
X0114581Y0018965D01*
X0114601Y0018862D01*
X0114617Y0018758D01*
X0114629Y0018654D01*
X0114637Y0018549D01*
X0114641Y0018444D01*
X0114641Y0018340D01*
X0114637Y0018235D01*
X0114629Y0018130D01*
X0114617Y0018026D01*
X0114601Y0017922D01*
X0114581Y0017819D01*
X0114557Y0017717D01*
X0114529Y0017616D01*
X0114498Y0017515D01*
X0114463Y0017417D01*
X0114424Y0017319D01*
X0114381Y0017223D01*
X0114335Y0017129D01*
X0114285Y0017037D01*
X0114231Y0016946D01*
X0114175Y0016858D01*
X0114115Y0016772D01*
X0114051Y0016688D01*
X0113985Y0016607D01*
X0113915Y0016528D01*
X0113843Y0016453D01*
X0113768Y0016379D01*
X0113690Y0016309D01*
X0113609Y0016242D01*
X0113526Y0016178D01*
X0113441Y0016117D01*
X0113353Y0016059D01*
X0113263Y0016005D01*
X0113171Y0015955D01*
X0113077Y0015907D01*
X0112982Y0015864D01*
X0112885Y0015824D01*
X0112786Y0015788D01*
X0112687Y0015755D01*
X0112586Y0015727D01*
X0112484Y0015702D01*
X0112381Y0015681D01*
X0112277Y0015664D01*
X0112173Y0015651D01*
X0112069Y0015642D01*
X0111964Y0015637D01*
X0111859Y0015636D01*
X0111754Y0015639D01*
X0111649Y0015646D01*
X0111545Y0015657D01*
X0111441Y0015672D01*
X0111338Y0015691D01*
X0111235Y0015714D01*
X0111134Y0015740D01*
X0111033Y0015771D01*
X0110934Y0015805D01*
X0110836Y0015843D01*
X0110740Y0015885D01*
X0110646Y0015930D01*
X0110553Y0015979D01*
X0110462Y0016032D01*
X0110373Y0016088D01*
X0110286Y0016147D01*
X0110202Y0016210D01*
X0110120Y0016275D01*
X0110041Y0016344D01*
X0109964Y0016416D01*
X0109890Y0016490D01*
X0109819Y0016567D01*
X0109751Y0016647D01*
X0109687Y0016730D01*
X0109625Y0016815D01*
X0109567Y0016902D01*
X0109511Y0016991D01*
X0109460Y0017083D01*
X0109412Y0017176D01*
X0109367Y0017271D01*
X0109326Y0017368D01*
X0109289Y0017466D01*
X0109256Y0017565D01*
X0109226Y0017666D01*
X0109201Y0017768D01*
X0109179Y0017870D01*
X0109161Y0017974D01*
X0109147Y0018078D01*
X0109137Y0018182D01*
X0109131Y0018287D01*
X0109129Y0018392D01*
D11*
X0133150Y0037917D02*
X0135619Y0037917D01*
X0135619Y0041620D01*
X0136834Y0041003D02*
X0137451Y0041620D01*
X0138685Y0041620D01*
X0139302Y0041003D01*
X0139302Y0038534D01*
X0138685Y0037917D01*
X0137451Y0037917D01*
X0136834Y0038534D01*
X0140517Y0038534D02*
X0140517Y0039151D01*
X0141134Y0039768D01*
X0142368Y0039768D01*
X0142985Y0040385D01*
X0142985Y0041003D01*
X0142368Y0041620D01*
X0141134Y0041620D01*
X0140517Y0041003D01*
X0140517Y0038534D02*
X0141134Y0037917D01*
X0142368Y0037917D01*
X0142985Y0038534D01*
X0142368Y0047917D02*
X0142985Y0048534D01*
X0142368Y0047917D02*
X0141134Y0047917D01*
X0140517Y0048534D01*
X0140517Y0049151D01*
X0141134Y0049768D01*
X0142368Y0049768D01*
X0142985Y0050385D01*
X0142985Y0051003D01*
X0142368Y0051620D01*
X0141134Y0051620D01*
X0140517Y0051003D01*
X0139302Y0051620D02*
X0137451Y0051620D01*
X0136834Y0051003D01*
X0136834Y0048534D01*
X0137451Y0047917D01*
X0139302Y0047917D01*
X0139302Y0051620D01*
X0135619Y0050385D02*
X0134385Y0051620D01*
X0133150Y0050385D01*
X0133150Y0047917D01*
X0133150Y0049768D02*
X0135619Y0049768D01*
X0135619Y0050385D02*
X0135619Y0047917D01*
X0135002Y0057917D02*
X0133768Y0057917D01*
X0133150Y0058534D01*
X0135002Y0057917D02*
X0135619Y0058534D01*
X0135619Y0061003D01*
X0135002Y0061620D01*
X0133768Y0061620D01*
X0133150Y0061003D01*
X0136834Y0061003D02*
X0137451Y0061620D01*
X0138685Y0061620D01*
X0139302Y0061003D01*
X0139302Y0058534D01*
X0138685Y0057917D01*
X0137451Y0057917D01*
X0136834Y0058534D01*
X0140517Y0059151D02*
X0140517Y0061620D01*
X0142985Y0061620D02*
X0142985Y0059151D01*
X0141751Y0057917D01*
X0140517Y0059151D01*
X0141134Y0067917D02*
X0140517Y0068534D01*
X0140517Y0069151D01*
X0141134Y0069768D01*
X0141751Y0069768D01*
X0141134Y0069768D02*
X0140517Y0070385D01*
X0140517Y0071003D01*
X0141134Y0071620D01*
X0142368Y0071620D01*
X0142985Y0071003D01*
X0139302Y0071620D02*
X0139302Y0069151D01*
X0138068Y0067917D01*
X0136834Y0069151D01*
X0136834Y0071620D01*
X0135619Y0071003D02*
X0135002Y0071620D01*
X0133768Y0071620D01*
X0133150Y0071003D01*
X0133150Y0070385D01*
X0133768Y0069768D01*
X0133150Y0069151D01*
X0133150Y0068534D01*
X0133768Y0067917D01*
X0135002Y0067917D01*
X0135619Y0068534D01*
X0134385Y0069768D02*
X0133768Y0069768D01*
X0141134Y0067917D02*
X0142368Y0067917D01*
X0142985Y0068534D01*
X0142368Y0077917D02*
X0141134Y0077917D01*
X0140517Y0078534D01*
X0140517Y0079768D01*
X0141751Y0079768D01*
X0142985Y0078534D02*
X0142368Y0077917D01*
X0142985Y0078534D02*
X0142985Y0081003D01*
X0142368Y0081620D01*
X0141134Y0081620D01*
X0140517Y0081003D01*
X0139302Y0081620D02*
X0136834Y0077917D01*
X0136834Y0081620D01*
X0135619Y0081620D02*
X0133768Y0081620D01*
X0133150Y0081003D01*
X0133150Y0078534D01*
X0133768Y0077917D01*
X0135619Y0077917D01*
X0135619Y0081620D01*
X0139302Y0081620D02*
X0139302Y0077917D01*
X0104860Y0056620D02*
X0103009Y0056620D01*
X0102392Y0056003D01*
X0102392Y0054768D01*
X0103009Y0054151D01*
X0104860Y0054151D01*
X0103626Y0054151D02*
X0102392Y0052917D01*
X0101177Y0052917D02*
X0099326Y0052917D01*
X0098709Y0053534D01*
X0098709Y0056003D01*
X0099326Y0056620D01*
X0101177Y0056620D01*
X0101177Y0052917D01*
X0104860Y0052917D02*
X0104860Y0056620D01*
X0097494Y0056620D02*
X0097494Y0056003D01*
X0096260Y0054768D01*
X0096260Y0052917D01*
X0096260Y0054768D02*
X0095025Y0056003D01*
X0095025Y0056620D01*
X0089235Y0056620D02*
X0088001Y0056620D01*
X0088618Y0056620D02*
X0088618Y0052917D01*
X0089235Y0052917D02*
X0088001Y0052917D01*
X0086780Y0052917D02*
X0086780Y0056620D01*
X0084311Y0052917D01*
X0084311Y0056620D01*
X0083097Y0056620D02*
X0080628Y0056620D01*
X0081862Y0056620D02*
X0081862Y0052917D01*
X0079414Y0052917D02*
X0076945Y0052917D01*
X0078179Y0052917D02*
X0078179Y0056620D01*
X0079414Y0055385D01*
X0061110Y0062292D02*
X0059876Y0062292D01*
X0060493Y0062292D02*
X0060493Y0065995D01*
X0061110Y0065995D02*
X0059876Y0065995D01*
X0058655Y0065995D02*
X0056186Y0062292D01*
X0056186Y0065995D01*
X0054972Y0065995D02*
X0052503Y0065995D01*
X0053737Y0065995D02*
X0053737Y0062292D01*
X0051289Y0062292D02*
X0048820Y0064760D01*
X0048820Y0065378D01*
X0049437Y0065995D01*
X0050672Y0065995D01*
X0051289Y0065378D01*
X0044860Y0065995D02*
X0043009Y0065995D01*
X0042392Y0065378D01*
X0042392Y0062909D01*
X0043009Y0062292D01*
X0044860Y0062292D01*
X0044860Y0065995D01*
X0041177Y0065995D02*
X0041177Y0062292D01*
X0041177Y0063526D02*
X0039326Y0063526D01*
X0038709Y0064143D01*
X0038709Y0065378D01*
X0039326Y0065995D01*
X0041177Y0065995D01*
X0039943Y0063526D02*
X0038709Y0062292D01*
X0037494Y0062292D02*
X0035643Y0062292D01*
X0035025Y0062909D01*
X0035025Y0065378D01*
X0035643Y0065995D01*
X0037494Y0065995D01*
X0037494Y0062292D01*
X0033811Y0065378D02*
X0032577Y0064143D01*
X0032577Y0062292D01*
X0032577Y0064143D02*
X0031342Y0065378D01*
X0031342Y0065995D01*
X0033811Y0065995D02*
X0033811Y0065378D01*
X0048820Y0062292D02*
X0051289Y0062292D01*
X0058655Y0062292D02*
X0058655Y0065995D01*
X0198340Y0120409D02*
X0198957Y0119792D01*
X0200809Y0119792D01*
X0200809Y0118557D02*
X0200809Y0122260D01*
X0198957Y0122260D01*
X0198340Y0121643D01*
X0198340Y0120409D01*
X0202023Y0120409D02*
X0202023Y0123495D01*
X0204492Y0123495D02*
X0204492Y0120409D01*
X0203875Y0119792D01*
X0202640Y0119792D01*
X0202023Y0120409D01*
X0205706Y0121026D02*
X0208175Y0121026D01*
X0208175Y0120409D02*
X0208175Y0121643D01*
X0207558Y0122260D01*
X0206323Y0122260D01*
X0205706Y0121643D01*
X0205706Y0121026D01*
X0206323Y0119792D02*
X0207558Y0119792D01*
X0208175Y0120409D01*
X0209393Y0119792D02*
X0211244Y0121026D01*
X0209393Y0122260D01*
X0211244Y0123495D02*
X0211244Y0119792D01*
X0212459Y0119792D02*
X0214310Y0119792D01*
X0214927Y0120409D01*
X0214310Y0121026D01*
X0212459Y0121026D01*
X0212459Y0121643D02*
X0212459Y0119792D01*
X0212459Y0121643D02*
X0213076Y0122260D01*
X0214310Y0122260D01*
X0216142Y0123495D02*
X0216142Y0119792D01*
X0217376Y0121026D01*
X0218610Y0119792D01*
X0218610Y0123495D01*
X0220551Y0135699D02*
X0220067Y0136183D01*
X0220067Y0138602D01*
X0221519Y0138602D01*
X0222002Y0138118D01*
X0222002Y0137150D01*
X0221519Y0136667D01*
X0220067Y0136667D01*
X0220551Y0135699D02*
X0221035Y0135699D01*
X0223498Y0136667D02*
X0224465Y0136667D01*
X0224949Y0137150D01*
X0224949Y0138118D01*
X0224465Y0138602D01*
X0223498Y0138602D01*
X0223014Y0138118D01*
X0223014Y0137634D01*
X0224949Y0137634D01*
X0225953Y0138602D02*
X0226437Y0138602D01*
X0227404Y0137634D01*
X0227404Y0136667D02*
X0227404Y0138602D01*
X0231348Y0138602D02*
X0232315Y0138602D01*
X0231831Y0139085D02*
X0231831Y0137150D01*
X0231348Y0136667D01*
X0233327Y0136667D02*
X0234778Y0136667D01*
X0235262Y0137150D01*
X0235262Y0138118D01*
X0234778Y0138602D01*
X0233327Y0138602D01*
X0236273Y0138118D02*
X0236273Y0137634D01*
X0238208Y0137634D01*
X0238208Y0137150D02*
X0238208Y0138118D01*
X0237724Y0138602D01*
X0236757Y0138602D01*
X0236273Y0138118D01*
X0236757Y0136667D02*
X0237724Y0136667D01*
X0238208Y0137150D01*
X0239220Y0136667D02*
X0239220Y0138118D01*
X0239703Y0138602D01*
X0241155Y0138602D01*
X0241155Y0136667D01*
X0242166Y0136667D02*
X0242166Y0138118D01*
X0242650Y0138602D01*
X0244101Y0138602D01*
X0244101Y0136667D01*
X0245113Y0137150D02*
X0245113Y0138118D01*
X0245596Y0138602D01*
X0246564Y0138602D01*
X0247048Y0138118D01*
X0247048Y0137150D01*
X0246564Y0136667D01*
X0245596Y0136667D01*
X0245113Y0137150D01*
X0248059Y0137150D02*
X0248543Y0136667D01*
X0249510Y0136667D01*
X0249994Y0137150D01*
X0249994Y0139085D01*
X0249510Y0139569D01*
X0248543Y0139569D01*
X0248059Y0139085D01*
X0253930Y0137150D02*
X0253930Y0136667D01*
X0254414Y0136667D01*
X0254414Y0137150D01*
X0253930Y0137150D01*
X0255425Y0136667D02*
X0257360Y0136667D01*
X0255425Y0138602D01*
X0255425Y0139085D01*
X0255909Y0139569D01*
X0256877Y0139569D01*
X0257360Y0139085D01*
X0257360Y0141467D02*
X0255425Y0141467D01*
X0256393Y0141467D02*
X0256393Y0144369D01*
X0257360Y0143402D01*
X0257360Y0146267D02*
X0257360Y0149169D01*
X0255425Y0149169D01*
X0256393Y0147718D02*
X0257360Y0147718D01*
X0254414Y0147718D02*
X0254414Y0146750D01*
X0253930Y0146267D01*
X0252963Y0146267D01*
X0252479Y0146750D01*
X0252479Y0147718D01*
X0252963Y0148202D01*
X0253930Y0148202D01*
X0254414Y0147718D01*
X0251467Y0148202D02*
X0251467Y0146267D01*
X0251467Y0147234D02*
X0250500Y0148202D01*
X0250016Y0148202D01*
X0247539Y0149807D02*
X0247539Y0153510D01*
X0245687Y0153510D01*
X0245070Y0152893D01*
X0245070Y0151659D01*
X0245687Y0151042D01*
X0247539Y0151042D01*
X0248753Y0152276D02*
X0251222Y0152276D01*
X0251222Y0151659D02*
X0251222Y0152893D01*
X0250605Y0153510D01*
X0249370Y0153510D01*
X0248753Y0152893D01*
X0248753Y0152276D01*
X0249370Y0151042D02*
X0250605Y0151042D01*
X0251222Y0151659D01*
X0252443Y0151042D02*
X0253060Y0151659D01*
X0253060Y0154128D01*
X0253677Y0153510D02*
X0252443Y0153510D01*
X0254892Y0154128D02*
X0255509Y0154745D01*
X0256743Y0154745D01*
X0257360Y0154128D01*
X0257360Y0153510D01*
X0256743Y0152893D01*
X0255509Y0152893D01*
X0254892Y0152276D01*
X0254892Y0151659D01*
X0255509Y0151042D01*
X0256743Y0151042D01*
X0257360Y0151659D01*
X0246065Y0148202D02*
X0246065Y0146750D01*
X0245582Y0146267D01*
X0244130Y0146267D01*
X0244130Y0148202D01*
X0243119Y0147718D02*
X0242635Y0148202D01*
X0241184Y0148202D01*
X0241668Y0147234D02*
X0242635Y0147234D01*
X0243119Y0147718D01*
X0243119Y0146267D02*
X0241668Y0146267D01*
X0241184Y0146750D01*
X0241668Y0147234D01*
X0240172Y0147234D02*
X0238237Y0147234D01*
X0238237Y0147718D01*
X0238721Y0148202D01*
X0239689Y0148202D01*
X0240172Y0147718D01*
X0240172Y0146750D01*
X0239689Y0146267D01*
X0238721Y0146267D01*
X0238707Y0143885D02*
X0238707Y0141950D01*
X0238223Y0141467D01*
X0237226Y0141467D02*
X0237226Y0144369D01*
X0236742Y0143402D02*
X0237226Y0142918D01*
X0236742Y0143402D02*
X0235775Y0143402D01*
X0235291Y0142918D01*
X0235291Y0141467D01*
X0234279Y0141950D02*
X0234279Y0142918D01*
X0233796Y0143402D01*
X0232828Y0143402D01*
X0232344Y0142918D01*
X0232344Y0142434D01*
X0234279Y0142434D01*
X0234279Y0141950D02*
X0233796Y0141467D01*
X0232828Y0141467D01*
X0228386Y0141467D02*
X0228386Y0144369D01*
X0228386Y0143402D02*
X0226935Y0143402D01*
X0226451Y0142918D01*
X0226451Y0141950D01*
X0226935Y0141467D01*
X0228386Y0141467D01*
X0225440Y0141467D02*
X0225440Y0143402D01*
X0224472Y0143402D02*
X0223989Y0143402D01*
X0224472Y0143402D02*
X0225440Y0142434D01*
X0222984Y0141467D02*
X0222017Y0141467D01*
X0222501Y0141467D02*
X0222501Y0143402D01*
X0222984Y0143402D01*
X0222501Y0144369D02*
X0222501Y0144853D01*
X0221020Y0142918D02*
X0220536Y0143402D01*
X0219085Y0143402D01*
X0219085Y0144369D02*
X0219085Y0141467D01*
X0220536Y0141467D01*
X0221020Y0141950D01*
X0221020Y0142918D01*
X0218074Y0142918D02*
X0217590Y0143402D01*
X0216139Y0143402D01*
X0216139Y0140983D01*
X0216622Y0140499D01*
X0217106Y0140499D01*
X0217590Y0141467D02*
X0216139Y0141467D01*
X0215127Y0141950D02*
X0215127Y0142918D01*
X0214643Y0143402D01*
X0213676Y0143402D01*
X0213192Y0142918D01*
X0213192Y0142434D01*
X0215127Y0142434D01*
X0215127Y0141950D02*
X0214643Y0141467D01*
X0213676Y0141467D01*
X0217590Y0141467D02*
X0218074Y0141950D01*
X0218074Y0142918D01*
X0227882Y0151042D02*
X0227882Y0152893D01*
X0228499Y0153510D01*
X0230351Y0153510D01*
X0230351Y0151042D01*
X0231572Y0151042D02*
X0232806Y0151042D01*
X0232189Y0151042D02*
X0232189Y0154745D01*
X0232806Y0154745D02*
X0231572Y0154745D01*
X0237704Y0152893D02*
X0237704Y0151659D01*
X0238321Y0151042D01*
X0240172Y0151042D01*
X0240172Y0149807D02*
X0240172Y0153510D01*
X0238321Y0153510D01*
X0237704Y0152893D01*
X0241387Y0151659D02*
X0241387Y0154745D01*
X0243856Y0154745D02*
X0243856Y0151659D01*
X0243238Y0151042D01*
X0242004Y0151042D01*
X0241387Y0151659D01*
X0234279Y0148202D02*
X0234279Y0147718D01*
X0233796Y0147718D01*
X0233796Y0148202D01*
X0234279Y0148202D01*
X0234279Y0146750D02*
X0234279Y0146267D01*
X0233796Y0146267D01*
X0233796Y0146750D01*
X0234279Y0146750D01*
X0238223Y0143402D02*
X0239190Y0143402D01*
X0243134Y0143402D02*
X0244101Y0143402D01*
X0243617Y0143885D02*
X0243617Y0141950D01*
X0243134Y0141467D01*
X0245113Y0141467D02*
X0245113Y0143402D01*
X0247048Y0143402D02*
X0247048Y0141950D01*
X0246564Y0141467D01*
X0245113Y0141467D01*
X0248059Y0141950D02*
X0248543Y0141467D01*
X0249510Y0141467D01*
X0249994Y0141950D01*
X0249994Y0143885D01*
X0249510Y0144369D01*
X0248543Y0144369D01*
X0248059Y0143885D01*
X0253930Y0141950D02*
X0253930Y0141467D01*
X0254414Y0141467D01*
X0254414Y0141950D01*
X0253930Y0141950D01*
X0263461Y0142069D02*
X0263461Y0139167D01*
X0265396Y0142069D01*
X0265396Y0139167D01*
X0266393Y0139167D02*
X0267360Y0139167D01*
X0266877Y0139167D02*
X0266877Y0142069D01*
X0267360Y0142069D02*
X0266393Y0142069D01*
X0260627Y0161042D02*
X0259659Y0161042D01*
X0259175Y0161525D01*
X0259175Y0163460D01*
X0259659Y0163944D01*
X0260627Y0163944D01*
X0261110Y0163460D01*
X0261110Y0161525D01*
X0260627Y0161042D01*
X0258164Y0161525D02*
X0257680Y0161042D01*
X0256713Y0161042D01*
X0256229Y0161525D01*
X0256229Y0163944D01*
X0255217Y0163944D02*
X0253282Y0163944D01*
X0254250Y0163944D02*
X0254250Y0161042D01*
X0258164Y0161525D02*
X0258164Y0163944D01*
X0201110Y0147870D02*
X0201110Y0144167D01*
X0198642Y0144167D01*
X0197427Y0144784D02*
X0197427Y0146018D01*
X0196810Y0146635D01*
X0195576Y0146635D01*
X0194959Y0146018D01*
X0194959Y0145401D01*
X0197427Y0145401D01*
X0197427Y0144784D02*
X0196810Y0144167D01*
X0195576Y0144167D01*
X0193744Y0144784D02*
X0193744Y0146018D01*
X0193127Y0146635D01*
X0191275Y0146635D01*
X0191275Y0147870D02*
X0191275Y0144167D01*
X0193127Y0144167D01*
X0193744Y0144784D01*
X0186378Y0144167D02*
X0184526Y0144167D01*
X0183909Y0144784D01*
X0184526Y0145401D01*
X0185761Y0145401D01*
X0186378Y0146018D01*
X0185761Y0146635D01*
X0183909Y0146635D01*
X0182695Y0146635D02*
X0181460Y0146635D01*
X0182078Y0147253D02*
X0182078Y0144784D01*
X0181460Y0144167D01*
X0180239Y0144167D02*
X0180239Y0146635D01*
X0180239Y0145401D02*
X0179005Y0146635D01*
X0178388Y0146635D01*
X0177170Y0146635D02*
X0176553Y0146635D01*
X0176553Y0144167D01*
X0177170Y0144167D02*
X0175936Y0144167D01*
X0174715Y0144167D02*
X0172863Y0144167D01*
X0172246Y0144784D01*
X0172246Y0146018D01*
X0172863Y0146635D01*
X0174715Y0146635D01*
X0174715Y0142932D01*
X0176553Y0147870D02*
X0176553Y0148487D01*
X0239400Y0120378D02*
X0239400Y0119143D01*
X0240018Y0118526D01*
X0241869Y0118526D01*
X0241869Y0117292D02*
X0241869Y0120995D01*
X0240018Y0120995D01*
X0239400Y0120378D01*
X0243084Y0120995D02*
X0243084Y0117909D01*
X0243701Y0117292D01*
X0244935Y0117292D01*
X0245552Y0117909D01*
X0245552Y0120995D01*
X0246767Y0120995D02*
X0246767Y0117292D01*
X0248001Y0118526D01*
X0249235Y0117292D01*
X0249235Y0120995D01*
X0237985Y0112245D02*
X0237985Y0108542D01*
X0236751Y0109776D01*
X0235517Y0108542D01*
X0235517Y0112245D01*
X0234302Y0112245D02*
X0234302Y0109159D01*
X0233685Y0108542D01*
X0232451Y0108542D01*
X0231834Y0109159D01*
X0231834Y0112245D01*
X0230619Y0112245D02*
X0228768Y0112245D01*
X0228150Y0111628D01*
X0228150Y0110393D01*
X0228768Y0109776D01*
X0230619Y0109776D01*
X0230619Y0108542D02*
X0230619Y0112245D01*
X0236268Y0063495D02*
X0235650Y0062878D01*
X0235650Y0062260D01*
X0236268Y0061643D01*
X0238119Y0061643D01*
X0239334Y0062260D02*
X0241185Y0062260D01*
X0241802Y0061643D01*
X0241802Y0060409D01*
X0241185Y0059792D01*
X0239334Y0059792D01*
X0239334Y0063495D01*
X0238119Y0063495D02*
X0236268Y0063495D01*
X0238119Y0063495D02*
X0238119Y0059792D01*
X0236268Y0059792D01*
X0235650Y0060409D01*
X0235650Y0061026D01*
X0236268Y0061643D01*
X0243017Y0061643D02*
X0244868Y0061643D01*
X0245485Y0062260D01*
X0245485Y0062878D01*
X0244868Y0063495D01*
X0243634Y0063495D01*
X0243017Y0062878D01*
X0243017Y0060409D01*
X0243634Y0059792D01*
X0244868Y0059792D01*
X0245485Y0060409D01*
X0244251Y0054120D02*
X0244251Y0050417D01*
X0245485Y0050417D02*
X0243017Y0050417D01*
X0241802Y0051034D02*
X0241185Y0050417D01*
X0239951Y0050417D01*
X0239334Y0051034D01*
X0239334Y0052268D01*
X0239951Y0052885D01*
X0240568Y0052885D01*
X0241802Y0052268D01*
X0241802Y0054120D01*
X0239334Y0054120D01*
X0237502Y0052885D02*
X0235650Y0052885D01*
X0235650Y0054120D02*
X0235650Y0050417D01*
X0237502Y0050417D01*
X0238119Y0051034D01*
X0238119Y0052268D01*
X0237502Y0052885D01*
X0234436Y0052268D02*
X0232584Y0052268D01*
X0231967Y0051651D01*
X0231967Y0051034D01*
X0232584Y0050417D01*
X0234436Y0050417D01*
X0234436Y0054120D01*
X0232584Y0054120D01*
X0231967Y0053503D01*
X0231967Y0052885D01*
X0232584Y0052268D01*
X0244251Y0054120D02*
X0245485Y0052885D01*
X0212360Y0054792D02*
X0212360Y0058495D01*
X0211126Y0057260D01*
X0209892Y0058495D01*
X0209892Y0054792D01*
X0208677Y0054792D02*
X0207443Y0054792D01*
X0208060Y0054792D02*
X0208060Y0058495D01*
X0208677Y0058495D02*
X0207443Y0058495D01*
X0206222Y0057878D02*
X0206222Y0055409D01*
X0205605Y0054792D01*
X0204370Y0054792D01*
X0203753Y0055409D01*
X0203753Y0057878D02*
X0204370Y0058495D01*
X0205605Y0058495D01*
X0206222Y0057878D01*
X0206222Y0049120D02*
X0203753Y0045417D01*
X0203753Y0049120D01*
X0202539Y0049120D02*
X0202539Y0045417D01*
X0200070Y0045417D01*
X0201304Y0047268D02*
X0202539Y0047268D01*
X0202539Y0049120D02*
X0200070Y0049120D01*
X0206222Y0049120D02*
X0206222Y0045417D01*
X0207443Y0045417D02*
X0208677Y0045417D01*
X0208060Y0045417D02*
X0208060Y0049120D01*
X0208677Y0049120D02*
X0207443Y0049120D01*
X0212360Y0049120D02*
X0212360Y0045417D01*
X0209892Y0045417D01*
D12*
X0207735Y0087017D02*
X0207735Y0092288D01*
X0206417Y0092288D01*
X0205099Y0090970D01*
X0203781Y0092288D01*
X0202463Y0090970D01*
X0202463Y0087017D01*
X0205099Y0087017D02*
X0205099Y0090970D01*
X0199816Y0092288D02*
X0199816Y0088334D01*
X0198498Y0087017D01*
X0194545Y0087017D01*
X0194545Y0092288D01*
X0191897Y0092288D02*
X0191897Y0087017D01*
X0191897Y0089652D02*
X0189261Y0092288D01*
X0187944Y0092288D01*
X0185298Y0090970D02*
X0183980Y0092288D01*
X0181345Y0092288D01*
X0180027Y0090970D01*
X0180027Y0089652D01*
X0185298Y0089652D01*
X0185298Y0088334D02*
X0185298Y0090970D01*
X0185298Y0088334D02*
X0183980Y0087017D01*
X0181345Y0087017D01*
X0177379Y0087017D02*
X0173426Y0087017D01*
X0172108Y0088334D01*
X0172108Y0093606D01*
X0173426Y0094923D01*
X0177379Y0094923D01*
X0177379Y0087017D01*
X0169461Y0088334D02*
X0168143Y0087017D01*
X0164189Y0087017D01*
X0164189Y0092288D01*
X0161542Y0092288D02*
X0160224Y0090970D01*
X0157588Y0090970D01*
X0156271Y0089652D01*
X0156271Y0088334D01*
X0157588Y0087017D01*
X0160224Y0087017D01*
X0161542Y0088334D01*
X0161542Y0092288D02*
X0161542Y0093606D01*
X0160224Y0094923D01*
X0157588Y0094923D01*
X0156271Y0093606D01*
X0153623Y0090970D02*
X0152305Y0092288D01*
X0149670Y0092288D01*
X0148352Y0090970D01*
X0148352Y0088334D01*
X0149670Y0087017D01*
X0152305Y0087017D01*
X0153623Y0088334D01*
X0153623Y0090970D01*
X0145704Y0092288D02*
X0145704Y0087017D01*
X0140433Y0087017D02*
X0140433Y0090970D01*
X0141751Y0092288D01*
X0145704Y0092288D01*
X0169461Y0092288D02*
X0169461Y0088334D01*
X0210380Y0092288D02*
X0211698Y0092288D01*
X0214334Y0089652D01*
X0214334Y0087017D02*
X0214334Y0092288D01*
X0216981Y0092288D02*
X0216981Y0087017D01*
X0220935Y0087017D01*
X0222252Y0088334D01*
X0222252Y0092288D01*
X0224900Y0094923D02*
X0224900Y0087017D01*
X0230171Y0087017D02*
X0230171Y0094923D01*
X0227535Y0092288D01*
X0224900Y0094923D01*
D13*
X0196938Y0080962D02*
X0194803Y0076692D01*
X0192668Y0080962D01*
X0190492Y0082030D02*
X0189425Y0083097D01*
X0187290Y0083097D01*
X0186222Y0082030D01*
X0186222Y0080962D01*
X0190492Y0076692D01*
X0186222Y0076692D01*
X0184047Y0076692D02*
X0182979Y0076692D01*
X0182979Y0077759D01*
X0184047Y0077759D01*
X0184047Y0076692D01*
X0180824Y0077759D02*
X0176554Y0082030D01*
X0176554Y0077759D01*
X0177622Y0076692D01*
X0179757Y0076692D01*
X0180824Y0077759D01*
X0180824Y0082030D01*
X0179757Y0083097D01*
X0177622Y0083097D01*
X0176554Y0082030D01*
X0171156Y0082030D02*
X0170088Y0083097D01*
X0167953Y0083097D01*
X0166886Y0082030D01*
X0171156Y0077759D01*
X0170088Y0076692D01*
X0167953Y0076692D01*
X0166886Y0077759D01*
X0166886Y0082030D01*
X0171156Y0082030D02*
X0171156Y0077759D01*
X0173311Y0077759D02*
X0173311Y0076692D01*
X0174379Y0076692D01*
X0174379Y0077759D01*
X0173311Y0077759D01*
X0214760Y0060017D02*
X0214760Y0043017D01*
X0214762Y0042957D01*
X0214767Y0042896D01*
X0214776Y0042837D01*
X0214789Y0042778D01*
X0214805Y0042719D01*
X0214825Y0042662D01*
X0214848Y0042607D01*
X0214875Y0042552D01*
X0214904Y0042500D01*
X0214937Y0042449D01*
X0214973Y0042400D01*
X0215011Y0042354D01*
X0215053Y0042310D01*
X0215097Y0042268D01*
X0215143Y0042230D01*
X0215192Y0042194D01*
X0215243Y0042161D01*
X0215295Y0042132D01*
X0215350Y0042105D01*
X0215405Y0042082D01*
X0215462Y0042062D01*
X0215521Y0042046D01*
X0215580Y0042033D01*
X0215639Y0042024D01*
X0215700Y0042019D01*
X0215760Y0042017D01*
X0221760Y0042017D01*
X0221820Y0042019D01*
X0221881Y0042024D01*
X0221940Y0042033D01*
X0221999Y0042046D01*
X0222058Y0042062D01*
X0222115Y0042082D01*
X0222170Y0042105D01*
X0222225Y0042132D01*
X0222277Y0042161D01*
X0222328Y0042194D01*
X0222377Y0042230D01*
X0222423Y0042268D01*
X0222467Y0042310D01*
X0222509Y0042354D01*
X0222547Y0042400D01*
X0222583Y0042449D01*
X0222616Y0042500D01*
X0222645Y0042552D01*
X0222672Y0042607D01*
X0222695Y0042662D01*
X0222715Y0042719D01*
X0222731Y0042778D01*
X0222744Y0042837D01*
X0222753Y0042896D01*
X0222758Y0042957D01*
X0222760Y0043017D01*
X0222760Y0060017D01*
X0222758Y0060077D01*
X0222753Y0060138D01*
X0222744Y0060197D01*
X0222731Y0060256D01*
X0222715Y0060315D01*
X0222695Y0060372D01*
X0222672Y0060427D01*
X0222645Y0060482D01*
X0222616Y0060534D01*
X0222583Y0060585D01*
X0222547Y0060634D01*
X0222509Y0060680D01*
X0222467Y0060724D01*
X0222423Y0060766D01*
X0222377Y0060804D01*
X0222328Y0060840D01*
X0222277Y0060873D01*
X0222225Y0060902D01*
X0222170Y0060929D01*
X0222115Y0060952D01*
X0222058Y0060972D01*
X0221999Y0060988D01*
X0221940Y0061001D01*
X0221881Y0061010D01*
X0221820Y0061015D01*
X0221760Y0061017D01*
X0215760Y0061017D01*
X0215700Y0061015D01*
X0215639Y0061010D01*
X0215580Y0061001D01*
X0215521Y0060988D01*
X0215462Y0060972D01*
X0215405Y0060952D01*
X0215350Y0060929D01*
X0215295Y0060902D01*
X0215243Y0060873D01*
X0215192Y0060840D01*
X0215143Y0060804D01*
X0215097Y0060766D01*
X0215053Y0060724D01*
X0215011Y0060680D01*
X0214973Y0060634D01*
X0214937Y0060585D01*
X0214904Y0060534D01*
X0214875Y0060482D01*
X0214848Y0060427D01*
X0214825Y0060372D01*
X0214805Y0060315D01*
X0214789Y0060256D01*
X0214776Y0060197D01*
X0214767Y0060138D01*
X0214762Y0060077D01*
X0214760Y0060017D01*
X0218760Y0060517D02*
X0218760Y0058517D01*
X0215760Y0051517D02*
X0214760Y0051517D01*
X0221760Y0051517D02*
X0222760Y0051517D01*
X0218760Y0044517D02*
X0218760Y0042517D01*
X0246948Y0047704D02*
X0246948Y0064704D01*
X0246950Y0064764D01*
X0246955Y0064825D01*
X0246964Y0064884D01*
X0246977Y0064943D01*
X0246993Y0065002D01*
X0247013Y0065059D01*
X0247036Y0065114D01*
X0247063Y0065169D01*
X0247092Y0065221D01*
X0247125Y0065272D01*
X0247161Y0065321D01*
X0247199Y0065367D01*
X0247241Y0065411D01*
X0247285Y0065453D01*
X0247331Y0065491D01*
X0247380Y0065527D01*
X0247431Y0065560D01*
X0247483Y0065589D01*
X0247538Y0065616D01*
X0247593Y0065639D01*
X0247650Y0065659D01*
X0247709Y0065675D01*
X0247768Y0065688D01*
X0247827Y0065697D01*
X0247888Y0065702D01*
X0247948Y0065704D01*
X0253948Y0065704D01*
X0254008Y0065702D01*
X0254069Y0065697D01*
X0254128Y0065688D01*
X0254187Y0065675D01*
X0254246Y0065659D01*
X0254303Y0065639D01*
X0254358Y0065616D01*
X0254413Y0065589D01*
X0254465Y0065560D01*
X0254516Y0065527D01*
X0254565Y0065491D01*
X0254611Y0065453D01*
X0254655Y0065411D01*
X0254697Y0065367D01*
X0254735Y0065321D01*
X0254771Y0065272D01*
X0254804Y0065221D01*
X0254833Y0065169D01*
X0254860Y0065114D01*
X0254883Y0065059D01*
X0254903Y0065002D01*
X0254919Y0064943D01*
X0254932Y0064884D01*
X0254941Y0064825D01*
X0254946Y0064764D01*
X0254948Y0064704D01*
X0254948Y0047704D01*
X0254946Y0047644D01*
X0254941Y0047583D01*
X0254932Y0047524D01*
X0254919Y0047465D01*
X0254903Y0047406D01*
X0254883Y0047349D01*
X0254860Y0047294D01*
X0254833Y0047239D01*
X0254804Y0047187D01*
X0254771Y0047136D01*
X0254735Y0047087D01*
X0254697Y0047041D01*
X0254655Y0046997D01*
X0254611Y0046955D01*
X0254565Y0046917D01*
X0254516Y0046881D01*
X0254465Y0046848D01*
X0254413Y0046819D01*
X0254358Y0046792D01*
X0254303Y0046769D01*
X0254246Y0046749D01*
X0254187Y0046733D01*
X0254128Y0046720D01*
X0254069Y0046711D01*
X0254008Y0046706D01*
X0253948Y0046704D01*
X0247948Y0046704D01*
X0247888Y0046706D01*
X0247827Y0046711D01*
X0247768Y0046720D01*
X0247709Y0046733D01*
X0247650Y0046749D01*
X0247593Y0046769D01*
X0247538Y0046792D01*
X0247483Y0046819D01*
X0247431Y0046848D01*
X0247380Y0046881D01*
X0247331Y0046917D01*
X0247285Y0046955D01*
X0247241Y0046997D01*
X0247199Y0047041D01*
X0247161Y0047087D01*
X0247125Y0047136D01*
X0247092Y0047187D01*
X0247063Y0047239D01*
X0247036Y0047294D01*
X0247013Y0047349D01*
X0246993Y0047406D01*
X0246977Y0047465D01*
X0246964Y0047524D01*
X0246955Y0047583D01*
X0246950Y0047644D01*
X0246948Y0047704D01*
X0250948Y0047204D02*
X0250948Y0049204D01*
X0253948Y0056204D02*
X0254948Y0056204D01*
X0247948Y0056204D02*
X0246948Y0056204D01*
X0250948Y0063204D02*
X0250948Y0065204D01*
X0101385Y0065767D02*
X0101385Y0059767D01*
X0101383Y0059707D01*
X0101378Y0059646D01*
X0101369Y0059587D01*
X0101356Y0059528D01*
X0101340Y0059469D01*
X0101320Y0059412D01*
X0101297Y0059357D01*
X0101270Y0059302D01*
X0101241Y0059250D01*
X0101208Y0059199D01*
X0101172Y0059150D01*
X0101134Y0059104D01*
X0101092Y0059060D01*
X0101048Y0059018D01*
X0101002Y0058980D01*
X0100953Y0058944D01*
X0100902Y0058911D01*
X0100850Y0058882D01*
X0100795Y0058855D01*
X0100740Y0058832D01*
X0100683Y0058812D01*
X0100624Y0058796D01*
X0100565Y0058783D01*
X0100506Y0058774D01*
X0100445Y0058769D01*
X0100385Y0058767D01*
X0083385Y0058767D01*
X0083325Y0058769D01*
X0083264Y0058774D01*
X0083205Y0058783D01*
X0083146Y0058796D01*
X0083087Y0058812D01*
X0083030Y0058832D01*
X0082975Y0058855D01*
X0082920Y0058882D01*
X0082868Y0058911D01*
X0082817Y0058944D01*
X0082768Y0058980D01*
X0082722Y0059018D01*
X0082678Y0059060D01*
X0082636Y0059104D01*
X0082598Y0059150D01*
X0082562Y0059199D01*
X0082529Y0059250D01*
X0082500Y0059302D01*
X0082473Y0059357D01*
X0082450Y0059412D01*
X0082430Y0059469D01*
X0082414Y0059528D01*
X0082401Y0059587D01*
X0082392Y0059646D01*
X0082387Y0059707D01*
X0082385Y0059767D01*
X0082385Y0065767D01*
X0082387Y0065827D01*
X0082392Y0065888D01*
X0082401Y0065947D01*
X0082414Y0066006D01*
X0082430Y0066065D01*
X0082450Y0066122D01*
X0082473Y0066177D01*
X0082500Y0066232D01*
X0082529Y0066284D01*
X0082562Y0066335D01*
X0082598Y0066384D01*
X0082636Y0066430D01*
X0082678Y0066474D01*
X0082722Y0066516D01*
X0082768Y0066554D01*
X0082817Y0066590D01*
X0082868Y0066623D01*
X0082920Y0066652D01*
X0082975Y0066679D01*
X0083030Y0066702D01*
X0083087Y0066722D01*
X0083146Y0066738D01*
X0083205Y0066751D01*
X0083264Y0066760D01*
X0083325Y0066765D01*
X0083385Y0066767D01*
X0100385Y0066767D01*
X0100445Y0066765D01*
X0100506Y0066760D01*
X0100565Y0066751D01*
X0100624Y0066738D01*
X0100683Y0066722D01*
X0100740Y0066702D01*
X0100795Y0066679D01*
X0100850Y0066652D01*
X0100902Y0066623D01*
X0100953Y0066590D01*
X0101002Y0066554D01*
X0101048Y0066516D01*
X0101092Y0066474D01*
X0101134Y0066430D01*
X0101172Y0066384D01*
X0101208Y0066335D01*
X0101241Y0066284D01*
X0101270Y0066232D01*
X0101297Y0066177D01*
X0101320Y0066122D01*
X0101340Y0066065D01*
X0101356Y0066006D01*
X0101369Y0065947D01*
X0101378Y0065888D01*
X0101383Y0065827D01*
X0101385Y0065767D01*
X0100885Y0062767D02*
X0098885Y0062767D01*
X0091885Y0065767D02*
X0091885Y0066767D01*
X0084885Y0062767D02*
X0082885Y0062767D01*
X0091885Y0059767D02*
X0091885Y0058767D01*
X0057010Y0069142D02*
X0057010Y0075142D01*
X0057008Y0075202D01*
X0057003Y0075263D01*
X0056994Y0075322D01*
X0056981Y0075381D01*
X0056965Y0075440D01*
X0056945Y0075497D01*
X0056922Y0075552D01*
X0056895Y0075607D01*
X0056866Y0075659D01*
X0056833Y0075710D01*
X0056797Y0075759D01*
X0056759Y0075805D01*
X0056717Y0075849D01*
X0056673Y0075891D01*
X0056627Y0075929D01*
X0056578Y0075965D01*
X0056527Y0075998D01*
X0056475Y0076027D01*
X0056420Y0076054D01*
X0056365Y0076077D01*
X0056308Y0076097D01*
X0056249Y0076113D01*
X0056190Y0076126D01*
X0056131Y0076135D01*
X0056070Y0076140D01*
X0056010Y0076142D01*
X0039010Y0076142D01*
X0038950Y0076140D01*
X0038889Y0076135D01*
X0038830Y0076126D01*
X0038771Y0076113D01*
X0038712Y0076097D01*
X0038655Y0076077D01*
X0038600Y0076054D01*
X0038545Y0076027D01*
X0038493Y0075998D01*
X0038442Y0075965D01*
X0038393Y0075929D01*
X0038347Y0075891D01*
X0038303Y0075849D01*
X0038261Y0075805D01*
X0038223Y0075759D01*
X0038187Y0075710D01*
X0038154Y0075659D01*
X0038125Y0075607D01*
X0038098Y0075552D01*
X0038075Y0075497D01*
X0038055Y0075440D01*
X0038039Y0075381D01*
X0038026Y0075322D01*
X0038017Y0075263D01*
X0038012Y0075202D01*
X0038010Y0075142D01*
X0038010Y0069142D01*
X0038012Y0069082D01*
X0038017Y0069021D01*
X0038026Y0068962D01*
X0038039Y0068903D01*
X0038055Y0068844D01*
X0038075Y0068787D01*
X0038098Y0068732D01*
X0038125Y0068677D01*
X0038154Y0068625D01*
X0038187Y0068574D01*
X0038223Y0068525D01*
X0038261Y0068479D01*
X0038303Y0068435D01*
X0038347Y0068393D01*
X0038393Y0068355D01*
X0038442Y0068319D01*
X0038493Y0068286D01*
X0038545Y0068257D01*
X0038600Y0068230D01*
X0038655Y0068207D01*
X0038712Y0068187D01*
X0038771Y0068171D01*
X0038830Y0068158D01*
X0038889Y0068149D01*
X0038950Y0068144D01*
X0039010Y0068142D01*
X0056010Y0068142D01*
X0056070Y0068144D01*
X0056131Y0068149D01*
X0056190Y0068158D01*
X0056249Y0068171D01*
X0056308Y0068187D01*
X0056365Y0068207D01*
X0056420Y0068230D01*
X0056475Y0068257D01*
X0056527Y0068286D01*
X0056578Y0068319D01*
X0056627Y0068355D01*
X0056673Y0068393D01*
X0056717Y0068435D01*
X0056759Y0068479D01*
X0056797Y0068525D01*
X0056833Y0068574D01*
X0056866Y0068625D01*
X0056895Y0068677D01*
X0056922Y0068732D01*
X0056945Y0068787D01*
X0056965Y0068844D01*
X0056981Y0068903D01*
X0056994Y0068962D01*
X0057003Y0069021D01*
X0057008Y0069082D01*
X0057010Y0069142D01*
X0056510Y0072142D02*
X0054510Y0072142D01*
X0047510Y0075142D02*
X0047510Y0076142D01*
X0040510Y0072142D02*
X0038510Y0072142D01*
X0047510Y0069142D02*
X0047510Y0068142D01*
D14*
X0043261Y0074880D02*
X0043509Y0072142D01*
X0043509Y0072142D01*
X0043261Y0069404D01*
X0043260Y0069403D01*
X0043157Y0069415D01*
X0043053Y0069430D01*
X0042951Y0069449D01*
X0042849Y0069473D01*
X0042748Y0069500D01*
X0042649Y0069530D01*
X0042550Y0069565D01*
X0042453Y0069603D01*
X0042358Y0069645D01*
X0042264Y0069691D01*
X0042172Y0069740D01*
X0042081Y0069792D01*
X0041993Y0069848D01*
X0041907Y0069907D01*
X0041824Y0069970D01*
X0041743Y0070035D01*
X0041664Y0070104D01*
X0041588Y0070175D01*
X0041515Y0070250D01*
X0041444Y0070327D01*
X0041377Y0070406D01*
X0041313Y0070489D01*
X0041251Y0070573D01*
X0041194Y0070660D01*
X0041139Y0070749D01*
X0041088Y0070840D01*
X0041040Y0070933D01*
X0040996Y0071027D01*
X0040956Y0071123D01*
X0040919Y0071221D01*
X0040886Y0071320D01*
X0040856Y0071420D01*
X0040831Y0071521D01*
X0040809Y0071623D01*
X0040792Y0071726D01*
X0040778Y0071830D01*
X0040768Y0071933D01*
X0040762Y0072038D01*
X0040760Y0072142D01*
X0040762Y0072246D01*
X0040768Y0072351D01*
X0040778Y0072454D01*
X0040792Y0072558D01*
X0040809Y0072661D01*
X0040831Y0072763D01*
X0040856Y0072864D01*
X0040886Y0072964D01*
X0040919Y0073063D01*
X0040956Y0073161D01*
X0040996Y0073257D01*
X0041040Y0073351D01*
X0041088Y0073444D01*
X0041139Y0073535D01*
X0041194Y0073624D01*
X0041251Y0073711D01*
X0041313Y0073795D01*
X0041377Y0073878D01*
X0041444Y0073957D01*
X0041515Y0074034D01*
X0041588Y0074109D01*
X0041664Y0074180D01*
X0041743Y0074249D01*
X0041824Y0074314D01*
X0041907Y0074377D01*
X0041993Y0074436D01*
X0042081Y0074492D01*
X0042172Y0074544D01*
X0042264Y0074593D01*
X0042358Y0074639D01*
X0042453Y0074681D01*
X0042550Y0074719D01*
X0042649Y0074754D01*
X0042748Y0074784D01*
X0042849Y0074811D01*
X0042951Y0074835D01*
X0043053Y0074854D01*
X0043157Y0074869D01*
X0043260Y0074881D01*
X0043261Y0074404D01*
X0043166Y0074392D01*
X0043073Y0074376D01*
X0042980Y0074355D01*
X0042888Y0074331D01*
X0042797Y0074303D01*
X0042708Y0074272D01*
X0042619Y0074237D01*
X0042533Y0074198D01*
X0042448Y0074155D01*
X0042365Y0074109D01*
X0042284Y0074059D01*
X0042205Y0074007D01*
X0042128Y0073950D01*
X0042054Y0073891D01*
X0041982Y0073829D01*
X0041913Y0073764D01*
X0041847Y0073696D01*
X0041783Y0073625D01*
X0041723Y0073552D01*
X0041666Y0073476D01*
X0041612Y0073398D01*
X0041561Y0073317D01*
X0041514Y0073235D01*
X0041470Y0073151D01*
X0041429Y0073065D01*
X0041393Y0072977D01*
X0041360Y0072888D01*
X0041330Y0072798D01*
X0041305Y0072706D01*
X0041283Y0072614D01*
X0041266Y0072520D01*
X0041252Y0072426D01*
X0041242Y0072332D01*
X0041236Y0072237D01*
X0041234Y0072142D01*
X0041236Y0072047D01*
X0041242Y0071952D01*
X0041252Y0071858D01*
X0041266Y0071764D01*
X0041283Y0071670D01*
X0041305Y0071578D01*
X0041330Y0071486D01*
X0041360Y0071396D01*
X0041393Y0071307D01*
X0041429Y0071219D01*
X0041470Y0071133D01*
X0041514Y0071049D01*
X0041561Y0070967D01*
X0041612Y0070886D01*
X0041666Y0070808D01*
X0041723Y0070732D01*
X0041783Y0070659D01*
X0041847Y0070588D01*
X0041913Y0070520D01*
X0041982Y0070455D01*
X0042054Y0070393D01*
X0042128Y0070334D01*
X0042205Y0070277D01*
X0042284Y0070225D01*
X0042365Y0070175D01*
X0042448Y0070129D01*
X0042533Y0070086D01*
X0042619Y0070047D01*
X0042708Y0070012D01*
X0042797Y0069981D01*
X0042888Y0069953D01*
X0042980Y0069929D01*
X0043073Y0069908D01*
X0043166Y0069892D01*
X0043261Y0069880D01*
X0043261Y0070357D01*
X0043179Y0070371D01*
X0043097Y0070388D01*
X0043017Y0070409D01*
X0042937Y0070433D01*
X0042859Y0070462D01*
X0042782Y0070494D01*
X0042707Y0070529D01*
X0042633Y0070568D01*
X0042561Y0070610D01*
X0042491Y0070655D01*
X0042424Y0070704D01*
X0042359Y0070756D01*
X0042296Y0070810D01*
X0042236Y0070868D01*
X0042178Y0070928D01*
X0042124Y0070991D01*
X0042072Y0071056D01*
X0042023Y0071124D01*
X0041978Y0071193D01*
X0041936Y0071265D01*
X0041897Y0071339D01*
X0041862Y0071414D01*
X0041830Y0071491D01*
X0041801Y0071569D01*
X0041777Y0071649D01*
X0041756Y0071729D01*
X0041739Y0071811D01*
X0041725Y0071893D01*
X0041716Y0071976D01*
X0041710Y0072059D01*
X0041708Y0072142D01*
X0041710Y0072225D01*
X0041716Y0072308D01*
X0041725Y0072391D01*
X0041739Y0072473D01*
X0041756Y0072555D01*
X0041777Y0072635D01*
X0041801Y0072715D01*
X0041830Y0072793D01*
X0041862Y0072870D01*
X0041897Y0072945D01*
X0041936Y0073019D01*
X0041978Y0073091D01*
X0042023Y0073160D01*
X0042072Y0073228D01*
X0042124Y0073293D01*
X0042178Y0073356D01*
X0042236Y0073416D01*
X0042296Y0073474D01*
X0042359Y0073528D01*
X0042424Y0073580D01*
X0042491Y0073629D01*
X0042561Y0073674D01*
X0042633Y0073716D01*
X0042707Y0073755D01*
X0042782Y0073790D01*
X0042859Y0073822D01*
X0042937Y0073851D01*
X0043017Y0073875D01*
X0043097Y0073896D01*
X0043179Y0073913D01*
X0043261Y0073927D01*
X0043261Y0073447D01*
X0043191Y0073431D01*
X0043122Y0073412D01*
X0043054Y0073389D01*
X0042987Y0073363D01*
X0042921Y0073332D01*
X0042858Y0073299D01*
X0042796Y0073262D01*
X0042736Y0073221D01*
X0042679Y0073178D01*
X0042624Y0073131D01*
X0042572Y0073082D01*
X0042522Y0073030D01*
X0042475Y0072975D01*
X0042432Y0072917D01*
X0042391Y0072858D01*
X0042354Y0072796D01*
X0042321Y0072733D01*
X0042290Y0072667D01*
X0042264Y0072600D01*
X0042241Y0072532D01*
X0042221Y0072463D01*
X0042206Y0072392D01*
X0042194Y0072321D01*
X0042186Y0072250D01*
X0042182Y0072178D01*
X0042182Y0072106D01*
X0042186Y0072034D01*
X0042194Y0071963D01*
X0042206Y0071892D01*
X0042221Y0071821D01*
X0042241Y0071752D01*
X0042264Y0071684D01*
X0042290Y0071617D01*
X0042321Y0071551D01*
X0042354Y0071488D01*
X0042391Y0071426D01*
X0042432Y0071367D01*
X0042475Y0071309D01*
X0042522Y0071254D01*
X0042572Y0071202D01*
X0042624Y0071153D01*
X0042679Y0071106D01*
X0042736Y0071063D01*
X0042796Y0071022D01*
X0042858Y0070985D01*
X0042921Y0070952D01*
X0042987Y0070921D01*
X0043054Y0070895D01*
X0043122Y0070872D01*
X0043191Y0070853D01*
X0043261Y0070837D01*
X0043264Y0071324D01*
X0043209Y0071343D01*
X0043156Y0071365D01*
X0043105Y0071390D01*
X0043055Y0071419D01*
X0043008Y0071451D01*
X0042962Y0071487D01*
X0042919Y0071525D01*
X0042879Y0071566D01*
X0042842Y0071610D01*
X0042808Y0071656D01*
X0042777Y0071704D01*
X0042749Y0071755D01*
X0042725Y0071807D01*
X0042704Y0071860D01*
X0042687Y0071915D01*
X0042673Y0071971D01*
X0042664Y0072027D01*
X0042658Y0072085D01*
X0042656Y0072142D01*
X0042658Y0072199D01*
X0042664Y0072257D01*
X0042673Y0072313D01*
X0042687Y0072369D01*
X0042704Y0072424D01*
X0042725Y0072477D01*
X0042749Y0072529D01*
X0042777Y0072580D01*
X0042808Y0072628D01*
X0042842Y0072674D01*
X0042879Y0072718D01*
X0042919Y0072759D01*
X0042962Y0072797D01*
X0043008Y0072833D01*
X0043055Y0072865D01*
X0043105Y0072894D01*
X0043156Y0072919D01*
X0043209Y0072941D01*
X0043264Y0072960D01*
X0043278Y0072443D01*
X0043250Y0072419D01*
X0043224Y0072393D01*
X0043202Y0072364D01*
X0043182Y0072334D01*
X0043165Y0072301D01*
X0043151Y0072267D01*
X0043141Y0072232D01*
X0043134Y0072197D01*
X0043130Y0072160D01*
X0043130Y0072124D01*
X0043134Y0072087D01*
X0043141Y0072052D01*
X0043151Y0072017D01*
X0043165Y0071983D01*
X0043182Y0071950D01*
X0043202Y0071920D01*
X0043224Y0071891D01*
X0043250Y0071865D01*
X0043278Y0071841D01*
X0051759Y0069404D02*
X0051511Y0072142D01*
X0051511Y0072142D01*
X0051759Y0074880D01*
X0051760Y0074881D01*
X0051863Y0074869D01*
X0051967Y0074854D01*
X0052069Y0074835D01*
X0052171Y0074811D01*
X0052272Y0074784D01*
X0052371Y0074754D01*
X0052470Y0074719D01*
X0052567Y0074681D01*
X0052662Y0074639D01*
X0052756Y0074593D01*
X0052848Y0074544D01*
X0052939Y0074492D01*
X0053027Y0074436D01*
X0053113Y0074377D01*
X0053196Y0074314D01*
X0053277Y0074249D01*
X0053356Y0074180D01*
X0053432Y0074109D01*
X0053505Y0074034D01*
X0053576Y0073957D01*
X0053643Y0073878D01*
X0053707Y0073795D01*
X0053769Y0073711D01*
X0053826Y0073624D01*
X0053881Y0073535D01*
X0053932Y0073444D01*
X0053980Y0073351D01*
X0054024Y0073257D01*
X0054064Y0073161D01*
X0054101Y0073063D01*
X0054134Y0072964D01*
X0054164Y0072864D01*
X0054189Y0072763D01*
X0054211Y0072661D01*
X0054228Y0072558D01*
X0054242Y0072454D01*
X0054252Y0072351D01*
X0054258Y0072246D01*
X0054260Y0072142D01*
X0054258Y0072038D01*
X0054252Y0071933D01*
X0054242Y0071830D01*
X0054228Y0071726D01*
X0054211Y0071623D01*
X0054189Y0071521D01*
X0054164Y0071420D01*
X0054134Y0071320D01*
X0054101Y0071221D01*
X0054064Y0071123D01*
X0054024Y0071027D01*
X0053980Y0070933D01*
X0053932Y0070840D01*
X0053881Y0070749D01*
X0053826Y0070660D01*
X0053769Y0070573D01*
X0053707Y0070489D01*
X0053643Y0070406D01*
X0053576Y0070327D01*
X0053505Y0070250D01*
X0053432Y0070175D01*
X0053356Y0070104D01*
X0053277Y0070035D01*
X0053196Y0069970D01*
X0053113Y0069907D01*
X0053027Y0069848D01*
X0052939Y0069792D01*
X0052848Y0069740D01*
X0052756Y0069691D01*
X0052662Y0069645D01*
X0052567Y0069603D01*
X0052470Y0069565D01*
X0052371Y0069530D01*
X0052272Y0069500D01*
X0052171Y0069473D01*
X0052069Y0069449D01*
X0051967Y0069430D01*
X0051863Y0069415D01*
X0051760Y0069403D01*
X0051759Y0069880D01*
X0051854Y0069892D01*
X0051947Y0069908D01*
X0052040Y0069929D01*
X0052132Y0069953D01*
X0052223Y0069981D01*
X0052312Y0070012D01*
X0052401Y0070047D01*
X0052487Y0070086D01*
X0052572Y0070129D01*
X0052655Y0070175D01*
X0052736Y0070225D01*
X0052815Y0070277D01*
X0052892Y0070334D01*
X0052966Y0070393D01*
X0053038Y0070455D01*
X0053107Y0070520D01*
X0053173Y0070588D01*
X0053237Y0070659D01*
X0053297Y0070732D01*
X0053354Y0070808D01*
X0053408Y0070886D01*
X0053459Y0070967D01*
X0053506Y0071049D01*
X0053550Y0071133D01*
X0053591Y0071219D01*
X0053627Y0071307D01*
X0053660Y0071396D01*
X0053690Y0071486D01*
X0053715Y0071578D01*
X0053737Y0071670D01*
X0053754Y0071764D01*
X0053768Y0071858D01*
X0053778Y0071952D01*
X0053784Y0072047D01*
X0053786Y0072142D01*
X0053784Y0072237D01*
X0053778Y0072332D01*
X0053768Y0072426D01*
X0053754Y0072520D01*
X0053737Y0072614D01*
X0053715Y0072706D01*
X0053690Y0072798D01*
X0053660Y0072888D01*
X0053627Y0072977D01*
X0053591Y0073065D01*
X0053550Y0073151D01*
X0053506Y0073235D01*
X0053459Y0073317D01*
X0053408Y0073398D01*
X0053354Y0073476D01*
X0053297Y0073552D01*
X0053237Y0073625D01*
X0053173Y0073696D01*
X0053107Y0073764D01*
X0053038Y0073829D01*
X0052966Y0073891D01*
X0052892Y0073950D01*
X0052815Y0074007D01*
X0052736Y0074059D01*
X0052655Y0074109D01*
X0052572Y0074155D01*
X0052487Y0074198D01*
X0052401Y0074237D01*
X0052312Y0074272D01*
X0052223Y0074303D01*
X0052132Y0074331D01*
X0052040Y0074355D01*
X0051947Y0074376D01*
X0051854Y0074392D01*
X0051759Y0074404D01*
X0051759Y0073927D01*
X0051841Y0073913D01*
X0051923Y0073896D01*
X0052003Y0073875D01*
X0052083Y0073851D01*
X0052161Y0073822D01*
X0052238Y0073790D01*
X0052313Y0073755D01*
X0052387Y0073716D01*
X0052459Y0073674D01*
X0052529Y0073629D01*
X0052596Y0073580D01*
X0052661Y0073528D01*
X0052724Y0073474D01*
X0052784Y0073416D01*
X0052842Y0073356D01*
X0052896Y0073293D01*
X0052948Y0073228D01*
X0052997Y0073160D01*
X0053042Y0073091D01*
X0053084Y0073019D01*
X0053123Y0072945D01*
X0053158Y0072870D01*
X0053190Y0072793D01*
X0053219Y0072715D01*
X0053243Y0072635D01*
X0053264Y0072555D01*
X0053281Y0072473D01*
X0053295Y0072391D01*
X0053304Y0072308D01*
X0053310Y0072225D01*
X0053312Y0072142D01*
X0053310Y0072059D01*
X0053304Y0071976D01*
X0053295Y0071893D01*
X0053281Y0071811D01*
X0053264Y0071729D01*
X0053243Y0071649D01*
X0053219Y0071569D01*
X0053190Y0071491D01*
X0053158Y0071414D01*
X0053123Y0071339D01*
X0053084Y0071265D01*
X0053042Y0071193D01*
X0052997Y0071124D01*
X0052948Y0071056D01*
X0052896Y0070991D01*
X0052842Y0070928D01*
X0052784Y0070868D01*
X0052724Y0070810D01*
X0052661Y0070756D01*
X0052596Y0070704D01*
X0052529Y0070655D01*
X0052459Y0070610D01*
X0052387Y0070568D01*
X0052313Y0070529D01*
X0052238Y0070494D01*
X0052161Y0070462D01*
X0052083Y0070433D01*
X0052003Y0070409D01*
X0051923Y0070388D01*
X0051841Y0070371D01*
X0051759Y0070357D01*
X0051759Y0070837D01*
X0051829Y0070853D01*
X0051898Y0070872D01*
X0051966Y0070895D01*
X0052033Y0070921D01*
X0052099Y0070952D01*
X0052162Y0070985D01*
X0052224Y0071022D01*
X0052284Y0071063D01*
X0052341Y0071106D01*
X0052396Y0071153D01*
X0052448Y0071202D01*
X0052498Y0071254D01*
X0052545Y0071309D01*
X0052588Y0071367D01*
X0052629Y0071426D01*
X0052666Y0071488D01*
X0052699Y0071551D01*
X0052730Y0071617D01*
X0052756Y0071684D01*
X0052779Y0071752D01*
X0052799Y0071821D01*
X0052814Y0071892D01*
X0052826Y0071963D01*
X0052834Y0072034D01*
X0052838Y0072106D01*
X0052838Y0072178D01*
X0052834Y0072250D01*
X0052826Y0072321D01*
X0052814Y0072392D01*
X0052799Y0072463D01*
X0052779Y0072532D01*
X0052756Y0072600D01*
X0052730Y0072667D01*
X0052699Y0072733D01*
X0052666Y0072796D01*
X0052629Y0072858D01*
X0052588Y0072917D01*
X0052545Y0072975D01*
X0052498Y0073030D01*
X0052448Y0073082D01*
X0052396Y0073131D01*
X0052341Y0073178D01*
X0052284Y0073221D01*
X0052224Y0073262D01*
X0052162Y0073299D01*
X0052099Y0073332D01*
X0052033Y0073363D01*
X0051966Y0073389D01*
X0051898Y0073412D01*
X0051829Y0073431D01*
X0051759Y0073447D01*
X0051756Y0072960D01*
X0051811Y0072941D01*
X0051864Y0072919D01*
X0051915Y0072894D01*
X0051965Y0072865D01*
X0052012Y0072833D01*
X0052058Y0072797D01*
X0052101Y0072759D01*
X0052141Y0072718D01*
X0052178Y0072674D01*
X0052212Y0072628D01*
X0052243Y0072580D01*
X0052271Y0072529D01*
X0052295Y0072477D01*
X0052316Y0072424D01*
X0052333Y0072369D01*
X0052347Y0072313D01*
X0052356Y0072257D01*
X0052362Y0072199D01*
X0052364Y0072142D01*
X0052362Y0072085D01*
X0052356Y0072027D01*
X0052347Y0071971D01*
X0052333Y0071915D01*
X0052316Y0071860D01*
X0052295Y0071807D01*
X0052271Y0071755D01*
X0052243Y0071704D01*
X0052212Y0071656D01*
X0052178Y0071610D01*
X0052141Y0071566D01*
X0052101Y0071525D01*
X0052058Y0071487D01*
X0052012Y0071451D01*
X0051965Y0071419D01*
X0051915Y0071390D01*
X0051864Y0071365D01*
X0051811Y0071343D01*
X0051756Y0071324D01*
X0051742Y0071841D01*
X0051770Y0071865D01*
X0051796Y0071891D01*
X0051818Y0071920D01*
X0051838Y0071950D01*
X0051855Y0071983D01*
X0051869Y0072017D01*
X0051879Y0072052D01*
X0051886Y0072087D01*
X0051890Y0072124D01*
X0051890Y0072160D01*
X0051886Y0072197D01*
X0051879Y0072232D01*
X0051869Y0072267D01*
X0051855Y0072301D01*
X0051838Y0072334D01*
X0051818Y0072364D01*
X0051796Y0072393D01*
X0051770Y0072419D01*
X0051742Y0072443D01*
X0052157Y0076641D02*
X0049154Y0076641D01*
X0047553Y0077392D02*
X0044550Y0077392D01*
X0042949Y0078142D02*
X0042198Y0077392D01*
X0040697Y0077392D01*
X0039946Y0078142D01*
X0039946Y0078893D01*
X0040697Y0079644D01*
X0042198Y0079644D01*
X0042949Y0080394D01*
X0042949Y0081145D01*
X0042198Y0081895D01*
X0040697Y0081895D01*
X0039946Y0081145D01*
X0038345Y0081895D02*
X0036843Y0080394D01*
X0035342Y0081895D01*
X0035342Y0077392D01*
X0038345Y0077392D02*
X0038345Y0081895D01*
X0047553Y0081895D02*
X0047553Y0077392D01*
X0054509Y0078142D02*
X0054509Y0081895D01*
X0055259Y0081895D02*
X0053758Y0081895D01*
X0054509Y0078142D02*
X0055259Y0077392D01*
X0056010Y0077392D01*
X0056760Y0078142D01*
X0080092Y0073645D02*
X0080092Y0072144D01*
X0080843Y0071393D01*
X0083095Y0071393D01*
X0083095Y0069892D02*
X0083095Y0074395D01*
X0080843Y0074395D01*
X0080092Y0073645D01*
X0081593Y0071393D02*
X0080092Y0069892D01*
X0084696Y0073645D02*
X0084696Y0074395D01*
X0084696Y0073645D02*
X0086197Y0072144D01*
X0086197Y0069892D01*
X0086197Y0072144D02*
X0087699Y0073645D01*
X0087699Y0074395D01*
X0089300Y0073645D02*
X0090051Y0074395D01*
X0091552Y0074395D01*
X0092303Y0073645D01*
X0092303Y0070642D01*
X0091552Y0069892D01*
X0090051Y0069892D01*
X0089300Y0070642D01*
X0089300Y0072144D01*
X0090801Y0072144D01*
X0093904Y0069141D02*
X0096907Y0069141D01*
X0099259Y0070642D02*
X0099259Y0074395D01*
X0100009Y0074395D02*
X0098508Y0074395D01*
X0099259Y0070642D02*
X0100009Y0069892D01*
X0100760Y0069892D01*
X0101510Y0070642D01*
X0096134Y0060029D02*
X0095886Y0062767D01*
X0095886Y0062767D01*
X0096134Y0065505D01*
X0096135Y0065506D01*
X0096238Y0065494D01*
X0096342Y0065479D01*
X0096444Y0065460D01*
X0096546Y0065436D01*
X0096647Y0065409D01*
X0096746Y0065379D01*
X0096845Y0065344D01*
X0096942Y0065306D01*
X0097037Y0065264D01*
X0097131Y0065218D01*
X0097223Y0065169D01*
X0097314Y0065117D01*
X0097402Y0065061D01*
X0097488Y0065002D01*
X0097571Y0064939D01*
X0097652Y0064874D01*
X0097731Y0064805D01*
X0097807Y0064734D01*
X0097880Y0064659D01*
X0097951Y0064582D01*
X0098018Y0064503D01*
X0098082Y0064420D01*
X0098144Y0064336D01*
X0098201Y0064249D01*
X0098256Y0064160D01*
X0098307Y0064069D01*
X0098355Y0063976D01*
X0098399Y0063882D01*
X0098439Y0063786D01*
X0098476Y0063688D01*
X0098509Y0063589D01*
X0098539Y0063489D01*
X0098564Y0063388D01*
X0098586Y0063286D01*
X0098603Y0063183D01*
X0098617Y0063079D01*
X0098627Y0062976D01*
X0098633Y0062871D01*
X0098635Y0062767D01*
X0098633Y0062663D01*
X0098627Y0062558D01*
X0098617Y0062455D01*
X0098603Y0062351D01*
X0098586Y0062248D01*
X0098564Y0062146D01*
X0098539Y0062045D01*
X0098509Y0061945D01*
X0098476Y0061846D01*
X0098439Y0061748D01*
X0098399Y0061652D01*
X0098355Y0061558D01*
X0098307Y0061465D01*
X0098256Y0061374D01*
X0098201Y0061285D01*
X0098144Y0061198D01*
X0098082Y0061114D01*
X0098018Y0061031D01*
X0097951Y0060952D01*
X0097880Y0060875D01*
X0097807Y0060800D01*
X0097731Y0060729D01*
X0097652Y0060660D01*
X0097571Y0060595D01*
X0097488Y0060532D01*
X0097402Y0060473D01*
X0097314Y0060417D01*
X0097223Y0060365D01*
X0097131Y0060316D01*
X0097037Y0060270D01*
X0096942Y0060228D01*
X0096845Y0060190D01*
X0096746Y0060155D01*
X0096647Y0060125D01*
X0096546Y0060098D01*
X0096444Y0060074D01*
X0096342Y0060055D01*
X0096238Y0060040D01*
X0096135Y0060028D01*
X0096134Y0060505D01*
X0096229Y0060517D01*
X0096322Y0060533D01*
X0096415Y0060554D01*
X0096507Y0060578D01*
X0096598Y0060606D01*
X0096687Y0060637D01*
X0096776Y0060672D01*
X0096862Y0060711D01*
X0096947Y0060754D01*
X0097030Y0060800D01*
X0097111Y0060850D01*
X0097190Y0060902D01*
X0097267Y0060959D01*
X0097341Y0061018D01*
X0097413Y0061080D01*
X0097482Y0061145D01*
X0097548Y0061213D01*
X0097612Y0061284D01*
X0097672Y0061357D01*
X0097729Y0061433D01*
X0097783Y0061511D01*
X0097834Y0061592D01*
X0097881Y0061674D01*
X0097925Y0061758D01*
X0097966Y0061844D01*
X0098002Y0061932D01*
X0098035Y0062021D01*
X0098065Y0062111D01*
X0098090Y0062203D01*
X0098112Y0062295D01*
X0098129Y0062389D01*
X0098143Y0062483D01*
X0098153Y0062577D01*
X0098159Y0062672D01*
X0098161Y0062767D01*
X0098159Y0062862D01*
X0098153Y0062957D01*
X0098143Y0063051D01*
X0098129Y0063145D01*
X0098112Y0063239D01*
X0098090Y0063331D01*
X0098065Y0063423D01*
X0098035Y0063513D01*
X0098002Y0063602D01*
X0097966Y0063690D01*
X0097925Y0063776D01*
X0097881Y0063860D01*
X0097834Y0063942D01*
X0097783Y0064023D01*
X0097729Y0064101D01*
X0097672Y0064177D01*
X0097612Y0064250D01*
X0097548Y0064321D01*
X0097482Y0064389D01*
X0097413Y0064454D01*
X0097341Y0064516D01*
X0097267Y0064575D01*
X0097190Y0064632D01*
X0097111Y0064684D01*
X0097030Y0064734D01*
X0096947Y0064780D01*
X0096862Y0064823D01*
X0096776Y0064862D01*
X0096687Y0064897D01*
X0096598Y0064928D01*
X0096507Y0064956D01*
X0096415Y0064980D01*
X0096322Y0065001D01*
X0096229Y0065017D01*
X0096134Y0065029D01*
X0096134Y0064552D01*
X0096216Y0064538D01*
X0096298Y0064521D01*
X0096378Y0064500D01*
X0096458Y0064476D01*
X0096536Y0064447D01*
X0096613Y0064415D01*
X0096688Y0064380D01*
X0096762Y0064341D01*
X0096834Y0064299D01*
X0096904Y0064254D01*
X0096971Y0064205D01*
X0097036Y0064153D01*
X0097099Y0064099D01*
X0097159Y0064041D01*
X0097217Y0063981D01*
X0097271Y0063918D01*
X0097323Y0063853D01*
X0097372Y0063785D01*
X0097417Y0063716D01*
X0097459Y0063644D01*
X0097498Y0063570D01*
X0097533Y0063495D01*
X0097565Y0063418D01*
X0097594Y0063340D01*
X0097618Y0063260D01*
X0097639Y0063180D01*
X0097656Y0063098D01*
X0097670Y0063016D01*
X0097679Y0062933D01*
X0097685Y0062850D01*
X0097687Y0062767D01*
X0097685Y0062684D01*
X0097679Y0062601D01*
X0097670Y0062518D01*
X0097656Y0062436D01*
X0097639Y0062354D01*
X0097618Y0062274D01*
X0097594Y0062194D01*
X0097565Y0062116D01*
X0097533Y0062039D01*
X0097498Y0061964D01*
X0097459Y0061890D01*
X0097417Y0061818D01*
X0097372Y0061749D01*
X0097323Y0061681D01*
X0097271Y0061616D01*
X0097217Y0061553D01*
X0097159Y0061493D01*
X0097099Y0061435D01*
X0097036Y0061381D01*
X0096971Y0061329D01*
X0096904Y0061280D01*
X0096834Y0061235D01*
X0096762Y0061193D01*
X0096688Y0061154D01*
X0096613Y0061119D01*
X0096536Y0061087D01*
X0096458Y0061058D01*
X0096378Y0061034D01*
X0096298Y0061013D01*
X0096216Y0060996D01*
X0096134Y0060982D01*
X0096134Y0061462D01*
X0096204Y0061478D01*
X0096273Y0061497D01*
X0096341Y0061520D01*
X0096408Y0061546D01*
X0096474Y0061577D01*
X0096537Y0061610D01*
X0096599Y0061647D01*
X0096659Y0061688D01*
X0096716Y0061731D01*
X0096771Y0061778D01*
X0096823Y0061827D01*
X0096873Y0061879D01*
X0096920Y0061934D01*
X0096963Y0061992D01*
X0097004Y0062051D01*
X0097041Y0062113D01*
X0097074Y0062176D01*
X0097105Y0062242D01*
X0097131Y0062309D01*
X0097154Y0062377D01*
X0097174Y0062446D01*
X0097189Y0062517D01*
X0097201Y0062588D01*
X0097209Y0062659D01*
X0097213Y0062731D01*
X0097213Y0062803D01*
X0097209Y0062875D01*
X0097201Y0062946D01*
X0097189Y0063017D01*
X0097174Y0063088D01*
X0097154Y0063157D01*
X0097131Y0063225D01*
X0097105Y0063292D01*
X0097074Y0063358D01*
X0097041Y0063421D01*
X0097004Y0063483D01*
X0096963Y0063542D01*
X0096920Y0063600D01*
X0096873Y0063655D01*
X0096823Y0063707D01*
X0096771Y0063756D01*
X0096716Y0063803D01*
X0096659Y0063846D01*
X0096599Y0063887D01*
X0096537Y0063924D01*
X0096474Y0063957D01*
X0096408Y0063988D01*
X0096341Y0064014D01*
X0096273Y0064037D01*
X0096204Y0064056D01*
X0096134Y0064072D01*
X0096131Y0063585D01*
X0096186Y0063566D01*
X0096239Y0063544D01*
X0096290Y0063519D01*
X0096340Y0063490D01*
X0096387Y0063458D01*
X0096433Y0063422D01*
X0096476Y0063384D01*
X0096516Y0063343D01*
X0096553Y0063299D01*
X0096587Y0063253D01*
X0096618Y0063205D01*
X0096646Y0063154D01*
X0096670Y0063102D01*
X0096691Y0063049D01*
X0096708Y0062994D01*
X0096722Y0062938D01*
X0096731Y0062882D01*
X0096737Y0062824D01*
X0096739Y0062767D01*
X0096737Y0062710D01*
X0096731Y0062652D01*
X0096722Y0062596D01*
X0096708Y0062540D01*
X0096691Y0062485D01*
X0096670Y0062432D01*
X0096646Y0062380D01*
X0096618Y0062329D01*
X0096587Y0062281D01*
X0096553Y0062235D01*
X0096516Y0062191D01*
X0096476Y0062150D01*
X0096433Y0062112D01*
X0096387Y0062076D01*
X0096340Y0062044D01*
X0096290Y0062015D01*
X0096239Y0061990D01*
X0096186Y0061968D01*
X0096131Y0061949D01*
X0096117Y0062466D01*
X0096145Y0062490D01*
X0096171Y0062516D01*
X0096193Y0062545D01*
X0096213Y0062575D01*
X0096230Y0062608D01*
X0096244Y0062642D01*
X0096254Y0062677D01*
X0096261Y0062712D01*
X0096265Y0062749D01*
X0096265Y0062785D01*
X0096261Y0062822D01*
X0096254Y0062857D01*
X0096244Y0062892D01*
X0096230Y0062926D01*
X0096213Y0062959D01*
X0096193Y0062989D01*
X0096171Y0063018D01*
X0096145Y0063044D01*
X0096117Y0063068D01*
X0087636Y0065505D02*
X0087884Y0062767D01*
X0087884Y0062767D01*
X0087636Y0060029D01*
X0087635Y0060028D01*
X0087532Y0060040D01*
X0087428Y0060055D01*
X0087326Y0060074D01*
X0087224Y0060098D01*
X0087123Y0060125D01*
X0087024Y0060155D01*
X0086925Y0060190D01*
X0086828Y0060228D01*
X0086733Y0060270D01*
X0086639Y0060316D01*
X0086547Y0060365D01*
X0086456Y0060417D01*
X0086368Y0060473D01*
X0086282Y0060532D01*
X0086199Y0060595D01*
X0086118Y0060660D01*
X0086039Y0060729D01*
X0085963Y0060800D01*
X0085890Y0060875D01*
X0085819Y0060952D01*
X0085752Y0061031D01*
X0085688Y0061114D01*
X0085626Y0061198D01*
X0085569Y0061285D01*
X0085514Y0061374D01*
X0085463Y0061465D01*
X0085415Y0061558D01*
X0085371Y0061652D01*
X0085331Y0061748D01*
X0085294Y0061846D01*
X0085261Y0061945D01*
X0085231Y0062045D01*
X0085206Y0062146D01*
X0085184Y0062248D01*
X0085167Y0062351D01*
X0085153Y0062455D01*
X0085143Y0062558D01*
X0085137Y0062663D01*
X0085135Y0062767D01*
X0085137Y0062871D01*
X0085143Y0062976D01*
X0085153Y0063079D01*
X0085167Y0063183D01*
X0085184Y0063286D01*
X0085206Y0063388D01*
X0085231Y0063489D01*
X0085261Y0063589D01*
X0085294Y0063688D01*
X0085331Y0063786D01*
X0085371Y0063882D01*
X0085415Y0063976D01*
X0085463Y0064069D01*
X0085514Y0064160D01*
X0085569Y0064249D01*
X0085626Y0064336D01*
X0085688Y0064420D01*
X0085752Y0064503D01*
X0085819Y0064582D01*
X0085890Y0064659D01*
X0085963Y0064734D01*
X0086039Y0064805D01*
X0086118Y0064874D01*
X0086199Y0064939D01*
X0086282Y0065002D01*
X0086368Y0065061D01*
X0086456Y0065117D01*
X0086547Y0065169D01*
X0086639Y0065218D01*
X0086733Y0065264D01*
X0086828Y0065306D01*
X0086925Y0065344D01*
X0087024Y0065379D01*
X0087123Y0065409D01*
X0087224Y0065436D01*
X0087326Y0065460D01*
X0087428Y0065479D01*
X0087532Y0065494D01*
X0087635Y0065506D01*
X0087636Y0065029D01*
X0087541Y0065017D01*
X0087448Y0065001D01*
X0087355Y0064980D01*
X0087263Y0064956D01*
X0087172Y0064928D01*
X0087083Y0064897D01*
X0086994Y0064862D01*
X0086908Y0064823D01*
X0086823Y0064780D01*
X0086740Y0064734D01*
X0086659Y0064684D01*
X0086580Y0064632D01*
X0086503Y0064575D01*
X0086429Y0064516D01*
X0086357Y0064454D01*
X0086288Y0064389D01*
X0086222Y0064321D01*
X0086158Y0064250D01*
X0086098Y0064177D01*
X0086041Y0064101D01*
X0085987Y0064023D01*
X0085936Y0063942D01*
X0085889Y0063860D01*
X0085845Y0063776D01*
X0085804Y0063690D01*
X0085768Y0063602D01*
X0085735Y0063513D01*
X0085705Y0063423D01*
X0085680Y0063331D01*
X0085658Y0063239D01*
X0085641Y0063145D01*
X0085627Y0063051D01*
X0085617Y0062957D01*
X0085611Y0062862D01*
X0085609Y0062767D01*
X0085611Y0062672D01*
X0085617Y0062577D01*
X0085627Y0062483D01*
X0085641Y0062389D01*
X0085658Y0062295D01*
X0085680Y0062203D01*
X0085705Y0062111D01*
X0085735Y0062021D01*
X0085768Y0061932D01*
X0085804Y0061844D01*
X0085845Y0061758D01*
X0085889Y0061674D01*
X0085936Y0061592D01*
X0085987Y0061511D01*
X0086041Y0061433D01*
X0086098Y0061357D01*
X0086158Y0061284D01*
X0086222Y0061213D01*
X0086288Y0061145D01*
X0086357Y0061080D01*
X0086429Y0061018D01*
X0086503Y0060959D01*
X0086580Y0060902D01*
X0086659Y0060850D01*
X0086740Y0060800D01*
X0086823Y0060754D01*
X0086908Y0060711D01*
X0086994Y0060672D01*
X0087083Y0060637D01*
X0087172Y0060606D01*
X0087263Y0060578D01*
X0087355Y0060554D01*
X0087448Y0060533D01*
X0087541Y0060517D01*
X0087636Y0060505D01*
X0087636Y0060982D01*
X0087554Y0060996D01*
X0087472Y0061013D01*
X0087392Y0061034D01*
X0087312Y0061058D01*
X0087234Y0061087D01*
X0087157Y0061119D01*
X0087082Y0061154D01*
X0087008Y0061193D01*
X0086936Y0061235D01*
X0086866Y0061280D01*
X0086799Y0061329D01*
X0086734Y0061381D01*
X0086671Y0061435D01*
X0086611Y0061493D01*
X0086553Y0061553D01*
X0086499Y0061616D01*
X0086447Y0061681D01*
X0086398Y0061749D01*
X0086353Y0061818D01*
X0086311Y0061890D01*
X0086272Y0061964D01*
X0086237Y0062039D01*
X0086205Y0062116D01*
X0086176Y0062194D01*
X0086152Y0062274D01*
X0086131Y0062354D01*
X0086114Y0062436D01*
X0086100Y0062518D01*
X0086091Y0062601D01*
X0086085Y0062684D01*
X0086083Y0062767D01*
X0086085Y0062850D01*
X0086091Y0062933D01*
X0086100Y0063016D01*
X0086114Y0063098D01*
X0086131Y0063180D01*
X0086152Y0063260D01*
X0086176Y0063340D01*
X0086205Y0063418D01*
X0086237Y0063495D01*
X0086272Y0063570D01*
X0086311Y0063644D01*
X0086353Y0063716D01*
X0086398Y0063785D01*
X0086447Y0063853D01*
X0086499Y0063918D01*
X0086553Y0063981D01*
X0086611Y0064041D01*
X0086671Y0064099D01*
X0086734Y0064153D01*
X0086799Y0064205D01*
X0086866Y0064254D01*
X0086936Y0064299D01*
X0087008Y0064341D01*
X0087082Y0064380D01*
X0087157Y0064415D01*
X0087234Y0064447D01*
X0087312Y0064476D01*
X0087392Y0064500D01*
X0087472Y0064521D01*
X0087554Y0064538D01*
X0087636Y0064552D01*
X0087636Y0064072D01*
X0087566Y0064056D01*
X0087497Y0064037D01*
X0087429Y0064014D01*
X0087362Y0063988D01*
X0087296Y0063957D01*
X0087233Y0063924D01*
X0087171Y0063887D01*
X0087111Y0063846D01*
X0087054Y0063803D01*
X0086999Y0063756D01*
X0086947Y0063707D01*
X0086897Y0063655D01*
X0086850Y0063600D01*
X0086807Y0063542D01*
X0086766Y0063483D01*
X0086729Y0063421D01*
X0086696Y0063358D01*
X0086665Y0063292D01*
X0086639Y0063225D01*
X0086616Y0063157D01*
X0086596Y0063088D01*
X0086581Y0063017D01*
X0086569Y0062946D01*
X0086561Y0062875D01*
X0086557Y0062803D01*
X0086557Y0062731D01*
X0086561Y0062659D01*
X0086569Y0062588D01*
X0086581Y0062517D01*
X0086596Y0062446D01*
X0086616Y0062377D01*
X0086639Y0062309D01*
X0086665Y0062242D01*
X0086696Y0062176D01*
X0086729Y0062113D01*
X0086766Y0062051D01*
X0086807Y0061992D01*
X0086850Y0061934D01*
X0086897Y0061879D01*
X0086947Y0061827D01*
X0086999Y0061778D01*
X0087054Y0061731D01*
X0087111Y0061688D01*
X0087171Y0061647D01*
X0087233Y0061610D01*
X0087296Y0061577D01*
X0087362Y0061546D01*
X0087429Y0061520D01*
X0087497Y0061497D01*
X0087566Y0061478D01*
X0087636Y0061462D01*
X0087639Y0061949D01*
X0087584Y0061968D01*
X0087531Y0061990D01*
X0087480Y0062015D01*
X0087430Y0062044D01*
X0087383Y0062076D01*
X0087337Y0062112D01*
X0087294Y0062150D01*
X0087254Y0062191D01*
X0087217Y0062235D01*
X0087183Y0062281D01*
X0087152Y0062329D01*
X0087124Y0062380D01*
X0087100Y0062432D01*
X0087079Y0062485D01*
X0087062Y0062540D01*
X0087048Y0062596D01*
X0087039Y0062652D01*
X0087033Y0062710D01*
X0087031Y0062767D01*
X0087033Y0062824D01*
X0087039Y0062882D01*
X0087048Y0062938D01*
X0087062Y0062994D01*
X0087079Y0063049D01*
X0087100Y0063102D01*
X0087124Y0063154D01*
X0087152Y0063205D01*
X0087183Y0063253D01*
X0087217Y0063299D01*
X0087254Y0063343D01*
X0087294Y0063384D01*
X0087337Y0063422D01*
X0087383Y0063458D01*
X0087430Y0063490D01*
X0087480Y0063519D01*
X0087531Y0063544D01*
X0087584Y0063566D01*
X0087639Y0063585D01*
X0087653Y0063068D01*
X0087625Y0063044D01*
X0087599Y0063018D01*
X0087577Y0062989D01*
X0087557Y0062959D01*
X0087540Y0062926D01*
X0087526Y0062892D01*
X0087516Y0062857D01*
X0087509Y0062822D01*
X0087505Y0062785D01*
X0087505Y0062749D01*
X0087509Y0062712D01*
X0087516Y0062677D01*
X0087526Y0062642D01*
X0087540Y0062608D01*
X0087557Y0062575D01*
X0087577Y0062545D01*
X0087599Y0062516D01*
X0087625Y0062490D01*
X0087653Y0062466D01*
X0175415Y0022772D02*
X0177450Y0021754D01*
X0179485Y0019719D01*
X0176432Y0019719D01*
X0175415Y0018702D01*
X0175415Y0017684D01*
X0176432Y0016667D01*
X0178467Y0016667D01*
X0179485Y0017684D01*
X0179485Y0019719D01*
X0183527Y0022772D02*
X0185562Y0020737D01*
X0187569Y0021754D02*
X0188587Y0022772D01*
X0190622Y0022772D01*
X0191639Y0021754D01*
X0191639Y0017684D01*
X0187569Y0021754D01*
X0187569Y0017684D01*
X0188587Y0016667D01*
X0190622Y0016667D01*
X0191639Y0017684D01*
X0193646Y0016667D02*
X0197716Y0016667D01*
X0193646Y0020737D01*
X0193646Y0021754D01*
X0194664Y0022772D01*
X0196699Y0022772D01*
X0197716Y0021754D01*
X0199724Y0022772D02*
X0203794Y0016667D01*
X0205801Y0017684D02*
X0206818Y0016667D01*
X0208853Y0016667D01*
X0209871Y0017684D01*
X0211878Y0017684D02*
X0212895Y0016667D01*
X0214931Y0016667D01*
X0215948Y0017684D01*
X0211878Y0021754D01*
X0211878Y0017684D01*
X0209871Y0019719D02*
X0207836Y0020737D01*
X0206818Y0020737D01*
X0205801Y0019719D01*
X0205801Y0017684D01*
X0209871Y0019719D02*
X0209871Y0022772D01*
X0205801Y0022772D01*
X0211878Y0021754D02*
X0212895Y0022772D01*
X0214931Y0022772D01*
X0215948Y0021754D01*
X0215948Y0017684D01*
X0211892Y0013889D02*
X0211892Y0012872D01*
X0211892Y0010837D02*
X0211892Y0006767D01*
X0212909Y0006767D02*
X0210874Y0006767D01*
X0207840Y0007784D02*
X0206823Y0006767D01*
X0207840Y0007784D02*
X0207840Y0011854D01*
X0208858Y0010837D02*
X0206823Y0010837D01*
X0203789Y0010837D02*
X0201754Y0010837D01*
X0200736Y0009819D01*
X0200736Y0006767D01*
X0203789Y0006767D01*
X0204807Y0007784D01*
X0203789Y0008802D01*
X0200736Y0008802D01*
X0198729Y0006767D02*
X0196694Y0006767D01*
X0197712Y0006767D02*
X0197712Y0012872D01*
X0198729Y0012872D01*
X0194678Y0009819D02*
X0193660Y0010837D01*
X0190608Y0010837D01*
X0188601Y0010837D02*
X0185548Y0010837D01*
X0184531Y0009819D01*
X0184531Y0007784D01*
X0185548Y0006767D01*
X0188601Y0006767D01*
X0188601Y0004732D02*
X0188601Y0010837D01*
X0191625Y0008802D02*
X0193660Y0008802D01*
X0194678Y0009819D01*
X0191625Y0008802D02*
X0190608Y0007784D01*
X0191625Y0006767D01*
X0194678Y0006767D01*
X0182524Y0006767D02*
X0180488Y0006767D01*
X0181506Y0006767D02*
X0181506Y0010837D01*
X0182524Y0010837D01*
X0181506Y0012872D02*
X0181506Y0013889D01*
X0181492Y0016667D02*
X0185562Y0016667D01*
X0183527Y0016667D02*
X0183527Y0022772D01*
X0172390Y0013889D02*
X0172390Y0012872D01*
X0172390Y0010837D02*
X0172390Y0006767D01*
X0171373Y0006767D02*
X0173408Y0006767D01*
X0178472Y0006767D02*
X0178472Y0010837D01*
X0176437Y0010837D02*
X0175419Y0010837D01*
X0176437Y0010837D02*
X0178472Y0008802D01*
X0173408Y0010837D02*
X0172390Y0010837D01*
X0169356Y0010837D02*
X0167321Y0010837D01*
X0168339Y0011854D02*
X0168339Y0007784D01*
X0167321Y0006767D01*
X0165305Y0006767D02*
X0164287Y0006767D01*
X0164287Y0007784D01*
X0165305Y0007784D01*
X0165305Y0006767D01*
X0162266Y0007784D02*
X0161249Y0006767D01*
X0159214Y0006767D01*
X0158196Y0007784D01*
X0158196Y0009819D01*
X0159214Y0010837D01*
X0161249Y0010837D01*
X0162266Y0009819D01*
X0162266Y0007784D01*
X0156189Y0006767D02*
X0156189Y0010837D01*
X0156189Y0008802D02*
X0154154Y0010837D01*
X0153136Y0010837D01*
X0151125Y0009819D02*
X0151125Y0007784D01*
X0150107Y0006767D01*
X0147055Y0006767D01*
X0147055Y0005749D02*
X0147055Y0010837D01*
X0150107Y0010837D01*
X0151125Y0009819D01*
X0147055Y0005749D02*
X0148072Y0004732D01*
X0149090Y0004732D01*
X0211892Y0010837D02*
X0212909Y0010837D01*
X0214916Y0010837D02*
X0217969Y0010837D01*
X0218987Y0009819D01*
X0218987Y0007784D01*
X0217969Y0006767D01*
X0214916Y0006767D01*
X0214916Y0005749D02*
X0214916Y0010837D01*
X0214916Y0005749D02*
X0215934Y0004732D01*
X0216952Y0004732D01*
X0221003Y0006767D02*
X0223038Y0006767D01*
X0222021Y0006767D02*
X0222021Y0010837D01*
X0223038Y0010837D01*
X0225045Y0010837D02*
X0228098Y0010837D01*
X0229115Y0009819D01*
X0229115Y0007784D01*
X0228098Y0006767D01*
X0225045Y0006767D01*
X0225045Y0012872D01*
X0226077Y0014632D02*
X0224042Y0016667D01*
X0225059Y0016667D01*
X0225059Y0017684D01*
X0224042Y0017684D01*
X0224042Y0016667D01*
X0222021Y0013889D02*
X0222021Y0012872D01*
X0228084Y0017684D02*
X0229101Y0016667D01*
X0231136Y0016667D01*
X0232154Y0017684D01*
X0232154Y0019719D01*
X0231136Y0020737D01*
X0229101Y0020737D01*
X0228084Y0019719D01*
X0228084Y0017684D01*
X0234161Y0016667D02*
X0237214Y0016667D01*
X0238231Y0017684D01*
X0238231Y0019719D01*
X0237214Y0020737D01*
X0234161Y0020737D01*
X0234161Y0015649D01*
X0235178Y0014632D01*
X0236196Y0014632D01*
X0240238Y0016667D02*
X0240238Y0020737D01*
X0244308Y0020737D02*
X0244308Y0017684D01*
X0243291Y0016667D01*
X0240238Y0016667D01*
X0246315Y0016667D02*
X0246315Y0019719D01*
X0247333Y0020737D01*
X0249368Y0020737D01*
X0250385Y0019719D01*
X0250385Y0016667D02*
X0250385Y0022772D01*
X0250385Y0010837D02*
X0250385Y0007784D01*
X0249368Y0006767D01*
X0248350Y0007784D01*
X0247333Y0006767D01*
X0246315Y0007784D01*
X0246315Y0010837D01*
X0244308Y0010837D02*
X0244308Y0007784D01*
X0243291Y0006767D01*
X0242273Y0007784D01*
X0241256Y0006767D01*
X0240238Y0007784D01*
X0240238Y0010837D01*
X0238231Y0010837D02*
X0238231Y0007784D01*
X0237214Y0006767D01*
X0236196Y0007784D01*
X0235178Y0006767D01*
X0234161Y0007784D01*
X0234161Y0010837D01*
X0232154Y0007784D02*
X0231136Y0007784D01*
X0231136Y0006767D01*
X0232154Y0006767D01*
X0232154Y0007784D01*
X0278190Y0043569D02*
X0282260Y0043569D01*
X0281475Y0051534D02*
X0281475Y0055604D01*
X0283510Y0053569D02*
X0279440Y0053569D01*
X0281475Y0061534D02*
X0281475Y0065604D01*
X0283510Y0063569D02*
X0279440Y0063569D01*
X0278190Y0073569D02*
X0282260Y0073569D01*
X0254323Y0068455D02*
X0253572Y0067704D01*
X0252822Y0067704D01*
X0252071Y0068455D01*
X0252071Y0072208D01*
X0252822Y0072208D02*
X0251320Y0072208D01*
X0245115Y0071457D02*
X0245115Y0068455D01*
X0244364Y0067704D01*
X0242863Y0067704D01*
X0242113Y0068455D01*
X0242113Y0069956D01*
X0243614Y0069956D01*
X0245115Y0071457D02*
X0244364Y0072208D01*
X0242863Y0072208D01*
X0242113Y0071457D01*
X0240511Y0070707D02*
X0239010Y0072208D01*
X0237509Y0070707D01*
X0237509Y0067704D01*
X0235907Y0067704D02*
X0234406Y0067704D01*
X0235157Y0067704D02*
X0235157Y0072208D01*
X0235907Y0072208D02*
X0234406Y0072208D01*
X0232838Y0072208D02*
X0229835Y0067704D01*
X0229835Y0072208D01*
X0232838Y0072208D02*
X0232838Y0067704D01*
X0237509Y0069956D02*
X0240511Y0069956D01*
X0240511Y0070707D02*
X0240511Y0067704D01*
X0246716Y0066954D02*
X0249719Y0066954D01*
X0253686Y0060453D02*
X0250948Y0060205D01*
X0250948Y0060205D01*
X0248210Y0060453D01*
X0248209Y0060454D01*
X0248221Y0060557D01*
X0248236Y0060661D01*
X0248255Y0060763D01*
X0248279Y0060865D01*
X0248306Y0060966D01*
X0248336Y0061065D01*
X0248371Y0061164D01*
X0248409Y0061261D01*
X0248451Y0061356D01*
X0248497Y0061450D01*
X0248546Y0061542D01*
X0248598Y0061633D01*
X0248654Y0061721D01*
X0248713Y0061807D01*
X0248776Y0061890D01*
X0248841Y0061971D01*
X0248910Y0062050D01*
X0248981Y0062126D01*
X0249056Y0062199D01*
X0249133Y0062270D01*
X0249212Y0062337D01*
X0249295Y0062401D01*
X0249379Y0062463D01*
X0249466Y0062520D01*
X0249555Y0062575D01*
X0249646Y0062626D01*
X0249739Y0062674D01*
X0249833Y0062718D01*
X0249929Y0062758D01*
X0250027Y0062795D01*
X0250126Y0062828D01*
X0250226Y0062858D01*
X0250327Y0062883D01*
X0250429Y0062905D01*
X0250532Y0062922D01*
X0250636Y0062936D01*
X0250739Y0062946D01*
X0250844Y0062952D01*
X0250948Y0062954D01*
X0251052Y0062952D01*
X0251157Y0062946D01*
X0251260Y0062936D01*
X0251364Y0062922D01*
X0251467Y0062905D01*
X0251569Y0062883D01*
X0251670Y0062858D01*
X0251770Y0062828D01*
X0251869Y0062795D01*
X0251967Y0062758D01*
X0252063Y0062718D01*
X0252157Y0062674D01*
X0252250Y0062626D01*
X0252341Y0062575D01*
X0252430Y0062520D01*
X0252517Y0062463D01*
X0252601Y0062401D01*
X0252684Y0062337D01*
X0252763Y0062270D01*
X0252840Y0062199D01*
X0252915Y0062126D01*
X0252986Y0062050D01*
X0253055Y0061971D01*
X0253120Y0061890D01*
X0253183Y0061807D01*
X0253242Y0061721D01*
X0253298Y0061633D01*
X0253350Y0061542D01*
X0253399Y0061450D01*
X0253445Y0061356D01*
X0253487Y0061261D01*
X0253525Y0061164D01*
X0253560Y0061065D01*
X0253590Y0060966D01*
X0253617Y0060865D01*
X0253641Y0060763D01*
X0253660Y0060661D01*
X0253675Y0060557D01*
X0253687Y0060454D01*
X0253210Y0060453D01*
X0253198Y0060548D01*
X0253182Y0060641D01*
X0253161Y0060734D01*
X0253137Y0060826D01*
X0253109Y0060917D01*
X0253078Y0061006D01*
X0253043Y0061095D01*
X0253004Y0061181D01*
X0252961Y0061266D01*
X0252915Y0061349D01*
X0252865Y0061430D01*
X0252813Y0061509D01*
X0252756Y0061586D01*
X0252697Y0061660D01*
X0252635Y0061732D01*
X0252570Y0061801D01*
X0252502Y0061867D01*
X0252431Y0061931D01*
X0252358Y0061991D01*
X0252282Y0062048D01*
X0252204Y0062102D01*
X0252123Y0062153D01*
X0252041Y0062200D01*
X0251957Y0062244D01*
X0251871Y0062285D01*
X0251783Y0062321D01*
X0251694Y0062354D01*
X0251604Y0062384D01*
X0251512Y0062409D01*
X0251420Y0062431D01*
X0251326Y0062448D01*
X0251232Y0062462D01*
X0251138Y0062472D01*
X0251043Y0062478D01*
X0250948Y0062480D01*
X0250853Y0062478D01*
X0250758Y0062472D01*
X0250664Y0062462D01*
X0250570Y0062448D01*
X0250476Y0062431D01*
X0250384Y0062409D01*
X0250292Y0062384D01*
X0250202Y0062354D01*
X0250113Y0062321D01*
X0250025Y0062285D01*
X0249939Y0062244D01*
X0249855Y0062200D01*
X0249773Y0062153D01*
X0249692Y0062102D01*
X0249614Y0062048D01*
X0249538Y0061991D01*
X0249465Y0061931D01*
X0249394Y0061867D01*
X0249326Y0061801D01*
X0249261Y0061732D01*
X0249199Y0061660D01*
X0249140Y0061586D01*
X0249083Y0061509D01*
X0249031Y0061430D01*
X0248981Y0061349D01*
X0248935Y0061266D01*
X0248892Y0061181D01*
X0248853Y0061095D01*
X0248818Y0061006D01*
X0248787Y0060917D01*
X0248759Y0060826D01*
X0248735Y0060734D01*
X0248714Y0060641D01*
X0248698Y0060548D01*
X0248686Y0060453D01*
X0249163Y0060453D01*
X0249177Y0060535D01*
X0249194Y0060617D01*
X0249215Y0060697D01*
X0249239Y0060777D01*
X0249268Y0060855D01*
X0249300Y0060932D01*
X0249335Y0061007D01*
X0249374Y0061081D01*
X0249416Y0061153D01*
X0249461Y0061223D01*
X0249510Y0061290D01*
X0249562Y0061355D01*
X0249616Y0061418D01*
X0249674Y0061478D01*
X0249734Y0061536D01*
X0249797Y0061590D01*
X0249862Y0061642D01*
X0249930Y0061691D01*
X0249999Y0061736D01*
X0250071Y0061778D01*
X0250145Y0061817D01*
X0250220Y0061852D01*
X0250297Y0061884D01*
X0250375Y0061913D01*
X0250455Y0061937D01*
X0250535Y0061958D01*
X0250617Y0061975D01*
X0250699Y0061989D01*
X0250782Y0061998D01*
X0250865Y0062004D01*
X0250948Y0062006D01*
X0251031Y0062004D01*
X0251114Y0061998D01*
X0251197Y0061989D01*
X0251279Y0061975D01*
X0251361Y0061958D01*
X0251441Y0061937D01*
X0251521Y0061913D01*
X0251599Y0061884D01*
X0251676Y0061852D01*
X0251751Y0061817D01*
X0251825Y0061778D01*
X0251897Y0061736D01*
X0251966Y0061691D01*
X0252034Y0061642D01*
X0252099Y0061590D01*
X0252162Y0061536D01*
X0252222Y0061478D01*
X0252280Y0061418D01*
X0252334Y0061355D01*
X0252386Y0061290D01*
X0252435Y0061223D01*
X0252480Y0061153D01*
X0252522Y0061081D01*
X0252561Y0061007D01*
X0252596Y0060932D01*
X0252628Y0060855D01*
X0252657Y0060777D01*
X0252681Y0060697D01*
X0252702Y0060617D01*
X0252719Y0060535D01*
X0252733Y0060453D01*
X0252253Y0060453D01*
X0252237Y0060523D01*
X0252218Y0060592D01*
X0252195Y0060660D01*
X0252169Y0060727D01*
X0252138Y0060793D01*
X0252105Y0060856D01*
X0252068Y0060918D01*
X0252027Y0060978D01*
X0251984Y0061035D01*
X0251937Y0061090D01*
X0251888Y0061142D01*
X0251836Y0061192D01*
X0251781Y0061239D01*
X0251723Y0061282D01*
X0251664Y0061323D01*
X0251602Y0061360D01*
X0251539Y0061393D01*
X0251473Y0061424D01*
X0251406Y0061450D01*
X0251338Y0061473D01*
X0251269Y0061493D01*
X0251198Y0061508D01*
X0251127Y0061520D01*
X0251056Y0061528D01*
X0250984Y0061532D01*
X0250912Y0061532D01*
X0250840Y0061528D01*
X0250769Y0061520D01*
X0250698Y0061508D01*
X0250627Y0061493D01*
X0250558Y0061473D01*
X0250490Y0061450D01*
X0250423Y0061424D01*
X0250357Y0061393D01*
X0250294Y0061360D01*
X0250232Y0061323D01*
X0250173Y0061282D01*
X0250115Y0061239D01*
X0250060Y0061192D01*
X0250008Y0061142D01*
X0249959Y0061090D01*
X0249912Y0061035D01*
X0249869Y0060978D01*
X0249828Y0060918D01*
X0249791Y0060856D01*
X0249758Y0060793D01*
X0249727Y0060727D01*
X0249701Y0060660D01*
X0249678Y0060592D01*
X0249659Y0060523D01*
X0249643Y0060453D01*
X0250130Y0060450D01*
X0250149Y0060505D01*
X0250171Y0060558D01*
X0250196Y0060609D01*
X0250225Y0060659D01*
X0250257Y0060706D01*
X0250293Y0060752D01*
X0250331Y0060795D01*
X0250372Y0060835D01*
X0250416Y0060872D01*
X0250462Y0060906D01*
X0250510Y0060937D01*
X0250561Y0060965D01*
X0250613Y0060989D01*
X0250666Y0061010D01*
X0250721Y0061027D01*
X0250777Y0061041D01*
X0250833Y0061050D01*
X0250891Y0061056D01*
X0250948Y0061058D01*
X0251005Y0061056D01*
X0251063Y0061050D01*
X0251119Y0061041D01*
X0251175Y0061027D01*
X0251230Y0061010D01*
X0251283Y0060989D01*
X0251335Y0060965D01*
X0251386Y0060937D01*
X0251434Y0060906D01*
X0251480Y0060872D01*
X0251524Y0060835D01*
X0251565Y0060795D01*
X0251603Y0060752D01*
X0251639Y0060706D01*
X0251671Y0060659D01*
X0251700Y0060609D01*
X0251725Y0060558D01*
X0251747Y0060505D01*
X0251766Y0060450D01*
X0251249Y0060436D01*
X0251225Y0060464D01*
X0251199Y0060490D01*
X0251170Y0060512D01*
X0251140Y0060532D01*
X0251107Y0060549D01*
X0251073Y0060563D01*
X0251038Y0060573D01*
X0251003Y0060580D01*
X0250966Y0060584D01*
X0250930Y0060584D01*
X0250893Y0060580D01*
X0250858Y0060573D01*
X0250823Y0060563D01*
X0250789Y0060549D01*
X0250756Y0060532D01*
X0250726Y0060512D01*
X0250697Y0060490D01*
X0250671Y0060464D01*
X0250647Y0060436D01*
X0248210Y0051955D02*
X0250948Y0052203D01*
X0250948Y0052203D01*
X0253686Y0051955D01*
X0253687Y0051954D01*
X0253675Y0051851D01*
X0253660Y0051747D01*
X0253641Y0051645D01*
X0253617Y0051543D01*
X0253590Y0051442D01*
X0253560Y0051343D01*
X0253525Y0051244D01*
X0253487Y0051147D01*
X0253445Y0051052D01*
X0253399Y0050958D01*
X0253350Y0050866D01*
X0253298Y0050775D01*
X0253242Y0050687D01*
X0253183Y0050601D01*
X0253120Y0050518D01*
X0253055Y0050437D01*
X0252986Y0050358D01*
X0252915Y0050282D01*
X0252840Y0050209D01*
X0252763Y0050138D01*
X0252684Y0050071D01*
X0252601Y0050007D01*
X0252517Y0049945D01*
X0252430Y0049888D01*
X0252341Y0049833D01*
X0252250Y0049782D01*
X0252157Y0049734D01*
X0252063Y0049690D01*
X0251967Y0049650D01*
X0251869Y0049613D01*
X0251770Y0049580D01*
X0251670Y0049550D01*
X0251569Y0049525D01*
X0251467Y0049503D01*
X0251364Y0049486D01*
X0251260Y0049472D01*
X0251157Y0049462D01*
X0251052Y0049456D01*
X0250948Y0049454D01*
X0250844Y0049456D01*
X0250739Y0049462D01*
X0250636Y0049472D01*
X0250532Y0049486D01*
X0250429Y0049503D01*
X0250327Y0049525D01*
X0250226Y0049550D01*
X0250126Y0049580D01*
X0250027Y0049613D01*
X0249929Y0049650D01*
X0249833Y0049690D01*
X0249739Y0049734D01*
X0249646Y0049782D01*
X0249555Y0049833D01*
X0249466Y0049888D01*
X0249379Y0049945D01*
X0249295Y0050007D01*
X0249212Y0050071D01*
X0249133Y0050138D01*
X0249056Y0050209D01*
X0248981Y0050282D01*
X0248910Y0050358D01*
X0248841Y0050437D01*
X0248776Y0050518D01*
X0248713Y0050601D01*
X0248654Y0050687D01*
X0248598Y0050775D01*
X0248546Y0050866D01*
X0248497Y0050958D01*
X0248451Y0051052D01*
X0248409Y0051147D01*
X0248371Y0051244D01*
X0248336Y0051343D01*
X0248306Y0051442D01*
X0248279Y0051543D01*
X0248255Y0051645D01*
X0248236Y0051747D01*
X0248221Y0051851D01*
X0248209Y0051954D01*
X0248686Y0051955D01*
X0248698Y0051860D01*
X0248714Y0051767D01*
X0248735Y0051674D01*
X0248759Y0051582D01*
X0248787Y0051491D01*
X0248818Y0051402D01*
X0248853Y0051313D01*
X0248892Y0051227D01*
X0248935Y0051142D01*
X0248981Y0051059D01*
X0249031Y0050978D01*
X0249083Y0050899D01*
X0249140Y0050822D01*
X0249199Y0050748D01*
X0249261Y0050676D01*
X0249326Y0050607D01*
X0249394Y0050541D01*
X0249465Y0050477D01*
X0249538Y0050417D01*
X0249614Y0050360D01*
X0249692Y0050306D01*
X0249773Y0050255D01*
X0249855Y0050208D01*
X0249939Y0050164D01*
X0250025Y0050123D01*
X0250113Y0050087D01*
X0250202Y0050054D01*
X0250292Y0050024D01*
X0250384Y0049999D01*
X0250476Y0049977D01*
X0250570Y0049960D01*
X0250664Y0049946D01*
X0250758Y0049936D01*
X0250853Y0049930D01*
X0250948Y0049928D01*
X0251043Y0049930D01*
X0251138Y0049936D01*
X0251232Y0049946D01*
X0251326Y0049960D01*
X0251420Y0049977D01*
X0251512Y0049999D01*
X0251604Y0050024D01*
X0251694Y0050054D01*
X0251783Y0050087D01*
X0251871Y0050123D01*
X0251957Y0050164D01*
X0252041Y0050208D01*
X0252123Y0050255D01*
X0252204Y0050306D01*
X0252282Y0050360D01*
X0252358Y0050417D01*
X0252431Y0050477D01*
X0252502Y0050541D01*
X0252570Y0050607D01*
X0252635Y0050676D01*
X0252697Y0050748D01*
X0252756Y0050822D01*
X0252813Y0050899D01*
X0252865Y0050978D01*
X0252915Y0051059D01*
X0252961Y0051142D01*
X0253004Y0051227D01*
X0253043Y0051313D01*
X0253078Y0051402D01*
X0253109Y0051491D01*
X0253137Y0051582D01*
X0253161Y0051674D01*
X0253182Y0051767D01*
X0253198Y0051860D01*
X0253210Y0051955D01*
X0252733Y0051955D01*
X0252719Y0051873D01*
X0252702Y0051791D01*
X0252681Y0051711D01*
X0252657Y0051631D01*
X0252628Y0051553D01*
X0252596Y0051476D01*
X0252561Y0051401D01*
X0252522Y0051327D01*
X0252480Y0051255D01*
X0252435Y0051185D01*
X0252386Y0051118D01*
X0252334Y0051053D01*
X0252280Y0050990D01*
X0252222Y0050930D01*
X0252162Y0050872D01*
X0252099Y0050818D01*
X0252034Y0050766D01*
X0251966Y0050717D01*
X0251897Y0050672D01*
X0251825Y0050630D01*
X0251751Y0050591D01*
X0251676Y0050556D01*
X0251599Y0050524D01*
X0251521Y0050495D01*
X0251441Y0050471D01*
X0251361Y0050450D01*
X0251279Y0050433D01*
X0251197Y0050419D01*
X0251114Y0050410D01*
X0251031Y0050404D01*
X0250948Y0050402D01*
X0250865Y0050404D01*
X0250782Y0050410D01*
X0250699Y0050419D01*
X0250617Y0050433D01*
X0250535Y0050450D01*
X0250455Y0050471D01*
X0250375Y0050495D01*
X0250297Y0050524D01*
X0250220Y0050556D01*
X0250145Y0050591D01*
X0250071Y0050630D01*
X0249999Y0050672D01*
X0249930Y0050717D01*
X0249862Y0050766D01*
X0249797Y0050818D01*
X0249734Y0050872D01*
X0249674Y0050930D01*
X0249616Y0050990D01*
X0249562Y0051053D01*
X0249510Y0051118D01*
X0249461Y0051185D01*
X0249416Y0051255D01*
X0249374Y0051327D01*
X0249335Y0051401D01*
X0249300Y0051476D01*
X0249268Y0051553D01*
X0249239Y0051631D01*
X0249215Y0051711D01*
X0249194Y0051791D01*
X0249177Y0051873D01*
X0249163Y0051955D01*
X0249643Y0051955D01*
X0249659Y0051885D01*
X0249678Y0051816D01*
X0249701Y0051748D01*
X0249727Y0051681D01*
X0249758Y0051615D01*
X0249791Y0051552D01*
X0249828Y0051490D01*
X0249869Y0051430D01*
X0249912Y0051373D01*
X0249959Y0051318D01*
X0250008Y0051266D01*
X0250060Y0051216D01*
X0250115Y0051169D01*
X0250173Y0051126D01*
X0250232Y0051085D01*
X0250294Y0051048D01*
X0250357Y0051015D01*
X0250423Y0050984D01*
X0250490Y0050958D01*
X0250558Y0050935D01*
X0250627Y0050915D01*
X0250698Y0050900D01*
X0250769Y0050888D01*
X0250840Y0050880D01*
X0250912Y0050876D01*
X0250984Y0050876D01*
X0251056Y0050880D01*
X0251127Y0050888D01*
X0251198Y0050900D01*
X0251269Y0050915D01*
X0251338Y0050935D01*
X0251406Y0050958D01*
X0251473Y0050984D01*
X0251539Y0051015D01*
X0251602Y0051048D01*
X0251664Y0051085D01*
X0251723Y0051126D01*
X0251781Y0051169D01*
X0251836Y0051216D01*
X0251888Y0051266D01*
X0251937Y0051318D01*
X0251984Y0051373D01*
X0252027Y0051430D01*
X0252068Y0051490D01*
X0252105Y0051552D01*
X0252138Y0051615D01*
X0252169Y0051681D01*
X0252195Y0051748D01*
X0252218Y0051816D01*
X0252237Y0051885D01*
X0252253Y0051955D01*
X0251766Y0051958D01*
X0251747Y0051903D01*
X0251725Y0051850D01*
X0251700Y0051799D01*
X0251671Y0051749D01*
X0251639Y0051702D01*
X0251603Y0051656D01*
X0251565Y0051613D01*
X0251524Y0051573D01*
X0251480Y0051536D01*
X0251434Y0051502D01*
X0251386Y0051471D01*
X0251335Y0051443D01*
X0251283Y0051419D01*
X0251230Y0051398D01*
X0251175Y0051381D01*
X0251119Y0051367D01*
X0251063Y0051358D01*
X0251005Y0051352D01*
X0250948Y0051350D01*
X0250891Y0051352D01*
X0250833Y0051358D01*
X0250777Y0051367D01*
X0250721Y0051381D01*
X0250666Y0051398D01*
X0250613Y0051419D01*
X0250561Y0051443D01*
X0250510Y0051471D01*
X0250462Y0051502D01*
X0250416Y0051536D01*
X0250372Y0051573D01*
X0250331Y0051613D01*
X0250293Y0051656D01*
X0250257Y0051702D01*
X0250225Y0051749D01*
X0250196Y0051799D01*
X0250171Y0051850D01*
X0250149Y0051903D01*
X0250130Y0051958D01*
X0250647Y0051972D01*
X0250671Y0051944D01*
X0250697Y0051918D01*
X0250726Y0051896D01*
X0250756Y0051876D01*
X0250789Y0051859D01*
X0250823Y0051845D01*
X0250858Y0051835D01*
X0250893Y0051828D01*
X0250930Y0051824D01*
X0250966Y0051824D01*
X0251003Y0051828D01*
X0251038Y0051835D01*
X0251073Y0051845D01*
X0251107Y0051859D01*
X0251140Y0051876D01*
X0251170Y0051896D01*
X0251199Y0051918D01*
X0251225Y0051944D01*
X0251249Y0051972D01*
X0221510Y0063767D02*
X0220760Y0063017D01*
X0220009Y0063017D01*
X0219259Y0063767D01*
X0219259Y0067520D01*
X0220009Y0067520D02*
X0218508Y0067520D01*
X0212303Y0066019D02*
X0210801Y0067520D01*
X0209300Y0066019D01*
X0209300Y0063017D01*
X0207699Y0063017D02*
X0206197Y0063017D01*
X0206948Y0063017D02*
X0206948Y0067520D01*
X0207699Y0067520D02*
X0206197Y0067520D01*
X0204629Y0067520D02*
X0201627Y0063017D01*
X0201627Y0067520D01*
X0204629Y0067520D02*
X0204629Y0063017D01*
X0209300Y0065269D02*
X0212303Y0065269D01*
X0212303Y0066019D02*
X0212303Y0063017D01*
X0213904Y0062266D02*
X0216907Y0062266D01*
X0221498Y0055766D02*
X0218760Y0055518D01*
X0218760Y0055518D01*
X0216022Y0055766D01*
X0216021Y0055767D01*
X0216033Y0055870D01*
X0216048Y0055974D01*
X0216067Y0056076D01*
X0216091Y0056178D01*
X0216118Y0056279D01*
X0216148Y0056378D01*
X0216183Y0056477D01*
X0216221Y0056574D01*
X0216263Y0056669D01*
X0216309Y0056763D01*
X0216358Y0056855D01*
X0216410Y0056946D01*
X0216466Y0057034D01*
X0216525Y0057120D01*
X0216588Y0057203D01*
X0216653Y0057284D01*
X0216722Y0057363D01*
X0216793Y0057439D01*
X0216868Y0057512D01*
X0216945Y0057583D01*
X0217024Y0057650D01*
X0217107Y0057714D01*
X0217191Y0057776D01*
X0217278Y0057833D01*
X0217367Y0057888D01*
X0217458Y0057939D01*
X0217551Y0057987D01*
X0217645Y0058031D01*
X0217741Y0058071D01*
X0217839Y0058108D01*
X0217938Y0058141D01*
X0218038Y0058171D01*
X0218139Y0058196D01*
X0218241Y0058218D01*
X0218344Y0058235D01*
X0218448Y0058249D01*
X0218551Y0058259D01*
X0218656Y0058265D01*
X0218760Y0058267D01*
X0218864Y0058265D01*
X0218969Y0058259D01*
X0219072Y0058249D01*
X0219176Y0058235D01*
X0219279Y0058218D01*
X0219381Y0058196D01*
X0219482Y0058171D01*
X0219582Y0058141D01*
X0219681Y0058108D01*
X0219779Y0058071D01*
X0219875Y0058031D01*
X0219969Y0057987D01*
X0220062Y0057939D01*
X0220153Y0057888D01*
X0220242Y0057833D01*
X0220329Y0057776D01*
X0220413Y0057714D01*
X0220496Y0057650D01*
X0220575Y0057583D01*
X0220652Y0057512D01*
X0220727Y0057439D01*
X0220798Y0057363D01*
X0220867Y0057284D01*
X0220932Y0057203D01*
X0220995Y0057120D01*
X0221054Y0057034D01*
X0221110Y0056946D01*
X0221162Y0056855D01*
X0221211Y0056763D01*
X0221257Y0056669D01*
X0221299Y0056574D01*
X0221337Y0056477D01*
X0221372Y0056378D01*
X0221402Y0056279D01*
X0221429Y0056178D01*
X0221453Y0056076D01*
X0221472Y0055974D01*
X0221487Y0055870D01*
X0221499Y0055767D01*
X0221022Y0055766D01*
X0221010Y0055861D01*
X0220994Y0055954D01*
X0220973Y0056047D01*
X0220949Y0056139D01*
X0220921Y0056230D01*
X0220890Y0056319D01*
X0220855Y0056408D01*
X0220816Y0056494D01*
X0220773Y0056579D01*
X0220727Y0056662D01*
X0220677Y0056743D01*
X0220625Y0056822D01*
X0220568Y0056899D01*
X0220509Y0056973D01*
X0220447Y0057045D01*
X0220382Y0057114D01*
X0220314Y0057180D01*
X0220243Y0057244D01*
X0220170Y0057304D01*
X0220094Y0057361D01*
X0220016Y0057415D01*
X0219935Y0057466D01*
X0219853Y0057513D01*
X0219769Y0057557D01*
X0219683Y0057598D01*
X0219595Y0057634D01*
X0219506Y0057667D01*
X0219416Y0057697D01*
X0219324Y0057722D01*
X0219232Y0057744D01*
X0219138Y0057761D01*
X0219044Y0057775D01*
X0218950Y0057785D01*
X0218855Y0057791D01*
X0218760Y0057793D01*
X0218665Y0057791D01*
X0218570Y0057785D01*
X0218476Y0057775D01*
X0218382Y0057761D01*
X0218288Y0057744D01*
X0218196Y0057722D01*
X0218104Y0057697D01*
X0218014Y0057667D01*
X0217925Y0057634D01*
X0217837Y0057598D01*
X0217751Y0057557D01*
X0217667Y0057513D01*
X0217585Y0057466D01*
X0217504Y0057415D01*
X0217426Y0057361D01*
X0217350Y0057304D01*
X0217277Y0057244D01*
X0217206Y0057180D01*
X0217138Y0057114D01*
X0217073Y0057045D01*
X0217011Y0056973D01*
X0216952Y0056899D01*
X0216895Y0056822D01*
X0216843Y0056743D01*
X0216793Y0056662D01*
X0216747Y0056579D01*
X0216704Y0056494D01*
X0216665Y0056408D01*
X0216630Y0056319D01*
X0216599Y0056230D01*
X0216571Y0056139D01*
X0216547Y0056047D01*
X0216526Y0055954D01*
X0216510Y0055861D01*
X0216498Y0055766D01*
X0216975Y0055766D01*
X0216989Y0055848D01*
X0217006Y0055930D01*
X0217027Y0056010D01*
X0217051Y0056090D01*
X0217080Y0056168D01*
X0217112Y0056245D01*
X0217147Y0056320D01*
X0217186Y0056394D01*
X0217228Y0056466D01*
X0217273Y0056536D01*
X0217322Y0056603D01*
X0217374Y0056668D01*
X0217428Y0056731D01*
X0217486Y0056791D01*
X0217546Y0056849D01*
X0217609Y0056903D01*
X0217674Y0056955D01*
X0217742Y0057004D01*
X0217811Y0057049D01*
X0217883Y0057091D01*
X0217957Y0057130D01*
X0218032Y0057165D01*
X0218109Y0057197D01*
X0218187Y0057226D01*
X0218267Y0057250D01*
X0218347Y0057271D01*
X0218429Y0057288D01*
X0218511Y0057302D01*
X0218594Y0057311D01*
X0218677Y0057317D01*
X0218760Y0057319D01*
X0218843Y0057317D01*
X0218926Y0057311D01*
X0219009Y0057302D01*
X0219091Y0057288D01*
X0219173Y0057271D01*
X0219253Y0057250D01*
X0219333Y0057226D01*
X0219411Y0057197D01*
X0219488Y0057165D01*
X0219563Y0057130D01*
X0219637Y0057091D01*
X0219709Y0057049D01*
X0219778Y0057004D01*
X0219846Y0056955D01*
X0219911Y0056903D01*
X0219974Y0056849D01*
X0220034Y0056791D01*
X0220092Y0056731D01*
X0220146Y0056668D01*
X0220198Y0056603D01*
X0220247Y0056536D01*
X0220292Y0056466D01*
X0220334Y0056394D01*
X0220373Y0056320D01*
X0220408Y0056245D01*
X0220440Y0056168D01*
X0220469Y0056090D01*
X0220493Y0056010D01*
X0220514Y0055930D01*
X0220531Y0055848D01*
X0220545Y0055766D01*
X0220065Y0055766D01*
X0220049Y0055836D01*
X0220030Y0055905D01*
X0220007Y0055973D01*
X0219981Y0056040D01*
X0219950Y0056106D01*
X0219917Y0056169D01*
X0219880Y0056231D01*
X0219839Y0056291D01*
X0219796Y0056348D01*
X0219749Y0056403D01*
X0219700Y0056455D01*
X0219648Y0056505D01*
X0219593Y0056552D01*
X0219535Y0056595D01*
X0219476Y0056636D01*
X0219414Y0056673D01*
X0219351Y0056706D01*
X0219285Y0056737D01*
X0219218Y0056763D01*
X0219150Y0056786D01*
X0219081Y0056806D01*
X0219010Y0056821D01*
X0218939Y0056833D01*
X0218868Y0056841D01*
X0218796Y0056845D01*
X0218724Y0056845D01*
X0218652Y0056841D01*
X0218581Y0056833D01*
X0218510Y0056821D01*
X0218439Y0056806D01*
X0218370Y0056786D01*
X0218302Y0056763D01*
X0218235Y0056737D01*
X0218169Y0056706D01*
X0218106Y0056673D01*
X0218044Y0056636D01*
X0217985Y0056595D01*
X0217927Y0056552D01*
X0217872Y0056505D01*
X0217820Y0056455D01*
X0217771Y0056403D01*
X0217724Y0056348D01*
X0217681Y0056291D01*
X0217640Y0056231D01*
X0217603Y0056169D01*
X0217570Y0056106D01*
X0217539Y0056040D01*
X0217513Y0055973D01*
X0217490Y0055905D01*
X0217471Y0055836D01*
X0217455Y0055766D01*
X0217942Y0055763D01*
X0217961Y0055818D01*
X0217983Y0055871D01*
X0218008Y0055922D01*
X0218037Y0055972D01*
X0218069Y0056019D01*
X0218105Y0056065D01*
X0218143Y0056108D01*
X0218184Y0056148D01*
X0218228Y0056185D01*
X0218274Y0056219D01*
X0218322Y0056250D01*
X0218373Y0056278D01*
X0218425Y0056302D01*
X0218478Y0056323D01*
X0218533Y0056340D01*
X0218589Y0056354D01*
X0218645Y0056363D01*
X0218703Y0056369D01*
X0218760Y0056371D01*
X0218817Y0056369D01*
X0218875Y0056363D01*
X0218931Y0056354D01*
X0218987Y0056340D01*
X0219042Y0056323D01*
X0219095Y0056302D01*
X0219147Y0056278D01*
X0219198Y0056250D01*
X0219246Y0056219D01*
X0219292Y0056185D01*
X0219336Y0056148D01*
X0219377Y0056108D01*
X0219415Y0056065D01*
X0219451Y0056019D01*
X0219483Y0055972D01*
X0219512Y0055922D01*
X0219537Y0055871D01*
X0219559Y0055818D01*
X0219578Y0055763D01*
X0219061Y0055749D01*
X0219037Y0055777D01*
X0219011Y0055803D01*
X0218982Y0055825D01*
X0218952Y0055845D01*
X0218919Y0055862D01*
X0218885Y0055876D01*
X0218850Y0055886D01*
X0218815Y0055893D01*
X0218778Y0055897D01*
X0218742Y0055897D01*
X0218705Y0055893D01*
X0218670Y0055886D01*
X0218635Y0055876D01*
X0218601Y0055862D01*
X0218568Y0055845D01*
X0218538Y0055825D01*
X0218509Y0055803D01*
X0218483Y0055777D01*
X0218459Y0055749D01*
X0216022Y0047268D02*
X0218760Y0047516D01*
X0218760Y0047516D01*
X0221498Y0047268D01*
X0221499Y0047267D01*
X0221487Y0047164D01*
X0221472Y0047060D01*
X0221453Y0046958D01*
X0221429Y0046856D01*
X0221402Y0046755D01*
X0221372Y0046656D01*
X0221337Y0046557D01*
X0221299Y0046460D01*
X0221257Y0046365D01*
X0221211Y0046271D01*
X0221162Y0046179D01*
X0221110Y0046088D01*
X0221054Y0046000D01*
X0220995Y0045914D01*
X0220932Y0045831D01*
X0220867Y0045750D01*
X0220798Y0045671D01*
X0220727Y0045595D01*
X0220652Y0045522D01*
X0220575Y0045451D01*
X0220496Y0045384D01*
X0220413Y0045320D01*
X0220329Y0045258D01*
X0220242Y0045201D01*
X0220153Y0045146D01*
X0220062Y0045095D01*
X0219969Y0045047D01*
X0219875Y0045003D01*
X0219779Y0044963D01*
X0219681Y0044926D01*
X0219582Y0044893D01*
X0219482Y0044863D01*
X0219381Y0044838D01*
X0219279Y0044816D01*
X0219176Y0044799D01*
X0219072Y0044785D01*
X0218969Y0044775D01*
X0218864Y0044769D01*
X0218760Y0044767D01*
X0218656Y0044769D01*
X0218551Y0044775D01*
X0218448Y0044785D01*
X0218344Y0044799D01*
X0218241Y0044816D01*
X0218139Y0044838D01*
X0218038Y0044863D01*
X0217938Y0044893D01*
X0217839Y0044926D01*
X0217741Y0044963D01*
X0217645Y0045003D01*
X0217551Y0045047D01*
X0217458Y0045095D01*
X0217367Y0045146D01*
X0217278Y0045201D01*
X0217191Y0045258D01*
X0217107Y0045320D01*
X0217024Y0045384D01*
X0216945Y0045451D01*
X0216868Y0045522D01*
X0216793Y0045595D01*
X0216722Y0045671D01*
X0216653Y0045750D01*
X0216588Y0045831D01*
X0216525Y0045914D01*
X0216466Y0046000D01*
X0216410Y0046088D01*
X0216358Y0046179D01*
X0216309Y0046271D01*
X0216263Y0046365D01*
X0216221Y0046460D01*
X0216183Y0046557D01*
X0216148Y0046656D01*
X0216118Y0046755D01*
X0216091Y0046856D01*
X0216067Y0046958D01*
X0216048Y0047060D01*
X0216033Y0047164D01*
X0216021Y0047267D01*
X0216498Y0047268D01*
X0216510Y0047173D01*
X0216526Y0047080D01*
X0216547Y0046987D01*
X0216571Y0046895D01*
X0216599Y0046804D01*
X0216630Y0046715D01*
X0216665Y0046626D01*
X0216704Y0046540D01*
X0216747Y0046455D01*
X0216793Y0046372D01*
X0216843Y0046291D01*
X0216895Y0046212D01*
X0216952Y0046135D01*
X0217011Y0046061D01*
X0217073Y0045989D01*
X0217138Y0045920D01*
X0217206Y0045854D01*
X0217277Y0045790D01*
X0217350Y0045730D01*
X0217426Y0045673D01*
X0217504Y0045619D01*
X0217585Y0045568D01*
X0217667Y0045521D01*
X0217751Y0045477D01*
X0217837Y0045436D01*
X0217925Y0045400D01*
X0218014Y0045367D01*
X0218104Y0045337D01*
X0218196Y0045312D01*
X0218288Y0045290D01*
X0218382Y0045273D01*
X0218476Y0045259D01*
X0218570Y0045249D01*
X0218665Y0045243D01*
X0218760Y0045241D01*
X0218855Y0045243D01*
X0218950Y0045249D01*
X0219044Y0045259D01*
X0219138Y0045273D01*
X0219232Y0045290D01*
X0219324Y0045312D01*
X0219416Y0045337D01*
X0219506Y0045367D01*
X0219595Y0045400D01*
X0219683Y0045436D01*
X0219769Y0045477D01*
X0219853Y0045521D01*
X0219935Y0045568D01*
X0220016Y0045619D01*
X0220094Y0045673D01*
X0220170Y0045730D01*
X0220243Y0045790D01*
X0220314Y0045854D01*
X0220382Y0045920D01*
X0220447Y0045989D01*
X0220509Y0046061D01*
X0220568Y0046135D01*
X0220625Y0046212D01*
X0220677Y0046291D01*
X0220727Y0046372D01*
X0220773Y0046455D01*
X0220816Y0046540D01*
X0220855Y0046626D01*
X0220890Y0046715D01*
X0220921Y0046804D01*
X0220949Y0046895D01*
X0220973Y0046987D01*
X0220994Y0047080D01*
X0221010Y0047173D01*
X0221022Y0047268D01*
X0220545Y0047268D01*
X0220531Y0047186D01*
X0220514Y0047104D01*
X0220493Y0047024D01*
X0220469Y0046944D01*
X0220440Y0046866D01*
X0220408Y0046789D01*
X0220373Y0046714D01*
X0220334Y0046640D01*
X0220292Y0046568D01*
X0220247Y0046498D01*
X0220198Y0046431D01*
X0220146Y0046366D01*
X0220092Y0046303D01*
X0220034Y0046243D01*
X0219974Y0046185D01*
X0219911Y0046131D01*
X0219846Y0046079D01*
X0219778Y0046030D01*
X0219709Y0045985D01*
X0219637Y0045943D01*
X0219563Y0045904D01*
X0219488Y0045869D01*
X0219411Y0045837D01*
X0219333Y0045808D01*
X0219253Y0045784D01*
X0219173Y0045763D01*
X0219091Y0045746D01*
X0219009Y0045732D01*
X0218926Y0045723D01*
X0218843Y0045717D01*
X0218760Y0045715D01*
X0218677Y0045717D01*
X0218594Y0045723D01*
X0218511Y0045732D01*
X0218429Y0045746D01*
X0218347Y0045763D01*
X0218267Y0045784D01*
X0218187Y0045808D01*
X0218109Y0045837D01*
X0218032Y0045869D01*
X0217957Y0045904D01*
X0217883Y0045943D01*
X0217811Y0045985D01*
X0217742Y0046030D01*
X0217674Y0046079D01*
X0217609Y0046131D01*
X0217546Y0046185D01*
X0217486Y0046243D01*
X0217428Y0046303D01*
X0217374Y0046366D01*
X0217322Y0046431D01*
X0217273Y0046498D01*
X0217228Y0046568D01*
X0217186Y0046640D01*
X0217147Y0046714D01*
X0217112Y0046789D01*
X0217080Y0046866D01*
X0217051Y0046944D01*
X0217027Y0047024D01*
X0217006Y0047104D01*
X0216989Y0047186D01*
X0216975Y0047268D01*
X0217455Y0047268D01*
X0217471Y0047198D01*
X0217490Y0047129D01*
X0217513Y0047061D01*
X0217539Y0046994D01*
X0217570Y0046928D01*
X0217603Y0046865D01*
X0217640Y0046803D01*
X0217681Y0046743D01*
X0217724Y0046686D01*
X0217771Y0046631D01*
X0217820Y0046579D01*
X0217872Y0046529D01*
X0217927Y0046482D01*
X0217985Y0046439D01*
X0218044Y0046398D01*
X0218106Y0046361D01*
X0218169Y0046328D01*
X0218235Y0046297D01*
X0218302Y0046271D01*
X0218370Y0046248D01*
X0218439Y0046228D01*
X0218510Y0046213D01*
X0218581Y0046201D01*
X0218652Y0046193D01*
X0218724Y0046189D01*
X0218796Y0046189D01*
X0218868Y0046193D01*
X0218939Y0046201D01*
X0219010Y0046213D01*
X0219081Y0046228D01*
X0219150Y0046248D01*
X0219218Y0046271D01*
X0219285Y0046297D01*
X0219351Y0046328D01*
X0219414Y0046361D01*
X0219476Y0046398D01*
X0219535Y0046439D01*
X0219593Y0046482D01*
X0219648Y0046529D01*
X0219700Y0046579D01*
X0219749Y0046631D01*
X0219796Y0046686D01*
X0219839Y0046743D01*
X0219880Y0046803D01*
X0219917Y0046865D01*
X0219950Y0046928D01*
X0219981Y0046994D01*
X0220007Y0047061D01*
X0220030Y0047129D01*
X0220049Y0047198D01*
X0220065Y0047268D01*
X0219578Y0047271D01*
X0219559Y0047216D01*
X0219537Y0047163D01*
X0219512Y0047112D01*
X0219483Y0047062D01*
X0219451Y0047015D01*
X0219415Y0046969D01*
X0219377Y0046926D01*
X0219336Y0046886D01*
X0219292Y0046849D01*
X0219246Y0046815D01*
X0219198Y0046784D01*
X0219147Y0046756D01*
X0219095Y0046732D01*
X0219042Y0046711D01*
X0218987Y0046694D01*
X0218931Y0046680D01*
X0218875Y0046671D01*
X0218817Y0046665D01*
X0218760Y0046663D01*
X0218703Y0046665D01*
X0218645Y0046671D01*
X0218589Y0046680D01*
X0218533Y0046694D01*
X0218478Y0046711D01*
X0218425Y0046732D01*
X0218373Y0046756D01*
X0218322Y0046784D01*
X0218274Y0046815D01*
X0218228Y0046849D01*
X0218184Y0046886D01*
X0218143Y0046926D01*
X0218105Y0046969D01*
X0218069Y0047015D01*
X0218037Y0047062D01*
X0218008Y0047112D01*
X0217983Y0047163D01*
X0217961Y0047216D01*
X0217942Y0047271D01*
X0218459Y0047285D01*
X0218483Y0047257D01*
X0218509Y0047231D01*
X0218538Y0047209D01*
X0218568Y0047189D01*
X0218601Y0047172D01*
X0218635Y0047158D01*
X0218670Y0047148D01*
X0218705Y0047141D01*
X0218742Y0047137D01*
X0218778Y0047137D01*
X0218815Y0047141D01*
X0218850Y0047148D01*
X0218885Y0047158D01*
X0218919Y0047172D01*
X0218952Y0047189D01*
X0218982Y0047209D01*
X0219011Y0047231D01*
X0219037Y0047257D01*
X0219061Y0047285D01*
X0281475Y0092784D02*
X0281475Y0096854D01*
X0283510Y0094819D02*
X0279440Y0094819D01*
X0278190Y0104819D02*
X0282260Y0104819D01*
X0282260Y0114819D02*
X0278190Y0114819D01*
X0281475Y0122784D02*
X0281475Y0126854D01*
X0283510Y0124819D02*
X0279440Y0124819D01*
X0249385Y0122142D02*
X0236885Y0122142D01*
X0231885Y0126517D02*
X0228135Y0122767D01*
X0228135Y0120892D01*
X0233135Y0115892D01*
X0233135Y0114017D01*
X0228135Y0120892D02*
X0220635Y0120892D01*
X0231885Y0126517D02*
X0236260Y0126517D01*
D15*
X0259464Y0119303D02*
X0259464Y0116234D01*
X0260231Y0115467D01*
X0261766Y0115467D01*
X0262533Y0116234D01*
X0262533Y0119303D01*
X0261766Y0120071D01*
X0260231Y0120071D01*
X0259464Y0119303D01*
X0264068Y0119303D02*
X0264068Y0117769D01*
X0264835Y0117001D01*
X0267137Y0117001D01*
X0267137Y0115467D02*
X0267137Y0120071D01*
X0264835Y0120071D01*
X0264068Y0119303D01*
X0268672Y0120071D02*
X0270207Y0120071D01*
X0269439Y0120071D02*
X0269439Y0115467D01*
X0268672Y0115467D02*
X0270207Y0115467D01*
X0271741Y0115467D02*
X0274810Y0115467D01*
X0274810Y0120071D01*
X0274043Y0104446D02*
X0274810Y0103678D01*
X0274810Y0100609D01*
X0274043Y0099842D01*
X0272508Y0099842D01*
X0271741Y0100609D01*
X0270207Y0099842D02*
X0270207Y0104446D01*
X0271741Y0103678D02*
X0272508Y0104446D01*
X0274043Y0104446D01*
X0270207Y0102144D02*
X0267137Y0102144D01*
X0265603Y0102144D02*
X0262533Y0102144D01*
X0262533Y0102911D02*
X0262533Y0099842D01*
X0260999Y0099842D02*
X0260999Y0104446D01*
X0258697Y0104446D01*
X0257929Y0103678D01*
X0257929Y0102144D01*
X0258697Y0101376D01*
X0260999Y0101376D01*
X0259464Y0101376D02*
X0257929Y0099842D01*
X0256395Y0100609D02*
X0255627Y0099842D01*
X0254093Y0099842D01*
X0253325Y0100609D01*
X0253325Y0102144D01*
X0254860Y0102144D01*
X0253325Y0103678D02*
X0254093Y0104446D01*
X0255627Y0104446D01*
X0256395Y0103678D01*
X0256395Y0100609D01*
X0251791Y0099842D02*
X0248722Y0099842D01*
X0247187Y0099842D02*
X0247187Y0104446D01*
X0244885Y0104446D01*
X0244118Y0103678D01*
X0244118Y0102144D01*
X0244885Y0101376D01*
X0247187Y0101376D01*
X0245652Y0101376D02*
X0244118Y0099842D01*
X0244118Y0098196D02*
X0242583Y0096661D01*
X0242583Y0095126D01*
X0244118Y0093592D01*
X0245652Y0095126D02*
X0247187Y0093592D01*
X0248722Y0095126D01*
X0248722Y0098196D01*
X0250256Y0098196D02*
X0250256Y0097428D01*
X0253325Y0094359D01*
X0253325Y0093592D01*
X0253325Y0098196D02*
X0250256Y0098196D01*
X0251791Y0099842D02*
X0251791Y0104446D01*
X0248722Y0104446D01*
X0250256Y0102144D02*
X0251791Y0102144D01*
X0245652Y0098196D02*
X0245652Y0095126D01*
X0259464Y0093592D02*
X0262533Y0096661D01*
X0264068Y0095894D02*
X0264068Y0093592D01*
X0266370Y0093592D01*
X0267137Y0094359D01*
X0266370Y0095126D01*
X0264068Y0095126D01*
X0264068Y0095894D02*
X0264835Y0096661D01*
X0266370Y0096661D01*
X0268672Y0095894D02*
X0268672Y0093592D01*
X0270207Y0093592D02*
X0270207Y0095894D01*
X0269439Y0096661D01*
X0268672Y0095894D01*
X0270207Y0095894D02*
X0270974Y0096661D01*
X0271741Y0096661D01*
X0271741Y0093592D01*
X0273276Y0093592D02*
X0274810Y0095126D01*
X0274810Y0096661D01*
X0273276Y0098196D01*
X0267137Y0099842D02*
X0267137Y0104446D01*
X0265603Y0102911D02*
X0264068Y0104446D01*
X0262533Y0102911D01*
X0265603Y0102911D02*
X0265603Y0099842D01*
X0259464Y0096661D02*
X0262533Y0093592D01*
X0263214Y0070071D02*
X0263214Y0065467D01*
X0267818Y0067769D02*
X0269353Y0067769D01*
X0269353Y0070071D02*
X0266283Y0070071D01*
X0264749Y0070071D02*
X0261679Y0070071D01*
X0269353Y0070071D02*
X0269353Y0065467D01*
X0270887Y0065467D02*
X0273957Y0065467D01*
X0273957Y0070071D01*
X0270887Y0070071D01*
X0272422Y0067769D02*
X0273957Y0067769D01*
X0275491Y0065467D02*
X0278560Y0065467D01*
X0278560Y0070071D01*
X0278560Y0050071D02*
X0276258Y0050071D01*
X0275491Y0049303D01*
X0275491Y0047769D01*
X0276258Y0047001D01*
X0278560Y0047001D01*
X0277026Y0047001D02*
X0275491Y0045467D01*
X0273957Y0045467D02*
X0272422Y0045467D01*
X0273189Y0045467D02*
X0273189Y0050071D01*
X0272422Y0050071D02*
X0273957Y0050071D01*
X0270887Y0049303D02*
X0270887Y0046234D01*
X0270120Y0045467D01*
X0268585Y0045467D01*
X0267818Y0046234D01*
X0267818Y0047769D01*
X0269353Y0047769D01*
X0270887Y0049303D02*
X0270120Y0050071D01*
X0268585Y0050071D01*
X0267818Y0049303D01*
X0266283Y0050071D02*
X0266283Y0045467D01*
X0266283Y0047769D02*
X0263214Y0047769D01*
X0263214Y0050071D02*
X0263214Y0045467D01*
X0260145Y0045467D02*
X0260145Y0050071D01*
X0261679Y0050071D02*
X0258610Y0050071D01*
X0278560Y0050071D02*
X0278560Y0045467D01*
X0099185Y0103217D02*
X0099185Y0105619D01*
X0097984Y0106820D01*
X0096783Y0105619D01*
X0096783Y0103217D01*
X0095502Y0103217D02*
X0093701Y0103217D01*
X0093100Y0103817D01*
X0093100Y0106219D01*
X0093701Y0106820D01*
X0095502Y0106820D01*
X0095502Y0103217D01*
X0096783Y0105018D02*
X0099185Y0105018D01*
X0099185Y0108842D02*
X0099185Y0111244D01*
X0097984Y0112445D01*
X0096783Y0111244D01*
X0096783Y0108842D01*
X0095502Y0108842D02*
X0093701Y0108842D01*
X0093100Y0109442D01*
X0093100Y0111844D01*
X0093701Y0112445D01*
X0095502Y0112445D01*
X0095502Y0108842D01*
X0096783Y0110643D02*
X0099185Y0110643D01*
X0091819Y0109442D02*
X0091219Y0108842D01*
X0090018Y0108842D01*
X0089417Y0109442D01*
X0088136Y0109442D02*
X0085734Y0111844D01*
X0085734Y0109442D01*
X0086334Y0108842D01*
X0087536Y0108842D01*
X0088136Y0109442D01*
X0088136Y0111844D01*
X0087536Y0112445D01*
X0086334Y0112445D01*
X0085734Y0111844D01*
X0089417Y0111844D02*
X0090018Y0112445D01*
X0091219Y0112445D01*
X0091819Y0111844D01*
X0091819Y0109442D01*
X0091219Y0106820D02*
X0091819Y0106219D01*
X0091819Y0103817D01*
X0091219Y0103217D01*
X0090018Y0103217D01*
X0089417Y0103817D01*
X0088136Y0103217D02*
X0085734Y0103217D01*
X0086935Y0103217D02*
X0086935Y0106820D01*
X0088136Y0105619D01*
X0089417Y0106219D02*
X0090018Y0106820D01*
X0091219Y0106820D01*
X0047935Y0106717D02*
X0046401Y0106717D01*
X0047168Y0106717D02*
X0047168Y0111321D01*
X0047935Y0111321D02*
X0046401Y0111321D01*
X0044866Y0110553D02*
X0044866Y0109786D01*
X0044099Y0109019D01*
X0042564Y0109019D01*
X0041797Y0108251D01*
X0041797Y0107484D01*
X0042564Y0106717D01*
X0044099Y0106717D01*
X0044866Y0107484D01*
X0044866Y0110553D02*
X0044099Y0111321D01*
X0042564Y0111321D01*
X0041797Y0110553D01*
X0040262Y0111321D02*
X0037960Y0111321D01*
X0037193Y0110553D01*
X0037193Y0109019D01*
X0037960Y0108251D01*
X0040262Y0108251D01*
X0040262Y0106717D02*
X0040262Y0111321D01*
D16*
X0047510Y0072142D03*
X0091885Y0062767D03*
D17*
X0218760Y0051517D03*
X0250948Y0056204D03*
M02*
