%
M48
M72
T01C0.01180
T02C0.01181
T03C0.01969
T04C0.03200
T05C0.04000
T06C0.05512
T07C0.11811
%
T01
X195010Y24017
X198760Y30892
X193760Y34642
X198135Y38392
X210010Y39017
X225010Y34017
X225010Y30892
X224385Y25892
X210010Y29642
X223760Y50267
X248135Y67142
X252510Y72142
X265635Y65892
X269385Y65892
X267510Y60892
X267510Y57767
X267510Y54642
X265635Y49642
X269385Y49642
X263135Y44642
X255635Y56204
X280010Y58548
X280010Y72142
X280635Y77142
X263135Y85267
X251885Y94017
X245010Y80267
X231260Y69017
X205635Y84017
X192510Y77142
X176885Y81517
X191260Y89017
X165010Y94017
X154385Y82767
X155635Y67142
X176885Y65267
X191260Y65267
X225010Y89017
X75010Y80267
X58135Y70892
T02
X73760Y8392
X73760Y18392
X54385Y27767
X56885Y32767
X60635Y37767
X68135Y43392
X64385Y45892
X67510Y48392
X71885Y50892
X70635Y54017
X70010Y62142
X67510Y68392
X72510Y72142
X77510Y74642
X72510Y78392
X68135Y81517
X62510Y77767
X59385Y78392
X56260Y81517
X66885Y87142
X63760Y90267
X63448Y94017
X77510Y84642
X86260Y76517
X93135Y74642
X100010Y71517
X96260Y68392
X102510Y65579
X89385Y68392
X79385Y69642
X80635Y62767
X62198Y72142
X60010Y65892
X55936Y65567
X61260Y62142
X50635Y54017
X78135Y44642
X78135Y39642
X104385Y52142
X107510Y50892
X104385Y55892
X112510Y36517
X110635Y24642
X121885Y24017
X102510Y18392
X102510Y7142
X120010Y6517
X141260Y13392
X142510Y16517
X135010Y29017
X141885Y33392
X145635Y33392
X156885Y42767
X140948Y50579
X141885Y57142
X156260Y53392
X187510Y48079
X193448Y44954
X204698Y47142
X211260Y46517
X216260Y52454
X206260Y56517
X200635Y59017
X220635Y60892
X204073Y71829
X223760Y46517
X224385Y38392
X200010Y24017
X198760Y14017
X203135Y14017
X183135Y22142
X245010Y9642
X258760Y64329
X258760Y90892
X277510Y105267
X263760Y117142
X250635Y113392
X240635Y115267
X235010Y122142
X229385Y127767
X222510Y127142
X213760Y126517
X206260Y127142
X201260Y129642
X189385Y130267
X192510Y139017
X201260Y137767
X214385Y145267
X225635Y145267
X225635Y149017
X235323Y145267
X236260Y152142
X239385Y158392
X249698Y161517
X245635Y144017
X246260Y139017
X245010Y132767
X245010Y126517
X236260Y137767
X225635Y141517
X215635Y155267
X173135Y133392
X169385Y137767
X156260Y130267
X148135Y126517
X140635Y130267
X135010Y127767
X124385Y133392
X116885Y135892
X122510Y139017
X127510Y139017
X122510Y144017
X116885Y141517
X126885Y153392
X146885Y140267
X150635Y140267
X148760Y143392
X155635Y121517
X151260Y117767
X162823Y112142
X173135Y120267
X181885Y118392
X186260Y120892
X190635Y117767
X193135Y109642
X193135Y103392
X198760Y98392
X208135Y100892
X212198Y102142
X225948Y102142
X218760Y110267
X181885Y101517
X170635Y103392
X152510Y102767
X146260Y107142
X145010Y99329
X141260Y99642
X138760Y97767
X136260Y99642
X133760Y97767
X130010Y97767
X125635Y97767
X121260Y99642
X116885Y98392
X121260Y105892
X125635Y107767
X129385Y107767
X126885Y110892
X117510Y112767
X113760Y115267
X106260Y115267
X96260Y113392
X91885Y117142
X97510Y107142
X103135Y105267
X100635Y100892
X97198Y95267
X99698Y92767
X97510Y89642
X93135Y87142
X131260Y100892
X143760Y92767
X152510Y97767
X138135Y117142
X135010Y117142
X129385Y116517
X125635Y116517
X121260Y120892
X86885Y142142
X77510Y133392
X68760Y129642
X65010Y128392
X66260Y124642
X73135Y121517
X68135Y118392
X65635Y116517
X67510Y114017
X53760Y115892
X45010Y116517
X38135Y129017
X45010Y132767
X58135Y139017
X62510Y140892
X26260Y131517
X45010Y92767
X26885Y89017
X38135Y72142
X36885Y37767
X151885Y75892
X270635Y137767
T03
X214873Y86841
X210148Y86841
T04
X95635Y7767
X95635Y17767
X30010Y42142
X20010Y42142
X21885Y79017
X31885Y79017
X230010Y42142
X240010Y42142
X233135Y104017
T05
X265010Y157767
X265010Y147767
X288760Y42767
X288760Y52767
X288760Y62767
X288760Y72767
X288760Y94017
X288760Y104017
X288760Y114017
X288760Y124017
X202510Y156517
X192510Y156517
X182510Y156517
X123760Y79642
X123760Y69642
X123760Y59642
X123760Y49642
X123760Y39642
X31885Y98392
X21885Y98392
X21885Y108392
X31885Y108392
X31885Y118392
X21885Y118392
T06
X111885Y7142
X111885Y18392
T07
X285010Y19017
X287510Y149017
X32510Y19017
X32510Y149017
M30
