G75*
%MOIN*%
%OFA0B0*%
%FSLAX25Y25*%
%IPPOS*%
%LPD*%
%AMOC8*
5,1,8,0,0,1.08239X$1,22.5*
%
%ADD10C,0.00000*%
%ADD11C,0.05912*%
%ADD12R,0.12500X0.06875*%
%ADD13R,0.22500X0.22500*%
%ADD14R,0.05625X0.05625*%
%ADD15R,0.05518X0.05124*%
%ADD16R,0.05124X0.05518*%
%ADD17R,0.03943X0.03156*%
%ADD18R,0.05912X0.07880*%
%ADD19R,0.07487X0.05912*%
%ADD20R,0.03156X0.06306*%
%ADD21R,0.03550X0.03550*%
%ADD22R,0.01581X0.03550*%
%ADD23R,0.03550X0.01581*%
%ADD24R,0.05124X0.02369*%
%ADD25R,0.02369X0.05124*%
%ADD26R,0.04731X0.02762*%
%ADD27R,0.02762X0.04731*%
%ADD28R,0.04724X0.01575*%
%ADD29R,0.01575X0.04724*%
%ADD30R,0.02565X0.05124*%
%ADD31R,0.05124X0.01581*%
%ADD32R,0.01581X0.05124*%
%ADD33R,0.04731X0.07880*%
%ADD34R,0.05124X0.05912*%
%ADD35C,0.01384*%
%ADD36R,0.07382X0.09843*%
%ADD37R,0.06699X0.05912*%
%ADD38R,0.06109X0.05518*%
%ADD39R,0.07880X0.07880*%
%ADD40R,0.01975X0.05715*%
%ADD41R,0.05124X0.02565*%
%ADD42R,0.05518X0.06306*%
%ADD43R,0.06306X0.05518*%
%ADD44R,0.06699X0.05518*%
%ADD45R,0.05518X0.06699*%
%ADD46R,0.04400X0.04900*%
%ADD47R,0.04337X0.05912*%
%ADD48OC8,0.06700*%
%ADD49C,0.06400*%
%ADD50R,0.03400X0.06400*%
%ADD51C,0.23400*%
%ADD52R,0.03943X0.02172*%
%ADD53OC8,0.08900*%
%ADD54C,0.04369*%
%ADD55C,0.06400*%
%ADD56OC8,0.06400*%
%ADD57R,0.05912X0.04337*%
%ADD58R,0.05000X0.06700*%
%ADD59R,0.00600X0.07200*%
%ADD60R,0.04232X0.01969*%
%ADD61C,0.05600*%
%ADD62R,0.05912X0.12211*%
%ADD63R,0.12211X0.05912*%
%ADD64R,0.05912X0.10636*%
%ADD65R,0.10636X0.05912*%
D10*
X0032510Y0001517D02*
X0285010Y0001517D01*
X0285433Y0001522D01*
X0285855Y0001537D01*
X0286278Y0001563D01*
X0286699Y0001599D01*
X0287119Y0001645D01*
X0287539Y0001701D01*
X0287956Y0001767D01*
X0288372Y0001843D01*
X0288786Y0001929D01*
X0289198Y0002026D01*
X0289607Y0002132D01*
X0290014Y0002248D01*
X0290418Y0002374D01*
X0290818Y0002509D01*
X0291216Y0002654D01*
X0291609Y0002809D01*
X0291999Y0002973D01*
X0292385Y0003147D01*
X0292766Y0003330D01*
X0293143Y0003522D01*
X0293515Y0003723D01*
X0293882Y0003933D01*
X0294244Y0004151D01*
X0294600Y0004379D01*
X0294951Y0004615D01*
X0295296Y0004859D01*
X0295635Y0005112D01*
X0295968Y0005373D01*
X0296295Y0005641D01*
X0296615Y0005918D01*
X0296928Y0006202D01*
X0297234Y0006494D01*
X0297533Y0006793D01*
X0297825Y0007099D01*
X0298109Y0007412D01*
X0298386Y0007732D01*
X0298654Y0008059D01*
X0298915Y0008392D01*
X0299168Y0008731D01*
X0299412Y0009076D01*
X0299648Y0009427D01*
X0299876Y0009783D01*
X0300094Y0010145D01*
X0300304Y0010512D01*
X0300505Y0010884D01*
X0300697Y0011261D01*
X0300880Y0011642D01*
X0301054Y0012028D01*
X0301218Y0012418D01*
X0301373Y0012811D01*
X0301518Y0013209D01*
X0301653Y0013609D01*
X0301779Y0014013D01*
X0301895Y0014420D01*
X0302001Y0014829D01*
X0302098Y0015241D01*
X0302184Y0015655D01*
X0302260Y0016071D01*
X0302326Y0016488D01*
X0302382Y0016908D01*
X0302428Y0017328D01*
X0302464Y0017749D01*
X0302490Y0018172D01*
X0302505Y0018594D01*
X0302510Y0019017D01*
X0302461Y0019017D02*
X0302510Y0030267D01*
X0295010Y0037767D01*
X0295010Y0129017D01*
X0302461Y0136467D01*
X0302461Y0149066D01*
X0302510Y0149017D02*
X0302535Y0149410D01*
X0302551Y0149804D01*
X0302558Y0150197D01*
X0302555Y0150591D01*
X0302542Y0150985D01*
X0302520Y0151378D01*
X0302488Y0151771D01*
X0302447Y0152162D01*
X0302397Y0152553D01*
X0302337Y0152942D01*
X0302268Y0153330D01*
X0302189Y0153716D01*
X0302101Y0154100D01*
X0302004Y0154481D01*
X0301897Y0154861D01*
X0301782Y0155237D01*
X0301657Y0155611D01*
X0301523Y0155981D01*
X0301381Y0156348D01*
X0301230Y0156712D01*
X0301069Y0157072D01*
X0300901Y0157428D01*
X0300723Y0157779D01*
X0300538Y0158127D01*
X0300344Y0158469D01*
X0300141Y0158807D01*
X0299931Y0159140D01*
X0299712Y0159468D01*
X0299486Y0159790D01*
X0299252Y0160107D01*
X0299011Y0160418D01*
X0298762Y0160723D01*
X0298505Y0161022D01*
X0298242Y0161315D01*
X0297971Y0161601D01*
X0297694Y0161881D01*
X0297410Y0162154D01*
X0297120Y0162420D01*
X0296823Y0162679D01*
X0296520Y0162930D01*
X0296211Y0163175D01*
X0295896Y0163411D01*
X0295576Y0163640D01*
X0295250Y0163861D01*
X0294919Y0164075D01*
X0294582Y0164280D01*
X0294241Y0164477D01*
X0293896Y0164666D01*
X0293546Y0164846D01*
X0293191Y0165018D01*
X0292833Y0165181D01*
X0292470Y0165335D01*
X0292104Y0165481D01*
X0291735Y0165618D01*
X0291363Y0165746D01*
X0290987Y0165864D01*
X0290609Y0165974D01*
X0290228Y0166075D01*
X0289845Y0166166D01*
X0289460Y0166248D01*
X0289073Y0166320D01*
X0288684Y0166384D01*
X0288294Y0166438D01*
X0287902Y0166482D01*
X0287510Y0166517D01*
X0032510Y0166517D01*
X0032115Y0166543D01*
X0031720Y0166559D01*
X0031324Y0166565D01*
X0030928Y0166562D01*
X0030532Y0166549D01*
X0030137Y0166526D01*
X0029743Y0166494D01*
X0029349Y0166453D01*
X0028957Y0166401D01*
X0028565Y0166341D01*
X0028176Y0166271D01*
X0027788Y0166191D01*
X0027403Y0166102D01*
X0027019Y0166004D01*
X0026638Y0165896D01*
X0026260Y0165779D01*
X0025885Y0165653D01*
X0025513Y0165518D01*
X0025144Y0165374D01*
X0024779Y0165221D01*
X0024418Y0165059D01*
X0024061Y0164889D01*
X0023708Y0164710D01*
X0023359Y0164522D01*
X0023015Y0164326D01*
X0022676Y0164121D01*
X0022342Y0163909D01*
X0022014Y0163688D01*
X0021691Y0163460D01*
X0021373Y0163224D01*
X0021061Y0162980D01*
X0020756Y0162728D01*
X0020456Y0162469D01*
X0020163Y0162204D01*
X0019876Y0161931D01*
X0019596Y0161651D01*
X0019323Y0161364D01*
X0019058Y0161071D01*
X0018799Y0160771D01*
X0018547Y0160466D01*
X0018303Y0160154D01*
X0018067Y0159836D01*
X0017839Y0159513D01*
X0017618Y0159185D01*
X0017406Y0158851D01*
X0017201Y0158512D01*
X0017005Y0158168D01*
X0016817Y0157819D01*
X0016638Y0157466D01*
X0016468Y0157109D01*
X0016306Y0156748D01*
X0016153Y0156383D01*
X0016009Y0156014D01*
X0015874Y0155642D01*
X0015748Y0155267D01*
X0015631Y0154889D01*
X0015523Y0154508D01*
X0015425Y0154124D01*
X0015336Y0153739D01*
X0015256Y0153351D01*
X0015186Y0152962D01*
X0015126Y0152570D01*
X0015074Y0152178D01*
X0015033Y0151784D01*
X0015001Y0151390D01*
X0014978Y0150995D01*
X0014965Y0150599D01*
X0014962Y0150203D01*
X0014968Y0149807D01*
X0014984Y0149412D01*
X0015010Y0149017D01*
X0015010Y0019017D01*
X0014984Y0018622D01*
X0014968Y0018227D01*
X0014962Y0017831D01*
X0014965Y0017435D01*
X0014978Y0017039D01*
X0015001Y0016644D01*
X0015033Y0016250D01*
X0015074Y0015856D01*
X0015126Y0015464D01*
X0015186Y0015072D01*
X0015256Y0014683D01*
X0015336Y0014295D01*
X0015425Y0013910D01*
X0015523Y0013526D01*
X0015631Y0013145D01*
X0015748Y0012767D01*
X0015874Y0012392D01*
X0016009Y0012020D01*
X0016153Y0011651D01*
X0016306Y0011286D01*
X0016468Y0010925D01*
X0016638Y0010568D01*
X0016817Y0010215D01*
X0017005Y0009866D01*
X0017201Y0009522D01*
X0017406Y0009183D01*
X0017618Y0008849D01*
X0017839Y0008521D01*
X0018067Y0008198D01*
X0018303Y0007880D01*
X0018547Y0007568D01*
X0018799Y0007263D01*
X0019058Y0006963D01*
X0019323Y0006670D01*
X0019596Y0006383D01*
X0019876Y0006103D01*
X0020163Y0005830D01*
X0020456Y0005565D01*
X0020756Y0005306D01*
X0021061Y0005054D01*
X0021373Y0004810D01*
X0021691Y0004574D01*
X0022014Y0004346D01*
X0022342Y0004125D01*
X0022676Y0003913D01*
X0023015Y0003708D01*
X0023359Y0003512D01*
X0023708Y0003324D01*
X0024061Y0003145D01*
X0024418Y0002975D01*
X0024779Y0002813D01*
X0025144Y0002660D01*
X0025513Y0002516D01*
X0025885Y0002381D01*
X0026260Y0002255D01*
X0026638Y0002138D01*
X0027019Y0002030D01*
X0027403Y0001932D01*
X0027788Y0001843D01*
X0028176Y0001763D01*
X0028565Y0001693D01*
X0028957Y0001633D01*
X0029349Y0001581D01*
X0029743Y0001540D01*
X0030137Y0001508D01*
X0030532Y0001485D01*
X0030928Y0001472D01*
X0031324Y0001469D01*
X0031720Y0001475D01*
X0032115Y0001491D01*
X0032510Y0001517D01*
X0109129Y0007142D02*
X0109131Y0007247D01*
X0109137Y0007352D01*
X0109147Y0007456D01*
X0109161Y0007560D01*
X0109179Y0007664D01*
X0109201Y0007766D01*
X0109226Y0007868D01*
X0109256Y0007969D01*
X0109289Y0008068D01*
X0109326Y0008166D01*
X0109367Y0008263D01*
X0109412Y0008358D01*
X0109460Y0008451D01*
X0109511Y0008543D01*
X0109567Y0008632D01*
X0109625Y0008719D01*
X0109687Y0008804D01*
X0109751Y0008887D01*
X0109819Y0008967D01*
X0109890Y0009044D01*
X0109964Y0009118D01*
X0110041Y0009190D01*
X0110120Y0009259D01*
X0110202Y0009324D01*
X0110286Y0009387D01*
X0110373Y0009446D01*
X0110462Y0009502D01*
X0110553Y0009555D01*
X0110646Y0009604D01*
X0110740Y0009649D01*
X0110836Y0009691D01*
X0110934Y0009729D01*
X0111033Y0009763D01*
X0111134Y0009794D01*
X0111235Y0009820D01*
X0111338Y0009843D01*
X0111441Y0009862D01*
X0111545Y0009877D01*
X0111649Y0009888D01*
X0111754Y0009895D01*
X0111859Y0009898D01*
X0111964Y0009897D01*
X0112069Y0009892D01*
X0112173Y0009883D01*
X0112277Y0009870D01*
X0112381Y0009853D01*
X0112484Y0009832D01*
X0112586Y0009807D01*
X0112687Y0009779D01*
X0112786Y0009746D01*
X0112885Y0009710D01*
X0112982Y0009670D01*
X0113077Y0009627D01*
X0113171Y0009579D01*
X0113263Y0009529D01*
X0113353Y0009475D01*
X0113441Y0009417D01*
X0113526Y0009356D01*
X0113609Y0009292D01*
X0113690Y0009225D01*
X0113768Y0009155D01*
X0113843Y0009081D01*
X0113915Y0009006D01*
X0113985Y0008927D01*
X0114051Y0008846D01*
X0114115Y0008762D01*
X0114175Y0008676D01*
X0114231Y0008588D01*
X0114285Y0008497D01*
X0114335Y0008405D01*
X0114381Y0008311D01*
X0114424Y0008215D01*
X0114463Y0008117D01*
X0114498Y0008019D01*
X0114529Y0007918D01*
X0114557Y0007817D01*
X0114581Y0007715D01*
X0114601Y0007612D01*
X0114617Y0007508D01*
X0114629Y0007404D01*
X0114637Y0007299D01*
X0114641Y0007194D01*
X0114641Y0007090D01*
X0114637Y0006985D01*
X0114629Y0006880D01*
X0114617Y0006776D01*
X0114601Y0006672D01*
X0114581Y0006569D01*
X0114557Y0006467D01*
X0114529Y0006366D01*
X0114498Y0006265D01*
X0114463Y0006167D01*
X0114424Y0006069D01*
X0114381Y0005973D01*
X0114335Y0005879D01*
X0114285Y0005787D01*
X0114231Y0005696D01*
X0114175Y0005608D01*
X0114115Y0005522D01*
X0114051Y0005438D01*
X0113985Y0005357D01*
X0113915Y0005278D01*
X0113843Y0005203D01*
X0113768Y0005129D01*
X0113690Y0005059D01*
X0113609Y0004992D01*
X0113526Y0004928D01*
X0113441Y0004867D01*
X0113353Y0004809D01*
X0113263Y0004755D01*
X0113171Y0004705D01*
X0113077Y0004657D01*
X0112982Y0004614D01*
X0112885Y0004574D01*
X0112786Y0004538D01*
X0112687Y0004505D01*
X0112586Y0004477D01*
X0112484Y0004452D01*
X0112381Y0004431D01*
X0112277Y0004414D01*
X0112173Y0004401D01*
X0112069Y0004392D01*
X0111964Y0004387D01*
X0111859Y0004386D01*
X0111754Y0004389D01*
X0111649Y0004396D01*
X0111545Y0004407D01*
X0111441Y0004422D01*
X0111338Y0004441D01*
X0111235Y0004464D01*
X0111134Y0004490D01*
X0111033Y0004521D01*
X0110934Y0004555D01*
X0110836Y0004593D01*
X0110740Y0004635D01*
X0110646Y0004680D01*
X0110553Y0004729D01*
X0110462Y0004782D01*
X0110373Y0004838D01*
X0110286Y0004897D01*
X0110202Y0004960D01*
X0110120Y0005025D01*
X0110041Y0005094D01*
X0109964Y0005166D01*
X0109890Y0005240D01*
X0109819Y0005317D01*
X0109751Y0005397D01*
X0109687Y0005480D01*
X0109625Y0005565D01*
X0109567Y0005652D01*
X0109511Y0005741D01*
X0109460Y0005833D01*
X0109412Y0005926D01*
X0109367Y0006021D01*
X0109326Y0006118D01*
X0109289Y0006216D01*
X0109256Y0006315D01*
X0109226Y0006416D01*
X0109201Y0006518D01*
X0109179Y0006620D01*
X0109161Y0006724D01*
X0109147Y0006828D01*
X0109137Y0006932D01*
X0109131Y0007037D01*
X0109129Y0007142D01*
X0109129Y0018392D02*
X0109131Y0018497D01*
X0109137Y0018602D01*
X0109147Y0018706D01*
X0109161Y0018810D01*
X0109179Y0018914D01*
X0109201Y0019016D01*
X0109226Y0019118D01*
X0109256Y0019219D01*
X0109289Y0019318D01*
X0109326Y0019416D01*
X0109367Y0019513D01*
X0109412Y0019608D01*
X0109460Y0019701D01*
X0109511Y0019793D01*
X0109567Y0019882D01*
X0109625Y0019969D01*
X0109687Y0020054D01*
X0109751Y0020137D01*
X0109819Y0020217D01*
X0109890Y0020294D01*
X0109964Y0020368D01*
X0110041Y0020440D01*
X0110120Y0020509D01*
X0110202Y0020574D01*
X0110286Y0020637D01*
X0110373Y0020696D01*
X0110462Y0020752D01*
X0110553Y0020805D01*
X0110646Y0020854D01*
X0110740Y0020899D01*
X0110836Y0020941D01*
X0110934Y0020979D01*
X0111033Y0021013D01*
X0111134Y0021044D01*
X0111235Y0021070D01*
X0111338Y0021093D01*
X0111441Y0021112D01*
X0111545Y0021127D01*
X0111649Y0021138D01*
X0111754Y0021145D01*
X0111859Y0021148D01*
X0111964Y0021147D01*
X0112069Y0021142D01*
X0112173Y0021133D01*
X0112277Y0021120D01*
X0112381Y0021103D01*
X0112484Y0021082D01*
X0112586Y0021057D01*
X0112687Y0021029D01*
X0112786Y0020996D01*
X0112885Y0020960D01*
X0112982Y0020920D01*
X0113077Y0020877D01*
X0113171Y0020829D01*
X0113263Y0020779D01*
X0113353Y0020725D01*
X0113441Y0020667D01*
X0113526Y0020606D01*
X0113609Y0020542D01*
X0113690Y0020475D01*
X0113768Y0020405D01*
X0113843Y0020331D01*
X0113915Y0020256D01*
X0113985Y0020177D01*
X0114051Y0020096D01*
X0114115Y0020012D01*
X0114175Y0019926D01*
X0114231Y0019838D01*
X0114285Y0019747D01*
X0114335Y0019655D01*
X0114381Y0019561D01*
X0114424Y0019465D01*
X0114463Y0019367D01*
X0114498Y0019269D01*
X0114529Y0019168D01*
X0114557Y0019067D01*
X0114581Y0018965D01*
X0114601Y0018862D01*
X0114617Y0018758D01*
X0114629Y0018654D01*
X0114637Y0018549D01*
X0114641Y0018444D01*
X0114641Y0018340D01*
X0114637Y0018235D01*
X0114629Y0018130D01*
X0114617Y0018026D01*
X0114601Y0017922D01*
X0114581Y0017819D01*
X0114557Y0017717D01*
X0114529Y0017616D01*
X0114498Y0017515D01*
X0114463Y0017417D01*
X0114424Y0017319D01*
X0114381Y0017223D01*
X0114335Y0017129D01*
X0114285Y0017037D01*
X0114231Y0016946D01*
X0114175Y0016858D01*
X0114115Y0016772D01*
X0114051Y0016688D01*
X0113985Y0016607D01*
X0113915Y0016528D01*
X0113843Y0016453D01*
X0113768Y0016379D01*
X0113690Y0016309D01*
X0113609Y0016242D01*
X0113526Y0016178D01*
X0113441Y0016117D01*
X0113353Y0016059D01*
X0113263Y0016005D01*
X0113171Y0015955D01*
X0113077Y0015907D01*
X0112982Y0015864D01*
X0112885Y0015824D01*
X0112786Y0015788D01*
X0112687Y0015755D01*
X0112586Y0015727D01*
X0112484Y0015702D01*
X0112381Y0015681D01*
X0112277Y0015664D01*
X0112173Y0015651D01*
X0112069Y0015642D01*
X0111964Y0015637D01*
X0111859Y0015636D01*
X0111754Y0015639D01*
X0111649Y0015646D01*
X0111545Y0015657D01*
X0111441Y0015672D01*
X0111338Y0015691D01*
X0111235Y0015714D01*
X0111134Y0015740D01*
X0111033Y0015771D01*
X0110934Y0015805D01*
X0110836Y0015843D01*
X0110740Y0015885D01*
X0110646Y0015930D01*
X0110553Y0015979D01*
X0110462Y0016032D01*
X0110373Y0016088D01*
X0110286Y0016147D01*
X0110202Y0016210D01*
X0110120Y0016275D01*
X0110041Y0016344D01*
X0109964Y0016416D01*
X0109890Y0016490D01*
X0109819Y0016567D01*
X0109751Y0016647D01*
X0109687Y0016730D01*
X0109625Y0016815D01*
X0109567Y0016902D01*
X0109511Y0016991D01*
X0109460Y0017083D01*
X0109412Y0017176D01*
X0109367Y0017271D01*
X0109326Y0017368D01*
X0109289Y0017466D01*
X0109256Y0017565D01*
X0109226Y0017666D01*
X0109201Y0017768D01*
X0109179Y0017870D01*
X0109161Y0017974D01*
X0109147Y0018078D01*
X0109137Y0018182D01*
X0109131Y0018287D01*
X0109129Y0018392D01*
D11*
X0111885Y0018392D03*
X0111885Y0007142D03*
D12*
X0130635Y0006829D03*
X0130635Y0018704D03*
D13*
X0080010Y0102142D03*
D14*
X0157198Y0106204D03*
D15*
X0186260Y0103767D03*
X0186260Y0111767D03*
X0147198Y0087392D03*
X0147198Y0079392D03*
X0178760Y0048017D03*
X0178760Y0040017D03*
X0178760Y0034267D03*
X0178760Y0026267D03*
X0106260Y0038767D03*
X0106260Y0046767D03*
X0065635Y0036142D03*
X0065635Y0028142D03*
X0036260Y0055017D03*
X0036260Y0063017D03*
D16*
X0057885Y0055892D03*
X0065885Y0055892D03*
X0082260Y0039642D03*
X0090260Y0039642D03*
X0090260Y0031517D03*
X0082260Y0031517D03*
X0146610Y0057712D03*
X0154610Y0057712D03*
X0048385Y0081517D03*
X0040385Y0081517D03*
X0192260Y0146517D03*
X0200260Y0146517D03*
D17*
X0055010Y0111576D03*
X0055010Y0106458D03*
X0055010Y0100326D03*
X0055010Y0095208D03*
D18*
X0169686Y0157949D03*
X0117717Y0161492D03*
D19*
X0139764Y0106374D03*
X0163386Y0106374D03*
D20*
X0140158Y0144957D03*
X0135827Y0146531D03*
X0144489Y0146531D03*
X0148820Y0148106D03*
X0153150Y0146531D03*
X0157481Y0148106D03*
X0161812Y0146531D03*
X0166142Y0146531D03*
D21*
X0075010Y0154814D03*
X0075010Y0160719D03*
D22*
X0074105Y0115527D03*
X0076073Y0115527D03*
X0078042Y0115527D03*
X0080010Y0115527D03*
X0081979Y0115527D03*
X0083947Y0115527D03*
X0085916Y0115527D03*
X0087884Y0115527D03*
X0089853Y0115527D03*
X0072136Y0115527D03*
X0070168Y0115527D03*
X0070168Y0088756D03*
X0072136Y0088756D03*
X0074105Y0088756D03*
X0076073Y0088756D03*
X0078042Y0088756D03*
X0080010Y0088756D03*
X0081979Y0088756D03*
X0083947Y0088756D03*
X0085916Y0088756D03*
X0087884Y0088756D03*
X0089853Y0088756D03*
D23*
X0093396Y0092299D03*
X0093396Y0094268D03*
X0093396Y0096236D03*
X0093396Y0098205D03*
X0093396Y0100173D03*
X0093396Y0102142D03*
X0093396Y0104110D03*
X0093396Y0106079D03*
X0093396Y0108047D03*
X0093396Y0110016D03*
X0093396Y0111984D03*
X0066625Y0111984D03*
X0066625Y0110016D03*
X0066625Y0108047D03*
X0066625Y0106079D03*
X0066625Y0104110D03*
X0066625Y0102142D03*
X0066625Y0100173D03*
X0066625Y0098205D03*
X0066625Y0096236D03*
X0066625Y0094268D03*
X0066625Y0092299D03*
D24*
X0051841Y0075016D03*
X0051841Y0071866D03*
X0051841Y0068716D03*
X0051841Y0065567D03*
X0051841Y0062417D03*
X0051841Y0059268D03*
X0043180Y0059268D03*
X0043180Y0062417D03*
X0043180Y0065567D03*
X0043180Y0068716D03*
X0043180Y0071866D03*
X0043180Y0075016D03*
D25*
X0047510Y0075409D03*
X0047510Y0058874D03*
X0053677Y0021728D03*
X0065094Y0021728D03*
X0065094Y0007555D03*
X0053677Y0007555D03*
D26*
X0052496Y0014642D03*
X0066275Y0014642D03*
D27*
X0059385Y0007555D03*
D28*
X0187225Y0024440D03*
X0187225Y0026408D03*
X0187225Y0028377D03*
X0187225Y0030345D03*
X0187225Y0032314D03*
X0187225Y0034282D03*
X0187225Y0036251D03*
X0187225Y0038219D03*
X0187225Y0040188D03*
X0187225Y0042156D03*
X0187225Y0044125D03*
X0187225Y0046093D03*
X0220296Y0046093D03*
X0220296Y0044125D03*
X0220296Y0042156D03*
X0220296Y0040188D03*
X0220296Y0038219D03*
X0220296Y0036251D03*
X0220296Y0034282D03*
X0220296Y0032314D03*
X0220296Y0030345D03*
X0220296Y0028377D03*
X0220296Y0026408D03*
X0220296Y0024440D03*
D29*
X0214587Y0018731D03*
X0212619Y0018731D03*
X0210650Y0018731D03*
X0208682Y0018731D03*
X0206713Y0018731D03*
X0204745Y0018731D03*
X0202776Y0018731D03*
X0200808Y0018731D03*
X0198839Y0018731D03*
X0196871Y0018731D03*
X0194902Y0018731D03*
X0192934Y0018731D03*
X0192934Y0051802D03*
X0194902Y0051802D03*
X0196871Y0051802D03*
X0198839Y0051802D03*
X0200808Y0051802D03*
X0202776Y0051802D03*
X0204745Y0051802D03*
X0206713Y0051802D03*
X0208682Y0051802D03*
X0210650Y0051802D03*
X0212619Y0051802D03*
X0214587Y0051802D03*
D30*
X0215020Y0105774D03*
X0218760Y0105774D03*
X0222501Y0105774D03*
X0222501Y0116010D03*
X0218760Y0116010D03*
X0215020Y0116010D03*
D31*
X0099366Y0057855D03*
X0099366Y0055296D03*
X0099366Y0052737D03*
X0099366Y0050178D03*
X0084405Y0050178D03*
X0084405Y0052737D03*
X0084405Y0055296D03*
X0084405Y0057855D03*
D32*
X0088047Y0061497D03*
X0090606Y0061497D03*
X0093165Y0061497D03*
X0095724Y0061497D03*
X0095724Y0046536D03*
X0093165Y0046536D03*
X0090606Y0046536D03*
X0088047Y0046536D03*
D33*
X0049538Y0097358D03*
X0040483Y0097358D03*
X0040483Y0111925D03*
X0049538Y0111925D03*
D34*
X0163736Y0036472D03*
X0170035Y0036472D03*
X0170035Y0027811D03*
X0163736Y0027811D03*
D35*
X0260817Y0053042D02*
X0262589Y0053042D01*
X0262589Y0054617D02*
X0260817Y0054617D01*
X0260817Y0056192D02*
X0262589Y0056192D01*
X0262589Y0057767D02*
X0260817Y0057767D01*
X0260817Y0059341D02*
X0262589Y0059341D01*
X0262589Y0060916D02*
X0260817Y0060916D01*
X0260817Y0062491D02*
X0262589Y0062491D01*
X0272432Y0062491D02*
X0274204Y0062491D01*
X0274204Y0060916D02*
X0272432Y0060916D01*
X0272432Y0059341D02*
X0274204Y0059341D01*
X0274204Y0057767D02*
X0272432Y0057767D01*
X0272432Y0056192D02*
X0274204Y0056192D01*
X0274204Y0054617D02*
X0272432Y0054617D01*
X0272432Y0053042D02*
X0274204Y0053042D01*
D36*
X0267510Y0057767D03*
D37*
X0107609Y0146871D03*
X0082412Y0146871D03*
D38*
X0081526Y0156517D03*
X0108495Y0156517D03*
D39*
X0099735Y0156517D03*
X0090286Y0156517D03*
D40*
X0089892Y0145985D03*
X0092451Y0145985D03*
X0095010Y0145985D03*
X0097570Y0145985D03*
X0100129Y0145985D03*
D41*
X0220517Y0149007D03*
X0230754Y0149007D03*
X0230754Y0145267D03*
X0230754Y0141527D03*
X0220517Y0141527D03*
D42*
X0221895Y0135267D03*
X0229376Y0135267D03*
X0230001Y0122142D03*
X0222520Y0122142D03*
X0208126Y0119017D03*
X0200645Y0119017D03*
X0200020Y0105892D03*
X0207501Y0105892D03*
X0208770Y0075892D03*
X0216251Y0075892D03*
X0241895Y0060267D03*
X0249376Y0060267D03*
X0249376Y0052142D03*
X0241895Y0052142D03*
X0268145Y0072142D03*
X0275626Y0072142D03*
X0275626Y0080267D03*
X0268145Y0080267D03*
X0237501Y0010267D03*
X0230020Y0010267D03*
X0126251Y0029642D03*
X0118770Y0029642D03*
X0052501Y0049017D03*
X0045020Y0049017D03*
X0100020Y0080892D03*
X0107501Y0080892D03*
X0110001Y0110267D03*
X0102520Y0110267D03*
X0220645Y0155267D03*
X0228126Y0155267D03*
D43*
X0214385Y0141507D03*
X0214385Y0134027D03*
X0186260Y0139027D03*
X0177510Y0139027D03*
X0177510Y0146507D03*
X0186260Y0146507D03*
X0083135Y0137132D03*
X0083135Y0129652D03*
X0147198Y0072132D03*
X0147198Y0064652D03*
X0208760Y0068382D03*
X0216260Y0068382D03*
X0225010Y0070902D03*
X0225010Y0078382D03*
X0216260Y0060902D03*
X0208760Y0060902D03*
X0256260Y0047757D03*
X0256260Y0040277D03*
X0260635Y0070589D03*
X0260635Y0078069D03*
X0145635Y0029007D03*
X0145635Y0021527D03*
X0029385Y0052152D03*
X0020010Y0052152D03*
X0020010Y0059632D03*
X0029385Y0059632D03*
D44*
X0057510Y0121527D03*
X0057510Y0129007D03*
X0075010Y0141527D03*
X0075010Y0149007D03*
X0092510Y0138382D03*
X0100635Y0138382D03*
X0110010Y0135882D03*
X0100635Y0130902D03*
X0092510Y0130902D03*
X0110010Y0128402D03*
X0176885Y0110882D03*
X0176885Y0103402D03*
X0199385Y0090882D03*
X0199385Y0083402D03*
X0199385Y0075569D03*
X0199385Y0068089D03*
X0226260Y0062132D03*
X0233760Y0062132D03*
X0233760Y0054652D03*
X0226260Y0054652D03*
X0230010Y0024632D03*
X0230010Y0017152D03*
X0156260Y0028402D03*
X0156260Y0035882D03*
X0145635Y0037762D03*
X0145635Y0045242D03*
X0257510Y0104027D03*
X0257510Y0111507D03*
X0251260Y0132777D03*
X0251260Y0140257D03*
X0253760Y0150902D03*
X0245635Y0150902D03*
X0245635Y0158382D03*
X0253760Y0158382D03*
X0206260Y0141507D03*
X0206260Y0134027D03*
D45*
X0265020Y0104642D03*
X0272501Y0104642D03*
X0270626Y0090892D03*
X0263145Y0090892D03*
X0269395Y0040267D03*
X0276876Y0040267D03*
X0237501Y0034017D03*
X0230020Y0034017D03*
X0251270Y0006517D03*
X0258751Y0006517D03*
X0170001Y0067142D03*
X0162520Y0067142D03*
X0162520Y0075267D03*
X0170001Y0075267D03*
X0114376Y0069642D03*
X0106895Y0069642D03*
X0106895Y0061517D03*
X0114376Y0061517D03*
X0112501Y0090892D03*
X0105020Y0090892D03*
X0105020Y0098392D03*
X0112501Y0098392D03*
X0110001Y0120267D03*
X0102520Y0120267D03*
X0104376Y0031517D03*
X0096895Y0031517D03*
X0085626Y0023392D03*
X0078145Y0023392D03*
D46*
X0260260Y0131267D03*
X0267260Y0131267D03*
X0263760Y0139267D03*
D47*
X0273135Y0122097D03*
X0269395Y0113436D03*
X0276876Y0113436D03*
X0085626Y0015222D03*
X0078145Y0015222D03*
X0081885Y0006561D03*
D48*
X0095635Y0007767D03*
X0095635Y0017767D03*
X0031885Y0079017D03*
X0021885Y0079017D03*
X0230010Y0042142D03*
X0240010Y0042142D03*
X0233135Y0104017D03*
D49*
X0202510Y0153517D02*
X0202510Y0159517D01*
X0192510Y0159517D02*
X0192510Y0153517D01*
X0182510Y0153517D02*
X0182510Y0159517D01*
X0126760Y0079642D02*
X0120760Y0079642D01*
X0120760Y0069642D02*
X0126760Y0069642D01*
X0126760Y0059642D02*
X0120760Y0059642D01*
X0120760Y0049642D02*
X0126760Y0049642D01*
X0126760Y0039642D02*
X0120760Y0039642D01*
D50*
X0068135Y0139017D03*
X0053135Y0139017D03*
X0053135Y0159017D03*
X0068135Y0159017D03*
D51*
X0032510Y0149017D03*
X0032510Y0019017D03*
X0285010Y0019017D03*
X0287510Y0149017D03*
D52*
X0168669Y0057572D03*
X0168669Y0054029D03*
X0168669Y0050879D03*
X0168669Y0047336D03*
X0161976Y0047336D03*
X0161976Y0050879D03*
X0161976Y0054029D03*
X0161976Y0057572D03*
X0179789Y0018510D03*
X0179789Y0014966D03*
X0179789Y0011817D03*
X0179789Y0008274D03*
X0186482Y0008274D03*
X0186482Y0011817D03*
X0186482Y0014966D03*
X0186482Y0018510D03*
D53*
X0288760Y0042767D03*
X0288760Y0052767D03*
X0288760Y0062767D03*
X0288760Y0072767D03*
X0288760Y0094017D03*
X0288760Y0104017D03*
X0288760Y0114017D03*
X0288760Y0124017D03*
X0265010Y0147767D03*
X0265010Y0157767D03*
D54*
X0214873Y0086841D03*
X0210148Y0086841D03*
D55*
X0021885Y0118392D03*
D56*
X0031885Y0118392D03*
X0031885Y0108392D03*
X0021885Y0108392D03*
X0021885Y0098392D03*
X0031885Y0098392D03*
D57*
X0240680Y0102777D03*
X0249341Y0106517D03*
X0240680Y0110257D03*
X0249430Y0119027D03*
X0258091Y0122767D03*
X0249430Y0126507D03*
D58*
X0048635Y0122767D03*
X0042635Y0122767D03*
D59*
X0045635Y0122767D03*
D60*
X0040640Y0042855D03*
X0040640Y0040296D03*
X0040640Y0037737D03*
X0040640Y0035178D03*
X0056881Y0035178D03*
X0056881Y0037737D03*
X0056881Y0040296D03*
X0056881Y0042855D03*
D61*
X0030010Y0042142D03*
X0020010Y0042142D03*
D62*
X0243135Y0071443D03*
X0243135Y0090340D03*
D63*
X0243687Y0024017D03*
X0262584Y0024017D03*
D64*
X0184385Y0067821D03*
X0184385Y0083963D03*
D65*
X0173081Y0090267D03*
X0156940Y0090267D03*
M02*
