solid OpenSCAD_Model
  facet normal -1.57009e-16 -3.79054e-16 -1
    outer loop
      vertex -33.3592 33.3592 -38
      vertex -38 -38 -38
      vertex -38 38 -38
    endloop
  endfacet
  facet normal -1.57009e-16 -3.79054e-16 -1
    outer loop
      vertex 38 -38 -38
      vertex -38 -38 -38
      vertex 32.75 -35.299 -38
    endloop
  endfacet
  facet normal -1.57009e-16 -3.79054e-16 -1
    outer loop
      vertex 33.3592 33.3592 -38
      vertex 38 38 -38
      vertex 33.3592 -33.3592 -38
    endloop
  endfacet
  facet normal -1.57009e-16 -3.79054e-16 -1
    outer loop
      vertex 20.75 -35.299 -38
      vertex -38 -38 -38
      vertex 18.5 -34 -38
    endloop
  endfacet
  facet normal -1.57009e-16 -3.79054e-16 -1
    outer loop
      vertex 38 -38 -38
      vertex 32.75 -35.299 -38
      vertex 33.3592 -33.3592 -38
    endloop
  endfacet
  facet normal -1.57009e-16 -3.79054e-16 -1
    outer loop
      vertex 38 -38 -38
      vertex 33.3592 -33.3592 -38
      vertex 38 38 -38
    endloop
  endfacet
  facet normal -1.57009e-16 -3.79054e-16 -1
    outer loop
      vertex 19.6099 -33.3592 -38
      vertex -38 -38 -38
      vertex -33.3592 -33.3592 -38
    endloop
  endfacet
  facet normal -1.57009e-16 -3.79054e-16 -1
    outer loop
      vertex 38 38 -38
      vertex 33.3592 33.3592 -38
      vertex -38 38 -38
    endloop
  endfacet
  facet normal -1.57009e-16 -3.79054e-16 -1
    outer loop
      vertex -33.3592 -33.3592 -38
      vertex -38 -38 -38
      vertex -33.3592 33.3592 -38
    endloop
  endfacet
  facet normal -1.57009e-16 -3.79054e-16 -1
    outer loop
      vertex 33.3592 33.3592 -38
      vertex -33.3592 33.3592 -38
      vertex -38 38 -38
    endloop
  endfacet
  facet normal -1.57009e-16 -3.79054e-16 -1
    outer loop
      vertex 18.5 -34 -38
      vertex -38 -38 -38
      vertex 19.6099 -33.3592 -38
    endloop
  endfacet
  facet normal -1.57009e-16 -3.79054e-16 -1
    outer loop
      vertex 26.75 -35.299 -38
      vertex -38 -38 -38
      vertex 20.75 -35.299 -38
    endloop
  endfacet
  facet normal -1.57009e-16 -3.79054e-16 -1
    outer loop
      vertex 26.75 -33.3592 -38
      vertex 31.6099 -33.3592 -38
      vertex 30.5 -34 -38
    endloop
  endfacet
  facet normal -1.57009e-16 -3.79054e-16 -1
    outer loop
      vertex 20.75 -33.3592 -38
      vertex 25.6099 -33.3592 -38
      vertex 24.5 -34 -38
    endloop
  endfacet
  facet normal -1.57009e-16 -3.79054e-16 -1
    outer loop
      vertex 26.75 -35.299 -38
      vertex 20.75 -35.299 -38
      vertex 24.5 -34 -38
    endloop
  endfacet
  facet normal -1.57009e-16 -3.79054e-16 -1
    outer loop
      vertex 20.75 -33.3592 -38
      vertex 24.5 -34 -38
      vertex 20.75 -35.299 -38
    endloop
  endfacet
  facet normal -1.57009e-16 -3.79054e-16 -1
    outer loop
      vertex 26.75 -33.3592 -38
      vertex 30.5 -34 -38
      vertex 26.75 -35.299 -38
    endloop
  endfacet
  facet normal -1.57009e-16 -3.79054e-16 -1
    outer loop
      vertex 32.75 -35.299 -38
      vertex -38 -38 -38
      vertex 26.75 -35.299 -38
    endloop
  endfacet
  facet normal -1.57009e-16 -3.79054e-16 -1
    outer loop
      vertex 33.3592 -33.3592 -38
      vertex 32.75 -35.299 -38
      vertex 32.75 -33.3592 -38
    endloop
  endfacet
  facet normal -1.57009e-16 -3.79054e-16 -1
    outer loop
      vertex 32.75 -35.299 -38
      vertex 26.75 -35.299 -38
      vertex 30.5 -34 -38
    endloop
  endfacet
  facet normal 5.55111e-17 -0.707107 0.707107
    outer loop
      vertex 28.95 -34 -34
      vertex 38 -38 -38
      vertex 30 -30 -30
    endloop
  endfacet
  facet normal 5.55111e-17 -0.707107 0.707107
    outer loop
      vertex -20 -36.8 -36.8
      vertex -27.2314 -34.5584 -34.5584
      vertex -27.4416 -34.7686 -34.7686
    endloop
  endfacet
  facet normal 5.55111e-17 -0.707107 0.707107
    outer loop
      vertex 14.5 -33.5 -33.5
      vertex 20 -30.2 -30.2
      vertex 5.5 -33.5 -33.5
    endloop
  endfacet
  facet normal 5.55111e-17 -0.707107 0.707107
    outer loop
      vertex 28.5584 -34.7686 -34.7686
      vertex 38 -38 -38
      vertex 28.7686 -34.5584 -34.5584
    endloop
  endfacet
  facet normal 5.55111e-17 -0.707107 0.707107
    outer loop
      vertex 28.2936 -34.9035 -34.9035
      vertex 38 -38 -38
      vertex 28.5584 -34.7686 -34.7686
    endloop
  endfacet
  facet normal 5.55111e-17 -0.707107 0.707107
    outer loop
      vertex 28 -34.95 -34.95
      vertex 38 -38 -38
      vertex 28.2936 -34.9035 -34.9035
    endloop
  endfacet
  facet normal 5.55111e-17 -0.707107 0.707107
    outer loop
      vertex 20 -36.8 -36.8
      vertex 14.5 -33.5 -33.5
      vertex 1.33227e-16 -36.8 -36.8
    endloop
  endfacet
  facet normal 5.55111e-17 -0.707107 0.707107
    outer loop
      vertex 20 -36.8 -36.8
      vertex 38 -38 -38
      vertex 28 -34.95 -34.95
    endloop
  endfacet
  facet normal 5.55111e-17 -0.707107 0.707107
    outer loop
      vertex -20 -36.8 -36.8
      vertex -25.5 -33.5 -33.5
      vertex -27.2314 -34.5584 -34.5584
    endloop
  endfacet
  facet normal 5.55111e-17 -0.707107 0.707107
    outer loop
      vertex 27.4416 -33.2314 -33.2314
      vertex 27.7064 -33.0965 -33.0965
      vertex 30 -30 -30
    endloop
  endfacet
  facet normal 5.55111e-17 -0.707107 0.707107
    outer loop
      vertex 28.9035 -33.7064 -33.7064
      vertex 28.95 -34 -34
      vertex 30 -30 -30
    endloop
  endfacet
  facet normal 5.55111e-17 -0.707107 0.707107
    outer loop
      vertex 28 -33.05 -33.05
      vertex 28.2936 -33.0965 -33.0965
      vertex 30 -30 -30
    endloop
  endfacet
  facet normal 5.55111e-17 -0.707107 0.707107
    outer loop
      vertex 25.5 -33.5 -33.5
      vertex 27.2314 -33.4416 -33.4416
      vertex 30 -30 -30
    endloop
  endfacet
  facet normal 5.55111e-17 -0.707107 0.707107
    outer loop
      vertex 27.2314 -33.4416 -33.4416
      vertex 27.4416 -33.2314 -33.2314
      vertex 30 -30 -30
    endloop
  endfacet
  facet normal 5.55111e-17 -0.707107 0.707107
    outer loop
      vertex 28.2936 -33.0965 -33.0965
      vertex 28.5584 -33.2314 -33.2314
      vertex 30 -30 -30
    endloop
  endfacet
  facet normal 5.55111e-17 -0.707107 0.707107
    outer loop
      vertex 28.5584 -33.2314 -33.2314
      vertex 28.7686 -33.4416 -33.4416
      vertex 30 -30 -30
    endloop
  endfacet
  facet normal 5.55111e-17 -0.707107 0.707107
    outer loop
      vertex 28.7686 -33.4416 -33.4416
      vertex 28.9035 -33.7064 -33.7064
      vertex 30 -30 -30
    endloop
  endfacet
  facet normal 5.55111e-17 -0.707107 0.707107
    outer loop
      vertex -20 -30.2 -30.2
      vertex -14.5 -33.5 -33.5
      vertex -5.5 -33.5 -33.5
    endloop
  endfacet
  facet normal 5.55111e-17 -0.707107 0.707107
    outer loop
      vertex 28.9035 -34.2936 -34.2936
      vertex 38 -38 -38
      vertex 28.95 -34 -34
    endloop
  endfacet
  facet normal 5.55111e-17 -0.707107 0.707107
    outer loop
      vertex 28.7686 -34.5584 -34.5584
      vertex 38 -38 -38
      vertex 28.9035 -34.2936 -34.2936
    endloop
  endfacet
  facet normal 5.55111e-17 -0.707107 0.707107
    outer loop
      vertex 1.33227e-16 -36.8 -36.8
      vertex -20 -36.8 -36.8
      vertex -38 -38 -38
    endloop
  endfacet
  facet normal 5.55111e-17 -0.707107 0.707107
    outer loop
      vertex -38 -38 -38
      vertex 38 -38 -38
      vertex 20 -36.8 -36.8
    endloop
  endfacet
  facet normal 5.55111e-17 -0.707107 0.707107
    outer loop
      vertex -30 -30 -30
      vertex 20 -30.2 -30.2
      vertex 30 -30 -30
    endloop
  endfacet
  facet normal 5.55111e-17 -0.707107 0.707107
    outer loop
      vertex -20 -36.8 -36.8
      vertex -27.4416 -34.7686 -34.7686
      vertex -27.7064 -34.9035 -34.9035
    endloop
  endfacet
  facet normal 5.55111e-17 -0.707107 0.707107
    outer loop
      vertex 8.65974e-16 -30.2 -30.2
      vertex 5.5 -33.5 -33.5
      vertex 20 -30.2 -30.2
    endloop
  endfacet
  facet normal 5.55111e-17 -0.707107 0.707107
    outer loop
      vertex 1.33227e-16 -36.8 -36.8
      vertex -5.5 -33.5 -33.5
      vertex -20 -36.8 -36.8
    endloop
  endfacet
  facet normal 5.55111e-17 -0.707107 0.707107
    outer loop
      vertex -38 -38 -38
      vertex 20 -36.8 -36.8
      vertex 1.33227e-16 -36.8 -36.8
    endloop
  endfacet
  facet normal 5.55111e-17 -0.707107 0.707107
    outer loop
      vertex 5.5 -33.5 -33.5
      vertex 1.33227e-16 -36.8 -36.8
      vertex 14.5 -33.5 -33.5
    endloop
  endfacet
  facet normal 5.55111e-17 -0.707107 0.707107
    outer loop
      vertex -20 -36.8 -36.8
      vertex -27.7064 -34.9035 -34.9035
      vertex -38 -38 -38
    endloop
  endfacet
  facet normal 5.55111e-17 -0.707107 0.707107
    outer loop
      vertex -30 -30 -30
      vertex 8.65974e-16 -30.2 -30.2
      vertex 20 -30.2 -30.2
    endloop
  endfacet
  facet normal 5.55111e-17 -0.707107 0.707107
    outer loop
      vertex -20 -30.2 -30.2
      vertex -5.5 -33.5 -33.5
      vertex 8.65974e-16 -30.2 -30.2
    endloop
  endfacet
  facet normal 5.55111e-17 -0.707107 0.707107
    outer loop
      vertex -28 -34.95 -34.95
      vertex -28.2936 -34.9035 -34.9035
      vertex -38 -38 -38
    endloop
  endfacet
  facet normal 5.55111e-17 -0.707107 0.707107
    outer loop
      vertex -30 -30 -30
      vertex -20 -30.2 -30.2
      vertex 8.65974e-16 -30.2 -30.2
    endloop
  endfacet
  facet normal 5.55111e-17 -0.707107 0.707107
    outer loop
      vertex -14.5 -33.5 -33.5
      vertex -20 -36.8 -36.8
      vertex -5.5 -33.5 -33.5
    endloop
  endfacet
  facet normal 5.55111e-17 -0.707107 0.707107
    outer loop
      vertex -25.5 -33.5 -33.5
      vertex -20 -30.2 -30.2
      vertex -30 -30 -30
    endloop
  endfacet
  facet normal 5.55111e-17 -0.707107 0.707107
    outer loop
      vertex -27.7064 -33.0965 -33.0965
      vertex -27.4416 -33.2314 -33.2314
      vertex -25.5 -33.5 -33.5
    endloop
  endfacet
  facet normal 5.55111e-17 -0.707107 0.707107
    outer loop
      vertex -28 -34.95 -34.95
      vertex -38 -38 -38
      vertex -27.7064 -34.9035 -34.9035
    endloop
  endfacet
  facet normal 5.55111e-17 -0.707107 0.707107
    outer loop
      vertex -28.2936 -34.9035 -34.9035
      vertex -28.5584 -34.7686 -34.7686
      vertex -38 -38 -38
    endloop
  endfacet
  facet normal 5.55111e-17 -0.707107 0.707107
    outer loop
      vertex -28.5584 -34.7686 -34.7686
      vertex -28.7686 -34.5584 -34.5584
      vertex -38 -38 -38
    endloop
  endfacet
  facet normal 5.55111e-17 -0.707107 0.707107
    outer loop
      vertex -28.95 -34 -34
      vertex -28.9035 -33.7064 -33.7064
      vertex -30 -30 -30
    endloop
  endfacet
  facet normal 5.55111e-17 -0.707107 0.707107
    outer loop
      vertex -28.9035 -34.2936 -34.2936
      vertex -38 -38 -38
      vertex -28.7686 -34.5584 -34.5584
    endloop
  endfacet
  facet normal 5.55111e-17 -0.707107 0.707107
    outer loop
      vertex -30 -30 -30
      vertex -38 -38 -38
      vertex -28.9035 -34.2936 -34.2936
    endloop
  endfacet
  facet normal 5.55111e-17 -0.707107 0.707107
    outer loop
      vertex -30 -30 -30
      vertex -28.9035 -34.2936 -34.2936
      vertex -28.95 -34 -34
    endloop
  endfacet
  facet normal 5.55111e-17 -0.707107 0.707107
    outer loop
      vertex -27.05 -34 -34
      vertex -27.0965 -34.2936 -34.2936
      vertex -25.5 -33.5 -33.5
    endloop
  endfacet
  facet normal 5.55111e-17 -0.707107 0.707107
    outer loop
      vertex -30 -30 -30
      vertex -28.9035 -33.7064 -33.7064
      vertex -28.7686 -33.4416 -33.4416
    endloop
  endfacet
  facet normal 5.55111e-17 -0.707107 0.707107
    outer loop
      vertex -30 -30 -30
      vertex -28.7686 -33.4416 -33.4416
      vertex -28.5584 -33.2314 -33.2314
    endloop
  endfacet
  facet normal 5.55111e-17 -0.707107 0.707107
    outer loop
      vertex -27.4416 -33.2314 -33.2314
      vertex -27.2314 -33.4416 -33.4416
      vertex -25.5 -33.5 -33.5
    endloop
  endfacet
  facet normal 5.55111e-17 -0.707107 0.707107
    outer loop
      vertex -30 -30 -30
      vertex -28.5584 -33.2314 -33.2314
      vertex -28.2936 -33.0965 -33.0965
    endloop
  endfacet
  facet normal 5.55111e-17 -0.707107 0.707107
    outer loop
      vertex -27.2314 -33.4416 -33.4416
      vertex -27.0965 -33.7064 -33.7064
      vertex -25.5 -33.5 -33.5
    endloop
  endfacet
  facet normal 5.55111e-17 -0.707107 0.707107
    outer loop
      vertex -30 -30 -30
      vertex -28.2936 -33.0965 -33.0965
      vertex -28 -33.05 -33.05
    endloop
  endfacet
  facet normal 5.55111e-17 -0.707107 0.707107
    outer loop
      vertex -30 -30 -30
      vertex -27.7064 -33.0965 -33.0965
      vertex -25.5 -33.5 -33.5
    endloop
  endfacet
  facet normal 5.55111e-17 -0.707107 0.707107
    outer loop
      vertex -30 -30 -30
      vertex -28 -33.05 -33.05
      vertex -27.7064 -33.0965 -33.0965
    endloop
  endfacet
  facet normal 5.55111e-17 -0.707107 0.707107
    outer loop
      vertex -27.0965 -33.7064 -33.7064
      vertex -27.05 -34 -34
      vertex -25.5 -33.5 -33.5
    endloop
  endfacet
  facet normal 5.55111e-17 -0.707107 0.707107
    outer loop
      vertex -25.5 -33.5 -33.5
      vertex -27.0965 -34.2936 -34.2936
      vertex -27.2314 -34.5584 -34.5584
    endloop
  endfacet
  facet normal 5.55111e-17 -0.707107 0.707107
    outer loop
      vertex 27.7064 -33.0965 -33.0965
      vertex 28 -33.05 -33.05
      vertex 30 -30 -30
    endloop
  endfacet
  facet normal 5.55111e-17 -0.707107 0.707107
    outer loop
      vertex 20 -30.2 -30.2
      vertex 25.5 -33.5 -33.5
      vertex 30 -30 -30
    endloop
  endfacet
  facet normal 5.55111e-17 -0.707107 0.707107
    outer loop
      vertex 25.5 -33.5 -33.5
      vertex 27.0965 -33.7064 -33.7064
      vertex 27.2314 -33.4416 -33.4416
    endloop
  endfacet
  facet normal 5.55111e-17 -0.707107 0.707107
    outer loop
      vertex 25.5 -33.5 -33.5
      vertex 27.05 -34 -34
      vertex 27.0965 -33.7064 -33.7064
    endloop
  endfacet
  facet normal 5.55111e-17 -0.707107 0.707107
    outer loop
      vertex 25.5 -33.5 -33.5
      vertex 27.0965 -34.2936 -34.2936
      vertex 27.05 -34 -34
    endloop
  endfacet
  facet normal 5.55111e-17 -0.707107 0.707107
    outer loop
      vertex 25.5 -33.5 -33.5
      vertex 27.2314 -34.5584 -34.5584
      vertex 27.0965 -34.2936 -34.2936
    endloop
  endfacet
  facet normal 5.55111e-17 -0.707107 0.707107
    outer loop
      vertex 25.5 -33.5 -33.5
      vertex 27.4416 -34.7686 -34.7686
      vertex 27.2314 -34.5584 -34.5584
    endloop
  endfacet
  facet normal 5.55111e-17 -0.707107 0.707107
    outer loop
      vertex 27.7064 -34.9035 -34.9035
      vertex 20 -36.8 -36.8
      vertex 28 -34.95 -34.95
    endloop
  endfacet
  facet normal 5.55111e-17 -0.707107 0.707107
    outer loop
      vertex 27.4416 -34.7686 -34.7686
      vertex 20 -36.8 -36.8
      vertex 27.7064 -34.9035 -34.9035
    endloop
  endfacet
  facet normal 5.55111e-17 -0.707107 0.707107
    outer loop
      vertex 25.5 -33.5 -33.5
      vertex 20 -36.8 -36.8
      vertex 27.4416 -34.7686 -34.7686
    endloop
  endfacet
  facet normal 0.707107 2.1252e-16 0.707107
    outer loop
      vertex 37 -20 -37
      vertex 38 -38 -38
      vertex 38 38 -38
    endloop
  endfacet
  facet normal 0.707107 2.1252e-16 0.707107
    outer loop
      vertex 37 20 -37
      vertex 34 15 -34
      vertex 34 5 -34
    endloop
  endfacet
  facet normal 0.707107 2.1252e-16 0.707107
    outer loop
      vertex 34 -25 -34
      vertex 38 -38 -38
      vertex 37 -20 -37
    endloop
  endfacet
  facet normal 0.707107 2.1252e-16 0.707107
    outer loop
      vertex 37 -3.62751e-07 -37
      vertex 34 -5 -34
      vertex 34 -15 -34
    endloop
  endfacet
  facet normal 0.707107 2.1252e-16 0.707107
    outer loop
      vertex 30 -30 -30
      vertex 38 -38 -38
      vertex 34 -25 -34
    endloop
  endfacet
  facet normal 0.707107 2.1252e-16 0.707107
    outer loop
      vertex 30 30 -30
      vertex 30 -30 -30
      vertex 31 -20 -31
    endloop
  endfacet
  facet normal 0.707107 2.1252e-16 0.707107
    outer loop
      vertex 37 -3.62751e-07 -37
      vertex 37 -20 -37
      vertex 38 38 -38
    endloop
  endfacet
  facet normal 0.707107 2.1252e-16 0.707107
    outer loop
      vertex 37 3.62751e-07 -37
      vertex 37 -3.62751e-07 -37
      vertex 38 38 -38
    endloop
  endfacet
  facet normal 0.707107 2.1252e-16 0.707107
    outer loop
      vertex 34 -15 -34
      vertex 37 -20 -37
      vertex 37 -3.62751e-07 -37
    endloop
  endfacet
  facet normal 0.707107 2.1252e-16 0.707107
    outer loop
      vertex 34 25 -34
      vertex 37 20 -37
      vertex 38 38 -38
    endloop
  endfacet
  facet normal 0.707107 2.1252e-16 0.707107
    outer loop
      vertex 30 30 -30
      vertex 31 -20 -31
      vertex 31 -1.41843e-14 -31
    endloop
  endfacet
  facet normal 0.707107 2.1252e-16 0.707107
    outer loop
      vertex 37 20 -37
      vertex 37 3.62751e-07 -37
      vertex 38 38 -38
    endloop
  endfacet
  facet normal 0.707107 2.1252e-16 0.707107
    outer loop
      vertex 34 5 -34
      vertex 37 3.62751e-07 -37
      vertex 37 20 -37
    endloop
  endfacet
  facet normal 0.707107 2.1252e-16 0.707107
    outer loop
      vertex 31 -1.41843e-14 -31
      vertex 34 5 -34
      vertex 34 15 -34
    endloop
  endfacet
  facet normal 0.707107 2.1252e-16 0.707107
    outer loop
      vertex 30 30 -30
      vertex 31 20 -31
      vertex 38 38 -38
    endloop
  endfacet
  facet normal 0.707107 2.1252e-16 0.707107
    outer loop
      vertex 30 30 -30
      vertex 31 -1.41843e-14 -31
      vertex 31 20 -31
    endloop
  endfacet
  facet normal 0.707107 2.1252e-16 0.707107
    outer loop
      vertex 31 20 -31
      vertex 34 25 -34
      vertex 38 38 -38
    endloop
  endfacet
  facet normal 0.707107 2.1252e-16 0.707107
    outer loop
      vertex 34 -5 -34
      vertex 31 -1.41843e-14 -31
      vertex 31 -20 -31
    endloop
  endfacet
  facet normal 0.707107 2.1252e-16 0.707107
    outer loop
      vertex 34 15 -34
      vertex 31 20 -31
      vertex 31 -1.41843e-14 -31
    endloop
  endfacet
  facet normal 0.707107 2.1252e-16 0.707107
    outer loop
      vertex 31 -20 -31
      vertex 34 -15 -34
      vertex 34 -5 -34
    endloop
  endfacet
  facet normal 0.707107 2.1252e-16 0.707107
    outer loop
      vertex 34 -25 -34
      vertex 31 -20 -31
      vertex 30 -30 -30
    endloop
  endfacet
  facet normal 1.66533e-16 0.707107 0.707107
    outer loop
      vertex -28.2936 33.0965 -33.0965
      vertex -38 38 -38
      vertex -30 30 -30
    endloop
  endfacet
  facet normal 1.66533e-16 0.707107 0.707107
    outer loop
      vertex 38 38 -38
      vertex 28.7686 33.4416 -33.4416
      vertex 30 30 -30
    endloop
  endfacet
  facet normal 1.66533e-16 0.707107 0.707107
    outer loop
      vertex 20 30.2 -30.2
      vertex 27.7064 33.0965 -33.0965
      vertex 27.4416 33.2314 -33.2314
    endloop
  endfacet
  facet normal 1.66533e-16 0.707107 0.707107
    outer loop
      vertex 28.7686 33.4416 -33.4416
      vertex 28.5584 33.2314 -33.2314
      vertex 30 30 -30
    endloop
  endfacet
  facet normal 1.66533e-16 0.707107 0.707107
    outer loop
      vertex 28.5584 33.2314 -33.2314
      vertex 28.2936 33.0965 -33.0965
      vertex 30 30 -30
    endloop
  endfacet
  facet normal 1.66533e-16 0.707107 0.707107
    outer loop
      vertex 28.2936 33.0965 -33.0965
      vertex 28 33.05 -33.05
      vertex 30 30 -30
    endloop
  endfacet
  facet normal 1.66533e-16 0.707107 0.707107
    outer loop
      vertex 27.2314 33.4416 -33.4416
      vertex 25.5 33.5 -33.5
      vertex 27.4416 33.2314 -33.2314
    endloop
  endfacet
  facet normal 1.66533e-16 0.707107 0.707107
    outer loop
      vertex 14.5 33.5 -33.5
      vertex 5.5 33.5 -33.5
      vertex 20 30.2 -30.2
    endloop
  endfacet
  facet normal 1.66533e-16 0.707107 0.707107
    outer loop
      vertex 38 38 -38
      vertex 27.7064 34.9035 -34.9035
      vertex 28 34.95 -34.95
    endloop
  endfacet
  facet normal 1.66533e-16 0.707107 0.707107
    outer loop
      vertex 28.5584 34.7686 -34.7686
      vertex 38 38 -38
      vertex 28.2936 34.9035 -34.9035
    endloop
  endfacet
  facet normal 1.66533e-16 0.707107 0.707107
    outer loop
      vertex 25.5 33.5 -33.5
      vertex 27.05 34 -34
      vertex 27.0965 34.2936 -34.2936
    endloop
  endfacet
  facet normal 1.66533e-16 0.707107 0.707107
    outer loop
      vertex 28.7686 34.5584 -34.5584
      vertex 38 38 -38
      vertex 28.5584 34.7686 -34.7686
    endloop
  endfacet
  facet normal 1.66533e-16 0.707107 0.707107
    outer loop
      vertex 28.9035 34.2936 -34.2936
      vertex 38 38 -38
      vertex 28.7686 34.5584 -34.5584
    endloop
  endfacet
  facet normal 1.66533e-16 0.707107 0.707107
    outer loop
      vertex 25.5 33.5 -33.5
      vertex 27.0965 33.7064 -33.7064
      vertex 27.05 34 -34
    endloop
  endfacet
  facet normal 1.66533e-16 0.707107 0.707107
    outer loop
      vertex 25.5 33.5 -33.5
      vertex 27.2314 33.4416 -33.4416
      vertex 27.0965 33.7064 -33.7064
    endloop
  endfacet
  facet normal 1.66533e-16 0.707107 0.707107
    outer loop
      vertex 38 38 -38
      vertex 28.9035 34.2936 -34.2936
      vertex 28.95 34 -34
    endloop
  endfacet
  facet normal 1.66533e-16 0.707107 0.707107
    outer loop
      vertex 38 38 -38
      vertex 28.95 34 -34
      vertex 28.9035 33.7064 -33.7064
    endloop
  endfacet
  facet normal 1.66533e-16 0.707107 0.707107
    outer loop
      vertex 38 38 -38
      vertex 28.9035 33.7064 -33.7064
      vertex 28.7686 33.4416 -33.4416
    endloop
  endfacet
  facet normal 1.66533e-16 0.707107 0.707107
    outer loop
      vertex 20 30.2 -30.2
      vertex 30 30 -30
      vertex 28 33.05 -33.05
    endloop
  endfacet
  facet normal 1.66533e-16 0.707107 0.707107
    outer loop
      vertex 20 30.2 -30.2
      vertex 28 33.05 -33.05
      vertex 27.7064 33.0965 -33.0965
    endloop
  endfacet
  facet normal 1.66533e-16 0.707107 0.707107
    outer loop
      vertex 30 30 -30
      vertex 20 30.2 -30.2
      vertex -30 30 -30
    endloop
  endfacet
  facet normal 1.66533e-16 0.707107 0.707107
    outer loop
      vertex 38 38 -38
      vertex -38 38 -38
      vertex 20 36.8 -36.8
    endloop
  endfacet
  facet normal 1.66533e-16 0.707107 0.707107
    outer loop
      vertex 38 38 -38
      vertex 20 36.8 -36.8
      vertex 27.7064 34.9035 -34.9035
    endloop
  endfacet
  facet normal 1.66533e-16 0.707107 0.707107
    outer loop
      vertex 3.23681e-15 30.2 -30.2
      vertex 20 30.2 -30.2
      vertex 5.5 33.5 -33.5
    endloop
  endfacet
  facet normal 1.66533e-16 0.707107 0.707107
    outer loop
      vertex 20 36.8 -36.8
      vertex 3.0222e-15 36.8 -36.8
      vertex 14.5 33.5 -33.5
    endloop
  endfacet
  facet normal 1.66533e-16 0.707107 0.707107
    outer loop
      vertex 20 30.2 -30.2
      vertex 3.23681e-15 30.2 -30.2
      vertex -30 30 -30
    endloop
  endfacet
  facet normal 1.66533e-16 0.707107 0.707107
    outer loop
      vertex 3.0222e-15 36.8 -36.8
      vertex -20 36.8 -36.8
      vertex -5.5 33.5 -33.5
    endloop
  endfacet
  facet normal 1.66533e-16 0.707107 0.707107
    outer loop
      vertex 20 36.8 -36.8
      vertex -38 38 -38
      vertex 3.0222e-15 36.8 -36.8
    endloop
  endfacet
  facet normal 1.66533e-16 0.707107 0.707107
    outer loop
      vertex -20 30.2 -30.2
      vertex 3.23681e-15 30.2 -30.2
      vertex -14.5 33.5 -33.5
    endloop
  endfacet
  facet normal 1.66533e-16 0.707107 0.707107
    outer loop
      vertex -5.5 33.5 -33.5
      vertex -14.5 33.5 -33.5
      vertex 3.23681e-15 30.2 -30.2
    endloop
  endfacet
  facet normal 1.66533e-16 0.707107 0.707107
    outer loop
      vertex 3.23681e-15 30.2 -30.2
      vertex -20 30.2 -30.2
      vertex -30 30 -30
    endloop
  endfacet
  facet normal 1.66533e-16 0.707107 0.707107
    outer loop
      vertex -27.05 34 -34
      vertex -25.5 33.5 -33.5
      vertex -27.0965 34.2936 -34.2936
    endloop
  endfacet
  facet normal 1.66533e-16 0.707107 0.707107
    outer loop
      vertex -20 36.8 -36.8
      vertex -38 38 -38
      vertex -27.7064 34.9035 -34.9035
    endloop
  endfacet
  facet normal 1.66533e-16 0.707107 0.707107
    outer loop
      vertex 20 30.2 -30.2
      vertex 27.4416 33.2314 -33.2314
      vertex 25.5 33.5 -33.5
    endloop
  endfacet
  facet normal 1.66533e-16 0.707107 0.707107
    outer loop
      vertex 28.2936 34.9035 -34.9035
      vertex 38 38 -38
      vertex 28 34.95 -34.95
    endloop
  endfacet
  facet normal 1.66533e-16 0.707107 0.707107
    outer loop
      vertex -28.5584 34.7686 -34.7686
      vertex -38 38 -38
      vertex -28.7686 34.5584 -34.5584
    endloop
  endfacet
  facet normal 1.66533e-16 0.707107 0.707107
    outer loop
      vertex -25.5 33.5 -33.5
      vertex -27.2314 33.4416 -33.4416
      vertex -20 30.2 -30.2
    endloop
  endfacet
  facet normal 1.66533e-16 0.707107 0.707107
    outer loop
      vertex -28.9035 34.2936 -34.2936
      vertex -38 38 -38
      vertex -28.95 34 -34
    endloop
  endfacet
  facet normal 1.66533e-16 0.707107 0.707107
    outer loop
      vertex -20 30.2 -30.2
      vertex -27.4416 33.2314 -33.2314
      vertex -30 30 -30
    endloop
  endfacet
  facet normal 1.66533e-16 0.707107 0.707107
    outer loop
      vertex -28.95 34 -34
      vertex -38 38 -38
      vertex -28.9035 33.7064 -33.7064
    endloop
  endfacet
  facet normal 1.66533e-16 0.707107 0.707107
    outer loop
      vertex -27.4416 33.2314 -33.2314
      vertex -27.7064 33.0965 -33.0965
      vertex -30 30 -30
    endloop
  endfacet
  facet normal 1.66533e-16 0.707107 0.707107
    outer loop
      vertex -28.9035 33.7064 -33.7064
      vertex -38 38 -38
      vertex -28.7686 33.4416 -33.4416
    endloop
  endfacet
  facet normal 1.66533e-16 0.707107 0.707107
    outer loop
      vertex -27.7064 33.0965 -33.0965
      vertex -28 33.05 -33.05
      vertex -30 30 -30
    endloop
  endfacet
  facet normal 1.66533e-16 0.707107 0.707107
    outer loop
      vertex -28.5584 33.2314 -33.2314
      vertex -38 38 -38
      vertex -28.2936 33.0965 -33.0965
    endloop
  endfacet
  facet normal 1.66533e-16 0.707107 0.707107
    outer loop
      vertex -28 33.05 -33.05
      vertex -28.2936 33.0965 -33.0965
      vertex -30 30 -30
    endloop
  endfacet
  facet normal 1.66533e-16 0.707107 0.707107
    outer loop
      vertex -28.7686 33.4416 -33.4416
      vertex -38 38 -38
      vertex -28.5584 33.2314 -33.2314
    endloop
  endfacet
  facet normal 1.66533e-16 0.707107 0.707107
    outer loop
      vertex -28.7686 34.5584 -34.5584
      vertex -38 38 -38
      vertex -28.9035 34.2936 -34.2936
    endloop
  endfacet
  facet normal 1.66533e-16 0.707107 0.707107
    outer loop
      vertex -28.2936 34.9035 -34.9035
      vertex -38 38 -38
      vertex -28.5584 34.7686 -34.7686
    endloop
  endfacet
  facet normal 1.66533e-16 0.707107 0.707107
    outer loop
      vertex -28 34.95 -34.95
      vertex -38 38 -38
      vertex -28.2936 34.9035 -34.9035
    endloop
  endfacet
  facet normal 1.66533e-16 0.707107 0.707107
    outer loop
      vertex -27.7064 34.9035 -34.9035
      vertex -38 38 -38
      vertex -28 34.95 -34.95
    endloop
  endfacet
  facet normal 1.66533e-16 0.707107 0.707107
    outer loop
      vertex -20 36.8 -36.8
      vertex -27.0965 34.2936 -34.2936
      vertex -25.5 33.5 -33.5
    endloop
  endfacet
  facet normal 1.66533e-16 0.707107 0.707107
    outer loop
      vertex -20 36.8 -36.8
      vertex -27.2314 34.5584 -34.5584
      vertex -27.0965 34.2936 -34.2936
    endloop
  endfacet
  facet normal 1.66533e-16 0.707107 0.707107
    outer loop
      vertex -20 36.8 -36.8
      vertex -27.4416 34.7686 -34.7686
      vertex -27.2314 34.5584 -34.5584
    endloop
  endfacet
  facet normal 1.66533e-16 0.707107 0.707107
    outer loop
      vertex -20 36.8 -36.8
      vertex -27.7064 34.9035 -34.9035
      vertex -27.4416 34.7686 -34.7686
    endloop
  endfacet
  facet normal 1.66533e-16 0.707107 0.707107
    outer loop
      vertex -27.0965 33.7064 -33.7064
      vertex -25.5 33.5 -33.5
      vertex -27.05 34 -34
    endloop
  endfacet
  facet normal 1.66533e-16 0.707107 0.707107
    outer loop
      vertex -25.5 33.5 -33.5
      vertex -27.0965 33.7064 -33.7064
      vertex -27.2314 33.4416 -33.4416
    endloop
  endfacet
  facet normal 1.66533e-16 0.707107 0.707107
    outer loop
      vertex 25.5 33.5 -33.5
      vertex 27.0965 34.2936 -34.2936
      vertex 27.2314 34.5584 -34.5584
    endloop
  endfacet
  facet normal 1.66533e-16 0.707107 0.707107
    outer loop
      vertex 25.5 33.5 -33.5
      vertex 27.2314 34.5584 -34.5584
      vertex 27.4416 34.7686 -34.7686
    endloop
  endfacet
  facet normal 1.66533e-16 0.707107 0.707107
    outer loop
      vertex 27.4416 34.7686 -34.7686
      vertex 27.7064 34.9035 -34.9035
      vertex 20 36.8 -36.8
    endloop
  endfacet
  facet normal 1.66533e-16 0.707107 0.707107
    outer loop
      vertex 25.5 33.5 -33.5
      vertex 27.4416 34.7686 -34.7686
      vertex 20 36.8 -36.8
    endloop
  endfacet
  facet normal 1.66533e-16 0.707107 0.707107
    outer loop
      vertex 3.0222e-15 36.8 -36.8
      vertex -38 38 -38
      vertex -20 36.8 -36.8
    endloop
  endfacet
  facet normal 1.66533e-16 0.707107 0.707107
    outer loop
      vertex -14.5 33.5 -33.5
      vertex -5.5 33.5 -33.5
      vertex -20 36.8 -36.8
    endloop
  endfacet
  facet normal 1.66533e-16 0.707107 0.707107
    outer loop
      vertex -27.4416 33.2314 -33.2314
      vertex -20 30.2 -30.2
      vertex -27.2314 33.4416 -33.4416
    endloop
  endfacet
  facet normal 1.66533e-16 0.707107 0.707107
    outer loop
      vertex 5.5 33.5 -33.5
      vertex 14.5 33.5 -33.5
      vertex 3.0222e-15 36.8 -36.8
    endloop
  endfacet
  facet normal -0.707107 3.23543e-16 0.707107
    outer loop
      vertex -34 -15 -34
      vertex -34 -5 -34
      vertex -37 -20 -37
    endloop
  endfacet
  facet normal -0.707107 3.23543e-16 0.707107
    outer loop
      vertex -34 25 -34
      vertex -30 30 -30
      vertex -38 38 -38
    endloop
  endfacet
  facet normal -0.707107 3.23543e-16 0.707107
    outer loop
      vertex -30 -30 -30
      vertex -30 30 -30
      vertex -31 -20 -31
    endloop
  endfacet
  facet normal -0.707107 3.23543e-16 0.707107
    outer loop
      vertex -30 -30 -30
      vertex -31 -20 -31
      vertex -38 -38 -38
    endloop
  endfacet
  facet normal -0.707107 3.23543e-16 0.707107
    outer loop
      vertex -34 25 -34
      vertex -38 38 -38
      vertex -37 20 -37
    endloop
  endfacet
  facet normal -0.707107 3.23543e-16 0.707107
    outer loop
      vertex -31 -20 -31
      vertex -34 -25 -34
      vertex -38 -38 -38
    endloop
  endfacet
  facet normal -0.707107 3.23543e-16 0.707107
    outer loop
      vertex -38 -38 -38
      vertex -37 -20 -37
      vertex -38 38 -38
    endloop
  endfacet
  facet normal -0.707107 3.23543e-16 0.707107
    outer loop
      vertex -31 4.17547e-16 -31
      vertex -31 20 -31
      vertex -34 5 -34
    endloop
  endfacet
  facet normal -0.707107 3.23543e-16 0.707107
    outer loop
      vertex -31 4.17547e-16 -31
      vertex -30 30 -30
      vertex -31 20 -31
    endloop
  endfacet
  facet normal -0.707107 3.23543e-16 0.707107
    outer loop
      vertex -31 -20 -31
      vertex -30 30 -30
      vertex -31 4.17547e-16 -31
    endloop
  endfacet
  facet normal -0.707107 3.23543e-16 0.707107
    outer loop
      vertex -37 -20 -37
      vertex -38 -38 -38
      vertex -34 -25 -34
    endloop
  endfacet
  facet normal -0.707107 3.23543e-16 0.707107
    outer loop
      vertex -31 20 -31
      vertex -30 30 -30
      vertex -34 25 -34
    endloop
  endfacet
  facet normal -0.707107 3.23543e-16 0.707107
    outer loop
      vertex -37 -20 -37
      vertex -37 -3.62751e-07 -37
      vertex -38 38 -38
    endloop
  endfacet
  facet normal -0.707107 3.23543e-16 0.707107
    outer loop
      vertex -34 15 -34
      vertex -37 3.62751e-07 -37
      vertex -34 5 -34
    endloop
  endfacet
  facet normal -0.707107 3.23543e-16 0.707107
    outer loop
      vertex -37 -3.62751e-07 -37
      vertex -37 3.62751e-07 -37
      vertex -38 38 -38
    endloop
  endfacet
  facet normal -0.707107 3.23543e-16 0.707107
    outer loop
      vertex -34 15 -34
      vertex -34 5 -34
      vertex -31 20 -31
    endloop
  endfacet
  facet normal -0.707107 3.23543e-16 0.707107
    outer loop
      vertex -37 3.62751e-07 -37
      vertex -34 15 -34
      vertex -37 20 -37
    endloop
  endfacet
  facet normal -0.707107 3.23543e-16 0.707107
    outer loop
      vertex -37 3.62751e-07 -37
      vertex -37 20 -37
      vertex -38 38 -38
    endloop
  endfacet
  facet normal -0.707107 3.23543e-16 0.707107
    outer loop
      vertex -37 -3.62751e-07 -37
      vertex -37 -20 -37
      vertex -34 -5 -34
    endloop
  endfacet
  facet normal -0.707107 3.23543e-16 0.707107
    outer loop
      vertex -31 -20 -31
      vertex -31 4.17547e-16 -31
      vertex -34 -15 -34
    endloop
  endfacet
  facet normal -0.707107 3.23543e-16 0.707107
    outer loop
      vertex -34 -5 -34
      vertex -34 -15 -34
      vertex -31 4.17547e-16 -31
    endloop
  endfacet
  facet normal 0.5 0.866025 -2.47807e-16
    outer loop
      vertex 30.5 -34 -37
      vertex 32.75 -35.299 -37
      vertex 30.5 -34 -38
    endloop
  endfacet
  facet normal 0.5 0.866025 -2.47807e-16
    outer loop
      vertex 30.5 -34 -38
      vertex 32.75 -35.299 -37
      vertex 32.75 -35.299 -38
    endloop
  endfacet
  facet normal -1 4.20834e-32 1.11022e-16
    outer loop
      vertex 32.75 -32.701 -37
      vertex 32.75 -32.701 -37.7694
      vertex 32.75 -35.299 -37
    endloop
  endfacet
  facet normal -1 4.20834e-32 1.11022e-16
    outer loop
      vertex 32.75 -35.299 -37
      vertex 32.75 -32.701 -37.7694
      vertex 32.75 -32.75 -37.7694
    endloop
  endfacet
  facet normal -1 4.20834e-32 1.11022e-16
    outer loop
      vertex 32.75 -35.299 -37
      vertex 32.75 -32.75 -37.7694
      vertex 32.75 -33.3592 -38
    endloop
  endfacet
  facet normal -1 4.20834e-32 1.11022e-16
    outer loop
      vertex 32.75 -35.299 -37
      vertex 32.75 -33.3592 -38
      vertex 32.75 -35.299 -38
    endloop
  endfacet
  facet normal 0.5 -0.866025 1.36785e-16
    outer loop
      vertex 32.75 -32.701 -37
      vertex 30.5 -34 -37
      vertex 30.5 -34 -38
    endloop
  endfacet
  facet normal 0.5 -0.866025 1.36785e-16
    outer loop
      vertex 32.7189 -32.7189 -37.7576
      vertex 32.75 -32.701 -37
      vertex 31.6099 -33.3592 -38
    endloop
  endfacet
  facet normal 0.5 -0.866025 1.36785e-16
    outer loop
      vertex 31.6099 -33.3592 -38
      vertex 32.75 -32.701 -37
      vertex 30.5 -34 -38
    endloop
  endfacet
  facet normal 0.5 -0.866025 1.36785e-16
    outer loop
      vertex 32.75 -32.701 -37.7694
      vertex 32.75 -32.701 -37
      vertex 32.7189 -32.7189 -37.7576
    endloop
  endfacet
  facet normal -2.33585e-16 0.354005 -0.935244
    outer loop
      vertex 26.75 -33.3592 -38
      vertex 26.75 -32.701 -37.7508
      vertex 31.6099 -33.3592 -38
    endloop
  endfacet
  facet normal -2.33585e-16 0.354005 -0.935244
    outer loop
      vertex 20.75 -33.3592 -38
      vertex 26.75 -32.701 -37.7508
      vertex 25.6099 -33.3592 -38
    endloop
  endfacet
  facet normal -2.33585e-16 0.354005 -0.935244
    outer loop
      vertex 20.75 -32.701 -37.7508
      vertex 26.75 -32.701 -37.7508
      vertex 20.75 -33.3592 -38
    endloop
  endfacet
  facet normal -2.33585e-16 0.354005 -0.935244
    outer loop
      vertex 31.6099 -33.3592 -38
      vertex 26.75 -32.701 -37.7508
      vertex -2.7 -2.7 -26.395
    endloop
  endfacet
  facet normal -2.33585e-16 0.354005 -0.935244
    outer loop
      vertex -33.3592 -33.3592 -38
      vertex 20.75 -32.701 -37.7508
      vertex 19.6099 -33.3592 -38
    endloop
  endfacet
  facet normal -2.33585e-16 0.354005 -0.935244
    outer loop
      vertex 1.33227e-16 -30.1889 -36.8
      vertex 20.75 -32.701 -37.7508
      vertex -33.3592 -33.3592 -38
    endloop
  endfacet
  facet normal -2.33585e-16 0.354005 -0.935244
    outer loop
      vertex 18.7137 -28.15 -36.0282
      vertex 20.75 -32.701 -37.7508
      vertex -2.7 -2.7 -26.395
    endloop
  endfacet
  facet normal -2.33585e-16 0.354005 -0.935244
    outer loop
      vertex 31.6099 -33.3592 -38
      vertex -2.7 -2.7 -26.395
      vertex 2.7 -2.7 -26.395
    endloop
  endfacet
  facet normal -2.33585e-16 0.354005 -0.935244
    outer loop
      vertex 31.6099 -33.3592 -38
      vertex 2.7 -2.7 -26.395
      vertex 32.7189 -32.7189 -37.7576
    endloop
  endfacet
  facet normal -2.33585e-16 0.354005 -0.935244
    outer loop
      vertex 26.75 -32.701 -37.7508
      vertex 20.75 -32.701 -37.7508
      vertex 21.2863 -28.15 -36.0282
    endloop
  endfacet
  facet normal -2.33585e-16 0.354005 -0.935244
    outer loop
      vertex 26.75 -32.701 -37.7508
      vertex 21.2863 -28.15 -36.0282
      vertex -2.7 -2.7 -26.395
    endloop
  endfacet
  facet normal -2.33585e-16 0.354005 -0.935244
    outer loop
      vertex 20 -30.1889 -36.8
      vertex 20.75 -32.701 -37.7508
      vertex 18.7137 -28.15 -36.0282
    endloop
  endfacet
  facet normal -2.33585e-16 0.354005 -0.935244
    outer loop
      vertex 21.2863 -28.15 -36.0282
      vertex 18.7137 -28.15 -36.0282
      vertex -2.7 -2.7 -26.395
    endloop
  endfacet
  facet normal -2.33585e-16 0.354005 -0.935244
    outer loop
      vertex 21.2863 -28.15 -36.0282
      vertex 20.75 -32.701 -37.7508
      vertex 20 -30.1889 -36.8
    endloop
  endfacet
  facet normal -2.33585e-16 0.354005 -0.935244
    outer loop
      vertex -2.7 -2.7 -26.395
      vertex 20.75 -32.701 -37.7508
      vertex 1.28628 -28.15 -36.0282
    endloop
  endfacet
  facet normal -2.33585e-16 0.354005 -0.935244
    outer loop
      vertex -2.7 -2.7 -26.395
      vertex 1.28628 -28.15 -36.0282
      vertex -1.28628 -28.15 -36.0282
    endloop
  endfacet
  facet normal -2.33585e-16 0.354005 -0.935244
    outer loop
      vertex -20 -30.1889 -36.8
      vertex -1.28628 -28.15 -36.0282
      vertex -33.3592 -33.3592 -38
    endloop
  endfacet
  facet normal -2.33585e-16 0.354005 -0.935244
    outer loop
      vertex 1.28628 -28.15 -36.0282
      vertex 20.75 -32.701 -37.7508
      vertex 1.33227e-16 -30.1889 -36.8
    endloop
  endfacet
  facet normal -2.33585e-16 0.354005 -0.935244
    outer loop
      vertex -20 -30.1889 -36.8
      vertex -33.3592 -33.3592 -38
      vertex -21.2863 -28.15 -36.0282
    endloop
  endfacet
  facet normal -2.33585e-16 0.354005 -0.935244
    outer loop
      vertex -2.7 -2.7 -26.395
      vertex -1.28628 -28.15 -36.0282
      vertex -18.7137 -28.15 -36.0282
    endloop
  endfacet
  facet normal -2.33585e-16 0.354005 -0.935244
    outer loop
      vertex -2.7 -2.7 -26.395
      vertex -18.7137 -28.15 -36.0282
      vertex -21.2863 -28.15 -36.0282
    endloop
  endfacet
  facet normal -2.33585e-16 0.354005 -0.935244
    outer loop
      vertex -2.7 -2.7 -26.395
      vertex -21.2863 -28.15 -36.0282
      vertex -33.3592 -33.3592 -38
    endloop
  endfacet
  facet normal -2.33585e-16 0.354005 -0.935244
    outer loop
      vertex -18.7137 -28.15 -36.0282
      vertex -1.28628 -28.15 -36.0282
      vertex -20 -30.1889 -36.8
    endloop
  endfacet
  facet normal -2.33585e-16 0.354005 -0.935244
    outer loop
      vertex 1.33227e-16 -30.1889 -36.8
      vertex -33.3592 -33.3592 -38
      vertex -1.28628 -28.15 -36.0282
    endloop
  endfacet
  facet normal -1 4.20834e-32 1.11022e-16
    outer loop
      vertex 26.75 -32.701 -37
      vertex 26.75 -32.701 -37.7508
      vertex 26.75 -35.299 -37
    endloop
  endfacet
  facet normal -1 4.20834e-32 1.11022e-16
    outer loop
      vertex 26.75 -35.299 -37
      vertex 26.75 -32.701 -37.7508
      vertex 26.75 -33.3592 -38
    endloop
  endfacet
  facet normal -1 4.20834e-32 1.11022e-16
    outer loop
      vertex 26.75 -35.299 -37
      vertex 26.75 -33.3592 -38
      vertex 26.75 -35.299 -38
    endloop
  endfacet
  facet normal 0.5 0.866025 -2.47807e-16
    outer loop
      vertex 24.5 -34 -37
      vertex 26.75 -35.299 -37
      vertex 24.5 -34 -38
    endloop
  endfacet
  facet normal 0.5 0.866025 -2.47807e-16
    outer loop
      vertex 24.5 -34 -38
      vertex 26.75 -35.299 -37
      vertex 26.75 -35.299 -38
    endloop
  endfacet
  facet normal 0.5 -0.866025 1.36785e-16
    outer loop
      vertex 26.75 -32.701 -37
      vertex 24.5 -34 -37
      vertex 24.5 -34 -38
    endloop
  endfacet
  facet normal 0.5 -0.866025 1.36785e-16
    outer loop
      vertex 26.75 -32.701 -37.7508
      vertex 26.75 -32.701 -37
      vertex 25.6099 -33.3592 -38
    endloop
  endfacet
  facet normal 0.5 -0.866025 1.36785e-16
    outer loop
      vertex 25.6099 -33.3592 -38
      vertex 26.75 -32.701 -37
      vertex 24.5 -34 -38
    endloop
  endfacet
  facet normal -1 4.20834e-32 1.11022e-16
    outer loop
      vertex 20.75 -32.701 -37
      vertex 20.75 -32.701 -37.7508
      vertex 20.75 -35.299 -37
    endloop
  endfacet
  facet normal -1 4.20834e-32 1.11022e-16
    outer loop
      vertex 20.75 -35.299 -37
      vertex 20.75 -32.701 -37.7508
      vertex 20.75 -33.3592 -38
    endloop
  endfacet
  facet normal -1 4.20834e-32 1.11022e-16
    outer loop
      vertex 20.75 -35.299 -37
      vertex 20.75 -33.3592 -38
      vertex 20.75 -35.299 -38
    endloop
  endfacet
  facet normal 0.5 0.866025 -2.47807e-16
    outer loop
      vertex 18.5 -34 -37
      vertex 20.75 -35.299 -37
      vertex 18.5 -34 -38
    endloop
  endfacet
  facet normal 0.5 0.866025 -2.47807e-16
    outer loop
      vertex 18.5 -34 -38
      vertex 20.75 -35.299 -37
      vertex 20.75 -35.299 -38
    endloop
  endfacet
  facet normal 0.5 -0.866025 1.36785e-16
    outer loop
      vertex 20.75 -32.701 -37
      vertex 18.5 -34 -37
      vertex 18.5 -34 -38
    endloop
  endfacet
  facet normal 0.5 -0.866025 1.36785e-16
    outer loop
      vertex 20.75 -32.701 -37.7508
      vertex 20.75 -32.701 -37
      vertex 19.6099 -33.3592 -38
    endloop
  endfacet
  facet normal 0.5 -0.866025 1.36785e-16
    outer loop
      vertex 19.6099 -33.3592 -38
      vertex 20.75 -32.701 -37
      vertex 18.5 -34 -38
    endloop
  endfacet
  facet normal 0.354005 -3.82299e-16 -0.935244
    outer loop
      vertex -33.3592 33.3592 -38
      vertex -2.7 2.7 -26.395
      vertex -33.3592 -33.3592 -38
    endloop
  endfacet
  facet normal 0.354005 -3.82299e-16 -0.935244
    outer loop
      vertex -33.3592 -33.3592 -38
      vertex -2.7 2.7 -26.395
      vertex -2.7 -2.7 -26.395
    endloop
  endfacet
  facet normal -2.89167e-16 -0.354005 -0.935244
    outer loop
      vertex 21.2863 28.15 -36.0282
      vertex 33.3592 33.3592 -38
      vertex -2.7 2.7 -26.395
    endloop
  endfacet
  facet normal -2.89167e-16 -0.354005 -0.935244
    outer loop
      vertex -2.7 2.7 -26.395
      vertex 33.3592 33.3592 -38
      vertex 2.7 2.7 -26.395
    endloop
  endfacet
  facet normal -2.89167e-16 -0.354005 -0.935244
    outer loop
      vertex 20 30.1889 -36.8
      vertex 33.3592 33.3592 -38
      vertex 21.2863 28.15 -36.0282
    endloop
  endfacet
  facet normal -2.89167e-16 -0.354005 -0.935244
    outer loop
      vertex 18.7137 28.15 -36.0282
      vertex 21.2863 28.15 -36.0282
      vertex -2.7 2.7 -26.395
    endloop
  endfacet
  facet normal -2.89167e-16 -0.354005 -0.935244
    outer loop
      vertex -33.3592 33.3592 -38
      vertex 33.3592 33.3592 -38
      vertex 20 30.1889 -36.8
    endloop
  endfacet
  facet normal -2.89167e-16 -0.354005 -0.935244
    outer loop
      vertex 2.5032e-15 30.1889 -36.8
      vertex 18.7137 28.15 -36.0282
      vertex 1.28628 28.15 -36.0282
    endloop
  endfacet
  facet normal -2.89167e-16 -0.354005 -0.935244
    outer loop
      vertex 1.28628 28.15 -36.0282
      vertex 18.7137 28.15 -36.0282
      vertex -2.7 2.7 -26.395
    endloop
  endfacet
  facet normal -2.89167e-16 -0.354005 -0.935244
    outer loop
      vertex -1.28628 28.15 -36.0282
      vertex 1.28628 28.15 -36.0282
      vertex -2.7 2.7 -26.395
    endloop
  endfacet
  facet normal -2.89167e-16 -0.354005 -0.935244
    outer loop
      vertex -33.3592 33.3592 -38
      vertex 20 30.1889 -36.8
      vertex 2.5032e-15 30.1889 -36.8
    endloop
  endfacet
  facet normal -2.89167e-16 -0.354005 -0.935244
    outer loop
      vertex -21.2863 28.15 -36.0282
      vertex -33.3592 33.3592 -38
      vertex -20 30.1889 -36.8
    endloop
  endfacet
  facet normal -2.89167e-16 -0.354005 -0.935244
    outer loop
      vertex -18.7137 28.15 -36.0282
      vertex -1.28628 28.15 -36.0282
      vertex -2.7 2.7 -26.395
    endloop
  endfacet
  facet normal -2.89167e-16 -0.354005 -0.935244
    outer loop
      vertex -20 30.1889 -36.8
      vertex -1.28628 28.15 -36.0282
      vertex -18.7137 28.15 -36.0282
    endloop
  endfacet
  facet normal -2.89167e-16 -0.354005 -0.935244
    outer loop
      vertex -21.2863 28.15 -36.0282
      vertex -18.7137 28.15 -36.0282
      vertex -2.7 2.7 -26.395
    endloop
  endfacet
  facet normal -2.89167e-16 -0.354005 -0.935244
    outer loop
      vertex -33.3592 33.3592 -38
      vertex -1.28628 28.15 -36.0282
      vertex -20 30.1889 -36.8
    endloop
  endfacet
  facet normal -2.89167e-16 -0.354005 -0.935244
    outer loop
      vertex -33.3592 33.3592 -38
      vertex -21.2863 28.15 -36.0282
      vertex -2.7 2.7 -26.395
    endloop
  endfacet
  facet normal -2.89167e-16 -0.354005 -0.935244
    outer loop
      vertex -1.28628 28.15 -36.0282
      vertex -33.3592 33.3592 -38
      vertex 2.5032e-15 30.1889 -36.8
    endloop
  endfacet
  facet normal -2.89167e-16 -0.354005 -0.935244
    outer loop
      vertex 18.7137 28.15 -36.0282
      vertex 2.5032e-15 30.1889 -36.8
      vertex 20 30.1889 -36.8
    endloop
  endfacet
  facet normal -0.354005 -3.26717e-16 -0.935244
    outer loop
      vertex 32.75 -32.701 -37.7694
      vertex 32.7189 -32.7189 -37.7576
      vertex 2.7 -2.7 -26.395
    endloop
  endfacet
  facet normal -0.354005 -3.26717e-16 -0.935244
    outer loop
      vertex 32.75 -32.701 -37.7694
      vertex 2.7 -2.7 -26.395
      vertex 2.7 2.7 -26.395
    endloop
  endfacet
  facet normal -0.354005 -3.26717e-16 -0.935244
    outer loop
      vertex 32.75 -32.701 -37.7694
      vertex 2.7 2.7 -26.395
      vertex 33.3592 33.3592 -38
    endloop
  endfacet
  facet normal -0.354005 -3.26717e-16 -0.935244
    outer loop
      vertex 32.75 -32.701 -37.7694
      vertex 33.3592 33.3592 -38
      vertex 32.75 -32.75 -37.7694
    endloop
  endfacet
  facet normal -0.354005 -3.26717e-16 -0.935244
    outer loop
      vertex 33.3592 33.3592 -38
      vertex 33.3592 -33.3592 -38
      vertex 32.75 -32.75 -37.7694
    endloop
  endfacet
  facet normal -2.33585e-16 0.354005 -0.935244
    outer loop
      vertex 32.75 -33.3592 -38
      vertex 32.75 -32.75 -37.7694
      vertex 33.3592 -33.3592 -38
    endloop
  endfacet
  facet normal 1.57009e-16 3.79054e-16 1
    outer loop
      vertex 15.8319 15.8319 -30
      vertex 30 -30 -30
      vertex 30 30 -30
    endloop
  endfacet
  facet normal 1.57009e-16 3.79054e-16 1
    outer loop
      vertex -15.8319 -15.8319 -30
      vertex -15.8319 15.8319 -30
      vertex -30 -30 -30
    endloop
  endfacet
  facet normal 1.57009e-16 3.79054e-16 1
    outer loop
      vertex 15.8319 -15.8319 -30
      vertex 30 -30 -30
      vertex 15.8319 15.8319 -30
    endloop
  endfacet
  facet normal 1.57009e-16 3.79054e-16 1
    outer loop
      vertex -30 -30 -30
      vertex 30 -30 -30
      vertex 15.8319 -15.8319 -30
    endloop
  endfacet
  facet normal 1.57009e-16 3.79054e-16 1
    outer loop
      vertex -30 -30 -30
      vertex 15.8319 -15.8319 -30
      vertex -15.8319 -15.8319 -30
    endloop
  endfacet
  facet normal 1.57009e-16 3.79054e-16 1
    outer loop
      vertex -30 30 -30
      vertex -15.8319 15.8319 -30
      vertex 30 30 -30
    endloop
  endfacet
  facet normal 1.57009e-16 3.79054e-16 1
    outer loop
      vertex -30 30 -30
      vertex -30 -30 -30
      vertex -15.8319 15.8319 -30
    endloop
  endfacet
  facet normal 1.57009e-16 3.79054e-16 1
    outer loop
      vertex -15.8319 15.8319 -30
      vertex 15.8319 15.8319 -30
      vertex 30 30 -30
    endloop
  endfacet
  facet normal -0.891006 9.08258e-17 0.453992
    outer loop
      vertex 28.9035 34.2936 -34.2936
      vertex 28.7686 34.5584 -34.5584
      vertex 28.9035 -34.2936 -34.2936
    endloop
  endfacet
  facet normal -0.891006 9.08258e-17 0.453992
    outer loop
      vertex 28.9035 -34.2936 -34.2936
      vertex 28.7686 34.5584 -34.5584
      vertex 28.7686 -34.5584 -34.5584
    endloop
  endfacet
  facet normal -0.707107 8.80288e-17 0.707107
    outer loop
      vertex 28.7686 34.5584 -34.5584
      vertex 28.5584 34.7686 -34.7686
      vertex 28.5584 -34.7686 -34.7686
    endloop
  endfacet
  facet normal -0.707107 8.80288e-17 0.707107
    outer loop
      vertex 28.7686 -34.5584 -34.5584
      vertex 28.7686 34.5584 -34.5584
      vertex 28.5584 -34.7686 -34.7686
    endloop
  endfacet
  facet normal -0.987688 8.4732e-17 0.156434
    outer loop
      vertex 28.95 34 -34
      vertex 28.9035 34.2936 -34.2936
      vertex 28.95 -34 -34
    endloop
  endfacet
  facet normal -0.987688 8.4732e-17 0.156434
    outer loop
      vertex 28.95 -34 -34
      vertex 28.9035 34.2936 -34.2936
      vertex 28.9035 -34.2936 -34.2936
    endloop
  endfacet
  facet normal -0.987688 7.03442e-17 -0.156434
    outer loop
      vertex 28.9035 33.7064 -33.7064
      vertex 28.95 34 -34
      vertex 28.9035 -33.7064 -33.7064
    endloop
  endfacet
  facet normal -0.987688 7.03442e-17 -0.156434
    outer loop
      vertex 28.9035 -33.7064 -33.7064
      vertex 28.95 34 -34
      vertex 28.95 -34 -34
    endloop
  endfacet
  facet normal -0.891006 4.90704e-17 -0.453992
    outer loop
      vertex 28.7686 33.4416 -33.4416
      vertex 28.9035 33.7064 -33.7064
      vertex 28.7686 -33.4416 -33.4416
    endloop
  endfacet
  facet normal -0.891006 4.90704e-17 -0.453992
    outer loop
      vertex 28.7686 -33.4416 -33.4416
      vertex 28.9035 33.7064 -33.7064
      vertex 28.9035 -33.7064 -33.7064
    endloop
  endfacet
  facet normal -0.707107 2.29935e-17 -0.707107
    outer loop
      vertex 28.5584 33.2314 -33.2314
      vertex 28.7686 33.4416 -33.4416
      vertex 28.5584 -33.2314 -33.2314
    endloop
  endfacet
  facet normal -0.707107 2.29935e-17 -0.707107
    outer loop
      vertex 28.5584 -33.2314 -33.2314
      vertex 28.7686 33.4416 -33.4416
      vertex 28.7686 -33.4416 -33.4416
    endloop
  endfacet
  facet normal -0.453992 -5.33421e-18 -0.891006
    outer loop
      vertex 28.2936 33.0965 -33.0965
      vertex 28.5584 33.2314 -33.2314
      vertex 28.2936 -33.0965 -33.0965
    endloop
  endfacet
  facet normal -0.453992 -5.33421e-18 -0.891006
    outer loop
      vertex 28.2936 -33.0965 -33.0965
      vertex 28.5584 33.2314 -33.2314
      vertex 28.5584 -33.2314 -33.2314
    endloop
  endfacet
  facet normal -0.156434 -3.314e-17 -0.987688
    outer loop
      vertex 28 33.05 -33.05
      vertex 28.2936 33.0965 -33.0965
      vertex 28 -33.05 -33.05
    endloop
  endfacet
  facet normal -0.156434 -3.314e-17 -0.987688
    outer loop
      vertex 28 -33.05 -33.05
      vertex 28.2936 33.0965 -33.0965
      vertex 28.2936 -33.0965 -33.0965
    endloop
  endfacet
  facet normal 0.156434 -5.77015e-17 -0.987688
    outer loop
      vertex 27.7064 33.0965 -33.0965
      vertex 28 33.05 -33.05
      vertex 27.7064 -33.0965 -33.0965
    endloop
  endfacet
  facet normal 0.156434 -5.77015e-17 -0.987688
    outer loop
      vertex 27.7064 -33.0965 -33.0965
      vertex 28 33.05 -33.05
      vertex 28 -33.05 -33.05
    endloop
  endfacet
  facet normal 0.453992 -7.66151e-17 -0.891006
    outer loop
      vertex 27.4416 33.2314 -33.2314
      vertex 27.7064 33.0965 -33.0965
      vertex 27.4416 -33.2314 -33.2314
    endloop
  endfacet
  facet normal 0.453992 -7.66151e-17 -0.891006
    outer loop
      vertex 27.4416 -33.2314 -33.2314
      vertex 27.7064 33.0965 -33.0965
      vertex 27.7064 -33.0965 -33.0965
    endloop
  endfacet
  facet normal 0.707107 -8.80288e-17 -0.707107
    outer loop
      vertex 27.2314 33.4416 -33.4416
      vertex 27.4416 33.2314 -33.2314
      vertex 27.2314 -33.4416 -33.4416
    endloop
  endfacet
  facet normal 0.707107 -8.80288e-17 -0.707107
    outer loop
      vertex 27.2314 -33.4416 -33.4416
      vertex 27.4416 33.2314 -33.2314
      vertex 27.4416 -33.2314 -33.2314
    endloop
  endfacet
  facet normal 0.891006 -9.08258e-17 -0.453992
    outer loop
      vertex 27.0965 33.7064 -33.7064
      vertex 27.2314 33.4416 -33.4416
      vertex 27.2314 -33.4416 -33.4416
    endloop
  endfacet
  facet normal 0.891006 -9.08258e-17 -0.453992
    outer loop
      vertex 27.0965 -33.7064 -33.7064
      vertex 27.0965 33.7064 -33.7064
      vertex 27.2314 -33.4416 -33.4416
    endloop
  endfacet
  facet normal 0.987688 -8.4732e-17 -0.156434
    outer loop
      vertex 27.05 34 -34
      vertex 27.0965 33.7064 -33.7064
      vertex 27.0965 -33.7064 -33.7064
    endloop
  endfacet
  facet normal 0.987688 -8.4732e-17 -0.156434
    outer loop
      vertex 27.05 -34 -34
      vertex 27.05 34 -34
      vertex 27.0965 -33.7064 -33.7064
    endloop
  endfacet
  facet normal 0.987688 -7.03442e-17 0.156434
    outer loop
      vertex 27.0965 34.2936 -34.2936
      vertex 27.05 34 -34
      vertex 27.05 -34 -34
    endloop
  endfacet
  facet normal 0.987688 -7.03442e-17 0.156434
    outer loop
      vertex 27.0965 -34.2936 -34.2936
      vertex 27.0965 34.2936 -34.2936
      vertex 27.05 -34 -34
    endloop
  endfacet
  facet normal 0.891006 -4.90704e-17 0.453992
    outer loop
      vertex 27.2314 34.5584 -34.5584
      vertex 27.0965 34.2936 -34.2936
      vertex 27.0965 -34.2936 -34.2936
    endloop
  endfacet
  facet normal 0.891006 -4.90704e-17 0.453992
    outer loop
      vertex 27.2314 -34.5584 -34.5584
      vertex 27.2314 34.5584 -34.5584
      vertex 27.0965 -34.2936 -34.2936
    endloop
  endfacet
  facet normal 0.707107 -2.29935e-17 0.707107
    outer loop
      vertex 27.4416 34.7686 -34.7686
      vertex 27.2314 34.5584 -34.5584
      vertex 27.2314 -34.5584 -34.5584
    endloop
  endfacet
  facet normal 0.707107 -2.29935e-17 0.707107
    outer loop
      vertex 27.4416 -34.7686 -34.7686
      vertex 27.4416 34.7686 -34.7686
      vertex 27.2314 -34.5584 -34.5584
    endloop
  endfacet
  facet normal 0.453992 5.33421e-18 0.891006
    outer loop
      vertex 27.7064 34.9035 -34.9035
      vertex 27.4416 34.7686 -34.7686
      vertex 27.4416 -34.7686 -34.7686
    endloop
  endfacet
  facet normal 0.453992 5.33421e-18 0.891006
    outer loop
      vertex 27.7064 -34.9035 -34.9035
      vertex 27.7064 34.9035 -34.9035
      vertex 27.4416 -34.7686 -34.7686
    endloop
  endfacet
  facet normal 0.156434 3.314e-17 0.987688
    outer loop
      vertex 28 34.95 -34.95
      vertex 27.7064 34.9035 -34.9035
      vertex 27.7064 -34.9035 -34.9035
    endloop
  endfacet
  facet normal 0.156434 3.314e-17 0.987688
    outer loop
      vertex 28 -34.95 -34.95
      vertex 28 34.95 -34.95
      vertex 27.7064 -34.9035 -34.9035
    endloop
  endfacet
  facet normal -0.156434 5.77015e-17 0.987688
    outer loop
      vertex 28.2936 34.9035 -34.9035
      vertex 28 34.95 -34.95
      vertex 28 -34.95 -34.95
    endloop
  endfacet
  facet normal -0.156434 5.77015e-17 0.987688
    outer loop
      vertex 28.2936 -34.9035 -34.9035
      vertex 28.2936 34.9035 -34.9035
      vertex 28 -34.95 -34.95
    endloop
  endfacet
  facet normal -0.453992 7.66151e-17 0.891006
    outer loop
      vertex 28.5584 34.7686 -34.7686
      vertex 28.2936 34.9035 -34.9035
      vertex 28.2936 -34.9035 -34.9035
    endloop
  endfacet
  facet normal -0.453992 7.66151e-17 0.891006
    outer loop
      vertex 28.5584 -34.7686 -34.7686
      vertex 28.5584 34.7686 -34.7686
      vertex 28.2936 -34.9035 -34.9035
    endloop
  endfacet
  facet normal -0.514496 1.34634e-16 0.857493
    outer loop
      vertex 25.5 -28.15 -33.5
      vertex 21.2863 -28.15 -36.0282
      vertex 20 -30.1889 -36.8
    endloop
  endfacet
  facet normal -0.514496 1.34634e-16 0.857493
    outer loop
      vertex 25.5 -33.5 -33.5
      vertex 25.5 -28.15 -33.5
      vertex 20 -36.8 -36.8
    endloop
  endfacet
  facet normal -0.514496 1.34634e-16 0.857493
    outer loop
      vertex 20 -36.8 -36.8
      vertex 25.5 -28.15 -33.5
      vertex 20 -30.1889 -36.8
    endloop
  endfacet
  facet normal -0.514496 -1.34634e-16 -0.857493
    outer loop
      vertex 20 -28.15 -30.2
      vertex 25.5 -28.15 -33.5
      vertex 20 -30.2 -30.2
    endloop
  endfacet
  facet normal -0.514496 -1.34634e-16 -0.857493
    outer loop
      vertex 20 -30.2 -30.2
      vertex 25.5 -28.15 -33.5
      vertex 25.5 -33.5 -33.5
    endloop
  endfacet
  facet normal 0.514496 -1.34634e-16 -0.857493
    outer loop
      vertex 14.5 -28.15 -33.5
      vertex 20 -28.15 -30.2
      vertex 14.5 -33.5 -33.5
    endloop
  endfacet
  facet normal 0.514496 -1.34634e-16 -0.857493
    outer loop
      vertex 14.5 -33.5 -33.5
      vertex 20 -28.15 -30.2
      vertex 20 -30.2 -30.2
    endloop
  endfacet
  facet normal 0.514496 1.34634e-16 0.857493
    outer loop
      vertex 20 -30.1889 -36.8
      vertex 18.7137 -28.15 -36.0282
      vertex 14.5 -28.15 -33.5
    endloop
  endfacet
  facet normal 0.514496 1.34634e-16 0.857493
    outer loop
      vertex 20 -36.8 -36.8
      vertex 20 -30.1889 -36.8
      vertex 14.5 -33.5 -33.5
    endloop
  endfacet
  facet normal 0.514496 1.34634e-16 0.857493
    outer loop
      vertex 14.5 -33.5 -33.5
      vertex 20 -30.1889 -36.8
      vertex 14.5 -28.15 -33.5
    endloop
  endfacet
  facet normal -0.514496 1.34634e-16 0.857493
    outer loop
      vertex 5.5 -28.15 -33.5
      vertex 1.28628 -28.15 -36.0282
      vertex 1.33227e-16 -30.1889 -36.8
    endloop
  endfacet
  facet normal -0.514496 1.34634e-16 0.857493
    outer loop
      vertex 5.5 -33.5 -33.5
      vertex 5.5 -28.15 -33.5
      vertex 1.33227e-16 -36.8 -36.8
    endloop
  endfacet
  facet normal -0.514496 1.34634e-16 0.857493
    outer loop
      vertex 1.33227e-16 -36.8 -36.8
      vertex 5.5 -28.15 -33.5
      vertex 1.33227e-16 -30.1889 -36.8
    endloop
  endfacet
  facet normal -0.514496 -1.34634e-16 -0.857493
    outer loop
      vertex 8.65974e-16 -28.15 -30.2
      vertex 5.5 -28.15 -33.5
      vertex 8.65974e-16 -30.2 -30.2
    endloop
  endfacet
  facet normal -0.514496 -1.34634e-16 -0.857493
    outer loop
      vertex 8.65974e-16 -30.2 -30.2
      vertex 5.5 -28.15 -33.5
      vertex 5.5 -33.5 -33.5
    endloop
  endfacet
  facet normal 0.514496 -1.34634e-16 -0.857493
    outer loop
      vertex -5.5 -28.15 -33.5
      vertex 8.65974e-16 -28.15 -30.2
      vertex -5.5 -33.5 -33.5
    endloop
  endfacet
  facet normal 0.514496 -1.34634e-16 -0.857493
    outer loop
      vertex -5.5 -33.5 -33.5
      vertex 8.65974e-16 -28.15 -30.2
      vertex 8.65974e-16 -30.2 -30.2
    endloop
  endfacet
  facet normal 0.514496 1.34634e-16 0.857493
    outer loop
      vertex 1.33227e-16 -30.1889 -36.8
      vertex -1.28628 -28.15 -36.0282
      vertex -5.5 -28.15 -33.5
    endloop
  endfacet
  facet normal 0.514496 1.34634e-16 0.857493
    outer loop
      vertex 1.33227e-16 -36.8 -36.8
      vertex 1.33227e-16 -30.1889 -36.8
      vertex -5.5 -33.5 -33.5
    endloop
  endfacet
  facet normal 0.514496 1.34634e-16 0.857493
    outer loop
      vertex -5.5 -33.5 -33.5
      vertex 1.33227e-16 -30.1889 -36.8
      vertex -5.5 -28.15 -33.5
    endloop
  endfacet
  facet normal -0.514496 1.34634e-16 0.857493
    outer loop
      vertex -14.5 -28.15 -33.5
      vertex -18.7137 -28.15 -36.0282
      vertex -20 -30.1889 -36.8
    endloop
  endfacet
  facet normal -0.514496 1.34634e-16 0.857493
    outer loop
      vertex -14.5 -33.5 -33.5
      vertex -14.5 -28.15 -33.5
      vertex -20 -36.8 -36.8
    endloop
  endfacet
  facet normal -0.514496 1.34634e-16 0.857493
    outer loop
      vertex -20 -36.8 -36.8
      vertex -14.5 -28.15 -33.5
      vertex -20 -30.1889 -36.8
    endloop
  endfacet
  facet normal -0.514496 -1.34634e-16 -0.857493
    outer loop
      vertex -20 -28.15 -30.2
      vertex -14.5 -28.15 -33.5
      vertex -20 -30.2 -30.2
    endloop
  endfacet
  facet normal -0.514496 -1.34634e-16 -0.857493
    outer loop
      vertex -20 -30.2 -30.2
      vertex -14.5 -28.15 -33.5
      vertex -14.5 -33.5 -33.5
    endloop
  endfacet
  facet normal 0.514496 -1.34634e-16 -0.857493
    outer loop
      vertex -25.5 -28.15 -33.5
      vertex -20 -28.15 -30.2
      vertex -25.5 -33.5 -33.5
    endloop
  endfacet
  facet normal 0.514496 -1.34634e-16 -0.857493
    outer loop
      vertex -25.5 -33.5 -33.5
      vertex -20 -28.15 -30.2
      vertex -20 -30.2 -30.2
    endloop
  endfacet
  facet normal 0.514496 1.34634e-16 0.857493
    outer loop
      vertex -20 -30.1889 -36.8
      vertex -21.2863 -28.15 -36.0282
      vertex -25.5 -28.15 -33.5
    endloop
  endfacet
  facet normal 0.514496 1.34634e-16 0.857493
    outer loop
      vertex -20 -36.8 -36.8
      vertex -20 -30.1889 -36.8
      vertex -25.5 -33.5 -33.5
    endloop
  endfacet
  facet normal 0.514496 1.34634e-16 0.857493
    outer loop
      vertex -25.5 -33.5 -33.5
      vertex -20 -30.1889 -36.8
      vertex -25.5 -28.15 -33.5
    endloop
  endfacet
  facet normal -0.891006 9.08258e-17 0.453992
    outer loop
      vertex -27.0965 34.2936 -34.2936
      vertex -27.2314 34.5584 -34.5584
      vertex -27.0965 -34.2936 -34.2936
    endloop
  endfacet
  facet normal -0.891006 9.08258e-17 0.453992
    outer loop
      vertex -27.0965 -34.2936 -34.2936
      vertex -27.2314 34.5584 -34.5584
      vertex -27.2314 -34.5584 -34.5584
    endloop
  endfacet
  facet normal -0.707107 8.80288e-17 0.707107
    outer loop
      vertex -27.2314 34.5584 -34.5584
      vertex -27.4416 34.7686 -34.7686
      vertex -27.4416 -34.7686 -34.7686
    endloop
  endfacet
  facet normal -0.707107 8.80288e-17 0.707107
    outer loop
      vertex -27.2314 -34.5584 -34.5584
      vertex -27.2314 34.5584 -34.5584
      vertex -27.4416 -34.7686 -34.7686
    endloop
  endfacet
  facet normal -0.987688 8.4732e-17 0.156434
    outer loop
      vertex -27.05 34 -34
      vertex -27.0965 34.2936 -34.2936
      vertex -27.05 -34 -34
    endloop
  endfacet
  facet normal -0.987688 8.4732e-17 0.156434
    outer loop
      vertex -27.05 -34 -34
      vertex -27.0965 34.2936 -34.2936
      vertex -27.0965 -34.2936 -34.2936
    endloop
  endfacet
  facet normal -0.987688 7.03442e-17 -0.156434
    outer loop
      vertex -27.0965 33.7064 -33.7064
      vertex -27.05 34 -34
      vertex -27.0965 -33.7064 -33.7064
    endloop
  endfacet
  facet normal -0.987688 7.03442e-17 -0.156434
    outer loop
      vertex -27.0965 -33.7064 -33.7064
      vertex -27.05 34 -34
      vertex -27.05 -34 -34
    endloop
  endfacet
  facet normal -0.891006 4.90704e-17 -0.453992
    outer loop
      vertex -27.2314 33.4416 -33.4416
      vertex -27.0965 33.7064 -33.7064
      vertex -27.2314 -33.4416 -33.4416
    endloop
  endfacet
  facet normal -0.891006 4.90704e-17 -0.453992
    outer loop
      vertex -27.2314 -33.4416 -33.4416
      vertex -27.0965 33.7064 -33.7064
      vertex -27.0965 -33.7064 -33.7064
    endloop
  endfacet
  facet normal -0.707107 2.29935e-17 -0.707107
    outer loop
      vertex -27.4416 33.2314 -33.2314
      vertex -27.2314 33.4416 -33.4416
      vertex -27.4416 -33.2314 -33.2314
    endloop
  endfacet
  facet normal -0.707107 2.29935e-17 -0.707107
    outer loop
      vertex -27.4416 -33.2314 -33.2314
      vertex -27.2314 33.4416 -33.4416
      vertex -27.2314 -33.4416 -33.4416
    endloop
  endfacet
  facet normal -0.453992 -5.33421e-18 -0.891006
    outer loop
      vertex -27.7064 33.0965 -33.0965
      vertex -27.4416 33.2314 -33.2314
      vertex -27.7064 -33.0965 -33.0965
    endloop
  endfacet
  facet normal -0.453992 -5.33421e-18 -0.891006
    outer loop
      vertex -27.7064 -33.0965 -33.0965
      vertex -27.4416 33.2314 -33.2314
      vertex -27.4416 -33.2314 -33.2314
    endloop
  endfacet
  facet normal -0.156434 -3.314e-17 -0.987688
    outer loop
      vertex -28 33.05 -33.05
      vertex -27.7064 33.0965 -33.0965
      vertex -28 -33.05 -33.05
    endloop
  endfacet
  facet normal -0.156434 -3.314e-17 -0.987688
    outer loop
      vertex -28 -33.05 -33.05
      vertex -27.7064 33.0965 -33.0965
      vertex -27.7064 -33.0965 -33.0965
    endloop
  endfacet
  facet normal 0.156434 -5.77015e-17 -0.987688
    outer loop
      vertex -28.2936 33.0965 -33.0965
      vertex -28 33.05 -33.05
      vertex -28.2936 -33.0965 -33.0965
    endloop
  endfacet
  facet normal 0.156434 -5.77015e-17 -0.987688
    outer loop
      vertex -28.2936 -33.0965 -33.0965
      vertex -28 33.05 -33.05
      vertex -28 -33.05 -33.05
    endloop
  endfacet
  facet normal 0.453992 -7.66151e-17 -0.891006
    outer loop
      vertex -28.5584 33.2314 -33.2314
      vertex -28.2936 33.0965 -33.0965
      vertex -28.5584 -33.2314 -33.2314
    endloop
  endfacet
  facet normal 0.453992 -7.66151e-17 -0.891006
    outer loop
      vertex -28.5584 -33.2314 -33.2314
      vertex -28.2936 33.0965 -33.0965
      vertex -28.2936 -33.0965 -33.0965
    endloop
  endfacet
  facet normal 0.707107 -8.80288e-17 -0.707107
    outer loop
      vertex -28.7686 33.4416 -33.4416
      vertex -28.5584 33.2314 -33.2314
      vertex -28.7686 -33.4416 -33.4416
    endloop
  endfacet
  facet normal 0.707107 -8.80288e-17 -0.707107
    outer loop
      vertex -28.7686 -33.4416 -33.4416
      vertex -28.5584 33.2314 -33.2314
      vertex -28.5584 -33.2314 -33.2314
    endloop
  endfacet
  facet normal 0.891006 -9.08258e-17 -0.453992
    outer loop
      vertex -28.9035 33.7064 -33.7064
      vertex -28.7686 33.4416 -33.4416
      vertex -28.7686 -33.4416 -33.4416
    endloop
  endfacet
  facet normal 0.891006 -9.08258e-17 -0.453992
    outer loop
      vertex -28.9035 -33.7064 -33.7064
      vertex -28.9035 33.7064 -33.7064
      vertex -28.7686 -33.4416 -33.4416
    endloop
  endfacet
  facet normal 0.987688 -8.4732e-17 -0.156434
    outer loop
      vertex -28.95 34 -34
      vertex -28.9035 33.7064 -33.7064
      vertex -28.9035 -33.7064 -33.7064
    endloop
  endfacet
  facet normal 0.987688 -8.4732e-17 -0.156434
    outer loop
      vertex -28.95 -34 -34
      vertex -28.95 34 -34
      vertex -28.9035 -33.7064 -33.7064
    endloop
  endfacet
  facet normal 0.987688 -7.03442e-17 0.156434
    outer loop
      vertex -28.9035 34.2936 -34.2936
      vertex -28.95 34 -34
      vertex -28.95 -34 -34
    endloop
  endfacet
  facet normal 0.987688 -7.03442e-17 0.156434
    outer loop
      vertex -28.9035 -34.2936 -34.2936
      vertex -28.9035 34.2936 -34.2936
      vertex -28.95 -34 -34
    endloop
  endfacet
  facet normal 0.891006 -4.90704e-17 0.453992
    outer loop
      vertex -28.7686 34.5584 -34.5584
      vertex -28.9035 34.2936 -34.2936
      vertex -28.9035 -34.2936 -34.2936
    endloop
  endfacet
  facet normal 0.891006 -4.90704e-17 0.453992
    outer loop
      vertex -28.7686 -34.5584 -34.5584
      vertex -28.7686 34.5584 -34.5584
      vertex -28.9035 -34.2936 -34.2936
    endloop
  endfacet
  facet normal 0.707107 -2.29935e-17 0.707107
    outer loop
      vertex -28.5584 34.7686 -34.7686
      vertex -28.7686 34.5584 -34.5584
      vertex -28.7686 -34.5584 -34.5584
    endloop
  endfacet
  facet normal 0.707107 -2.29935e-17 0.707107
    outer loop
      vertex -28.5584 -34.7686 -34.7686
      vertex -28.5584 34.7686 -34.7686
      vertex -28.7686 -34.5584 -34.5584
    endloop
  endfacet
  facet normal 0.453992 5.33421e-18 0.891006
    outer loop
      vertex -28.2936 34.9035 -34.9035
      vertex -28.5584 34.7686 -34.7686
      vertex -28.5584 -34.7686 -34.7686
    endloop
  endfacet
  facet normal 0.453992 5.33421e-18 0.891006
    outer loop
      vertex -28.2936 -34.9035 -34.9035
      vertex -28.2936 34.9035 -34.9035
      vertex -28.5584 -34.7686 -34.7686
    endloop
  endfacet
  facet normal 0.156434 3.314e-17 0.987688
    outer loop
      vertex -28 34.95 -34.95
      vertex -28.2936 34.9035 -34.9035
      vertex -28.2936 -34.9035 -34.9035
    endloop
  endfacet
  facet normal 0.156434 3.314e-17 0.987688
    outer loop
      vertex -28 -34.95 -34.95
      vertex -28 34.95 -34.95
      vertex -28.2936 -34.9035 -34.9035
    endloop
  endfacet
  facet normal -0.156434 5.77015e-17 0.987688
    outer loop
      vertex -27.7064 34.9035 -34.9035
      vertex -28 34.95 -34.95
      vertex -28 -34.95 -34.95
    endloop
  endfacet
  facet normal -0.156434 5.77015e-17 0.987688
    outer loop
      vertex -27.7064 -34.9035 -34.9035
      vertex -27.7064 34.9035 -34.9035
      vertex -28 -34.95 -34.95
    endloop
  endfacet
  facet normal -0.453992 7.66151e-17 0.891006
    outer loop
      vertex -27.4416 34.7686 -34.7686
      vertex -27.7064 34.9035 -34.9035
      vertex -27.7064 -34.9035 -34.9035
    endloop
  endfacet
  facet normal -0.453992 7.66151e-17 0.891006
    outer loop
      vertex -27.4416 -34.7686 -34.7686
      vertex -27.4416 34.7686 -34.7686
      vertex -27.7064 -34.9035 -34.9035
    endloop
  endfacet
  facet normal 0.857493 -0.514496 1.90402e-17
    outer loop
      vertex 34 -25 -29
      vertex 34 -25 -34
      vertex 37 -20 -37
    endloop
  endfacet
  facet normal 0.857493 -0.514496 1.90402e-17
    outer loop
      vertex 37 -20 -29
      vertex 34 -25 -29
      vertex 37 -20 -37
    endloop
  endfacet
  facet normal 0.857493 0.514496 -2.09442e-16
    outer loop
      vertex 34 -15 -29
      vertex 37 -20 -29
      vertex 34 -15 -34
    endloop
  endfacet
  facet normal 0.857493 0.514496 -2.09442e-16
    outer loop
      vertex 34 -15 -34
      vertex 37 -20 -29
      vertex 37 -20 -37
    endloop
  endfacet
  facet normal -0.857493 0.514496 -1.90402e-17
    outer loop
      vertex 31 -20 -31
      vertex 31 -20 -29
      vertex 34 -15 -34
    endloop
  endfacet
  facet normal -0.857493 0.514496 -1.90402e-17
    outer loop
      vertex 34 -15 -34
      vertex 31 -20 -29
      vertex 34 -15 -29
    endloop
  endfacet
  facet normal -0.857493 -0.514496 2.09442e-16
    outer loop
      vertex 34 -25 -34
      vertex 34 -25 -29
      vertex 31 -20 -31
    endloop
  endfacet
  facet normal -0.857493 -0.514496 2.09442e-16
    outer loop
      vertex 31 -20 -31
      vertex 34 -25 -29
      vertex 31 -20 -29
    endloop
  endfacet
  facet normal -1.57009e-16 -3.79054e-16 -1
    outer loop
      vertex 37 -1.69297e-14 -37
      vertex 37 -3.62751e-07 -37
      vertex 37 3.62751e-07 -37
    endloop
  endfacet
  facet normal 0.857493 -0.514496 1.90402e-17
    outer loop
      vertex 34 -5 -29
      vertex 34 -5 -34
      vertex 37 -3.62751e-07 -37
    endloop
  endfacet
  facet normal 0.857493 -0.514496 1.90402e-17
    outer loop
      vertex 37 -1.51533e-14 -29
      vertex 34 -5 -29
      vertex 37 -1.69297e-14 -37
    endloop
  endfacet
  facet normal 0.857493 -0.514496 1.90402e-17
    outer loop
      vertex 37 -1.69297e-14 -37
      vertex 34 -5 -29
      vertex 37 -3.62751e-07 -37
    endloop
  endfacet
  facet normal 0.857493 0.514496 -2.09442e-16
    outer loop
      vertex 37 -1.51533e-14 -29
      vertex 37 -1.69297e-14 -37
      vertex 37 3.62751e-07 -37
    endloop
  endfacet
  facet normal 0.857493 0.514496 -2.09442e-16
    outer loop
      vertex 34 5 -29
      vertex 37 -1.51533e-14 -29
      vertex 34 5 -34
    endloop
  endfacet
  facet normal 0.857493 0.514496 -2.09442e-16
    outer loop
      vertex 34 5 -34
      vertex 37 -1.51533e-14 -29
      vertex 37 3.62751e-07 -37
    endloop
  endfacet
  facet normal -0.857493 0.514496 -1.90402e-17
    outer loop
      vertex 31 -1.41843e-14 -31
      vertex 31 -1.37402e-14 -29
      vertex 34 5 -34
    endloop
  endfacet
  facet normal -0.857493 0.514496 -1.90402e-17
    outer loop
      vertex 34 5 -34
      vertex 31 -1.37402e-14 -29
      vertex 34 5 -29
    endloop
  endfacet
  facet normal -0.857493 -0.514496 2.09442e-16
    outer loop
      vertex 34 -5 -34
      vertex 34 -5 -29
      vertex 31 -1.41843e-14 -31
    endloop
  endfacet
  facet normal -0.857493 -0.514496 2.09442e-16
    outer loop
      vertex 31 -1.41843e-14 -31
      vertex 34 -5 -29
      vertex 31 -1.37402e-14 -29
    endloop
  endfacet
  facet normal 0.857493 -0.514496 1.90402e-17
    outer loop
      vertex 34 15 -29
      vertex 34 15 -34
      vertex 37 20 -37
    endloop
  endfacet
  facet normal 0.857493 -0.514496 1.90402e-17
    outer loop
      vertex 37 20 -29
      vertex 34 15 -29
      vertex 37 20 -37
    endloop
  endfacet
  facet normal 0.857493 0.514496 -2.09442e-16
    outer loop
      vertex 34 25 -29
      vertex 37 20 -29
      vertex 34 25 -34
    endloop
  endfacet
  facet normal 0.857493 0.514496 -2.09442e-16
    outer loop
      vertex 34 25 -34
      vertex 37 20 -29
      vertex 37 20 -37
    endloop
  endfacet
  facet normal -0.857493 0.514496 -1.90402e-17
    outer loop
      vertex 31 20 -31
      vertex 31 20 -29
      vertex 34 25 -34
    endloop
  endfacet
  facet normal -0.857493 0.514496 -1.90402e-17
    outer loop
      vertex 34 25 -34
      vertex 31 20 -29
      vertex 34 25 -29
    endloop
  endfacet
  facet normal -0.857493 -0.514496 2.09442e-16
    outer loop
      vertex 34 15 -34
      vertex 34 15 -29
      vertex 31 20 -31
    endloop
  endfacet
  facet normal -0.857493 -0.514496 2.09442e-16
    outer loop
      vertex 31 20 -31
      vertex 34 15 -29
      vertex 31 20 -29
    endloop
  endfacet
  facet normal -0.514496 5.55828e-16 0.857493
    outer loop
      vertex 25.5 33.5 -33.5
      vertex 20 36.8 -36.8
      vertex 20 30.1889 -36.8
    endloop
  endfacet
  facet normal -0.514496 5.55828e-16 0.857493
    outer loop
      vertex 25.5 28.15 -33.5
      vertex 25.5 33.5 -33.5
      vertex 21.2863 28.15 -36.0282
    endloop
  endfacet
  facet normal -0.514496 5.55828e-16 0.857493
    outer loop
      vertex 21.2863 28.15 -36.0282
      vertex 25.5 33.5 -33.5
      vertex 20 30.1889 -36.8
    endloop
  endfacet
  facet normal -0.514496 -4.75047e-16 -0.857493
    outer loop
      vertex 20 30.2 -30.2
      vertex 25.5 33.5 -33.5
      vertex 20 28.15 -30.2
    endloop
  endfacet
  facet normal -0.514496 -4.75047e-16 -0.857493
    outer loop
      vertex 20 28.15 -30.2
      vertex 25.5 33.5 -33.5
      vertex 25.5 28.15 -33.5
    endloop
  endfacet
  facet normal 0.514496 4.75047e-16 0.857493
    outer loop
      vertex 20 30.1889 -36.8
      vertex 20 36.8 -36.8
      vertex 14.5 33.5 -33.5
    endloop
  endfacet
  facet normal 0.514496 4.75047e-16 0.857493
    outer loop
      vertex 18.7137 28.15 -36.0282
      vertex 20 30.1889 -36.8
      vertex 14.5 28.15 -33.5
    endloop
  endfacet
  facet normal 0.514496 4.75047e-16 0.857493
    outer loop
      vertex 14.5 28.15 -33.5
      vertex 20 30.1889 -36.8
      vertex 14.5 33.5 -33.5
    endloop
  endfacet
  facet normal 0.514496 -5.55828e-16 -0.857493
    outer loop
      vertex 14.5 33.5 -33.5
      vertex 20 30.2 -30.2
      vertex 14.5 28.15 -33.5
    endloop
  endfacet
  facet normal 0.514496 -5.55828e-16 -0.857493
    outer loop
      vertex 14.5 28.15 -33.5
      vertex 20 30.2 -30.2
      vertex 20 28.15 -30.2
    endloop
  endfacet
  facet normal -0.514496 5.55828e-16 0.857493
    outer loop
      vertex 5.5 33.5 -33.5
      vertex 3.0222e-15 36.8 -36.8
      vertex 2.5032e-15 30.1889 -36.8
    endloop
  endfacet
  facet normal -0.514496 5.55828e-16 0.857493
    outer loop
      vertex 5.5 28.15 -33.5
      vertex 5.5 33.5 -33.5
      vertex 1.28628 28.15 -36.0282
    endloop
  endfacet
  facet normal -0.514496 5.55828e-16 0.857493
    outer loop
      vertex 1.28628 28.15 -36.0282
      vertex 5.5 33.5 -33.5
      vertex 2.5032e-15 30.1889 -36.8
    endloop
  endfacet
  facet normal -0.514496 -4.75047e-16 -0.857493
    outer loop
      vertex 3.23681e-15 30.2 -30.2
      vertex 5.5 33.5 -33.5
      vertex 3.07588e-15 28.15 -30.2
    endloop
  endfacet
  facet normal -0.514496 -4.75047e-16 -0.857493
    outer loop
      vertex 3.07588e-15 28.15 -30.2
      vertex 5.5 33.5 -33.5
      vertex 5.5 28.15 -33.5
    endloop
  endfacet
  facet normal 0.514496 4.75047e-16 0.857493
    outer loop
      vertex 2.5032e-15 30.1889 -36.8
      vertex 3.0222e-15 36.8 -36.8
      vertex -5.5 33.5 -33.5
    endloop
  endfacet
  facet normal 0.514496 4.75047e-16 0.857493
    outer loop
      vertex -1.28628 28.15 -36.0282
      vertex 2.5032e-15 30.1889 -36.8
      vertex -5.5 28.15 -33.5
    endloop
  endfacet
  facet normal 0.514496 4.75047e-16 0.857493
    outer loop
      vertex -5.5 28.15 -33.5
      vertex 2.5032e-15 30.1889 -36.8
      vertex -5.5 33.5 -33.5
    endloop
  endfacet
  facet normal 0.514496 -5.55828e-16 -0.857493
    outer loop
      vertex -5.5 33.5 -33.5
      vertex 3.23681e-15 30.2 -30.2
      vertex -5.5 28.15 -33.5
    endloop
  endfacet
  facet normal 0.514496 -5.55828e-16 -0.857493
    outer loop
      vertex -5.5 28.15 -33.5
      vertex 3.23681e-15 30.2 -30.2
      vertex 3.07588e-15 28.15 -30.2
    endloop
  endfacet
  facet normal -0.514496 5.55828e-16 0.857493
    outer loop
      vertex -14.5 33.5 -33.5
      vertex -20 36.8 -36.8
      vertex -20 30.1889 -36.8
    endloop
  endfacet
  facet normal -0.514496 5.55828e-16 0.857493
    outer loop
      vertex -14.5 28.15 -33.5
      vertex -14.5 33.5 -33.5
      vertex -18.7137 28.15 -36.0282
    endloop
  endfacet
  facet normal -0.514496 5.55828e-16 0.857493
    outer loop
      vertex -18.7137 28.15 -36.0282
      vertex -14.5 33.5 -33.5
      vertex -20 30.1889 -36.8
    endloop
  endfacet
  facet normal -0.514496 -4.75047e-16 -0.857493
    outer loop
      vertex -20 30.2 -30.2
      vertex -14.5 33.5 -33.5
      vertex -20 28.15 -30.2
    endloop
  endfacet
  facet normal -0.514496 -4.75047e-16 -0.857493
    outer loop
      vertex -20 28.15 -30.2
      vertex -14.5 33.5 -33.5
      vertex -14.5 28.15 -33.5
    endloop
  endfacet
  facet normal 0.514496 4.75047e-16 0.857493
    outer loop
      vertex -20 30.1889 -36.8
      vertex -20 36.8 -36.8
      vertex -25.5 33.5 -33.5
    endloop
  endfacet
  facet normal 0.514496 4.75047e-16 0.857493
    outer loop
      vertex -21.2863 28.15 -36.0282
      vertex -20 30.1889 -36.8
      vertex -25.5 28.15 -33.5
    endloop
  endfacet
  facet normal 0.514496 4.75047e-16 0.857493
    outer loop
      vertex -25.5 28.15 -33.5
      vertex -20 30.1889 -36.8
      vertex -25.5 33.5 -33.5
    endloop
  endfacet
  facet normal 0.514496 -5.55828e-16 -0.857493
    outer loop
      vertex -25.5 33.5 -33.5
      vertex -20 30.2 -30.2
      vertex -25.5 28.15 -33.5
    endloop
  endfacet
  facet normal 0.514496 -5.55828e-16 -0.857493
    outer loop
      vertex -25.5 28.15 -33.5
      vertex -20 30.2 -30.2
      vertex -20 28.15 -30.2
    endloop
  endfacet
  facet normal 0.857493 -0.514496 1.90402e-17
    outer loop
      vertex -34 -25 -29
      vertex -34 -25 -34
      vertex -31 -20 -31
    endloop
  endfacet
  facet normal 0.857493 -0.514496 1.90402e-17
    outer loop
      vertex -31 -20 -29
      vertex -34 -25 -29
      vertex -31 -20 -31
    endloop
  endfacet
  facet normal 0.857493 0.514496 -2.09442e-16
    outer loop
      vertex -31 -20 -29
      vertex -31 -20 -31
      vertex -34 -15 -34
    endloop
  endfacet
  facet normal 0.857493 0.514496 -2.09442e-16
    outer loop
      vertex -34 -15 -29
      vertex -31 -20 -29
      vertex -34 -15 -34
    endloop
  endfacet
  facet normal -0.857493 0.514496 -1.90402e-17
    outer loop
      vertex -37 -20 -37
      vertex -37 -20 -29
      vertex -34 -15 -29
    endloop
  endfacet
  facet normal -0.857493 0.514496 -1.90402e-17
    outer loop
      vertex -37 -20 -37
      vertex -34 -15 -29
      vertex -34 -15 -34
    endloop
  endfacet
  facet normal -0.857493 -0.514496 2.09442e-16
    outer loop
      vertex -34 -25 -34
      vertex -34 -25 -29
      vertex -37 -20 -37
    endloop
  endfacet
  facet normal -0.857493 -0.514496 2.09442e-16
    outer loop
      vertex -37 -20 -37
      vertex -34 -25 -29
      vertex -37 -20 -29
    endloop
  endfacet
  facet normal 0.857493 -0.514496 1.90402e-17
    outer loop
      vertex -34 -5 -29
      vertex -34 -5 -34
      vertex -31 4.17547e-16 -31
    endloop
  endfacet
  facet normal 0.857493 -0.514496 1.90402e-17
    outer loop
      vertex -31 8.61636e-16 -29
      vertex -34 -5 -29
      vertex -31 4.17547e-16 -31
    endloop
  endfacet
  facet normal 0.857493 0.514496 -2.09442e-16
    outer loop
      vertex -31 8.61636e-16 -29
      vertex -31 4.17547e-16 -31
      vertex -34 5 -34
    endloop
  endfacet
  facet normal 0.857493 0.514496 -2.09442e-16
    outer loop
      vertex -34 5 -29
      vertex -31 8.61636e-16 -29
      vertex -34 5 -34
    endloop
  endfacet
  facet normal -0.857493 0.514496 -1.90402e-17
    outer loop
      vertex -37 4.98363e-16 -37
      vertex -37 2.27472e-15 -29
      vertex -37 3.62751e-07 -37
    endloop
  endfacet
  facet normal -0.857493 0.514496 -1.90402e-17
    outer loop
      vertex -37 3.62751e-07 -37
      vertex -37 2.27472e-15 -29
      vertex -34 5 -29
    endloop
  endfacet
  facet normal -0.857493 0.514496 -1.90402e-17
    outer loop
      vertex -37 3.62751e-07 -37
      vertex -34 5 -29
      vertex -34 5 -34
    endloop
  endfacet
  facet normal -1.57009e-16 -3.79054e-16 -1
    outer loop
      vertex -37 3.62751e-07 -37
      vertex -37 -3.62751e-07 -37
      vertex -37 4.98363e-16 -37
    endloop
  endfacet
  facet normal -0.857493 -0.514496 2.09442e-16
    outer loop
      vertex -34 -5 -34
      vertex -34 -5 -29
      vertex -37 -3.62751e-07 -37
    endloop
  endfacet
  facet normal -0.857493 -0.514496 2.09442e-16
    outer loop
      vertex -37 -3.62751e-07 -37
      vertex -34 -5 -29
      vertex -37 2.27472e-15 -29
    endloop
  endfacet
  facet normal -0.857493 -0.514496 2.09442e-16
    outer loop
      vertex -37 -3.62751e-07 -37
      vertex -37 2.27472e-15 -29
      vertex -37 4.98363e-16 -37
    endloop
  endfacet
  facet normal 0.857493 -0.514496 1.90402e-17
    outer loop
      vertex -34 15 -29
      vertex -34 15 -34
      vertex -31 20 -31
    endloop
  endfacet
  facet normal 0.857493 -0.514496 1.90402e-17
    outer loop
      vertex -31 20 -29
      vertex -34 15 -29
      vertex -31 20 -31
    endloop
  endfacet
  facet normal 0.857493 0.514496 -2.09442e-16
    outer loop
      vertex -31 20 -29
      vertex -31 20 -31
      vertex -34 25 -34
    endloop
  endfacet
  facet normal 0.857493 0.514496 -2.09442e-16
    outer loop
      vertex -34 25 -29
      vertex -31 20 -29
      vertex -34 25 -34
    endloop
  endfacet
  facet normal -0.857493 0.514496 -1.90402e-17
    outer loop
      vertex -37 20 -37
      vertex -37 20 -29
      vertex -34 25 -29
    endloop
  endfacet
  facet normal -0.857493 0.514496 -1.90402e-17
    outer loop
      vertex -37 20 -37
      vertex -34 25 -29
      vertex -34 25 -34
    endloop
  endfacet
  facet normal -0.857493 -0.514496 2.09442e-16
    outer loop
      vertex -34 15 -34
      vertex -34 15 -29
      vertex -37 20 -37
    endloop
  endfacet
  facet normal -0.857493 -0.514496 2.09442e-16
    outer loop
      vertex -37 20 -37
      vertex -34 15 -29
      vertex -37 20 -29
    endloop
  endfacet
  facet normal -1.57009e-16 -3.79054e-16 -1
    outer loop
      vertex 30.5 -34 -37
      vertex 32.75 -32.701 -37
      vertex 32.75 -35.299 -37
    endloop
  endfacet
  facet normal -3.48631e-32 -1 4.50597e-33
    outer loop
      vertex 20 -28.15 -30.2
      vertex 14.5 -28.15 -33.5
      vertex 18.7137 -28.15 -36.0282
    endloop
  endfacet
  facet normal -3.48631e-32 -1 4.50597e-33
    outer loop
      vertex 25.5 -28.15 -33.5
      vertex 20 -28.15 -30.2
      vertex 21.2863 -28.15 -36.0282
    endloop
  endfacet
  facet normal -3.48631e-32 -1 4.50597e-33
    outer loop
      vertex 21.2863 -28.15 -36.0282
      vertex 20 -28.15 -30.2
      vertex 18.7137 -28.15 -36.0282
    endloop
  endfacet
  facet normal -3.48631e-32 -1 4.50597e-33
    outer loop
      vertex 8.65974e-16 -28.15 -30.2
      vertex -5.5 -28.15 -33.5
      vertex -1.28628 -28.15 -36.0282
    endloop
  endfacet
  facet normal -3.48631e-32 -1 4.50597e-33
    outer loop
      vertex 5.5 -28.15 -33.5
      vertex 8.65974e-16 -28.15 -30.2
      vertex 1.28628 -28.15 -36.0282
    endloop
  endfacet
  facet normal -3.48631e-32 -1 4.50597e-33
    outer loop
      vertex 1.28628 -28.15 -36.0282
      vertex 8.65974e-16 -28.15 -30.2
      vertex -1.28628 -28.15 -36.0282
    endloop
  endfacet
  facet normal -3.48631e-32 -1 4.50597e-33
    outer loop
      vertex -20 -28.15 -30.2
      vertex -25.5 -28.15 -33.5
      vertex -21.2863 -28.15 -36.0282
    endloop
  endfacet
  facet normal -3.48631e-32 -1 4.50597e-33
    outer loop
      vertex -14.5 -28.15 -33.5
      vertex -20 -28.15 -30.2
      vertex -18.7137 -28.15 -36.0282
    endloop
  endfacet
  facet normal -3.48631e-32 -1 4.50597e-33
    outer loop
      vertex -18.7137 -28.15 -36.0282
      vertex -20 -28.15 -30.2
      vertex -21.2863 -28.15 -36.0282
    endloop
  endfacet
  facet normal -1.57009e-16 -3.79054e-16 -1
    outer loop
      vertex 24.5 -34 -37
      vertex 26.75 -32.701 -37
      vertex 26.75 -35.299 -37
    endloop
  endfacet
  facet normal -1.57009e-16 -3.79054e-16 -1
    outer loop
      vertex 18.5 -34 -37
      vertex 20.75 -32.701 -37
      vertex 20.75 -35.299 -37
    endloop
  endfacet
  facet normal 7.85046e-17 1 -4.44089e-16
    outer loop
      vertex 18.7137 28.15 -36.0282
      vertex 14.5 28.15 -33.5
      vertex 21.2863 28.15 -36.0282
    endloop
  endfacet
  facet normal 7.85046e-17 1 -4.44089e-16
    outer loop
      vertex 21.2863 28.15 -36.0282
      vertex 14.5 28.15 -33.5
      vertex 20 28.15 -30.2
    endloop
  endfacet
  facet normal 7.85046e-17 1 -4.44089e-16
    outer loop
      vertex 21.2863 28.15 -36.0282
      vertex 20 28.15 -30.2
      vertex 25.5 28.15 -33.5
    endloop
  endfacet
  facet normal 7.85046e-17 1 -4.44089e-16
    outer loop
      vertex -1.28628 28.15 -36.0282
      vertex -5.5 28.15 -33.5
      vertex 1.28628 28.15 -36.0282
    endloop
  endfacet
  facet normal 7.85046e-17 1 -4.44089e-16
    outer loop
      vertex 1.28628 28.15 -36.0282
      vertex -5.5 28.15 -33.5
      vertex 3.07588e-15 28.15 -30.2
    endloop
  endfacet
  facet normal 7.85046e-17 1 -4.44089e-16
    outer loop
      vertex 1.28628 28.15 -36.0282
      vertex 3.07588e-15 28.15 -30.2
      vertex 5.5 28.15 -33.5
    endloop
  endfacet
  facet normal 7.85046e-17 1 -4.44089e-16
    outer loop
      vertex -21.2863 28.15 -36.0282
      vertex -25.5 28.15 -33.5
      vertex -18.7137 28.15 -36.0282
    endloop
  endfacet
  facet normal 7.85046e-17 1 -4.44089e-16
    outer loop
      vertex -18.7137 28.15 -36.0282
      vertex -25.5 28.15 -33.5
      vertex -20 28.15 -30.2
    endloop
  endfacet
  facet normal 7.85046e-17 1 -4.44089e-16
    outer loop
      vertex -18.7137 28.15 -36.0282
      vertex -20 28.15 -30.2
      vertex -14.5 28.15 -33.5
    endloop
  endfacet
  facet normal 0.33691 3.30444e-16 0.941537
    outer loop
      vertex 6.5 -6.5 -26.6608
      vertex 15.8319 -15.8319 -30
      vertex 15.8319 15.8319 -30
    endloop
  endfacet
  facet normal 0.33691 3.30444e-16 0.941537
    outer loop
      vertex 6.5 6.5 -26.6608
      vertex 6.5 -6.5 -26.6608
      vertex 15.8319 15.8319 -30
    endloop
  endfacet
  facet normal 2.89584e-16 0.33691 0.941537
    outer loop
      vertex -15.8319 15.8319 -30
      vertex 6.5 6.5 -26.6608
      vertex 15.8319 15.8319 -30
    endloop
  endfacet
  facet normal 2.89584e-16 0.33691 0.941537
    outer loop
      vertex -6.5 6.5 -26.6608
      vertex 6.5 6.5 -26.6608
      vertex -15.8319 15.8319 -30
    endloop
  endfacet
  facet normal -0.33691 3.83342e-16 0.941537
    outer loop
      vertex -15.8319 -15.8319 -30
      vertex -6.5 -6.5 -26.6608
      vertex -6.5 6.5 -26.6608
    endloop
  endfacet
  facet normal -0.33691 3.83342e-16 0.941537
    outer loop
      vertex -15.8319 15.8319 -30
      vertex -15.8319 -15.8319 -30
      vertex -6.5 6.5 -26.6608
    endloop
  endfacet
  facet normal 2.36686e-16 -0.33691 0.941537
    outer loop
      vertex -15.8319 -15.8319 -30
      vertex 15.8319 -15.8319 -30
      vertex 6.5 -6.5 -26.6608
    endloop
  endfacet
  facet normal 2.36686e-16 -0.33691 0.941537
    outer loop
      vertex -6.5 -6.5 -26.6608
      vertex -15.8319 -15.8319 -30
      vertex 6.5 -6.5 -26.6608
    endloop
  endfacet
  facet normal 1.57009e-16 3.79054e-16 1
    outer loop
      vertex 31 -20 -29
      vertex 34 -25 -29
      vertex 37 -20 -29
    endloop
  endfacet
  facet normal 1.57009e-16 3.79054e-16 1
    outer loop
      vertex 34 -15 -29
      vertex 31 -20 -29
      vertex 37 -20 -29
    endloop
  endfacet
  facet normal 1.57009e-16 3.79054e-16 1
    outer loop
      vertex 31 -1.37402e-14 -29
      vertex 34 -5 -29
      vertex 37 -1.51533e-14 -29
    endloop
  endfacet
  facet normal 1.57009e-16 3.79054e-16 1
    outer loop
      vertex 34 5 -29
      vertex 31 -1.37402e-14 -29
      vertex 37 -1.51533e-14 -29
    endloop
  endfacet
  facet normal 1.57009e-16 3.79054e-16 1
    outer loop
      vertex 31 20 -29
      vertex 34 15 -29
      vertex 37 20 -29
    endloop
  endfacet
  facet normal 1.57009e-16 3.79054e-16 1
    outer loop
      vertex 34 25 -29
      vertex 31 20 -29
      vertex 37 20 -29
    endloop
  endfacet
  facet normal 1.57009e-16 3.79054e-16 1
    outer loop
      vertex -37 -20 -29
      vertex -34 -25 -29
      vertex -31 -20 -29
    endloop
  endfacet
  facet normal 1.57009e-16 3.79054e-16 1
    outer loop
      vertex -34 -15 -29
      vertex -37 -20 -29
      vertex -31 -20 -29
    endloop
  endfacet
  facet normal 1.57009e-16 3.79054e-16 1
    outer loop
      vertex -37 2.27472e-15 -29
      vertex -34 -5 -29
      vertex -31 8.61636e-16 -29
    endloop
  endfacet
  facet normal 1.57009e-16 3.79054e-16 1
    outer loop
      vertex -34 5 -29
      vertex -37 2.27472e-15 -29
      vertex -31 8.61636e-16 -29
    endloop
  endfacet
  facet normal 1.57009e-16 3.79054e-16 1
    outer loop
      vertex -37 20 -29
      vertex -34 15 -29
      vertex -31 20 -29
    endloop
  endfacet
  facet normal 1.57009e-16 3.79054e-16 1
    outer loop
      vertex -34 25 -29
      vertex -37 20 -29
      vertex -31 20 -29
    endloop
  endfacet
  facet normal 2.51046e-49 1 -2.22045e-16
    outer loop
      vertex -2.7 -2.7 -26.395
      vertex -2.7 -2.7 -25.6
      vertex 2.7 -2.7 -26.395
    endloop
  endfacet
  facet normal 2.51046e-49 1 -2.22045e-16
    outer loop
      vertex 2.7 -2.7 -26.395
      vertex -2.7 -2.7 -25.6
      vertex 2.7 -2.7 -25.6
    endloop
  endfacet
  facet normal -1 8.85041e-32 2.33487e-16
    outer loop
      vertex 2.7 2.7 -26.395
      vertex 2.7 -2.7 -26.395
      vertex 2.7 2.7 -25.6
    endloop
  endfacet
  facet normal -1 8.85041e-32 2.33487e-16
    outer loop
      vertex 2.7 2.7 -25.6
      vertex 2.7 -2.7 -26.395
      vertex 2.7 -2.7 -25.6
    endloop
  endfacet
  facet normal 1 -8.85041e-32 -2.33487e-16
    outer loop
      vertex -2.7 -2.7 -26.395
      vertex -2.7 2.7 -26.395
      vertex -2.7 2.7 -25.6
    endloop
  endfacet
  facet normal 1 -8.85041e-32 -2.33487e-16
    outer loop
      vertex -2.7 -2.7 -25.6
      vertex -2.7 -2.7 -26.395
      vertex -2.7 2.7 -25.6
    endloop
  endfacet
  facet normal -2.51046e-49 -1 2.22045e-16
    outer loop
      vertex -2.7 2.7 -25.6
      vertex -2.7 2.7 -26.395
      vertex 2.7 2.7 -26.395
    endloop
  endfacet
  facet normal -2.51046e-49 -1 2.22045e-16
    outer loop
      vertex 2.7 2.7 -25.6
      vertex -2.7 2.7 -25.6
      vertex 2.7 2.7 -26.395
    endloop
  endfacet
  facet normal -2.51046e-49 -1 2.22045e-16
    outer loop
      vertex 6.5 -6.5 -26.6608
      vertex 6.5 -6.5 -25.6
      vertex -6.5 -6.5 -25.6
    endloop
  endfacet
  facet normal -2.51046e-49 -1 2.22045e-16
    outer loop
      vertex -6.5 -6.5 -26.6608
      vertex 6.5 -6.5 -26.6608
      vertex -6.5 -6.5 -25.6
    endloop
  endfacet
  facet normal 1 -8.85041e-32 -2.33487e-16
    outer loop
      vertex 6.5 6.5 -25.6
      vertex 6.5 -6.5 -25.6
      vertex 6.5 -6.5 -26.6608
    endloop
  endfacet
  facet normal 1 -8.85041e-32 -2.33487e-16
    outer loop
      vertex 6.5 6.5 -26.6608
      vertex 6.5 6.5 -25.6
      vertex 6.5 -6.5 -26.6608
    endloop
  endfacet
  facet normal 2.51046e-49 1 -2.22045e-16
    outer loop
      vertex 6.5 6.5 -25.6
      vertex 6.5 6.5 -26.6608
      vertex -6.5 6.5 -25.6
    endloop
  endfacet
  facet normal 2.51046e-49 1 -2.22045e-16
    outer loop
      vertex -6.5 6.5 -25.6
      vertex 6.5 6.5 -26.6608
      vertex -6.5 6.5 -26.6608
    endloop
  endfacet
  facet normal -1 8.85041e-32 2.33487e-16
    outer loop
      vertex -6.5 -6.5 -25.6
      vertex -6.5 6.5 -25.6
      vertex -6.5 -6.5 -26.6608
    endloop
  endfacet
  facet normal -1 8.85041e-32 2.33487e-16
    outer loop
      vertex -6.5 -6.5 -26.6608
      vertex -6.5 6.5 -25.6
      vertex -6.5 6.5 -26.6608
    endloop
  endfacet
  facet normal 2.79474e-16 3.79054e-16 1
    outer loop
      vertex 2.7 -2.7 -25.6
      vertex 6.5 -6.5 -25.6
      vertex 6.5 6.5 -25.6
    endloop
  endfacet
  facet normal 2.79474e-16 3.79054e-16 1
    outer loop
      vertex -2.7 -2.7 -25.6
      vertex -6.5 -6.5 -25.6
      vertex 2.7 -2.7 -25.6
    endloop
  endfacet
  facet normal 2.79474e-16 3.79054e-16 1
    outer loop
      vertex 2.7 2.7 -25.6
      vertex 2.7 -2.7 -25.6
      vertex 6.5 6.5 -25.6
    endloop
  endfacet
  facet normal 2.79474e-16 3.79054e-16 1
    outer loop
      vertex -6.5 -6.5 -25.6
      vertex 6.5 -6.5 -25.6
      vertex 2.7 -2.7 -25.6
    endloop
  endfacet
  facet normal 2.79474e-16 3.79054e-16 1
    outer loop
      vertex -6.5 6.5 -25.6
      vertex -6.5 -6.5 -25.6
      vertex -2.7 -2.7 -25.6
    endloop
  endfacet
  facet normal 2.79474e-16 3.79054e-16 1
    outer loop
      vertex -6.5 6.5 -25.6
      vertex -2.7 2.7 -25.6
      vertex 6.5 6.5 -25.6
    endloop
  endfacet
  facet normal 2.79474e-16 3.79054e-16 1
    outer loop
      vertex -6.5 6.5 -25.6
      vertex -2.7 -2.7 -25.6
      vertex -2.7 2.7 -25.6
    endloop
  endfacet
  facet normal 2.79474e-16 3.79054e-16 1
    outer loop
      vertex -2.7 2.7 -25.6
      vertex 2.7 2.7 -25.6
      vertex 6.5 6.5 -25.6
    endloop
  endfacet
endsolid OpenSCAD_Model
