solid OpenSCAD_Model
  facet normal 1.34693e-17 2.35514e-16 -1
    outer loop
      vertex 28.3349 28.3349 -38
      vertex -38 38 -38
      vertex 38 38 -38
    endloop
  endfacet
  facet normal 1.34693e-17 2.35514e-16 -1
    outer loop
      vertex -38 -38 -38
      vertex -38 38 -38
      vertex -35.299 -32.75 -38
    endloop
  endfacet
  facet normal 1.34693e-17 2.35514e-16 -1
    outer loop
      vertex -38 -38 -38
      vertex -35.299 -32.75 -38
      vertex 38 -38 -38
    endloop
  endfacet
  facet normal 1.34693e-17 2.35514e-16 -1
    outer loop
      vertex -28.3349 -28.3349 -38
      vertex -32.701 -14.75 -38
      vertex -38 38 -38
    endloop
  endfacet
  facet normal 1.34693e-17 2.35514e-16 -1
    outer loop
      vertex -35.299 -32.75 -38
      vertex -32.701 -32.75 -38
      vertex 38 -38 -38
    endloop
  endfacet
  facet normal 1.34693e-17 2.35514e-16 -1
    outer loop
      vertex -32.701 -14.75 -38
      vertex -34 -18.5 -38
      vertex -35.299 -14.75 -38
    endloop
  endfacet
  facet normal 1.34693e-17 2.35514e-16 -1
    outer loop
      vertex -35.299 -32.75 -38
      vertex -38 38 -38
      vertex -35.299 -26.75 -38
    endloop
  endfacet
  facet normal 1.34693e-17 2.35514e-16 -1
    outer loop
      vertex -35.299 -32.75 -38
      vertex -35.299 -26.75 -38
      vertex -34 -30.5 -38
    endloop
  endfacet
  facet normal 1.34693e-17 2.35514e-16 -1
    outer loop
      vertex 28.3349 -28.3349 -38
      vertex 38 -38 -38
      vertex -28.3349 -28.3349 -38
    endloop
  endfacet
  facet normal 1.34693e-17 2.35514e-16 -1
    outer loop
      vertex -34 -12.5 -38
      vertex -38 38 -38
      vertex -32.701 -14.75 -38
    endloop
  endfacet
  facet normal 1.34693e-17 2.35514e-16 -1
    outer loop
      vertex -32.701 -14.75 -38
      vertex -32.701 -20.75 -38
      vertex -34 -18.5 -38
    endloop
  endfacet
  facet normal 1.34693e-17 2.35514e-16 -1
    outer loop
      vertex -32.701 -32.75 -38
      vertex -32.701 -26.75 -38
      vertex -28.3349 -28.3349 -38
    endloop
  endfacet
  facet normal 1.34693e-17 2.35514e-16 -1
    outer loop
      vertex -32.701 -32.75 -38
      vertex -28.3349 -28.3349 -38
      vertex 38 -38 -38
    endloop
  endfacet
  facet normal 1.34693e-17 2.35514e-16 -1
    outer loop
      vertex 38 -38 -38
      vertex 28.3349 -28.3349 -38
      vertex 38 38 -38
    endloop
  endfacet
  facet normal 1.34693e-17 2.35514e-16 -1
    outer loop
      vertex -28.3349 28.3349 -38
      vertex -38 38 -38
      vertex 28.3349 28.3349 -38
    endloop
  endfacet
  facet normal 1.34693e-17 2.35514e-16 -1
    outer loop
      vertex 28.3349 -28.3349 -38
      vertex 28.3349 28.3349 -38
      vertex 38 38 -38
    endloop
  endfacet
  facet normal 1.34693e-17 2.35514e-16 -1
    outer loop
      vertex -35.299 -26.75 -38
      vertex -38 38 -38
      vertex -35.299 -20.75 -38
    endloop
  endfacet
  facet normal 1.34693e-17 2.35514e-16 -1
    outer loop
      vertex -32.701 -26.75 -38
      vertex -32.701 -32.75 -38
      vertex -34 -30.5 -38
    endloop
  endfacet
  facet normal 1.34693e-17 2.35514e-16 -1
    outer loop
      vertex -35.299 -14.75 -38
      vertex -38 38 -38
      vertex -34 -12.5 -38
    endloop
  endfacet
  facet normal 1.34693e-17 2.35514e-16 -1
    outer loop
      vertex -28.3349 -28.3349 -38
      vertex -38 38 -38
      vertex -28.3349 28.3349 -38
    endloop
  endfacet
  facet normal 1.34693e-17 2.35514e-16 -1
    outer loop
      vertex -35.299 -20.75 -38
      vertex -38 38 -38
      vertex -35.299 -14.75 -38
    endloop
  endfacet
  facet normal 1.34693e-17 2.35514e-16 -1
    outer loop
      vertex -32.701 -26.75 -38
      vertex -34 -30.5 -38
      vertex -35.299 -26.75 -38
    endloop
  endfacet
  facet normal 1.34693e-17 2.35514e-16 -1
    outer loop
      vertex -28.3349 -28.3349 -38
      vertex -32.701 -20.75 -38
      vertex -32.701 -14.75 -38
    endloop
  endfacet
  facet normal 1.34693e-17 2.35514e-16 -1
    outer loop
      vertex -28.3349 -28.3349 -38
      vertex -32.701 -26.75 -38
      vertex -32.701 -20.75 -38
    endloop
  endfacet
  facet normal 1.34693e-17 2.35514e-16 -1
    outer loop
      vertex -32.701 -20.75 -38
      vertex -34 -24.5 -38
      vertex -35.299 -20.75 -38
    endloop
  endfacet
  facet normal 1.34693e-17 2.35514e-16 -1
    outer loop
      vertex -32.701 -20.75 -38
      vertex -32.701 -26.75 -38
      vertex -34 -24.5 -38
    endloop
  endfacet
  facet normal 1.34693e-17 2.35514e-16 -1
    outer loop
      vertex -35.299 -26.75 -38
      vertex -35.299 -20.75 -38
      vertex -34 -24.5 -38
    endloop
  endfacet
  facet normal 1.34693e-17 2.35514e-16 -1
    outer loop
      vertex -35.299 -20.75 -38
      vertex -35.299 -14.75 -38
      vertex -34 -18.5 -38
    endloop
  endfacet
  facet normal -0.707107 -1.66533e-16 0.707107
    outer loop
      vertex -33.5 -14.5 -33.5
      vertex -36.8 -1.33227e-16 -36.8
      vertex -36.8 -20 -36.8
    endloop
  endfacet
  facet normal -0.707107 -1.66533e-16 0.707107
    outer loop
      vertex -30.2 -20 -30.2
      vertex -30 -30 -30
      vertex -30 30 -30
    endloop
  endfacet
  facet normal -0.707107 -1.66533e-16 0.707107
    outer loop
      vertex -38 -38 -38
      vertex -30 -30 -30
      vertex -33.5 -25.5 -33.5
    endloop
  endfacet
  facet normal -0.707107 -1.66533e-16 0.707107
    outer loop
      vertex -33.5 14.5 -33.5
      vertex -33.5 5.5 -33.5
      vertex -30.2 20 -30.2
    endloop
  endfacet
  facet normal -0.707107 -1.66533e-16 0.707107
    outer loop
      vertex -38 -38 -38
      vertex -33.5 -25.5 -33.5
      vertex -36.8 -20 -36.8
    endloop
  endfacet
  facet normal -0.707107 -1.66533e-16 0.707107
    outer loop
      vertex -38 -38 -38
      vertex -36.8 -20 -36.8
      vertex -38 38 -38
    endloop
  endfacet
  facet normal -0.707107 -1.66533e-16 0.707107
    outer loop
      vertex -33.5 5.5 -33.5
      vertex -36.8 20 -36.8
      vertex -36.8 -1.33227e-16 -36.8
    endloop
  endfacet
  facet normal -0.707107 -1.66533e-16 0.707107
    outer loop
      vertex -33.5 -5.5 -33.5
      vertex -30.2 -20 -30.2
      vertex -30.2 -8.65974e-16 -30.2
    endloop
  endfacet
  facet normal -0.707107 -1.66533e-16 0.707107
    outer loop
      vertex -30.2 -8.65974e-16 -30.2
      vertex -30.2 -20 -30.2
      vertex -30 30 -30
    endloop
  endfacet
  facet normal -0.707107 -1.66533e-16 0.707107
    outer loop
      vertex -33.5 25.5 -33.5
      vertex -38 38 -38
      vertex -36.8 20 -36.8
    endloop
  endfacet
  facet normal -0.707107 -1.66533e-16 0.707107
    outer loop
      vertex -36.8 -20 -36.8
      vertex -36.8 -1.33227e-16 -36.8
      vertex -38 38 -38
    endloop
  endfacet
  facet normal -0.707107 -1.66533e-16 0.707107
    outer loop
      vertex -36.8 20 -36.8
      vertex -33.5 5.5 -33.5
      vertex -33.5 14.5 -33.5
    endloop
  endfacet
  facet normal -0.707107 -1.66533e-16 0.707107
    outer loop
      vertex -30.2 20 -30.2
      vertex -30.2 -8.65974e-16 -30.2
      vertex -30 30 -30
    endloop
  endfacet
  facet normal -0.707107 -1.66533e-16 0.707107
    outer loop
      vertex -36.8 -1.33227e-16 -36.8
      vertex -36.8 20 -36.8
      vertex -38 38 -38
    endloop
  endfacet
  facet normal -0.707107 -1.66533e-16 0.707107
    outer loop
      vertex -30.2 20 -30.2
      vertex -30 30 -30
      vertex -33.5 25.5 -33.5
    endloop
  endfacet
  facet normal -0.707107 -1.66533e-16 0.707107
    outer loop
      vertex -38 38 -38
      vertex -33.5 25.5 -33.5
      vertex -30 30 -30
    endloop
  endfacet
  facet normal -0.707107 -1.66533e-16 0.707107
    outer loop
      vertex -33.5 5.5 -33.5
      vertex -30.2 -8.65974e-16 -30.2
      vertex -30.2 20 -30.2
    endloop
  endfacet
  facet normal -0.707107 -1.66533e-16 0.707107
    outer loop
      vertex -33.5 -25.5 -33.5
      vertex -30 -30 -30
      vertex -30.2 -20 -30.2
    endloop
  endfacet
  facet normal -0.707107 -1.66533e-16 0.707107
    outer loop
      vertex -36.8 -1.33227e-16 -36.8
      vertex -33.5 -14.5 -33.5
      vertex -33.5 -5.5 -33.5
    endloop
  endfacet
  facet normal -0.707107 -1.66533e-16 0.707107
    outer loop
      vertex -30.2 -20 -30.2
      vertex -33.5 -5.5 -33.5
      vertex -33.5 -14.5 -33.5
    endloop
  endfacet
  facet normal -6.50354e-17 -0.707107 0.707107
    outer loop
      vertex -20 -36.8 -36.8
      vertex -38 -38 -38
      vertex 38 -38 -38
    endloop
  endfacet
  facet normal -6.50354e-17 -0.707107 0.707107
    outer loop
      vertex -1.42156e-14 -36.8 -36.8
      vertex -5.5 -33.5 -33.5
      vertex -14.5 -33.5 -33.5
    endloop
  endfacet
  facet normal -6.50354e-17 -0.707107 0.707107
    outer loop
      vertex -1.42156e-14 -36.8 -36.8
      vertex -20 -36.8 -36.8
      vertex 38 -38 -38
    endloop
  endfacet
  facet normal -6.50354e-17 -0.707107 0.707107
    outer loop
      vertex -25.5 -33.5 -33.5
      vertex -38 -38 -38
      vertex -20 -36.8 -36.8
    endloop
  endfacet
  facet normal -6.50354e-17 -0.707107 0.707107
    outer loop
      vertex 5.5 -33.5 -33.5
      vertex -1.42156e-14 -36.8 -36.8
      vertex 20 -36.8 -36.8
    endloop
  endfacet
  facet normal -6.50354e-17 -0.707107 0.707107
    outer loop
      vertex -30 -30 -30
      vertex -38 -38 -38
      vertex -25.5 -33.5 -33.5
    endloop
  endfacet
  facet normal -6.50354e-17 -0.707107 0.707107
    outer loop
      vertex 30 -30 -30
      vertex -30 -30 -30
      vertex -20 -30.2 -30.2
    endloop
  endfacet
  facet normal -6.50354e-17 -0.707107 0.707107
    outer loop
      vertex 20 -36.8 -36.8
      vertex -1.42156e-14 -36.8 -36.8
      vertex 38 -38 -38
    endloop
  endfacet
  facet normal -6.50354e-17 -0.707107 0.707107
    outer loop
      vertex -14.5 -33.5 -33.5
      vertex -20 -36.8 -36.8
      vertex -1.42156e-14 -36.8 -36.8
    endloop
  endfacet
  facet normal -6.50354e-17 -0.707107 0.707107
    outer loop
      vertex 30 -30 -30
      vertex -20 -30.2 -30.2
      vertex -1.31794e-14 -30.2 -30.2
    endloop
  endfacet
  facet normal -6.50354e-17 -0.707107 0.707107
    outer loop
      vertex 14.5 -33.5 -33.5
      vertex 20 -30.2 -30.2
      vertex -1.31794e-14 -30.2 -30.2
    endloop
  endfacet
  facet normal -6.50354e-17 -0.707107 0.707107
    outer loop
      vertex 20 -36.8 -36.8
      vertex 14.5 -33.5 -33.5
      vertex 5.5 -33.5 -33.5
    endloop
  endfacet
  facet normal -6.50354e-17 -0.707107 0.707107
    outer loop
      vertex -5.5 -33.5 -33.5
      vertex -1.31794e-14 -30.2 -30.2
      vertex -20 -30.2 -30.2
    endloop
  endfacet
  facet normal -6.50354e-17 -0.707107 0.707107
    outer loop
      vertex -1.31794e-14 -30.2 -30.2
      vertex 5.5 -33.5 -33.5
      vertex 14.5 -33.5 -33.5
    endloop
  endfacet
  facet normal -6.50354e-17 -0.707107 0.707107
    outer loop
      vertex 30 -30 -30
      vertex 20 -30.2 -30.2
      vertex 38 -38 -38
    endloop
  endfacet
  facet normal -6.50354e-17 -0.707107 0.707107
    outer loop
      vertex 30 -30 -30
      vertex -1.31794e-14 -30.2 -30.2
      vertex 20 -30.2 -30.2
    endloop
  endfacet
  facet normal -6.50354e-17 -0.707107 0.707107
    outer loop
      vertex 20 -30.2 -30.2
      vertex 25.5 -33.5 -33.5
      vertex 38 -38 -38
    endloop
  endfacet
  facet normal -6.50354e-17 -0.707107 0.707107
    outer loop
      vertex 25.5 -33.5 -33.5
      vertex 20 -36.8 -36.8
      vertex 38 -38 -38
    endloop
  endfacet
  facet normal -6.50354e-17 -0.707107 0.707107
    outer loop
      vertex -20 -30.2 -30.2
      vertex -14.5 -33.5 -33.5
      vertex -5.5 -33.5 -33.5
    endloop
  endfacet
  facet normal -6.50354e-17 -0.707107 0.707107
    outer loop
      vertex -25.5 -33.5 -33.5
      vertex -20 -30.2 -30.2
      vertex -30 -30 -30
    endloop
  endfacet
  facet normal 0.707107 -1.66533e-16 0.707107
    outer loop
      vertex 36.8 -20 -36.8
      vertex 38 -38 -38
      vertex 38 38 -38
    endloop
  endfacet
  facet normal 0.707107 -1.66533e-16 0.707107
    outer loop
      vertex 30 -30 -30
      vertex 38 -38 -38
      vertex 33.5 -25.5 -33.5
    endloop
  endfacet
  facet normal 0.707107 -1.66533e-16 0.707107
    outer loop
      vertex 30 30 -30
      vertex 30 -30 -30
      vertex 30.2 -20 -30.2
    endloop
  endfacet
  facet normal 0.707107 -1.66533e-16 0.707107
    outer loop
      vertex 33.5 14.5 -33.5
      vertex 30.2 20 -30.2
      vertex 30.2 -3.23681e-15 -30.2
    endloop
  endfacet
  facet normal 0.707107 -1.66533e-16 0.707107
    outer loop
      vertex 33.5 -14.5 -33.5
      vertex 36.8 -20 -36.8
      vertex 36.8 -3.0222e-15 -36.8
    endloop
  endfacet
  facet normal 0.707107 -1.66533e-16 0.707107
    outer loop
      vertex 36.8 -3.0222e-15 -36.8
      vertex 36.8 -20 -36.8
      vertex 38 38 -38
    endloop
  endfacet
  facet normal 0.707107 -1.66533e-16 0.707107
    outer loop
      vertex 33.5 -25.5 -33.5
      vertex 38 -38 -38
      vertex 36.8 -20 -36.8
    endloop
  endfacet
  facet normal 0.707107 -1.66533e-16 0.707107
    outer loop
      vertex 33.5 -5.5 -33.5
      vertex 30.2 -3.23681e-15 -30.2
      vertex 30.2 -20 -30.2
    endloop
  endfacet
  facet normal 0.707107 -1.66533e-16 0.707107
    outer loop
      vertex 33.5 25.5 -33.5
      vertex 36.8 20 -36.8
      vertex 38 38 -38
    endloop
  endfacet
  facet normal 0.707107 -1.66533e-16 0.707107
    outer loop
      vertex 30 30 -30
      vertex 30.2 -20 -30.2
      vertex 30.2 -3.23681e-15 -30.2
    endloop
  endfacet
  facet normal 0.707107 -1.66533e-16 0.707107
    outer loop
      vertex 36.8 20 -36.8
      vertex 36.8 -3.0222e-15 -36.8
      vertex 38 38 -38
    endloop
  endfacet
  facet normal 0.707107 -1.66533e-16 0.707107
    outer loop
      vertex 36.8 20 -36.8
      vertex 33.5 14.5 -33.5
      vertex 33.5 5.5 -33.5
    endloop
  endfacet
  facet normal 0.707107 -1.66533e-16 0.707107
    outer loop
      vertex 30.2 -3.23681e-15 -30.2
      vertex 33.5 5.5 -33.5
      vertex 33.5 14.5 -33.5
    endloop
  endfacet
  facet normal 0.707107 -1.66533e-16 0.707107
    outer loop
      vertex 30 30 -30
      vertex 30.2 20 -30.2
      vertex 38 38 -38
    endloop
  endfacet
  facet normal 0.707107 -1.66533e-16 0.707107
    outer loop
      vertex 30 30 -30
      vertex 30.2 -3.23681e-15 -30.2
      vertex 30.2 20 -30.2
    endloop
  endfacet
  facet normal 0.707107 -1.66533e-16 0.707107
    outer loop
      vertex 30.2 20 -30.2
      vertex 33.5 25.5 -33.5
      vertex 38 38 -38
    endloop
  endfacet
  facet normal 0.707107 -1.66533e-16 0.707107
    outer loop
      vertex 36.8 -3.0222e-15 -36.8
      vertex 33.5 -5.5 -33.5
      vertex 33.5 -14.5 -33.5
    endloop
  endfacet
  facet normal 0.707107 -1.66533e-16 0.707107
    outer loop
      vertex 33.5 5.5 -33.5
      vertex 36.8 -3.0222e-15 -36.8
      vertex 36.8 20 -36.8
    endloop
  endfacet
  facet normal 0.707107 -1.66533e-16 0.707107
    outer loop
      vertex 30.2 -20 -30.2
      vertex 33.5 -14.5 -33.5
      vertex 33.5 -5.5 -33.5
    endloop
  endfacet
  facet normal 0.707107 -1.66533e-16 0.707107
    outer loop
      vertex 33.5 -25.5 -33.5
      vertex 30.2 -20 -30.2
      vertex 30 -30 -30
    endloop
  endfacet
  facet normal 4.59869e-17 0.707107 0.707107
    outer loop
      vertex -3.69602e-15 30.2 -30.2
      vertex 20 30.2 -30.2
      vertex 5.5 33.5 -33.5
    endloop
  endfacet
  facet normal 4.59869e-17 0.707107 0.707107
    outer loop
      vertex 25.5 33.5 -33.5
      vertex 30 30 -30
      vertex 38 38 -38
    endloop
  endfacet
  facet normal 4.59869e-17 0.707107 0.707107
    outer loop
      vertex -30 30 -30
      vertex 30 30 -30
      vertex -20 30.2 -30.2
    endloop
  endfacet
  facet normal 4.59869e-17 0.707107 0.707107
    outer loop
      vertex -30 30 -30
      vertex -20 30.2 -30.2
      vertex -38 38 -38
    endloop
  endfacet
  facet normal 4.59869e-17 0.707107 0.707107
    outer loop
      vertex -14.5 33.5 -33.5
      vertex -5.5 33.5 -33.5
      vertex -20 36.8 -36.8
    endloop
  endfacet
  facet normal 4.59869e-17 0.707107 0.707107
    outer loop
      vertex -20 30.2 -30.2
      vertex -25.5 33.5 -33.5
      vertex -38 38 -38
    endloop
  endfacet
  facet normal 4.59869e-17 0.707107 0.707107
    outer loop
      vertex 20 36.8 -36.8
      vertex -2.65975e-15 36.8 -36.8
      vertex 14.5 33.5 -33.5
    endloop
  endfacet
  facet normal 4.59869e-17 0.707107 0.707107
    outer loop
      vertex -38 38 -38
      vertex -20 36.8 -36.8
      vertex 38 38 -38
    endloop
  endfacet
  facet normal 4.59869e-17 0.707107 0.707107
    outer loop
      vertex -5.5 33.5 -33.5
      vertex -14.5 33.5 -33.5
      vertex -3.69602e-15 30.2 -30.2
    endloop
  endfacet
  facet normal 4.59869e-17 0.707107 0.707107
    outer loop
      vertex -20 30.2 -30.2
      vertex 30 30 -30
      vertex -3.69602e-15 30.2 -30.2
    endloop
  endfacet
  facet normal 4.59869e-17 0.707107 0.707107
    outer loop
      vertex -20 36.8 -36.8
      vertex -38 38 -38
      vertex -25.5 33.5 -33.5
    endloop
  endfacet
  facet normal 4.59869e-17 0.707107 0.707107
    outer loop
      vertex -20 36.8 -36.8
      vertex -2.65975e-15 36.8 -36.8
      vertex 38 38 -38
    endloop
  endfacet
  facet normal 4.59869e-17 0.707107 0.707107
    outer loop
      vertex 20 30.2 -30.2
      vertex 30 30 -30
      vertex 25.5 33.5 -33.5
    endloop
  endfacet
  facet normal 4.59869e-17 0.707107 0.707107
    outer loop
      vertex -3.69602e-15 30.2 -30.2
      vertex 30 30 -30
      vertex 20 30.2 -30.2
    endloop
  endfacet
  facet normal 4.59869e-17 0.707107 0.707107
    outer loop
      vertex 14.5 33.5 -33.5
      vertex 5.5 33.5 -33.5
      vertex 20 30.2 -30.2
    endloop
  endfacet
  facet normal 4.59869e-17 0.707107 0.707107
    outer loop
      vertex 5.5 33.5 -33.5
      vertex 14.5 33.5 -33.5
      vertex -2.65975e-15 36.8 -36.8
    endloop
  endfacet
  facet normal 4.59869e-17 0.707107 0.707107
    outer loop
      vertex -2.65975e-15 36.8 -36.8
      vertex 20 36.8 -36.8
      vertex 38 38 -38
    endloop
  endfacet
  facet normal 4.59869e-17 0.707107 0.707107
    outer loop
      vertex 20 36.8 -36.8
      vertex 25.5 33.5 -33.5
      vertex 38 38 -38
    endloop
  endfacet
  facet normal 4.59869e-17 0.707107 0.707107
    outer loop
      vertex -2.65975e-15 36.8 -36.8
      vertex -20 36.8 -36.8
      vertex -5.5 33.5 -33.5
    endloop
  endfacet
  facet normal 4.59869e-17 0.707107 0.707107
    outer loop
      vertex -20 30.2 -30.2
      vertex -3.69602e-15 30.2 -30.2
      vertex -14.5 33.5 -33.5
    endloop
  endfacet
  facet normal 0.866025 -0.5 -5.55111e-17
    outer loop
      vertex -34 -30.5 -38
      vertex -34 -30.5 -37
      vertex -35.299 -32.75 -37
    endloop
  endfacet
  facet normal 0.866025 -0.5 -5.55111e-17
    outer loop
      vertex -35.299 -32.75 -38
      vertex -34 -30.5 -38
      vertex -35.299 -32.75 -37
    endloop
  endfacet
  facet normal -1.49539e-33 1 1.11022e-16
    outer loop
      vertex -32.701 -32.75 -37
      vertex -32.701 -32.75 -38
      vertex -35.299 -32.75 -37
    endloop
  endfacet
  facet normal -1.49539e-33 1 1.11022e-16
    outer loop
      vertex -35.299 -32.75 -37
      vertex -32.701 -32.75 -38
      vertex -35.299 -32.75 -38
    endloop
  endfacet
  facet normal -0.866025 -0.5 -5.55111e-17
    outer loop
      vertex -34 -30.5 -37
      vertex -34 -30.5 -38
      vertex -32.701 -32.75 -37
    endloop
  endfacet
  facet normal -0.866025 -0.5 -5.55111e-17
    outer loop
      vertex -32.701 -32.75 -37
      vertex -34 -30.5 -38
      vertex -32.701 -32.75 -38
    endloop
  endfacet
  facet normal -1.49539e-33 1 1.11022e-16
    outer loop
      vertex -32.701 -26.75 -37
      vertex -32.701 -26.75 -38
      vertex -35.299 -26.75 -37
    endloop
  endfacet
  facet normal -1.49539e-33 1 1.11022e-16
    outer loop
      vertex -35.299 -26.75 -37
      vertex -32.701 -26.75 -38
      vertex -35.299 -26.75 -38
    endloop
  endfacet
  facet normal 0.866025 -0.5 -5.55111e-17
    outer loop
      vertex -34 -24.5 -38
      vertex -34 -24.5 -37
      vertex -35.299 -26.75 -37
    endloop
  endfacet
  facet normal 0.866025 -0.5 -5.55111e-17
    outer loop
      vertex -35.299 -26.75 -38
      vertex -34 -24.5 -38
      vertex -35.299 -26.75 -37
    endloop
  endfacet
  facet normal -0.866025 -0.5 -5.55111e-17
    outer loop
      vertex -34 -24.5 -37
      vertex -34 -24.5 -38
      vertex -32.701 -26.75 -37
    endloop
  endfacet
  facet normal -0.866025 -0.5 -5.55111e-17
    outer loop
      vertex -32.701 -26.75 -37
      vertex -34 -24.5 -38
      vertex -32.701 -26.75 -38
    endloop
  endfacet
  facet normal 0.415098 3.25681e-16 -0.909777
    outer loop
      vertex -28.3349 28.3349 -38
      vertex -2.9 2.9 -26.395
      vertex -2.9 -2.9 -26.395
    endloop
  endfacet
  facet normal 0.415098 3.25681e-16 -0.909777
    outer loop
      vertex -28.3349 28.3349 -38
      vertex -2.9 -2.9 -26.395
      vertex -28.3349 -28.3349 -38
    endloop
  endfacet
  facet normal 4.48411e-17 0.415098 -0.909777
    outer loop
      vertex -2.9 -2.9 -26.395
      vertex 2.9 -2.9 -26.395
      vertex 28.3349 -28.3349 -38
    endloop
  endfacet
  facet normal 4.48411e-17 0.415098 -0.909777
    outer loop
      vertex -2.9 -2.9 -26.395
      vertex 28.3349 -28.3349 -38
      vertex -28.3349 -28.3349 -38
    endloop
  endfacet
  facet normal -2.03331e-17 -0.415098 -0.909777
    outer loop
      vertex 28.3349 28.3349 -38
      vertex 2.9 2.9 -26.395
      vertex -28.3349 28.3349 -38
    endloop
  endfacet
  facet normal -2.03331e-17 -0.415098 -0.909777
    outer loop
      vertex -2.9 2.9 -26.395
      vertex -28.3349 28.3349 -38
      vertex 2.9 2.9 -26.395
    endloop
  endfacet
  facet normal -0.415098 3.25681e-16 -0.909777
    outer loop
      vertex 2.9 2.9 -26.395
      vertex 28.3349 28.3349 -38
      vertex 2.9 -2.9 -26.395
    endloop
  endfacet
  facet normal -0.415098 3.25681e-16 -0.909777
    outer loop
      vertex 2.9 -2.9 -26.395
      vertex 28.3349 28.3349 -38
      vertex 28.3349 -28.3349 -38
    endloop
  endfacet
  facet normal 0.866025 -0.5 -5.55111e-17
    outer loop
      vertex -34 -18.5 -38
      vertex -34 -18.5 -37
      vertex -35.299 -20.75 -37
    endloop
  endfacet
  facet normal 0.866025 -0.5 -5.55111e-17
    outer loop
      vertex -35.299 -20.75 -38
      vertex -34 -18.5 -38
      vertex -35.299 -20.75 -37
    endloop
  endfacet
  facet normal -1.49539e-33 1 1.11022e-16
    outer loop
      vertex -32.701 -20.75 -37
      vertex -32.701 -20.75 -38
      vertex -35.299 -20.75 -37
    endloop
  endfacet
  facet normal -1.49539e-33 1 1.11022e-16
    outer loop
      vertex -35.299 -20.75 -37
      vertex -32.701 -20.75 -38
      vertex -35.299 -20.75 -38
    endloop
  endfacet
  facet normal -0.866025 -0.5 -5.55111e-17
    outer loop
      vertex -34 -18.5 -37
      vertex -34 -18.5 -38
      vertex -32.701 -20.75 -37
    endloop
  endfacet
  facet normal -0.866025 -0.5 -5.55111e-17
    outer loop
      vertex -32.701 -20.75 -37
      vertex -34 -18.5 -38
      vertex -32.701 -20.75 -38
    endloop
  endfacet
  facet normal 0.866025 -0.5 -5.55111e-17
    outer loop
      vertex -34 -12.5 -38
      vertex -34 -12.5 -37
      vertex -35.299 -14.75 -37
    endloop
  endfacet
  facet normal 0.866025 -0.5 -5.55111e-17
    outer loop
      vertex -35.299 -14.75 -38
      vertex -34 -12.5 -38
      vertex -35.299 -14.75 -37
    endloop
  endfacet
  facet normal -1.49539e-33 1 1.11022e-16
    outer loop
      vertex -32.701 -14.75 -37
      vertex -32.701 -14.75 -38
      vertex -35.299 -14.75 -37
    endloop
  endfacet
  facet normal -1.49539e-33 1 1.11022e-16
    outer loop
      vertex -35.299 -14.75 -37
      vertex -32.701 -14.75 -38
      vertex -35.299 -14.75 -38
    endloop
  endfacet
  facet normal -0.866025 -0.5 -5.55111e-17
    outer loop
      vertex -34 -12.5 -37
      vertex -34 -12.5 -38
      vertex -32.701 -14.75 -37
    endloop
  endfacet
  facet normal -0.866025 -0.5 -5.55111e-17
    outer loop
      vertex -32.701 -14.75 -37
      vertex -34 -12.5 -38
      vertex -32.701 -14.75 -38
    endloop
  endfacet
  facet normal -1.34693e-17 -2.35514e-16 1
    outer loop
      vertex 13.7577 -13.7577 -30
      vertex -30 -30 -30
      vertex 30 -30 -30
    endloop
  endfacet
  facet normal -1.34693e-17 -2.35514e-16 1
    outer loop
      vertex -13.7577 13.7577 -30
      vertex 13.7577 13.7577 -30
      vertex -30 30 -30
    endloop
  endfacet
  facet normal -1.34693e-17 -2.35514e-16 1
    outer loop
      vertex -13.7577 -13.7577 -30
      vertex -30 -30 -30
      vertex 13.7577 -13.7577 -30
    endloop
  endfacet
  facet normal -1.34693e-17 -2.35514e-16 1
    outer loop
      vertex -30 30 -30
      vertex -30 -30 -30
      vertex -13.7577 -13.7577 -30
    endloop
  endfacet
  facet normal -1.34693e-17 -2.35514e-16 1
    outer loop
      vertex -30 30 -30
      vertex -13.7577 -13.7577 -30
      vertex -13.7577 13.7577 -30
    endloop
  endfacet
  facet normal -1.34693e-17 -2.35514e-16 1
    outer loop
      vertex 30 30 -30
      vertex 13.7577 13.7577 -30
      vertex 30 -30 -30
    endloop
  endfacet
  facet normal -1.34693e-17 -2.35514e-16 1
    outer loop
      vertex 30 30 -30
      vertex -30 30 -30
      vertex 13.7577 13.7577 -30
    endloop
  endfacet
  facet normal -1.34693e-17 -2.35514e-16 1
    outer loop
      vertex 13.7577 13.7577 -30
      vertex 13.7577 -13.7577 -30
      vertex 30 -30 -30
    endloop
  endfacet
  facet normal -2.01951e-16 0.514496 0.857493
    outer loop
      vertex -28.15 -25.5 -33.5
      vertex -28.15 -20 -36.8
      vertex -36.8 -20 -36.8
    endloop
  endfacet
  facet normal -2.01951e-16 0.514496 0.857493
    outer loop
      vertex -33.5 -25.5 -33.5
      vertex -28.15 -25.5 -33.5
      vertex -36.8 -20 -36.8
    endloop
  endfacet
  facet normal 2.01951e-16 0.514496 -0.857493
    outer loop
      vertex -28.15 -20 -30.2
      vertex -28.15 -25.5 -33.5
      vertex -30.2 -20 -30.2
    endloop
  endfacet
  facet normal 2.01951e-16 0.514496 -0.857493
    outer loop
      vertex -30.2 -20 -30.2
      vertex -28.15 -25.5 -33.5
      vertex -33.5 -25.5 -33.5
    endloop
  endfacet
  facet normal 2.01951e-16 -0.514496 -0.857493
    outer loop
      vertex -28.15 -14.5 -33.5
      vertex -28.15 -20 -30.2
      vertex -33.5 -14.5 -33.5
    endloop
  endfacet
  facet normal 2.01951e-16 -0.514496 -0.857493
    outer loop
      vertex -33.5 -14.5 -33.5
      vertex -28.15 -20 -30.2
      vertex -30.2 -20 -30.2
    endloop
  endfacet
  facet normal -2.01951e-16 -0.514496 0.857493
    outer loop
      vertex -28.15 -20 -36.8
      vertex -28.15 -14.5 -33.5
      vertex -33.5 -14.5 -33.5
    endloop
  endfacet
  facet normal -2.01951e-16 -0.514496 0.857493
    outer loop
      vertex -36.8 -20 -36.8
      vertex -28.15 -20 -36.8
      vertex -33.5 -14.5 -33.5
    endloop
  endfacet
  facet normal -2.01951e-16 0.514496 0.857493
    outer loop
      vertex -28.15 -5.5 -33.5
      vertex -28.15 -1.33227e-16 -36.8
      vertex -36.8 -1.33227e-16 -36.8
    endloop
  endfacet
  facet normal -2.01951e-16 0.514496 0.857493
    outer loop
      vertex -33.5 -5.5 -33.5
      vertex -28.15 -5.5 -33.5
      vertex -36.8 -1.33227e-16 -36.8
    endloop
  endfacet
  facet normal 2.01951e-16 0.514496 -0.857493
    outer loop
      vertex -28.15 -8.65974e-16 -30.2
      vertex -28.15 -5.5 -33.5
      vertex -30.2 -8.65974e-16 -30.2
    endloop
  endfacet
  facet normal 2.01951e-16 0.514496 -0.857493
    outer loop
      vertex -30.2 -8.65974e-16 -30.2
      vertex -28.15 -5.5 -33.5
      vertex -33.5 -5.5 -33.5
    endloop
  endfacet
  facet normal 2.01951e-16 -0.514496 -0.857493
    outer loop
      vertex -28.15 5.5 -33.5
      vertex -28.15 -8.65974e-16 -30.2
      vertex -33.5 5.5 -33.5
    endloop
  endfacet
  facet normal 2.01951e-16 -0.514496 -0.857493
    outer loop
      vertex -33.5 5.5 -33.5
      vertex -28.15 -8.65974e-16 -30.2
      vertex -30.2 -8.65974e-16 -30.2
    endloop
  endfacet
  facet normal -2.01951e-16 -0.514496 0.857493
    outer loop
      vertex -28.15 -1.33227e-16 -36.8
      vertex -28.15 5.5 -33.5
      vertex -33.5 5.5 -33.5
    endloop
  endfacet
  facet normal -2.01951e-16 -0.514496 0.857493
    outer loop
      vertex -36.8 -1.33227e-16 -36.8
      vertex -28.15 -1.33227e-16 -36.8
      vertex -33.5 5.5 -33.5
    endloop
  endfacet
  facet normal -2.01951e-16 0.514496 0.857493
    outer loop
      vertex -28.15 14.5 -33.5
      vertex -28.15 20 -36.8
      vertex -36.8 20 -36.8
    endloop
  endfacet
  facet normal -2.01951e-16 0.514496 0.857493
    outer loop
      vertex -33.5 14.5 -33.5
      vertex -28.15 14.5 -33.5
      vertex -36.8 20 -36.8
    endloop
  endfacet
  facet normal 2.01951e-16 0.514496 -0.857493
    outer loop
      vertex -28.15 20 -30.2
      vertex -28.15 14.5 -33.5
      vertex -30.2 20 -30.2
    endloop
  endfacet
  facet normal 2.01951e-16 0.514496 -0.857493
    outer loop
      vertex -30.2 20 -30.2
      vertex -28.15 14.5 -33.5
      vertex -33.5 14.5 -33.5
    endloop
  endfacet
  facet normal 2.01951e-16 -0.514496 -0.857493
    outer loop
      vertex -28.15 25.5 -33.5
      vertex -28.15 20 -30.2
      vertex -33.5 25.5 -33.5
    endloop
  endfacet
  facet normal 2.01951e-16 -0.514496 -0.857493
    outer loop
      vertex -33.5 25.5 -33.5
      vertex -28.15 20 -30.2
      vertex -30.2 20 -30.2
    endloop
  endfacet
  facet normal -2.01951e-16 -0.514496 0.857493
    outer loop
      vertex -28.15 20 -36.8
      vertex -28.15 25.5 -33.5
      vertex -33.5 25.5 -33.5
    endloop
  endfacet
  facet normal -2.01951e-16 -0.514496 0.857493
    outer loop
      vertex -36.8 20 -36.8
      vertex -28.15 20 -36.8
      vertex -33.5 25.5 -33.5
    endloop
  endfacet
  facet normal -0.514496 -3.11573e-16 0.857493
    outer loop
      vertex -14.5 -33.5 -33.5
      vertex -14.5 -28.15 -33.5
      vertex -20 -28.15 -36.8
    endloop
  endfacet
  facet normal -0.514496 -3.11573e-16 0.857493
    outer loop
      vertex -20 -36.8 -36.8
      vertex -14.5 -33.5 -33.5
      vertex -20 -28.15 -36.8
    endloop
  endfacet
  facet normal 0.514496 -4.73134e-16 0.857493
    outer loop
      vertex -20 -36.8 -36.8
      vertex -20 -28.15 -36.8
      vertex -25.5 -28.15 -33.5
    endloop
  endfacet
  facet normal 0.514496 -4.73134e-16 0.857493
    outer loop
      vertex -25.5 -33.5 -33.5
      vertex -20 -36.8 -36.8
      vertex -25.5 -28.15 -33.5
    endloop
  endfacet
  facet normal -0.514496 4.73134e-16 -0.857493
    outer loop
      vertex -14.5 -28.15 -33.5
      vertex -14.5 -33.5 -33.5
      vertex -20 -28.15 -30.2
    endloop
  endfacet
  facet normal -0.514496 4.73134e-16 -0.857493
    outer loop
      vertex -20 -28.15 -30.2
      vertex -14.5 -33.5 -33.5
      vertex -20 -30.2 -30.2
    endloop
  endfacet
  facet normal 0.514496 3.11573e-16 -0.857493
    outer loop
      vertex -20 -28.15 -30.2
      vertex -20 -30.2 -30.2
      vertex -25.5 -28.15 -33.5
    endloop
  endfacet
  facet normal 0.514496 3.11573e-16 -0.857493
    outer loop
      vertex -25.5 -28.15 -33.5
      vertex -20 -30.2 -30.2
      vertex -25.5 -33.5 -33.5
    endloop
  endfacet
  facet normal -0.514496 -3.11573e-16 0.857493
    outer loop
      vertex 5.5 -33.5 -33.5
      vertex 5.5 -28.15 -33.5
      vertex -1.28575e-14 -28.15 -36.8
    endloop
  endfacet
  facet normal -0.514496 -3.11573e-16 0.857493
    outer loop
      vertex -1.42156e-14 -36.8 -36.8
      vertex 5.5 -33.5 -33.5
      vertex -1.28575e-14 -28.15 -36.8
    endloop
  endfacet
  facet normal 0.514496 -4.73134e-16 0.857493
    outer loop
      vertex -1.42156e-14 -36.8 -36.8
      vertex -1.28575e-14 -28.15 -36.8
      vertex -5.5 -28.15 -33.5
    endloop
  endfacet
  facet normal 0.514496 -4.73134e-16 0.857493
    outer loop
      vertex -5.5 -33.5 -33.5
      vertex -1.42156e-14 -36.8 -36.8
      vertex -5.5 -28.15 -33.5
    endloop
  endfacet
  facet normal -0.514496 4.73134e-16 -0.857493
    outer loop
      vertex 5.5 -28.15 -33.5
      vertex 5.5 -33.5 -33.5
      vertex -1.28575e-14 -28.15 -30.2
    endloop
  endfacet
  facet normal -0.514496 4.73134e-16 -0.857493
    outer loop
      vertex -1.28575e-14 -28.15 -30.2
      vertex 5.5 -33.5 -33.5
      vertex -1.31794e-14 -30.2 -30.2
    endloop
  endfacet
  facet normal 0.514496 3.11573e-16 -0.857493
    outer loop
      vertex -1.28575e-14 -28.15 -30.2
      vertex -1.31794e-14 -30.2 -30.2
      vertex -5.5 -28.15 -33.5
    endloop
  endfacet
  facet normal 0.514496 3.11573e-16 -0.857493
    outer loop
      vertex -5.5 -28.15 -33.5
      vertex -1.31794e-14 -30.2 -30.2
      vertex -5.5 -33.5 -33.5
    endloop
  endfacet
  facet normal -0.514496 -3.11573e-16 0.857493
    outer loop
      vertex 25.5 -33.5 -33.5
      vertex 25.5 -28.15 -33.5
      vertex 20 -28.15 -36.8
    endloop
  endfacet
  facet normal -0.514496 -3.11573e-16 0.857493
    outer loop
      vertex 20 -36.8 -36.8
      vertex 25.5 -33.5 -33.5
      vertex 20 -28.15 -36.8
    endloop
  endfacet
  facet normal 0.514496 -4.73134e-16 0.857493
    outer loop
      vertex 20 -36.8 -36.8
      vertex 20 -28.15 -36.8
      vertex 14.5 -28.15 -33.5
    endloop
  endfacet
  facet normal 0.514496 -4.73134e-16 0.857493
    outer loop
      vertex 14.5 -33.5 -33.5
      vertex 20 -36.8 -36.8
      vertex 14.5 -28.15 -33.5
    endloop
  endfacet
  facet normal -0.514496 4.73134e-16 -0.857493
    outer loop
      vertex 25.5 -28.15 -33.5
      vertex 25.5 -33.5 -33.5
      vertex 20 -28.15 -30.2
    endloop
  endfacet
  facet normal -0.514496 4.73134e-16 -0.857493
    outer loop
      vertex 20 -28.15 -30.2
      vertex 25.5 -33.5 -33.5
      vertex 20 -30.2 -30.2
    endloop
  endfacet
  facet normal 0.514496 3.11573e-16 -0.857493
    outer loop
      vertex 20 -28.15 -30.2
      vertex 20 -30.2 -30.2
      vertex 14.5 -28.15 -33.5
    endloop
  endfacet
  facet normal 0.514496 3.11573e-16 -0.857493
    outer loop
      vertex 14.5 -28.15 -33.5
      vertex 20 -30.2 -30.2
      vertex 14.5 -33.5 -33.5
    endloop
  endfacet
  facet normal 2.19242e-16 0.514496 0.857493
    outer loop
      vertex 33.5 -25.5 -33.5
      vertex 36.8 -20 -36.8
      vertex 28.15 -20 -36.8
    endloop
  endfacet
  facet normal 2.19242e-16 0.514496 0.857493
    outer loop
      vertex 28.15 -25.5 -33.5
      vertex 33.5 -25.5 -33.5
      vertex 28.15 -20 -36.8
    endloop
  endfacet
  facet normal -1.38462e-16 0.514496 -0.857493
    outer loop
      vertex 30.2 -20 -30.2
      vertex 33.5 -25.5 -33.5
      vertex 28.15 -20 -30.2
    endloop
  endfacet
  facet normal -1.38462e-16 0.514496 -0.857493
    outer loop
      vertex 28.15 -20 -30.2
      vertex 33.5 -25.5 -33.5
      vertex 28.15 -25.5 -33.5
    endloop
  endfacet
  facet normal 1.38462e-16 -0.514496 0.857493
    outer loop
      vertex 36.8 -20 -36.8
      vertex 33.5 -14.5 -33.5
      vertex 28.15 -14.5 -33.5
    endloop
  endfacet
  facet normal 1.38462e-16 -0.514496 0.857493
    outer loop
      vertex 28.15 -20 -36.8
      vertex 36.8 -20 -36.8
      vertex 28.15 -14.5 -33.5
    endloop
  endfacet
  facet normal -2.19242e-16 -0.514496 -0.857493
    outer loop
      vertex 33.5 -14.5 -33.5
      vertex 30.2 -20 -30.2
      vertex 28.15 -14.5 -33.5
    endloop
  endfacet
  facet normal -2.19242e-16 -0.514496 -0.857493
    outer loop
      vertex 28.15 -14.5 -33.5
      vertex 30.2 -20 -30.2
      vertex 28.15 -20 -30.2
    endloop
  endfacet
  facet normal 2.19242e-16 0.514496 0.857493
    outer loop
      vertex 33.5 -5.5 -33.5
      vertex 36.8 -3.0222e-15 -36.8
      vertex 28.15 -2.34313e-15 -36.8
    endloop
  endfacet
  facet normal 2.19242e-16 0.514496 0.857493
    outer loop
      vertex 28.15 -5.5 -33.5
      vertex 33.5 -5.5 -33.5
      vertex 28.15 -2.34313e-15 -36.8
    endloop
  endfacet
  facet normal -1.38462e-16 0.514496 -0.857493
    outer loop
      vertex 30.2 -3.23681e-15 -30.2
      vertex 33.5 -5.5 -33.5
      vertex 28.15 -3.07588e-15 -30.2
    endloop
  endfacet
  facet normal -1.38462e-16 0.514496 -0.857493
    outer loop
      vertex 28.15 -3.07588e-15 -30.2
      vertex 33.5 -5.5 -33.5
      vertex 28.15 -5.5 -33.5
    endloop
  endfacet
  facet normal 1.38462e-16 -0.514496 0.857493
    outer loop
      vertex 36.8 -3.0222e-15 -36.8
      vertex 33.5 5.5 -33.5
      vertex 28.15 5.5 -33.5
    endloop
  endfacet
  facet normal 1.38462e-16 -0.514496 0.857493
    outer loop
      vertex 28.15 -2.34313e-15 -36.8
      vertex 36.8 -3.0222e-15 -36.8
      vertex 28.15 5.5 -33.5
    endloop
  endfacet
  facet normal -2.19242e-16 -0.514496 -0.857493
    outer loop
      vertex 33.5 5.5 -33.5
      vertex 30.2 -3.23681e-15 -30.2
      vertex 28.15 5.5 -33.5
    endloop
  endfacet
  facet normal -2.19242e-16 -0.514496 -0.857493
    outer loop
      vertex 28.15 5.5 -33.5
      vertex 30.2 -3.23681e-15 -30.2
      vertex 28.15 -3.07588e-15 -30.2
    endloop
  endfacet
  facet normal 2.19242e-16 0.514496 0.857493
    outer loop
      vertex 33.5 14.5 -33.5
      vertex 36.8 20 -36.8
      vertex 28.15 20 -36.8
    endloop
  endfacet
  facet normal 2.19242e-16 0.514496 0.857493
    outer loop
      vertex 28.15 14.5 -33.5
      vertex 33.5 14.5 -33.5
      vertex 28.15 20 -36.8
    endloop
  endfacet
  facet normal -1.38462e-16 0.514496 -0.857493
    outer loop
      vertex 30.2 20 -30.2
      vertex 33.5 14.5 -33.5
      vertex 28.15 20 -30.2
    endloop
  endfacet
  facet normal -1.38462e-16 0.514496 -0.857493
    outer loop
      vertex 28.15 20 -30.2
      vertex 33.5 14.5 -33.5
      vertex 28.15 14.5 -33.5
    endloop
  endfacet
  facet normal 1.38462e-16 -0.514496 0.857493
    outer loop
      vertex 36.8 20 -36.8
      vertex 33.5 25.5 -33.5
      vertex 28.15 25.5 -33.5
    endloop
  endfacet
  facet normal 1.38462e-16 -0.514496 0.857493
    outer loop
      vertex 28.15 20 -36.8
      vertex 36.8 20 -36.8
      vertex 28.15 25.5 -33.5
    endloop
  endfacet
  facet normal -2.19242e-16 -0.514496 -0.857493
    outer loop
      vertex 33.5 25.5 -33.5
      vertex 30.2 20 -30.2
      vertex 28.15 25.5 -33.5
    endloop
  endfacet
  facet normal -2.19242e-16 -0.514496 -0.857493
    outer loop
      vertex 28.15 25.5 -33.5
      vertex 30.2 20 -30.2
      vertex 28.15 20 -30.2
    endloop
  endfacet
  facet normal -0.514496 9.23304e-17 -0.857493
    outer loop
      vertex -14.5 33.5 -33.5
      vertex -14.5 28.15 -33.5
      vertex -20 30.2 -30.2
    endloop
  endfacet
  facet normal -0.514496 9.23304e-17 -0.857493
    outer loop
      vertex -20 30.2 -30.2
      vertex -14.5 28.15 -33.5
      vertex -20 28.15 -30.2
    endloop
  endfacet
  facet normal 0.514496 -6.92308e-17 -0.857493
    outer loop
      vertex -20 30.2 -30.2
      vertex -20 28.15 -30.2
      vertex -25.5 33.5 -33.5
    endloop
  endfacet
  facet normal 0.514496 -6.92308e-17 -0.857493
    outer loop
      vertex -25.5 33.5 -33.5
      vertex -20 28.15 -30.2
      vertex -25.5 28.15 -33.5
    endloop
  endfacet
  facet normal -0.514496 6.92308e-17 0.857493
    outer loop
      vertex -14.5 28.15 -33.5
      vertex -14.5 33.5 -33.5
      vertex -20 36.8 -36.8
    endloop
  endfacet
  facet normal -0.514496 6.92308e-17 0.857493
    outer loop
      vertex -20 28.15 -36.8
      vertex -14.5 28.15 -33.5
      vertex -20 36.8 -36.8
    endloop
  endfacet
  facet normal 0.514496 -9.23304e-17 0.857493
    outer loop
      vertex -20 28.15 -36.8
      vertex -20 36.8 -36.8
      vertex -25.5 33.5 -33.5
    endloop
  endfacet
  facet normal 0.514496 -9.23304e-17 0.857493
    outer loop
      vertex -25.5 28.15 -33.5
      vertex -20 28.15 -36.8
      vertex -25.5 33.5 -33.5
    endloop
  endfacet
  facet normal -0.514496 9.23304e-17 -0.857493
    outer loop
      vertex 5.5 33.5 -33.5
      vertex 5.5 28.15 -33.5
      vertex -3.69602e-15 30.2 -30.2
    endloop
  endfacet
  facet normal -0.514496 9.23304e-17 -0.857493
    outer loop
      vertex -3.69602e-15 30.2 -30.2
      vertex 5.5 28.15 -33.5
      vertex -4.01788e-15 28.15 -30.2
    endloop
  endfacet
  facet normal 0.514496 -6.92308e-17 -0.857493
    outer loop
      vertex -3.69602e-15 30.2 -30.2
      vertex -4.01788e-15 28.15 -30.2
      vertex -5.5 33.5 -33.5
    endloop
  endfacet
  facet normal 0.514496 -6.92308e-17 -0.857493
    outer loop
      vertex -5.5 33.5 -33.5
      vertex -4.01788e-15 28.15 -30.2
      vertex -5.5 28.15 -33.5
    endloop
  endfacet
  facet normal -0.514496 6.92308e-17 0.857493
    outer loop
      vertex 5.5 28.15 -33.5
      vertex 5.5 33.5 -33.5
      vertex -2.65975e-15 36.8 -36.8
    endloop
  endfacet
  facet normal -0.514496 6.92308e-17 0.857493
    outer loop
      vertex -4.01788e-15 28.15 -36.8
      vertex 5.5 28.15 -33.5
      vertex -2.65975e-15 36.8 -36.8
    endloop
  endfacet
  facet normal 0.514496 -9.23304e-17 0.857493
    outer loop
      vertex -4.01788e-15 28.15 -36.8
      vertex -2.65975e-15 36.8 -36.8
      vertex -5.5 33.5 -33.5
    endloop
  endfacet
  facet normal 0.514496 -9.23304e-17 0.857493
    outer loop
      vertex -5.5 28.15 -33.5
      vertex -4.01788e-15 28.15 -36.8
      vertex -5.5 33.5 -33.5
    endloop
  endfacet
  facet normal -0.514496 9.23304e-17 -0.857493
    outer loop
      vertex 25.5 33.5 -33.5
      vertex 25.5 28.15 -33.5
      vertex 20 30.2 -30.2
    endloop
  endfacet
  facet normal -0.514496 9.23304e-17 -0.857493
    outer loop
      vertex 20 30.2 -30.2
      vertex 25.5 28.15 -33.5
      vertex 20 28.15 -30.2
    endloop
  endfacet
  facet normal 0.514496 -6.92308e-17 -0.857493
    outer loop
      vertex 20 30.2 -30.2
      vertex 20 28.15 -30.2
      vertex 14.5 33.5 -33.5
    endloop
  endfacet
  facet normal 0.514496 -6.92308e-17 -0.857493
    outer loop
      vertex 14.5 33.5 -33.5
      vertex 20 28.15 -30.2
      vertex 14.5 28.15 -33.5
    endloop
  endfacet
  facet normal -0.514496 6.92308e-17 0.857493
    outer loop
      vertex 25.5 28.15 -33.5
      vertex 25.5 33.5 -33.5
      vertex 20 36.8 -36.8
    endloop
  endfacet
  facet normal -0.514496 6.92308e-17 0.857493
    outer loop
      vertex 20 28.15 -36.8
      vertex 25.5 28.15 -33.5
      vertex 20 36.8 -36.8
    endloop
  endfacet
  facet normal 0.514496 -9.23304e-17 0.857493
    outer loop
      vertex 20 28.15 -36.8
      vertex 20 36.8 -36.8
      vertex 14.5 33.5 -33.5
    endloop
  endfacet
  facet normal 0.514496 -9.23304e-17 0.857493
    outer loop
      vertex 14.5 28.15 -33.5
      vertex 20 28.15 -36.8
      vertex 14.5 33.5 -33.5
    endloop
  endfacet
  facet normal 1.34693e-17 2.35514e-16 -1
    outer loop
      vertex -34 -30.5 -37
      vertex -32.701 -32.75 -37
      vertex -35.299 -32.75 -37
    endloop
  endfacet
  facet normal 1.34693e-17 2.35514e-16 -1
    outer loop
      vertex -34 -24.5 -37
      vertex -32.701 -26.75 -37
      vertex -35.299 -26.75 -37
    endloop
  endfacet
  facet normal 1 7.85046e-17 9.61404e-33
    outer loop
      vertex -2.9 2.9 -25.6
      vertex -2.9 -2.9 -26.395
      vertex -2.9 2.9 -26.395
    endloop
  endfacet
  facet normal 1 7.85046e-17 9.61404e-33
    outer loop
      vertex -2.9 -2.9 -25.6
      vertex -2.9 -2.9 -26.395
      vertex -2.9 2.9 -25.6
    endloop
  endfacet
  facet normal 3.1449e-33 -1 -2.33487e-16
    outer loop
      vertex 2.9 2.9 -25.6
      vertex -2.9 2.9 -26.395
      vertex 2.9 2.9 -26.395
    endloop
  endfacet
  facet normal 3.1449e-33 -1 -2.33487e-16
    outer loop
      vertex -2.9 2.9 -25.6
      vertex -2.9 2.9 -26.395
      vertex 2.9 2.9 -25.6
    endloop
  endfacet
  facet normal -3.1449e-33 1 2.33487e-16
    outer loop
      vertex 2.9 -2.9 -25.6
      vertex 2.9 -2.9 -26.395
      vertex -2.9 -2.9 -26.395
    endloop
  endfacet
  facet normal -3.1449e-33 1 2.33487e-16
    outer loop
      vertex 2.9 -2.9 -25.6
      vertex -2.9 -2.9 -26.395
      vertex -2.9 -2.9 -25.6
    endloop
  endfacet
  facet normal -1 -7.85046e-17 -9.61404e-33
    outer loop
      vertex 2.9 2.9 -25.6
      vertex 2.9 2.9 -26.395
      vertex 2.9 -2.9 -26.395
    endloop
  endfacet
  facet normal -1 -7.85046e-17 -9.61404e-33
    outer loop
      vertex 2.9 2.9 -25.6
      vertex 2.9 -2.9 -26.395
      vertex 2.9 -2.9 -25.6
    endloop
  endfacet
  facet normal 1.34693e-17 2.35514e-16 -1
    outer loop
      vertex -34 -18.5 -37
      vertex -32.701 -20.75 -37
      vertex -35.299 -20.75 -37
    endloop
  endfacet
  facet normal 1.34693e-17 2.35514e-16 -1
    outer loop
      vertex -34 -12.5 -37
      vertex -32.701 -14.75 -37
      vertex -35.299 -14.75 -37
    endloop
  endfacet
  facet normal -4.34099e-17 -0.395366 0.918524
    outer loop
      vertex -6.5 -6.5 -26.876
      vertex -13.7577 -13.7577 -30
      vertex 13.7577 -13.7577 -30
    endloop
  endfacet
  facet normal -4.34099e-17 -0.395366 0.918524
    outer loop
      vertex 6.5 -6.5 -26.876
      vertex -6.5 -6.5 -26.876
      vertex 13.7577 -13.7577 -30
    endloop
  endfacet
  facet normal 0.395366 -3.28812e-16 0.918524
    outer loop
      vertex 13.7577 13.7577 -30
      vertex 6.5 -6.5 -26.876
      vertex 13.7577 -13.7577 -30
    endloop
  endfacet
  facet normal 0.395366 -3.28812e-16 0.918524
    outer loop
      vertex 6.5 6.5 -26.876
      vertex 6.5 -6.5 -26.876
      vertex 13.7577 13.7577 -30
    endloop
  endfacet
  facet normal 1.86662e-17 0.395366 0.918524
    outer loop
      vertex -13.7577 13.7577 -30
      vertex -6.5 6.5 -26.876
      vertex 6.5 6.5 -26.876
    endloop
  endfacet
  facet normal 1.86662e-17 0.395366 0.918524
    outer loop
      vertex 13.7577 13.7577 -30
      vertex -13.7577 13.7577 -30
      vertex 6.5 6.5 -26.876
    endloop
  endfacet
  facet normal -0.395366 -3.28812e-16 0.918524
    outer loop
      vertex -13.7577 13.7577 -30
      vertex -13.7577 -13.7577 -30
      vertex -6.5 -6.5 -26.876
    endloop
  endfacet
  facet normal -0.395366 -3.28812e-16 0.918524
    outer loop
      vertex -6.5 6.5 -26.876
      vertex -13.7577 13.7577 -30
      vertex -6.5 -6.5 -26.876
    endloop
  endfacet
  facet normal -1 -7.85046e-17 -2.22045e-16
    outer loop
      vertex -28.15 -14.5 -33.5
      vertex -28.15 -20 -36.8
      vertex -28.15 -20 -30.2
    endloop
  endfacet
  facet normal -1 -7.85046e-17 -2.22045e-16
    outer loop
      vertex -28.15 -20 -30.2
      vertex -28.15 -20 -36.8
      vertex -28.15 -25.5 -33.5
    endloop
  endfacet
  facet normal -1 -7.85046e-17 -2.22045e-16
    outer loop
      vertex -28.15 5.5 -33.5
      vertex -28.15 -1.33227e-16 -36.8
      vertex -28.15 -8.65974e-16 -30.2
    endloop
  endfacet
  facet normal -1 -7.85046e-17 -2.22045e-16
    outer loop
      vertex -28.15 -8.65974e-16 -30.2
      vertex -28.15 -1.33227e-16 -36.8
      vertex -28.15 -5.5 -33.5
    endloop
  endfacet
  facet normal -1 -7.85046e-17 -2.22045e-16
    outer loop
      vertex -28.15 25.5 -33.5
      vertex -28.15 20 -36.8
      vertex -28.15 20 -30.2
    endloop
  endfacet
  facet normal -1 -7.85046e-17 -2.22045e-16
    outer loop
      vertex -28.15 20 -30.2
      vertex -28.15 20 -36.8
      vertex -28.15 14.5 -33.5
    endloop
  endfacet
  facet normal -2.35514e-16 -1 -3.33067e-16
    outer loop
      vertex -20 -28.15 -36.8
      vertex -14.5 -28.15 -33.5
      vertex -20 -28.15 -30.2
    endloop
  endfacet
  facet normal -2.35514e-16 -1 -3.33067e-16
    outer loop
      vertex -25.5 -28.15 -33.5
      vertex -20 -28.15 -36.8
      vertex -20 -28.15 -30.2
    endloop
  endfacet
  facet normal -2.35514e-16 -1 -3.33067e-16
    outer loop
      vertex -1.28575e-14 -28.15 -36.8
      vertex 5.5 -28.15 -33.5
      vertex -1.28575e-14 -28.15 -30.2
    endloop
  endfacet
  facet normal -2.35514e-16 -1 -3.33067e-16
    outer loop
      vertex -5.5 -28.15 -33.5
      vertex -1.28575e-14 -28.15 -36.8
      vertex -1.28575e-14 -28.15 -30.2
    endloop
  endfacet
  facet normal -2.35514e-16 -1 -3.33067e-16
    outer loop
      vertex 20 -28.15 -36.8
      vertex 25.5 -28.15 -33.5
      vertex 20 -28.15 -30.2
    endloop
  endfacet
  facet normal -2.35514e-16 -1 -3.33067e-16
    outer loop
      vertex 14.5 -28.15 -33.5
      vertex 20 -28.15 -36.8
      vertex 20 -28.15 -30.2
    endloop
  endfacet
  facet normal 1 -9.27195e-48 -2.22045e-16
    outer loop
      vertex 28.15 -20 -36.8
      vertex 28.15 -14.5 -33.5
      vertex 28.15 -20 -30.2
    endloop
  endfacet
  facet normal 1 -9.27195e-48 -2.22045e-16
    outer loop
      vertex 28.15 -25.5 -33.5
      vertex 28.15 -20 -36.8
      vertex 28.15 -20 -30.2
    endloop
  endfacet
  facet normal 1 -9.27195e-48 -2.22045e-16
    outer loop
      vertex 28.15 -2.34313e-15 -36.8
      vertex 28.15 5.5 -33.5
      vertex 28.15 -3.07588e-15 -30.2
    endloop
  endfacet
  facet normal 1 -9.27195e-48 -2.22045e-16
    outer loop
      vertex 28.15 -5.5 -33.5
      vertex 28.15 -2.34313e-15 -36.8
      vertex 28.15 -3.07588e-15 -30.2
    endloop
  endfacet
  facet normal 1 -9.27195e-48 -2.22045e-16
    outer loop
      vertex 28.15 20 -36.8
      vertex 28.15 25.5 -33.5
      vertex 28.15 20 -30.2
    endloop
  endfacet
  facet normal 1 -9.27195e-48 -2.22045e-16
    outer loop
      vertex 28.15 14.5 -33.5
      vertex 28.15 20 -36.8
      vertex 28.15 20 -30.2
    endloop
  endfacet
  facet normal 2.35514e-16 1 -1.11022e-16
    outer loop
      vertex -14.5 28.15 -33.5
      vertex -20 28.15 -36.8
      vertex -20 28.15 -30.2
    endloop
  endfacet
  facet normal 2.35514e-16 1 -1.11022e-16
    outer loop
      vertex -20 28.15 -30.2
      vertex -20 28.15 -36.8
      vertex -25.5 28.15 -33.5
    endloop
  endfacet
  facet normal 2.35514e-16 1 -1.11022e-16
    outer loop
      vertex 5.5 28.15 -33.5
      vertex -4.01788e-15 28.15 -36.8
      vertex -4.01788e-15 28.15 -30.2
    endloop
  endfacet
  facet normal 2.35514e-16 1 -1.11022e-16
    outer loop
      vertex -4.01788e-15 28.15 -30.2
      vertex -4.01788e-15 28.15 -36.8
      vertex -5.5 28.15 -33.5
    endloop
  endfacet
  facet normal 2.35514e-16 1 -1.11022e-16
    outer loop
      vertex 25.5 28.15 -33.5
      vertex 20 28.15 -36.8
      vertex 20 28.15 -30.2
    endloop
  endfacet
  facet normal 2.35514e-16 1 -1.11022e-16
    outer loop
      vertex 20 28.15 -30.2
      vertex 20 28.15 -36.8
      vertex 14.5 28.15 -33.5
    endloop
  endfacet
  facet normal -1.34693e-17 -3.57979e-16 1
    outer loop
      vertex -2.9 -2.9 -25.6
      vertex -6.5 -6.5 -25.6
      vertex 6.5 -6.5 -25.6
    endloop
  endfacet
  facet normal -1.34693e-17 -3.57979e-16 1
    outer loop
      vertex -2.9 2.9 -25.6
      vertex -6.5 6.5 -25.6
      vertex -2.9 -2.9 -25.6
    endloop
  endfacet
  facet normal -1.34693e-17 -3.57979e-16 1
    outer loop
      vertex 2.9 -2.9 -25.6
      vertex -2.9 -2.9 -25.6
      vertex 6.5 -6.5 -25.6
    endloop
  endfacet
  facet normal -1.34693e-17 -3.57979e-16 1
    outer loop
      vertex -6.5 6.5 -25.6
      vertex -6.5 -6.5 -25.6
      vertex -2.9 -2.9 -25.6
    endloop
  endfacet
  facet normal -1.34693e-17 -3.57979e-16 1
    outer loop
      vertex 6.5 6.5 -25.6
      vertex -6.5 6.5 -25.6
      vertex -2.9 2.9 -25.6
    endloop
  endfacet
  facet normal -1.34693e-17 -3.57979e-16 1
    outer loop
      vertex 6.5 6.5 -25.6
      vertex 2.9 2.9 -25.6
      vertex 6.5 -6.5 -25.6
    endloop
  endfacet
  facet normal -1.34693e-17 -3.57979e-16 1
    outer loop
      vertex 6.5 6.5 -25.6
      vertex -2.9 2.9 -25.6
      vertex 2.9 2.9 -25.6
    endloop
  endfacet
  facet normal -1.34693e-17 -3.57979e-16 1
    outer loop
      vertex 2.9 2.9 -25.6
      vertex 2.9 -2.9 -25.6
      vertex 6.5 -6.5 -25.6
    endloop
  endfacet
  facet normal -1 -7.85046e-17 -9.61404e-33
    outer loop
      vertex -6.5 -6.5 -25.6
      vertex -6.5 6.5 -25.6
      vertex -6.5 -6.5 -26.876
    endloop
  endfacet
  facet normal -1 -7.85046e-17 -9.61404e-33
    outer loop
      vertex -6.5 -6.5 -26.876
      vertex -6.5 6.5 -25.6
      vertex -6.5 6.5 -26.876
    endloop
  endfacet
  facet normal 3.1449e-33 -1 -2.33487e-16
    outer loop
      vertex 6.5 -6.5 -25.6
      vertex -6.5 -6.5 -25.6
      vertex -6.5 -6.5 -26.876
    endloop
  endfacet
  facet normal 3.1449e-33 -1 -2.33487e-16
    outer loop
      vertex 6.5 -6.5 -26.876
      vertex 6.5 -6.5 -25.6
      vertex -6.5 -6.5 -26.876
    endloop
  endfacet
  facet normal 1 7.85046e-17 9.61404e-33
    outer loop
      vertex 6.5 6.5 -25.6
      vertex 6.5 -6.5 -25.6
      vertex 6.5 -6.5 -26.876
    endloop
  endfacet
  facet normal 1 7.85046e-17 9.61404e-33
    outer loop
      vertex 6.5 6.5 -26.876
      vertex 6.5 6.5 -25.6
      vertex 6.5 -6.5 -26.876
    endloop
  endfacet
  facet normal -3.1449e-33 1 2.33487e-16
    outer loop
      vertex -6.5 6.5 -25.6
      vertex 6.5 6.5 -25.6
      vertex -6.5 6.5 -26.876
    endloop
  endfacet
  facet normal -3.1449e-33 1 2.33487e-16
    outer loop
      vertex -6.5 6.5 -26.876
      vertex 6.5 6.5 -25.6
      vertex 6.5 6.5 -26.876
    endloop
  endfacet
endsolid OpenSCAD_Model
