solid OpenSCAD_Model
  facet normal -1 0 0
    outer loop
      vertex -53.2 -53.2 -40.1
      vertex -53.2 -53.2 -35.9
      vertex -53.2 53.2 -40.1
    endloop
  endfacet
  facet normal -1 0 0
    outer loop
      vertex -53.2 53.2 -40.1
      vertex -53.2 -53.2 -35.9
      vertex -53.2 53.2 -35.9
    endloop
  endfacet
  facet normal 0 -1 0
    outer loop
      vertex -53.2 -53.2 -35.9
      vertex -53.2 -53.2 -40.1
      vertex 53.2 -53.2 -40.1
    endloop
  endfacet
  facet normal 0 -1 0
    outer loop
      vertex 53.2 -53.2 -35.9
      vertex -53.2 -53.2 -35.9
      vertex 53.2 -53.2 -40.1
    endloop
  endfacet
  facet normal 0 0 -1
    outer loop
      vertex 19 -12.5 -40.1
      vertex 18.5456 -6.02583 -40.1
      vertex 19 -3.15688 -40.1
    endloop
  endfacet
  facet normal 0 0 -1
    outer loop
      vertex 19 12.5 -40.1
      vertex -53.2 53.2 -40.1
      vertex 53.2 53.2 -40.1
    endloop
  endfacet
  facet normal 0 0 -1
    outer loop
      vertex -53.2 -53.2 -40.1
      vertex -53.2 53.2 -40.1
      vertex -19.5 0 -40.1
    endloop
  endfacet
  facet normal 0 0 -1
    outer loop
      vertex -53.2 -53.2 -40.1
      vertex -19.5 0 -40.1
      vertex -18.5456 -6.02583 -40.1
    endloop
  endfacet
  facet normal 0 0 -1
    outer loop
      vertex -53.2 -53.2 -40.1
      vertex -18.5456 -6.02583 -40.1
      vertex -15.7758 -11.4618 -40.1
    endloop
  endfacet
  facet normal 0 0 -1
    outer loop
      vertex -53.2 -53.2 -40.1
      vertex -15.7758 -11.4618 -40.1
      vertex -11.4618 -15.7758 -40.1
    endloop
  endfacet
  facet normal 0 0 -1
    outer loop
      vertex -53.2 -53.2 -40.1
      vertex -11.4618 -15.7758 -40.1
      vertex 53.2 -53.2 -40.1
    endloop
  endfacet
  facet normal 0 0 -1
    outer loop
      vertex -11.4618 -15.7758 -40.1
      vertex -6.02583 -18.5456 -40.1
      vertex 53.2 -53.2 -40.1
    endloop
  endfacet
  facet normal 0 0 -1
    outer loop
      vertex 6.02583 -18.5456 -40.1
      vertex 53.2 -53.2 -40.1
      vertex 0 -19.5 -40.1
    endloop
  endfacet
  facet normal 0 0 -1
    outer loop
      vertex 15.7758 -11.4618 -40.1
      vertex 53.2 -53.2 -40.1
      vertex 11.4618 -15.7758 -40.1
    endloop
  endfacet
  facet normal 0 0 -1
    outer loop
      vertex -18.5456 6.02583 -40.1
      vertex -53.2 53.2 -40.1
      vertex -15.7758 11.4618 -40.1
    endloop
  endfacet
  facet normal 0 0 -1
    outer loop
      vertex 6.02583 -18.5456 -40.1
      vertex 11.4618 -15.7758 -40.1
      vertex 53.2 -53.2 -40.1
    endloop
  endfacet
  facet normal 0 0 -1
    outer loop
      vertex 19 -12.5 -40.1
      vertex 15.7758 -11.4618 -40.1
      vertex 18.5456 -6.02583 -40.1
    endloop
  endfacet
  facet normal 0 0 -1
    outer loop
      vertex 19 12.5 -40.1
      vertex 53.2 53.2 -40.1
      vertex 47 12.5 -40.1
    endloop
  endfacet
  facet normal 0 0 -1
    outer loop
      vertex -15.7758 11.4618 -40.1
      vertex -53.2 53.2 -40.1
      vertex -11.4618 15.7758 -40.1
    endloop
  endfacet
  facet normal 0 0 -1
    outer loop
      vertex 53.2 -53.2 -40.1
      vertex 15.7758 -11.4618 -40.1
      vertex 19 -12.5 -40.1
    endloop
  endfacet
  facet normal 0 0 -1
    outer loop
      vertex 53.2 -53.2 -40.1
      vertex 19 -12.5 -40.1
      vertex 47 -12.5 -40.1
    endloop
  endfacet
  facet normal 0 0 -1
    outer loop
      vertex 53.2 -53.2 -40.1
      vertex 47 -12.5 -40.1
      vertex 53.2 53.2 -40.1
    endloop
  endfacet
  facet normal 0 0 -1
    outer loop
      vertex 47 -12.5 -40.1
      vertex 47 12.5 -40.1
      vertex 53.2 53.2 -40.1
    endloop
  endfacet
  facet normal 0 0 -1
    outer loop
      vertex -11.4618 15.7758 -40.1
      vertex -53.2 53.2 -40.1
      vertex -6.02583 18.5456 -40.1
    endloop
  endfacet
  facet normal 0 0 -1
    outer loop
      vertex 0 19.5 -40.1
      vertex -53.2 53.2 -40.1
      vertex 6.02583 18.5456 -40.1
    endloop
  endfacet
  facet normal 0 0 -1
    outer loop
      vertex 18.5456 6.02583 -40.1
      vertex 19 12.5 -40.1
      vertex 19 3.15688 -40.1
    endloop
  endfacet
  facet normal 0 0 -1
    outer loop
      vertex 15.7758 11.4618 -40.1
      vertex 19 12.5 -40.1
      vertex 18.5456 6.02583 -40.1
    endloop
  endfacet
  facet normal 0 0 -1
    outer loop
      vertex 11.4618 15.7758 -40.1
      vertex 19 12.5 -40.1
      vertex 15.7758 11.4618 -40.1
    endloop
  endfacet
  facet normal 0 0 -1
    outer loop
      vertex -53.2 53.2 -40.1
      vertex 19 12.5 -40.1
      vertex 11.4618 15.7758 -40.1
    endloop
  endfacet
  facet normal 0 0 -1
    outer loop
      vertex -53.2 53.2 -40.1
      vertex 11.4618 15.7758 -40.1
      vertex 6.02583 18.5456 -40.1
    endloop
  endfacet
  facet normal 0 0 -1
    outer loop
      vertex -6.02583 18.5456 -40.1
      vertex -53.2 53.2 -40.1
      vertex 0 19.5 -40.1
    endloop
  endfacet
  facet normal 0 0 -1
    outer loop
      vertex -19.5 0 -40.1
      vertex -53.2 53.2 -40.1
      vertex -18.5456 6.02583 -40.1
    endloop
  endfacet
  facet normal 0 0 -1
    outer loop
      vertex 0 -19.5 -40.1
      vertex 53.2 -53.2 -40.1
      vertex -6.02583 -18.5456 -40.1
    endloop
  endfacet
  facet normal 0 1 0
    outer loop
      vertex -53.2 53.2 -40.1
      vertex -53.2 53.2 -35.9
      vertex 53.2 53.2 -40.1
    endloop
  endfacet
  facet normal 0 1 0
    outer loop
      vertex 53.2 53.2 -40.1
      vertex -53.2 53.2 -35.9
      vertex 53.2 53.2 -35.9
    endloop
  endfacet
  facet normal 0 0 1
    outer loop
      vertex -53.2 53.2 -35.9
      vertex -53.2 -53.2 -35.9
      vertex 53.2 -53.2 -35.9
    endloop
  endfacet
  facet normal 0 0 1
    outer loop
      vertex 53.2 53.2 -35.9
      vertex -53.2 53.2 -35.9
      vertex 53.2 -53.2 -35.9
    endloop
  endfacet
  facet normal 1 0 0
    outer loop
      vertex 53.2 0 -39.68
      vertex 53.2 -53.2 -40.1
      vertex 53.2 53.2 -40.1
    endloop
  endfacet
  facet normal 1 0 0
    outer loop
      vertex 53.2 0 -36.32
      vertex 53.2 0.519149 -36.4022
      vertex 53.2 53.2 -35.9
    endloop
  endfacet
  facet normal 1 0 0
    outer loop
      vertex 53.2 0 -39.68
      vertex 53.2 -0.519149 -39.5978
      vertex 53.2 -53.2 -40.1
    endloop
  endfacet
  facet normal 1 0 0
    outer loop
      vertex 53.2 -53.2 -35.9
      vertex 53.2 -53.2 -40.1
      vertex 53.2 -1.59777 -38.5191
    endloop
  endfacet
  facet normal 1 0 0
    outer loop
      vertex 53.2 -53.2 -35.9
      vertex 53.2 -1.59777 -38.5191
      vertex 53.2 -1.68 -38
    endloop
  endfacet
  facet normal 1 0 0
    outer loop
      vertex 53.2 1.68 -38
      vertex 53.2 1.59777 -38.5191
      vertex 53.2 53.2 -40.1
    endloop
  endfacet
  facet normal 1 0 0
    outer loop
      vertex 53.2 -1.35915 -37.0125
      vertex 53.2 -53.2 -35.9
      vertex 53.2 -1.59777 -37.4809
    endloop
  endfacet
  facet normal 1 0 0
    outer loop
      vertex 53.2 -0.987479 -36.6409
      vertex 53.2 -53.2 -35.9
      vertex 53.2 -1.35915 -37.0125
    endloop
  endfacet
  facet normal 1 0 0
    outer loop
      vertex 53.2 -0.519149 -36.4022
      vertex 53.2 -53.2 -35.9
      vertex 53.2 -0.987479 -36.6409
    endloop
  endfacet
  facet normal 1 0 0
    outer loop
      vertex 53.2 0 -36.32
      vertex 53.2 -53.2 -35.9
      vertex 53.2 -0.519149 -36.4022
    endloop
  endfacet
  facet normal 1 0 0
    outer loop
      vertex 53.2 0.519149 -36.4022
      vertex 53.2 0.987479 -36.6409
      vertex 53.2 53.2 -35.9
    endloop
  endfacet
  facet normal 1 0 0
    outer loop
      vertex 53.2 53.2 -35.9
      vertex 53.2 -53.2 -35.9
      vertex 53.2 0 -36.32
    endloop
  endfacet
  facet normal 1 0 0
    outer loop
      vertex 53.2 0.987479 -36.6409
      vertex 53.2 1.35915 -37.0125
      vertex 53.2 53.2 -35.9
    endloop
  endfacet
  facet normal 1 0 0
    outer loop
      vertex 53.2 1.35915 -37.0125
      vertex 53.2 1.59777 -37.4809
      vertex 53.2 53.2 -35.9
    endloop
  endfacet
  facet normal 1 0 0
    outer loop
      vertex 53.2 1.59777 -37.4809
      vertex 53.2 1.68 -38
      vertex 53.2 53.2 -40.1
    endloop
  endfacet
  facet normal 1 0 0
    outer loop
      vertex 53.2 53.2 -35.9
      vertex 53.2 1.59777 -37.4809
      vertex 53.2 53.2 -40.1
    endloop
  endfacet
  facet normal 1 0 0
    outer loop
      vertex 53.2 1.35915 -38.9875
      vertex 53.2 0.987479 -39.3591
      vertex 53.2 53.2 -40.1
    endloop
  endfacet
  facet normal 1 0 0
    outer loop
      vertex 53.2 0.987479 -39.3591
      vertex 53.2 0.519149 -39.5978
      vertex 53.2 53.2 -40.1
    endloop
  endfacet
  facet normal 1 0 0
    outer loop
      vertex 53.2 0.519149 -39.5978
      vertex 53.2 0 -39.68
      vertex 53.2 53.2 -40.1
    endloop
  endfacet
  facet normal 1 0 0
    outer loop
      vertex 53.2 -0.519149 -39.5978
      vertex 53.2 -0.987479 -39.3591
      vertex 53.2 -53.2 -40.1
    endloop
  endfacet
  facet normal 1 0 0
    outer loop
      vertex 53.2 -0.987479 -39.3591
      vertex 53.2 -1.35915 -38.9875
      vertex 53.2 -53.2 -40.1
    endloop
  endfacet
  facet normal 1 0 0
    outer loop
      vertex 53.2 -1.59777 -38.5191
      vertex 53.2 -53.2 -40.1
      vertex 53.2 -1.35915 -38.9875
    endloop
  endfacet
  facet normal 1 0 0
    outer loop
      vertex 53.2 1.59777 -38.5191
      vertex 53.2 1.35915 -38.9875
      vertex 53.2 53.2 -40.1
    endloop
  endfacet
  facet normal 1 0 0
    outer loop
      vertex 53.2 -1.68 -38
      vertex 53.2 -1.59777 -37.4809
      vertex 53.2 -53.2 -35.9
    endloop
  endfacet
  facet normal 0.987688 -0.156434 0
    outer loop
      vertex -18.5456 6.02583 -40.1
      vertex -18.5456 6.02583 -36.8
      vertex -19.5 0 -36.8
    endloop
  endfacet
  facet normal 0.987688 -0.156434 0
    outer loop
      vertex -19.5 0 -40.1
      vertex -18.5456 6.02583 -40.1
      vertex -19.5 0 -36.8
    endloop
  endfacet
  facet normal 0.987688 0.156434 0
    outer loop
      vertex -19.5 0 -36.8
      vertex -18.5456 -6.02583 -36.8
      vertex -18.5456 -6.02583 -40.1
    endloop
  endfacet
  facet normal 0.987688 0.156434 0
    outer loop
      vertex -19.5 0 -40.1
      vertex -19.5 0 -36.8
      vertex -18.5456 -6.02583 -40.1
    endloop
  endfacet
  facet normal 0.891007 -0.453991 0
    outer loop
      vertex -15.7758 11.4618 -40.1
      vertex -15.7758 11.4618 -36.8
      vertex -18.5456 6.02583 -36.8
    endloop
  endfacet
  facet normal 0.891007 -0.453991 0
    outer loop
      vertex -18.5456 6.02583 -40.1
      vertex -15.7758 11.4618 -40.1
      vertex -18.5456 6.02583 -36.8
    endloop
  endfacet
  facet normal 0.707107 -0.707107 0
    outer loop
      vertex -11.4618 15.7758 -40.1
      vertex -11.4618 15.7758 -36.8
      vertex -15.7758 11.4618 -36.8
    endloop
  endfacet
  facet normal 0.707107 -0.707107 0
    outer loop
      vertex -15.7758 11.4618 -40.1
      vertex -11.4618 15.7758 -40.1
      vertex -15.7758 11.4618 -36.8
    endloop
  endfacet
  facet normal 0.453991 -0.891007 0
    outer loop
      vertex -6.02583 18.5456 -40.1
      vertex -6.02583 18.5456 -36.8
      vertex -11.4618 15.7758 -36.8
    endloop
  endfacet
  facet normal 0.453991 -0.891007 0
    outer loop
      vertex -11.4618 15.7758 -40.1
      vertex -6.02583 18.5456 -40.1
      vertex -11.4618 15.7758 -36.8
    endloop
  endfacet
  facet normal 0.156434 -0.987688 0
    outer loop
      vertex 0 19.5 -40.1
      vertex 0 19.5 -36.8
      vertex -6.02583 18.5456 -36.8
    endloop
  endfacet
  facet normal 0.156434 -0.987688 0
    outer loop
      vertex -6.02583 18.5456 -40.1
      vertex 0 19.5 -40.1
      vertex -6.02583 18.5456 -36.8
    endloop
  endfacet
  facet normal -0.156434 -0.987688 0
    outer loop
      vertex 6.02583 18.5456 -40.1
      vertex 6.02583 18.5456 -36.8
      vertex 0 19.5 -36.8
    endloop
  endfacet
  facet normal -0.156434 -0.987688 0
    outer loop
      vertex 0 19.5 -40.1
      vertex 6.02583 18.5456 -40.1
      vertex 0 19.5 -36.8
    endloop
  endfacet
  facet normal -0.453991 -0.891007 0
    outer loop
      vertex 11.4618 15.7758 -40.1
      vertex 11.4618 15.7758 -36.8
      vertex 6.02583 18.5456 -36.8
    endloop
  endfacet
  facet normal -0.453991 -0.891007 0
    outer loop
      vertex 6.02583 18.5456 -40.1
      vertex 11.4618 15.7758 -40.1
      vertex 6.02583 18.5456 -36.8
    endloop
  endfacet
  facet normal -0.707107 -0.707107 0
    outer loop
      vertex 15.7758 11.4618 -40.1
      vertex 15.7758 11.4618 -36.8
      vertex 11.4618 15.7758 -36.8
    endloop
  endfacet
  facet normal -0.707107 -0.707107 0
    outer loop
      vertex 11.4618 15.7758 -40.1
      vertex 15.7758 11.4618 -40.1
      vertex 11.4618 15.7758 -36.8
    endloop
  endfacet
  facet normal -0.891007 -0.453991 0
    outer loop
      vertex 18.5456 6.02583 -36.8
      vertex 15.7758 11.4618 -36.8
      vertex 18.5456 6.02583 -40.1
    endloop
  endfacet
  facet normal -0.891007 -0.453991 0
    outer loop
      vertex 18.5456 6.02583 -40.1
      vertex 15.7758 11.4618 -36.8
      vertex 15.7758 11.4618 -40.1
    endloop
  endfacet
  facet normal -0.987688 -0.156434 0
    outer loop
      vertex 19 3.15688 -36.8
      vertex 18.5456 6.02583 -36.8
      vertex 19 3.15688 -40.1
    endloop
  endfacet
  facet normal -0.987688 -0.156434 0
    outer loop
      vertex 19 3.15688 -40.1
      vertex 18.5456 6.02583 -36.8
      vertex 18.5456 6.02583 -40.1
    endloop
  endfacet
  facet normal 1 0 0
    outer loop
      vertex 19 12.5 -36.2
      vertex 19 -3.15688 -36.8
      vertex 19 3.15688 -36.8
    endloop
  endfacet
  facet normal 1 0 0
    outer loop
      vertex 19 -3.15688 -40.1
      vertex 19 -3.15688 -36.8
      vertex 19 -12.5 -36.2
    endloop
  endfacet
  facet normal 1 0 0
    outer loop
      vertex 19 3.15688 -40.1
      vertex 19 12.5 -40.1
      vertex 19 3.15688 -36.8
    endloop
  endfacet
  facet normal 1 0 0
    outer loop
      vertex 19 12.5 -40.1
      vertex 19 12.5 -36.2
      vertex 19 3.15688 -36.8
    endloop
  endfacet
  facet normal 1 0 0
    outer loop
      vertex 19 12.5 -36.2
      vertex 19 -12.5 -36.2
      vertex 19 -3.15688 -36.8
    endloop
  endfacet
  facet normal 1 0 0
    outer loop
      vertex 19 -12.5 -36.2
      vertex 19 -12.5 -40.1
      vertex 19 -3.15688 -40.1
    endloop
  endfacet
  facet normal 0 -1 0
    outer loop
      vertex 47 12.5 -40.1
      vertex 47 12.5 -36.2
      vertex 19 12.5 -36.2
    endloop
  endfacet
  facet normal 0 -1 0
    outer loop
      vertex 19 12.5 -40.1
      vertex 47 12.5 -40.1
      vertex 19 12.5 -36.2
    endloop
  endfacet
  facet normal -1 0 0
    outer loop
      vertex 47 -0.519149 -36.4022
      vertex 47 -12.5 -36.2
      vertex 47 0 -36.32
    endloop
  endfacet
  facet normal -1 0 0
    outer loop
      vertex 47 0 -39.68
      vertex 47 12.5 -40.1
      vertex 47 -12.5 -40.1
    endloop
  endfacet
  facet normal -1 0 0
    outer loop
      vertex 47 1.68 -38
      vertex 47 12.5 -40.1
      vertex 47 1.59777 -38.5191
    endloop
  endfacet
  facet normal -1 0 0
    outer loop
      vertex 47 -12.5 -36.2
      vertex 47 -1.59777 -38.5191
      vertex 47 -12.5 -40.1
    endloop
  endfacet
  facet normal -1 0 0
    outer loop
      vertex 47 1.59777 -38.5191
      vertex 47 12.5 -40.1
      vertex 47 1.35915 -38.9875
    endloop
  endfacet
  facet normal -1 0 0
    outer loop
      vertex 47 -1.59777 -38.5191
      vertex 47 -1.35915 -38.9875
      vertex 47 -12.5 -40.1
    endloop
  endfacet
  facet normal -1 0 0
    outer loop
      vertex 47 1.35915 -38.9875
      vertex 47 12.5 -40.1
      vertex 47 0.987479 -39.3591
    endloop
  endfacet
  facet normal -1 0 0
    outer loop
      vertex 47 -1.35915 -38.9875
      vertex 47 -0.987479 -39.3591
      vertex 47 -12.5 -40.1
    endloop
  endfacet
  facet normal -1 0 0
    outer loop
      vertex 47 0.987479 -39.3591
      vertex 47 12.5 -40.1
      vertex 47 0.519149 -39.5978
    endloop
  endfacet
  facet normal -1 0 0
    outer loop
      vertex 47 -0.987479 -39.3591
      vertex 47 -0.519149 -39.5978
      vertex 47 -12.5 -40.1
    endloop
  endfacet
  facet normal -1 0 0
    outer loop
      vertex 47 -0.519149 -39.5978
      vertex 47 0 -39.68
      vertex 47 -12.5 -40.1
    endloop
  endfacet
  facet normal -1 0 0
    outer loop
      vertex 47 12.5 -36.2
      vertex 47 12.5 -40.1
      vertex 47 1.68 -38
    endloop
  endfacet
  facet normal -1 0 0
    outer loop
      vertex 47 12.5 -36.2
      vertex 47 1.68 -38
      vertex 47 1.59777 -37.4809
    endloop
  endfacet
  facet normal -1 0 0
    outer loop
      vertex 47 12.5 -36.2
      vertex 47 1.59777 -37.4809
      vertex 47 1.35915 -37.0125
    endloop
  endfacet
  facet normal -1 0 0
    outer loop
      vertex 47 12.5 -36.2
      vertex 47 1.35915 -37.0125
      vertex 47 0.987479 -36.6409
    endloop
  endfacet
  facet normal -1 0 0
    outer loop
      vertex 47 12.5 -36.2
      vertex 47 0.987479 -36.6409
      vertex 47 0.519149 -36.4022
    endloop
  endfacet
  facet normal -1 0 0
    outer loop
      vertex 47 12.5 -36.2
      vertex 47 0.519149 -36.4022
      vertex 47 0 -36.32
    endloop
  endfacet
  facet normal -1 0 0
    outer loop
      vertex 47 12.5 -36.2
      vertex 47 0 -36.32
      vertex 47 -12.5 -36.2
    endloop
  endfacet
  facet normal -1 0 0
    outer loop
      vertex 47 -0.987479 -36.6409
      vertex 47 -12.5 -36.2
      vertex 47 -0.519149 -36.4022
    endloop
  endfacet
  facet normal -1 0 0
    outer loop
      vertex 47 -1.35915 -37.0125
      vertex 47 -12.5 -36.2
      vertex 47 -0.987479 -36.6409
    endloop
  endfacet
  facet normal -1 0 0
    outer loop
      vertex 47 -1.59777 -37.4809
      vertex 47 -12.5 -36.2
      vertex 47 -1.35915 -37.0125
    endloop
  endfacet
  facet normal -1 0 0
    outer loop
      vertex 47 -1.68 -38
      vertex 47 -12.5 -36.2
      vertex 47 -1.59777 -37.4809
    endloop
  endfacet
  facet normal -1 0 0
    outer loop
      vertex 47 -12.5 -36.2
      vertex 47 -1.68 -38
      vertex 47 -1.59777 -38.5191
    endloop
  endfacet
  facet normal -1 0 0
    outer loop
      vertex 47 0.519149 -39.5978
      vertex 47 12.5 -40.1
      vertex 47 0 -39.68
    endloop
  endfacet
  facet normal 0 1 0
    outer loop
      vertex 47 -12.5 -36.2
      vertex 47 -12.5 -40.1
      vertex 19 -12.5 -36.2
    endloop
  endfacet
  facet normal 0 1 0
    outer loop
      vertex 19 -12.5 -36.2
      vertex 47 -12.5 -40.1
      vertex 19 -12.5 -40.1
    endloop
  endfacet
  facet normal -0.987688 0.156434 0
    outer loop
      vertex 19 -3.15688 -36.8
      vertex 19 -3.15688 -40.1
      vertex 18.5456 -6.02583 -36.8
    endloop
  endfacet
  facet normal -0.987688 0.156434 0
    outer loop
      vertex 18.5456 -6.02583 -36.8
      vertex 19 -3.15688 -40.1
      vertex 18.5456 -6.02583 -40.1
    endloop
  endfacet
  facet normal -0.891007 0.453991 0
    outer loop
      vertex 18.5456 -6.02583 -36.8
      vertex 18.5456 -6.02583 -40.1
      vertex 15.7758 -11.4618 -36.8
    endloop
  endfacet
  facet normal -0.891007 0.453991 0
    outer loop
      vertex 15.7758 -11.4618 -36.8
      vertex 18.5456 -6.02583 -40.1
      vertex 15.7758 -11.4618 -40.1
    endloop
  endfacet
  facet normal -0.707107 0.707107 0
    outer loop
      vertex 15.7758 -11.4618 -36.8
      vertex 15.7758 -11.4618 -40.1
      vertex 11.4618 -15.7758 -36.8
    endloop
  endfacet
  facet normal -0.707107 0.707107 0
    outer loop
      vertex 11.4618 -15.7758 -36.8
      vertex 15.7758 -11.4618 -40.1
      vertex 11.4618 -15.7758 -40.1
    endloop
  endfacet
  facet normal -0.453991 0.891007 0
    outer loop
      vertex 11.4618 -15.7758 -36.8
      vertex 11.4618 -15.7758 -40.1
      vertex 6.02583 -18.5456 -36.8
    endloop
  endfacet
  facet normal -0.453991 0.891007 0
    outer loop
      vertex 6.02583 -18.5456 -36.8
      vertex 11.4618 -15.7758 -40.1
      vertex 6.02583 -18.5456 -40.1
    endloop
  endfacet
  facet normal -0.156434 0.987688 0
    outer loop
      vertex 6.02583 -18.5456 -36.8
      vertex 6.02583 -18.5456 -40.1
      vertex 0 -19.5 -36.8
    endloop
  endfacet
  facet normal -0.156434 0.987688 0
    outer loop
      vertex 0 -19.5 -36.8
      vertex 6.02583 -18.5456 -40.1
      vertex 0 -19.5 -40.1
    endloop
  endfacet
  facet normal 0.156434 0.987688 0
    outer loop
      vertex 0 -19.5 -36.8
      vertex 0 -19.5 -40.1
      vertex -6.02583 -18.5456 -36.8
    endloop
  endfacet
  facet normal 0.156434 0.987688 0
    outer loop
      vertex -6.02583 -18.5456 -36.8
      vertex 0 -19.5 -40.1
      vertex -6.02583 -18.5456 -40.1
    endloop
  endfacet
  facet normal 0.453991 0.891007 0
    outer loop
      vertex -6.02583 -18.5456 -36.8
      vertex -6.02583 -18.5456 -40.1
      vertex -11.4618 -15.7758 -36.8
    endloop
  endfacet
  facet normal 0.453991 0.891007 0
    outer loop
      vertex -11.4618 -15.7758 -36.8
      vertex -6.02583 -18.5456 -40.1
      vertex -11.4618 -15.7758 -40.1
    endloop
  endfacet
  facet normal 0.707107 0.707107 0
    outer loop
      vertex -11.4618 -15.7758 -36.8
      vertex -11.4618 -15.7758 -40.1
      vertex -15.7758 -11.4618 -36.8
    endloop
  endfacet
  facet normal 0.707107 0.707107 0
    outer loop
      vertex -15.7758 -11.4618 -36.8
      vertex -11.4618 -15.7758 -40.1
      vertex -15.7758 -11.4618 -40.1
    endloop
  endfacet
  facet normal 0.891007 0.453991 0
    outer loop
      vertex -18.5456 -6.02583 -36.8
      vertex -15.7758 -11.4618 -36.8
      vertex -15.7758 -11.4618 -40.1
    endloop
  endfacet
  facet normal 0.891007 0.453991 0
    outer loop
      vertex -18.5456 -6.02583 -40.1
      vertex -18.5456 -6.02583 -36.8
      vertex -15.7758 -11.4618 -40.1
    endloop
  endfacet
  facet normal -3.47354e-17 0.987688 0.156434
    outer loop
      vertex 53.2 -1.59777 -38.5191
      vertex 47 -1.59777 -38.5191
      vertex 53.2 -1.68 -38
    endloop
  endfacet
  facet normal -3.47354e-17 0.987688 0.156434
    outer loop
      vertex 53.2 -1.68 -38
      vertex 47 -1.59777 -38.5191
      vertex 47 -1.68 -38
    endloop
  endfacet
  facet normal -1.00806e-16 0.891007 0.45399
    outer loop
      vertex 53.2 -1.35915 -38.9875
      vertex 47 -1.35915 -38.9875
      vertex 53.2 -1.59777 -38.5191
    endloop
  endfacet
  facet normal -1.00806e-16 0.891007 0.45399
    outer loop
      vertex 53.2 -1.59777 -38.5191
      vertex 47 -1.35915 -38.9875
      vertex 47 -1.59777 -38.5191
    endloop
  endfacet
  facet normal -1.57009e-16 0.707107 0.707107
    outer loop
      vertex 53.2 -0.987479 -39.3591
      vertex 47 -0.987479 -39.3591
      vertex 53.2 -1.35915 -38.9875
    endloop
  endfacet
  facet normal -1.57009e-16 0.707107 0.707107
    outer loop
      vertex 53.2 -1.35915 -38.9875
      vertex 47 -0.987479 -39.3591
      vertex 47 -1.35915 -38.9875
    endloop
  endfacet
  facet normal -1.97843e-16 0.45399 0.891007
    outer loop
      vertex 53.2 -0.987479 -39.3591
      vertex 53.2 -0.519149 -39.5978
      vertex 47 -0.519149 -39.5978
    endloop
  endfacet
  facet normal -1.97843e-16 0.45399 0.891007
    outer loop
      vertex 47 -0.987479 -39.3591
      vertex 53.2 -0.987479 -39.3591
      vertex 47 -0.519149 -39.5978
    endloop
  endfacet
  facet normal -2.19311e-16 0.156434 0.987688
    outer loop
      vertex 53.2 -0.519149 -39.5978
      vertex 53.2 0 -39.68
      vertex 47 0 -39.68
    endloop
  endfacet
  facet normal -2.19311e-16 0.156434 0.987688
    outer loop
      vertex 47 -0.519149 -39.5978
      vertex 53.2 -0.519149 -39.5978
      vertex 47 0 -39.68
    endloop
  endfacet
  facet normal -2.19311e-16 -0.156434 0.987688
    outer loop
      vertex 53.2 0 -39.68
      vertex 53.2 0.519149 -39.5978
      vertex 47 0.519149 -39.5978
    endloop
  endfacet
  facet normal -2.19311e-16 -0.156434 0.987688
    outer loop
      vertex 47 0 -39.68
      vertex 53.2 0 -39.68
      vertex 47 0.519149 -39.5978
    endloop
  endfacet
  facet normal -1.97843e-16 -0.45399 0.891007
    outer loop
      vertex 53.2 0.519149 -39.5978
      vertex 53.2 0.987479 -39.3591
      vertex 47 0.987479 -39.3591
    endloop
  endfacet
  facet normal -1.97843e-16 -0.45399 0.891007
    outer loop
      vertex 47 0.519149 -39.5978
      vertex 53.2 0.519149 -39.5978
      vertex 47 0.987479 -39.3591
    endloop
  endfacet
  facet normal -1.57009e-16 -0.707107 0.707107
    outer loop
      vertex 53.2 0.987479 -39.3591
      vertex 53.2 1.35915 -38.9875
      vertex 47 1.35915 -38.9875
    endloop
  endfacet
  facet normal -1.57009e-16 -0.707107 0.707107
    outer loop
      vertex 47 0.987479 -39.3591
      vertex 53.2 0.987479 -39.3591
      vertex 47 1.35915 -38.9875
    endloop
  endfacet
  facet normal -1.00806e-16 -0.891007 0.45399
    outer loop
      vertex 53.2 1.35915 -38.9875
      vertex 53.2 1.59777 -38.5191
      vertex 47 1.59777 -38.5191
    endloop
  endfacet
  facet normal -1.00806e-16 -0.891007 0.45399
    outer loop
      vertex 47 1.35915 -38.9875
      vertex 53.2 1.35915 -38.9875
      vertex 47 1.59777 -38.5191
    endloop
  endfacet
  facet normal -3.47354e-17 -0.987688 0.156434
    outer loop
      vertex 53.2 1.59777 -38.5191
      vertex 53.2 1.68 -38
      vertex 47 1.68 -38
    endloop
  endfacet
  facet normal -3.47354e-17 -0.987688 0.156434
    outer loop
      vertex 47 1.59777 -38.5191
      vertex 53.2 1.59777 -38.5191
      vertex 47 1.68 -38
    endloop
  endfacet
  facet normal 3.47354e-17 -0.987688 -0.156434
    outer loop
      vertex 47 1.68 -38
      vertex 53.2 1.68 -38
      vertex 53.2 1.59777 -37.4809
    endloop
  endfacet
  facet normal 3.47354e-17 -0.987688 -0.156434
    outer loop
      vertex 47 1.59777 -37.4809
      vertex 47 1.68 -38
      vertex 53.2 1.59777 -37.4809
    endloop
  endfacet
  facet normal 1.00806e-16 -0.891007 -0.45399
    outer loop
      vertex 47 1.59777 -37.4809
      vertex 53.2 1.59777 -37.4809
      vertex 53.2 1.35915 -37.0125
    endloop
  endfacet
  facet normal 1.00806e-16 -0.891007 -0.45399
    outer loop
      vertex 47 1.35915 -37.0125
      vertex 47 1.59777 -37.4809
      vertex 53.2 1.35915 -37.0125
    endloop
  endfacet
  facet normal 1.57009e-16 -0.707107 -0.707107
    outer loop
      vertex 47 1.35915 -37.0125
      vertex 53.2 1.35915 -37.0125
      vertex 53.2 0.987479 -36.6409
    endloop
  endfacet
  facet normal 1.57009e-16 -0.707107 -0.707107
    outer loop
      vertex 47 0.987479 -36.6409
      vertex 47 1.35915 -37.0125
      vertex 53.2 0.987479 -36.6409
    endloop
  endfacet
  facet normal 1.97843e-16 -0.45399 -0.891007
    outer loop
      vertex 53.2 0.987479 -36.6409
      vertex 53.2 0.519149 -36.4022
      vertex 47 0.987479 -36.6409
    endloop
  endfacet
  facet normal 1.97843e-16 -0.45399 -0.891007
    outer loop
      vertex 47 0.987479 -36.6409
      vertex 53.2 0.519149 -36.4022
      vertex 47 0.519149 -36.4022
    endloop
  endfacet
  facet normal 2.19311e-16 -0.156434 -0.987688
    outer loop
      vertex 53.2 0.519149 -36.4022
      vertex 53.2 0 -36.32
      vertex 47 0.519149 -36.4022
    endloop
  endfacet
  facet normal 2.19311e-16 -0.156434 -0.987688
    outer loop
      vertex 47 0.519149 -36.4022
      vertex 53.2 0 -36.32
      vertex 47 0 -36.32
    endloop
  endfacet
  facet normal 2.19311e-16 0.156434 -0.987688
    outer loop
      vertex 53.2 0 -36.32
      vertex 53.2 -0.519149 -36.4022
      vertex 47 0 -36.32
    endloop
  endfacet
  facet normal 2.19311e-16 0.156434 -0.987688
    outer loop
      vertex 47 0 -36.32
      vertex 53.2 -0.519149 -36.4022
      vertex 47 -0.519149 -36.4022
    endloop
  endfacet
  facet normal 1.97843e-16 0.45399 -0.891007
    outer loop
      vertex 53.2 -0.519149 -36.4022
      vertex 53.2 -0.987479 -36.6409
      vertex 47 -0.519149 -36.4022
    endloop
  endfacet
  facet normal 1.97843e-16 0.45399 -0.891007
    outer loop
      vertex 47 -0.519149 -36.4022
      vertex 53.2 -0.987479 -36.6409
      vertex 47 -0.987479 -36.6409
    endloop
  endfacet
  facet normal 1.57009e-16 0.707107 -0.707107
    outer loop
      vertex 53.2 -0.987479 -36.6409
      vertex 53.2 -1.35915 -37.0125
      vertex 47 -0.987479 -36.6409
    endloop
  endfacet
  facet normal 1.57009e-16 0.707107 -0.707107
    outer loop
      vertex 47 -0.987479 -36.6409
      vertex 53.2 -1.35915 -37.0125
      vertex 47 -1.35915 -37.0125
    endloop
  endfacet
  facet normal 1.00806e-16 0.891007 -0.45399
    outer loop
      vertex 53.2 -1.35915 -37.0125
      vertex 53.2 -1.59777 -37.4809
      vertex 47 -1.35915 -37.0125
    endloop
  endfacet
  facet normal 1.00806e-16 0.891007 -0.45399
    outer loop
      vertex 47 -1.35915 -37.0125
      vertex 53.2 -1.59777 -37.4809
      vertex 47 -1.59777 -37.4809
    endloop
  endfacet
  facet normal 3.47354e-17 0.987688 -0.156434
    outer loop
      vertex 53.2 -1.59777 -37.4809
      vertex 53.2 -1.68 -38
      vertex 47 -1.59777 -37.4809
    endloop
  endfacet
  facet normal 3.47354e-17 0.987688 -0.156434
    outer loop
      vertex 47 -1.59777 -37.4809
      vertex 53.2 -1.68 -38
      vertex 47 -1.68 -38
    endloop
  endfacet
  facet normal 0 0 -1
    outer loop
      vertex -15.7758 11.4618 -36.8
      vertex -11.4618 15.7758 -36.8
      vertex -18.5456 6.02583 -36.8
    endloop
  endfacet
  facet normal 0 0 -1
    outer loop
      vertex -18.5456 6.02583 -36.8
      vertex -11.4618 15.7758 -36.8
      vertex -6.02583 18.5456 -36.8
    endloop
  endfacet
  facet normal 0 0 -1
    outer loop
      vertex -18.5456 6.02583 -36.8
      vertex -6.02583 18.5456 -36.8
      vertex 0 19.5 -36.8
    endloop
  endfacet
  facet normal 0 0 -1
    outer loop
      vertex -4.4962 13.8379 -36.8
      vertex 0 19.5 -36.8
      vertex 6.02583 18.5456 -36.8
    endloop
  endfacet
  facet normal 0 0 -1
    outer loop
      vertex 4.4962 13.8379 -36.8
      vertex 6.02583 18.5456 -36.8
      vertex 11.4618 15.7758 -36.8
    endloop
  endfacet
  facet normal 0 0 -1
    outer loop
      vertex 8.55227 11.7712 -36.8
      vertex 11.4618 15.7758 -36.8
      vertex 15.7758 11.4618 -36.8
    endloop
  endfacet
  facet normal 0 0 -1
    outer loop
      vertex 11.7712 8.55227 -36.8
      vertex 15.7758 11.4618 -36.8
      vertex 18.5456 6.02583 -36.8
    endloop
  endfacet
  facet normal 0 0 -1
    outer loop
      vertex 13.8379 4.4962 -36.8
      vertex 18.5456 6.02583 -36.8
      vertex 19 3.15688 -36.8
    endloop
  endfacet
  facet normal 0 0 -1
    outer loop
      vertex 14.55 0 -36.8
      vertex 19 3.15688 -36.8
      vertex 19 -3.15688 -36.8
    endloop
  endfacet
  facet normal 0 0 -1
    outer loop
      vertex 11.7712 -8.55227 -36.8
      vertex 18.5456 -6.02583 -36.8
      vertex 15.7758 -11.4618 -36.8
    endloop
  endfacet
  facet normal 0 0 -1
    outer loop
      vertex 8.55227 -11.7712 -36.8
      vertex 15.7758 -11.4618 -36.8
      vertex 11.4618 -15.7758 -36.8
    endloop
  endfacet
  facet normal 0 0 -1
    outer loop
      vertex 4.4962 -13.8379 -36.8
      vertex 11.4618 -15.7758 -36.8
      vertex 6.02583 -18.5456 -36.8
    endloop
  endfacet
  facet normal 0 0 -1
    outer loop
      vertex 0 -14.55 -36.8
      vertex 6.02583 -18.5456 -36.8
      vertex 0 -19.5 -36.8
    endloop
  endfacet
  facet normal 0 0 -1
    outer loop
      vertex -8.55227 -11.7712 -36.8
      vertex 0 -19.5 -36.8
      vertex -6.02583 -18.5456 -36.8
    endloop
  endfacet
  facet normal 0 0 -1
    outer loop
      vertex -11.7712 -8.55227 -36.8
      vertex -6.02583 -18.5456 -36.8
      vertex -11.4618 -15.7758 -36.8
    endloop
  endfacet
  facet normal 0 0 -1
    outer loop
      vertex -18.5456 6.02583 -36.8
      vertex -11.4618 -15.7758 -36.8
      vertex -15.7758 -11.4618 -36.8
    endloop
  endfacet
  facet normal 0 0 -1
    outer loop
      vertex -18.5456 6.02583 -36.8
      vertex -15.7758 -11.4618 -36.8
      vertex -18.5456 -6.02583 -36.8
    endloop
  endfacet
  facet normal 0 0 -1
    outer loop
      vertex -18.5456 6.02583 -36.8
      vertex -18.5456 -6.02583 -36.8
      vertex -19.5 0 -36.8
    endloop
  endfacet
  facet normal 0 0 -1
    outer loop
      vertex -8.55227 -11.7712 -36.8
      vertex -6.02583 -18.5456 -36.8
      vertex -11.7712 -8.55227 -36.8
    endloop
  endfacet
  facet normal 0 0 -1
    outer loop
      vertex -18.5456 6.02583 -36.8
      vertex -13.8379 -4.4962 -36.8
      vertex -11.4618 -15.7758 -36.8
    endloop
  endfacet
  facet normal 0 0 -1
    outer loop
      vertex -13.8379 -4.4962 -36.8
      vertex -11.7712 -8.55227 -36.8
      vertex -11.4618 -15.7758 -36.8
    endloop
  endfacet
  facet normal 0 0 -1
    outer loop
      vertex -4.4962 -13.8379 -36.8
      vertex 0 -19.5 -36.8
      vertex -8.55227 -11.7712 -36.8
    endloop
  endfacet
  facet normal 0 0 -1
    outer loop
      vertex 4.4962 -13.8379 -36.8
      vertex 6.02583 -18.5456 -36.8
      vertex 0 -14.55 -36.8
    endloop
  endfacet
  facet normal 0 0 -1
    outer loop
      vertex 8.55227 -11.7712 -36.8
      vertex 11.4618 -15.7758 -36.8
      vertex 4.4962 -13.8379 -36.8
    endloop
  endfacet
  facet normal 0 0 -1
    outer loop
      vertex 14.55 0 -36.8
      vertex 18.5456 -6.02583 -36.8
      vertex 13.8379 -4.4962 -36.8
    endloop
  endfacet
  facet normal 0 0 -1
    outer loop
      vertex 11.7712 -8.55227 -36.8
      vertex 15.7758 -11.4618 -36.8
      vertex 8.55227 -11.7712 -36.8
    endloop
  endfacet
  facet normal 0 0 -1
    outer loop
      vertex 13.8379 -4.4962 -36.8
      vertex 18.5456 -6.02583 -36.8
      vertex 11.7712 -8.55227 -36.8
    endloop
  endfacet
  facet normal 0 0 -1
    outer loop
      vertex 14.55 0 -36.8
      vertex 19 -3.15688 -36.8
      vertex 18.5456 -6.02583 -36.8
    endloop
  endfacet
  facet normal 0 0 -1
    outer loop
      vertex 13.8379 4.4962 -36.8
      vertex 19 3.15688 -36.8
      vertex 14.55 0 -36.8
    endloop
  endfacet
  facet normal 0 0 -1
    outer loop
      vertex 11.7712 8.55227 -36.8
      vertex 18.5456 6.02583 -36.8
      vertex 13.8379 4.4962 -36.8
    endloop
  endfacet
  facet normal 0 0 -1
    outer loop
      vertex 8.55227 11.7712 -36.8
      vertex 15.7758 11.4618 -36.8
      vertex 11.7712 8.55227 -36.8
    endloop
  endfacet
  facet normal 0 0 -1
    outer loop
      vertex 4.4962 13.8379 -36.8
      vertex 11.4618 15.7758 -36.8
      vertex 8.55227 11.7712 -36.8
    endloop
  endfacet
  facet normal 0 0 -1
    outer loop
      vertex 0 14.55 -36.8
      vertex 6.02583 18.5456 -36.8
      vertex 4.4962 13.8379 -36.8
    endloop
  endfacet
  facet normal 0 0 -1
    outer loop
      vertex -4.4962 13.8379 -36.8
      vertex 6.02583 18.5456 -36.8
      vertex 0 14.55 -36.8
    endloop
  endfacet
  facet normal 0 0 -1
    outer loop
      vertex -8.55227 11.7712 -36.8
      vertex 0 19.5 -36.8
      vertex -4.4962 13.8379 -36.8
    endloop
  endfacet
  facet normal 0 0 -1
    outer loop
      vertex -11.7712 8.55227 -36.8
      vertex -18.5456 6.02583 -36.8
      vertex -8.55227 11.7712 -36.8
    endloop
  endfacet
  facet normal 0 0 -1
    outer loop
      vertex -18.5456 6.02583 -36.8
      vertex 0 19.5 -36.8
      vertex -8.55227 11.7712 -36.8
    endloop
  endfacet
  facet normal 0 0 -1
    outer loop
      vertex -13.8379 4.4962 -36.8
      vertex -18.5456 6.02583 -36.8
      vertex -11.7712 8.55227 -36.8
    endloop
  endfacet
  facet normal 0 0 -1
    outer loop
      vertex -13.8379 -4.4962 -36.8
      vertex -18.5456 6.02583 -36.8
      vertex -14.55 0 -36.8
    endloop
  endfacet
  facet normal 0 0 -1
    outer loop
      vertex 0 -14.55 -36.8
      vertex 0 -19.5 -36.8
      vertex -4.4962 -13.8379 -36.8
    endloop
  endfacet
  facet normal 0 0 -1
    outer loop
      vertex -14.55 0 -36.8
      vertex -18.5456 6.02583 -36.8
      vertex -13.8379 4.4962 -36.8
    endloop
  endfacet
  facet normal 0 0 -1
    outer loop
      vertex 47 12.5 -36.2
      vertex 47 -12.5 -36.2
      vertex 19 12.5 -36.2
    endloop
  endfacet
  facet normal 0 0 -1
    outer loop
      vertex 19 12.5 -36.2
      vertex 47 -12.5 -36.2
      vertex 19 -12.5 -36.2
    endloop
  endfacet
  facet normal -0.987688 -0.156435 0
    outer loop
      vertex -14.55 0 -40.1
      vertex -13.8379 -4.4962 -40.1
      vertex -14.55 0 -36.8
    endloop
  endfacet
  facet normal -0.987688 -0.156435 0
    outer loop
      vertex -14.55 0 -36.8
      vertex -13.8379 -4.4962 -40.1
      vertex -13.8379 -4.4962 -36.8
    endloop
  endfacet
  facet normal -0.891007 -0.453991 0
    outer loop
      vertex -13.8379 -4.4962 -40.1
      vertex -11.7712 -8.55227 -40.1
      vertex -13.8379 -4.4962 -36.8
    endloop
  endfacet
  facet normal -0.891007 -0.453991 0
    outer loop
      vertex -13.8379 -4.4962 -36.8
      vertex -11.7712 -8.55227 -40.1
      vertex -11.7712 -8.55227 -36.8
    endloop
  endfacet
  facet normal -0.987688 0.156435 0
    outer loop
      vertex -14.55 0 -40.1
      vertex -14.55 0 -36.8
      vertex -13.8379 4.4962 -40.1
    endloop
  endfacet
  facet normal -0.987688 0.156435 0
    outer loop
      vertex -13.8379 4.4962 -40.1
      vertex -14.55 0 -36.8
      vertex -13.8379 4.4962 -36.8
    endloop
  endfacet
  facet normal -0.891007 0.453991 0
    outer loop
      vertex -13.8379 4.4962 -40.1
      vertex -13.8379 4.4962 -36.8
      vertex -11.7712 8.55227 -40.1
    endloop
  endfacet
  facet normal -0.891007 0.453991 0
    outer loop
      vertex -11.7712 8.55227 -40.1
      vertex -13.8379 4.4962 -36.8
      vertex -11.7712 8.55227 -36.8
    endloop
  endfacet
  facet normal -0.707107 0.707107 0
    outer loop
      vertex -11.7712 8.55227 -40.1
      vertex -11.7712 8.55227 -36.8
      vertex -8.55227 11.7712 -40.1
    endloop
  endfacet
  facet normal -0.707107 0.707107 0
    outer loop
      vertex -8.55227 11.7712 -40.1
      vertex -11.7712 8.55227 -36.8
      vertex -8.55227 11.7712 -36.8
    endloop
  endfacet
  facet normal -0.453991 0.891007 0
    outer loop
      vertex -8.55227 11.7712 -40.1
      vertex -8.55227 11.7712 -36.8
      vertex -4.4962 13.8379 -40.1
    endloop
  endfacet
  facet normal -0.453991 0.891007 0
    outer loop
      vertex -4.4962 13.8379 -40.1
      vertex -8.55227 11.7712 -36.8
      vertex -4.4962 13.8379 -36.8
    endloop
  endfacet
  facet normal -0.156435 0.987688 0
    outer loop
      vertex -4.4962 13.8379 -40.1
      vertex -4.4962 13.8379 -36.8
      vertex 0 14.55 -40.1
    endloop
  endfacet
  facet normal -0.156435 0.987688 0
    outer loop
      vertex 0 14.55 -40.1
      vertex -4.4962 13.8379 -36.8
      vertex 0 14.55 -36.8
    endloop
  endfacet
  facet normal 0.156435 0.987688 0
    outer loop
      vertex 0 14.55 -40.1
      vertex 0 14.55 -36.8
      vertex 4.4962 13.8379 -40.1
    endloop
  endfacet
  facet normal 0.156435 0.987688 0
    outer loop
      vertex 4.4962 13.8379 -40.1
      vertex 0 14.55 -36.8
      vertex 4.4962 13.8379 -36.8
    endloop
  endfacet
  facet normal 0.453991 0.891007 0
    outer loop
      vertex 4.4962 13.8379 -40.1
      vertex 4.4962 13.8379 -36.8
      vertex 8.55227 11.7712 -40.1
    endloop
  endfacet
  facet normal 0.453991 0.891007 0
    outer loop
      vertex 8.55227 11.7712 -40.1
      vertex 4.4962 13.8379 -36.8
      vertex 8.55227 11.7712 -36.8
    endloop
  endfacet
  facet normal 0.707107 0.707107 0
    outer loop
      vertex 8.55227 11.7712 -40.1
      vertex 8.55227 11.7712 -36.8
      vertex 11.7712 8.55227 -40.1
    endloop
  endfacet
  facet normal 0.707107 0.707107 0
    outer loop
      vertex 11.7712 8.55227 -40.1
      vertex 8.55227 11.7712 -36.8
      vertex 11.7712 8.55227 -36.8
    endloop
  endfacet
  facet normal 0.891007 0.453991 0
    outer loop
      vertex 13.8379 4.4962 -40.1
      vertex 11.7712 8.55227 -40.1
      vertex 11.7712 8.55227 -36.8
    endloop
  endfacet
  facet normal 0.891007 0.453991 0
    outer loop
      vertex 13.8379 4.4962 -36.8
      vertex 13.8379 4.4962 -40.1
      vertex 11.7712 8.55227 -36.8
    endloop
  endfacet
  facet normal 0.987688 0.156435 0
    outer loop
      vertex 14.55 0 -40.1
      vertex 13.8379 4.4962 -40.1
      vertex 13.8379 4.4962 -36.8
    endloop
  endfacet
  facet normal 0.987688 0.156435 0
    outer loop
      vertex 14.55 0 -36.8
      vertex 14.55 0 -40.1
      vertex 13.8379 4.4962 -36.8
    endloop
  endfacet
  facet normal 0.987688 -0.156435 0
    outer loop
      vertex 13.8379 -4.4962 -36.8
      vertex 13.8379 -4.4962 -40.1
      vertex 14.55 0 -40.1
    endloop
  endfacet
  facet normal 0.987688 -0.156435 0
    outer loop
      vertex 14.55 0 -36.8
      vertex 13.8379 -4.4962 -36.8
      vertex 14.55 0 -40.1
    endloop
  endfacet
  facet normal 0.891007 -0.453991 0
    outer loop
      vertex 11.7712 -8.55227 -36.8
      vertex 11.7712 -8.55227 -40.1
      vertex 13.8379 -4.4962 -40.1
    endloop
  endfacet
  facet normal 0.891007 -0.453991 0
    outer loop
      vertex 13.8379 -4.4962 -36.8
      vertex 11.7712 -8.55227 -36.8
      vertex 13.8379 -4.4962 -40.1
    endloop
  endfacet
  facet normal 0.707107 -0.707107 0
    outer loop
      vertex 8.55227 -11.7712 -36.8
      vertex 8.55227 -11.7712 -40.1
      vertex 11.7712 -8.55227 -40.1
    endloop
  endfacet
  facet normal 0.707107 -0.707107 0
    outer loop
      vertex 11.7712 -8.55227 -36.8
      vertex 8.55227 -11.7712 -36.8
      vertex 11.7712 -8.55227 -40.1
    endloop
  endfacet
  facet normal 0.453991 -0.891007 0
    outer loop
      vertex 4.4962 -13.8379 -36.8
      vertex 4.4962 -13.8379 -40.1
      vertex 8.55227 -11.7712 -40.1
    endloop
  endfacet
  facet normal 0.453991 -0.891007 0
    outer loop
      vertex 8.55227 -11.7712 -36.8
      vertex 4.4962 -13.8379 -36.8
      vertex 8.55227 -11.7712 -40.1
    endloop
  endfacet
  facet normal 0.156435 -0.987688 0
    outer loop
      vertex 0 -14.55 -36.8
      vertex 0 -14.55 -40.1
      vertex 4.4962 -13.8379 -40.1
    endloop
  endfacet
  facet normal 0.156435 -0.987688 0
    outer loop
      vertex 4.4962 -13.8379 -36.8
      vertex 0 -14.55 -36.8
      vertex 4.4962 -13.8379 -40.1
    endloop
  endfacet
  facet normal -0.156435 -0.987688 0
    outer loop
      vertex -4.4962 -13.8379 -36.8
      vertex -4.4962 -13.8379 -40.1
      vertex 0 -14.55 -40.1
    endloop
  endfacet
  facet normal -0.156435 -0.987688 0
    outer loop
      vertex 0 -14.55 -36.8
      vertex -4.4962 -13.8379 -36.8
      vertex 0 -14.55 -40.1
    endloop
  endfacet
  facet normal -0.453991 -0.891007 0
    outer loop
      vertex -8.55227 -11.7712 -36.8
      vertex -8.55227 -11.7712 -40.1
      vertex -4.4962 -13.8379 -40.1
    endloop
  endfacet
  facet normal -0.453991 -0.891007 0
    outer loop
      vertex -4.4962 -13.8379 -36.8
      vertex -8.55227 -11.7712 -36.8
      vertex -4.4962 -13.8379 -40.1
    endloop
  endfacet
  facet normal -0.707107 -0.707107 0
    outer loop
      vertex -11.7712 -8.55227 -36.8
      vertex -11.7712 -8.55227 -40.1
      vertex -8.55227 -11.7712 -40.1
    endloop
  endfacet
  facet normal -0.707107 -0.707107 0
    outer loop
      vertex -8.55227 -11.7712 -36.8
      vertex -11.7712 -8.55227 -36.8
      vertex -8.55227 -11.7712 -40.1
    endloop
  endfacet
  facet normal 0 0 -1
    outer loop
      vertex -14.55 0 -40.1
      vertex -13.8379 4.4962 -40.1
      vertex -13.8379 -4.4962 -40.1
    endloop
  endfacet
  facet normal 0 0 -1
    outer loop
      vertex -13.8379 -4.4962 -40.1
      vertex -13.8379 4.4962 -40.1
      vertex -11.7712 8.55227 -40.1
    endloop
  endfacet
  facet normal 0 0 -1
    outer loop
      vertex -13.8379 -4.4962 -40.1
      vertex -11.7712 8.55227 -40.1
      vertex -8.55227 11.7712 -40.1
    endloop
  endfacet
  facet normal 0 0 -1
    outer loop
      vertex -13.8379 -4.4962 -40.1
      vertex -8.55227 11.7712 -40.1
      vertex -4.4962 13.8379 -40.1
    endloop
  endfacet
  facet normal 0 0 -1
    outer loop
      vertex -13.8379 -4.4962 -40.1
      vertex -4.4962 13.8379 -40.1
      vertex 0 14.55 -40.1
    endloop
  endfacet
  facet normal 0 0 -1
    outer loop
      vertex -13.8379 -4.4962 -40.1
      vertex 0 14.55 -40.1
      vertex 4.4962 13.8379 -40.1
    endloop
  endfacet
  facet normal 0 0 -1
    outer loop
      vertex -13.8379 -4.4962 -40.1
      vertex 4.4962 13.8379 -40.1
      vertex 8.55227 11.7712 -40.1
    endloop
  endfacet
  facet normal 0 0 -1
    outer loop
      vertex -13.8379 -4.4962 -40.1
      vertex 8.55227 11.7712 -40.1
      vertex 11.7712 8.55227 -40.1
    endloop
  endfacet
  facet normal 0 0 -1
    outer loop
      vertex -13.8379 -4.4962 -40.1
      vertex 11.7712 8.55227 -40.1
      vertex 13.8379 4.4962 -40.1
    endloop
  endfacet
  facet normal 0 0 -1
    outer loop
      vertex -13.8379 -4.4962 -40.1
      vertex 13.8379 4.4962 -40.1
      vertex 14.55 0 -40.1
    endloop
  endfacet
  facet normal 0 0 -1
    outer loop
      vertex -13.8379 -4.4962 -40.1
      vertex 14.55 0 -40.1
      vertex 13.8379 -4.4962 -40.1
    endloop
  endfacet
  facet normal 0 0 -1
    outer loop
      vertex -13.8379 -4.4962 -40.1
      vertex 13.8379 -4.4962 -40.1
      vertex 11.7712 -8.55227 -40.1
    endloop
  endfacet
  facet normal 0 0 -1
    outer loop
      vertex -13.8379 -4.4962 -40.1
      vertex 11.7712 -8.55227 -40.1
      vertex 8.55227 -11.7712 -40.1
    endloop
  endfacet
  facet normal 0 0 -1
    outer loop
      vertex -13.8379 -4.4962 -40.1
      vertex 8.55227 -11.7712 -40.1
      vertex 4.4962 -13.8379 -40.1
    endloop
  endfacet
  facet normal 0 0 -1
    outer loop
      vertex -13.8379 -4.4962 -40.1
      vertex 4.4962 -13.8379 -40.1
      vertex 0 -14.55 -40.1
    endloop
  endfacet
  facet normal 0 0 -1
    outer loop
      vertex -13.8379 -4.4962 -40.1
      vertex 0 -14.55 -40.1
      vertex -4.4962 -13.8379 -40.1
    endloop
  endfacet
  facet normal 0 0 -1
    outer loop
      vertex -13.8379 -4.4962 -40.1
      vertex -4.4962 -13.8379 -40.1
      vertex -8.55227 -11.7712 -40.1
    endloop
  endfacet
  facet normal 0 0 -1
    outer loop
      vertex -13.8379 -4.4962 -40.1
      vertex -8.55227 -11.7712 -40.1
      vertex -11.7712 -8.55227 -40.1
    endloop
  endfacet
endsolid OpenSCAD_Model
