solid OpenSCAD_Model
  facet normal 0 0 -1
    outer loop
      vertex 28.3349 -28.3349 -48
      vertex 38 -38 -48
      vertex -28.3349 -28.3349 -48
    endloop
  endfacet
  facet normal 0 0 -1
    outer loop
      vertex 28.3349 28.3349 -48
      vertex -38 38 -48
      vertex 38 38 -48
    endloop
  endfacet
  facet normal 0 0 -1
    outer loop
      vertex -38 -38 -48
      vertex -38 38 -48
      vertex -28.3349 -28.3349 -48
    endloop
  endfacet
  facet normal 0 0 -1
    outer loop
      vertex -38 -38 -48
      vertex -28.3349 -28.3349 -48
      vertex 38 -38 -48
    endloop
  endfacet
  facet normal 0 0 -1
    outer loop
      vertex 38 -38 -48
      vertex 28.3349 -28.3349 -48
      vertex 38 38 -48
    endloop
  endfacet
  facet normal 0 0 -1
    outer loop
      vertex -28.3349 28.3349 -48
      vertex -38 38 -48
      vertex 28.3349 28.3349 -48
    endloop
  endfacet
  facet normal 0 0 -1
    outer loop
      vertex 28.3349 -28.3349 -48
      vertex 28.3349 28.3349 -48
      vertex 38 38 -48
    endloop
  endfacet
  facet normal 0 0 -1
    outer loop
      vertex -28.3349 -28.3349 -48
      vertex -38 38 -48
      vertex -28.3349 28.3349 -48
    endloop
  endfacet
  facet normal -0.707107 -5.55112e-17 0.707107
    outer loop
      vertex -34 25 -44
      vertex -38 38 -48
      vertex -37 20 -47
    endloop
  endfacet
  facet normal -0.707107 -5.55112e-17 0.707107
    outer loop
      vertex -31 -20 -41
      vertex -30 -30 -40
      vertex -30 30 -40
    endloop
  endfacet
  facet normal -0.707107 -5.55112e-17 0.707107
    outer loop
      vertex -38 -38 -48
      vertex -30 -30 -40
      vertex -34 -25 -44
    endloop
  endfacet
  facet normal -0.707107 -5.55112e-17 0.707107
    outer loop
      vertex -34 15 -44
      vertex -34 5 -44
      vertex -31 20 -41
    endloop
  endfacet
  facet normal -0.707107 -5.55112e-17 0.707107
    outer loop
      vertex -38 -38 -48
      vertex -34 -25 -44
      vertex -37 -20 -47
    endloop
  endfacet
  facet normal -0.707107 -5.55112e-17 0.707107
    outer loop
      vertex -38 -38 -48
      vertex -37 -20 -47
      vertex -38 38 -48
    endloop
  endfacet
  facet normal -0.707107 -5.55112e-17 0.707107
    outer loop
      vertex -34 -5 -44
      vertex -31 -20 -41
      vertex -31 -4.86729e-15 -41
    endloop
  endfacet
  facet normal -0.707107 -5.55112e-17 0.707107
    outer loop
      vertex -31 -4.86729e-15 -41
      vertex -31 -20 -41
      vertex -30 30 -40
    endloop
  endfacet
  facet normal -0.707107 -5.55112e-17 0.707107
    outer loop
      vertex -34 5 -44
      vertex -37 20 -47
      vertex -37 3.62751e-07 -47
    endloop
  endfacet
  facet normal -0.707107 -5.55112e-17 0.707107
    outer loop
      vertex -37 -20 -47
      vertex -37 -3.62751e-07 -47
      vertex -38 38 -48
    endloop
  endfacet
  facet normal -0.707107 -5.55112e-17 0.707107
    outer loop
      vertex -37 -3.62751e-07 -47
      vertex -37 3.62751e-07 -47
      vertex -38 38 -48
    endloop
  endfacet
  facet normal -0.707107 -5.55112e-17 0.707107
    outer loop
      vertex -37 20 -47
      vertex -34 5 -44
      vertex -34 15 -44
    endloop
  endfacet
  facet normal -0.707107 -5.55112e-17 0.707107
    outer loop
      vertex -31 20 -41
      vertex -31 -4.86729e-15 -41
      vertex -30 30 -40
    endloop
  endfacet
  facet normal -0.707107 -5.55112e-17 0.707107
    outer loop
      vertex -37 3.62751e-07 -47
      vertex -37 20 -47
      vertex -38 38 -48
    endloop
  endfacet
  facet normal -0.707107 -5.55112e-17 0.707107
    outer loop
      vertex -31 20 -41
      vertex -30 30 -40
      vertex -34 25 -44
    endloop
  endfacet
  facet normal -0.707107 -5.55112e-17 0.707107
    outer loop
      vertex -38 38 -48
      vertex -34 25 -44
      vertex -30 30 -40
    endloop
  endfacet
  facet normal -0.707107 -5.55112e-17 0.707107
    outer loop
      vertex -34 5 -44
      vertex -31 -4.86729e-15 -41
      vertex -31 20 -41
    endloop
  endfacet
  facet normal -0.707107 -5.55112e-17 0.707107
    outer loop
      vertex -34 -25 -44
      vertex -30 -30 -40
      vertex -31 -20 -41
    endloop
  endfacet
  facet normal -0.707107 -5.55112e-17 0.707107
    outer loop
      vertex -37 -3.62751e-07 -47
      vertex -34 -15 -44
      vertex -34 -5 -44
    endloop
  endfacet
  facet normal -0.707107 -5.55112e-17 0.707107
    outer loop
      vertex -31 -20 -41
      vertex -34 -5 -44
      vertex -34 -15 -44
    endloop
  endfacet
  facet normal -0.707107 -5.55112e-17 0.707107
    outer loop
      vertex -34 -15 -44
      vertex -37 -3.62751e-07 -47
      vertex -37 -20 -47
    endloop
  endfacet
  facet normal 5.55112e-17 -0.707107 0.707107
    outer loop
      vertex -20 -37 -47
      vertex -38 -38 -48
      vertex 38 -38 -48
    endloop
  endfacet
  facet normal 5.55112e-17 -0.707107 0.707107
    outer loop
      vertex 20 -37 -47
      vertex 15 -34 -44
      vertex 5 -34 -44
    endloop
  endfacet
  facet normal 5.55112e-17 -0.707107 0.707107
    outer loop
      vertex -25 -34 -44
      vertex -38 -38 -48
      vertex -20 -37 -47
    endloop
  endfacet
  facet normal 5.55112e-17 -0.707107 0.707107
    outer loop
      vertex -3.62751e-07 -37 -47
      vertex -5 -34 -44
      vertex -15 -34 -44
    endloop
  endfacet
  facet normal 5.55112e-17 -0.707107 0.707107
    outer loop
      vertex -30 -30 -40
      vertex -38 -38 -48
      vertex -25 -34 -44
    endloop
  endfacet
  facet normal 5.55112e-17 -0.707107 0.707107
    outer loop
      vertex 30 -30 -40
      vertex -30 -30 -40
      vertex -20 -31 -41
    endloop
  endfacet
  facet normal 5.55112e-17 -0.707107 0.707107
    outer loop
      vertex -3.62751e-07 -37 -47
      vertex -20 -37 -47
      vertex 38 -38 -48
    endloop
  endfacet
  facet normal 5.55112e-17 -0.707107 0.707107
    outer loop
      vertex 3.62751e-07 -37 -47
      vertex -3.62751e-07 -37 -47
      vertex 38 -38 -48
    endloop
  endfacet
  facet normal 5.55112e-17 -0.707107 0.707107
    outer loop
      vertex -15 -34 -44
      vertex -20 -37 -47
      vertex -3.62751e-07 -37 -47
    endloop
  endfacet
  facet normal 5.55112e-17 -0.707107 0.707107
    outer loop
      vertex 25 -34 -44
      vertex 20 -37 -47
      vertex 38 -38 -48
    endloop
  endfacet
  facet normal 5.55112e-17 -0.707107 0.707107
    outer loop
      vertex 30 -30 -40
      vertex -20 -31 -41
      vertex -2.43364e-15 -31 -41
    endloop
  endfacet
  facet normal 5.55112e-17 -0.707107 0.707107
    outer loop
      vertex 20 -37 -47
      vertex 3.62751e-07 -37 -47
      vertex 38 -38 -48
    endloop
  endfacet
  facet normal 5.55112e-17 -0.707107 0.707107
    outer loop
      vertex 5 -34 -44
      vertex 3.62751e-07 -37 -47
      vertex 20 -37 -47
    endloop
  endfacet
  facet normal 5.55112e-17 -0.707107 0.707107
    outer loop
      vertex -2.43364e-15 -31 -41
      vertex 5 -34 -44
      vertex 15 -34 -44
    endloop
  endfacet
  facet normal 5.55112e-17 -0.707107 0.707107
    outer loop
      vertex 30 -30 -40
      vertex 20 -31 -41
      vertex 38 -38 -48
    endloop
  endfacet
  facet normal 5.55112e-17 -0.707107 0.707107
    outer loop
      vertex 30 -30 -40
      vertex -2.43364e-15 -31 -41
      vertex 20 -31 -41
    endloop
  endfacet
  facet normal 5.55112e-17 -0.707107 0.707107
    outer loop
      vertex 20 -31 -41
      vertex 25 -34 -44
      vertex 38 -38 -48
    endloop
  endfacet
  facet normal 5.55112e-17 -0.707107 0.707107
    outer loop
      vertex -5 -34 -44
      vertex -2.43364e-15 -31 -41
      vertex -20 -31 -41
    endloop
  endfacet
  facet normal 5.55112e-17 -0.707107 0.707107
    outer loop
      vertex 15 -34 -44
      vertex 20 -31 -41
      vertex -2.43364e-15 -31 -41
    endloop
  endfacet
  facet normal 5.55112e-17 -0.707107 0.707107
    outer loop
      vertex -20 -31 -41
      vertex -15 -34 -44
      vertex -5 -34 -44
    endloop
  endfacet
  facet normal 5.55112e-17 -0.707107 0.707107
    outer loop
      vertex -25 -34 -44
      vertex -20 -31 -41
      vertex -30 -30 -40
    endloop
  endfacet
  facet normal 0.707107 5.55112e-17 0.707107
    outer loop
      vertex 37 -20 -47
      vertex 38 -38 -48
      vertex 38 38 -48
    endloop
  endfacet
  facet normal 0.707107 5.55112e-17 0.707107
    outer loop
      vertex 30 -30 -40
      vertex 38 -38 -48
      vertex 34 -25 -44
    endloop
  endfacet
  facet normal 0.707107 5.55112e-17 0.707107
    outer loop
      vertex 30 30 -40
      vertex 30 -30 -40
      vertex 31 -20 -41
    endloop
  endfacet
  facet normal 0.707107 5.55112e-17 0.707107
    outer loop
      vertex 34 5 -44
      vertex 37 3.62751e-07 -47
      vertex 37 20 -47
    endloop
  endfacet
  facet normal 0.707107 5.55112e-17 0.707107
    outer loop
      vertex 37 -3.62751e-07 -47
      vertex 37 -20 -47
      vertex 38 38 -48
    endloop
  endfacet
  facet normal 0.707107 5.55112e-17 0.707107
    outer loop
      vertex 34 -25 -44
      vertex 38 -38 -48
      vertex 37 -20 -47
    endloop
  endfacet
  facet normal 0.707107 5.55112e-17 0.707107
    outer loop
      vertex 34 -5 -44
      vertex 31 2.43364e-15 -41
      vertex 31 -20 -41
    endloop
  endfacet
  facet normal 0.707107 5.55112e-17 0.707107
    outer loop
      vertex 34 25 -44
      vertex 37 20 -47
      vertex 38 38 -48
    endloop
  endfacet
  facet normal 0.707107 5.55112e-17 0.707107
    outer loop
      vertex 30 30 -40
      vertex 31 -20 -41
      vertex 31 2.43364e-15 -41
    endloop
  endfacet
  facet normal 0.707107 5.55112e-17 0.707107
    outer loop
      vertex 37 20 -47
      vertex 34 15 -44
      vertex 34 5 -44
    endloop
  endfacet
  facet normal 0.707107 5.55112e-17 0.707107
    outer loop
      vertex 37 3.62751e-07 -47
      vertex 37 -3.62751e-07 -47
      vertex 38 38 -48
    endloop
  endfacet
  facet normal 0.707107 5.55112e-17 0.707107
    outer loop
      vertex 31 2.43364e-15 -41
      vertex 34 5 -44
      vertex 34 15 -44
    endloop
  endfacet
  facet normal 0.707107 5.55112e-17 0.707107
    outer loop
      vertex 30 30 -40
      vertex 31 20 -41
      vertex 38 38 -48
    endloop
  endfacet
  facet normal 0.707107 5.55112e-17 0.707107
    outer loop
      vertex 30 30 -40
      vertex 31 2.43364e-15 -41
      vertex 31 20 -41
    endloop
  endfacet
  facet normal 0.707107 5.55112e-17 0.707107
    outer loop
      vertex 31 20 -41
      vertex 34 25 -44
      vertex 38 38 -48
    endloop
  endfacet
  facet normal 0.707107 5.55112e-17 0.707107
    outer loop
      vertex 37 -3.62751e-07 -47
      vertex 34 -5 -44
      vertex 34 -15 -44
    endloop
  endfacet
  facet normal 0.707107 5.55112e-17 0.707107
    outer loop
      vertex 37 20 -47
      vertex 37 3.62751e-07 -47
      vertex 38 38 -48
    endloop
  endfacet
  facet normal 0.707107 5.55112e-17 0.707107
    outer loop
      vertex 34 15 -44
      vertex 31 20 -41
      vertex 31 2.43364e-15 -41
    endloop
  endfacet
  facet normal 0.707107 5.55112e-17 0.707107
    outer loop
      vertex 31 -20 -41
      vertex 34 -15 -44
      vertex 34 -5 -44
    endloop
  endfacet
  facet normal 0.707107 5.55112e-17 0.707107
    outer loop
      vertex 34 -25 -44
      vertex 31 -20 -41
      vertex 30 -30 -40
    endloop
  endfacet
  facet normal 0.707107 5.55112e-17 0.707107
    outer loop
      vertex 34 -15 -44
      vertex 37 -20 -47
      vertex 37 -3.62751e-07 -47
    endloop
  endfacet
  facet normal -5.55112e-17 0.707107 0.707107
    outer loop
      vertex -15 34 -44
      vertex -5 34 -44
      vertex -20 37 -47
    endloop
  endfacet
  facet normal -5.55112e-17 0.707107 0.707107
    outer loop
      vertex 25 34 -44
      vertex 30 30 -40
      vertex 38 38 -48
    endloop
  endfacet
  facet normal -5.55112e-17 0.707107 0.707107
    outer loop
      vertex -30 30 -40
      vertex 30 30 -40
      vertex -20 31 -41
    endloop
  endfacet
  facet normal -5.55112e-17 0.707107 0.707107
    outer loop
      vertex -30 30 -40
      vertex -20 31 -41
      vertex -38 38 -48
    endloop
  endfacet
  facet normal -5.55112e-17 0.707107 0.707107
    outer loop
      vertex 25 34 -44
      vertex 38 38 -48
      vertex 20 37 -47
    endloop
  endfacet
  facet normal -5.55112e-17 0.707107 0.707107
    outer loop
      vertex -20 31 -41
      vertex -25 34 -44
      vertex -38 38 -48
    endloop
  endfacet
  facet normal -5.55112e-17 0.707107 0.707107
    outer loop
      vertex -38 38 -48
      vertex -20 37 -47
      vertex 38 38 -48
    endloop
  endfacet
  facet normal -5.55112e-17 0.707107 0.707107
    outer loop
      vertex 2.43364e-15 31 -41
      vertex 20 31 -41
      vertex 5 34 -44
    endloop
  endfacet
  facet normal -5.55112e-17 0.707107 0.707107
    outer loop
      vertex 2.43364e-15 31 -41
      vertex 30 30 -40
      vertex 20 31 -41
    endloop
  endfacet
  facet normal -5.55112e-17 0.707107 0.707107
    outer loop
      vertex -20 31 -41
      vertex 30 30 -40
      vertex 2.43364e-15 31 -41
    endloop
  endfacet
  facet normal -5.55112e-17 0.707107 0.707107
    outer loop
      vertex -20 37 -47
      vertex -38 38 -48
      vertex -25 34 -44
    endloop
  endfacet
  facet normal -5.55112e-17 0.707107 0.707107
    outer loop
      vertex 20 31 -41
      vertex 30 30 -40
      vertex 25 34 -44
    endloop
  endfacet
  facet normal -5.55112e-17 0.707107 0.707107
    outer loop
      vertex -20 37 -47
      vertex -3.62751e-07 37 -47
      vertex 38 38 -48
    endloop
  endfacet
  facet normal -5.55112e-17 0.707107 0.707107
    outer loop
      vertex 15 34 -44
      vertex 3.62751e-07 37 -47
      vertex 5 34 -44
    endloop
  endfacet
  facet normal -5.55112e-17 0.707107 0.707107
    outer loop
      vertex -3.62751e-07 37 -47
      vertex 3.62751e-07 37 -47
      vertex 38 38 -48
    endloop
  endfacet
  facet normal -5.55112e-17 0.707107 0.707107
    outer loop
      vertex 15 34 -44
      vertex 5 34 -44
      vertex 20 31 -41
    endloop
  endfacet
  facet normal -5.55112e-17 0.707107 0.707107
    outer loop
      vertex 3.62751e-07 37 -47
      vertex 15 34 -44
      vertex 20 37 -47
    endloop
  endfacet
  facet normal -5.55112e-17 0.707107 0.707107
    outer loop
      vertex 3.62751e-07 37 -47
      vertex 20 37 -47
      vertex 38 38 -48
    endloop
  endfacet
  facet normal -5.55112e-17 0.707107 0.707107
    outer loop
      vertex -3.62751e-07 37 -47
      vertex -20 37 -47
      vertex -5 34 -44
    endloop
  endfacet
  facet normal -5.55112e-17 0.707107 0.707107
    outer loop
      vertex -20 31 -41
      vertex 2.43364e-15 31 -41
      vertex -15 34 -44
    endloop
  endfacet
  facet normal -5.55112e-17 0.707107 0.707107
    outer loop
      vertex -5 34 -44
      vertex -15 34 -44
      vertex 2.43364e-15 31 -41
    endloop
  endfacet
  facet normal 0.415098 1.44003e-16 -0.909777
    outer loop
      vertex -28.3349 28.3349 -48
      vertex -2.9 2.9 -36.395
      vertex -2.9 -2.9 -36.395
    endloop
  endfacet
  facet normal 0.415098 1.44003e-16 -0.909777
    outer loop
      vertex -28.3349 28.3349 -48
      vertex -2.9 -2.9 -36.395
      vertex -28.3349 -28.3349 -48
    endloop
  endfacet
  facet normal -3.25871e-17 0.415098 -0.909777
    outer loop
      vertex -2.9 -2.9 -36.395
      vertex 2.9 -2.9 -36.395
      vertex 28.3349 -28.3349 -48
    endloop
  endfacet
  facet normal -3.25871e-17 0.415098 -0.909777
    outer loop
      vertex -2.9 -2.9 -36.395
      vertex 28.3349 -28.3349 -48
      vertex -28.3349 -28.3349 -48
    endloop
  endfacet
  facet normal 3.25871e-17 -0.415098 -0.909777
    outer loop
      vertex 28.3349 28.3349 -48
      vertex 2.9 2.9 -36.395
      vertex -28.3349 28.3349 -48
    endloop
  endfacet
  facet normal 3.25871e-17 -0.415098 -0.909777
    outer loop
      vertex -2.9 2.9 -36.395
      vertex -28.3349 28.3349 -48
      vertex 2.9 2.9 -36.395
    endloop
  endfacet
  facet normal -0.415098 7.88284e-17 -0.909777
    outer loop
      vertex 2.9 2.9 -36.395
      vertex 28.3349 28.3349 -48
      vertex 2.9 -2.9 -36.395
    endloop
  endfacet
  facet normal -0.415098 7.88284e-17 -0.909777
    outer loop
      vertex 2.9 -2.9 -36.395
      vertex 28.3349 28.3349 -48
      vertex 28.3349 -28.3349 -48
    endloop
  endfacet
  facet normal 0 0 1
    outer loop
      vertex 13.7577 -13.7577 -40
      vertex -30 -30 -40
      vertex 30 -30 -40
    endloop
  endfacet
  facet normal 0 0 1
    outer loop
      vertex -13.7577 13.7577 -40
      vertex 13.7577 13.7577 -40
      vertex -30 30 -40
    endloop
  endfacet
  facet normal 0 0 1
    outer loop
      vertex -13.7577 -13.7577 -40
      vertex -30 -30 -40
      vertex 13.7577 -13.7577 -40
    endloop
  endfacet
  facet normal 0 0 1
    outer loop
      vertex -30 30 -40
      vertex -30 -30 -40
      vertex -13.7577 -13.7577 -40
    endloop
  endfacet
  facet normal 0 0 1
    outer loop
      vertex -30 30 -40
      vertex -13.7577 -13.7577 -40
      vertex -13.7577 13.7577 -40
    endloop
  endfacet
  facet normal 0 0 1
    outer loop
      vertex 30 30 -40
      vertex 13.7577 13.7577 -40
      vertex 30 -30 -40
    endloop
  endfacet
  facet normal 0 0 1
    outer loop
      vertex 30 30 -40
      vertex -30 30 -40
      vertex 13.7577 13.7577 -40
    endloop
  endfacet
  facet normal 0 0 1
    outer loop
      vertex 13.7577 13.7577 -40
      vertex 13.7577 -13.7577 -40
      vertex 30 -30 -40
    endloop
  endfacet
  facet normal 0.857493 -0.514496 0
    outer loop
      vertex -34 -25 -39
      vertex -34 -25 -44
      vertex -31 -20 -41
    endloop
  endfacet
  facet normal 0.857493 -0.514496 0
    outer loop
      vertex -31 -20 -39
      vertex -34 -25 -39
      vertex -31 -20 -41
    endloop
  endfacet
  facet normal -0.857493 -0.514496 0
    outer loop
      vertex -34 -25 -44
      vertex -34 -25 -39
      vertex -37 -20 -47
    endloop
  endfacet
  facet normal -0.857493 -0.514496 0
    outer loop
      vertex -37 -20 -47
      vertex -34 -25 -39
      vertex -37 -20 -39
    endloop
  endfacet
  facet normal 0.857493 0.514496 0
    outer loop
      vertex -31 -20 -39
      vertex -31 -20 -41
      vertex -34 -15 -44
    endloop
  endfacet
  facet normal 0.857493 0.514496 0
    outer loop
      vertex -34 -15 -39
      vertex -31 -20 -39
      vertex -34 -15 -44
    endloop
  endfacet
  facet normal -0.857493 0.514496 0
    outer loop
      vertex -37 -20 -47
      vertex -37 -20 -39
      vertex -34 -15 -39
    endloop
  endfacet
  facet normal -0.857493 0.514496 0
    outer loop
      vertex -37 -20 -47
      vertex -34 -15 -39
      vertex -34 -15 -44
    endloop
  endfacet
  facet normal 0.857493 -0.514496 0
    outer loop
      vertex -34 -5 -39
      vertex -34 -5 -44
      vertex -31 -4.86729e-15 -41
    endloop
  endfacet
  facet normal 0.857493 -0.514496 0
    outer loop
      vertex -31 -4.86729e-15 -39
      vertex -34 -5 -39
      vertex -31 -4.86729e-15 -41
    endloop
  endfacet
  facet normal -0.857493 -0.514496 0
    outer loop
      vertex -34 -5 -44
      vertex -34 -5 -39
      vertex -37 -3.62751e-07 -47
    endloop
  endfacet
  facet normal -0.857493 -0.514496 0
    outer loop
      vertex -37 -3.62751e-07 -47
      vertex -34 -5 -39
      vertex -37 -5.80934e-15 -39
    endloop
  endfacet
  facet normal -0.857493 -0.514496 0
    outer loop
      vertex -37 -3.62751e-07 -47
      vertex -37 -5.80934e-15 -39
      vertex -37 -5.80934e-15 -47
    endloop
  endfacet
  facet normal 0.857493 0.514496 0
    outer loop
      vertex -31 -4.86729e-15 -39
      vertex -31 -4.86729e-15 -41
      vertex -34 5 -44
    endloop
  endfacet
  facet normal 0.857493 0.514496 0
    outer loop
      vertex -34 5 -39
      vertex -31 -4.86729e-15 -39
      vertex -34 5 -44
    endloop
  endfacet
  facet normal -0.857493 0.514496 0
    outer loop
      vertex -37 -5.80934e-15 -47
      vertex -37 -5.80934e-15 -39
      vertex -37 3.62751e-07 -47
    endloop
  endfacet
  facet normal -0.857493 0.514496 0
    outer loop
      vertex -37 3.62751e-07 -47
      vertex -37 -5.80934e-15 -39
      vertex -34 5 -39
    endloop
  endfacet
  facet normal -0.857493 0.514496 0
    outer loop
      vertex -37 3.62751e-07 -47
      vertex -34 5 -39
      vertex -34 5 -44
    endloop
  endfacet
  facet normal 0 0 -1
    outer loop
      vertex -37 3.62751e-07 -47
      vertex -37 -3.62751e-07 -47
      vertex -37 -5.80934e-15 -47
    endloop
  endfacet
  facet normal 0.857493 -0.514496 0
    outer loop
      vertex -34 15 -39
      vertex -34 15 -44
      vertex -31 20 -41
    endloop
  endfacet
  facet normal 0.857493 -0.514496 0
    outer loop
      vertex -31 20 -39
      vertex -34 15 -39
      vertex -31 20 -41
    endloop
  endfacet
  facet normal -0.857493 -0.514496 0
    outer loop
      vertex -34 15 -44
      vertex -34 15 -39
      vertex -37 20 -47
    endloop
  endfacet
  facet normal -0.857493 -0.514496 0
    outer loop
      vertex -37 20 -47
      vertex -34 15 -39
      vertex -37 20 -39
    endloop
  endfacet
  facet normal 0.857493 0.514496 0
    outer loop
      vertex -31 20 -39
      vertex -31 20 -41
      vertex -34 25 -44
    endloop
  endfacet
  facet normal 0.857493 0.514496 0
    outer loop
      vertex -34 25 -39
      vertex -31 20 -39
      vertex -34 25 -44
    endloop
  endfacet
  facet normal -0.857493 0.514496 0
    outer loop
      vertex -37 20 -47
      vertex -37 20 -39
      vertex -34 25 -39
    endloop
  endfacet
  facet normal -0.857493 0.514496 0
    outer loop
      vertex -37 20 -47
      vertex -34 25 -39
      vertex -34 25 -44
    endloop
  endfacet
  facet normal -0.514496 -0.857493 0
    outer loop
      vertex -25 -34 -39
      vertex -25 -34 -44
      vertex -20 -37 -47
    endloop
  endfacet
  facet normal -0.514496 -0.857493 0
    outer loop
      vertex -20 -37 -39
      vertex -25 -34 -39
      vertex -20 -37 -47
    endloop
  endfacet
  facet normal 0.514496 -0.857493 0
    outer loop
      vertex -15 -34 -39
      vertex -20 -37 -39
      vertex -15 -34 -44
    endloop
  endfacet
  facet normal 0.514496 -0.857493 0
    outer loop
      vertex -15 -34 -44
      vertex -20 -37 -39
      vertex -20 -37 -47
    endloop
  endfacet
  facet normal 0.514496 0.857493 0
    outer loop
      vertex -20 -31 -41
      vertex -20 -31 -39
      vertex -15 -34 -44
    endloop
  endfacet
  facet normal 0.514496 0.857493 0
    outer loop
      vertex -15 -34 -44
      vertex -20 -31 -39
      vertex -15 -34 -39
    endloop
  endfacet
  facet normal -0.514496 0.857493 0
    outer loop
      vertex -25 -34 -44
      vertex -25 -34 -39
      vertex -20 -31 -41
    endloop
  endfacet
  facet normal -0.514496 0.857493 0
    outer loop
      vertex -20 -31 -41
      vertex -25 -34 -39
      vertex -20 -31 -39
    endloop
  endfacet
  facet normal -0.514496 -0.857493 0
    outer loop
      vertex -5 -34 -39
      vertex -5 -34 -44
      vertex -3.62751e-07 -37 -47
    endloop
  endfacet
  facet normal -0.514496 -0.857493 0
    outer loop
      vertex -2.90467e-15 -37 -39
      vertex -5 -34 -39
      vertex -2.90467e-15 -37 -47
    endloop
  endfacet
  facet normal -0.514496 -0.857493 0
    outer loop
      vertex -2.90467e-15 -37 -47
      vertex -5 -34 -39
      vertex -3.62751e-07 -37 -47
    endloop
  endfacet
  facet normal 0 0 -1
    outer loop
      vertex -2.90467e-15 -37 -47
      vertex -3.62751e-07 -37 -47
      vertex 3.62751e-07 -37 -47
    endloop
  endfacet
  facet normal 0.514496 -0.857493 0
    outer loop
      vertex -2.90467e-15 -37 -39
      vertex -2.90467e-15 -37 -47
      vertex 3.62751e-07 -37 -47
    endloop
  endfacet
  facet normal 0.514496 -0.857493 0
    outer loop
      vertex 5 -34 -39
      vertex -2.90467e-15 -37 -39
      vertex 5 -34 -44
    endloop
  endfacet
  facet normal 0.514496 -0.857493 0
    outer loop
      vertex 5 -34 -44
      vertex -2.90467e-15 -37 -39
      vertex 3.62751e-07 -37 -47
    endloop
  endfacet
  facet normal 0.514496 0.857493 0
    outer loop
      vertex -2.43364e-15 -31 -41
      vertex -2.43364e-15 -31 -39
      vertex 5 -34 -44
    endloop
  endfacet
  facet normal 0.514496 0.857493 0
    outer loop
      vertex 5 -34 -44
      vertex -2.43364e-15 -31 -39
      vertex 5 -34 -39
    endloop
  endfacet
  facet normal -0.514496 0.857493 0
    outer loop
      vertex -5 -34 -44
      vertex -5 -34 -39
      vertex -2.43364e-15 -31 -41
    endloop
  endfacet
  facet normal -0.514496 0.857493 0
    outer loop
      vertex -2.43364e-15 -31 -41
      vertex -5 -34 -39
      vertex -2.43364e-15 -31 -39
    endloop
  endfacet
  facet normal -0.514496 -0.857493 0
    outer loop
      vertex 15 -34 -39
      vertex 15 -34 -44
      vertex 20 -37 -47
    endloop
  endfacet
  facet normal -0.514496 -0.857493 0
    outer loop
      vertex 20 -37 -39
      vertex 15 -34 -39
      vertex 20 -37 -47
    endloop
  endfacet
  facet normal 0.514496 -0.857493 0
    outer loop
      vertex 25 -34 -39
      vertex 20 -37 -39
      vertex 25 -34 -44
    endloop
  endfacet
  facet normal 0.514496 -0.857493 0
    outer loop
      vertex 25 -34 -44
      vertex 20 -37 -39
      vertex 20 -37 -47
    endloop
  endfacet
  facet normal 0.514496 0.857493 0
    outer loop
      vertex 20 -31 -41
      vertex 20 -31 -39
      vertex 25 -34 -44
    endloop
  endfacet
  facet normal 0.514496 0.857493 0
    outer loop
      vertex 25 -34 -44
      vertex 20 -31 -39
      vertex 25 -34 -39
    endloop
  endfacet
  facet normal -0.514496 0.857493 0
    outer loop
      vertex 15 -34 -44
      vertex 15 -34 -39
      vertex 20 -31 -41
    endloop
  endfacet
  facet normal -0.514496 0.857493 0
    outer loop
      vertex 20 -31 -41
      vertex 15 -34 -39
      vertex 20 -31 -39
    endloop
  endfacet
  facet normal -0.857493 -0.514496 0
    outer loop
      vertex 34 -25 -44
      vertex 34 -25 -39
      vertex 31 -20 -41
    endloop
  endfacet
  facet normal -0.857493 -0.514496 0
    outer loop
      vertex 31 -20 -41
      vertex 34 -25 -39
      vertex 31 -20 -39
    endloop
  endfacet
  facet normal 0.857493 -0.514496 0
    outer loop
      vertex 34 -25 -39
      vertex 34 -25 -44
      vertex 37 -20 -47
    endloop
  endfacet
  facet normal 0.857493 -0.514496 0
    outer loop
      vertex 37 -20 -39
      vertex 34 -25 -39
      vertex 37 -20 -47
    endloop
  endfacet
  facet normal 0.857493 0.514496 0
    outer loop
      vertex 34 -15 -39
      vertex 37 -20 -39
      vertex 34 -15 -44
    endloop
  endfacet
  facet normal 0.857493 0.514496 0
    outer loop
      vertex 34 -15 -44
      vertex 37 -20 -39
      vertex 37 -20 -47
    endloop
  endfacet
  facet normal -0.857493 0.514496 0
    outer loop
      vertex 31 -20 -41
      vertex 31 -20 -39
      vertex 34 -15 -44
    endloop
  endfacet
  facet normal -0.857493 0.514496 0
    outer loop
      vertex 34 -15 -44
      vertex 31 -20 -39
      vertex 34 -15 -39
    endloop
  endfacet
  facet normal -0.857493 -0.514496 0
    outer loop
      vertex 34 -5 -44
      vertex 34 -5 -39
      vertex 31 2.43364e-15 -41
    endloop
  endfacet
  facet normal -0.857493 -0.514496 0
    outer loop
      vertex 31 2.43364e-15 -41
      vertex 34 -5 -39
      vertex 31 2.43364e-15 -39
    endloop
  endfacet
  facet normal 0.857493 -0.514496 0
    outer loop
      vertex 34 -5 -39
      vertex 34 -5 -44
      vertex 37 -3.62751e-07 -47
    endloop
  endfacet
  facet normal 0.857493 -0.514496 0
    outer loop
      vertex 37 2.90467e-15 -39
      vertex 34 -5 -39
      vertex 37 2.90467e-15 -47
    endloop
  endfacet
  facet normal 0.857493 -0.514496 0
    outer loop
      vertex 37 2.90467e-15 -47
      vertex 34 -5 -39
      vertex 37 -3.62751e-07 -47
    endloop
  endfacet
  facet normal 0 0 -1
    outer loop
      vertex 37 2.90467e-15 -47
      vertex 37 -3.62751e-07 -47
      vertex 37 3.62751e-07 -47
    endloop
  endfacet
  facet normal 0.857493 0.514496 0
    outer loop
      vertex 37 2.90467e-15 -39
      vertex 37 2.90467e-15 -47
      vertex 37 3.62751e-07 -47
    endloop
  endfacet
  facet normal 0.857493 0.514496 0
    outer loop
      vertex 34 5 -39
      vertex 37 2.90467e-15 -39
      vertex 34 5 -44
    endloop
  endfacet
  facet normal 0.857493 0.514496 0
    outer loop
      vertex 34 5 -44
      vertex 37 2.90467e-15 -39
      vertex 37 3.62751e-07 -47
    endloop
  endfacet
  facet normal -0.857493 0.514496 0
    outer loop
      vertex 31 2.43364e-15 -41
      vertex 31 2.43364e-15 -39
      vertex 34 5 -44
    endloop
  endfacet
  facet normal -0.857493 0.514496 0
    outer loop
      vertex 34 5 -44
      vertex 31 2.43364e-15 -39
      vertex 34 5 -39
    endloop
  endfacet
  facet normal -0.857493 -0.514496 0
    outer loop
      vertex 34 15 -44
      vertex 34 15 -39
      vertex 31 20 -41
    endloop
  endfacet
  facet normal -0.857493 -0.514496 0
    outer loop
      vertex 31 20 -41
      vertex 34 15 -39
      vertex 31 20 -39
    endloop
  endfacet
  facet normal 0.857493 -0.514496 0
    outer loop
      vertex 34 15 -39
      vertex 34 15 -44
      vertex 37 20 -47
    endloop
  endfacet
  facet normal 0.857493 -0.514496 0
    outer loop
      vertex 37 20 -39
      vertex 34 15 -39
      vertex 37 20 -47
    endloop
  endfacet
  facet normal 0.857493 0.514496 0
    outer loop
      vertex 34 25 -39
      vertex 37 20 -39
      vertex 34 25 -44
    endloop
  endfacet
  facet normal 0.857493 0.514496 0
    outer loop
      vertex 34 25 -44
      vertex 37 20 -39
      vertex 37 20 -47
    endloop
  endfacet
  facet normal -0.857493 0.514496 0
    outer loop
      vertex 31 20 -41
      vertex 31 20 -39
      vertex 34 25 -44
    endloop
  endfacet
  facet normal -0.857493 0.514496 0
    outer loop
      vertex 34 25 -44
      vertex 31 20 -39
      vertex 34 25 -39
    endloop
  endfacet
  facet normal -0.514496 -0.857493 0
    outer loop
      vertex -25 34 -39
      vertex -25 34 -44
      vertex -20 31 -41
    endloop
  endfacet
  facet normal -0.514496 -0.857493 0
    outer loop
      vertex -20 31 -39
      vertex -25 34 -39
      vertex -20 31 -41
    endloop
  endfacet
  facet normal 0.514496 -0.857493 0
    outer loop
      vertex -20 31 -39
      vertex -20 31 -41
      vertex -15 34 -44
    endloop
  endfacet
  facet normal 0.514496 -0.857493 0
    outer loop
      vertex -15 34 -39
      vertex -20 31 -39
      vertex -15 34 -44
    endloop
  endfacet
  facet normal 0.514496 0.857493 0
    outer loop
      vertex -20 37 -47
      vertex -20 37 -39
      vertex -15 34 -39
    endloop
  endfacet
  facet normal 0.514496 0.857493 0
    outer loop
      vertex -20 37 -47
      vertex -15 34 -39
      vertex -15 34 -44
    endloop
  endfacet
  facet normal -0.514496 0.857493 0
    outer loop
      vertex -25 34 -44
      vertex -25 34 -39
      vertex -20 37 -47
    endloop
  endfacet
  facet normal -0.514496 0.857493 0
    outer loop
      vertex -20 37 -47
      vertex -25 34 -39
      vertex -20 37 -39
    endloop
  endfacet
  facet normal -0.514496 -0.857493 0
    outer loop
      vertex -5 34 -39
      vertex -5 34 -44
      vertex 2.43364e-15 31 -41
    endloop
  endfacet
  facet normal -0.514496 -0.857493 0
    outer loop
      vertex 2.43364e-15 31 -39
      vertex -5 34 -39
      vertex 2.43364e-15 31 -41
    endloop
  endfacet
  facet normal 0.514496 -0.857493 0
    outer loop
      vertex 2.43364e-15 31 -39
      vertex 2.43364e-15 31 -41
      vertex 5 34 -44
    endloop
  endfacet
  facet normal 0.514496 -0.857493 0
    outer loop
      vertex 5 34 -39
      vertex 2.43364e-15 31 -39
      vertex 5 34 -44
    endloop
  endfacet
  facet normal 0.514496 0.857493 0
    outer loop
      vertex 2.90467e-15 37 -47
      vertex 2.90467e-15 37 -39
      vertex 3.62751e-07 37 -47
    endloop
  endfacet
  facet normal 0.514496 0.857493 0
    outer loop
      vertex 3.62751e-07 37 -47
      vertex 2.90467e-15 37 -39
      vertex 5 34 -39
    endloop
  endfacet
  facet normal 0.514496 0.857493 0
    outer loop
      vertex 3.62751e-07 37 -47
      vertex 5 34 -39
      vertex 5 34 -44
    endloop
  endfacet
  facet normal 0 0 -1
    outer loop
      vertex 3.62751e-07 37 -47
      vertex -3.62751e-07 37 -47
      vertex 2.90467e-15 37 -47
    endloop
  endfacet
  facet normal -0.514496 0.857493 0
    outer loop
      vertex -5 34 -44
      vertex -5 34 -39
      vertex -3.62751e-07 37 -47
    endloop
  endfacet
  facet normal -0.514496 0.857493 0
    outer loop
      vertex -3.62751e-07 37 -47
      vertex -5 34 -39
      vertex 2.90467e-15 37 -39
    endloop
  endfacet
  facet normal -0.514496 0.857493 0
    outer loop
      vertex -3.62751e-07 37 -47
      vertex 2.90467e-15 37 -39
      vertex 2.90467e-15 37 -47
    endloop
  endfacet
  facet normal -0.514496 -0.857493 0
    outer loop
      vertex 15 34 -39
      vertex 15 34 -44
      vertex 20 31 -41
    endloop
  endfacet
  facet normal -0.514496 -0.857493 0
    outer loop
      vertex 20 31 -39
      vertex 15 34 -39
      vertex 20 31 -41
    endloop
  endfacet
  facet normal 0.514496 -0.857493 0
    outer loop
      vertex 20 31 -39
      vertex 20 31 -41
      vertex 25 34 -44
    endloop
  endfacet
  facet normal 0.514496 -0.857493 0
    outer loop
      vertex 25 34 -39
      vertex 20 31 -39
      vertex 25 34 -44
    endloop
  endfacet
  facet normal 0.514496 0.857493 0
    outer loop
      vertex 20 37 -47
      vertex 20 37 -39
      vertex 25 34 -39
    endloop
  endfacet
  facet normal 0.514496 0.857493 0
    outer loop
      vertex 20 37 -47
      vertex 25 34 -39
      vertex 25 34 -44
    endloop
  endfacet
  facet normal -0.514496 0.857493 0
    outer loop
      vertex 15 34 -44
      vertex 15 34 -39
      vertex 20 37 -47
    endloop
  endfacet
  facet normal -0.514496 0.857493 0
    outer loop
      vertex 20 37 -47
      vertex 15 34 -39
      vertex 20 37 -39
    endloop
  endfacet
  facet normal 1 1.57009e-16 8.9828e-34
    outer loop
      vertex -2.9 2.9 -35.6
      vertex -2.9 -2.9 -36.395
      vertex -2.9 2.9 -36.395
    endloop
  endfacet
  facet normal 1 1.57009e-16 8.9828e-34
    outer loop
      vertex -2.9 -2.9 -35.6
      vertex -2.9 -2.9 -36.395
      vertex -2.9 2.9 -35.6
    endloop
  endfacet
  facet normal 1.57009e-16 -1 -1.22465e-16
    outer loop
      vertex 2.9 2.9 -35.6
      vertex -2.9 2.9 -36.395
      vertex 2.9 2.9 -36.395
    endloop
  endfacet
  facet normal 1.57009e-16 -1 -1.22465e-16
    outer loop
      vertex -2.9 2.9 -35.6
      vertex -2.9 2.9 -36.395
      vertex 2.9 2.9 -35.6
    endloop
  endfacet
  facet normal -1.57009e-16 1 1.22465e-16
    outer loop
      vertex 2.9 -2.9 -35.6
      vertex 2.9 -2.9 -36.395
      vertex -2.9 -2.9 -36.395
    endloop
  endfacet
  facet normal -1.57009e-16 1 1.22465e-16
    outer loop
      vertex 2.9 -2.9 -35.6
      vertex -2.9 -2.9 -36.395
      vertex -2.9 -2.9 -35.6
    endloop
  endfacet
  facet normal -1 -1.57009e-16 -8.9828e-34
    outer loop
      vertex 2.9 2.9 -35.6
      vertex 2.9 2.9 -36.395
      vertex 2.9 -2.9 -36.395
    endloop
  endfacet
  facet normal -1 -1.57009e-16 -8.9828e-34
    outer loop
      vertex 2.9 2.9 -35.6
      vertex 2.9 -2.9 -36.395
      vertex 2.9 -2.9 -35.6
    endloop
  endfacet
  facet normal 3.10381e-17 -0.395366 0.918524
    outer loop
      vertex -6.5 -6.5 -36.876
      vertex -13.7577 -13.7577 -40
      vertex 13.7577 -13.7577 -40
    endloop
  endfacet
  facet normal 3.10381e-17 -0.395366 0.918524
    outer loop
      vertex 6.5 -6.5 -36.876
      vertex -6.5 -6.5 -36.876
      vertex 13.7577 -13.7577 -40
    endloop
  endfacet
  facet normal 0.395366 -8.14486e-17 0.918524
    outer loop
      vertex 13.7577 13.7577 -40
      vertex 6.5 -6.5 -36.876
      vertex 13.7577 -13.7577 -40
    endloop
  endfacet
  facet normal 0.395366 -8.14486e-17 0.918524
    outer loop
      vertex 6.5 6.5 -36.876
      vertex 6.5 -6.5 -36.876
      vertex 13.7577 13.7577 -40
    endloop
  endfacet
  facet normal -3.10381e-17 0.395366 0.918524
    outer loop
      vertex -13.7577 13.7577 -40
      vertex -6.5 6.5 -36.876
      vertex 6.5 6.5 -36.876
    endloop
  endfacet
  facet normal -3.10381e-17 0.395366 0.918524
    outer loop
      vertex 13.7577 13.7577 -40
      vertex -13.7577 13.7577 -40
      vertex 6.5 6.5 -36.876
    endloop
  endfacet
  facet normal -0.395366 -1.43525e-16 0.918524
    outer loop
      vertex -13.7577 13.7577 -40
      vertex -13.7577 -13.7577 -40
      vertex -6.5 -6.5 -36.876
    endloop
  endfacet
  facet normal -0.395366 -1.43525e-16 0.918524
    outer loop
      vertex -6.5 6.5 -36.876
      vertex -13.7577 13.7577 -40
      vertex -6.5 -6.5 -36.876
    endloop
  endfacet
  facet normal 0 0 1
    outer loop
      vertex -37 -20 -39
      vertex -34 -25 -39
      vertex -31 -20 -39
    endloop
  endfacet
  facet normal 0 0 1
    outer loop
      vertex -34 -15 -39
      vertex -37 -20 -39
      vertex -31 -20 -39
    endloop
  endfacet
  facet normal 0 0 1
    outer loop
      vertex -37 -5.80934e-15 -39
      vertex -34 -5 -39
      vertex -31 -4.86729e-15 -39
    endloop
  endfacet
  facet normal 0 0 1
    outer loop
      vertex -34 5 -39
      vertex -37 -5.80934e-15 -39
      vertex -31 -4.86729e-15 -39
    endloop
  endfacet
  facet normal 0 0 1
    outer loop
      vertex -37 20 -39
      vertex -34 15 -39
      vertex -31 20 -39
    endloop
  endfacet
  facet normal 0 0 1
    outer loop
      vertex -34 25 -39
      vertex -37 20 -39
      vertex -31 20 -39
    endloop
  endfacet
  facet normal 0 0 1
    outer loop
      vertex -20 -31 -39
      vertex -25 -34 -39
      vertex -20 -37 -39
    endloop
  endfacet
  facet normal 0 0 1
    outer loop
      vertex -15 -34 -39
      vertex -20 -31 -39
      vertex -20 -37 -39
    endloop
  endfacet
  facet normal 0 0 1
    outer loop
      vertex -2.43364e-15 -31 -39
      vertex -5 -34 -39
      vertex -2.90467e-15 -37 -39
    endloop
  endfacet
  facet normal 0 0 1
    outer loop
      vertex 5 -34 -39
      vertex -2.43364e-15 -31 -39
      vertex -2.90467e-15 -37 -39
    endloop
  endfacet
  facet normal 0 0 1
    outer loop
      vertex 20 -31 -39
      vertex 15 -34 -39
      vertex 20 -37 -39
    endloop
  endfacet
  facet normal 0 0 1
    outer loop
      vertex 25 -34 -39
      vertex 20 -31 -39
      vertex 20 -37 -39
    endloop
  endfacet
  facet normal 0 0 1
    outer loop
      vertex 31 -20 -39
      vertex 34 -25 -39
      vertex 37 -20 -39
    endloop
  endfacet
  facet normal 0 0 1
    outer loop
      vertex 34 -15 -39
      vertex 31 -20 -39
      vertex 37 -20 -39
    endloop
  endfacet
  facet normal 0 0 1
    outer loop
      vertex 31 2.43364e-15 -39
      vertex 34 -5 -39
      vertex 37 2.90467e-15 -39
    endloop
  endfacet
  facet normal 0 0 1
    outer loop
      vertex 34 5 -39
      vertex 31 2.43364e-15 -39
      vertex 37 2.90467e-15 -39
    endloop
  endfacet
  facet normal 0 0 1
    outer loop
      vertex 31 20 -39
      vertex 34 15 -39
      vertex 37 20 -39
    endloop
  endfacet
  facet normal 0 0 1
    outer loop
      vertex 34 25 -39
      vertex 31 20 -39
      vertex 37 20 -39
    endloop
  endfacet
  facet normal 0 0 1
    outer loop
      vertex -20 37 -39
      vertex -25 34 -39
      vertex -20 31 -39
    endloop
  endfacet
  facet normal 0 0 1
    outer loop
      vertex -15 34 -39
      vertex -20 37 -39
      vertex -20 31 -39
    endloop
  endfacet
  facet normal 0 0 1
    outer loop
      vertex 2.90467e-15 37 -39
      vertex -5 34 -39
      vertex 2.43364e-15 31 -39
    endloop
  endfacet
  facet normal 0 0 1
    outer loop
      vertex 5 34 -39
      vertex 2.90467e-15 37 -39
      vertex 2.43364e-15 31 -39
    endloop
  endfacet
  facet normal 0 0 1
    outer loop
      vertex 20 37 -39
      vertex 15 34 -39
      vertex 20 31 -39
    endloop
  endfacet
  facet normal 0 0 1
    outer loop
      vertex 25 34 -39
      vertex 20 37 -39
      vertex 20 31 -39
    endloop
  endfacet
  facet normal 2.53911e-32 -1.22465e-16 1
    outer loop
      vertex -2.9 -2.9 -35.6
      vertex -6.5 -6.5 -35.6
      vertex 6.5 -6.5 -35.6
    endloop
  endfacet
  facet normal 2.53911e-32 -1.22465e-16 1
    outer loop
      vertex -2.9 2.9 -35.6
      vertex -6.5 6.5 -35.6
      vertex -2.9 -2.9 -35.6
    endloop
  endfacet
  facet normal 2.53911e-32 -1.22465e-16 1
    outer loop
      vertex 2.9 -2.9 -35.6
      vertex -2.9 -2.9 -35.6
      vertex 6.5 -6.5 -35.6
    endloop
  endfacet
  facet normal 2.53911e-32 -1.22465e-16 1
    outer loop
      vertex -6.5 6.5 -35.6
      vertex -6.5 -6.5 -35.6
      vertex -2.9 -2.9 -35.6
    endloop
  endfacet
  facet normal 2.53911e-32 -1.22465e-16 1
    outer loop
      vertex 6.5 6.5 -35.6
      vertex -6.5 6.5 -35.6
      vertex -2.9 2.9 -35.6
    endloop
  endfacet
  facet normal 2.53911e-32 -1.22465e-16 1
    outer loop
      vertex 6.5 6.5 -35.6
      vertex 2.9 2.9 -35.6
      vertex 6.5 -6.5 -35.6
    endloop
  endfacet
  facet normal 2.53911e-32 -1.22465e-16 1
    outer loop
      vertex 6.5 6.5 -35.6
      vertex -2.9 2.9 -35.6
      vertex 2.9 2.9 -35.6
    endloop
  endfacet
  facet normal 2.53911e-32 -1.22465e-16 1
    outer loop
      vertex 2.9 2.9 -35.6
      vertex 2.9 -2.9 -35.6
      vertex 6.5 -6.5 -35.6
    endloop
  endfacet
  facet normal -1 -1.57009e-16 -8.9828e-34
    outer loop
      vertex -6.5 -6.5 -35.6
      vertex -6.5 6.5 -35.6
      vertex -6.5 -6.5 -36.876
    endloop
  endfacet
  facet normal -1 -1.57009e-16 -8.9828e-34
    outer loop
      vertex -6.5 -6.5 -36.876
      vertex -6.5 6.5 -35.6
      vertex -6.5 6.5 -36.876
    endloop
  endfacet
  facet normal 1.57009e-16 -1 -1.22465e-16
    outer loop
      vertex 6.5 -6.5 -35.6
      vertex -6.5 -6.5 -35.6
      vertex -6.5 -6.5 -36.876
    endloop
  endfacet
  facet normal 1.57009e-16 -1 -1.22465e-16
    outer loop
      vertex 6.5 -6.5 -36.876
      vertex 6.5 -6.5 -35.6
      vertex -6.5 -6.5 -36.876
    endloop
  endfacet
  facet normal 1 1.57009e-16 8.9828e-34
    outer loop
      vertex 6.5 6.5 -35.6
      vertex 6.5 -6.5 -35.6
      vertex 6.5 -6.5 -36.876
    endloop
  endfacet
  facet normal 1 1.57009e-16 8.9828e-34
    outer loop
      vertex 6.5 6.5 -36.876
      vertex 6.5 6.5 -35.6
      vertex 6.5 -6.5 -36.876
    endloop
  endfacet
  facet normal -1.57009e-16 1 1.22465e-16
    outer loop
      vertex -6.5 6.5 -35.6
      vertex 6.5 6.5 -35.6
      vertex -6.5 6.5 -36.876
    endloop
  endfacet
  facet normal -1.57009e-16 1 1.22465e-16
    outer loop
      vertex -6.5 6.5 -36.876
      vertex 6.5 6.5 -35.6
      vertex 6.5 6.5 -36.876
    endloop
  endfacet
endsolid OpenSCAD_Model
