solid OpenSCAD_Model
  facet normal -2.35514e-16 -1.34693e-17 -1
    outer loop
      vertex 28.3349 -28.3349 -48
      vertex 38 38 -48
      vertex 38 -38 -48
    endloop
  endfacet
  facet normal -2.35514e-16 -1.34693e-17 -1
    outer loop
      vertex -38 38 -48
      vertex 38 38 -48
      vertex -32.75 35.299 -48
    endloop
  endfacet
  facet normal -2.35514e-16 -1.34693e-17 -1
    outer loop
      vertex -38 38 -48
      vertex -32.75 35.299 -48
      vertex -38 -38 -48
    endloop
  endfacet
  facet normal -2.35514e-16 -1.34693e-17 -1
    outer loop
      vertex -28.3349 28.3349 -48
      vertex 38 38 -48
      vertex 28.3349 28.3349 -48
    endloop
  endfacet
  facet normal -2.35514e-16 -1.34693e-17 -1
    outer loop
      vertex -32.75 35.299 -48
      vertex -32.75 32.701 -48
      vertex -38 -38 -48
    endloop
  endfacet
  facet normal -2.35514e-16 -1.34693e-17 -1
    outer loop
      vertex -26.75 32.701 -48
      vertex -32.75 32.701 -48
      vertex -30.5 34 -48
    endloop
  endfacet
  facet normal -2.35514e-16 -1.34693e-17 -1
    outer loop
      vertex -32.75 35.299 -48
      vertex 38 38 -48
      vertex -26.75 35.299 -48
    endloop
  endfacet
  facet normal -2.35514e-16 -1.34693e-17 -1
    outer loop
      vertex -32.75 35.299 -48
      vertex -26.75 35.299 -48
      vertex -30.5 34 -48
    endloop
  endfacet
  facet normal -2.35514e-16 -1.34693e-17 -1
    outer loop
      vertex -28.3349 28.3349 -48
      vertex -26.75 32.701 -48
      vertex 38 38 -48
    endloop
  endfacet
  facet normal -2.35514e-16 -1.34693e-17 -1
    outer loop
      vertex -28.3349 -28.3349 -48
      vertex -38 -38 -48
      vertex -28.3349 28.3349 -48
    endloop
  endfacet
  facet normal -2.35514e-16 -1.34693e-17 -1
    outer loop
      vertex -26.75 32.701 -48
      vertex -30.5 34 -48
      vertex -26.75 35.299 -48
    endloop
  endfacet
  facet normal -2.35514e-16 -1.34693e-17 -1
    outer loop
      vertex -32.75 32.701 -48
      vertex -26.75 32.701 -48
      vertex -28.3349 28.3349 -48
    endloop
  endfacet
  facet normal -2.35514e-16 -1.34693e-17 -1
    outer loop
      vertex -32.75 32.701 -48
      vertex -28.3349 28.3349 -48
      vertex -38 -38 -48
    endloop
  endfacet
  facet normal -2.35514e-16 -1.34693e-17 -1
    outer loop
      vertex -38 -38 -48
      vertex -28.3349 -28.3349 -48
      vertex 38 -38 -48
    endloop
  endfacet
  facet normal -2.35514e-16 -1.34693e-17 -1
    outer loop
      vertex 28.3349 28.3349 -48
      vertex 38 38 -48
      vertex 28.3349 -28.3349 -48
    endloop
  endfacet
  facet normal -2.35514e-16 -1.34693e-17 -1
    outer loop
      vertex -28.3349 -28.3349 -48
      vertex 28.3349 -28.3349 -48
      vertex 38 -38 -48
    endloop
  endfacet
  facet normal -2.35514e-16 -1.34693e-17 -1
    outer loop
      vertex -26.75 35.299 -48
      vertex 38 38 -48
      vertex -24.5 34 -48
    endloop
  endfacet
  facet normal -2.35514e-16 -1.34693e-17 -1
    outer loop
      vertex -24.5 34 -48
      vertex 38 38 -48
      vertex -26.75 32.701 -48
    endloop
  endfacet
  facet normal 1.66533e-16 0.707107 0.707107
    outer loop
      vertex -20 36.8 -46.8
      vertex -26.9063 34.3554 -44.3554
      vertex -26.85 34 -44
    endloop
  endfacet
  facet normal 1.66533e-16 0.707107 0.707107
    outer loop
      vertex -20 30.2 -40.2
      vertex -30 30 -40
      vertex 30 30 -40
    endloop
  endfacet
  facet normal 1.66533e-16 0.707107 0.707107
    outer loop
      vertex -25.5 33.5 -43.5
      vertex -27.0696 33.324 -43.324
      vertex -30 30 -40
    endloop
  endfacet
  facet normal 1.66533e-16 0.707107 0.707107
    outer loop
      vertex -38 38 -48
      vertex -28.9304 34.676 -44.676
      vertex -28.676 34.9304 -44.9304
    endloop
  endfacet
  facet normal 1.66533e-16 0.707107 0.707107
    outer loop
      vertex -38 38 -48
      vertex -28.676 34.9304 -44.9304
      vertex -28.3554 35.0937 -45.0937
    endloop
  endfacet
  facet normal 1.66533e-16 0.707107 0.707107
    outer loop
      vertex -38 38 -48
      vertex -28.3554 35.0937 -45.0937
      vertex -28 35.15 -45.15
    endloop
  endfacet
  facet normal 1.66533e-16 0.707107 0.707107
    outer loop
      vertex 25.5 33.5 -43.5
      vertex 27.0696 34.676 -44.676
      vertex 27.324 34.9304 -44.9304
    endloop
  endfacet
  facet normal 1.66533e-16 0.707107 0.707107
    outer loop
      vertex -29.15 34 -44
      vertex -30 30 -40
      vertex -29.0937 33.6446 -43.6446
    endloop
  endfacet
  facet normal 1.66533e-16 0.707107 0.707107
    outer loop
      vertex -27.6446 32.9063 -42.9063
      vertex -30 30 -40
      vertex -27.324 33.0696 -43.0696
    endloop
  endfacet
  facet normal 1.66533e-16 0.707107 0.707107
    outer loop
      vertex -28.3554 32.9063 -42.9063
      vertex -30 30 -40
      vertex -28 32.85 -42.85
    endloop
  endfacet
  facet normal 1.66533e-16 0.707107 0.707107
    outer loop
      vertex -28 32.85 -42.85
      vertex -30 30 -40
      vertex -27.6446 32.9063 -42.9063
    endloop
  endfacet
  facet normal 1.66533e-16 0.707107 0.707107
    outer loop
      vertex -27.324 33.0696 -43.0696
      vertex -30 30 -40
      vertex -27.0696 33.324 -43.324
    endloop
  endfacet
  facet normal 1.66533e-16 0.707107 0.707107
    outer loop
      vertex -20 36.8 -46.8
      vertex -28 35.15 -45.15
      vertex -27.6446 35.0937 -45.0937
    endloop
  endfacet
  facet normal 1.66533e-16 0.707107 0.707107
    outer loop
      vertex -5.64471e-15 36.8 -46.8
      vertex -14.5 33.5 -43.5
      vertex -5.5 33.5 -43.5
    endloop
  endfacet
  facet normal 1.66533e-16 0.707107 0.707107
    outer loop
      vertex -28.676 33.0696 -43.0696
      vertex -30 30 -40
      vertex -28.3554 32.9063 -42.9063
    endloop
  endfacet
  facet normal 1.66533e-16 0.707107 0.707107
    outer loop
      vertex -28.9304 33.324 -43.324
      vertex -30 30 -40
      vertex -28.676 33.0696 -43.0696
    endloop
  endfacet
  facet normal 1.66533e-16 0.707107 0.707107
    outer loop
      vertex -29.0937 33.6446 -43.6446
      vertex -30 30 -40
      vertex -28.9304 33.324 -43.324
    endloop
  endfacet
  facet normal 1.66533e-16 0.707107 0.707107
    outer loop
      vertex -25.5 33.5 -43.5
      vertex -30 30 -40
      vertex -20 30.2 -40.2
    endloop
  endfacet
  facet normal 1.66533e-16 0.707107 0.707107
    outer loop
      vertex -38 38 -48
      vertex -30 30 -40
      vertex -29.15 34 -44
    endloop
  endfacet
  facet normal 1.66533e-16 0.707107 0.707107
    outer loop
      vertex -38 38 -48
      vertex -29.15 34 -44
      vertex -29.0937 34.3554 -44.3554
    endloop
  endfacet
  facet normal 1.66533e-16 0.707107 0.707107
    outer loop
      vertex -38 38 -48
      vertex -29.0937 34.3554 -44.3554
      vertex -28.9304 34.676 -44.676
    endloop
  endfacet
  facet normal 1.66533e-16 0.707107 0.707107
    outer loop
      vertex -26.9063 33.6446 -43.6446
      vertex -27.0696 33.324 -43.324
      vertex -25.5 33.5 -43.5
    endloop
  endfacet
  facet normal 1.66533e-16 0.707107 0.707107
    outer loop
      vertex -38 38 -48
      vertex -28 35.15 -45.15
      vertex -20 36.8 -46.8
    endloop
  endfacet
  facet normal 1.66533e-16 0.707107 0.707107
    outer loop
      vertex -38 38 -48
      vertex -20 36.8 -46.8
      vertex 38 38 -48
    endloop
  endfacet
  facet normal 1.66533e-16 0.707107 0.707107
    outer loop
      vertex -20 36.8 -46.8
      vertex -27.324 34.9304 -44.9304
      vertex -27.0696 34.676 -44.676
    endloop
  endfacet
  facet normal 1.66533e-16 0.707107 0.707107
    outer loop
      vertex -20 36.8 -46.8
      vertex -27.6446 35.0937 -45.0937
      vertex -27.324 34.9304 -44.9304
    endloop
  endfacet
  facet normal 1.66533e-16 0.707107 0.707107
    outer loop
      vertex -20 36.8 -46.8
      vertex -26.85 34 -44
      vertex -26.9063 33.6446 -43.6446
    endloop
  endfacet
  facet normal 1.66533e-16 0.707107 0.707107
    outer loop
      vertex -3.87571e-15 30.2 -40.2
      vertex -20 30.2 -40.2
      vertex 30 30 -40
    endloop
  endfacet
  facet normal 1.66533e-16 0.707107 0.707107
    outer loop
      vertex -20 36.8 -46.8
      vertex -27.0696 34.676 -44.676
      vertex -26.9063 34.3554 -44.3554
    endloop
  endfacet
  facet normal 1.66533e-16 0.707107 0.707107
    outer loop
      vertex 5.5 33.5 -43.5
      vertex 20 36.8 -46.8
      vertex -5.64471e-15 36.8 -46.8
    endloop
  endfacet
  facet normal 1.66533e-16 0.707107 0.707107
    outer loop
      vertex -20 36.8 -46.8
      vertex -5.64471e-15 36.8 -46.8
      vertex 38 38 -48
    endloop
  endfacet
  facet normal 1.66533e-16 0.707107 0.707107
    outer loop
      vertex 28.3554 35.0937 -45.0937
      vertex 38 38 -48
      vertex 28 35.15 -45.15
    endloop
  endfacet
  facet normal 1.66533e-16 0.707107 0.707107
    outer loop
      vertex 20 36.8 -46.8
      vertex 5.5 33.5 -43.5
      vertex 14.5 33.5 -43.5
    endloop
  endfacet
  facet normal 1.66533e-16 0.707107 0.707107
    outer loop
      vertex 27.324 34.9304 -44.9304
      vertex 27.6446 35.0937 -45.0937
      vertex 20 36.8 -46.8
    endloop
  endfacet
  facet normal 1.66533e-16 0.707107 0.707107
    outer loop
      vertex 20 30.2 -40.2
      vertex -3.87571e-15 30.2 -40.2
      vertex 30 30 -40
    endloop
  endfacet
  facet normal 1.66533e-16 0.707107 0.707107
    outer loop
      vertex 27.6446 35.0937 -45.0937
      vertex 38 38 -48
      vertex 20 36.8 -46.8
    endloop
  endfacet
  facet normal 1.66533e-16 0.707107 0.707107
    outer loop
      vertex 20 30.2 -40.2
      vertex 30 30 -40
      vertex 25.5 33.5 -43.5
    endloop
  endfacet
  facet normal 1.66533e-16 0.707107 0.707107
    outer loop
      vertex 27.6446 32.9063 -42.9063
      vertex 25.5 33.5 -43.5
      vertex 30 30 -40
    endloop
  endfacet
  facet normal 1.66533e-16 0.707107 0.707107
    outer loop
      vertex 5.5 33.5 -43.5
      vertex -3.87571e-15 30.2 -40.2
      vertex 20 30.2 -40.2
    endloop
  endfacet
  facet normal 1.66533e-16 0.707107 0.707107
    outer loop
      vertex 26.9063 34.3554 -44.3554
      vertex 27.0696 34.676 -44.676
      vertex 25.5 33.5 -43.5
    endloop
  endfacet
  facet normal 1.66533e-16 0.707107 0.707107
    outer loop
      vertex 38 38 -48
      vertex 27.6446 35.0937 -45.0937
      vertex 28 35.15 -45.15
    endloop
  endfacet
  facet normal 1.66533e-16 0.707107 0.707107
    outer loop
      vertex 28.676 34.9304 -44.9304
      vertex 38 38 -48
      vertex 28.3554 35.0937 -45.0937
    endloop
  endfacet
  facet normal 1.66533e-16 0.707107 0.707107
    outer loop
      vertex 26.9063 34.3554 -44.3554
      vertex 25.5 33.5 -43.5
      vertex 26.85 34 -44
    endloop
  endfacet
  facet normal 1.66533e-16 0.707107 0.707107
    outer loop
      vertex 28.9304 34.676 -44.676
      vertex 38 38 -48
      vertex 28.676 34.9304 -44.9304
    endloop
  endfacet
  facet normal 1.66533e-16 0.707107 0.707107
    outer loop
      vertex 29.0937 33.6446 -43.6446
      vertex 30 30 -40
      vertex 29.15 34 -44
    endloop
  endfacet
  facet normal 1.66533e-16 0.707107 0.707107
    outer loop
      vertex 38 38 -48
      vertex 28.9304 34.676 -44.676
      vertex 29.0937 34.3554 -44.3554
    endloop
  endfacet
  facet normal 1.66533e-16 0.707107 0.707107
    outer loop
      vertex 38 38 -48
      vertex 29.0937 34.3554 -44.3554
      vertex 30 30 -40
    endloop
  endfacet
  facet normal 1.66533e-16 0.707107 0.707107
    outer loop
      vertex 29.0937 34.3554 -44.3554
      vertex 29.15 34 -44
      vertex 30 30 -40
    endloop
  endfacet
  facet normal 1.66533e-16 0.707107 0.707107
    outer loop
      vertex 26.85 34 -44
      vertex 25.5 33.5 -43.5
      vertex 26.9063 33.6446 -43.6446
    endloop
  endfacet
  facet normal 1.66533e-16 0.707107 0.707107
    outer loop
      vertex 27.324 33.0696 -43.0696
      vertex 25.5 33.5 -43.5
      vertex 27.6446 32.9063 -42.9063
    endloop
  endfacet
  facet normal 1.66533e-16 0.707107 0.707107
    outer loop
      vertex 29.0937 33.6446 -43.6446
      vertex 28.9304 33.324 -43.324
      vertex 30 30 -40
    endloop
  endfacet
  facet normal 1.66533e-16 0.707107 0.707107
    outer loop
      vertex 26.9063 33.6446 -43.6446
      vertex 25.5 33.5 -43.5
      vertex 27.0696 33.324 -43.324
    endloop
  endfacet
  facet normal 1.66533e-16 0.707107 0.707107
    outer loop
      vertex 28.9304 33.324 -43.324
      vertex 28.676 33.0696 -43.0696
      vertex 30 30 -40
    endloop
  endfacet
  facet normal 1.66533e-16 0.707107 0.707107
    outer loop
      vertex 28.676 33.0696 -43.0696
      vertex 28.3554 32.9063 -42.9063
      vertex 30 30 -40
    endloop
  endfacet
  facet normal 1.66533e-16 0.707107 0.707107
    outer loop
      vertex 27.0696 33.324 -43.324
      vertex 25.5 33.5 -43.5
      vertex 27.324 33.0696 -43.0696
    endloop
  endfacet
  facet normal 1.66533e-16 0.707107 0.707107
    outer loop
      vertex 28.3554 32.9063 -42.9063
      vertex 28 32.85 -42.85
      vertex 30 30 -40
    endloop
  endfacet
  facet normal 1.66533e-16 0.707107 0.707107
    outer loop
      vertex 28 32.85 -42.85
      vertex 27.6446 32.9063 -42.9063
      vertex 30 30 -40
    endloop
  endfacet
  facet normal 1.66533e-16 0.707107 0.707107
    outer loop
      vertex -14.5 33.5 -43.5
      vertex -5.64471e-15 36.8 -46.8
      vertex -20 36.8 -46.8
    endloop
  endfacet
  facet normal 1.66533e-16 0.707107 0.707107
    outer loop
      vertex -20 30.2 -40.2
      vertex -5.5 33.5 -43.5
      vertex -14.5 33.5 -43.5
    endloop
  endfacet
  facet normal 1.66533e-16 0.707107 0.707107
    outer loop
      vertex -5.5 33.5 -43.5
      vertex -20 30.2 -40.2
      vertex -3.87571e-15 30.2 -40.2
    endloop
  endfacet
  facet normal 1.66533e-16 0.707107 0.707107
    outer loop
      vertex -20 36.8 -46.8
      vertex -26.9063 33.6446 -43.6446
      vertex -25.5 33.5 -43.5
    endloop
  endfacet
  facet normal 1.66533e-16 0.707107 0.707107
    outer loop
      vertex 14.5 33.5 -43.5
      vertex 5.5 33.5 -43.5
      vertex 20 30.2 -40.2
    endloop
  endfacet
  facet normal 1.66533e-16 0.707107 0.707107
    outer loop
      vertex 20 36.8 -46.8
      vertex 38 38 -48
      vertex -5.64471e-15 36.8 -46.8
    endloop
  endfacet
  facet normal 1.66533e-16 0.707107 0.707107
    outer loop
      vertex 25.5 33.5 -43.5
      vertex 27.324 34.9304 -44.9304
      vertex 20 36.8 -46.8
    endloop
  endfacet
  facet normal -0.707107 -4.59869e-17 0.707107
    outer loop
      vertex -31 -20 -41
      vertex -38 -38 -48
      vertex -30 -30 -40
    endloop
  endfacet
  facet normal -0.707107 -4.59869e-17 0.707107
    outer loop
      vertex -38 38 -48
      vertex -38 -38 -48
      vertex -37 20 -47
    endloop
  endfacet
  facet normal -0.707107 -4.59869e-17 0.707107
    outer loop
      vertex -38 38 -48
      vertex -37 20 -47
      vertex -34 25 -44
    endloop
  endfacet
  facet normal -0.707107 -4.59869e-17 0.707107
    outer loop
      vertex -38 38 -48
      vertex -34 25 -44
      vertex -30 30 -40
    endloop
  endfacet
  facet normal -0.707107 -4.59869e-17 0.707107
    outer loop
      vertex -34 5 -44
      vertex -34 15 -44
      vertex -37 3.62751e-07 -47
    endloop
  endfacet
  facet normal -0.707107 -4.59869e-17 0.707107
    outer loop
      vertex -30 30 -40
      vertex -31 20 -41
      vertex -30 -30 -40
    endloop
  endfacet
  facet normal -0.707107 -4.59869e-17 0.707107
    outer loop
      vertex -34 -15 -44
      vertex -34 -5 -44
      vertex -37 -20 -47
    endloop
  endfacet
  facet normal -0.707107 -4.59869e-17 0.707107
    outer loop
      vertex -37 20 -47
      vertex -38 -38 -48
      vertex -37 3.62751e-07 -47
    endloop
  endfacet
  facet normal -0.707107 -4.59869e-17 0.707107
    outer loop
      vertex -37 20 -47
      vertex -37 3.62751e-07 -47
      vertex -34 15 -44
    endloop
  endfacet
  facet normal -0.707107 -4.59869e-17 0.707107
    outer loop
      vertex -31 1.55254e-14 -41
      vertex -31 20 -41
      vertex -34 5 -44
    endloop
  endfacet
  facet normal -0.707107 -4.59869e-17 0.707107
    outer loop
      vertex -31 20 -41
      vertex -31 1.55254e-14 -41
      vertex -30 -30 -40
    endloop
  endfacet
  facet normal -0.707107 -4.59869e-17 0.707107
    outer loop
      vertex -37 3.62751e-07 -47
      vertex -38 -38 -48
      vertex -37 -3.62751e-07 -47
    endloop
  endfacet
  facet normal -0.707107 -4.59869e-17 0.707107
    outer loop
      vertex -37 -3.62751e-07 -47
      vertex -38 -38 -48
      vertex -37 -20 -47
    endloop
  endfacet
  facet normal -0.707107 -4.59869e-17 0.707107
    outer loop
      vertex -31 -20 -41
      vertex -31 1.55254e-14 -41
      vertex -34 -15 -44
    endloop
  endfacet
  facet normal -0.707107 -4.59869e-17 0.707107
    outer loop
      vertex -34 -5 -44
      vertex -34 -15 -44
      vertex -31 1.55254e-14 -41
    endloop
  endfacet
  facet normal -0.707107 -4.59869e-17 0.707107
    outer loop
      vertex -34 -25 -44
      vertex -38 -38 -48
      vertex -31 -20 -41
    endloop
  endfacet
  facet normal -0.707107 -4.59869e-17 0.707107
    outer loop
      vertex -31 1.55254e-14 -41
      vertex -31 -20 -41
      vertex -30 -30 -40
    endloop
  endfacet
  facet normal -0.707107 -4.59869e-17 0.707107
    outer loop
      vertex -37 -20 -47
      vertex -38 -38 -48
      vertex -34 -25 -44
    endloop
  endfacet
  facet normal -0.707107 -4.59869e-17 0.707107
    outer loop
      vertex -31 20 -41
      vertex -30 30 -40
      vertex -34 25 -44
    endloop
  endfacet
  facet normal -0.707107 -4.59869e-17 0.707107
    outer loop
      vertex -37 -3.62751e-07 -47
      vertex -37 -20 -47
      vertex -34 -5 -44
    endloop
  endfacet
  facet normal -0.707107 -4.59869e-17 0.707107
    outer loop
      vertex -34 15 -44
      vertex -34 5 -44
      vertex -31 20 -41
    endloop
  endfacet
  facet normal 1.66533e-16 -0.707107 0.707107
    outer loop
      vertex -20 -36.8 -46.8
      vertex -38 -38 -48
      vertex 38 -38 -48
    endloop
  endfacet
  facet normal 1.66533e-16 -0.707107 0.707107
    outer loop
      vertex -28 -35.15 -45.15
      vertex -28.3554 -35.0937 -45.0937
      vertex -38 -38 -48
    endloop
  endfacet
  facet normal 1.66533e-16 -0.707107 0.707107
    outer loop
      vertex -30 -30 -40
      vertex -38 -38 -48
      vertex -28.9304 -33.324 -43.324
    endloop
  endfacet
  facet normal 1.66533e-16 -0.707107 0.707107
    outer loop
      vertex 5.5 -33.5 -43.5
      vertex 3.0222e-15 -36.8 -46.8
      vertex 20 -36.8 -46.8
    endloop
  endfacet
  facet normal 1.66533e-16 -0.707107 0.707107
    outer loop
      vertex -30 -30 -40
      vertex -28.9304 -33.324 -43.324
      vertex -28.676 -33.0696 -43.0696
    endloop
  endfacet
  facet normal 1.66533e-16 -0.707107 0.707107
    outer loop
      vertex 27.0696 -33.324 -43.324
      vertex 27.324 -33.0696 -43.0696
      vertex 20 -30.2 -40.2
    endloop
  endfacet
  facet normal 1.66533e-16 -0.707107 0.707107
    outer loop
      vertex -30 -30 -40
      vertex -28.676 -33.0696 -43.0696
      vertex -28.3554 -32.9063 -42.9063
    endloop
  endfacet
  facet normal 1.66533e-16 -0.707107 0.707107
    outer loop
      vertex -30 -30 -40
      vertex -28.3554 -32.9063 -42.9063
      vertex -28 -32.85 -42.85
    endloop
  endfacet
  facet normal 1.66533e-16 -0.707107 0.707107
    outer loop
      vertex 3.0222e-15 -36.8 -46.8
      vertex -5.5 -33.5 -43.5
      vertex -14.5 -33.5 -43.5
    endloop
  endfacet
  facet normal 1.66533e-16 -0.707107 0.707107
    outer loop
      vertex -25.5 -33.5 -43.5
      vertex -27.324 -33.0696 -43.0696
      vertex -27.0696 -33.324 -43.324
    endloop
  endfacet
  facet normal 1.66533e-16 -0.707107 0.707107
    outer loop
      vertex -25.5 -33.5 -43.5
      vertex -27.6446 -32.9063 -42.9063
      vertex -27.324 -33.0696 -43.0696
    endloop
  endfacet
  facet normal 1.66533e-16 -0.707107 0.707107
    outer loop
      vertex -28.676 -34.9304 -44.9304
      vertex -28.9304 -34.676 -44.676
      vertex -38 -38 -48
    endloop
  endfacet
  facet normal 1.66533e-16 -0.707107 0.707107
    outer loop
      vertex -27.6446 -32.9063 -42.9063
      vertex -30 -30 -40
      vertex -28 -32.85 -42.85
    endloop
  endfacet
  facet normal 1.66533e-16 -0.707107 0.707107
    outer loop
      vertex -25.5 -33.5 -43.5
      vertex -30 -30 -40
      vertex -27.6446 -32.9063 -42.9063
    endloop
  endfacet
  facet normal 1.66533e-16 -0.707107 0.707107
    outer loop
      vertex -28 -35.15 -45.15
      vertex -38 -38 -48
      vertex -27.6446 -35.0937 -45.0937
    endloop
  endfacet
  facet normal 1.66533e-16 -0.707107 0.707107
    outer loop
      vertex -28.9304 -34.676 -44.676
      vertex -29.0937 -34.3554 -44.3554
      vertex -38 -38 -48
    endloop
  endfacet
  facet normal 1.66533e-16 -0.707107 0.707107
    outer loop
      vertex 20 -36.8 -46.8
      vertex 3.0222e-15 -36.8 -46.8
      vertex 38 -38 -48
    endloop
  endfacet
  facet normal 1.66533e-16 -0.707107 0.707107
    outer loop
      vertex -29.15 -34 -44
      vertex -38 -38 -48
      vertex -29.0937 -34.3554 -44.3554
    endloop
  endfacet
  facet normal 1.66533e-16 -0.707107 0.707107
    outer loop
      vertex -29.0937 -33.6446 -43.6446
      vertex -38 -38 -48
      vertex -29.15 -34 -44
    endloop
  endfacet
  facet normal 1.66533e-16 -0.707107 0.707107
    outer loop
      vertex -28.9304 -33.324 -43.324
      vertex -38 -38 -48
      vertex -29.0937 -33.6446 -43.6446
    endloop
  endfacet
  facet normal 1.66533e-16 -0.707107 0.707107
    outer loop
      vertex -28.3554 -35.0937 -45.0937
      vertex -28.676 -34.9304 -44.9304
      vertex -38 -38 -48
    endloop
  endfacet
  facet normal 1.66533e-16 -0.707107 0.707107
    outer loop
      vertex 30 -30 -40
      vertex -30 -30 -40
      vertex -20 -30.2 -40.2
    endloop
  endfacet
  facet normal 1.66533e-16 -0.707107 0.707107
    outer loop
      vertex -14.5 -33.5 -43.5
      vertex -20 -36.8 -46.8
      vertex 3.0222e-15 -36.8 -46.8
    endloop
  endfacet
  facet normal 1.66533e-16 -0.707107 0.707107
    outer loop
      vertex 3.0222e-15 -36.8 -46.8
      vertex -20 -36.8 -46.8
      vertex 38 -38 -48
    endloop
  endfacet
  facet normal 1.66533e-16 -0.707107 0.707107
    outer loop
      vertex -27.6446 -35.0937 -45.0937
      vertex -38 -38 -48
      vertex -20 -36.8 -46.8
    endloop
  endfacet
  facet normal 1.66533e-16 -0.707107 0.707107
    outer loop
      vertex -5.5 -33.5 -43.5
      vertex 3.23681e-15 -30.2 -40.2
      vertex -20 -30.2 -40.2
    endloop
  endfacet
  facet normal 1.66533e-16 -0.707107 0.707107
    outer loop
      vertex 30 -30 -40
      vertex -20 -30.2 -40.2
      vertex 3.23681e-15 -30.2 -40.2
    endloop
  endfacet
  facet normal 1.66533e-16 -0.707107 0.707107
    outer loop
      vertex -25.5 -33.5 -43.5
      vertex -20 -30.2 -40.2
      vertex -30 -30 -40
    endloop
  endfacet
  facet normal 1.66533e-16 -0.707107 0.707107
    outer loop
      vertex 14.5 -33.5 -43.5
      vertex 20 -30.2 -40.2
      vertex 3.23681e-15 -30.2 -40.2
    endloop
  endfacet
  facet normal 1.66533e-16 -0.707107 0.707107
    outer loop
      vertex 3.23681e-15 -30.2 -40.2
      vertex 5.5 -33.5 -43.5
      vertex 14.5 -33.5 -43.5
    endloop
  endfacet
  facet normal 1.66533e-16 -0.707107 0.707107
    outer loop
      vertex 28.676 -33.0696 -43.0696
      vertex 28.9304 -33.324 -43.324
      vertex 38 -38 -48
    endloop
  endfacet
  facet normal 1.66533e-16 -0.707107 0.707107
    outer loop
      vertex 30 -30 -40
      vertex 3.23681e-15 -30.2 -40.2
      vertex 20 -30.2 -40.2
    endloop
  endfacet
  facet normal 1.66533e-16 -0.707107 0.707107
    outer loop
      vertex 26.85 -34 -44
      vertex 26.9063 -33.6446 -43.6446
      vertex 25.5 -33.5 -43.5
    endloop
  endfacet
  facet normal 1.66533e-16 -0.707107 0.707107
    outer loop
      vertex -20 -30.2 -40.2
      vertex -14.5 -33.5 -43.5
      vertex -5.5 -33.5 -43.5
    endloop
  endfacet
  facet normal 1.66533e-16 -0.707107 0.707107
    outer loop
      vertex 28.9304 -33.324 -43.324
      vertex 29.0937 -33.6446 -43.6446
      vertex 38 -38 -48
    endloop
  endfacet
  facet normal 1.66533e-16 -0.707107 0.707107
    outer loop
      vertex 20 -30.2 -40.2
      vertex 25.5 -33.5 -43.5
      vertex 27.0696 -33.324 -43.324
    endloop
  endfacet
  facet normal 1.66533e-16 -0.707107 0.707107
    outer loop
      vertex 29.15 -34 -44
      vertex 29.0937 -34.3554 -44.3554
      vertex 38 -38 -48
    endloop
  endfacet
  facet normal 1.66533e-16 -0.707107 0.707107
    outer loop
      vertex 30 -30 -40
      vertex 20 -30.2 -40.2
      vertex 27.324 -33.0696 -43.0696
    endloop
  endfacet
  facet normal 1.66533e-16 -0.707107 0.707107
    outer loop
      vertex 29.0937 -33.6446 -43.6446
      vertex 29.15 -34 -44
      vertex 38 -38 -48
    endloop
  endfacet
  facet normal 1.66533e-16 -0.707107 0.707107
    outer loop
      vertex 30 -30 -40
      vertex 27.324 -33.0696 -43.0696
      vertex 27.6446 -32.9063 -42.9063
    endloop
  endfacet
  facet normal 1.66533e-16 -0.707107 0.707107
    outer loop
      vertex 28.9304 -34.676 -44.676
      vertex 28.676 -34.9304 -44.9304
      vertex 38 -38 -48
    endloop
  endfacet
  facet normal 1.66533e-16 -0.707107 0.707107
    outer loop
      vertex 30 -30 -40
      vertex 27.6446 -32.9063 -42.9063
      vertex 28 -32.85 -42.85
    endloop
  endfacet
  facet normal 1.66533e-16 -0.707107 0.707107
    outer loop
      vertex 30 -30 -40
      vertex 28 -32.85 -42.85
      vertex 28.3554 -32.9063 -42.9063
    endloop
  endfacet
  facet normal 1.66533e-16 -0.707107 0.707107
    outer loop
      vertex 30 -30 -40
      vertex 28.676 -33.0696 -43.0696
      vertex 38 -38 -48
    endloop
  endfacet
  facet normal 1.66533e-16 -0.707107 0.707107
    outer loop
      vertex 30 -30 -40
      vertex 28.3554 -32.9063 -42.9063
      vertex 28.676 -33.0696 -43.0696
    endloop
  endfacet
  facet normal 1.66533e-16 -0.707107 0.707107
    outer loop
      vertex 29.0937 -34.3554 -44.3554
      vertex 28.9304 -34.676 -44.676
      vertex 38 -38 -48
    endloop
  endfacet
  facet normal 1.66533e-16 -0.707107 0.707107
    outer loop
      vertex 25.5 -33.5 -43.5
      vertex 27.0696 -34.676 -44.676
      vertex 26.9063 -34.3554 -44.3554
    endloop
  endfacet
  facet normal 1.66533e-16 -0.707107 0.707107
    outer loop
      vertex 28.676 -34.9304 -44.9304
      vertex 28.3554 -35.0937 -45.0937
      vertex 38 -38 -48
    endloop
  endfacet
  facet normal 1.66533e-16 -0.707107 0.707107
    outer loop
      vertex 27.6446 -35.0937 -45.0937
      vertex 20 -36.8 -46.8
      vertex 38 -38 -48
    endloop
  endfacet
  facet normal 1.66533e-16 -0.707107 0.707107
    outer loop
      vertex 28.3554 -35.0937 -45.0937
      vertex 28 -35.15 -45.15
      vertex 38 -38 -48
    endloop
  endfacet
  facet normal 1.66533e-16 -0.707107 0.707107
    outer loop
      vertex 25.5 -33.5 -43.5
      vertex 20 -36.8 -46.8
      vertex 27.324 -34.9304 -44.9304
    endloop
  endfacet
  facet normal 1.66533e-16 -0.707107 0.707107
    outer loop
      vertex 28 -35.15 -45.15
      vertex 27.6446 -35.0937 -45.0937
      vertex 38 -38 -48
    endloop
  endfacet
  facet normal 1.66533e-16 -0.707107 0.707107
    outer loop
      vertex 27.324 -34.9304 -44.9304
      vertex 20 -36.8 -46.8
      vertex 27.6446 -35.0937 -45.0937
    endloop
  endfacet
  facet normal 1.66533e-16 -0.707107 0.707107
    outer loop
      vertex 25.5 -33.5 -43.5
      vertex 27.324 -34.9304 -44.9304
      vertex 27.0696 -34.676 -44.676
    endloop
  endfacet
  facet normal 1.66533e-16 -0.707107 0.707107
    outer loop
      vertex 26.9063 -34.3554 -44.3554
      vertex 26.85 -34 -44
      vertex 25.5 -33.5 -43.5
    endloop
  endfacet
  facet normal 1.66533e-16 -0.707107 0.707107
    outer loop
      vertex 27.0696 -33.324 -43.324
      vertex 25.5 -33.5 -43.5
      vertex 26.9063 -33.6446 -43.6446
    endloop
  endfacet
  facet normal 1.66533e-16 -0.707107 0.707107
    outer loop
      vertex -27.0696 -33.324 -43.324
      vertex -26.9063 -33.6446 -43.6446
      vertex -25.5 -33.5 -43.5
    endloop
  endfacet
  facet normal 1.66533e-16 -0.707107 0.707107
    outer loop
      vertex 20 -36.8 -46.8
      vertex 14.5 -33.5 -43.5
      vertex 5.5 -33.5 -43.5
    endloop
  endfacet
  facet normal 1.66533e-16 -0.707107 0.707107
    outer loop
      vertex -20 -36.8 -46.8
      vertex -27.324 -34.9304 -44.9304
      vertex -27.6446 -35.0937 -45.0937
    endloop
  endfacet
  facet normal 1.66533e-16 -0.707107 0.707107
    outer loop
      vertex -20 -36.8 -46.8
      vertex -27.0696 -34.676 -44.676
      vertex -27.324 -34.9304 -44.9304
    endloop
  endfacet
  facet normal 1.66533e-16 -0.707107 0.707107
    outer loop
      vertex -20 -36.8 -46.8
      vertex -26.9063 -34.3554 -44.3554
      vertex -27.0696 -34.676 -44.676
    endloop
  endfacet
  facet normal 1.66533e-16 -0.707107 0.707107
    outer loop
      vertex -20 -36.8 -46.8
      vertex -26.85 -34 -44
      vertex -26.9063 -34.3554 -44.3554
    endloop
  endfacet
  facet normal 1.66533e-16 -0.707107 0.707107
    outer loop
      vertex -20 -36.8 -46.8
      vertex -26.9063 -33.6446 -43.6446
      vertex -26.85 -34 -44
    endloop
  endfacet
  facet normal 1.66533e-16 -0.707107 0.707107
    outer loop
      vertex -20 -36.8 -46.8
      vertex -25.5 -33.5 -43.5
      vertex -26.9063 -33.6446 -43.6446
    endloop
  endfacet
  facet normal 0.707107 6.50354e-17 0.707107
    outer loop
      vertex 31 20 -41
      vertex 30 30 -40
      vertex 30 -30 -40
    endloop
  endfacet
  facet normal 0.707107 6.50354e-17 0.707107
    outer loop
      vertex 31 5.79085e-15 -41
      vertex 31 20 -41
      vertex 30 -30 -40
    endloop
  endfacet
  facet normal 0.707107 6.50354e-17 0.707107
    outer loop
      vertex 38 38 -48
      vertex 30 30 -40
      vertex 31 20 -41
    endloop
  endfacet
  facet normal 0.707107 6.50354e-17 0.707107
    outer loop
      vertex 38 38 -48
      vertex 31 20 -41
      vertex 34 25 -44
    endloop
  endfacet
  facet normal 0.707107 6.50354e-17 0.707107
    outer loop
      vertex 38 -38 -48
      vertex 38 38 -48
      vertex 37 20 -47
    endloop
  endfacet
  facet normal 0.707107 6.50354e-17 0.707107
    outer loop
      vertex 34 5 -44
      vertex 37 3.62751e-07 -47
      vertex 37 20 -47
    endloop
  endfacet
  facet normal 0.707107 6.50354e-17 0.707107
    outer loop
      vertex 31 5.79085e-15 -41
      vertex 34 5 -44
      vertex 34 15 -44
    endloop
  endfacet
  facet normal 0.707107 6.50354e-17 0.707107
    outer loop
      vertex 37 -20 -47
      vertex 34 -25 -44
      vertex 38 -38 -48
    endloop
  endfacet
  facet normal 0.707107 6.50354e-17 0.707107
    outer loop
      vertex 37 20 -47
      vertex 34 15 -44
      vertex 34 5 -44
    endloop
  endfacet
  facet normal 0.707107 6.50354e-17 0.707107
    outer loop
      vertex 31 -20 -41
      vertex 34 -15 -44
      vertex 37 -3.62751e-07 -47
    endloop
  endfacet
  facet normal 0.707107 6.50354e-17 0.707107
    outer loop
      vertex 38 -38 -48
      vertex 37 20 -47
      vertex 37 3.62751e-07 -47
    endloop
  endfacet
  facet normal 0.707107 6.50354e-17 0.707107
    outer loop
      vertex 38 -38 -48
      vertex 37 3.62751e-07 -47
      vertex 37 -3.62751e-07 -47
    endloop
  endfacet
  facet normal 0.707107 6.50354e-17 0.707107
    outer loop
      vertex 31 -20 -41
      vertex 37 -3.62751e-07 -47
      vertex 34 -5 -44
    endloop
  endfacet
  facet normal 0.707107 6.50354e-17 0.707107
    outer loop
      vertex 34 -25 -44
      vertex 31 -20 -41
      vertex 30 -30 -40
    endloop
  endfacet
  facet normal 0.707107 6.50354e-17 0.707107
    outer loop
      vertex 37 -20 -47
      vertex 37 -3.62751e-07 -47
      vertex 34 -15 -44
    endloop
  endfacet
  facet normal 0.707107 6.50354e-17 0.707107
    outer loop
      vertex 38 -38 -48
      vertex 37 -3.62751e-07 -47
      vertex 37 -20 -47
    endloop
  endfacet
  facet normal 0.707107 6.50354e-17 0.707107
    outer loop
      vertex 38 -38 -48
      vertex 34 -25 -44
      vertex 30 -30 -40
    endloop
  endfacet
  facet normal 0.707107 6.50354e-17 0.707107
    outer loop
      vertex 34 15 -44
      vertex 31 20 -41
      vertex 31 5.79085e-15 -41
    endloop
  endfacet
  facet normal 0.707107 6.50354e-17 0.707107
    outer loop
      vertex 34 25 -44
      vertex 37 20 -47
      vertex 38 38 -48
    endloop
  endfacet
  facet normal 0.707107 6.50354e-17 0.707107
    outer loop
      vertex 31 -20 -41
      vertex 31 5.79085e-15 -41
      vertex 30 -30 -40
    endloop
  endfacet
  facet normal 0.707107 6.50354e-17 0.707107
    outer loop
      vertex 34 -5 -44
      vertex 31 5.79085e-15 -41
      vertex 31 -20 -41
    endloop
  endfacet
  facet normal -0.5 -0.866025 5.55111e-17
    outer loop
      vertex -30.5 34 -48
      vertex -30.5 34 -47
      vertex -32.75 35.299 -47
    endloop
  endfacet
  facet normal -0.5 -0.866025 5.55111e-17
    outer loop
      vertex -32.75 35.299 -48
      vertex -30.5 34 -48
      vertex -32.75 35.299 -47
    endloop
  endfacet
  facet normal 1 1.57009e-16 -1.11022e-16
    outer loop
      vertex -32.75 35.299 -47
      vertex -32.75 32.701 -47
      vertex -32.75 32.701 -48
    endloop
  endfacet
  facet normal 1 1.57009e-16 -1.11022e-16
    outer loop
      vertex -32.75 35.299 -48
      vertex -32.75 35.299 -47
      vertex -32.75 32.701 -48
    endloop
  endfacet
  facet normal -0.5 0.866025 5.55111e-17
    outer loop
      vertex -30.5 34 -47
      vertex -30.5 34 -48
      vertex -32.75 32.701 -47
    endloop
  endfacet
  facet normal -0.5 0.866025 5.55111e-17
    outer loop
      vertex -32.75 32.701 -47
      vertex -30.5 34 -48
      vertex -32.75 32.701 -48
    endloop
  endfacet
  facet normal 1 1.57009e-16 -1.11022e-16
    outer loop
      vertex -26.75 35.299 -47
      vertex -26.75 32.701 -47
      vertex -26.75 32.701 -48
    endloop
  endfacet
  facet normal 1 1.57009e-16 -1.11022e-16
    outer loop
      vertex -26.75 35.299 -48
      vertex -26.75 35.299 -47
      vertex -26.75 32.701 -48
    endloop
  endfacet
  facet normal -0.5 -0.866025 5.55111e-17
    outer loop
      vertex -24.5 34 -48
      vertex -24.5 34 -47
      vertex -26.75 35.299 -47
    endloop
  endfacet
  facet normal -0.5 -0.866025 5.55111e-17
    outer loop
      vertex -26.75 35.299 -48
      vertex -24.5 34 -48
      vertex -26.75 35.299 -47
    endloop
  endfacet
  facet normal -0.5 0.866025 5.55111e-17
    outer loop
      vertex -24.5 34 -47
      vertex -24.5 34 -48
      vertex -26.75 32.701 -47
    endloop
  endfacet
  facet normal -0.5 0.866025 5.55111e-17
    outer loop
      vertex -26.75 32.701 -47
      vertex -24.5 34 -48
      vertex -26.75 32.701 -48
    endloop
  endfacet
  facet normal -1.0285e-16 -0.415098 -0.909777
    outer loop
      vertex 28.3349 28.3349 -48
      vertex 2.9 2.9 -36.395
      vertex -2.9 2.9 -36.395
    endloop
  endfacet
  facet normal -1.0285e-16 -0.415098 -0.909777
    outer loop
      vertex 28.3349 28.3349 -48
      vertex -2.9 2.9 -36.395
      vertex -28.3349 28.3349 -48
    endloop
  endfacet
  facet normal 0.415098 2.03331e-17 -0.909777
    outer loop
      vertex -2.9 2.9 -36.395
      vertex -2.9 -2.9 -36.395
      vertex -28.3349 -28.3349 -48
    endloop
  endfacet
  facet normal 0.415098 2.03331e-17 -0.909777
    outer loop
      vertex -2.9 2.9 -36.395
      vertex -28.3349 -28.3349 -48
      vertex -28.3349 28.3349 -48
    endloop
  endfacet
  facet normal -0.415098 -4.48411e-17 -0.909777
    outer loop
      vertex 28.3349 -28.3349 -48
      vertex 2.9 -2.9 -36.395
      vertex 28.3349 28.3349 -48
    endloop
  endfacet
  facet normal -0.415098 -4.48411e-17 -0.909777
    outer loop
      vertex 2.9 2.9 -36.395
      vertex 28.3349 28.3349 -48
      vertex 2.9 -2.9 -36.395
    endloop
  endfacet
  facet normal -1.0285e-16 0.415098 -0.909777
    outer loop
      vertex 2.9 -2.9 -36.395
      vertex 28.3349 -28.3349 -48
      vertex -2.9 -2.9 -36.395
    endloop
  endfacet
  facet normal -1.0285e-16 0.415098 -0.909777
    outer loop
      vertex -2.9 -2.9 -36.395
      vertex 28.3349 -28.3349 -48
      vertex -28.3349 -28.3349 -48
    endloop
  endfacet
  facet normal 2.35514e-16 1.34693e-17 1
    outer loop
      vertex -13.7577 -13.7577 -40
      vertex -30 30 -40
      vertex -30 -30 -40
    endloop
  endfacet
  facet normal 2.35514e-16 1.34693e-17 1
    outer loop
      vertex 13.7577 13.7577 -40
      vertex 13.7577 -13.7577 -40
      vertex 30 30 -40
    endloop
  endfacet
  facet normal 2.35514e-16 1.34693e-17 1
    outer loop
      vertex -13.7577 13.7577 -40
      vertex -30 30 -40
      vertex -13.7577 -13.7577 -40
    endloop
  endfacet
  facet normal 2.35514e-16 1.34693e-17 1
    outer loop
      vertex 30 30 -40
      vertex -30 30 -40
      vertex -13.7577 13.7577 -40
    endloop
  endfacet
  facet normal 2.35514e-16 1.34693e-17 1
    outer loop
      vertex 30 30 -40
      vertex -13.7577 13.7577 -40
      vertex 13.7577 13.7577 -40
    endloop
  endfacet
  facet normal 2.35514e-16 1.34693e-17 1
    outer loop
      vertex 30 -30 -40
      vertex 13.7577 -13.7577 -40
      vertex -30 -30 -40
    endloop
  endfacet
  facet normal 2.35514e-16 1.34693e-17 1
    outer loop
      vertex 30 -30 -40
      vertex 30 30 -40
      vertex 13.7577 -13.7577 -40
    endloop
  endfacet
  facet normal 2.35514e-16 1.34693e-17 1
    outer loop
      vertex 13.7577 -13.7577 -40
      vertex -13.7577 -13.7577 -40
      vertex -30 -30 -40
    endloop
  endfacet
  facet normal 0.891007 2.27272e-16 0.45399
    outer loop
      vertex -29.0937 34.3554 -44.3554
      vertex -29.0937 -34.3554 -44.3554
      vertex -28.9304 -34.676 -44.676
    endloop
  endfacet
  facet normal 0.891007 2.27272e-16 0.45399
    outer loop
      vertex -28.9304 34.676 -44.676
      vertex -29.0937 34.3554 -44.3554
      vertex -28.9304 -34.676 -44.676
    endloop
  endfacet
  facet normal 0.707107 3.00549e-16 0.707107
    outer loop
      vertex -28.9304 -34.676 -44.676
      vertex -28.676 -34.9304 -44.9304
      vertex -28.676 34.9304 -44.9304
    endloop
  endfacet
  facet normal 0.707107 3.00549e-16 0.707107
    outer loop
      vertex -28.9304 34.676 -44.676
      vertex -28.9304 -34.676 -44.676
      vertex -28.676 34.9304 -44.9304
    endloop
  endfacet
  facet normal 0.987688 1.31748e-16 0.156434
    outer loop
      vertex -29.15 34 -44
      vertex -29.15 -34 -44
      vertex -29.0937 -34.3554 -44.3554
    endloop
  endfacet
  facet normal 0.987688 1.31748e-16 0.156434
    outer loop
      vertex -29.0937 34.3554 -44.3554
      vertex -29.15 34 -44
      vertex -29.0937 -34.3554 -44.3554
    endloop
  endfacet
  facet normal 0.987688 2.3328e-17 -0.156434
    outer loop
      vertex -29.0937 33.6446 -43.6446
      vertex -29.0937 -33.6446 -43.6446
      vertex -29.15 -34 -44
    endloop
  endfacet
  facet normal 0.987688 2.3328e-17 -0.156434
    outer loop
      vertex -29.15 34 -44
      vertex -29.0937 33.6446 -43.6446
      vertex -29.15 -34 -44
    endloop
  endfacet
  facet normal 0.891007 -8.73758e-17 -0.45399
    outer loop
      vertex -28.9304 33.324 -43.324
      vertex -28.9304 -33.324 -43.324
      vertex -29.0937 -33.6446 -43.6446
    endloop
  endfacet
  facet normal 0.891007 -8.73758e-17 -0.45399
    outer loop
      vertex -29.0937 33.6446 -43.6446
      vertex -28.9304 33.324 -43.324
      vertex -29.0937 -33.6446 -43.6446
    endloop
  endfacet
  facet normal 0.707107 -1.89527e-16 -0.707107
    outer loop
      vertex -28.676 -33.0696 -43.0696
      vertex -28.9304 -33.324 -43.324
      vertex -28.676 33.0696 -43.0696
    endloop
  endfacet
  facet normal 0.707107 -1.89527e-16 -0.707107
    outer loop
      vertex -28.676 33.0696 -43.0696
      vertex -28.9304 -33.324 -43.324
      vertex -28.9304 33.324 -43.324
    endloop
  endfacet
  facet normal 0.45399 -2.73126e-16 -0.891007
    outer loop
      vertex -28.3554 -32.9063 -42.9063
      vertex -28.676 -33.0696 -43.0696
      vertex -28.3554 32.9063 -42.9063
    endloop
  endfacet
  facet normal 0.45399 -2.73126e-16 -0.891007
    outer loop
      vertex -28.3554 32.9063 -42.9063
      vertex -28.676 -33.0696 -43.0696
      vertex -28.676 33.0696 -43.0696
    endloop
  endfacet
  facet normal 0.156434 -3.29989e-16 -0.987688
    outer loop
      vertex -28 -32.85 -42.85
      vertex -28.3554 -32.9063 -42.9063
      vertex -28 32.85 -42.85
    endloop
  endfacet
  facet normal 0.156434 -3.29989e-16 -0.987688
    outer loop
      vertex -28 32.85 -42.85
      vertex -28.3554 -32.9063 -42.9063
      vertex -28.3554 32.9063 -42.9063
    endloop
  endfacet
  facet normal -0.156434 -3.54551e-16 -0.987688
    outer loop
      vertex -27.6446 -32.9063 -42.9063
      vertex -28 -32.85 -42.85
      vertex -27.6446 32.9063 -42.9063
    endloop
  endfacet
  facet normal -0.156434 -3.54551e-16 -0.987688
    outer loop
      vertex -27.6446 32.9063 -42.9063
      vertex -28 -32.85 -42.85
      vertex -28 32.85 -42.85
    endloop
  endfacet
  facet normal -0.45399 -3.44406e-16 -0.891007
    outer loop
      vertex -27.324 -33.0696 -43.0696
      vertex -27.6446 -32.9063 -42.9063
      vertex -27.324 33.0696 -43.0696
    endloop
  endfacet
  facet normal -0.45399 -3.44406e-16 -0.891007
    outer loop
      vertex -27.324 33.0696 -43.0696
      vertex -27.6446 -32.9063 -42.9063
      vertex -27.6446 32.9063 -42.9063
    endloop
  endfacet
  facet normal -0.707107 -3.00549e-16 -0.707107
    outer loop
      vertex -27.0696 -33.324 -43.324
      vertex -27.324 -33.0696 -43.0696
      vertex -27.0696 33.324 -43.324
    endloop
  endfacet
  facet normal -0.707107 -3.00549e-16 -0.707107
    outer loop
      vertex -27.0696 33.324 -43.324
      vertex -27.324 -33.0696 -43.0696
      vertex -27.324 33.0696 -43.0696
    endloop
  endfacet
  facet normal -0.891007 -2.27272e-16 -0.45399
    outer loop
      vertex -27.0696 -33.324 -43.324
      vertex -27.0696 33.324 -43.324
      vertex -26.9063 -33.6446 -43.6446
    endloop
  endfacet
  facet normal -0.891007 -2.27272e-16 -0.45399
    outer loop
      vertex -26.9063 -33.6446 -43.6446
      vertex -27.0696 33.324 -43.324
      vertex -26.9063 33.6446 -43.6446
    endloop
  endfacet
  facet normal -0.987688 -1.31748e-16 -0.156434
    outer loop
      vertex -26.9063 -33.6446 -43.6446
      vertex -26.9063 33.6446 -43.6446
      vertex -26.85 -34 -44
    endloop
  endfacet
  facet normal -0.987688 -1.31748e-16 -0.156434
    outer loop
      vertex -26.85 -34 -44
      vertex -26.9063 33.6446 -43.6446
      vertex -26.85 34 -44
    endloop
  endfacet
  facet normal -0.987688 -2.3328e-17 0.156434
    outer loop
      vertex -26.85 -34 -44
      vertex -26.85 34 -44
      vertex -26.9063 -34.3554 -44.3554
    endloop
  endfacet
  facet normal -0.987688 -2.3328e-17 0.156434
    outer loop
      vertex -26.9063 -34.3554 -44.3554
      vertex -26.85 34 -44
      vertex -26.9063 34.3554 -44.3554
    endloop
  endfacet
  facet normal -0.891007 8.73758e-17 0.45399
    outer loop
      vertex -26.9063 -34.3554 -44.3554
      vertex -26.9063 34.3554 -44.3554
      vertex -27.0696 -34.676 -44.676
    endloop
  endfacet
  facet normal -0.891007 8.73758e-17 0.45399
    outer loop
      vertex -27.0696 -34.676 -44.676
      vertex -26.9063 34.3554 -44.3554
      vertex -27.0696 34.676 -44.676
    endloop
  endfacet
  facet normal -0.707107 1.89527e-16 0.707107
    outer loop
      vertex -27.324 -34.9304 -44.9304
      vertex -27.0696 -34.676 -44.676
      vertex -27.0696 34.676 -44.676
    endloop
  endfacet
  facet normal -0.707107 1.89527e-16 0.707107
    outer loop
      vertex -27.324 34.9304 -44.9304
      vertex -27.324 -34.9304 -44.9304
      vertex -27.0696 34.676 -44.676
    endloop
  endfacet
  facet normal -0.45399 2.73126e-16 0.891007
    outer loop
      vertex -27.6446 -35.0937 -45.0937
      vertex -27.324 -34.9304 -44.9304
      vertex -27.324 34.9304 -44.9304
    endloop
  endfacet
  facet normal -0.45399 2.73126e-16 0.891007
    outer loop
      vertex -27.6446 35.0937 -45.0937
      vertex -27.6446 -35.0937 -45.0937
      vertex -27.324 34.9304 -44.9304
    endloop
  endfacet
  facet normal -0.156434 3.29989e-16 0.987688
    outer loop
      vertex -28 -35.15 -45.15
      vertex -27.6446 -35.0937 -45.0937
      vertex -27.6446 35.0937 -45.0937
    endloop
  endfacet
  facet normal -0.156434 3.29989e-16 0.987688
    outer loop
      vertex -28 35.15 -45.15
      vertex -28 -35.15 -45.15
      vertex -27.6446 35.0937 -45.0937
    endloop
  endfacet
  facet normal 0.156434 3.54551e-16 0.987688
    outer loop
      vertex -28.3554 -35.0937 -45.0937
      vertex -28 -35.15 -45.15
      vertex -28 35.15 -45.15
    endloop
  endfacet
  facet normal 0.156434 3.54551e-16 0.987688
    outer loop
      vertex -28.3554 35.0937 -45.0937
      vertex -28.3554 -35.0937 -45.0937
      vertex -28 35.15 -45.15
    endloop
  endfacet
  facet normal 0.45399 3.44406e-16 0.891007
    outer loop
      vertex -28.676 -34.9304 -44.9304
      vertex -28.3554 -35.0937 -45.0937
      vertex -28.3554 35.0937 -45.0937
    endloop
  endfacet
  facet normal 0.45399 3.44406e-16 0.891007
    outer loop
      vertex -28.676 34.9304 -44.9304
      vertex -28.676 -34.9304 -44.9304
      vertex -28.3554 35.0937 -45.0937
    endloop
  endfacet
  facet normal 0.514496 2.82732e-16 0.857493
    outer loop
      vertex -25.5 28.15 -43.5
      vertex -20 28.15 -46.8
      vertex -20 36.8 -46.8
    endloop
  endfacet
  facet normal 0.514496 2.82732e-16 0.857493
    outer loop
      vertex -25.5 33.5 -43.5
      vertex -25.5 28.15 -43.5
      vertex -20 36.8 -46.8
    endloop
  endfacet
  facet normal 0.514496 -1.21171e-16 -0.857493
    outer loop
      vertex -20 28.15 -40.2
      vertex -25.5 28.15 -43.5
      vertex -20 30.2 -40.2
    endloop
  endfacet
  facet normal 0.514496 -1.21171e-16 -0.857493
    outer loop
      vertex -20 30.2 -40.2
      vertex -25.5 28.15 -43.5
      vertex -25.5 33.5 -43.5
    endloop
  endfacet
  facet normal -0.514496 -2.82732e-16 -0.857493
    outer loop
      vertex -14.5 28.15 -43.5
      vertex -20 28.15 -40.2
      vertex -14.5 33.5 -43.5
    endloop
  endfacet
  facet normal -0.514496 -2.82732e-16 -0.857493
    outer loop
      vertex -14.5 33.5 -43.5
      vertex -20 28.15 -40.2
      vertex -20 30.2 -40.2
    endloop
  endfacet
  facet normal -0.514496 1.21171e-16 0.857493
    outer loop
      vertex -20 28.15 -46.8
      vertex -14.5 28.15 -43.5
      vertex -14.5 33.5 -43.5
    endloop
  endfacet
  facet normal -0.514496 1.21171e-16 0.857493
    outer loop
      vertex -20 36.8 -46.8
      vertex -20 28.15 -46.8
      vertex -14.5 33.5 -43.5
    endloop
  endfacet
  facet normal 0.514496 2.82732e-16 0.857493
    outer loop
      vertex -5.5 28.15 -43.5
      vertex -4.28658e-15 28.15 -46.8
      vertex -5.64471e-15 36.8 -46.8
    endloop
  endfacet
  facet normal 0.514496 2.82732e-16 0.857493
    outer loop
      vertex -5.5 33.5 -43.5
      vertex -5.5 28.15 -43.5
      vertex -5.64471e-15 36.8 -46.8
    endloop
  endfacet
  facet normal 0.514496 -1.21171e-16 -0.857493
    outer loop
      vertex -3.55384e-15 28.15 -40.2
      vertex -5.5 28.15 -43.5
      vertex -3.87571e-15 30.2 -40.2
    endloop
  endfacet
  facet normal 0.514496 -1.21171e-16 -0.857493
    outer loop
      vertex -3.87571e-15 30.2 -40.2
      vertex -5.5 28.15 -43.5
      vertex -5.5 33.5 -43.5
    endloop
  endfacet
  facet normal -0.514496 -2.82732e-16 -0.857493
    outer loop
      vertex 5.5 28.15 -43.5
      vertex -3.55384e-15 28.15 -40.2
      vertex 5.5 33.5 -43.5
    endloop
  endfacet
  facet normal -0.514496 -2.82732e-16 -0.857493
    outer loop
      vertex 5.5 33.5 -43.5
      vertex -3.55384e-15 28.15 -40.2
      vertex -3.87571e-15 30.2 -40.2
    endloop
  endfacet
  facet normal -0.514496 1.21171e-16 0.857493
    outer loop
      vertex -4.28658e-15 28.15 -46.8
      vertex 5.5 28.15 -43.5
      vertex 5.5 33.5 -43.5
    endloop
  endfacet
  facet normal -0.514496 1.21171e-16 0.857493
    outer loop
      vertex -5.64471e-15 36.8 -46.8
      vertex -4.28658e-15 28.15 -46.8
      vertex 5.5 33.5 -43.5
    endloop
  endfacet
  facet normal 0.514496 2.82732e-16 0.857493
    outer loop
      vertex 14.5 28.15 -43.5
      vertex 20 28.15 -46.8
      vertex 20 36.8 -46.8
    endloop
  endfacet
  facet normal 0.514496 2.82732e-16 0.857493
    outer loop
      vertex 14.5 33.5 -43.5
      vertex 14.5 28.15 -43.5
      vertex 20 36.8 -46.8
    endloop
  endfacet
  facet normal 0.514496 -1.21171e-16 -0.857493
    outer loop
      vertex 20 28.15 -40.2
      vertex 14.5 28.15 -43.5
      vertex 20 30.2 -40.2
    endloop
  endfacet
  facet normal 0.514496 -1.21171e-16 -0.857493
    outer loop
      vertex 20 30.2 -40.2
      vertex 14.5 28.15 -43.5
      vertex 14.5 33.5 -43.5
    endloop
  endfacet
  facet normal -0.514496 -2.82732e-16 -0.857493
    outer loop
      vertex 25.5 28.15 -43.5
      vertex 20 28.15 -40.2
      vertex 25.5 33.5 -43.5
    endloop
  endfacet
  facet normal -0.514496 -2.82732e-16 -0.857493
    outer loop
      vertex 25.5 33.5 -43.5
      vertex 20 28.15 -40.2
      vertex 20 30.2 -40.2
    endloop
  endfacet
  facet normal -0.514496 1.21171e-16 0.857493
    outer loop
      vertex 20 28.15 -46.8
      vertex 25.5 28.15 -43.5
      vertex 25.5 33.5 -43.5
    endloop
  endfacet
  facet normal -0.514496 1.21171e-16 0.857493
    outer loop
      vertex 20 36.8 -46.8
      vertex 20 28.15 -46.8
      vertex 25.5 33.5 -43.5
    endloop
  endfacet
  facet normal 0.891007 2.27272e-16 0.45399
    outer loop
      vertex 26.9063 34.3554 -44.3554
      vertex 26.9063 -34.3554 -44.3554
      vertex 27.0696 -34.676 -44.676
    endloop
  endfacet
  facet normal 0.891007 2.27272e-16 0.45399
    outer loop
      vertex 27.0696 34.676 -44.676
      vertex 26.9063 34.3554 -44.3554
      vertex 27.0696 -34.676 -44.676
    endloop
  endfacet
  facet normal 0.707107 3.00549e-16 0.707107
    outer loop
      vertex 27.0696 -34.676 -44.676
      vertex 27.324 -34.9304 -44.9304
      vertex 27.324 34.9304 -44.9304
    endloop
  endfacet
  facet normal 0.707107 3.00549e-16 0.707107
    outer loop
      vertex 27.0696 34.676 -44.676
      vertex 27.0696 -34.676 -44.676
      vertex 27.324 34.9304 -44.9304
    endloop
  endfacet
  facet normal 0.987688 1.31748e-16 0.156434
    outer loop
      vertex 26.85 34 -44
      vertex 26.85 -34 -44
      vertex 26.9063 -34.3554 -44.3554
    endloop
  endfacet
  facet normal 0.987688 1.31748e-16 0.156434
    outer loop
      vertex 26.9063 34.3554 -44.3554
      vertex 26.85 34 -44
      vertex 26.9063 -34.3554 -44.3554
    endloop
  endfacet
  facet normal 0.987688 2.3328e-17 -0.156434
    outer loop
      vertex 26.9063 33.6446 -43.6446
      vertex 26.9063 -33.6446 -43.6446
      vertex 26.85 -34 -44
    endloop
  endfacet
  facet normal 0.987688 2.3328e-17 -0.156434
    outer loop
      vertex 26.85 34 -44
      vertex 26.9063 33.6446 -43.6446
      vertex 26.85 -34 -44
    endloop
  endfacet
  facet normal 0.891007 -8.73758e-17 -0.45399
    outer loop
      vertex 27.0696 33.324 -43.324
      vertex 27.0696 -33.324 -43.324
      vertex 26.9063 -33.6446 -43.6446
    endloop
  endfacet
  facet normal 0.891007 -8.73758e-17 -0.45399
    outer loop
      vertex 26.9063 33.6446 -43.6446
      vertex 27.0696 33.324 -43.324
      vertex 26.9063 -33.6446 -43.6446
    endloop
  endfacet
  facet normal 0.707107 -1.89527e-16 -0.707107
    outer loop
      vertex 27.324 -33.0696 -43.0696
      vertex 27.0696 -33.324 -43.324
      vertex 27.324 33.0696 -43.0696
    endloop
  endfacet
  facet normal 0.707107 -1.89527e-16 -0.707107
    outer loop
      vertex 27.324 33.0696 -43.0696
      vertex 27.0696 -33.324 -43.324
      vertex 27.0696 33.324 -43.324
    endloop
  endfacet
  facet normal 0.45399 -2.73126e-16 -0.891007
    outer loop
      vertex 27.6446 -32.9063 -42.9063
      vertex 27.324 -33.0696 -43.0696
      vertex 27.6446 32.9063 -42.9063
    endloop
  endfacet
  facet normal 0.45399 -2.73126e-16 -0.891007
    outer loop
      vertex 27.6446 32.9063 -42.9063
      vertex 27.324 -33.0696 -43.0696
      vertex 27.324 33.0696 -43.0696
    endloop
  endfacet
  facet normal 0.156434 -3.29989e-16 -0.987688
    outer loop
      vertex 28 -32.85 -42.85
      vertex 27.6446 -32.9063 -42.9063
      vertex 28 32.85 -42.85
    endloop
  endfacet
  facet normal 0.156434 -3.29989e-16 -0.987688
    outer loop
      vertex 28 32.85 -42.85
      vertex 27.6446 -32.9063 -42.9063
      vertex 27.6446 32.9063 -42.9063
    endloop
  endfacet
  facet normal -0.156434 -3.54551e-16 -0.987688
    outer loop
      vertex 28.3554 -32.9063 -42.9063
      vertex 28 -32.85 -42.85
      vertex 28.3554 32.9063 -42.9063
    endloop
  endfacet
  facet normal -0.156434 -3.54551e-16 -0.987688
    outer loop
      vertex 28.3554 32.9063 -42.9063
      vertex 28 -32.85 -42.85
      vertex 28 32.85 -42.85
    endloop
  endfacet
  facet normal -0.45399 -3.44406e-16 -0.891007
    outer loop
      vertex 28.676 -33.0696 -43.0696
      vertex 28.3554 -32.9063 -42.9063
      vertex 28.676 33.0696 -43.0696
    endloop
  endfacet
  facet normal -0.45399 -3.44406e-16 -0.891007
    outer loop
      vertex 28.676 33.0696 -43.0696
      vertex 28.3554 -32.9063 -42.9063
      vertex 28.3554 32.9063 -42.9063
    endloop
  endfacet
  facet normal -0.707107 -3.00549e-16 -0.707107
    outer loop
      vertex 28.9304 -33.324 -43.324
      vertex 28.676 -33.0696 -43.0696
      vertex 28.9304 33.324 -43.324
    endloop
  endfacet
  facet normal -0.707107 -3.00549e-16 -0.707107
    outer loop
      vertex 28.9304 33.324 -43.324
      vertex 28.676 -33.0696 -43.0696
      vertex 28.676 33.0696 -43.0696
    endloop
  endfacet
  facet normal -0.891007 -2.27272e-16 -0.45399
    outer loop
      vertex 28.9304 -33.324 -43.324
      vertex 28.9304 33.324 -43.324
      vertex 29.0937 -33.6446 -43.6446
    endloop
  endfacet
  facet normal -0.891007 -2.27272e-16 -0.45399
    outer loop
      vertex 29.0937 -33.6446 -43.6446
      vertex 28.9304 33.324 -43.324
      vertex 29.0937 33.6446 -43.6446
    endloop
  endfacet
  facet normal -0.987688 -1.31748e-16 -0.156434
    outer loop
      vertex 29.0937 -33.6446 -43.6446
      vertex 29.0937 33.6446 -43.6446
      vertex 29.15 -34 -44
    endloop
  endfacet
  facet normal -0.987688 -1.31748e-16 -0.156434
    outer loop
      vertex 29.15 -34 -44
      vertex 29.0937 33.6446 -43.6446
      vertex 29.15 34 -44
    endloop
  endfacet
  facet normal -0.987688 -2.3328e-17 0.156434
    outer loop
      vertex 29.15 -34 -44
      vertex 29.15 34 -44
      vertex 29.0937 -34.3554 -44.3554
    endloop
  endfacet
  facet normal -0.987688 -2.3328e-17 0.156434
    outer loop
      vertex 29.0937 -34.3554 -44.3554
      vertex 29.15 34 -44
      vertex 29.0937 34.3554 -44.3554
    endloop
  endfacet
  facet normal -0.891007 8.73758e-17 0.45399
    outer loop
      vertex 29.0937 -34.3554 -44.3554
      vertex 29.0937 34.3554 -44.3554
      vertex 28.9304 -34.676 -44.676
    endloop
  endfacet
  facet normal -0.891007 8.73758e-17 0.45399
    outer loop
      vertex 28.9304 -34.676 -44.676
      vertex 29.0937 34.3554 -44.3554
      vertex 28.9304 34.676 -44.676
    endloop
  endfacet
  facet normal -0.707107 1.89527e-16 0.707107
    outer loop
      vertex 28.676 -34.9304 -44.9304
      vertex 28.9304 -34.676 -44.676
      vertex 28.9304 34.676 -44.676
    endloop
  endfacet
  facet normal -0.707107 1.89527e-16 0.707107
    outer loop
      vertex 28.676 34.9304 -44.9304
      vertex 28.676 -34.9304 -44.9304
      vertex 28.9304 34.676 -44.676
    endloop
  endfacet
  facet normal -0.45399 2.73126e-16 0.891007
    outer loop
      vertex 28.3554 -35.0937 -45.0937
      vertex 28.676 -34.9304 -44.9304
      vertex 28.676 34.9304 -44.9304
    endloop
  endfacet
  facet normal -0.45399 2.73126e-16 0.891007
    outer loop
      vertex 28.3554 35.0937 -45.0937
      vertex 28.3554 -35.0937 -45.0937
      vertex 28.676 34.9304 -44.9304
    endloop
  endfacet
  facet normal -0.156434 3.29989e-16 0.987688
    outer loop
      vertex 28 -35.15 -45.15
      vertex 28.3554 -35.0937 -45.0937
      vertex 28.3554 35.0937 -45.0937
    endloop
  endfacet
  facet normal -0.156434 3.29989e-16 0.987688
    outer loop
      vertex 28 35.15 -45.15
      vertex 28 -35.15 -45.15
      vertex 28.3554 35.0937 -45.0937
    endloop
  endfacet
  facet normal 0.156434 3.54551e-16 0.987688
    outer loop
      vertex 27.6446 -35.0937 -45.0937
      vertex 28 -35.15 -45.15
      vertex 28 35.15 -45.15
    endloop
  endfacet
  facet normal 0.156434 3.54551e-16 0.987688
    outer loop
      vertex 27.6446 35.0937 -45.0937
      vertex 27.6446 -35.0937 -45.0937
      vertex 28 35.15 -45.15
    endloop
  endfacet
  facet normal 0.45399 3.44406e-16 0.891007
    outer loop
      vertex 27.324 -34.9304 -44.9304
      vertex 27.6446 -35.0937 -45.0937
      vertex 27.6446 35.0937 -45.0937
    endloop
  endfacet
  facet normal 0.45399 3.44406e-16 0.891007
    outer loop
      vertex 27.324 34.9304 -44.9304
      vertex 27.324 -34.9304 -44.9304
      vertex 27.6446 35.0937 -45.0937
    endloop
  endfacet
  facet normal -0.857493 0.514496 9.52008e-17
    outer loop
      vertex -34 25 -44
      vertex -37 20 -47
      vertex -34 25 -39
    endloop
  endfacet
  facet normal -0.857493 0.514496 9.52008e-17
    outer loop
      vertex -34 25 -39
      vertex -37 20 -47
      vertex -37 20 -39
    endloop
  endfacet
  facet normal -0.857493 -0.514496 9.52008e-17
    outer loop
      vertex -37 20 -39
      vertex -37 20 -47
      vertex -34 15 -44
    endloop
  endfacet
  facet normal -0.857493 -0.514496 9.52008e-17
    outer loop
      vertex -37 20 -39
      vertex -34 15 -44
      vertex -34 15 -39
    endloop
  endfacet
  facet normal 0.857493 -0.514496 -9.52008e-17
    outer loop
      vertex -34 15 -44
      vertex -31 20 -41
      vertex -31 20 -39
    endloop
  endfacet
  facet normal 0.857493 -0.514496 -9.52008e-17
    outer loop
      vertex -34 15 -39
      vertex -34 15 -44
      vertex -31 20 -39
    endloop
  endfacet
  facet normal 0.857493 0.514496 -9.52008e-17
    outer loop
      vertex -31 20 -41
      vertex -34 25 -44
      vertex -34 25 -39
    endloop
  endfacet
  facet normal 0.857493 0.514496 -9.52008e-17
    outer loop
      vertex -31 20 -39
      vertex -31 20 -41
      vertex -34 25 -39
    endloop
  endfacet
  facet normal -0.857493 0.514496 9.52008e-17
    outer loop
      vertex -34 5 -44
      vertex -37 3.62751e-07 -47
      vertex -34 5 -39
    endloop
  endfacet
  facet normal -0.857493 0.514496 9.52008e-17
    outer loop
      vertex -34 5 -39
      vertex -37 3.62751e-07 -47
      vertex -37 1.64675e-14 -47
    endloop
  endfacet
  facet normal -0.857493 0.514496 9.52008e-17
    outer loop
      vertex -34 5 -39
      vertex -37 1.64675e-14 -47
      vertex -37 1.64675e-14 -39
    endloop
  endfacet
  facet normal -2.35514e-16 -1.34693e-17 -1
    outer loop
      vertex -37 1.64675e-14 -47
      vertex -37 3.62751e-07 -47
      vertex -37 -3.62751e-07 -47
    endloop
  endfacet
  facet normal -0.857493 -0.514496 9.52008e-17
    outer loop
      vertex -37 1.64675e-14 -47
      vertex -37 -3.62751e-07 -47
      vertex -37 1.64675e-14 -39
    endloop
  endfacet
  facet normal -0.857493 -0.514496 9.52008e-17
    outer loop
      vertex -37 1.64675e-14 -39
      vertex -37 -3.62751e-07 -47
      vertex -34 -5 -44
    endloop
  endfacet
  facet normal -0.857493 -0.514496 9.52008e-17
    outer loop
      vertex -37 1.64675e-14 -39
      vertex -34 -5 -44
      vertex -34 -5 -39
    endloop
  endfacet
  facet normal 0.857493 -0.514496 -9.52008e-17
    outer loop
      vertex -34 -5 -44
      vertex -31 1.55254e-14 -41
      vertex -31 1.55254e-14 -39
    endloop
  endfacet
  facet normal 0.857493 -0.514496 -9.52008e-17
    outer loop
      vertex -34 -5 -39
      vertex -34 -5 -44
      vertex -31 1.55254e-14 -39
    endloop
  endfacet
  facet normal 0.857493 0.514496 -9.52008e-17
    outer loop
      vertex -31 1.55254e-14 -41
      vertex -34 5 -44
      vertex -34 5 -39
    endloop
  endfacet
  facet normal 0.857493 0.514496 -9.52008e-17
    outer loop
      vertex -31 1.55254e-14 -39
      vertex -31 1.55254e-14 -41
      vertex -34 5 -39
    endloop
  endfacet
  facet normal -0.857493 0.514496 9.52008e-17
    outer loop
      vertex -34 -15 -44
      vertex -37 -20 -47
      vertex -34 -15 -39
    endloop
  endfacet
  facet normal -0.857493 0.514496 9.52008e-17
    outer loop
      vertex -34 -15 -39
      vertex -37 -20 -47
      vertex -37 -20 -39
    endloop
  endfacet
  facet normal -0.857493 -0.514496 9.52008e-17
    outer loop
      vertex -37 -20 -39
      vertex -37 -20 -47
      vertex -34 -25 -44
    endloop
  endfacet
  facet normal -0.857493 -0.514496 9.52008e-17
    outer loop
      vertex -37 -20 -39
      vertex -34 -25 -44
      vertex -34 -25 -39
    endloop
  endfacet
  facet normal 0.857493 -0.514496 -9.52008e-17
    outer loop
      vertex -34 -25 -44
      vertex -31 -20 -41
      vertex -31 -20 -39
    endloop
  endfacet
  facet normal 0.857493 -0.514496 -9.52008e-17
    outer loop
      vertex -34 -25 -39
      vertex -34 -25 -44
      vertex -31 -20 -39
    endloop
  endfacet
  facet normal 0.857493 0.514496 -9.52008e-17
    outer loop
      vertex -31 -20 -41
      vertex -34 -15 -44
      vertex -34 -15 -39
    endloop
  endfacet
  facet normal 0.857493 0.514496 -9.52008e-17
    outer loop
      vertex -31 -20 -39
      vertex -31 -20 -41
      vertex -34 -15 -39
    endloop
  endfacet
  facet normal 0.514496 -1.38462e-16 0.857493
    outer loop
      vertex -25.5 -33.5 -43.5
      vertex -20 -36.8 -46.8
      vertex -20 -28.15 -46.8
    endloop
  endfacet
  facet normal 0.514496 -1.38462e-16 0.857493
    outer loop
      vertex -25.5 -28.15 -43.5
      vertex -25.5 -33.5 -43.5
      vertex -20 -28.15 -46.8
    endloop
  endfacet
  facet normal 0.514496 2.19242e-16 -0.857493
    outer loop
      vertex -20 -30.2 -40.2
      vertex -25.5 -33.5 -43.5
      vertex -20 -28.15 -40.2
    endloop
  endfacet
  facet normal 0.514496 2.19242e-16 -0.857493
    outer loop
      vertex -20 -28.15 -40.2
      vertex -25.5 -33.5 -43.5
      vertex -25.5 -28.15 -43.5
    endloop
  endfacet
  facet normal -0.514496 -2.19242e-16 0.857493
    outer loop
      vertex -20 -36.8 -46.8
      vertex -14.5 -33.5 -43.5
      vertex -14.5 -28.15 -43.5
    endloop
  endfacet
  facet normal -0.514496 -2.19242e-16 0.857493
    outer loop
      vertex -20 -28.15 -46.8
      vertex -20 -36.8 -46.8
      vertex -14.5 -28.15 -43.5
    endloop
  endfacet
  facet normal -0.514496 1.38462e-16 -0.857493
    outer loop
      vertex -14.5 -33.5 -43.5
      vertex -20 -30.2 -40.2
      vertex -14.5 -28.15 -43.5
    endloop
  endfacet
  facet normal -0.514496 1.38462e-16 -0.857493
    outer loop
      vertex -14.5 -28.15 -43.5
      vertex -20 -30.2 -40.2
      vertex -20 -28.15 -40.2
    endloop
  endfacet
  facet normal 0.514496 -1.38462e-16 0.857493
    outer loop
      vertex -5.5 -33.5 -43.5
      vertex 3.0222e-15 -36.8 -46.8
      vertex 2.34313e-15 -28.15 -46.8
    endloop
  endfacet
  facet normal 0.514496 -1.38462e-16 0.857493
    outer loop
      vertex -5.5 -28.15 -43.5
      vertex -5.5 -33.5 -43.5
      vertex 2.34313e-15 -28.15 -46.8
    endloop
  endfacet
  facet normal 0.514496 2.19242e-16 -0.857493
    outer loop
      vertex 3.23681e-15 -30.2 -40.2
      vertex -5.5 -33.5 -43.5
      vertex 3.07588e-15 -28.15 -40.2
    endloop
  endfacet
  facet normal 0.514496 2.19242e-16 -0.857493
    outer loop
      vertex 3.07588e-15 -28.15 -40.2
      vertex -5.5 -33.5 -43.5
      vertex -5.5 -28.15 -43.5
    endloop
  endfacet
  facet normal -0.514496 -2.19242e-16 0.857493
    outer loop
      vertex 3.0222e-15 -36.8 -46.8
      vertex 5.5 -33.5 -43.5
      vertex 5.5 -28.15 -43.5
    endloop
  endfacet
  facet normal -0.514496 -2.19242e-16 0.857493
    outer loop
      vertex 2.34313e-15 -28.15 -46.8
      vertex 3.0222e-15 -36.8 -46.8
      vertex 5.5 -28.15 -43.5
    endloop
  endfacet
  facet normal -0.514496 1.38462e-16 -0.857493
    outer loop
      vertex 5.5 -33.5 -43.5
      vertex 3.23681e-15 -30.2 -40.2
      vertex 5.5 -28.15 -43.5
    endloop
  endfacet
  facet normal -0.514496 1.38462e-16 -0.857493
    outer loop
      vertex 5.5 -28.15 -43.5
      vertex 3.23681e-15 -30.2 -40.2
      vertex 3.07588e-15 -28.15 -40.2
    endloop
  endfacet
  facet normal 0.514496 -1.38462e-16 0.857493
    outer loop
      vertex 14.5 -33.5 -43.5
      vertex 20 -36.8 -46.8
      vertex 20 -28.15 -46.8
    endloop
  endfacet
  facet normal 0.514496 -1.38462e-16 0.857493
    outer loop
      vertex 14.5 -28.15 -43.5
      vertex 14.5 -33.5 -43.5
      vertex 20 -28.15 -46.8
    endloop
  endfacet
  facet normal 0.514496 2.19242e-16 -0.857493
    outer loop
      vertex 20 -30.2 -40.2
      vertex 14.5 -33.5 -43.5
      vertex 20 -28.15 -40.2
    endloop
  endfacet
  facet normal 0.514496 2.19242e-16 -0.857493
    outer loop
      vertex 20 -28.15 -40.2
      vertex 14.5 -33.5 -43.5
      vertex 14.5 -28.15 -43.5
    endloop
  endfacet
  facet normal -0.514496 -2.19242e-16 0.857493
    outer loop
      vertex 20 -36.8 -46.8
      vertex 25.5 -33.5 -43.5
      vertex 25.5 -28.15 -43.5
    endloop
  endfacet
  facet normal -0.514496 -2.19242e-16 0.857493
    outer loop
      vertex 20 -28.15 -46.8
      vertex 20 -36.8 -46.8
      vertex 25.5 -28.15 -43.5
    endloop
  endfacet
  facet normal -0.514496 1.38462e-16 -0.857493
    outer loop
      vertex 25.5 -33.5 -43.5
      vertex 20 -30.2 -40.2
      vertex 25.5 -28.15 -43.5
    endloop
  endfacet
  facet normal -0.514496 1.38462e-16 -0.857493
    outer loop
      vertex 25.5 -28.15 -43.5
      vertex 20 -30.2 -40.2
      vertex 20 -28.15 -40.2
    endloop
  endfacet
  facet normal -0.857493 0.514496 9.52008e-17
    outer loop
      vertex 34 25 -44
      vertex 31 20 -41
      vertex 34 25 -39
    endloop
  endfacet
  facet normal -0.857493 0.514496 9.52008e-17
    outer loop
      vertex 34 25 -39
      vertex 31 20 -41
      vertex 31 20 -39
    endloop
  endfacet
  facet normal -0.857493 -0.514496 9.52008e-17
    outer loop
      vertex 31 20 -41
      vertex 34 15 -44
      vertex 31 20 -39
    endloop
  endfacet
  facet normal -0.857493 -0.514496 9.52008e-17
    outer loop
      vertex 31 20 -39
      vertex 34 15 -44
      vertex 34 15 -39
    endloop
  endfacet
  facet normal 0.857493 -0.514496 -9.52008e-17
    outer loop
      vertex 34 15 -44
      vertex 37 20 -47
      vertex 34 15 -39
    endloop
  endfacet
  facet normal 0.857493 -0.514496 -9.52008e-17
    outer loop
      vertex 34 15 -39
      vertex 37 20 -47
      vertex 37 20 -39
    endloop
  endfacet
  facet normal 0.857493 0.514496 -9.52008e-17
    outer loop
      vertex 37 20 -47
      vertex 34 25 -44
      vertex 34 25 -39
    endloop
  endfacet
  facet normal 0.857493 0.514496 -9.52008e-17
    outer loop
      vertex 37 20 -39
      vertex 37 20 -47
      vertex 34 25 -39
    endloop
  endfacet
  facet normal -0.857493 0.514496 9.52008e-17
    outer loop
      vertex 34 5 -44
      vertex 31 5.79085e-15 -41
      vertex 34 5 -39
    endloop
  endfacet
  facet normal -0.857493 0.514496 9.52008e-17
    outer loop
      vertex 34 5 -39
      vertex 31 5.79085e-15 -41
      vertex 31 5.79085e-15 -39
    endloop
  endfacet
  facet normal -0.857493 -0.514496 9.52008e-17
    outer loop
      vertex 31 5.79085e-15 -41
      vertex 34 -5 -44
      vertex 31 5.79085e-15 -39
    endloop
  endfacet
  facet normal -0.857493 -0.514496 9.52008e-17
    outer loop
      vertex 31 5.79085e-15 -39
      vertex 34 -5 -44
      vertex 34 -5 -39
    endloop
  endfacet
  facet normal 0.857493 -0.514496 -9.52008e-17
    outer loop
      vertex 37 -3.62751e-07 -47
      vertex 37 4.8488e-15 -47
      vertex 37 4.8488e-15 -39
    endloop
  endfacet
  facet normal 0.857493 -0.514496 -9.52008e-17
    outer loop
      vertex 34 -5 -44
      vertex 37 -3.62751e-07 -47
      vertex 34 -5 -39
    endloop
  endfacet
  facet normal 0.857493 -0.514496 -9.52008e-17
    outer loop
      vertex 34 -5 -39
      vertex 37 -3.62751e-07 -47
      vertex 37 4.8488e-15 -39
    endloop
  endfacet
  facet normal -2.35514e-16 -1.34693e-17 -1
    outer loop
      vertex 37 -3.62751e-07 -47
      vertex 37 3.62751e-07 -47
      vertex 37 4.8488e-15 -47
    endloop
  endfacet
  facet normal 0.857493 0.514496 -9.52008e-17
    outer loop
      vertex 37 3.62751e-07 -47
      vertex 34 5 -44
      vertex 34 5 -39
    endloop
  endfacet
  facet normal 0.857493 0.514496 -9.52008e-17
    outer loop
      vertex 37 4.8488e-15 -47
      vertex 37 3.62751e-07 -47
      vertex 37 4.8488e-15 -39
    endloop
  endfacet
  facet normal 0.857493 0.514496 -9.52008e-17
    outer loop
      vertex 37 4.8488e-15 -39
      vertex 37 3.62751e-07 -47
      vertex 34 5 -39
    endloop
  endfacet
  facet normal -0.857493 0.514496 9.52008e-17
    outer loop
      vertex 34 -15 -44
      vertex 31 -20 -41
      vertex 34 -15 -39
    endloop
  endfacet
  facet normal -0.857493 0.514496 9.52008e-17
    outer loop
      vertex 34 -15 -39
      vertex 31 -20 -41
      vertex 31 -20 -39
    endloop
  endfacet
  facet normal -0.857493 -0.514496 9.52008e-17
    outer loop
      vertex 31 -20 -41
      vertex 34 -25 -44
      vertex 31 -20 -39
    endloop
  endfacet
  facet normal -0.857493 -0.514496 9.52008e-17
    outer loop
      vertex 31 -20 -39
      vertex 34 -25 -44
      vertex 34 -25 -39
    endloop
  endfacet
  facet normal 0.857493 -0.514496 -9.52008e-17
    outer loop
      vertex 34 -25 -44
      vertex 37 -20 -47
      vertex 34 -25 -39
    endloop
  endfacet
  facet normal 0.857493 -0.514496 -9.52008e-17
    outer loop
      vertex 34 -25 -39
      vertex 37 -20 -47
      vertex 37 -20 -39
    endloop
  endfacet
  facet normal 0.857493 0.514496 -9.52008e-17
    outer loop
      vertex 37 -20 -47
      vertex 34 -15 -44
      vertex 34 -15 -39
    endloop
  endfacet
  facet normal 0.857493 0.514496 -9.52008e-17
    outer loop
      vertex 37 -20 -39
      vertex 37 -20 -47
      vertex 34 -15 -39
    endloop
  endfacet
  facet normal -2.35514e-16 -1.34693e-17 -1
    outer loop
      vertex -30.5 34 -47
      vertex -32.75 32.701 -47
      vertex -32.75 35.299 -47
    endloop
  endfacet
  facet normal -2.35514e-16 -1.34693e-17 -1
    outer loop
      vertex -24.5 34 -47
      vertex -26.75 32.701 -47
      vertex -26.75 35.299 -47
    endloop
  endfacet
  facet normal 7.85046e-17 -1 -7.81748e-33
    outer loop
      vertex 2.9 2.9 -35.6
      vertex -2.9 2.9 -36.395
      vertex 2.9 2.9 -36.395
    endloop
  endfacet
  facet normal 7.85046e-17 -1 -7.81748e-33
    outer loop
      vertex -2.9 2.9 -35.6
      vertex -2.9 2.9 -36.395
      vertex 2.9 2.9 -35.6
    endloop
  endfacet
  facet normal -1 -1.57009e-16 -1.14424e-17
    outer loop
      vertex 2.9 2.9 -36.395
      vertex 2.9 -2.9 -36.395
      vertex 2.9 -2.9 -35.6
    endloop
  endfacet
  facet normal -1 -1.57009e-16 -1.14424e-17
    outer loop
      vertex 2.9 2.9 -36.395
      vertex 2.9 -2.9 -35.6
      vertex 2.9 2.9 -35.6
    endloop
  endfacet
  facet normal 1 1.57009e-16 1.14424e-17
    outer loop
      vertex -2.9 2.9 -36.395
      vertex -2.9 -2.9 -35.6
      vertex -2.9 -2.9 -36.395
    endloop
  endfacet
  facet normal 1 1.57009e-16 1.14424e-17
    outer loop
      vertex -2.9 2.9 -36.395
      vertex -2.9 2.9 -35.6
      vertex -2.9 -2.9 -35.6
    endloop
  endfacet
  facet normal -7.85046e-17 1 7.81748e-33
    outer loop
      vertex 2.9 -2.9 -35.6
      vertex 2.9 -2.9 -36.395
      vertex -2.9 -2.9 -36.395
    endloop
  endfacet
  facet normal -7.85046e-17 1 7.81748e-33
    outer loop
      vertex 2.9 -2.9 -35.6
      vertex -2.9 -2.9 -36.395
      vertex -2.9 -2.9 -35.6
    endloop
  endfacet
  facet normal -0.395366 -1.86662e-17 0.918524
    outer loop
      vertex -6.5 6.5 -36.876
      vertex -13.7577 13.7577 -40
      vertex -13.7577 -13.7577 -40
    endloop
  endfacet
  facet normal -0.395366 -1.86662e-17 0.918524
    outer loop
      vertex -6.5 -6.5 -36.876
      vertex -6.5 6.5 -36.876
      vertex -13.7577 -13.7577 -40
    endloop
  endfacet
  facet normal 1.03838e-16 -0.395366 0.918524
    outer loop
      vertex 13.7577 -13.7577 -40
      vertex -6.5 -6.5 -36.876
      vertex -13.7577 -13.7577 -40
    endloop
  endfacet
  facet normal 1.03838e-16 -0.395366 0.918524
    outer loop
      vertex 6.5 -6.5 -36.876
      vertex -6.5 -6.5 -36.876
      vertex 13.7577 -13.7577 -40
    endloop
  endfacet
  facet normal 0.395366 4.34099e-17 0.918524
    outer loop
      vertex 13.7577 13.7577 -40
      vertex 6.5 6.5 -36.876
      vertex 6.5 -6.5 -36.876
    endloop
  endfacet
  facet normal 0.395366 4.34099e-17 0.918524
    outer loop
      vertex 13.7577 -13.7577 -40
      vertex 13.7577 13.7577 -40
      vertex 6.5 -6.5 -36.876
    endloop
  endfacet
  facet normal 1.03838e-16 0.395366 0.918524
    outer loop
      vertex 13.7577 13.7577 -40
      vertex -13.7577 13.7577 -40
      vertex -6.5 6.5 -36.876
    endloop
  endfacet
  facet normal 1.03838e-16 0.395366 0.918524
    outer loop
      vertex 6.5 6.5 -36.876
      vertex 13.7577 13.7577 -40
      vertex -6.5 6.5 -36.876
    endloop
  endfacet
  facet normal -7.85046e-17 1 -2.22045e-16
    outer loop
      vertex -14.5 28.15 -43.5
      vertex -20 28.15 -46.8
      vertex -20 28.15 -40.2
    endloop
  endfacet
  facet normal -7.85046e-17 1 -2.22045e-16
    outer loop
      vertex -20 28.15 -40.2
      vertex -20 28.15 -46.8
      vertex -25.5 28.15 -43.5
    endloop
  endfacet
  facet normal -7.85046e-17 1 -2.22045e-16
    outer loop
      vertex 5.5 28.15 -43.5
      vertex -4.28658e-15 28.15 -46.8
      vertex -3.55384e-15 28.15 -40.2
    endloop
  endfacet
  facet normal -7.85046e-17 1 -2.22045e-16
    outer loop
      vertex -3.55384e-15 28.15 -40.2
      vertex -4.28658e-15 28.15 -46.8
      vertex -5.5 28.15 -43.5
    endloop
  endfacet
  facet normal -7.85046e-17 1 -2.22045e-16
    outer loop
      vertex 25.5 28.15 -43.5
      vertex 20 28.15 -46.8
      vertex 20 28.15 -40.2
    endloop
  endfacet
  facet normal -7.85046e-17 1 -2.22045e-16
    outer loop
      vertex 20 28.15 -40.2
      vertex 20 28.15 -46.8
      vertex 14.5 28.15 -43.5
    endloop
  endfacet
  facet normal 2.35514e-16 1.34693e-17 1
    outer loop
      vertex -31 20 -39
      vertex -34 25 -39
      vertex -37 20 -39
    endloop
  endfacet
  facet normal 2.35514e-16 1.34693e-17 1
    outer loop
      vertex -34 15 -39
      vertex -31 20 -39
      vertex -37 20 -39
    endloop
  endfacet
  facet normal 2.35514e-16 1.34693e-17 1
    outer loop
      vertex -31 1.55254e-14 -39
      vertex -34 5 -39
      vertex -37 1.64675e-14 -39
    endloop
  endfacet
  facet normal 2.35514e-16 1.34693e-17 1
    outer loop
      vertex -34 -5 -39
      vertex -31 1.55254e-14 -39
      vertex -37 1.64675e-14 -39
    endloop
  endfacet
  facet normal 2.35514e-16 1.34693e-17 1
    outer loop
      vertex -31 -20 -39
      vertex -34 -15 -39
      vertex -37 -20 -39
    endloop
  endfacet
  facet normal 2.35514e-16 1.34693e-17 1
    outer loop
      vertex -34 -25 -39
      vertex -31 -20 -39
      vertex -37 -20 -39
    endloop
  endfacet
  facet normal 9.27195e-48 -1 -2.22045e-16
    outer loop
      vertex -20 -28.15 -46.8
      vertex -14.5 -28.15 -43.5
      vertex -20 -28.15 -40.2
    endloop
  endfacet
  facet normal 9.27195e-48 -1 -2.22045e-16
    outer loop
      vertex -25.5 -28.15 -43.5
      vertex -20 -28.15 -46.8
      vertex -20 -28.15 -40.2
    endloop
  endfacet
  facet normal 9.27195e-48 -1 -2.22045e-16
    outer loop
      vertex 2.34313e-15 -28.15 -46.8
      vertex 5.5 -28.15 -43.5
      vertex 3.07588e-15 -28.15 -40.2
    endloop
  endfacet
  facet normal 9.27195e-48 -1 -2.22045e-16
    outer loop
      vertex -5.5 -28.15 -43.5
      vertex 2.34313e-15 -28.15 -46.8
      vertex 3.07588e-15 -28.15 -40.2
    endloop
  endfacet
  facet normal 9.27195e-48 -1 -2.22045e-16
    outer loop
      vertex 20 -28.15 -46.8
      vertex 25.5 -28.15 -43.5
      vertex 20 -28.15 -40.2
    endloop
  endfacet
  facet normal 9.27195e-48 -1 -2.22045e-16
    outer loop
      vertex 14.5 -28.15 -43.5
      vertex 20 -28.15 -46.8
      vertex 20 -28.15 -40.2
    endloop
  endfacet
  facet normal 2.35514e-16 1.34693e-17 1
    outer loop
      vertex 37 20 -39
      vertex 34 25 -39
      vertex 31 20 -39
    endloop
  endfacet
  facet normal 2.35514e-16 1.34693e-17 1
    outer loop
      vertex 34 15 -39
      vertex 37 20 -39
      vertex 31 20 -39
    endloop
  endfacet
  facet normal 2.35514e-16 1.34693e-17 1
    outer loop
      vertex 37 4.8488e-15 -39
      vertex 34 5 -39
      vertex 31 5.79085e-15 -39
    endloop
  endfacet
  facet normal 2.35514e-16 1.34693e-17 1
    outer loop
      vertex 34 -5 -39
      vertex 37 4.8488e-15 -39
      vertex 31 5.79085e-15 -39
    endloop
  endfacet
  facet normal 2.35514e-16 1.34693e-17 1
    outer loop
      vertex 37 -20 -39
      vertex 34 -15 -39
      vertex 31 -20 -39
    endloop
  endfacet
  facet normal 2.35514e-16 1.34693e-17 1
    outer loop
      vertex 34 -25 -39
      vertex 37 -20 -39
      vertex 31 -20 -39
    endloop
  endfacet
  facet normal 1.13049e-16 1.34693e-17 1
    outer loop
      vertex -2.9 2.9 -35.6
      vertex -6.5 6.5 -35.6
      vertex -6.5 -6.5 -35.6
    endloop
  endfacet
  facet normal 1.13049e-16 1.34693e-17 1
    outer loop
      vertex 2.9 2.9 -35.6
      vertex 6.5 6.5 -35.6
      vertex -2.9 2.9 -35.6
    endloop
  endfacet
  facet normal 1.13049e-16 1.34693e-17 1
    outer loop
      vertex -2.9 -2.9 -35.6
      vertex -2.9 2.9 -35.6
      vertex -6.5 -6.5 -35.6
    endloop
  endfacet
  facet normal 1.13049e-16 1.34693e-17 1
    outer loop
      vertex 6.5 6.5 -35.6
      vertex -6.5 6.5 -35.6
      vertex -2.9 2.9 -35.6
    endloop
  endfacet
  facet normal 1.13049e-16 1.34693e-17 1
    outer loop
      vertex 6.5 -6.5 -35.6
      vertex 6.5 6.5 -35.6
      vertex 2.9 2.9 -35.6
    endloop
  endfacet
  facet normal 1.13049e-16 1.34693e-17 1
    outer loop
      vertex 6.5 -6.5 -35.6
      vertex 2.9 -2.9 -35.6
      vertex -6.5 -6.5 -35.6
    endloop
  endfacet
  facet normal 1.13049e-16 1.34693e-17 1
    outer loop
      vertex 6.5 -6.5 -35.6
      vertex 2.9 2.9 -35.6
      vertex 2.9 -2.9 -35.6
    endloop
  endfacet
  facet normal 1.13049e-16 1.34693e-17 1
    outer loop
      vertex 2.9 -2.9 -35.6
      vertex -2.9 -2.9 -35.6
      vertex -6.5 -6.5 -35.6
    endloop
  endfacet
  facet normal -7.85046e-17 1 7.81748e-33
    outer loop
      vertex -6.5 6.5 -35.6
      vertex 6.5 6.5 -35.6
      vertex -6.5 6.5 -36.876
    endloop
  endfacet
  facet normal -7.85046e-17 1 7.81748e-33
    outer loop
      vertex -6.5 6.5 -36.876
      vertex 6.5 6.5 -35.6
      vertex 6.5 6.5 -36.876
    endloop
  endfacet
  facet normal -1 -1.57009e-16 -1.14424e-17
    outer loop
      vertex -6.5 6.5 -35.6
      vertex -6.5 6.5 -36.876
      vertex -6.5 -6.5 -35.6
    endloop
  endfacet
  facet normal -1 -1.57009e-16 -1.14424e-17
    outer loop
      vertex -6.5 -6.5 -35.6
      vertex -6.5 6.5 -36.876
      vertex -6.5 -6.5 -36.876
    endloop
  endfacet
  facet normal 7.85046e-17 -1 -7.81748e-33
    outer loop
      vertex 6.5 -6.5 -35.6
      vertex -6.5 -6.5 -35.6
      vertex -6.5 -6.5 -36.876
    endloop
  endfacet
  facet normal 7.85046e-17 -1 -7.81748e-33
    outer loop
      vertex 6.5 -6.5 -36.876
      vertex 6.5 -6.5 -35.6
      vertex -6.5 -6.5 -36.876
    endloop
  endfacet
  facet normal 1 1.57009e-16 1.14424e-17
    outer loop
      vertex 6.5 6.5 -36.876
      vertex 6.5 6.5 -35.6
      vertex 6.5 -6.5 -35.6
    endloop
  endfacet
  facet normal 1 1.57009e-16 1.14424e-17
    outer loop
      vertex 6.5 -6.5 -36.876
      vertex 6.5 6.5 -36.876
      vertex 6.5 -6.5 -35.6
    endloop
  endfacet
endsolid OpenSCAD_Model
