solid OpenSCAD_Model
  facet normal 1.04288e-16 2.74766e-16 -1
    outer loop
      vertex -28.3349 -28.3349 -38
      vertex 38 -38 -38
      vertex -38 -38 -38
    endloop
  endfacet
  facet normal 1.04288e-16 2.74766e-16 -1
    outer loop
      vertex 38 38 -38
      vertex 38 -38 -38
      vertex 35.299 32.75 -38
    endloop
  endfacet
  facet normal 1.04288e-16 2.74766e-16 -1
    outer loop
      vertex 38 38 -38
      vertex 35.299 32.75 -38
      vertex -38 38 -38
    endloop
  endfacet
  facet normal 1.04288e-16 2.74766e-16 -1
    outer loop
      vertex 28.3349 28.3349 -38
      vertex 32.701 14.75 -38
      vertex 32.701 8.75 -38
    endloop
  endfacet
  facet normal 1.04288e-16 2.74766e-16 -1
    outer loop
      vertex 35.299 32.75 -38
      vertex 32.701 32.75 -38
      vertex -38 38 -38
    endloop
  endfacet
  facet normal 1.04288e-16 2.74766e-16 -1
    outer loop
      vertex 35.299 32.75 -38
      vertex 38 -38 -38
      vertex 35.299 26.75 -38
    endloop
  endfacet
  facet normal 1.04288e-16 2.74766e-16 -1
    outer loop
      vertex 35.299 32.75 -38
      vertex 35.299 26.75 -38
      vertex 34 30.5 -38
    endloop
  endfacet
  facet normal 1.04288e-16 2.74766e-16 -1
    outer loop
      vertex -28.3349 28.3349 -38
      vertex -38 38 -38
      vertex 28.3349 28.3349 -38
    endloop
  endfacet
  facet normal 1.04288e-16 2.74766e-16 -1
    outer loop
      vertex 28.3349 28.3349 -38
      vertex 38 -38 -38
      vertex 28.3349 -28.3349 -38
    endloop
  endfacet
  facet normal 1.04288e-16 2.74766e-16 -1
    outer loop
      vertex 32.701 32.75 -38
      vertex 32.701 26.75 -38
      vertex 28.3349 28.3349 -38
    endloop
  endfacet
  facet normal 1.04288e-16 2.74766e-16 -1
    outer loop
      vertex 32.701 32.75 -38
      vertex 28.3349 28.3349 -38
      vertex -38 38 -38
    endloop
  endfacet
  facet normal 1.04288e-16 2.74766e-16 -1
    outer loop
      vertex -38 38 -38
      vertex -28.3349 28.3349 -38
      vertex -38 -38 -38
    endloop
  endfacet
  facet normal 1.04288e-16 2.74766e-16 -1
    outer loop
      vertex 28.3349 -28.3349 -38
      vertex 38 -38 -38
      vertex -28.3349 -28.3349 -38
    endloop
  endfacet
  facet normal 1.04288e-16 2.74766e-16 -1
    outer loop
      vertex -28.3349 28.3349 -38
      vertex -28.3349 -28.3349 -38
      vertex -38 -38 -38
    endloop
  endfacet
  facet normal 1.04288e-16 2.74766e-16 -1
    outer loop
      vertex 35.299 26.75 -38
      vertex 38 -38 -38
      vertex 35.299 20.75 -38
    endloop
  endfacet
  facet normal 1.04288e-16 2.74766e-16 -1
    outer loop
      vertex 32.701 26.75 -38
      vertex 32.701 32.75 -38
      vertex 34 30.5 -38
    endloop
  endfacet
  facet normal 1.04288e-16 2.74766e-16 -1
    outer loop
      vertex 34 6.5 -38
      vertex 38 -38 -38
      vertex 32.701 8.75 -38
    endloop
  endfacet
  facet normal 1.04288e-16 2.74766e-16 -1
    outer loop
      vertex 28.3349 28.3349 -38
      vertex 32.701 8.75 -38
      vertex 38 -38 -38
    endloop
  endfacet
  facet normal 1.04288e-16 2.74766e-16 -1
    outer loop
      vertex 35.299 20.75 -38
      vertex 38 -38 -38
      vertex 35.299 14.75 -38
    endloop
  endfacet
  facet normal 1.04288e-16 2.74766e-16 -1
    outer loop
      vertex 32.701 26.75 -38
      vertex 34 30.5 -38
      vertex 35.299 26.75 -38
    endloop
  endfacet
  facet normal 1.04288e-16 2.74766e-16 -1
    outer loop
      vertex 35.299 8.75 -38
      vertex 38 -38 -38
      vertex 34 6.5 -38
    endloop
  endfacet
  facet normal 1.04288e-16 2.74766e-16 -1
    outer loop
      vertex 35.299 20.75 -38
      vertex 35.299 14.75 -38
      vertex 34 18.5 -38
    endloop
  endfacet
  facet normal 1.04288e-16 2.74766e-16 -1
    outer loop
      vertex 28.3349 28.3349 -38
      vertex 32.701 20.75 -38
      vertex 32.701 14.75 -38
    endloop
  endfacet
  facet normal 1.04288e-16 2.74766e-16 -1
    outer loop
      vertex 28.3349 28.3349 -38
      vertex 32.701 26.75 -38
      vertex 32.701 20.75 -38
    endloop
  endfacet
  facet normal 1.04288e-16 2.74766e-16 -1
    outer loop
      vertex 35.299 14.75 -38
      vertex 38 -38 -38
      vertex 35.299 8.75 -38
    endloop
  endfacet
  facet normal 1.04288e-16 2.74766e-16 -1
    outer loop
      vertex 35.299 14.75 -38
      vertex 35.299 8.75 -38
      vertex 34 12.5 -38
    endloop
  endfacet
  facet normal 1.04288e-16 2.74766e-16 -1
    outer loop
      vertex 32.701 8.75 -38
      vertex 32.701 14.75 -38
      vertex 34 12.5 -38
    endloop
  endfacet
  facet normal 1.04288e-16 2.74766e-16 -1
    outer loop
      vertex 32.701 8.75 -38
      vertex 34 12.5 -38
      vertex 35.299 8.75 -38
    endloop
  endfacet
  facet normal 1.04288e-16 2.74766e-16 -1
    outer loop
      vertex 32.701 20.75 -38
      vertex 34 24.5 -38
      vertex 35.299 20.75 -38
    endloop
  endfacet
  facet normal 1.04288e-16 2.74766e-16 -1
    outer loop
      vertex 32.701 20.75 -38
      vertex 32.701 26.75 -38
      vertex 34 24.5 -38
    endloop
  endfacet
  facet normal 1.04288e-16 2.74766e-16 -1
    outer loop
      vertex 35.299 26.75 -38
      vertex 35.299 20.75 -38
      vertex 34 24.5 -38
    endloop
  endfacet
  facet normal 1.04288e-16 2.74766e-16 -1
    outer loop
      vertex 32.701 14.75 -38
      vertex 34 18.5 -38
      vertex 35.299 14.75 -38
    endloop
  endfacet
  facet normal 1.04288e-16 2.74766e-16 -1
    outer loop
      vertex 32.701 14.75 -38
      vertex 32.701 20.75 -38
      vertex 34 18.5 -38
    endloop
  endfacet
  facet normal 0.707107 -3.05311e-16 0.707107
    outer loop
      vertex 33.5 25.5 -33.5
      vertex 38 38 -38
      vertex 30 30 -30
    endloop
  endfacet
  facet normal 0.707107 -3.05311e-16 0.707107
    outer loop
      vertex 36.8 20 -36.8
      vertex 33.5 14.5 -33.5
      vertex 36.8 -3.22204e-15 -36.8
    endloop
  endfacet
  facet normal 0.707107 -3.05311e-16 0.707107
    outer loop
      vertex 36.8 20 -36.8
      vertex 38 38 -38
      vertex 33.5 25.5 -33.5
    endloop
  endfacet
  facet normal 0.707107 -3.05311e-16 0.707107
    outer loop
      vertex 38 -38 -38
      vertex 38 38 -38
      vertex 36.8 20 -36.8
    endloop
  endfacet
  facet normal 0.707107 -3.05311e-16 0.707107
    outer loop
      vertex 30 -30 -30
      vertex 30.2 20 -30.2
      vertex 30 30 -30
    endloop
  endfacet
  facet normal 0.707107 -3.05311e-16 0.707107
    outer loop
      vertex 36.8 -3.22204e-15 -36.8
      vertex 33.5 -5.5 -33.5
      vertex 36.8 -20 -36.8
    endloop
  endfacet
  facet normal 0.707107 -3.05311e-16 0.707107
    outer loop
      vertex 30.2 -4.53577e-15 -30.2
      vertex 33.5 5.5 -33.5
      vertex 30.2 20 -30.2
    endloop
  endfacet
  facet normal 0.707107 -3.05311e-16 0.707107
    outer loop
      vertex 38 -38 -38
      vertex 36.8 20 -36.8
      vertex 36.8 -3.22204e-15 -36.8
    endloop
  endfacet
  facet normal 0.707107 -3.05311e-16 0.707107
    outer loop
      vertex 33.5 5.5 -33.5
      vertex 36.8 -3.22204e-15 -36.8
      vertex 33.5 14.5 -33.5
    endloop
  endfacet
  facet normal 0.707107 -3.05311e-16 0.707107
    outer loop
      vertex 36.8 -20 -36.8
      vertex 33.5 -25.5 -33.5
      vertex 38 -38 -38
    endloop
  endfacet
  facet normal 0.707107 -3.05311e-16 0.707107
    outer loop
      vertex 30 -30 -30
      vertex 30.2 -4.53577e-15 -30.2
      vertex 30.2 20 -30.2
    endloop
  endfacet
  facet normal 0.707107 -3.05311e-16 0.707107
    outer loop
      vertex 30.2 -20 -30.2
      vertex 33.5 -5.5 -33.5
      vertex 30.2 -4.53577e-15 -30.2
    endloop
  endfacet
  facet normal 0.707107 -3.05311e-16 0.707107
    outer loop
      vertex 33.5 -25.5 -33.5
      vertex 30.2 -20 -30.2
      vertex 30 -30 -30
    endloop
  endfacet
  facet normal 0.707107 -3.05311e-16 0.707107
    outer loop
      vertex 38 -38 -38
      vertex 36.8 -3.22204e-15 -36.8
      vertex 36.8 -20 -36.8
    endloop
  endfacet
  facet normal 0.707107 -3.05311e-16 0.707107
    outer loop
      vertex 30 -30 -30
      vertex 38 -38 -38
      vertex 33.5 -25.5 -33.5
    endloop
  endfacet
  facet normal 0.707107 -3.05311e-16 0.707107
    outer loop
      vertex 30 -30 -30
      vertex 30.2 -20 -30.2
      vertex 30.2 -4.53577e-15 -30.2
    endloop
  endfacet
  facet normal 0.707107 -3.05311e-16 0.707107
    outer loop
      vertex 33.5 -14.5 -33.5
      vertex 36.8 -20 -36.8
      vertex 33.5 -5.5 -33.5
    endloop
  endfacet
  facet normal 0.707107 -3.05311e-16 0.707107
    outer loop
      vertex 30.2 -20 -30.2
      vertex 33.5 -14.5 -33.5
      vertex 33.5 -5.5 -33.5
    endloop
  endfacet
  facet normal 0.707107 -3.05311e-16 0.707107
    outer loop
      vertex 33.5 14.5 -33.5
      vertex 30.2 20 -30.2
      vertex 33.5 5.5 -33.5
    endloop
  endfacet
  facet normal 0.707107 -3.05311e-16 0.707107
    outer loop
      vertex 30.2 20 -30.2
      vertex 33.5 25.5 -33.5
      vertex 30 30 -30
    endloop
  endfacet
  facet normal 3.72798e-17 0.707107 0.707107
    outer loop
      vertex 1.98603e-14 36.8 -36.8
      vertex -20 36.8 -36.8
      vertex -5.5 33.5 -33.5
    endloop
  endfacet
  facet normal 3.72798e-17 0.707107 0.707107
    outer loop
      vertex -20 30.2 -30.2
      vertex -38 38 -38
      vertex -30 30 -30
    endloop
  endfacet
  facet normal 3.72798e-17 0.707107 0.707107
    outer loop
      vertex 38 38 -38
      vertex -38 38 -38
      vertex 20 36.8 -36.8
    endloop
  endfacet
  facet normal 3.72798e-17 0.707107 0.707107
    outer loop
      vertex 38 38 -38
      vertex 20 36.8 -36.8
      vertex 25.5 33.5 -33.5
    endloop
  endfacet
  facet normal 3.72798e-17 0.707107 0.707107
    outer loop
      vertex 38 38 -38
      vertex 25.5 33.5 -33.5
      vertex 30 30 -30
    endloop
  endfacet
  facet normal 3.72798e-17 0.707107 0.707107
    outer loop
      vertex -20 30.2 -30.2
      vertex 1.70551e-14 30.2 -30.2
      vertex -14.5 33.5 -33.5
    endloop
  endfacet
  facet normal 3.72798e-17 0.707107 0.707107
    outer loop
      vertex 30 30 -30
      vertex 20 30.2 -30.2
      vertex -30 30 -30
    endloop
  endfacet
  facet normal 3.72798e-17 0.707107 0.707107
    outer loop
      vertex 5.5 33.5 -33.5
      vertex 14.5 33.5 -33.5
      vertex 1.98603e-14 36.8 -36.8
    endloop
  endfacet
  facet normal 3.72798e-17 0.707107 0.707107
    outer loop
      vertex 20 36.8 -36.8
      vertex -38 38 -38
      vertex 1.98603e-14 36.8 -36.8
    endloop
  endfacet
  facet normal 3.72798e-17 0.707107 0.707107
    outer loop
      vertex 20 36.8 -36.8
      vertex 1.98603e-14 36.8 -36.8
      vertex 14.5 33.5 -33.5
    endloop
  endfacet
  facet normal 3.72798e-17 0.707107 0.707107
    outer loop
      vertex -14.5 33.5 -33.5
      vertex -5.5 33.5 -33.5
      vertex -20 36.8 -36.8
    endloop
  endfacet
  facet normal 3.72798e-17 0.707107 0.707107
    outer loop
      vertex 20 30.2 -30.2
      vertex 1.70551e-14 30.2 -30.2
      vertex -30 30 -30
    endloop
  endfacet
  facet normal 3.72798e-17 0.707107 0.707107
    outer loop
      vertex -20 36.8 -36.8
      vertex -38 38 -38
      vertex -25.5 33.5 -33.5
    endloop
  endfacet
  facet normal 3.72798e-17 0.707107 0.707107
    outer loop
      vertex 1.98603e-14 36.8 -36.8
      vertex -38 38 -38
      vertex -20 36.8 -36.8
    endloop
  endfacet
  facet normal 3.72798e-17 0.707107 0.707107
    outer loop
      vertex 1.70551e-14 30.2 -30.2
      vertex 20 30.2 -30.2
      vertex 5.5 33.5 -33.5
    endloop
  endfacet
  facet normal 3.72798e-17 0.707107 0.707107
    outer loop
      vertex -5.5 33.5 -33.5
      vertex -14.5 33.5 -33.5
      vertex 1.70551e-14 30.2 -30.2
    endloop
  endfacet
  facet normal 3.72798e-17 0.707107 0.707107
    outer loop
      vertex -25.5 33.5 -33.5
      vertex -38 38 -38
      vertex -20 30.2 -30.2
    endloop
  endfacet
  facet normal 3.72798e-17 0.707107 0.707107
    outer loop
      vertex 1.70551e-14 30.2 -30.2
      vertex -20 30.2 -30.2
      vertex -30 30 -30
    endloop
  endfacet
  facet normal 3.72798e-17 0.707107 0.707107
    outer loop
      vertex 20 30.2 -30.2
      vertex 30 30 -30
      vertex 25.5 33.5 -33.5
    endloop
  endfacet
  facet normal 3.72798e-17 0.707107 0.707107
    outer loop
      vertex 14.5 33.5 -33.5
      vertex 5.5 33.5 -33.5
      vertex 20 30.2 -30.2
    endloop
  endfacet
  facet normal -0.707107 -8.32667e-17 0.707107
    outer loop
      vertex -30.2 -20 -30.2
      vertex -38 -38 -38
      vertex -30 -30 -30
    endloop
  endfacet
  facet normal -0.707107 -8.32667e-17 0.707107
    outer loop
      vertex -33.5 -14.5 -33.5
      vertex -33.5 -5.5 -33.5
      vertex -36.8 -20 -36.8
    endloop
  endfacet
  facet normal -0.707107 -8.32667e-17 0.707107
    outer loop
      vertex -38 38 -38
      vertex -33.5 25.5 -33.5
      vertex -30 30 -30
    endloop
  endfacet
  facet normal -0.707107 -8.32667e-17 0.707107
    outer loop
      vertex -30 30 -30
      vertex -30.2 20 -30.2
      vertex -30 -30 -30
    endloop
  endfacet
  facet normal -0.707107 -8.32667e-17 0.707107
    outer loop
      vertex -38 38 -38
      vertex -38 -38 -38
      vertex -36.8 20 -36.8
    endloop
  endfacet
  facet normal -0.707107 -8.32667e-17 0.707107
    outer loop
      vertex -38 38 -38
      vertex -36.8 20 -36.8
      vertex -33.5 25.5 -33.5
    endloop
  endfacet
  facet normal -0.707107 -8.32667e-17 0.707107
    outer loop
      vertex -30.2 2.57674e-15 -30.2
      vertex -30.2 20 -30.2
      vertex -33.5 5.5 -33.5
    endloop
  endfacet
  facet normal -0.707107 -8.32667e-17 0.707107
    outer loop
      vertex -36.8 20 -36.8
      vertex -36.8 5.44487e-15 -36.8
      vertex -33.5 14.5 -33.5
    endloop
  endfacet
  facet normal -0.707107 -8.32667e-17 0.707107
    outer loop
      vertex -30.2 20 -30.2
      vertex -30.2 2.57674e-15 -30.2
      vertex -30 -30 -30
    endloop
  endfacet
  facet normal -0.707107 -8.32667e-17 0.707107
    outer loop
      vertex -36.8 5.44487e-15 -36.8
      vertex -36.8 -20 -36.8
      vertex -33.5 -5.5 -33.5
    endloop
  endfacet
  facet normal -0.707107 -8.32667e-17 0.707107
    outer loop
      vertex -36.8 20 -36.8
      vertex -38 -38 -38
      vertex -36.8 5.44487e-15 -36.8
    endloop
  endfacet
  facet normal -0.707107 -8.32667e-17 0.707107
    outer loop
      vertex -33.5 5.5 -33.5
      vertex -33.5 14.5 -33.5
      vertex -36.8 5.44487e-15 -36.8
    endloop
  endfacet
  facet normal -0.707107 -8.32667e-17 0.707107
    outer loop
      vertex -30.2 -20 -30.2
      vertex -30.2 2.57674e-15 -30.2
      vertex -33.5 -14.5 -33.5
    endloop
  endfacet
  facet normal -0.707107 -8.32667e-17 0.707107
    outer loop
      vertex -33.5 -5.5 -33.5
      vertex -33.5 -14.5 -33.5
      vertex -30.2 2.57674e-15 -30.2
    endloop
  endfacet
  facet normal -0.707107 -8.32667e-17 0.707107
    outer loop
      vertex -33.5 -25.5 -33.5
      vertex -38 -38 -38
      vertex -30.2 -20 -30.2
    endloop
  endfacet
  facet normal -0.707107 -8.32667e-17 0.707107
    outer loop
      vertex -30.2 2.57674e-15 -30.2
      vertex -30.2 -20 -30.2
      vertex -30 -30 -30
    endloop
  endfacet
  facet normal -0.707107 -8.32667e-17 0.707107
    outer loop
      vertex -36.8 -20 -36.8
      vertex -38 -38 -38
      vertex -33.5 -25.5 -33.5
    endloop
  endfacet
  facet normal -0.707107 -8.32667e-17 0.707107
    outer loop
      vertex -36.8 5.44487e-15 -36.8
      vertex -38 -38 -38
      vertex -36.8 -20 -36.8
    endloop
  endfacet
  facet normal -0.707107 -8.32667e-17 0.707107
    outer loop
      vertex -30.2 20 -30.2
      vertex -30 30 -30
      vertex -33.5 25.5 -33.5
    endloop
  endfacet
  facet normal -0.707107 -8.32667e-17 0.707107
    outer loop
      vertex -33.5 14.5 -33.5
      vertex -33.5 5.5 -33.5
      vertex -30.2 20 -30.2
    endloop
  endfacet
  facet normal -1.84765e-16 -0.707107 0.707107
    outer loop
      vertex 20 -30.2 -30.2
      vertex 30 -30 -30
      vertex -30 -30 -30
    endloop
  endfacet
  facet normal -1.84765e-16 -0.707107 0.707107
    outer loop
      vertex -1.91164e-15 -30.2 -30.2
      vertex 5.5 -33.5 -33.5
      vertex 14.5 -33.5 -33.5
    endloop
  endfacet
  facet normal -1.84765e-16 -0.707107 0.707107
    outer loop
      vertex -1.91164e-15 -30.2 -30.2
      vertex 20 -30.2 -30.2
      vertex -30 -30 -30
    endloop
  endfacet
  facet normal -1.84765e-16 -0.707107 0.707107
    outer loop
      vertex 38 -38 -38
      vertex 30 -30 -30
      vertex 20 -30.2 -30.2
    endloop
  endfacet
  facet normal -1.84765e-16 -0.707107 0.707107
    outer loop
      vertex 25.5 -33.5 -33.5
      vertex 20 -36.8 -36.8
      vertex 38 -38 -38
    endloop
  endfacet
  facet normal -1.84765e-16 -0.707107 0.707107
    outer loop
      vertex 38 -38 -38
      vertex 20 -30.2 -30.2
      vertex 25.5 -33.5 -33.5
    endloop
  endfacet
  facet normal -1.84765e-16 -0.707107 0.707107
    outer loop
      vertex -25.5 -33.5 -33.5
      vertex -20 -30.2 -30.2
      vertex -30 -30 -30
    endloop
  endfacet
  facet normal -1.84765e-16 -0.707107 0.707107
    outer loop
      vertex -38 -38 -38
      vertex 38 -38 -38
      vertex 20 -36.8 -36.8
    endloop
  endfacet
  facet normal -1.84765e-16 -0.707107 0.707107
    outer loop
      vertex -20 -30.2 -30.2
      vertex -1.91164e-15 -30.2 -30.2
      vertex -30 -30 -30
    endloop
  endfacet
  facet normal -1.84765e-16 -0.707107 0.707107
    outer loop
      vertex -14.5 -33.5 -33.5
      vertex -20 -36.8 -36.8
      vertex -3.25141e-15 -36.8 -36.8
    endloop
  endfacet
  facet normal -1.84765e-16 -0.707107 0.707107
    outer loop
      vertex -38 -38 -38
      vertex 20 -36.8 -36.8
      vertex -3.25141e-15 -36.8 -36.8
    endloop
  endfacet
  facet normal -1.84765e-16 -0.707107 0.707107
    outer loop
      vertex -20 -30.2 -30.2
      vertex -14.5 -33.5 -33.5
      vertex -5.5 -33.5 -33.5
    endloop
  endfacet
  facet normal -1.84765e-16 -0.707107 0.707107
    outer loop
      vertex 20 -36.8 -36.8
      vertex 14.5 -33.5 -33.5
      vertex 5.5 -33.5 -33.5
    endloop
  endfacet
  facet normal -1.84765e-16 -0.707107 0.707107
    outer loop
      vertex -3.25141e-15 -36.8 -36.8
      vertex -5.5 -33.5 -33.5
      vertex -14.5 -33.5 -33.5
    endloop
  endfacet
  facet normal -1.84765e-16 -0.707107 0.707107
    outer loop
      vertex -38 -38 -38
      vertex -3.25141e-15 -36.8 -36.8
      vertex -20 -36.8 -36.8
    endloop
  endfacet
  facet normal -1.84765e-16 -0.707107 0.707107
    outer loop
      vertex -38 -38 -38
      vertex -25.5 -33.5 -33.5
      vertex -30 -30 -30
    endloop
  endfacet
  facet normal -1.84765e-16 -0.707107 0.707107
    outer loop
      vertex -38 -38 -38
      vertex -20 -36.8 -36.8
      vertex -25.5 -33.5 -33.5
    endloop
  endfacet
  facet normal -1.84765e-16 -0.707107 0.707107
    outer loop
      vertex 5.5 -33.5 -33.5
      vertex -3.25141e-15 -36.8 -36.8
      vertex 20 -36.8 -36.8
    endloop
  endfacet
  facet normal -1.84765e-16 -0.707107 0.707107
    outer loop
      vertex 14.5 -33.5 -33.5
      vertex 20 -30.2 -30.2
      vertex -1.91164e-15 -30.2 -30.2
    endloop
  endfacet
  facet normal -1.84765e-16 -0.707107 0.707107
    outer loop
      vertex -5.5 -33.5 -33.5
      vertex -1.91164e-15 -30.2 -30.2
      vertex -20 -30.2 -30.2
    endloop
  endfacet
  facet normal -0.866025 0.5 4.26297e-17
    outer loop
      vertex 34 30.5 -37
      vertex 35.299 32.75 -37
      vertex 34 30.5 -38
    endloop
  endfacet
  facet normal -0.866025 0.5 4.26297e-17
    outer loop
      vertex 34 30.5 -38
      vertex 35.299 32.75 -37
      vertex 35.299 32.75 -38
    endloop
  endfacet
  facet normal -7.85046e-17 -1 -2.77556e-16
    outer loop
      vertex 35.299 32.75 -37
      vertex 32.701 32.75 -37
      vertex 32.701 32.75 -38
    endloop
  endfacet
  facet normal -7.85046e-17 -1 -2.77556e-16
    outer loop
      vertex 35.299 32.75 -38
      vertex 35.299 32.75 -37
      vertex 32.701 32.75 -38
    endloop
  endfacet
  facet normal 0.866025 0.5 2.34926e-16
    outer loop
      vertex 32.701 32.75 -37
      vertex 34 30.5 -37
      vertex 34 30.5 -38
    endloop
  endfacet
  facet normal 0.866025 0.5 2.34926e-16
    outer loop
      vertex 32.701 32.75 -38
      vertex 32.701 32.75 -37
      vertex 34 30.5 -38
    endloop
  endfacet
  facet normal -0.866025 0.5 4.26297e-17
    outer loop
      vertex 34 24.5 -37
      vertex 35.299 26.75 -37
      vertex 34 24.5 -38
    endloop
  endfacet
  facet normal -0.866025 0.5 4.26297e-17
    outer loop
      vertex 34 24.5 -38
      vertex 35.299 26.75 -37
      vertex 35.299 26.75 -38
    endloop
  endfacet
  facet normal -7.85046e-17 -1 -2.77556e-16
    outer loop
      vertex 35.299 26.75 -37
      vertex 32.701 26.75 -37
      vertex 32.701 26.75 -38
    endloop
  endfacet
  facet normal -7.85046e-17 -1 -2.77556e-16
    outer loop
      vertex 35.299 26.75 -38
      vertex 35.299 26.75 -37
      vertex 32.701 26.75 -38
    endloop
  endfacet
  facet normal 0.866025 0.5 2.34926e-16
    outer loop
      vertex 32.701 26.75 -37
      vertex 34 24.5 -37
      vertex 34 24.5 -38
    endloop
  endfacet
  facet normal 0.866025 0.5 2.34926e-16
    outer loop
      vertex 32.701 26.75 -38
      vertex 32.701 26.75 -37
      vertex 34 24.5 -38
    endloop
  endfacet
  facet normal -0.415098 2.03735e-16 -0.909777
    outer loop
      vertex 28.3349 -28.3349 -38
      vertex 2.9 -2.9 -26.395
      vertex 2.9 2.9 -26.395
    endloop
  endfacet
  facet normal -0.415098 2.03735e-16 -0.909777
    outer loop
      vertex 28.3349 -28.3349 -38
      vertex 2.9 2.9 -26.395
      vertex 28.3349 28.3349 -38
    endloop
  endfacet
  facet normal 2.97043e-17 -0.415098 -0.909777
    outer loop
      vertex 2.9 2.9 -26.395
      vertex -2.9 2.9 -26.395
      vertex -28.3349 28.3349 -38
    endloop
  endfacet
  facet normal 2.97043e-17 -0.415098 -0.909777
    outer loop
      vertex 2.9 2.9 -26.395
      vertex -28.3349 28.3349 -38
      vertex 28.3349 28.3349 -38
    endloop
  endfacet
  facet normal 1.60053e-16 0.415098 -0.909777
    outer loop
      vertex -28.3349 -28.3349 -38
      vertex -2.9 -2.9 -26.395
      vertex 28.3349 -28.3349 -38
    endloop
  endfacet
  facet normal 1.60053e-16 0.415098 -0.909777
    outer loop
      vertex 2.9 -2.9 -26.395
      vertex 28.3349 -28.3349 -38
      vertex -2.9 -2.9 -26.395
    endloop
  endfacet
  facet normal 0.415098 7.33861e-17 -0.909777
    outer loop
      vertex -2.9 -2.9 -26.395
      vertex -28.3349 -28.3349 -38
      vertex -2.9 2.9 -26.395
    endloop
  endfacet
  facet normal 0.415098 7.33861e-17 -0.909777
    outer loop
      vertex -2.9 2.9 -26.395
      vertex -28.3349 -28.3349 -38
      vertex -28.3349 28.3349 -38
    endloop
  endfacet
  facet normal -7.85046e-17 -1 -2.77556e-16
    outer loop
      vertex 35.299 20.75 -37
      vertex 32.701 20.75 -37
      vertex 32.701 20.75 -38
    endloop
  endfacet
  facet normal -7.85046e-17 -1 -2.77556e-16
    outer loop
      vertex 35.299 20.75 -38
      vertex 35.299 20.75 -37
      vertex 32.701 20.75 -38
    endloop
  endfacet
  facet normal -0.866025 0.5 4.26297e-17
    outer loop
      vertex 34 18.5 -37
      vertex 35.299 20.75 -37
      vertex 34 18.5 -38
    endloop
  endfacet
  facet normal -0.866025 0.5 4.26297e-17
    outer loop
      vertex 34 18.5 -38
      vertex 35.299 20.75 -37
      vertex 35.299 20.75 -38
    endloop
  endfacet
  facet normal 0.866025 0.5 2.34926e-16
    outer loop
      vertex 32.701 20.75 -37
      vertex 34 18.5 -37
      vertex 34 18.5 -38
    endloop
  endfacet
  facet normal 0.866025 0.5 2.34926e-16
    outer loop
      vertex 32.701 20.75 -38
      vertex 32.701 20.75 -37
      vertex 34 18.5 -38
    endloop
  endfacet
  facet normal -0.866025 0.5 4.26297e-17
    outer loop
      vertex 34 12.5 -37
      vertex 35.299 14.75 -37
      vertex 34 12.5 -38
    endloop
  endfacet
  facet normal -0.866025 0.5 4.26297e-17
    outer loop
      vertex 34 12.5 -38
      vertex 35.299 14.75 -37
      vertex 35.299 14.75 -38
    endloop
  endfacet
  facet normal -7.85046e-17 -1 -2.77556e-16
    outer loop
      vertex 35.299 14.75 -37
      vertex 32.701 14.75 -37
      vertex 32.701 14.75 -38
    endloop
  endfacet
  facet normal -7.85046e-17 -1 -2.77556e-16
    outer loop
      vertex 35.299 14.75 -38
      vertex 35.299 14.75 -37
      vertex 32.701 14.75 -38
    endloop
  endfacet
  facet normal 0.866025 0.5 2.34926e-16
    outer loop
      vertex 32.701 14.75 -37
      vertex 34 12.5 -37
      vertex 34 12.5 -38
    endloop
  endfacet
  facet normal 0.866025 0.5 2.34926e-16
    outer loop
      vertex 32.701 14.75 -38
      vertex 32.701 14.75 -37
      vertex 34 12.5 -38
    endloop
  endfacet
  facet normal -0.866025 0.5 4.26297e-17
    outer loop
      vertex 34 6.5 -37
      vertex 35.299 8.75 -37
      vertex 34 6.5 -38
    endloop
  endfacet
  facet normal -0.866025 0.5 4.26297e-17
    outer loop
      vertex 34 6.5 -38
      vertex 35.299 8.75 -37
      vertex 35.299 8.75 -38
    endloop
  endfacet
  facet normal -7.85046e-17 -1 -2.77556e-16
    outer loop
      vertex 35.299 8.75 -37
      vertex 32.701 8.75 -37
      vertex 32.701 8.75 -38
    endloop
  endfacet
  facet normal -7.85046e-17 -1 -2.77556e-16
    outer loop
      vertex 35.299 8.75 -38
      vertex 35.299 8.75 -37
      vertex 32.701 8.75 -38
    endloop
  endfacet
  facet normal 0.866025 0.5 2.34926e-16
    outer loop
      vertex 32.701 8.75 -37
      vertex 34 6.5 -37
      vertex 34 6.5 -38
    endloop
  endfacet
  facet normal 0.866025 0.5 2.34926e-16
    outer loop
      vertex 32.701 8.75 -38
      vertex 32.701 8.75 -37
      vertex 34 6.5 -38
    endloop
  endfacet
  facet normal -1.04288e-16 -2.74766e-16 1
    outer loop
      vertex -13.7577 13.7577 -30
      vertex 30 30 -30
      vertex -30 30 -30
    endloop
  endfacet
  facet normal -1.04288e-16 -2.74766e-16 1
    outer loop
      vertex 13.7577 -13.7577 -30
      vertex -13.7577 -13.7577 -30
      vertex 30 -30 -30
    endloop
  endfacet
  facet normal -1.04288e-16 -2.74766e-16 1
    outer loop
      vertex 13.7577 13.7577 -30
      vertex 30 30 -30
      vertex -13.7577 13.7577 -30
    endloop
  endfacet
  facet normal -1.04288e-16 -2.74766e-16 1
    outer loop
      vertex 30 -30 -30
      vertex 30 30 -30
      vertex 13.7577 13.7577 -30
    endloop
  endfacet
  facet normal -1.04288e-16 -2.74766e-16 1
    outer loop
      vertex 30 -30 -30
      vertex 13.7577 13.7577 -30
      vertex 13.7577 -13.7577 -30
    endloop
  endfacet
  facet normal -1.04288e-16 -2.74766e-16 1
    outer loop
      vertex -30 -30 -30
      vertex -13.7577 -13.7577 -30
      vertex -30 30 -30
    endloop
  endfacet
  facet normal -1.04288e-16 -2.74766e-16 1
    outer loop
      vertex -30 -30 -30
      vertex 30 -30 -30
      vertex -13.7577 -13.7577 -30
    endloop
  endfacet
  facet normal -1.04288e-16 -2.74766e-16 1
    outer loop
      vertex -13.7577 -13.7577 -30
      vertex -13.7577 13.7577 -30
      vertex -30 30 -30
    endloop
  endfacet
  facet normal 6.05854e-17 -0.514496 0.857493
    outer loop
      vertex 28.15 25.5 -33.5
      vertex 28.15 20 -36.8
      vertex 36.8 20 -36.8
    endloop
  endfacet
  facet normal 6.05854e-17 -0.514496 0.857493
    outer loop
      vertex 33.5 25.5 -33.5
      vertex 28.15 25.5 -33.5
      vertex 36.8 20 -36.8
    endloop
  endfacet
  facet normal -1.41366e-16 -0.514496 -0.857493
    outer loop
      vertex 28.15 20 -30.2
      vertex 28.15 25.5 -33.5
      vertex 30.2 20 -30.2
    endloop
  endfacet
  facet normal -1.41366e-16 -0.514496 -0.857493
    outer loop
      vertex 30.2 20 -30.2
      vertex 28.15 25.5 -33.5
      vertex 33.5 25.5 -33.5
    endloop
  endfacet
  facet normal -6.05854e-17 0.514496 -0.857493
    outer loop
      vertex 28.15 14.5 -33.5
      vertex 28.15 20 -30.2
      vertex 33.5 14.5 -33.5
    endloop
  endfacet
  facet normal -6.05854e-17 0.514496 -0.857493
    outer loop
      vertex 33.5 14.5 -33.5
      vertex 28.15 20 -30.2
      vertex 30.2 20 -30.2
    endloop
  endfacet
  facet normal 1.41366e-16 0.514496 0.857493
    outer loop
      vertex 28.15 20 -36.8
      vertex 28.15 14.5 -33.5
      vertex 33.5 14.5 -33.5
    endloop
  endfacet
  facet normal 1.41366e-16 0.514496 0.857493
    outer loop
      vertex 36.8 20 -36.8
      vertex 28.15 20 -36.8
      vertex 33.5 14.5 -33.5
    endloop
  endfacet
  facet normal 6.05854e-17 -0.514496 0.857493
    outer loop
      vertex 28.15 5.5 -33.5
      vertex 28.15 -2.54297e-15 -36.8
      vertex 36.8 -3.22204e-15 -36.8
    endloop
  endfacet
  facet normal 6.05854e-17 -0.514496 0.857493
    outer loop
      vertex 33.5 5.5 -33.5
      vertex 28.15 5.5 -33.5
      vertex 36.8 -3.22204e-15 -36.8
    endloop
  endfacet
  facet normal -1.41366e-16 -0.514496 -0.857493
    outer loop
      vertex 28.15 -4.37484e-15 -30.2
      vertex 28.15 5.5 -33.5
      vertex 30.2 -4.53577e-15 -30.2
    endloop
  endfacet
  facet normal -1.41366e-16 -0.514496 -0.857493
    outer loop
      vertex 30.2 -4.53577e-15 -30.2
      vertex 28.15 5.5 -33.5
      vertex 33.5 5.5 -33.5
    endloop
  endfacet
  facet normal -6.05854e-17 0.514496 -0.857493
    outer loop
      vertex 28.15 -5.5 -33.5
      vertex 28.15 -4.37484e-15 -30.2
      vertex 33.5 -5.5 -33.5
    endloop
  endfacet
  facet normal -6.05854e-17 0.514496 -0.857493
    outer loop
      vertex 33.5 -5.5 -33.5
      vertex 28.15 -4.37484e-15 -30.2
      vertex 30.2 -4.53577e-15 -30.2
    endloop
  endfacet
  facet normal 1.41366e-16 0.514496 0.857493
    outer loop
      vertex 28.15 -2.54297e-15 -36.8
      vertex 28.15 -5.5 -33.5
      vertex 33.5 -5.5 -33.5
    endloop
  endfacet
  facet normal 1.41366e-16 0.514496 0.857493
    outer loop
      vertex 36.8 -3.22204e-15 -36.8
      vertex 28.15 -2.54297e-15 -36.8
      vertex 33.5 -5.5 -33.5
    endloop
  endfacet
  facet normal 6.05854e-17 -0.514496 0.857493
    outer loop
      vertex 28.15 -14.5 -33.5
      vertex 28.15 -20 -36.8
      vertex 36.8 -20 -36.8
    endloop
  endfacet
  facet normal 6.05854e-17 -0.514496 0.857493
    outer loop
      vertex 33.5 -14.5 -33.5
      vertex 28.15 -14.5 -33.5
      vertex 36.8 -20 -36.8
    endloop
  endfacet
  facet normal -1.41366e-16 -0.514496 -0.857493
    outer loop
      vertex 28.15 -20 -30.2
      vertex 28.15 -14.5 -33.5
      vertex 30.2 -20 -30.2
    endloop
  endfacet
  facet normal -1.41366e-16 -0.514496 -0.857493
    outer loop
      vertex 30.2 -20 -30.2
      vertex 28.15 -14.5 -33.5
      vertex 33.5 -14.5 -33.5
    endloop
  endfacet
  facet normal -6.05854e-17 0.514496 -0.857493
    outer loop
      vertex 28.15 -25.5 -33.5
      vertex 28.15 -20 -30.2
      vertex 33.5 -25.5 -33.5
    endloop
  endfacet
  facet normal -6.05854e-17 0.514496 -0.857493
    outer loop
      vertex 33.5 -25.5 -33.5
      vertex 28.15 -20 -30.2
      vertex 30.2 -20 -30.2
    endloop
  endfacet
  facet normal 1.41366e-16 0.514496 0.857493
    outer loop
      vertex 28.15 -20 -36.8
      vertex 28.15 -25.5 -33.5
      vertex 33.5 -25.5 -33.5
    endloop
  endfacet
  facet normal 1.41366e-16 0.514496 0.857493
    outer loop
      vertex 36.8 -20 -36.8
      vertex 28.15 -20 -36.8
      vertex 33.5 -25.5 -33.5
    endloop
  endfacet
  facet normal 0.514496 -2.0677e-16 0.857493
    outer loop
      vertex 14.5 33.5 -33.5
      vertex 14.5 28.15 -33.5
      vertex 20 28.15 -36.8
    endloop
  endfacet
  facet normal 0.514496 -2.0677e-16 0.857493
    outer loop
      vertex 20 36.8 -36.8
      vertex 14.5 33.5 -33.5
      vertex 20 28.15 -36.8
    endloop
  endfacet
  facet normal -0.514496 1.16353e-16 0.857493
    outer loop
      vertex 20 36.8 -36.8
      vertex 20 28.15 -36.8
      vertex 25.5 28.15 -33.5
    endloop
  endfacet
  facet normal -0.514496 1.16353e-16 0.857493
    outer loop
      vertex 25.5 33.5 -33.5
      vertex 20 36.8 -36.8
      vertex 25.5 28.15 -33.5
    endloop
  endfacet
  facet normal 0.514496 -1.16353e-16 -0.857493
    outer loop
      vertex 14.5 28.15 -33.5
      vertex 14.5 33.5 -33.5
      vertex 20 28.15 -30.2
    endloop
  endfacet
  facet normal 0.514496 -1.16353e-16 -0.857493
    outer loop
      vertex 20 28.15 -30.2
      vertex 14.5 33.5 -33.5
      vertex 20 30.2 -30.2
    endloop
  endfacet
  facet normal -0.514496 2.0677e-16 -0.857493
    outer loop
      vertex 20 28.15 -30.2
      vertex 20 30.2 -30.2
      vertex 25.5 28.15 -33.5
    endloop
  endfacet
  facet normal -0.514496 2.0677e-16 -0.857493
    outer loop
      vertex 25.5 28.15 -33.5
      vertex 20 30.2 -30.2
      vertex 25.5 33.5 -33.5
    endloop
  endfacet
  facet normal 0.514496 -2.0677e-16 0.857493
    outer loop
      vertex -5.5 33.5 -33.5
      vertex -5.5 28.15 -33.5
      vertex 1.71441e-14 28.15 -36.8
    endloop
  endfacet
  facet normal 0.514496 -2.0677e-16 0.857493
    outer loop
      vertex 1.98603e-14 36.8 -36.8
      vertex -5.5 33.5 -33.5
      vertex 1.71441e-14 28.15 -36.8
    endloop
  endfacet
  facet normal -0.514496 1.16353e-16 0.857493
    outer loop
      vertex 1.98603e-14 36.8 -36.8
      vertex 1.71441e-14 28.15 -36.8
      vertex 5.5 28.15 -33.5
    endloop
  endfacet
  facet normal -0.514496 1.16353e-16 0.857493
    outer loop
      vertex 5.5 33.5 -33.5
      vertex 1.98603e-14 36.8 -36.8
      vertex 5.5 28.15 -33.5
    endloop
  endfacet
  facet normal 0.514496 -1.16353e-16 -0.857493
    outer loop
      vertex -5.5 28.15 -33.5
      vertex -5.5 33.5 -33.5
      vertex 1.64113e-14 28.15 -30.2
    endloop
  endfacet
  facet normal 0.514496 -1.16353e-16 -0.857493
    outer loop
      vertex 1.64113e-14 28.15 -30.2
      vertex -5.5 33.5 -33.5
      vertex 1.70551e-14 30.2 -30.2
    endloop
  endfacet
  facet normal -0.514496 2.0677e-16 -0.857493
    outer loop
      vertex 1.64113e-14 28.15 -30.2
      vertex 1.70551e-14 30.2 -30.2
      vertex 5.5 28.15 -33.5
    endloop
  endfacet
  facet normal -0.514496 2.0677e-16 -0.857493
    outer loop
      vertex 5.5 28.15 -33.5
      vertex 1.70551e-14 30.2 -30.2
      vertex 5.5 33.5 -33.5
    endloop
  endfacet
  facet normal 0.514496 -2.0677e-16 0.857493
    outer loop
      vertex -25.5 33.5 -33.5
      vertex -25.5 28.15 -33.5
      vertex -20 28.15 -36.8
    endloop
  endfacet
  facet normal 0.514496 -2.0677e-16 0.857493
    outer loop
      vertex -20 36.8 -36.8
      vertex -25.5 33.5 -33.5
      vertex -20 28.15 -36.8
    endloop
  endfacet
  facet normal -0.514496 1.16353e-16 0.857493
    outer loop
      vertex -20 36.8 -36.8
      vertex -20 28.15 -36.8
      vertex -14.5 28.15 -33.5
    endloop
  endfacet
  facet normal -0.514496 1.16353e-16 0.857493
    outer loop
      vertex -14.5 33.5 -33.5
      vertex -20 36.8 -36.8
      vertex -14.5 28.15 -33.5
    endloop
  endfacet
  facet normal 0.514496 -1.16353e-16 -0.857493
    outer loop
      vertex -25.5 28.15 -33.5
      vertex -25.5 33.5 -33.5
      vertex -20 28.15 -30.2
    endloop
  endfacet
  facet normal 0.514496 -1.16353e-16 -0.857493
    outer loop
      vertex -20 28.15 -30.2
      vertex -25.5 33.5 -33.5
      vertex -20 30.2 -30.2
    endloop
  endfacet
  facet normal -0.514496 2.0677e-16 -0.857493
    outer loop
      vertex -20 28.15 -30.2
      vertex -20 30.2 -30.2
      vertex -14.5 28.15 -33.5
    endloop
  endfacet
  facet normal -0.514496 2.0677e-16 -0.857493
    outer loop
      vertex -14.5 28.15 -33.5
      vertex -20 30.2 -30.2
      vertex -14.5 33.5 -33.5
    endloop
  endfacet
  facet normal -3.60608e-16 -0.514496 0.857493
    outer loop
      vertex -33.5 25.5 -33.5
      vertex -36.8 20 -36.8
      vertex -28.15 20 -36.8
    endloop
  endfacet
  facet normal -3.60608e-16 -0.514496 0.857493
    outer loop
      vertex -28.15 25.5 -33.5
      vertex -33.5 25.5 -33.5
      vertex -28.15 20 -36.8
    endloop
  endfacet
  facet normal 1.99047e-16 -0.514496 -0.857493
    outer loop
      vertex -30.2 20 -30.2
      vertex -33.5 25.5 -33.5
      vertex -28.15 20 -30.2
    endloop
  endfacet
  facet normal 1.99047e-16 -0.514496 -0.857493
    outer loop
      vertex -28.15 20 -30.2
      vertex -33.5 25.5 -33.5
      vertex -28.15 25.5 -33.5
    endloop
  endfacet
  facet normal -1.99047e-16 0.514496 0.857493
    outer loop
      vertex -36.8 20 -36.8
      vertex -33.5 14.5 -33.5
      vertex -28.15 14.5 -33.5
    endloop
  endfacet
  facet normal -1.99047e-16 0.514496 0.857493
    outer loop
      vertex -28.15 20 -36.8
      vertex -36.8 20 -36.8
      vertex -28.15 14.5 -33.5
    endloop
  endfacet
  facet normal 3.60608e-16 0.514496 -0.857493
    outer loop
      vertex -33.5 14.5 -33.5
      vertex -30.2 20 -30.2
      vertex -28.15 14.5 -33.5
    endloop
  endfacet
  facet normal 3.60608e-16 0.514496 -0.857493
    outer loop
      vertex -28.15 14.5 -33.5
      vertex -30.2 20 -30.2
      vertex -28.15 20 -30.2
    endloop
  endfacet
  facet normal -3.60608e-16 -0.514496 0.857493
    outer loop
      vertex -33.5 5.5 -33.5
      vertex -36.8 5.44487e-15 -36.8
      vertex -28.15 4.08674e-15 -36.8
    endloop
  endfacet
  facet normal -3.60608e-16 -0.514496 0.857493
    outer loop
      vertex -28.15 5.5 -33.5
      vertex -33.5 5.5 -33.5
      vertex -28.15 4.08674e-15 -36.8
    endloop
  endfacet
  facet normal 1.99047e-16 -0.514496 -0.857493
    outer loop
      vertex -30.2 2.57674e-15 -30.2
      vertex -33.5 5.5 -33.5
      vertex -28.15 2.25488e-15 -30.2
    endloop
  endfacet
  facet normal 1.99047e-16 -0.514496 -0.857493
    outer loop
      vertex -28.15 2.25488e-15 -30.2
      vertex -33.5 5.5 -33.5
      vertex -28.15 5.5 -33.5
    endloop
  endfacet
  facet normal -1.99047e-16 0.514496 0.857493
    outer loop
      vertex -36.8 5.44487e-15 -36.8
      vertex -33.5 -5.5 -33.5
      vertex -28.15 -5.5 -33.5
    endloop
  endfacet
  facet normal -1.99047e-16 0.514496 0.857493
    outer loop
      vertex -28.15 4.08674e-15 -36.8
      vertex -36.8 5.44487e-15 -36.8
      vertex -28.15 -5.5 -33.5
    endloop
  endfacet
  facet normal 3.60608e-16 0.514496 -0.857493
    outer loop
      vertex -33.5 -5.5 -33.5
      vertex -30.2 2.57674e-15 -30.2
      vertex -28.15 -5.5 -33.5
    endloop
  endfacet
  facet normal 3.60608e-16 0.514496 -0.857493
    outer loop
      vertex -28.15 -5.5 -33.5
      vertex -30.2 2.57674e-15 -30.2
      vertex -28.15 2.25488e-15 -30.2
    endloop
  endfacet
  facet normal -3.60608e-16 -0.514496 0.857493
    outer loop
      vertex -33.5 -14.5 -33.5
      vertex -36.8 -20 -36.8
      vertex -28.15 -20 -36.8
    endloop
  endfacet
  facet normal -3.60608e-16 -0.514496 0.857493
    outer loop
      vertex -28.15 -14.5 -33.5
      vertex -33.5 -14.5 -33.5
      vertex -28.15 -20 -36.8
    endloop
  endfacet
  facet normal 1.99047e-16 -0.514496 -0.857493
    outer loop
      vertex -30.2 -20 -30.2
      vertex -33.5 -14.5 -33.5
      vertex -28.15 -20 -30.2
    endloop
  endfacet
  facet normal 1.99047e-16 -0.514496 -0.857493
    outer loop
      vertex -28.15 -20 -30.2
      vertex -33.5 -14.5 -33.5
      vertex -28.15 -14.5 -33.5
    endloop
  endfacet
  facet normal -1.99047e-16 0.514496 0.857493
    outer loop
      vertex -36.8 -20 -36.8
      vertex -33.5 -25.5 -33.5
      vertex -28.15 -25.5 -33.5
    endloop
  endfacet
  facet normal -1.99047e-16 0.514496 0.857493
    outer loop
      vertex -28.15 -20 -36.8
      vertex -36.8 -20 -36.8
      vertex -28.15 -25.5 -33.5
    endloop
  endfacet
  facet normal 3.60608e-16 0.514496 -0.857493
    outer loop
      vertex -33.5 -25.5 -33.5
      vertex -30.2 -20 -30.2
      vertex -28.15 -25.5 -33.5
    endloop
  endfacet
  facet normal 3.60608e-16 0.514496 -0.857493
    outer loop
      vertex -28.15 -25.5 -33.5
      vertex -30.2 -20 -30.2
      vertex -28.15 -20 -30.2
    endloop
  endfacet
  facet normal 0.514496 2.64451e-16 -0.857493
    outer loop
      vertex 14.5 -33.5 -33.5
      vertex 14.5 -28.15 -33.5
      vertex 20 -30.2 -30.2
    endloop
  endfacet
  facet normal 0.514496 2.64451e-16 -0.857493
    outer loop
      vertex 20 -30.2 -30.2
      vertex 14.5 -28.15 -33.5
      vertex 20 -28.15 -30.2
    endloop
  endfacet
  facet normal -0.514496 5.87573e-16 -0.857493
    outer loop
      vertex 20 -30.2 -30.2
      vertex 20 -28.15 -30.2
      vertex 25.5 -33.5 -33.5
    endloop
  endfacet
  facet normal -0.514496 5.87573e-16 -0.857493
    outer loop
      vertex 25.5 -33.5 -33.5
      vertex 20 -28.15 -30.2
      vertex 25.5 -28.15 -33.5
    endloop
  endfacet
  facet normal 0.514496 -5.87573e-16 0.857493
    outer loop
      vertex 14.5 -28.15 -33.5
      vertex 14.5 -33.5 -33.5
      vertex 20 -36.8 -36.8
    endloop
  endfacet
  facet normal 0.514496 -5.87573e-16 0.857493
    outer loop
      vertex 20 -28.15 -36.8
      vertex 14.5 -28.15 -33.5
      vertex 20 -36.8 -36.8
    endloop
  endfacet
  facet normal -0.514496 -2.64451e-16 0.857493
    outer loop
      vertex 20 -28.15 -36.8
      vertex 20 -36.8 -36.8
      vertex 25.5 -33.5 -33.5
    endloop
  endfacet
  facet normal -0.514496 -2.64451e-16 0.857493
    outer loop
      vertex 25.5 -28.15 -33.5
      vertex 20 -28.15 -36.8
      vertex 25.5 -33.5 -33.5
    endloop
  endfacet
  facet normal 0.514496 2.64451e-16 -0.857493
    outer loop
      vertex -5.5 -33.5 -33.5
      vertex -5.5 -28.15 -33.5
      vertex -1.91164e-15 -30.2 -30.2
    endloop
  endfacet
  facet normal 0.514496 2.64451e-16 -0.857493
    outer loop
      vertex -1.91164e-15 -30.2 -30.2
      vertex -5.5 -28.15 -33.5
      vertex -1.2679e-15 -28.15 -30.2
    endloop
  endfacet
  facet normal -0.514496 5.87573e-16 -0.857493
    outer loop
      vertex -1.91164e-15 -30.2 -30.2
      vertex -1.2679e-15 -28.15 -30.2
      vertex 5.5 -33.5 -33.5
    endloop
  endfacet
  facet normal -0.514496 5.87573e-16 -0.857493
    outer loop
      vertex 5.5 -33.5 -33.5
      vertex -1.2679e-15 -28.15 -30.2
      vertex 5.5 -28.15 -33.5
    endloop
  endfacet
  facet normal 0.514496 -5.87573e-16 0.857493
    outer loop
      vertex -5.5 -28.15 -33.5
      vertex -5.5 -33.5 -33.5
      vertex -3.25141e-15 -36.8 -36.8
    endloop
  endfacet
  facet normal 0.514496 -5.87573e-16 0.857493
    outer loop
      vertex -5.35152e-16 -28.15 -36.8
      vertex -5.5 -28.15 -33.5
      vertex -3.25141e-15 -36.8 -36.8
    endloop
  endfacet
  facet normal -0.514496 -2.64451e-16 0.857493
    outer loop
      vertex -5.35152e-16 -28.15 -36.8
      vertex -3.25141e-15 -36.8 -36.8
      vertex 5.5 -33.5 -33.5
    endloop
  endfacet
  facet normal -0.514496 -2.64451e-16 0.857493
    outer loop
      vertex 5.5 -28.15 -33.5
      vertex -5.35152e-16 -28.15 -36.8
      vertex 5.5 -33.5 -33.5
    endloop
  endfacet
  facet normal 0.514496 2.64451e-16 -0.857493
    outer loop
      vertex -25.5 -33.5 -33.5
      vertex -25.5 -28.15 -33.5
      vertex -20 -30.2 -30.2
    endloop
  endfacet
  facet normal 0.514496 2.64451e-16 -0.857493
    outer loop
      vertex -20 -30.2 -30.2
      vertex -25.5 -28.15 -33.5
      vertex -20 -28.15 -30.2
    endloop
  endfacet
  facet normal -0.514496 5.87573e-16 -0.857493
    outer loop
      vertex -20 -30.2 -30.2
      vertex -20 -28.15 -30.2
      vertex -14.5 -33.5 -33.5
    endloop
  endfacet
  facet normal -0.514496 5.87573e-16 -0.857493
    outer loop
      vertex -14.5 -33.5 -33.5
      vertex -20 -28.15 -30.2
      vertex -14.5 -28.15 -33.5
    endloop
  endfacet
  facet normal 0.514496 -5.87573e-16 0.857493
    outer loop
      vertex -25.5 -28.15 -33.5
      vertex -25.5 -33.5 -33.5
      vertex -20 -36.8 -36.8
    endloop
  endfacet
  facet normal 0.514496 -5.87573e-16 0.857493
    outer loop
      vertex -20 -28.15 -36.8
      vertex -25.5 -28.15 -33.5
      vertex -20 -36.8 -36.8
    endloop
  endfacet
  facet normal -0.514496 -2.64451e-16 0.857493
    outer loop
      vertex -20 -28.15 -36.8
      vertex -20 -36.8 -36.8
      vertex -14.5 -33.5 -33.5
    endloop
  endfacet
  facet normal -0.514496 -2.64451e-16 0.857493
    outer loop
      vertex -14.5 -28.15 -33.5
      vertex -20 -28.15 -36.8
      vertex -14.5 -33.5 -33.5
    endloop
  endfacet
  facet normal 1.04288e-16 2.74766e-16 -1
    outer loop
      vertex 34 30.5 -37
      vertex 32.701 32.75 -37
      vertex 35.299 32.75 -37
    endloop
  endfacet
  facet normal 1.04288e-16 2.74766e-16 -1
    outer loop
      vertex 34 24.5 -37
      vertex 32.701 26.75 -37
      vertex 35.299 26.75 -37
    endloop
  endfacet
  facet normal -1 7.85046e-17 -1.11022e-16
    outer loop
      vertex 2.9 2.9 -26.395
      vertex 2.9 -2.9 -26.395
      vertex 2.9 -2.9 -25.6
    endloop
  endfacet
  facet normal -1 7.85046e-17 -1.11022e-16
    outer loop
      vertex 2.9 2.9 -26.395
      vertex 2.9 -2.9 -25.6
      vertex 2.9 2.9 -25.6
    endloop
  endfacet
  facet normal 7.85046e-17 1 1.55091e-16
    outer loop
      vertex 2.9 -2.9 -26.395
      vertex -2.9 -2.9 -26.395
      vertex -2.9 -2.9 -25.6
    endloop
  endfacet
  facet normal 7.85046e-17 1 1.55091e-16
    outer loop
      vertex 2.9 -2.9 -26.395
      vertex -2.9 -2.9 -25.6
      vertex 2.9 -2.9 -25.6
    endloop
  endfacet
  facet normal -7.85046e-17 -1 -1.55091e-16
    outer loop
      vertex 2.9 2.9 -26.395
      vertex -2.9 2.9 -25.6
      vertex -2.9 2.9 -26.395
    endloop
  endfacet
  facet normal -7.85046e-17 -1 -1.55091e-16
    outer loop
      vertex 2.9 2.9 -26.395
      vertex 2.9 2.9 -25.6
      vertex -2.9 2.9 -25.6
    endloop
  endfacet
  facet normal 1 -7.85046e-17 1.11022e-16
    outer loop
      vertex -2.9 2.9 -26.395
      vertex -2.9 -2.9 -25.6
      vertex -2.9 -2.9 -26.395
    endloop
  endfacet
  facet normal 1 -7.85046e-17 1.11022e-16
    outer loop
      vertex -2.9 2.9 -26.395
      vertex -2.9 2.9 -25.6
      vertex -2.9 -2.9 -25.6
    endloop
  endfacet
  facet normal 1.04288e-16 2.74766e-16 -1
    outer loop
      vertex 34 18.5 -37
      vertex 32.701 20.75 -37
      vertex 35.299 20.75 -37
    endloop
  endfacet
  facet normal 1.04288e-16 2.74766e-16 -1
    outer loop
      vertex 34 12.5 -37
      vertex 32.701 14.75 -37
      vertex 35.299 14.75 -37
    endloop
  endfacet
  facet normal 1.04288e-16 2.74766e-16 -1
    outer loop
      vertex 34 6.5 -37
      vertex 32.701 8.75 -37
      vertex 35.299 8.75 -37
    endloop
  endfacet
  facet normal -3.37146e-17 0.395366 0.918524
    outer loop
      vertex 6.5 6.5 -26.876
      vertex 13.7577 13.7577 -30
      vertex -13.7577 13.7577 -30
    endloop
  endfacet
  facet normal -3.37146e-17 0.395366 0.918524
    outer loop
      vertex -6.5 6.5 -26.876
      vertex 6.5 6.5 -26.876
      vertex -13.7577 13.7577 -30
    endloop
  endfacet
  facet normal -0.395366 -7.78164e-17 0.918524
    outer loop
      vertex -13.7577 -13.7577 -30
      vertex -6.5 6.5 -26.876
      vertex -13.7577 13.7577 -30
    endloop
  endfacet
  facet normal -0.395366 -7.78164e-17 0.918524
    outer loop
      vertex -6.5 -6.5 -26.876
      vertex -6.5 6.5 -26.876
      vertex -13.7577 -13.7577 -30
    endloop
  endfacet
  facet normal -1.57867e-16 -0.395366 0.918524
    outer loop
      vertex 13.7577 -13.7577 -30
      vertex 6.5 -6.5 -26.876
      vertex -6.5 -6.5 -26.876
    endloop
  endfacet
  facet normal -1.57867e-16 -0.395366 0.918524
    outer loop
      vertex -13.7577 -13.7577 -30
      vertex 13.7577 -13.7577 -30
      vertex -6.5 -6.5 -26.876
    endloop
  endfacet
  facet normal 0.395366 -2.01969e-16 0.918524
    outer loop
      vertex 13.7577 -13.7577 -30
      vertex 13.7577 13.7577 -30
      vertex 6.5 6.5 -26.876
    endloop
  endfacet
  facet normal 0.395366 -2.01969e-16 0.918524
    outer loop
      vertex 6.5 -6.5 -26.876
      vertex 13.7577 -13.7577 -30
      vertex 6.5 6.5 -26.876
    endloop
  endfacet
  facet normal 1 -7.85046e-17 -1.11022e-16
    outer loop
      vertex 28.15 20 -30.2
      vertex 28.15 14.5 -33.5
      vertex 28.15 20 -36.8
    endloop
  endfacet
  facet normal 1 -7.85046e-17 -1.11022e-16
    outer loop
      vertex 28.15 25.5 -33.5
      vertex 28.15 20 -30.2
      vertex 28.15 20 -36.8
    endloop
  endfacet
  facet normal 1 -7.85046e-17 -1.11022e-16
    outer loop
      vertex 28.15 -4.37484e-15 -30.2
      vertex 28.15 -5.5 -33.5
      vertex 28.15 -2.54297e-15 -36.8
    endloop
  endfacet
  facet normal 1 -7.85046e-17 -1.11022e-16
    outer loop
      vertex 28.15 5.5 -33.5
      vertex 28.15 -4.37484e-15 -30.2
      vertex 28.15 -2.54297e-15 -36.8
    endloop
  endfacet
  facet normal 1 -7.85046e-17 -1.11022e-16
    outer loop
      vertex 28.15 -20 -30.2
      vertex 28.15 -25.5 -33.5
      vertex 28.15 -20 -36.8
    endloop
  endfacet
  facet normal 1 -7.85046e-17 -1.11022e-16
    outer loop
      vertex 28.15 -14.5 -33.5
      vertex 28.15 -20 -30.2
      vertex 28.15 -20 -36.8
    endloop
  endfacet
  facet normal 3.14018e-16 1 5.55112e-17
    outer loop
      vertex 14.5 28.15 -33.5
      vertex 20 28.15 -30.2
      vertex 20 28.15 -36.8
    endloop
  endfacet
  facet normal 3.14018e-16 1 5.55112e-17
    outer loop
      vertex 20 28.15 -36.8
      vertex 20 28.15 -30.2
      vertex 25.5 28.15 -33.5
    endloop
  endfacet
  facet normal 3.14018e-16 1 5.55112e-17
    outer loop
      vertex -5.5 28.15 -33.5
      vertex 1.64113e-14 28.15 -30.2
      vertex 1.71441e-14 28.15 -36.8
    endloop
  endfacet
  facet normal 3.14018e-16 1 5.55112e-17
    outer loop
      vertex 1.71441e-14 28.15 -36.8
      vertex 1.64113e-14 28.15 -30.2
      vertex 5.5 28.15 -33.5
    endloop
  endfacet
  facet normal 3.14018e-16 1 5.55112e-17
    outer loop
      vertex -25.5 28.15 -33.5
      vertex -20 28.15 -30.2
      vertex -20 28.15 -36.8
    endloop
  endfacet
  facet normal 3.14018e-16 1 5.55112e-17
    outer loop
      vertex -20 28.15 -36.8
      vertex -20 28.15 -30.2
      vertex -14.5 28.15 -33.5
    endloop
  endfacet
  facet normal -1 1.57009e-16 -3.33067e-16
    outer loop
      vertex -28.15 14.5 -33.5
      vertex -28.15 20 -30.2
      vertex -28.15 20 -36.8
    endloop
  endfacet
  facet normal -1 1.57009e-16 -3.33067e-16
    outer loop
      vertex -28.15 20 -36.8
      vertex -28.15 20 -30.2
      vertex -28.15 25.5 -33.5
    endloop
  endfacet
  facet normal -1 1.57009e-16 -3.33067e-16
    outer loop
      vertex -28.15 -5.5 -33.5
      vertex -28.15 2.25488e-15 -30.2
      vertex -28.15 4.08674e-15 -36.8
    endloop
  endfacet
  facet normal -1 1.57009e-16 -3.33067e-16
    outer loop
      vertex -28.15 4.08674e-15 -36.8
      vertex -28.15 2.25488e-15 -30.2
      vertex -28.15 5.5 -33.5
    endloop
  endfacet
  facet normal -1 1.57009e-16 -3.33067e-16
    outer loop
      vertex -28.15 -25.5 -33.5
      vertex -28.15 -20 -30.2
      vertex -28.15 -20 -36.8
    endloop
  endfacet
  facet normal -1 1.57009e-16 -3.33067e-16
    outer loop
      vertex -28.15 -20 -36.8
      vertex -28.15 -20 -30.2
      vertex -28.15 -14.5 -33.5
    endloop
  endfacet
  facet normal -3.14018e-16 -1 -4.996e-16
    outer loop
      vertex 20 -28.15 -30.2
      vertex 14.5 -28.15 -33.5
      vertex 20 -28.15 -36.8
    endloop
  endfacet
  facet normal -3.14018e-16 -1 -4.996e-16
    outer loop
      vertex 25.5 -28.15 -33.5
      vertex 20 -28.15 -30.2
      vertex 20 -28.15 -36.8
    endloop
  endfacet
  facet normal -3.14018e-16 -1 -4.996e-16
    outer loop
      vertex -1.2679e-15 -28.15 -30.2
      vertex -5.5 -28.15 -33.5
      vertex -5.35152e-16 -28.15 -36.8
    endloop
  endfacet
  facet normal -3.14018e-16 -1 -4.996e-16
    outer loop
      vertex 5.5 -28.15 -33.5
      vertex -1.2679e-15 -28.15 -30.2
      vertex -5.35152e-16 -28.15 -36.8
    endloop
  endfacet
  facet normal -3.14018e-16 -1 -4.996e-16
    outer loop
      vertex -20 -28.15 -30.2
      vertex -25.5 -28.15 -33.5
      vertex -20 -28.15 -36.8
    endloop
  endfacet
  facet normal -3.14018e-16 -1 -4.996e-16
    outer loop
      vertex -14.5 -28.15 -33.5
      vertex -20 -28.15 -30.2
      vertex -20 -28.15 -36.8
    endloop
  endfacet
  facet normal -1.04288e-16 -1.52302e-16 1
    outer loop
      vertex 2.9 2.9 -25.6
      vertex 6.5 6.5 -25.6
      vertex -6.5 6.5 -25.6
    endloop
  endfacet
  facet normal -1.04288e-16 -1.52302e-16 1
    outer loop
      vertex 2.9 -2.9 -25.6
      vertex 6.5 -6.5 -25.6
      vertex 2.9 2.9 -25.6
    endloop
  endfacet
  facet normal -1.04288e-16 -1.52302e-16 1
    outer loop
      vertex -2.9 2.9 -25.6
      vertex 2.9 2.9 -25.6
      vertex -6.5 6.5 -25.6
    endloop
  endfacet
  facet normal -1.04288e-16 -1.52302e-16 1
    outer loop
      vertex 6.5 -6.5 -25.6
      vertex 6.5 6.5 -25.6
      vertex 2.9 2.9 -25.6
    endloop
  endfacet
  facet normal -1.04288e-16 -1.52302e-16 1
    outer loop
      vertex -6.5 -6.5 -25.6
      vertex 6.5 -6.5 -25.6
      vertex 2.9 -2.9 -25.6
    endloop
  endfacet
  facet normal -1.04288e-16 -1.52302e-16 1
    outer loop
      vertex -6.5 -6.5 -25.6
      vertex -2.9 -2.9 -25.6
      vertex -6.5 6.5 -25.6
    endloop
  endfacet
  facet normal -1.04288e-16 -1.52302e-16 1
    outer loop
      vertex -6.5 -6.5 -25.6
      vertex 2.9 -2.9 -25.6
      vertex -2.9 -2.9 -25.6
    endloop
  endfacet
  facet normal -1.04288e-16 -1.52302e-16 1
    outer loop
      vertex -2.9 -2.9 -25.6
      vertex -2.9 2.9 -25.6
      vertex -6.5 6.5 -25.6
    endloop
  endfacet
  facet normal 1 -7.85046e-17 1.11022e-16
    outer loop
      vertex 6.5 6.5 -26.876
      vertex 6.5 6.5 -25.6
      vertex 6.5 -6.5 -25.6
    endloop
  endfacet
  facet normal 1 -7.85046e-17 1.11022e-16
    outer loop
      vertex 6.5 -6.5 -26.876
      vertex 6.5 6.5 -26.876
      vertex 6.5 -6.5 -25.6
    endloop
  endfacet
  facet normal 7.85046e-17 1 1.55091e-16
    outer loop
      vertex 6.5 6.5 -25.6
      vertex 6.5 6.5 -26.876
      vertex -6.5 6.5 -25.6
    endloop
  endfacet
  facet normal 7.85046e-17 1 1.55091e-16
    outer loop
      vertex -6.5 6.5 -25.6
      vertex 6.5 6.5 -26.876
      vertex -6.5 6.5 -26.876
    endloop
  endfacet
  facet normal -1 7.85046e-17 -1.11022e-16
    outer loop
      vertex -6.5 6.5 -25.6
      vertex -6.5 6.5 -26.876
      vertex -6.5 -6.5 -25.6
    endloop
  endfacet
  facet normal -1 7.85046e-17 -1.11022e-16
    outer loop
      vertex -6.5 -6.5 -25.6
      vertex -6.5 6.5 -26.876
      vertex -6.5 -6.5 -26.876
    endloop
  endfacet
  facet normal -7.85046e-17 -1 -1.55091e-16
    outer loop
      vertex 6.5 -6.5 -26.876
      vertex 6.5 -6.5 -25.6
      vertex -6.5 -6.5 -25.6
    endloop
  endfacet
  facet normal -7.85046e-17 -1 -1.55091e-16
    outer loop
      vertex -6.5 -6.5 -26.876
      vertex 6.5 -6.5 -26.876
      vertex -6.5 -6.5 -25.6
    endloop
  endfacet
endsolid OpenSCAD_Model
