solid OpenSCAD_Model
  facet normal -1 0 0
    outer loop
      vertex -40 -56.5685 -4.44089e-15
      vertex -40 -56.5685 0
      vertex -40 4.44089e-15 -56.5685
    endloop
  endfacet
  facet normal -1 0 0
    outer loop
      vertex -40 -42.4264 -3.33067e-15
      vertex -40 -56.5685 0
      vertex -40 -42.4264 0
    endloop
  endfacet
  facet normal -1 0 0
    outer loop
      vertex -40 4.44089e-15 -56.5685
      vertex -40 -56.5685 0
      vertex -40 -42.4264 -3.33067e-15
    endloop
  endfacet
  facet normal -1 0 0
    outer loop
      vertex -40 4.44089e-15 -56.5685
      vertex -40 3.33067e-15 -42.4264
      vertex -40 42.4264 0
    endloop
  endfacet
  facet normal -1 0 0
    outer loop
      vertex -40 4.44089e-15 -56.5685
      vertex -40 42.4264 0
      vertex -40 56.5685 0
    endloop
  endfacet
  facet normal -1 0 0
    outer loop
      vertex -40 3.33067e-15 -42.4264
      vertex -40 4.44089e-15 -56.5685
      vertex -40 -42.4264 -3.33067e-15
    endloop
  endfacet
  facet normal 0 -0.707107 0.707107
    outer loop
      vertex -40 -56.5685 0
      vertex -40 -56.5685 -4.44089e-15
      vertex 40 -56.5685 -4.44089e-15
    endloop
  endfacet
  facet normal 0 -0.707107 0.707107
    outer loop
      vertex 40 -56.5685 0
      vertex -40 -56.5685 0
      vertex 40 -56.5685 -4.44089e-15
    endloop
  endfacet
  facet normal 0 -0.707107 -0.707107
    outer loop
      vertex -30 -49.4975 -7.07107
      vertex 30 -49.4975 -7.07107
      vertex 40 -56.5685 -4.44089e-15
    endloop
  endfacet
  facet normal 0 -0.707107 -0.707107
    outer loop
      vertex -30 -7.07107 -49.4975
      vertex -40 4.44089e-15 -56.5685
      vertex 40 4.44089e-15 -56.5685
    endloop
  endfacet
  facet normal 0 -0.707107 -0.707107
    outer loop
      vertex -40 -56.5685 -4.44089e-15
      vertex -40 4.44089e-15 -56.5685
      vertex -30 -7.07107 -49.4975
    endloop
  endfacet
  facet normal 0 -0.707107 -0.707107
    outer loop
      vertex 30 -7.07107 -49.4975
      vertex -30 -7.07107 -49.4975
      vertex 40 4.44089e-15 -56.5685
    endloop
  endfacet
  facet normal 0 -0.707107 -0.707107
    outer loop
      vertex -40 -56.5685 -4.44089e-15
      vertex -30 -7.07107 -49.4975
      vertex -30 -49.4975 -7.07107
    endloop
  endfacet
  facet normal 0 -0.707107 -0.707107
    outer loop
      vertex -40 -56.5685 -4.44089e-15
      vertex -30 -49.4975 -7.07107
      vertex 40 -56.5685 -4.44089e-15
    endloop
  endfacet
  facet normal 0 -0.707107 -0.707107
    outer loop
      vertex 40 -56.5685 -4.44089e-15
      vertex 30 -49.4975 -7.07107
      vertex 40 4.44089e-15 -56.5685
    endloop
  endfacet
  facet normal 0 -0.707107 -0.707107
    outer loop
      vertex 30 -49.4975 -7.07107
      vertex 30 -7.07107 -49.4975
      vertex 40 4.44089e-15 -56.5685
    endloop
  endfacet
  facet normal 0 0.707107 -0.707107
    outer loop
      vertex -30 49.4975 -7.07107
      vertex -40 56.5685 0
      vertex 40 56.5685 0
    endloop
  endfacet
  facet normal 0 0.707107 -0.707107
    outer loop
      vertex 30 49.4975 -7.07107
      vertex -30 49.4975 -7.07107
      vertex 40 56.5685 0
    endloop
  endfacet
  facet normal 0 0.707107 -0.707107
    outer loop
      vertex -40 4.44089e-15 -56.5685
      vertex -40 56.5685 0
      vertex -30 7.07107 -49.4975
    endloop
  endfacet
  facet normal 0 0.707107 -0.707107
    outer loop
      vertex -40 4.44089e-15 -56.5685
      vertex -30 7.07107 -49.4975
      vertex 40 4.44089e-15 -56.5685
    endloop
  endfacet
  facet normal 0 0.707107 -0.707107
    outer loop
      vertex 40 4.44089e-15 -56.5685
      vertex 30 7.07107 -49.4975
      vertex 40 56.5685 0
    endloop
  endfacet
  facet normal 0 0.707107 -0.707107
    outer loop
      vertex 30 7.07107 -49.4975
      vertex 30 49.4975 -7.07107
      vertex 40 56.5685 0
    endloop
  endfacet
  facet normal 0 0.707107 -0.707107
    outer loop
      vertex -30 7.07107 -49.4975
      vertex -40 56.5685 0
      vertex -30 49.4975 -7.07107
    endloop
  endfacet
  facet normal 0 0.707107 -0.707107
    outer loop
      vertex 30 7.07107 -49.4975
      vertex 40 4.44089e-15 -56.5685
      vertex -30 7.07107 -49.4975
    endloop
  endfacet
  facet normal 0 0 1
    outer loop
      vertex 40 56.5685 0
      vertex -38 53.7401 0
      vertex 38 53.7401 0
    endloop
  endfacet
  facet normal 0 0 1
    outer loop
      vertex -38 42.4264 0
      vertex -38 53.7401 0
      vertex -40 56.5685 0
    endloop
  endfacet
  facet normal 0 0 1
    outer loop
      vertex 38 42.4264 0
      vertex 40 42.4264 0
      vertex 38 53.7401 0
    endloop
  endfacet
  facet normal 0 0 1
    outer loop
      vertex 40 42.4264 0
      vertex 40 56.5685 0
      vertex 38 53.7401 0
    endloop
  endfacet
  facet normal 0 0 1
    outer loop
      vertex 40 56.5685 0
      vertex -40 56.5685 0
      vertex -38 53.7401 0
    endloop
  endfacet
  facet normal 0 0 1
    outer loop
      vertex -40 56.5685 0
      vertex -40 42.4264 0
      vertex -38 42.4264 0
    endloop
  endfacet
  facet normal 0 -0.707107 0.707107
    outer loop
      vertex -38 3.33067e-15 -42.4264
      vertex -38 42.4264 0
      vertex -40 42.4264 0
    endloop
  endfacet
  facet normal 0 -0.707107 0.707107
    outer loop
      vertex -40 3.33067e-15 -42.4264
      vertex -38 3.33067e-15 -42.4264
      vertex -40 42.4264 0
    endloop
  endfacet
  facet normal 0 0.707107 0.707107
    outer loop
      vertex -38 -42.4264 -3.33067e-15
      vertex -38 3.33067e-15 -42.4264
      vertex -40 3.33067e-15 -42.4264
    endloop
  endfacet
  facet normal 0 0.707107 0.707107
    outer loop
      vertex -40 -42.4264 -3.33067e-15
      vertex -38 -42.4264 -3.33067e-15
      vertex -40 3.33067e-15 -42.4264
    endloop
  endfacet
  facet normal 0 0.707107 -0.707107
    outer loop
      vertex -38 -42.4264 0
      vertex -38 -42.4264 -3.33067e-15
      vertex -40 -42.4264 0
    endloop
  endfacet
  facet normal 0 0.707107 -0.707107
    outer loop
      vertex -40 -42.4264 0
      vertex -38 -42.4264 -3.33067e-15
      vertex -40 -42.4264 -3.33067e-15
    endloop
  endfacet
  facet normal 0 0 1
    outer loop
      vertex 40 -56.5685 0
      vertex 40 -42.4264 0
      vertex 38 -42.4264 0
    endloop
  endfacet
  facet normal 0 0 1
    outer loop
      vertex -38 -53.7401 0
      vertex 40 -56.5685 0
      vertex 38 -53.7401 0
    endloop
  endfacet
  facet normal 0 0 1
    outer loop
      vertex 38 -53.7401 0
      vertex 40 -56.5685 0
      vertex 38 -42.4264 0
    endloop
  endfacet
  facet normal 0 0 1
    outer loop
      vertex -40 -56.5685 0
      vertex 40 -56.5685 0
      vertex -38 -53.7401 0
    endloop
  endfacet
  facet normal 0 0 1
    outer loop
      vertex -40 -42.4264 0
      vertex -38 -53.7401 0
      vertex -38 -42.4264 0
    endloop
  endfacet
  facet normal 0 0 1
    outer loop
      vertex -40 -56.5685 0
      vertex -38 -53.7401 0
      vertex -40 -42.4264 0
    endloop
  endfacet
  facet normal 1 0 0
    outer loop
      vertex 40 -56.5685 0
      vertex 40 -56.5685 -4.44089e-15
      vertex 40 4.44089e-15 -56.5685
    endloop
  endfacet
  facet normal 1 0 0
    outer loop
      vertex 40 3.33067e-15 -42.4264
      vertex 40 -56.5685 0
      vertex 40 4.44089e-15 -56.5685
    endloop
  endfacet
  facet normal 1 0 0
    outer loop
      vertex 40 56.5685 0
      vertex 40 42.4264 0
      vertex 40 4.44089e-15 -56.5685
    endloop
  endfacet
  facet normal 1 0 0
    outer loop
      vertex 40 42.4264 0
      vertex 40 3.33067e-15 -42.4264
      vertex 40 4.44089e-15 -56.5685
    endloop
  endfacet
  facet normal 1 0 0
    outer loop
      vertex 40 -42.4264 -3.33067e-15
      vertex 40 -56.5685 0
      vertex 40 3.33067e-15 -42.4264
    endloop
  endfacet
  facet normal 1 0 0
    outer loop
      vertex 40 -42.4264 0
      vertex 40 -56.5685 0
      vertex 40 -42.4264 -3.33067e-15
    endloop
  endfacet
  facet normal 1 0 0
    outer loop
      vertex -30 -7.07107 -49.4975
      vertex -30 -5.65685 -48.0833
      vertex -30 -48.0833 -5.65685
    endloop
  endfacet
  facet normal 1 0 0
    outer loop
      vertex -30 -49.4975 -7.07107
      vertex -30 -7.07107 -49.4975
      vertex -30 -48.0833 -5.65685
    endloop
  endfacet
  facet normal 0 -0.707107 0.707107
    outer loop
      vertex 30 -7.07107 -49.4975
      vertex 30 -5.65685 -48.0833
      vertex -30 -5.65685 -48.0833
    endloop
  endfacet
  facet normal 0 -0.707107 0.707107
    outer loop
      vertex -30 -7.07107 -49.4975
      vertex 30 -7.07107 -49.4975
      vertex -30 -5.65685 -48.0833
    endloop
  endfacet
  facet normal -1 0 0
    outer loop
      vertex 30 -5.65685 -48.0833
      vertex 30 -7.07107 -49.4975
      vertex 30 -48.0833 -5.65685
    endloop
  endfacet
  facet normal -1 0 0
    outer loop
      vertex 30 -48.0833 -5.65685
      vertex 30 -7.07107 -49.4975
      vertex 30 -49.4975 -7.07107
    endloop
  endfacet
  facet normal 0 0.707107 -0.707107
    outer loop
      vertex 30 -48.0833 -5.65685
      vertex 30 -49.4975 -7.07107
      vertex -30 -48.0833 -5.65685
    endloop
  endfacet
  facet normal 0 0.707107 -0.707107
    outer loop
      vertex -30 -48.0833 -5.65685
      vertex 30 -49.4975 -7.07107
      vertex -30 -49.4975 -7.07107
    endloop
  endfacet
  facet normal 1 0 0
    outer loop
      vertex -30 7.07107 -49.4975
      vertex -30 49.4975 -7.07107
      vertex -30 48.0833 -5.65685
    endloop
  endfacet
  facet normal 1 0 0
    outer loop
      vertex -30 5.65685 -48.0833
      vertex -30 7.07107 -49.4975
      vertex -30 48.0833 -5.65685
    endloop
  endfacet
  facet normal 0 -0.707107 -0.707107
    outer loop
      vertex 30 49.4975 -7.07107
      vertex 30 48.0833 -5.65685
      vertex -30 49.4975 -7.07107
    endloop
  endfacet
  facet normal 0 -0.707107 -0.707107
    outer loop
      vertex -30 49.4975 -7.07107
      vertex 30 48.0833 -5.65685
      vertex -30 48.0833 -5.65685
    endloop
  endfacet
  facet normal -1 0 0
    outer loop
      vertex 30 49.4975 -7.07107
      vertex 30 7.07107 -49.4975
      vertex 30 48.0833 -5.65685
    endloop
  endfacet
  facet normal -1 0 0
    outer loop
      vertex 30 48.0833 -5.65685
      vertex 30 7.07107 -49.4975
      vertex 30 5.65685 -48.0833
    endloop
  endfacet
  facet normal 0 0.707107 0.707107
    outer loop
      vertex 30 5.65685 -48.0833
      vertex 30 7.07107 -49.4975
      vertex -30 7.07107 -49.4975
    endloop
  endfacet
  facet normal 0 0.707107 0.707107
    outer loop
      vertex -30 5.65685 -48.0833
      vertex 30 5.65685 -48.0833
      vertex -30 7.07107 -49.4975
    endloop
  endfacet
  facet normal 1 0 0
    outer loop
      vertex -38 4.21885e-15 -53.7401
      vertex -38 53.7401 0
      vertex -38 42.4264 0
    endloop
  endfacet
  facet normal 1 0 0
    outer loop
      vertex -38 -42.4264 -3.33067e-15
      vertex -38 4.21885e-15 -53.7401
      vertex -38 3.33067e-15 -42.4264
    endloop
  endfacet
  facet normal 1 0 0
    outer loop
      vertex -38 3.33067e-15 -42.4264
      vertex -38 4.21885e-15 -53.7401
      vertex -38 42.4264 0
    endloop
  endfacet
  facet normal 1 0 0
    outer loop
      vertex -38 -53.7401 0
      vertex -38 4.21885e-15 -53.7401
      vertex -38 -42.4264 -3.33067e-15
    endloop
  endfacet
  facet normal 1 0 0
    outer loop
      vertex -38 -53.7401 0
      vertex -38 -42.4264 -3.33067e-15
      vertex -38 -42.4264 0
    endloop
  endfacet
  facet normal 1 0 0
    outer loop
      vertex -38 -53.7401 -4.21885e-15
      vertex -38 4.21885e-15 -53.7401
      vertex -38 -53.7401 0
    endloop
  endfacet
  facet normal 0 -0.707107 0.707107
    outer loop
      vertex 40 3.33067e-15 -42.4264
      vertex 40 42.4264 0
      vertex 38 42.4264 0
    endloop
  endfacet
  facet normal 0 -0.707107 0.707107
    outer loop
      vertex 38 3.33067e-15 -42.4264
      vertex 40 3.33067e-15 -42.4264
      vertex 38 42.4264 0
    endloop
  endfacet
  facet normal -1 0 0
    outer loop
      vertex 38 -42.4264 0
      vertex 38 -42.4264 -3.33067e-15
      vertex 38 -53.7401 0
    endloop
  endfacet
  facet normal -1 0 0
    outer loop
      vertex 38 -53.7401 0
      vertex 38 -42.4264 -3.33067e-15
      vertex 38 3.33067e-15 -42.4264
    endloop
  endfacet
  facet normal -1 0 0
    outer loop
      vertex 38 3.33067e-15 -42.4264
      vertex 38 42.4264 0
      vertex 38 53.7401 0
    endloop
  endfacet
  facet normal -1 0 0
    outer loop
      vertex 38 3.33067e-15 -42.4264
      vertex 38 53.7401 0
      vertex 38 4.21885e-15 -53.7401
    endloop
  endfacet
  facet normal -1 0 0
    outer loop
      vertex 38 3.33067e-15 -42.4264
      vertex 38 4.21885e-15 -53.7401
      vertex 38 -53.7401 0
    endloop
  endfacet
  facet normal -1 0 0
    outer loop
      vertex 38 -53.7401 0
      vertex 38 4.21885e-15 -53.7401
      vertex 38 -53.7401 -4.21885e-15
    endloop
  endfacet
  facet normal 0 -0.707107 0.707107
    outer loop
      vertex -30 48.0833 -5.65685
      vertex 38 53.7401 0
      vertex -38 53.7401 0
    endloop
  endfacet
  facet normal 0 -0.707107 0.707107
    outer loop
      vertex 30 48.0833 -5.65685
      vertex 38 53.7401 0
      vertex -30 48.0833 -5.65685
    endloop
  endfacet
  facet normal 0 -0.707107 0.707107
    outer loop
      vertex 38 4.21885e-15 -53.7401
      vertex 38 53.7401 0
      vertex 30 48.0833 -5.65685
    endloop
  endfacet
  facet normal 0 -0.707107 0.707107
    outer loop
      vertex 38 4.21885e-15 -53.7401
      vertex 30 48.0833 -5.65685
      vertex 30 5.65685 -48.0833
    endloop
  endfacet
  facet normal 0 -0.707107 0.707107
    outer loop
      vertex -38 4.21885e-15 -53.7401
      vertex -30 5.65685 -48.0833
      vertex -38 53.7401 0
    endloop
  endfacet
  facet normal 0 -0.707107 0.707107
    outer loop
      vertex -38 4.21885e-15 -53.7401
      vertex 38 4.21885e-15 -53.7401
      vertex -30 5.65685 -48.0833
    endloop
  endfacet
  facet normal 0 -0.707107 0.707107
    outer loop
      vertex 30 5.65685 -48.0833
      vertex -30 5.65685 -48.0833
      vertex 38 4.21885e-15 -53.7401
    endloop
  endfacet
  facet normal 0 -0.707107 0.707107
    outer loop
      vertex -30 5.65685 -48.0833
      vertex -30 48.0833 -5.65685
      vertex -38 53.7401 0
    endloop
  endfacet
  facet normal 0 0.707107 -0.707107
    outer loop
      vertex 38 -53.7401 0
      vertex 38 -53.7401 -4.21885e-15
      vertex -38 -53.7401 0
    endloop
  endfacet
  facet normal 0 0.707107 -0.707107
    outer loop
      vertex -38 -53.7401 0
      vertex 38 -53.7401 -4.21885e-15
      vertex -38 -53.7401 -4.21885e-15
    endloop
  endfacet
  facet normal 0 0.707107 -0.707107
    outer loop
      vertex 40 -42.4264 0
      vertex 40 -42.4264 -3.33067e-15
      vertex 38 -42.4264 0
    endloop
  endfacet
  facet normal 0 0.707107 -0.707107
    outer loop
      vertex 38 -42.4264 0
      vertex 40 -42.4264 -3.33067e-15
      vertex 38 -42.4264 -3.33067e-15
    endloop
  endfacet
  facet normal 0 0.707107 0.707107
    outer loop
      vertex 40 -42.4264 -3.33067e-15
      vertex 40 3.33067e-15 -42.4264
      vertex 38 3.33067e-15 -42.4264
    endloop
  endfacet
  facet normal 0 0.707107 0.707107
    outer loop
      vertex 38 -42.4264 -3.33067e-15
      vertex 40 -42.4264 -3.33067e-15
      vertex 38 3.33067e-15 -42.4264
    endloop
  endfacet
  facet normal 0 0.707107 0.707107
    outer loop
      vertex -30 -5.65685 -48.0833
      vertex 38 4.21885e-15 -53.7401
      vertex -38 4.21885e-15 -53.7401
    endloop
  endfacet
  facet normal 0 0.707107 0.707107
    outer loop
      vertex 30 -5.65685 -48.0833
      vertex 38 -53.7401 -4.21885e-15
      vertex 38 4.21885e-15 -53.7401
    endloop
  endfacet
  facet normal 0 0.707107 0.707107
    outer loop
      vertex -38 -53.7401 -4.21885e-15
      vertex -30 -5.65685 -48.0833
      vertex -38 4.21885e-15 -53.7401
    endloop
  endfacet
  facet normal 0 0.707107 0.707107
    outer loop
      vertex 30 -48.0833 -5.65685
      vertex 38 -53.7401 -4.21885e-15
      vertex 30 -5.65685 -48.0833
    endloop
  endfacet
  facet normal 0 0.707107 0.707107
    outer loop
      vertex -30 -5.65685 -48.0833
      vertex 30 -5.65685 -48.0833
      vertex 38 4.21885e-15 -53.7401
    endloop
  endfacet
  facet normal 0 0.707107 0.707107
    outer loop
      vertex -38 -53.7401 -4.21885e-15
      vertex 38 -53.7401 -4.21885e-15
      vertex 30 -48.0833 -5.65685
    endloop
  endfacet
  facet normal 0 0.707107 0.707107
    outer loop
      vertex -38 -53.7401 -4.21885e-15
      vertex -30 -48.0833 -5.65685
      vertex -30 -5.65685 -48.0833
    endloop
  endfacet
  facet normal 0 0.707107 0.707107
    outer loop
      vertex -38 -53.7401 -4.21885e-15
      vertex 30 -48.0833 -5.65685
      vertex -30 -48.0833 -5.65685
    endloop
  endfacet
  facet normal -1.57009e-16 -0.707107 0.707107
    outer loop
      vertex -26.1213 -33.9411 0
      vertex -36.416 -41.2206 -7.27944
      vertex -34.2947 -42.7206 -8.77944
    endloop
  endfacet
  facet normal -1.57009e-16 -0.707107 0.707107
    outer loop
      vertex -21.8787 -33.9411 0
      vertex -26.1213 -33.9411 0
      vertex -34.2947 -42.7206 -8.77944
    endloop
  endfacet
  facet normal -0.707107 -0.5 -0.5
    outer loop
      vertex -36.416 -41.2206 -7.27944
      vertex -36.416 -7.27944 -41.2206
      vertex -34.2947 -42.7206 -8.77944
    endloop
  endfacet
  facet normal -0.707107 -0.5 -0.5
    outer loop
      vertex -34.2947 -42.7206 -8.77944
      vertex -36.416 -7.27944 -41.2206
      vertex -34.2947 -8.77944 -42.7206
    endloop
  endfacet
  facet normal -0.707107 0.5 0.5
    outer loop
      vertex -36.416 -41.2206 -7.27944
      vertex -26.1213 -33.9411 0
      vertex -36.416 -7.27944 -41.2206
    endloop
  endfacet
  facet normal -0.707107 0.5 0.5
    outer loop
      vertex -36.416 -7.27944 -41.2206
      vertex -26.1213 -33.9411 0
      vertex -16.016 -19.65 0
    endloop
  endfacet
  facet normal -0.707107 0.5 0.5
    outer loop
      vertex -36.416 -7.27944 -41.2206
      vertex -16.016 -19.65 0
      vertex -16.016 0.867524 -20.5175
    endloop
  endfacet
  facet normal -0.707107 0.5 0.5
    outer loop
      vertex -16.016 0.867524 -20.5175
      vertex -15.6384 0.756934 -19.873
      vertex -14.9288 0.897144 -19.0096
    endloop
  endfacet
  facet normal -0.707107 0.5 0.5
    outer loop
      vertex -16.016 0.867524 -20.5175
      vertex -14.9288 0.897144 -19.0096
      vertex -14.1421 1.32878 -18.3288
    endloop
  endfacet
  facet normal -0.707107 0.5 0.5
    outer loop
      vertex -16.016 0.867524 -20.5175
      vertex -14.1421 1.32878 -18.3288
      vertex -13.3555 2.0096 -17.8971
    endloop
  endfacet
  facet normal -0.707107 0.5 0.5
    outer loop
      vertex -16.016 0.867524 -20.5175
      vertex -13.3555 2.0096 -17.8971
      vertex -36.416 -7.27944 -41.2206
    endloop
  endfacet
  facet normal -0.707107 0.5 0.5
    outer loop
      vertex -36.416 -7.27944 -41.2206
      vertex -13.3555 2.0096 -17.8971
      vertex -12.6459 2.87296 -17.7569
    endloop
  endfacet
  facet normal -0.707107 0.5 0.5
    outer loop
      vertex -14.1421 2.81371 -19.8137
      vertex -12.6459 2.87296 -17.7569
      vertex -12.0827 3.83434 -17.9219
    endloop
  endfacet
  facet normal -0.707107 0.5 0.5
    outer loop
      vertex -13.284 3.85769 -19.6442
      vertex -12.0827 3.83434 -17.9219
      vertex -11.7211 4.79964 -18.3758
    endloop
  endfacet
  facet normal -0.707107 0.5 0.5
    outer loop
      vertex -13.1334 4.2599 -19.8333
      vertex -11.7211 4.79964 -18.3758
      vertex -13.0815 4.62437 -20.1244
    endloop
  endfacet
  facet normal -0.707107 0.5 0.5
    outer loop
      vertex -13.284 5.10457 -20.891
      vertex -11.5966 5.67437 -19.0744
      vertex -11.7211 6.3729 -19.9491
    endloop
  endfacet
  facet normal -0.707107 0.5 0.5
    outer loop
      vertex -16.016 4.23121 -23.8812
      vertex -11.7211 6.3729 -19.9491
      vertex -12.0827 6.82686 -20.9144
    endloop
  endfacet
  facet normal -0.707107 0.5 0.5
    outer loop
      vertex -36.416 -7.27944 -41.2206
      vertex -12.0827 6.82686 -20.9144
      vertex -12.3542 6.90638 -21.3779
    endloop
  endfacet
  facet normal -0.707107 0.5 0.5
    outer loop
      vertex -36.416 -7.27944 -41.2206
      vertex -12.3542 6.90638 -21.3779
      vertex 10.2329 22.8779 -5.40638
    endloop
  endfacet
  facet normal -0.707107 0.5 0.5
    outer loop
      vertex 10.2329 22.8779 -5.40638
      vertex 9.96139 22.4144 -5.32686
      vertex 9.59982 21.4491 -4.8729
    endloop
  endfacet
  facet normal -0.707107 0.5 0.5
    outer loop
      vertex 10.2329 22.8779 -5.40638
      vertex 9.59982 21.4491 -4.8729
      vertex 9.47523 20.5744 -4.17437
    endloop
  endfacet
  facet normal -0.707107 0.5 0.5
    outer loop
      vertex 10.2329 22.8779 -5.40638
      vertex 9.47523 20.5744 -4.17437
      vertex 9.59982 19.8758 -3.29964
    endloop
  endfacet
  facet normal -0.707107 0.5 0.5
    outer loop
      vertex 10.2329 22.8779 -5.40638
      vertex 9.59982 19.8758 -3.29964
      vertex 9.96139 19.4219 -2.33434
    endloop
  endfacet
  facet normal -0.707107 0.5 0.5
    outer loop
      vertex 10.2329 22.8779 -5.40638
      vertex 9.96139 19.4219 -2.33434
      vertex 10.5246 19.2569 -1.37296
    endloop
  endfacet
  facet normal -0.707107 0.5 0.5
    outer loop
      vertex 10.2329 22.8779 -5.40638
      vertex 10.5246 19.2569 -1.37296
      vertex 11.2342 19.3971 -0.509605
    endloop
  endfacet
  facet normal -0.707107 0.5 0.5
    outer loop
      vertex 10.2329 22.8779 -5.40638
      vertex 11.2342 19.3971 -0.509605
      vertex 11.823 19.7202 0
    endloop
  endfacet
  facet normal -0.707107 0.5 0.5
    outer loop
      vertex 12.8789 22.3577 -1.14417
      vertex 11.823 19.7202 0
      vertex 21.8787 33.9411 0
    endloop
  endfacet
  facet normal -0.707107 0.5 0.5
    outer loop
      vertex 10.2329 22.8779 -5.40638
      vertex 21.8787 33.9411 0
      vertex -36.416 -7.27944 -41.2206
    endloop
  endfacet
  facet normal -0.707107 0.5 0.5
    outer loop
      vertex -36.416 -7.27944 -41.2206
      vertex -11.7211 6.3729 -19.9491
      vertex -16.016 4.23121 -23.8812
    endloop
  endfacet
  facet normal -0.707107 0.5 0.5
    outer loop
      vertex -15.2028 3.12437 -21.6244
      vertex -36.416 -7.27944 -41.2206
      vertex -15.1509 2.83331 -21.2599
    endloop
  endfacet
  facet normal -0.707107 0.5 0.5
    outer loop
      vertex -36.416 -7.27944 -41.2206
      vertex -16.016 4.23121 -23.8812
      vertex -16.016 4.31714 -23.9671
    endloop
  endfacet
  facet normal -0.707107 0.5 0.5
    outer loop
      vertex -36.416 -7.27944 -41.2206
      vertex -16.016 4.31714 -23.9671
      vertex -15.93 4.37789 -23.9064
    endloop
  endfacet
  facet normal -0.707107 0.5 0.5
    outer loop
      vertex -36.416 -7.27944 -41.2206
      vertex -15.93 4.37789 -23.9064
      vertex -12.0827 6.82686 -20.9144
    endloop
  endfacet
  facet normal -0.707107 0.5 0.5
    outer loop
      vertex -14.1421 2.81371 -19.8137
      vertex -12.0827 3.83434 -17.9219
      vertex -13.8144 3.09738 -19.6339
    endloop
  endfacet
  facet normal -0.707107 0.5 0.5
    outer loop
      vertex -14.7656 4.29162 -22.1733
      vertex -36.416 -7.27944 -41.2206
      vertex -15.0002 3.89105 -22.1046
    endloop
  endfacet
  facet normal -0.707107 0.5 0.5
    outer loop
      vertex -13.0815 4.62437 -20.1244
      vertex -11.7211 4.79964 -18.3758
      vertex -11.5966 5.67437 -19.0744
    endloop
  endfacet
  facet normal -0.707107 0.5 0.5
    outer loop
      vertex -36.416 -7.27944 -41.2206
      vertex -15.2028 3.12437 -21.6244
      vertex -15.1509 3.48884 -21.9154
    endloop
  endfacet
  facet normal -0.707107 0.5 0.5
    outer loop
      vertex -36.416 -7.27944 -41.2206
      vertex -15.1509 3.48884 -21.9154
      vertex -15.0002 3.89105 -22.1046
    endloop
  endfacet
  facet normal -0.707107 0.5 0.5
    outer loop
      vertex -13.0815 4.62437 -20.1244
      vertex -11.5966 5.67437 -19.0744
      vertex -13.1334 4.91542 -20.4888
    endloop
  endfacet
  facet normal -0.707107 0.5 0.5
    outer loop
      vertex -36.416 -7.27944 -41.2206
      vertex -14.7656 4.29162 -22.1733
      vertex -14.4699 4.65135 -22.1149
    endloop
  endfacet
  facet normal -0.707107 0.5 0.5
    outer loop
      vertex -36.416 -7.27944 -41.2206
      vertex -14.4699 4.65135 -22.1149
      vertex -14.1421 4.93503 -21.935
    endloop
  endfacet
  facet normal -0.707107 0.5 0.5
    outer loop
      vertex -36.416 -7.27944 -41.2206
      vertex -14.1421 4.93503 -21.935
      vertex -11.7211 6.3729 -19.9491
    endloop
  endfacet
  facet normal -0.707107 0.5 0.5
    outer loop
      vertex -14.1421 4.93503 -21.935
      vertex -13.8144 5.11488 -21.6514
      vertex -11.7211 6.3729 -19.9491
    endloop
  endfacet
  facet normal -0.707107 0.5 0.5
    outer loop
      vertex -13.284 5.10457 -20.891
      vertex -11.7211 6.3729 -19.9491
      vertex -13.5187 5.1733 -21.2916
    endloop
  endfacet
  facet normal -0.707107 0.5 0.5
    outer loop
      vertex -13.1334 4.91542 -20.4888
      vertex -11.5966 5.67437 -19.0744
      vertex -13.284 5.10457 -20.891
    endloop
  endfacet
  facet normal -0.707107 0.5 0.5
    outer loop
      vertex -13.5187 5.1733 -21.2916
      vertex -11.7211 6.3729 -19.9491
      vertex -13.8144 5.11488 -21.6514
    endloop
  endfacet
  facet normal -0.707107 0.5 0.5
    outer loop
      vertex -13.284 3.85769 -19.6442
      vertex -11.7211 4.79964 -18.3758
      vertex -13.1334 4.2599 -19.8333
    endloop
  endfacet
  facet normal -0.707107 0.5 0.5
    outer loop
      vertex -13.5187 3.45712 -19.5754
      vertex -12.0827 3.83434 -17.9219
      vertex -13.284 3.85769 -19.6442
    endloop
  endfacet
  facet normal -0.707107 0.5 0.5
    outer loop
      vertex -13.8144 3.09738 -19.6339
      vertex -12.0827 3.83434 -17.9219
      vertex -13.5187 3.45712 -19.5754
    endloop
  endfacet
  facet normal -0.707107 0.5 0.5
    outer loop
      vertex -14.4699 2.63386 -20.0974
      vertex -12.6459 2.87296 -17.7569
      vertex -14.1421 2.81371 -19.8137
    endloop
  endfacet
  facet normal -0.707107 0.5 0.5
    outer loop
      vertex -14.7656 2.57544 -20.4571
      vertex -36.416 -7.27944 -41.2206
      vertex -14.4699 2.63386 -20.0974
    endloop
  endfacet
  facet normal -0.707107 0.5 0.5
    outer loop
      vertex -36.416 -7.27944 -41.2206
      vertex -12.6459 2.87296 -17.7569
      vertex -14.4699 2.63386 -20.0974
    endloop
  endfacet
  facet normal -0.707107 0.5 0.5
    outer loop
      vertex -15.0002 2.64417 -20.8577
      vertex -36.416 -7.27944 -41.2206
      vertex -14.7656 2.57544 -20.4571
    endloop
  endfacet
  facet normal -0.707107 0.5 0.5
    outer loop
      vertex 13.8087 25.4064 -2.87789
      vertex 12.0208 23.435 -3.43503
      vertex 13.8946 25.3812 -2.73121
    endloop
  endfacet
  facet normal -0.707107 0.5 0.5
    outer loop
      vertex -36.416 -7.27944 -41.2206
      vertex -15.0002 2.64417 -20.8577
      vertex -15.1509 2.83331 -21.2599
    endloop
  endfacet
  facet normal -0.707107 0.5 0.5
    outer loop
      vertex 10.2329 22.8779 -5.40638
      vertex 11.823 19.7202 0
      vertex 11.0121 21.3333 -2.7599
    endloop
  endfacet
  facet normal -0.707107 0.5 0.5
    outer loop
      vertex 10.2329 22.8779 -5.40638
      vertex 11.0121 21.3333 -2.7599
      vertex 10.9602 21.6244 -3.12437
    endloop
  endfacet
  facet normal -0.707107 0.5 0.5
    outer loop
      vertex 10.2329 22.8779 -5.40638
      vertex 10.9602 21.6244 -3.12437
      vertex 11.0121 21.9888 -3.41542
    endloop
  endfacet
  facet normal -0.707107 0.5 0.5
    outer loop
      vertex 10.2329 22.8779 -5.40638
      vertex 11.0121 21.9888 -3.41542
      vertex 11.1627 22.391 -3.60457
    endloop
  endfacet
  facet normal -0.707107 0.5 0.5
    outer loop
      vertex 10.2329 22.8779 -5.40638
      vertex 11.1627 22.391 -3.60457
      vertex 11.3974 22.7916 -3.6733
    endloop
  endfacet
  facet normal -0.707107 0.5 0.5
    outer loop
      vertex 12.3486 23.6149 -3.15135
      vertex 13.8946 25.3812 -2.73121
      vertex 12.0208 23.435 -3.43503
    endloop
  endfacet
  facet normal -0.707107 0.5 0.5
    outer loop
      vertex 10.2329 22.8779 -5.40638
      vertex 11.3974 22.7916 -3.6733
      vertex 11.6931 23.1514 -3.61488
    endloop
  endfacet
  facet normal -0.707107 0.5 0.5
    outer loop
      vertex 12.3486 23.6149 -3.15135
      vertex 21.8787 33.9411 0
      vertex 13.8946 25.3812 -2.73121
    endloop
  endfacet
  facet normal -0.707107 0.5 0.5
    outer loop
      vertex 12.6443 23.6733 -2.79162
      vertex 21.8787 33.9411 0
      vertex 12.3486 23.6149 -3.15135
    endloop
  endfacet
  facet normal -0.707107 0.5 0.5
    outer loop
      vertex 12.8789 23.6046 -2.39105
      vertex 21.8787 33.9411 0
      vertex 12.6443 23.6733 -2.79162
    endloop
  endfacet
  facet normal -0.707107 0.5 0.5
    outer loop
      vertex 13.0296 23.4154 -1.98884
      vertex 21.8787 33.9411 0
      vertex 12.8789 23.6046 -2.39105
    endloop
  endfacet
  facet normal -0.707107 0.5 0.5
    outer loop
      vertex 13.8946 25.3812 -2.73121
      vertex 21.8787 33.9411 0
      vertex 13.8946 25.4671 -2.81714
    endloop
  endfacet
  facet normal -0.707107 0.5 0.5
    outer loop
      vertex 12.6443 21.9571 -1.07544
      vertex 11.823 19.7202 0
      vertex 12.8789 22.3577 -1.14417
    endloop
  endfacet
  facet normal -0.707107 0.5 0.5
    outer loop
      vertex 12.3486 21.5974 -1.13386
      vertex 11.823 19.7202 0
      vertex 12.6443 21.9571 -1.07544
    endloop
  endfacet
  facet normal -0.707107 0.5 0.5
    outer loop
      vertex 13.0296 23.4154 -1.98884
      vertex 13.0815 23.1244 -1.62437
      vertex 21.8787 33.9411 0
    endloop
  endfacet
  facet normal -0.707107 0.5 0.5
    outer loop
      vertex 13.0815 23.1244 -1.62437
      vertex 13.0296 22.7599 -1.33331
      vertex 21.8787 33.9411 0
    endloop
  endfacet
  facet normal -0.707107 0.5 0.5
    outer loop
      vertex 13.8946 25.4671 -2.81714
      vertex 21.8787 33.9411 0
      vertex 13.8087 25.4064 -2.87789
    endloop
  endfacet
  facet normal -0.707107 0.5 0.5
    outer loop
      vertex 13.0296 22.7599 -1.33331
      vertex 12.8789 22.3577 -1.14417
      vertex 21.8787 33.9411 0
    endloop
  endfacet
  facet normal -0.707107 0.5 0.5
    outer loop
      vertex 12.0208 21.3137 -1.31371
      vertex 11.823 19.7202 0
      vertex 12.3486 21.5974 -1.13386
    endloop
  endfacet
  facet normal -0.707107 0.5 0.5
    outer loop
      vertex 11.6931 21.1339 -1.59738
      vertex 11.823 19.7202 0
      vertex 12.0208 21.3137 -1.31371
    endloop
  endfacet
  facet normal -0.707107 0.5 0.5
    outer loop
      vertex 11.3974 21.0754 -1.95712
      vertex 11.823 19.7202 0
      vertex 11.6931 21.1339 -1.59738
    endloop
  endfacet
  facet normal -0.707107 0.5 0.5
    outer loop
      vertex 11.1627 21.1442 -2.35769
      vertex 11.823 19.7202 0
      vertex 11.3974 21.0754 -1.95712
    endloop
  endfacet
  facet normal -0.707107 0.5 0.5
    outer loop
      vertex 11.0121 21.3333 -2.7599
      vertex 11.823 19.7202 0
      vertex 11.1627 21.1442 -2.35769
    endloop
  endfacet
  facet normal -0.707107 0.5 0.5
    outer loop
      vertex 13.8087 25.4064 -2.87789
      vertex 11.6931 23.1514 -3.61488
      vertex 12.0208 23.435 -3.43503
    endloop
  endfacet
  facet normal -0.707107 0.5 0.5
    outer loop
      vertex 10.2329 22.8779 -5.40638
      vertex 11.6931 23.1514 -3.61488
      vertex 13.8087 25.4064 -2.87789
    endloop
  endfacet
  facet normal -0.707107 0.5 0.5
    outer loop
      vertex 10.2329 22.8779 -5.40638
      vertex 13.8087 25.4064 -2.87789
      vertex 21.8787 33.9411 0
    endloop
  endfacet
  facet normal -0.707107 0.5 0.5
    outer loop
      vertex -16.016 4.23121 -23.8812
      vertex -12.0827 6.82686 -20.9144
      vertex -15.93 4.37789 -23.9064
    endloop
  endfacet
  facet normal 0 0 1
    outer loop
      vertex -21.8787 -33.9411 0
      vertex -11.823 -19.7202 0
      vertex -12.263 -19.6576 0
    endloop
  endfacet
  facet normal 0 0 1
    outer loop
      vertex -14.7891 -21.385 0
      vertex -21.8787 -33.9411 0
      vertex -13.66 -19.9067 0
    endloop
  endfacet
  facet normal 0 0 1
    outer loop
      vertex -13.66 -19.9067 0
      vertex -21.8787 -33.9411 0
      vertex -12.263 -19.6576 0
    endloop
  endfacet
  facet normal 0 0 1
    outer loop
      vertex -14.5679 -20.6299 0
      vertex -14.7891 -21.385 0
      vertex -13.66 -19.9067 0
    endloop
  endfacet
  facet normal 0 0 1
    outer loop
      vertex -26.1213 -33.9411 0
      vertex -21.8787 -33.9411 0
      vertex -16.016 -19.65 0
    endloop
  endfacet
  facet normal 0 0 1
    outer loop
      vertex -14.7891 -21.385 0
      vertex -16.016 -19.65 0
      vertex -21.8787 -33.9411 0
    endloop
  endfacet
  facet normal 0.707107 -0.5 -0.5
    outer loop
      vertex -21.8787 -33.9411 0
      vertex -34.2947 -42.7206 -8.77944
      vertex -34.2947 -8.77944 -42.7206
    endloop
  endfacet
  facet normal 0.707107 -0.5 -0.5
    outer loop
      vertex 26.1213 33.9411 0
      vertex 16.016 19.65 0
      vertex 16.016 20.5175 -0.867524
    endloop
  endfacet
  facet normal 0.707107 -0.5 -0.5
    outer loop
      vertex -10.2329 5.40638 -22.8779
      vertex -9.96139 5.32686 -22.4144
      vertex -34.2947 -8.77944 -42.7206
    endloop
  endfacet
  facet normal 0.707107 -0.5 -0.5
    outer loop
      vertex -9.96139 2.33434 -19.4219
      vertex -10.5246 1.37296 -19.2569
      vertex -9.47523 4.17437 -20.5744
    endloop
  endfacet
  facet normal 0.707107 -0.5 -0.5
    outer loop
      vertex -13.8946 2.73121 -25.3812
      vertex -13.8087 2.87789 -25.4064
      vertex -9.96139 5.32686 -22.4144
    endloop
  endfacet
  facet normal 0.707107 -0.5 -0.5
    outer loop
      vertex 14.9288 19.0096 -0.897144
      vertex 14.1421 18.3288 -1.32878
      vertex 13.3555 17.8971 -2.0096
    endloop
  endfacet
  facet normal 0.707107 -0.5 -0.5
    outer loop
      vertex 13.3555 17.8971 -2.0096
      vertex 12.6459 17.7569 -2.87296
      vertex 14.9288 19.0096 -0.897144
    endloop
  endfacet
  facet normal 0.707107 -0.5 -0.5
    outer loop
      vertex 16.016 20.5175 -0.867524
      vertex 15.6384 19.873 -0.756934
      vertex 12.0827 17.9219 -3.83434
    endloop
  endfacet
  facet normal 0.707107 -0.5 -0.5
    outer loop
      vertex 13.8144 19.6339 -3.09738
      vertex 16.016 20.5175 -0.867524
      vertex 11.7211 18.3758 -4.79964
    endloop
  endfacet
  facet normal 0.707107 -0.5 -0.5
    outer loop
      vertex 13.0815 20.1244 -4.62437
      vertex 11.7211 18.3758 -4.79964
      vertex 11.5966 19.0744 -5.67437
    endloop
  endfacet
  facet normal 0.707107 -0.5 -0.5
    outer loop
      vertex 13.5187 21.2916 -5.1733
      vertex 11.5966 19.0744 -5.67437
      vertex 11.7211 19.9491 -6.3729
    endloop
  endfacet
  facet normal 0.707107 -0.5 -0.5
    outer loop
      vertex -9.96139 5.32686 -22.4144
      vertex -13.8087 2.87789 -25.4064
      vertex -34.2947 -8.77944 -42.7206
    endloop
  endfacet
  facet normal 0.707107 -0.5 -0.5
    outer loop
      vertex 26.1213 33.9411 0
      vertex 11.7211 19.9491 -6.3729
      vertex 12.0827 20.9144 -6.82686
    endloop
  endfacet
  facet normal 0.707107 -0.5 -0.5
    outer loop
      vertex 26.1213 33.9411 0
      vertex 12.3542 21.3779 -6.90638
      vertex -34.2947 -8.77944 -42.7206
    endloop
  endfacet
  facet normal 0.707107 -0.5 -0.5
    outer loop
      vertex 26.1213 33.9411 0
      vertex 12.0827 20.9144 -6.82686
      vertex 12.3542 21.3779 -6.90638
    endloop
  endfacet
  facet normal 0.707107 -0.5 -0.5
    outer loop
      vertex -12.8074 -20.5096 -0.602856
      vertex -12.0208 -19.8288 -0.171216
      vertex -21.8787 -33.9411 0
    endloop
  endfacet
  facet normal 0.707107 -0.5 -0.5
    outer loop
      vertex -12.8074 -0.602856 -20.5096
      vertex -13.5171 -0.743066 -21.373
      vertex -12.0208 -0.171216 -19.8288
    endloop
  endfacet
  facet normal 0.707107 -0.5 -0.5
    outer loop
      vertex -10.5246 1.37296 -19.2569
      vertex -11.2342 0.509605 -19.3971
      vertex -9.59982 4.8729 -21.4491
    endloop
  endfacet
  facet normal 0.707107 -0.5 -0.5
    outer loop
      vertex -9.59982 3.29964 -19.8758
      vertex -9.96139 2.33434 -19.4219
      vertex -9.47523 4.17437 -20.5744
    endloop
  endfacet
  facet normal 0.707107 -0.5 -0.5
    outer loop
      vertex -13.5171 -21.373 -0.743066
      vertex -12.8074 -20.5096 -0.602856
      vertex -13.8946 -22.0175 -0.632476
    endloop
  endfacet
  facet normal 0.707107 -0.5 -0.5
    outer loop
      vertex -9.47523 4.17437 -20.5744
      vertex -10.5246 1.37296 -19.2569
      vertex -9.59982 4.8729 -21.4491
    endloop
  endfacet
  facet normal 0.707107 -0.5 -0.5
    outer loop
      vertex -12.8789 1.14417 -22.3577
      vertex -11.2342 0.509605 -19.3971
      vertex -34.2947 -8.77944 -42.7206
    endloop
  endfacet
  facet normal 0.707107 -0.5 -0.5
    outer loop
      vertex -11.2342 0.509605 -19.3971
      vertex -12.0208 -0.171216 -19.8288
      vertex -13.5171 -0.743066 -21.373
    endloop
  endfacet
  facet normal 0.707107 -0.5 -0.5
    outer loop
      vertex -11.2342 0.509605 -19.3971
      vertex -13.8946 -0.632476 -22.0175
      vertex -34.2947 -8.77944 -42.7206
    endloop
  endfacet
  facet normal 0.707107 -0.5 -0.5
    outer loop
      vertex -11.2342 0.509605 -19.3971
      vertex -13.5171 -0.743066 -21.373
      vertex -13.8946 -0.632476 -22.0175
    endloop
  endfacet
  facet normal 0.707107 -0.5 -0.5
    outer loop
      vertex -12.8074 -20.5096 -0.602856
      vertex -21.8787 -33.9411 0
      vertex -13.8946 -22.0175 -0.632476
    endloop
  endfacet
  facet normal 0.707107 -0.5 -0.5
    outer loop
      vertex 13.0815 20.1244 -4.62437
      vertex 13.1334 19.8333 -4.2599
      vertex 11.7211 18.3758 -4.79964
    endloop
  endfacet
  facet normal 0.707107 -0.5 -0.5
    outer loop
      vertex -11.823 -19.7202 0
      vertex -21.8787 -33.9411 0
      vertex -12.0208 -19.8288 -0.171216
    endloop
  endfacet
  facet normal 0.707107 -0.5 -0.5
    outer loop
      vertex -13.8087 2.87789 -25.4064
      vertex -13.8946 2.81714 -25.4671
      vertex -34.2947 -8.77944 -42.7206
    endloop
  endfacet
  facet normal 0.707107 -0.5 -0.5
    outer loop
      vertex 12.0827 17.9219 -3.83434
      vertex 11.7211 18.3758 -4.79964
      vertex 16.016 20.5175 -0.867524
    endloop
  endfacet
  facet normal 0.707107 -0.5 -0.5
    outer loop
      vertex -13.8946 -0.632476 -22.0175
      vertex -21.8787 -33.9411 0
      vertex -34.2947 -8.77944 -42.7206
    endloop
  endfacet
  facet normal 0.707107 -0.5 -0.5
    outer loop
      vertex -13.0296 1.98884 -23.4154
      vertex -13.0815 1.62437 -23.1244
      vertex -34.2947 -8.77944 -42.7206
    endloop
  endfacet
  facet normal 0.707107 -0.5 -0.5
    outer loop
      vertex -13.0815 1.62437 -23.1244
      vertex -13.0296 1.33331 -22.7599
      vertex -34.2947 -8.77944 -42.7206
    endloop
  endfacet
  facet normal 0.707107 -0.5 -0.5
    outer loop
      vertex -13.0296 1.33331 -22.7599
      vertex -12.8789 1.14417 -22.3577
      vertex -34.2947 -8.77944 -42.7206
    endloop
  endfacet
  facet normal 0.707107 -0.5 -0.5
    outer loop
      vertex -12.6443 1.07544 -21.9571
      vertex -11.2342 0.509605 -19.3971
      vertex -12.8789 1.14417 -22.3577
    endloop
  endfacet
  facet normal 0.707107 -0.5 -0.5
    outer loop
      vertex -12.3486 1.13386 -21.5974
      vertex -12.0208 1.31371 -21.3137
      vertex -11.2342 0.509605 -19.3971
    endloop
  endfacet
  facet normal 0.707107 -0.5 -0.5
    outer loop
      vertex -11.1627 2.35769 -21.1442
      vertex -11.0121 2.7599 -21.3333
      vertex -9.59982 4.8729 -21.4491
    endloop
  endfacet
  facet normal 0.707107 -0.5 -0.5
    outer loop
      vertex -11.6931 1.59738 -21.1339
      vertex -11.2342 0.509605 -19.3971
      vertex -12.0208 1.31371 -21.3137
    endloop
  endfacet
  facet normal 0.707107 -0.5 -0.5
    outer loop
      vertex -11.3974 1.95712 -21.0754
      vertex -11.2342 0.509605 -19.3971
      vertex -11.6931 1.59738 -21.1339
    endloop
  endfacet
  facet normal 0.707107 -0.5 -0.5
    outer loop
      vertex -9.59982 4.8729 -21.4491
      vertex -11.2342 0.509605 -19.3971
      vertex -11.3974 1.95712 -21.0754
    endloop
  endfacet
  facet normal 0.707107 -0.5 -0.5
    outer loop
      vertex -11.0121 2.7599 -21.3333
      vertex -10.9602 3.12437 -21.6244
      vertex -9.59982 4.8729 -21.4491
    endloop
  endfacet
  facet normal 0.707107 -0.5 -0.5
    outer loop
      vertex -9.59982 4.8729 -21.4491
      vertex -11.3974 1.95712 -21.0754
      vertex -11.1627 2.35769 -21.1442
    endloop
  endfacet
  facet normal 0.707107 -0.5 -0.5
    outer loop
      vertex -11.0121 3.41542 -21.9888
      vertex -11.1627 3.60457 -22.391
      vertex -9.59982 4.8729 -21.4491
    endloop
  endfacet
  facet normal 0.707107 -0.5 -0.5
    outer loop
      vertex -12.0208 3.43503 -23.435
      vertex -12.3486 3.15135 -23.6149
      vertex -34.2947 -8.77944 -42.7206
    endloop
  endfacet
  facet normal 0.707107 -0.5 -0.5
    outer loop
      vertex -9.59982 4.8729 -21.4491
      vertex -10.9602 3.12437 -21.6244
      vertex -11.0121 3.41542 -21.9888
    endloop
  endfacet
  facet normal 0.707107 -0.5 -0.5
    outer loop
      vertex -12.3486 3.15135 -23.6149
      vertex -12.6443 2.79162 -23.6733
      vertex -34.2947 -8.77944 -42.7206
    endloop
  endfacet
  facet normal 0.707107 -0.5 -0.5
    outer loop
      vertex -9.59982 4.8729 -21.4491
      vertex -11.1627 3.60457 -22.391
      vertex -11.3974 3.6733 -22.7916
    endloop
  endfacet
  facet normal 0.707107 -0.5 -0.5
    outer loop
      vertex -9.59982 4.8729 -21.4491
      vertex -11.6931 3.61488 -23.1514
      vertex -34.2947 -8.77944 -42.7206
    endloop
  endfacet
  facet normal 0.707107 -0.5 -0.5
    outer loop
      vertex -9.59982 4.8729 -21.4491
      vertex -11.3974 3.6733 -22.7916
      vertex -11.6931 3.61488 -23.1514
    endloop
  endfacet
  facet normal 0.707107 -0.5 -0.5
    outer loop
      vertex -11.6931 3.61488 -23.1514
      vertex -12.0208 3.43503 -23.435
      vertex -34.2947 -8.77944 -42.7206
    endloop
  endfacet
  facet normal 0.707107 -0.5 -0.5
    outer loop
      vertex -12.6443 2.79162 -23.6733
      vertex -12.8789 2.39105 -23.6046
      vertex -34.2947 -8.77944 -42.7206
    endloop
  endfacet
  facet normal 0.707107 -0.5 -0.5
    outer loop
      vertex -12.8789 2.39105 -23.6046
      vertex -13.0296 1.98884 -23.4154
      vertex -34.2947 -8.77944 -42.7206
    endloop
  endfacet
  facet normal 0.707107 -0.5 -0.5
    outer loop
      vertex 13.1334 20.4888 -4.91542
      vertex 13.0815 20.1244 -4.62437
      vertex 11.5966 19.0744 -5.67437
    endloop
  endfacet
  facet normal 0.707107 -0.5 -0.5
    outer loop
      vertex 13.284 20.891 -5.10457
      vertex 13.1334 20.4888 -4.91542
      vertex 11.5966 19.0744 -5.67437
    endloop
  endfacet
  facet normal 0.707107 -0.5 -0.5
    outer loop
      vertex 13.1334 19.8333 -4.2599
      vertex 13.284 19.6442 -3.85769
      vertex 11.7211 18.3758 -4.79964
    endloop
  endfacet
  facet normal 0.707107 -0.5 -0.5
    outer loop
      vertex 13.284 19.6442 -3.85769
      vertex 13.5187 19.5754 -3.45712
      vertex 11.7211 18.3758 -4.79964
    endloop
  endfacet
  facet normal 0.707107 -0.5 -0.5
    outer loop
      vertex 13.5187 19.5754 -3.45712
      vertex 13.8144 19.6339 -3.09738
      vertex 11.7211 18.3758 -4.79964
    endloop
  endfacet
  facet normal 0.707107 -0.5 -0.5
    outer loop
      vertex 14.1421 19.8137 -2.81371
      vertex 14.4699 20.0974 -2.63386
      vertex 16.016 20.5175 -0.867524
    endloop
  endfacet
  facet normal 0.707107 -0.5 -0.5
    outer loop
      vertex 14.4699 20.0974 -2.63386
      vertex 14.7656 20.4571 -2.57544
      vertex 16.016 20.5175 -0.867524
    endloop
  endfacet
  facet normal 0.707107 -0.5 -0.5
    outer loop
      vertex 15.1509 21.9154 -3.48884
      vertex 15.0002 22.1046 -3.89105
      vertex 26.1213 33.9411 0
    endloop
  endfacet
  facet normal 0.707107 -0.5 -0.5
    outer loop
      vertex 26.1213 33.9411 0
      vertex 16.016 20.5175 -0.867524
      vertex 14.7656 20.4571 -2.57544
    endloop
  endfacet
  facet normal 0.707107 -0.5 -0.5
    outer loop
      vertex 26.1213 33.9411 0
      vertex 14.7656 20.4571 -2.57544
      vertex 15.0002 20.8577 -2.64417
    endloop
  endfacet
  facet normal 0.707107 -0.5 -0.5
    outer loop
      vertex 26.1213 33.9411 0
      vertex 15.0002 20.8577 -2.64417
      vertex 15.1509 21.2599 -2.83331
    endloop
  endfacet
  facet normal 0.707107 -0.5 -0.5
    outer loop
      vertex 26.1213 33.9411 0
      vertex 15.1509 21.2599 -2.83331
      vertex 15.2028 21.6244 -3.12437
    endloop
  endfacet
  facet normal 0.707107 -0.5 -0.5
    outer loop
      vertex 15.0002 22.1046 -3.89105
      vertex 14.7656 22.1733 -4.29162
      vertex 26.1213 33.9411 0
    endloop
  endfacet
  facet normal 0.707107 -0.5 -0.5
    outer loop
      vertex 26.1213 33.9411 0
      vertex 15.2028 21.6244 -3.12437
      vertex 15.1509 21.9154 -3.48884
    endloop
  endfacet
  facet normal 0.707107 -0.5 -0.5
    outer loop
      vertex 14.7656 22.1733 -4.29162
      vertex 14.4699 22.1149 -4.65135
      vertex 26.1213 33.9411 0
    endloop
  endfacet
  facet normal 0.707107 -0.5 -0.5
    outer loop
      vertex 13.8144 19.6339 -3.09738
      vertex 14.1421 19.8137 -2.81371
      vertex 16.016 20.5175 -0.867524
    endloop
  endfacet
  facet normal 0.707107 -0.5 -0.5
    outer loop
      vertex 13.8144 21.6514 -5.11488
      vertex 13.5187 21.2916 -5.1733
      vertex 11.7211 19.9491 -6.3729
    endloop
  endfacet
  facet normal 0.707107 -0.5 -0.5
    outer loop
      vertex 15.93 23.9064 -4.37789
      vertex 14.1421 21.935 -4.93503
      vertex 11.7211 19.9491 -6.3729
    endloop
  endfacet
  facet normal 0.707107 -0.5 -0.5
    outer loop
      vertex 26.1213 33.9411 0
      vertex 14.4699 22.1149 -4.65135
      vertex 14.1421 21.935 -4.93503
    endloop
  endfacet
  facet normal 0.707107 -0.5 -0.5
    outer loop
      vertex 14.1421 21.935 -4.93503
      vertex 13.8144 21.6514 -5.11488
      vertex 11.7211 19.9491 -6.3729
    endloop
  endfacet
  facet normal 0.707107 -0.5 -0.5
    outer loop
      vertex 13.284 20.891 -5.10457
      vertex 11.5966 19.0744 -5.67437
      vertex 13.5187 21.2916 -5.1733
    endloop
  endfacet
  facet normal 0.707107 -0.5 -0.5
    outer loop
      vertex 26.1213 33.9411 0
      vertex 15.93 23.9064 -4.37789
      vertex 11.7211 19.9491 -6.3729
    endloop
  endfacet
  facet normal 0.707107 -0.5 -0.5
    outer loop
      vertex 16.016 23.8812 -4.23121
      vertex 14.1421 21.935 -4.93503
      vertex 15.93 23.9064 -4.37789
    endloop
  endfacet
  facet normal 0.707107 -0.5 -0.5
    outer loop
      vertex 26.1213 33.9411 0
      vertex 14.1421 21.935 -4.93503
      vertex 16.016 23.8812 -4.23121
    endloop
  endfacet
  facet normal 0.707107 -0.5 -0.5
    outer loop
      vertex 26.1213 33.9411 0
      vertex 16.016 23.9671 -4.31714
      vertex 15.93 23.9064 -4.37789
    endloop
  endfacet
  facet normal 0.707107 -0.5 -0.5
    outer loop
      vertex 26.1213 33.9411 0
      vertex 16.016 23.8812 -4.23121
      vertex 16.016 23.9671 -4.31714
    endloop
  endfacet
  facet normal 0.707107 -0.5 -0.5
    outer loop
      vertex -13.8946 -0.632476 -22.0175
      vertex -13.8946 -22.0175 -0.632476
      vertex -21.8787 -33.9411 0
    endloop
  endfacet
  facet normal 0.707107 -0.5 -0.5
    outer loop
      vertex 15.6384 19.873 -0.756934
      vertex 14.9288 19.0096 -0.897144
      vertex 12.6459 17.7569 -2.87296
    endloop
  endfacet
  facet normal 0.707107 -0.5 -0.5
    outer loop
      vertex 12.6459 17.7569 -2.87296
      vertex 12.0827 17.9219 -3.83434
      vertex 15.6384 19.873 -0.756934
    endloop
  endfacet
  facet normal 0.707107 -0.5 -0.5
    outer loop
      vertex 12.3542 21.3779 -6.90638
      vertex -10.2329 5.40638 -22.8779
      vertex -34.2947 -8.77944 -42.7206
    endloop
  endfacet
  facet normal 0.707107 -0.5 -0.5
    outer loop
      vertex -13.8946 2.81714 -25.4671
      vertex -13.8946 2.73121 -25.3812
      vertex -34.2947 -8.77944 -42.7206
    endloop
  endfacet
  facet normal 0.707107 -0.5 -0.5
    outer loop
      vertex -12.6443 1.07544 -21.9571
      vertex -12.3486 1.13386 -21.5974
      vertex -11.2342 0.509605 -19.3971
    endloop
  endfacet
  facet normal 0.707107 -0.5 -0.5
    outer loop
      vertex -13.8946 2.73121 -25.3812
      vertex -9.59982 4.8729 -21.4491
      vertex -34.2947 -8.77944 -42.7206
    endloop
  endfacet
  facet normal 0.707107 -0.5 -0.5
    outer loop
      vertex -9.96139 5.32686 -22.4144
      vertex -9.59982 4.8729 -21.4491
      vertex -13.8946 2.73121 -25.3812
    endloop
  endfacet
  facet normal 1.57009e-16 0.707107 -0.707107
    outer loop
      vertex -36.416 -7.27944 -41.2206
      vertex 21.8787 33.9411 0
      vertex -34.2947 -8.77944 -42.7206
    endloop
  endfacet
  facet normal 1.57009e-16 0.707107 -0.707107
    outer loop
      vertex -34.2947 -8.77944 -42.7206
      vertex 21.8787 33.9411 0
      vertex 26.1213 33.9411 0
    endloop
  endfacet
  facet normal 0 0 1
    outer loop
      vertex 12.263 19.6576 0
      vertex 13.66 19.9067 0
      vertex 14.5679 20.6299 0
    endloop
  endfacet
  facet normal 0 0 1
    outer loop
      vertex 26.1213 33.9411 0
      vertex 12.263 19.6576 0
      vertex 14.7891 21.385 0
    endloop
  endfacet
  facet normal 0 0 1
    outer loop
      vertex 14.7891 21.385 0
      vertex 12.263 19.6576 0
      vertex 14.5679 20.6299 0
    endloop
  endfacet
  facet normal 0 0 1
    outer loop
      vertex 16.016 19.65 0
      vertex 26.1213 33.9411 0
      vertex 14.7891 21.385 0
    endloop
  endfacet
  facet normal 0 0 1
    outer loop
      vertex 26.1213 33.9411 0
      vertex 21.8787 33.9411 0
      vertex 12.263 19.6576 0
    endloop
  endfacet
  facet normal 0 0 1
    outer loop
      vertex 21.8787 33.9411 0
      vertex 11.823 19.7202 0
      vertex 12.263 19.6576 0
    endloop
  endfacet
  facet normal -0.110616 -0.776619 0.620184
    outer loop
      vertex 11.823 19.7202 0
      vertex 11.2342 19.3971 -0.509605
      vertex 13.3555 17.8971 -2.0096
    endloop
  endfacet
  facet normal -0.110616 -0.776619 0.620184
    outer loop
      vertex 12.263 19.6576 0
      vertex 11.823 19.7202 0
      vertex 14.1421 18.3288 -1.32878
    endloop
  endfacet
  facet normal -0.110616 -0.776619 0.620184
    outer loop
      vertex 14.1421 18.3288 -1.32878
      vertex 11.823 19.7202 0
      vertex 13.3555 17.8971 -2.0096
    endloop
  endfacet
  facet normal -0.32102 -0.857032 0.403042
    outer loop
      vertex 11.2342 19.3971 -0.509605
      vertex 10.5246 19.2569 -1.37296
      vertex 12.6459 17.7569 -2.87296
    endloop
  endfacet
  facet normal -0.32102 -0.857032 0.403042
    outer loop
      vertex 13.3555 17.8971 -2.0096
      vertex 11.2342 19.3971 -0.509605
      vertex 12.6459 17.7569 -2.87296
    endloop
  endfacet
  facet normal -0.5 -0.853553 0.146447
    outer loop
      vertex 10.5246 19.2569 -1.37296
      vertex 9.96139 19.4219 -2.33434
      vertex 12.0827 17.9219 -3.83434
    endloop
  endfacet
  facet normal -0.5 -0.853553 0.146447
    outer loop
      vertex 12.6459 17.7569 -2.87296
      vertex 10.5246 19.2569 -1.37296
      vertex 12.0827 17.9219 -3.83434
    endloop
  endfacet
  facet normal -0.630037 -0.766523 -0.124484
    outer loop
      vertex 9.96139 19.4219 -2.33434
      vertex 9.59982 19.8758 -3.29964
      vertex 11.7211 18.3758 -4.79964
    endloop
  endfacet
  facet normal -0.630037 -0.766523 -0.124484
    outer loop
      vertex 12.0827 17.9219 -3.83434
      vertex 9.96139 19.4219 -2.33434
      vertex 11.7211 18.3758 -4.79964
    endloop
  endfacet
  facet normal -0.698401 -0.60446 -0.383228
    outer loop
      vertex 9.47523 20.5744 -4.17437
      vertex 11.5966 19.0744 -5.67437
      vertex 9.59982 19.8758 -3.29964
    endloop
  endfacet
  facet normal -0.698401 -0.60446 -0.383228
    outer loop
      vertex 9.59982 19.8758 -3.29964
      vertex 11.5966 19.0744 -5.67437
      vertex 11.7211 18.3758 -4.79964
    endloop
  endfacet
  facet normal -0.698401 -0.383228 -0.60446
    outer loop
      vertex 9.47523 20.5744 -4.17437
      vertex 9.59982 21.4491 -4.8729
      vertex 11.5966 19.0744 -5.67437
    endloop
  endfacet
  facet normal -0.698401 -0.383228 -0.60446
    outer loop
      vertex 11.5966 19.0744 -5.67437
      vertex 9.59982 21.4491 -4.8729
      vertex 11.7211 19.9491 -6.3729
    endloop
  endfacet
  facet normal -0.630037 -0.124484 -0.766523
    outer loop
      vertex 9.59982 21.4491 -4.8729
      vertex 9.96139 22.4144 -5.32686
      vertex 11.7211 19.9491 -6.3729
    endloop
  endfacet
  facet normal -0.630037 -0.124484 -0.766523
    outer loop
      vertex 11.7211 19.9491 -6.3729
      vertex 9.96139 22.4144 -5.32686
      vertex 12.0827 20.9144 -6.82686
    endloop
  endfacet
  facet normal -0.5 0.146447 -0.853553
    outer loop
      vertex 9.96139 22.4144 -5.32686
      vertex 10.2329 22.8779 -5.40638
      vertex 12.0827 20.9144 -6.82686
    endloop
  endfacet
  facet normal -0.5 0.146447 -0.853553
    outer loop
      vertex 12.0827 20.9144 -6.82686
      vertex 10.2329 22.8779 -5.40638
      vertex 12.3542 21.3779 -6.90638
    endloop
  endfacet
  facet normal -1.57009e-16 -0.707107 0.707107
    outer loop
      vertex -10.2329 5.40638 -22.8779
      vertex 12.3542 21.3779 -6.90638
      vertex 10.2329 22.8779 -5.40638
    endloop
  endfacet
  facet normal -1.57009e-16 -0.707107 0.707107
    outer loop
      vertex -12.3542 6.90638 -21.3779
      vertex -10.2329 5.40638 -22.8779
      vertex 10.2329 22.8779 -5.40638
    endloop
  endfacet
  facet normal 0.5 0.853553 -0.146447
    outer loop
      vertex -12.3542 6.90638 -21.3779
      vertex -12.0827 6.82686 -20.9144
      vertex -10.2329 5.40638 -22.8779
    endloop
  endfacet
  facet normal 0.5 0.853553 -0.146447
    outer loop
      vertex -10.2329 5.40638 -22.8779
      vertex -12.0827 6.82686 -20.9144
      vertex -9.96139 5.32686 -22.4144
    endloop
  endfacet
  facet normal 0.630037 0.766523 0.124484
    outer loop
      vertex -12.0827 6.82686 -20.9144
      vertex -11.7211 6.3729 -19.9491
      vertex -9.96139 5.32686 -22.4144
    endloop
  endfacet
  facet normal 0.630037 0.766523 0.124484
    outer loop
      vertex -9.96139 5.32686 -22.4144
      vertex -11.7211 6.3729 -19.9491
      vertex -9.59982 4.8729 -21.4491
    endloop
  endfacet
  facet normal 0.698401 0.60446 0.383228
    outer loop
      vertex -9.59982 4.8729 -21.4491
      vertex -11.7211 6.3729 -19.9491
      vertex -11.5966 5.67437 -19.0744
    endloop
  endfacet
  facet normal 0.698401 0.60446 0.383228
    outer loop
      vertex -9.47523 4.17437 -20.5744
      vertex -9.59982 4.8729 -21.4491
      vertex -11.5966 5.67437 -19.0744
    endloop
  endfacet
  facet normal 0.698401 0.383228 0.60446
    outer loop
      vertex -11.5966 5.67437 -19.0744
      vertex -11.7211 4.79964 -18.3758
      vertex -9.59982 3.29964 -19.8758
    endloop
  endfacet
  facet normal 0.698401 0.383228 0.60446
    outer loop
      vertex -9.47523 4.17437 -20.5744
      vertex -11.5966 5.67437 -19.0744
      vertex -9.59982 3.29964 -19.8758
    endloop
  endfacet
  facet normal 0.630037 0.124484 0.766523
    outer loop
      vertex -11.7211 4.79964 -18.3758
      vertex -12.0827 3.83434 -17.9219
      vertex -9.96139 2.33434 -19.4219
    endloop
  endfacet
  facet normal 0.630037 0.124484 0.766523
    outer loop
      vertex -9.59982 3.29964 -19.8758
      vertex -11.7211 4.79964 -18.3758
      vertex -9.96139 2.33434 -19.4219
    endloop
  endfacet
  facet normal 0.5 -0.146447 0.853553
    outer loop
      vertex -12.0827 3.83434 -17.9219
      vertex -12.6459 2.87296 -17.7569
      vertex -10.5246 1.37296 -19.2569
    endloop
  endfacet
  facet normal 0.5 -0.146447 0.853553
    outer loop
      vertex -9.96139 2.33434 -19.4219
      vertex -12.0827 3.83434 -17.9219
      vertex -10.5246 1.37296 -19.2569
    endloop
  endfacet
  facet normal 0.32102 -0.403042 0.857032
    outer loop
      vertex -12.6459 2.87296 -17.7569
      vertex -13.3555 2.0096 -17.8971
      vertex -11.2342 0.509605 -19.3971
    endloop
  endfacet
  facet normal 0.32102 -0.403042 0.857032
    outer loop
      vertex -10.5246 1.37296 -19.2569
      vertex -12.6459 2.87296 -17.7569
      vertex -11.2342 0.509605 -19.3971
    endloop
  endfacet
  facet normal 0.110616 -0.620184 0.776619
    outer loop
      vertex -13.3555 2.0096 -17.8971
      vertex -14.1421 1.32878 -18.3288
      vertex -12.0208 -0.171216 -19.8288
    endloop
  endfacet
  facet normal 0.110616 -0.620184 0.776619
    outer loop
      vertex -11.2342 0.509605 -19.3971
      vertex -13.3555 2.0096 -17.8971
      vertex -12.0208 -0.171216 -19.8288
    endloop
  endfacet
  facet normal -0.110616 -0.776619 0.620184
    outer loop
      vertex -14.1421 1.32878 -18.3288
      vertex -14.9288 0.897144 -19.0096
      vertex -12.8074 -0.602856 -20.5096
    endloop
  endfacet
  facet normal -0.110616 -0.776619 0.620184
    outer loop
      vertex -12.0208 -0.171216 -19.8288
      vertex -14.1421 1.32878 -18.3288
      vertex -12.8074 -0.602856 -20.5096
    endloop
  endfacet
  facet normal -0.32102 -0.857032 0.403042
    outer loop
      vertex -14.9288 0.897144 -19.0096
      vertex -15.6384 0.756934 -19.873
      vertex -13.5171 -0.743066 -21.373
    endloop
  endfacet
  facet normal -0.32102 -0.857032 0.403042
    outer loop
      vertex -12.8074 -0.602856 -20.5096
      vertex -14.9288 0.897144 -19.0096
      vertex -13.5171 -0.743066 -21.373
    endloop
  endfacet
  facet normal -0.5 -0.853553 0.146447
    outer loop
      vertex -15.6384 0.756934 -19.873
      vertex -16.016 0.867524 -20.5175
      vertex -13.8946 -0.632476 -22.0175
    endloop
  endfacet
  facet normal -0.5 -0.853553 0.146447
    outer loop
      vertex -13.5171 -0.743066 -21.373
      vertex -15.6384 0.756934 -19.873
      vertex -13.8946 -0.632476 -22.0175
    endloop
  endfacet
  facet normal 0.707107 0.5 0.5
    outer loop
      vertex -14.7891 -21.385 0
      vertex -13.8946 -22.0175 -0.632476
      vertex -13.8946 -0.632476 -22.0175
    endloop
  endfacet
  facet normal 0.707107 0.5 0.5
    outer loop
      vertex -16.016 -19.65 0
      vertex -14.7891 -21.385 0
      vertex -16.016 0.867524 -20.5175
    endloop
  endfacet
  facet normal 0.707107 0.5 0.5
    outer loop
      vertex -16.016 0.867524 -20.5175
      vertex -14.7891 -21.385 0
      vertex -13.8946 -0.632476 -22.0175
    endloop
  endfacet
  facet normal -0.5 0.146447 -0.853553
    outer loop
      vertex -16.016 4.23121 -23.8812
      vertex -15.93 4.37789 -23.9064
      vertex -13.8946 2.73121 -25.3812
    endloop
  endfacet
  facet normal -0.5 0.146447 -0.853553
    outer loop
      vertex -13.8946 2.73121 -25.3812
      vertex -15.93 4.37789 -23.9064
      vertex -13.8087 2.87789 -25.4064
    endloop
  endfacet
  facet normal 0.707107 0.5 0.5
    outer loop
      vertex -13.8946 2.73121 -25.3812
      vertex -13.8946 2.81714 -25.4671
      vertex -16.016 4.31714 -23.9671
    endloop
  endfacet
  facet normal 0.707107 0.5 0.5
    outer loop
      vertex -16.016 4.23121 -23.8812
      vertex -13.8946 2.73121 -25.3812
      vertex -16.016 4.31714 -23.9671
    endloop
  endfacet
  facet normal -1.57009e-16 -0.707107 0.707107
    outer loop
      vertex -13.8946 2.81714 -25.4671
      vertex -13.8087 2.87789 -25.4064
      vertex -15.93 4.37789 -23.9064
    endloop
  endfacet
  facet normal -1.57009e-16 -0.707107 0.707107
    outer loop
      vertex -16.016 4.31714 -23.9671
      vertex -13.8946 2.81714 -25.4671
      vertex -15.93 4.37789 -23.9064
    endloop
  endfacet
  facet normal 0.630037 0.766523 0.124483
    outer loop
      vertex -12.8789 1.14417 -22.3577
      vertex -13.0296 1.33331 -22.7599
      vertex -15.0002 2.64417 -20.8577
    endloop
  endfacet
  facet normal 0.630037 0.766523 0.124483
    outer loop
      vertex -15.0002 2.64417 -20.8577
      vertex -13.0296 1.33331 -22.7599
      vertex -15.1509 2.83331 -21.2599
    endloop
  endfacet
  facet normal 0.698401 0.60446 0.383229
    outer loop
      vertex -15.1509 2.83331 -21.2599
      vertex -13.0296 1.33331 -22.7599
      vertex -13.0815 1.62437 -23.1244
    endloop
  endfacet
  facet normal 0.698401 0.60446 0.383229
    outer loop
      vertex -15.2028 3.12437 -21.6244
      vertex -15.1509 2.83331 -21.2599
      vertex -13.0815 1.62437 -23.1244
    endloop
  endfacet
  facet normal 0.5 0.853553 -0.146447
    outer loop
      vertex -12.6443 1.07544 -21.9571
      vertex -12.8789 1.14417 -22.3577
      vertex -14.7656 2.57544 -20.4571
    endloop
  endfacet
  facet normal 0.5 0.853553 -0.146447
    outer loop
      vertex -14.7656 2.57544 -20.4571
      vertex -12.8789 1.14417 -22.3577
      vertex -15.0002 2.64417 -20.8577
    endloop
  endfacet
  facet normal 0.32102 0.857032 -0.403041
    outer loop
      vertex -12.3486 1.13386 -21.5974
      vertex -12.6443 1.07544 -21.9571
      vertex -14.4699 2.63386 -20.0974
    endloop
  endfacet
  facet normal 0.32102 0.857032 -0.403041
    outer loop
      vertex -14.4699 2.63386 -20.0974
      vertex -12.6443 1.07544 -21.9571
      vertex -14.7656 2.57544 -20.4571
    endloop
  endfacet
  facet normal 0.110616 0.776618 -0.620184
    outer loop
      vertex -12.0208 1.31371 -21.3137
      vertex -12.3486 1.13386 -21.5974
      vertex -14.1421 2.81371 -19.8137
    endloop
  endfacet
  facet normal 0.110616 0.776618 -0.620184
    outer loop
      vertex -14.1421 2.81371 -19.8137
      vertex -12.3486 1.13386 -21.5974
      vertex -14.4699 2.63386 -20.0974
    endloop
  endfacet
  facet normal -0.110616 0.620184 -0.776618
    outer loop
      vertex -11.6931 1.59738 -21.1339
      vertex -12.0208 1.31371 -21.3137
      vertex -13.8144 3.09738 -19.6339
    endloop
  endfacet
  facet normal -0.110616 0.620184 -0.776618
    outer loop
      vertex -13.8144 3.09738 -19.6339
      vertex -12.0208 1.31371 -21.3137
      vertex -14.1421 2.81371 -19.8137
    endloop
  endfacet
  facet normal -0.32102 0.403041 -0.857032
    outer loop
      vertex -11.3974 1.95712 -21.0754
      vertex -11.6931 1.59738 -21.1339
      vertex -13.5187 3.45712 -19.5754
    endloop
  endfacet
  facet normal -0.32102 0.403041 -0.857032
    outer loop
      vertex -13.5187 3.45712 -19.5754
      vertex -11.6931 1.59738 -21.1339
      vertex -13.8144 3.09738 -19.6339
    endloop
  endfacet
  facet normal -0.5 0.146447 -0.853553
    outer loop
      vertex -11.1627 2.35769 -21.1442
      vertex -11.3974 1.95712 -21.0754
      vertex -13.284 3.85769 -19.6442
    endloop
  endfacet
  facet normal -0.5 0.146447 -0.853553
    outer loop
      vertex -13.284 3.85769 -19.6442
      vertex -11.3974 1.95712 -21.0754
      vertex -13.5187 3.45712 -19.5754
    endloop
  endfacet
  facet normal -0.630037 -0.124483 -0.766523
    outer loop
      vertex -11.0121 2.7599 -21.3333
      vertex -11.1627 2.35769 -21.1442
      vertex -13.1334 4.2599 -19.8333
    endloop
  endfacet
  facet normal -0.630037 -0.124483 -0.766523
    outer loop
      vertex -13.1334 4.2599 -19.8333
      vertex -11.1627 2.35769 -21.1442
      vertex -13.284 3.85769 -19.6442
    endloop
  endfacet
  facet normal -0.698401 -0.383229 -0.60446
    outer loop
      vertex -10.9602 3.12437 -21.6244
      vertex -11.0121 2.7599 -21.3333
      vertex -13.0815 4.62437 -20.1244
    endloop
  endfacet
  facet normal -0.698401 -0.383229 -0.60446
    outer loop
      vertex -13.0815 4.62437 -20.1244
      vertex -11.0121 2.7599 -21.3333
      vertex -13.1334 4.2599 -19.8333
    endloop
  endfacet
  facet normal -0.698401 -0.60446 -0.383229
    outer loop
      vertex -10.9602 3.12437 -21.6244
      vertex -13.0815 4.62437 -20.1244
      vertex -11.0121 3.41542 -21.9888
    endloop
  endfacet
  facet normal -0.698401 -0.60446 -0.383229
    outer loop
      vertex -11.0121 3.41542 -21.9888
      vertex -13.0815 4.62437 -20.1244
      vertex -13.1334 4.91542 -20.4888
    endloop
  endfacet
  facet normal -0.630037 -0.766523 -0.124483
    outer loop
      vertex -11.1627 3.60457 -22.391
      vertex -11.0121 3.41542 -21.9888
      vertex -13.1334 4.91542 -20.4888
    endloop
  endfacet
  facet normal -0.630037 -0.766523 -0.124483
    outer loop
      vertex -13.284 5.10457 -20.891
      vertex -11.1627 3.60457 -22.391
      vertex -13.1334 4.91542 -20.4888
    endloop
  endfacet
  facet normal -0.5 -0.853553 0.146447
    outer loop
      vertex -11.3974 3.6733 -22.7916
      vertex -11.1627 3.60457 -22.391
      vertex -13.284 5.10457 -20.891
    endloop
  endfacet
  facet normal -0.5 -0.853553 0.146447
    outer loop
      vertex -13.5187 5.1733 -21.2916
      vertex -11.3974 3.6733 -22.7916
      vertex -13.284 5.10457 -20.891
    endloop
  endfacet
  facet normal -0.32102 -0.857032 0.403041
    outer loop
      vertex -11.6931 3.61488 -23.1514
      vertex -11.3974 3.6733 -22.7916
      vertex -13.5187 5.1733 -21.2916
    endloop
  endfacet
  facet normal -0.32102 -0.857032 0.403041
    outer loop
      vertex -13.8144 5.11488 -21.6514
      vertex -11.6931 3.61488 -23.1514
      vertex -13.5187 5.1733 -21.2916
    endloop
  endfacet
  facet normal -0.110616 -0.776618 0.620184
    outer loop
      vertex -12.0208 3.43503 -23.435
      vertex -11.6931 3.61488 -23.1514
      vertex -13.8144 5.11488 -21.6514
    endloop
  endfacet
  facet normal -0.110616 -0.776618 0.620184
    outer loop
      vertex -14.1421 4.93503 -21.935
      vertex -12.0208 3.43503 -23.435
      vertex -13.8144 5.11488 -21.6514
    endloop
  endfacet
  facet normal 0.110616 -0.620184 0.776618
    outer loop
      vertex -12.3486 3.15135 -23.6149
      vertex -12.0208 3.43503 -23.435
      vertex -14.1421 4.93503 -21.935
    endloop
  endfacet
  facet normal 0.110616 -0.620184 0.776618
    outer loop
      vertex -14.4699 4.65135 -22.1149
      vertex -12.3486 3.15135 -23.6149
      vertex -14.1421 4.93503 -21.935
    endloop
  endfacet
  facet normal 0.32102 -0.403041 0.857032
    outer loop
      vertex -12.6443 2.79162 -23.6733
      vertex -12.3486 3.15135 -23.6149
      vertex -14.4699 4.65135 -22.1149
    endloop
  endfacet
  facet normal 0.32102 -0.403041 0.857032
    outer loop
      vertex -14.7656 4.29162 -22.1733
      vertex -12.6443 2.79162 -23.6733
      vertex -14.4699 4.65135 -22.1149
    endloop
  endfacet
  facet normal 0.5 -0.146447 0.853553
    outer loop
      vertex -12.8789 2.39105 -23.6046
      vertex -12.6443 2.79162 -23.6733
      vertex -14.7656 4.29162 -22.1733
    endloop
  endfacet
  facet normal 0.5 -0.146447 0.853553
    outer loop
      vertex -15.0002 3.89105 -22.1046
      vertex -12.8789 2.39105 -23.6046
      vertex -14.7656 4.29162 -22.1733
    endloop
  endfacet
  facet normal 0.630037 0.124483 0.766523
    outer loop
      vertex -13.0296 1.98884 -23.4154
      vertex -12.8789 2.39105 -23.6046
      vertex -15.0002 3.89105 -22.1046
    endloop
  endfacet
  facet normal 0.630037 0.124483 0.766523
    outer loop
      vertex -15.1509 3.48884 -21.9154
      vertex -13.0296 1.98884 -23.4154
      vertex -15.0002 3.89105 -22.1046
    endloop
  endfacet
  facet normal 0.698401 0.383229 0.60446
    outer loop
      vertex -13.0815 1.62437 -23.1244
      vertex -13.0296 1.98884 -23.4154
      vertex -15.1509 3.48884 -21.9154
    endloop
  endfacet
  facet normal 0.698401 0.383229 0.60446
    outer loop
      vertex -15.2028 3.12437 -21.6244
      vertex -13.0815 1.62437 -23.1244
      vertex -15.1509 3.48884 -21.9154
    endloop
  endfacet
  facet normal 0.630037 0.766523 0.124483
    outer loop
      vertex 13.284 19.6442 -3.85769
      vertex 13.1334 19.8333 -4.2599
      vertex 11.1627 21.1442 -2.35769
    endloop
  endfacet
  facet normal 0.630037 0.766523 0.124483
    outer loop
      vertex 11.1627 21.1442 -2.35769
      vertex 13.1334 19.8333 -4.2599
      vertex 11.0121 21.3333 -2.7599
    endloop
  endfacet
  facet normal 0.698401 0.60446 0.383229
    outer loop
      vertex 11.0121 21.3333 -2.7599
      vertex 13.1334 19.8333 -4.2599
      vertex 13.0815 20.1244 -4.62437
    endloop
  endfacet
  facet normal 0.698401 0.60446 0.383229
    outer loop
      vertex 10.9602 21.6244 -3.12437
      vertex 11.0121 21.3333 -2.7599
      vertex 13.0815 20.1244 -4.62437
    endloop
  endfacet
  facet normal 0.5 0.853553 -0.146447
    outer loop
      vertex 13.5187 19.5754 -3.45712
      vertex 13.284 19.6442 -3.85769
      vertex 11.3974 21.0754 -1.95712
    endloop
  endfacet
  facet normal 0.5 0.853553 -0.146447
    outer loop
      vertex 11.3974 21.0754 -1.95712
      vertex 13.284 19.6442 -3.85769
      vertex 11.1627 21.1442 -2.35769
    endloop
  endfacet
  facet normal 0.32102 0.857032 -0.403041
    outer loop
      vertex 13.8144 19.6339 -3.09738
      vertex 13.5187 19.5754 -3.45712
      vertex 11.6931 21.1339 -1.59738
    endloop
  endfacet
  facet normal 0.32102 0.857032 -0.403041
    outer loop
      vertex 11.6931 21.1339 -1.59738
      vertex 13.5187 19.5754 -3.45712
      vertex 11.3974 21.0754 -1.95712
    endloop
  endfacet
  facet normal 0.110616 0.776618 -0.620184
    outer loop
      vertex 14.1421 19.8137 -2.81371
      vertex 13.8144 19.6339 -3.09738
      vertex 12.0208 21.3137 -1.31371
    endloop
  endfacet
  facet normal 0.110616 0.776618 -0.620184
    outer loop
      vertex 12.0208 21.3137 -1.31371
      vertex 13.8144 19.6339 -3.09738
      vertex 11.6931 21.1339 -1.59738
    endloop
  endfacet
  facet normal -0.110616 0.620184 -0.776618
    outer loop
      vertex 14.4699 20.0974 -2.63386
      vertex 14.1421 19.8137 -2.81371
      vertex 12.3486 21.5974 -1.13386
    endloop
  endfacet
  facet normal -0.110616 0.620184 -0.776618
    outer loop
      vertex 12.3486 21.5974 -1.13386
      vertex 14.1421 19.8137 -2.81371
      vertex 12.0208 21.3137 -1.31371
    endloop
  endfacet
  facet normal -0.32102 0.403041 -0.857032
    outer loop
      vertex 14.7656 20.4571 -2.57544
      vertex 14.4699 20.0974 -2.63386
      vertex 12.6443 21.9571 -1.07544
    endloop
  endfacet
  facet normal -0.32102 0.403041 -0.857032
    outer loop
      vertex 12.6443 21.9571 -1.07544
      vertex 14.4699 20.0974 -2.63386
      vertex 12.3486 21.5974 -1.13386
    endloop
  endfacet
  facet normal -0.5 0.146447 -0.853553
    outer loop
      vertex 15.0002 20.8577 -2.64417
      vertex 14.7656 20.4571 -2.57544
      vertex 12.8789 22.3577 -1.14417
    endloop
  endfacet
  facet normal -0.5 0.146447 -0.853553
    outer loop
      vertex 12.8789 22.3577 -1.14417
      vertex 14.7656 20.4571 -2.57544
      vertex 12.6443 21.9571 -1.07544
    endloop
  endfacet
  facet normal -0.630037 -0.124483 -0.766523
    outer loop
      vertex 15.1509 21.2599 -2.83331
      vertex 15.0002 20.8577 -2.64417
      vertex 13.0296 22.7599 -1.33331
    endloop
  endfacet
  facet normal -0.630037 -0.124483 -0.766523
    outer loop
      vertex 13.0296 22.7599 -1.33331
      vertex 15.0002 20.8577 -2.64417
      vertex 12.8789 22.3577 -1.14417
    endloop
  endfacet
  facet normal -0.698401 -0.383229 -0.60446
    outer loop
      vertex 15.2028 21.6244 -3.12437
      vertex 15.1509 21.2599 -2.83331
      vertex 13.0815 23.1244 -1.62437
    endloop
  endfacet
  facet normal -0.698401 -0.383229 -0.60446
    outer loop
      vertex 13.0815 23.1244 -1.62437
      vertex 15.1509 21.2599 -2.83331
      vertex 13.0296 22.7599 -1.33331
    endloop
  endfacet
  facet normal -0.698401 -0.60446 -0.383229
    outer loop
      vertex 15.2028 21.6244 -3.12437
      vertex 13.0815 23.1244 -1.62437
      vertex 15.1509 21.9154 -3.48884
    endloop
  endfacet
  facet normal -0.698401 -0.60446 -0.383229
    outer loop
      vertex 15.1509 21.9154 -3.48884
      vertex 13.0815 23.1244 -1.62437
      vertex 13.0296 23.4154 -1.98884
    endloop
  endfacet
  facet normal -0.630037 -0.766523 -0.124483
    outer loop
      vertex 15.0002 22.1046 -3.89105
      vertex 15.1509 21.9154 -3.48884
      vertex 13.0296 23.4154 -1.98884
    endloop
  endfacet
  facet normal -0.630037 -0.766523 -0.124483
    outer loop
      vertex 12.8789 23.6046 -2.39105
      vertex 15.0002 22.1046 -3.89105
      vertex 13.0296 23.4154 -1.98884
    endloop
  endfacet
  facet normal -0.5 -0.853553 0.146447
    outer loop
      vertex 14.7656 22.1733 -4.29162
      vertex 15.0002 22.1046 -3.89105
      vertex 12.8789 23.6046 -2.39105
    endloop
  endfacet
  facet normal -0.5 -0.853553 0.146447
    outer loop
      vertex 12.6443 23.6733 -2.79162
      vertex 14.7656 22.1733 -4.29162
      vertex 12.8789 23.6046 -2.39105
    endloop
  endfacet
  facet normal -0.32102 -0.857032 0.403041
    outer loop
      vertex 14.4699 22.1149 -4.65135
      vertex 14.7656 22.1733 -4.29162
      vertex 12.6443 23.6733 -2.79162
    endloop
  endfacet
  facet normal -0.32102 -0.857032 0.403041
    outer loop
      vertex 12.3486 23.6149 -3.15135
      vertex 14.4699 22.1149 -4.65135
      vertex 12.6443 23.6733 -2.79162
    endloop
  endfacet
  facet normal -0.110616 -0.776618 0.620184
    outer loop
      vertex 14.1421 21.935 -4.93503
      vertex 14.4699 22.1149 -4.65135
      vertex 12.3486 23.6149 -3.15135
    endloop
  endfacet
  facet normal -0.110616 -0.776618 0.620184
    outer loop
      vertex 12.0208 23.435 -3.43503
      vertex 14.1421 21.935 -4.93503
      vertex 12.3486 23.6149 -3.15135
    endloop
  endfacet
  facet normal 0.110616 -0.620184 0.776618
    outer loop
      vertex 13.8144 21.6514 -5.11488
      vertex 14.1421 21.935 -4.93503
      vertex 12.0208 23.435 -3.43503
    endloop
  endfacet
  facet normal 0.110616 -0.620184 0.776618
    outer loop
      vertex 11.6931 23.1514 -3.61488
      vertex 13.8144 21.6514 -5.11488
      vertex 12.0208 23.435 -3.43503
    endloop
  endfacet
  facet normal 0.32102 -0.403041 0.857032
    outer loop
      vertex 13.5187 21.2916 -5.1733
      vertex 13.8144 21.6514 -5.11488
      vertex 11.6931 23.1514 -3.61488
    endloop
  endfacet
  facet normal 0.32102 -0.403041 0.857032
    outer loop
      vertex 11.3974 22.7916 -3.6733
      vertex 13.5187 21.2916 -5.1733
      vertex 11.6931 23.1514 -3.61488
    endloop
  endfacet
  facet normal 0.5 -0.146447 0.853553
    outer loop
      vertex 13.284 20.891 -5.10457
      vertex 13.5187 21.2916 -5.1733
      vertex 11.3974 22.7916 -3.6733
    endloop
  endfacet
  facet normal 0.5 -0.146447 0.853553
    outer loop
      vertex 11.1627 22.391 -3.60457
      vertex 13.284 20.891 -5.10457
      vertex 11.3974 22.7916 -3.6733
    endloop
  endfacet
  facet normal 0.630037 0.124483 0.766523
    outer loop
      vertex 13.1334 20.4888 -4.91542
      vertex 13.284 20.891 -5.10457
      vertex 11.1627 22.391 -3.60457
    endloop
  endfacet
  facet normal 0.630037 0.124483 0.766523
    outer loop
      vertex 11.0121 21.9888 -3.41542
      vertex 13.1334 20.4888 -4.91542
      vertex 11.1627 22.391 -3.60457
    endloop
  endfacet
  facet normal 0.698401 0.383229 0.60446
    outer loop
      vertex 13.0815 20.1244 -4.62437
      vertex 13.1334 20.4888 -4.91542
      vertex 11.0121 21.9888 -3.41542
    endloop
  endfacet
  facet normal 0.698401 0.383229 0.60446
    outer loop
      vertex 10.9602 21.6244 -3.12437
      vertex 13.0815 20.1244 -4.62437
      vertex 11.0121 21.9888 -3.41542
    endloop
  endfacet
  facet normal -0.707107 -0.5 -0.5
    outer loop
      vertex 16.016 23.9671 -4.31714
      vertex 16.016 23.8812 -4.23121
      vertex 13.8946 25.4671 -2.81714
    endloop
  endfacet
  facet normal -0.707107 -0.5 -0.5
    outer loop
      vertex 13.8946 25.4671 -2.81714
      vertex 16.016 23.8812 -4.23121
      vertex 13.8946 25.3812 -2.73121
    endloop
  endfacet
  facet normal 0.5 0.853553 -0.146447
    outer loop
      vertex 13.8087 25.4064 -2.87789
      vertex 13.8946 25.3812 -2.73121
      vertex 15.93 23.9064 -4.37789
    endloop
  endfacet
  facet normal 0.5 0.853553 -0.146447
    outer loop
      vertex 15.93 23.9064 -4.37789
      vertex 13.8946 25.3812 -2.73121
      vertex 16.016 23.8812 -4.23121
    endloop
  endfacet
  facet normal -1.57009e-16 -0.707107 0.707107
    outer loop
      vertex 15.93 23.9064 -4.37789
      vertex 16.016 23.9671 -4.31714
      vertex 13.8946 25.4671 -2.81714
    endloop
  endfacet
  facet normal -1.57009e-16 -0.707107 0.707107
    outer loop
      vertex 13.8087 25.4064 -2.87789
      vertex 15.93 23.9064 -4.37789
      vertex 13.8946 25.4671 -2.81714
    endloop
  endfacet
  facet normal -0.5 0.146447 -0.853553
    outer loop
      vertex -14.7891 -21.385 0
      vertex -14.5679 -20.6299 0
      vertex -13.8946 -22.0175 -0.632476
    endloop
  endfacet
  facet normal -0.5 0.146447 -0.853553
    outer loop
      vertex -13.8946 -22.0175 -0.632476
      vertex -14.5679 -20.6299 0
      vertex -13.5171 -21.373 -0.743066
    endloop
  endfacet
  facet normal -0.32102 0.403042 -0.857032
    outer loop
      vertex -14.5679 -20.6299 0
      vertex -13.66 -19.9067 0
      vertex -13.5171 -21.373 -0.743066
    endloop
  endfacet
  facet normal -0.32102 0.403042 -0.857032
    outer loop
      vertex -13.5171 -21.373 -0.743066
      vertex -13.66 -19.9067 0
      vertex -12.8074 -20.5096 -0.602856
    endloop
  endfacet
  facet normal -0.110616 0.620184 -0.776619
    outer loop
      vertex -13.66 -19.9067 0
      vertex -12.263 -19.6576 0
      vertex -12.8074 -20.5096 -0.602856
    endloop
  endfacet
  facet normal -0.110616 0.620184 -0.776619
    outer loop
      vertex -12.8074 -20.5096 -0.602856
      vertex -12.263 -19.6576 0
      vertex -12.0208 -19.8288 -0.171216
    endloop
  endfacet
  facet normal 0.110616 0.776619 -0.620184
    outer loop
      vertex -12.0208 -19.8288 -0.171216
      vertex -12.263 -19.6576 0
      vertex -11.823 -19.7202 0
    endloop
  endfacet
  facet normal 0.110616 -0.620184 0.776619
    outer loop
      vertex 13.66 19.9067 0
      vertex 12.263 19.6576 0
      vertex 14.1421 18.3288 -1.32878
    endloop
  endfacet
  facet normal 0.110616 -0.620184 0.776619
    outer loop
      vertex 14.9288 19.0096 -0.897144
      vertex 13.66 19.9067 0
      vertex 14.1421 18.3288 -1.32878
    endloop
  endfacet
  facet normal 0.32102 -0.403042 0.857032
    outer loop
      vertex 14.5679 20.6299 0
      vertex 13.66 19.9067 0
      vertex 14.9288 19.0096 -0.897144
    endloop
  endfacet
  facet normal 0.32102 -0.403042 0.857032
    outer loop
      vertex 15.6384 19.873 -0.756934
      vertex 14.5679 20.6299 0
      vertex 14.9288 19.0096 -0.897144
    endloop
  endfacet
  facet normal 0.5 -0.146447 0.853553
    outer loop
      vertex 14.7891 21.385 0
      vertex 14.5679 20.6299 0
      vertex 15.6384 19.873 -0.756934
    endloop
  endfacet
  facet normal 0.5 -0.146447 0.853553
    outer loop
      vertex 16.016 20.5175 -0.867524
      vertex 14.7891 21.385 0
      vertex 15.6384 19.873 -0.756934
    endloop
  endfacet
  facet normal -0.707107 -0.5 -0.5
    outer loop
      vertex 16.016 20.5175 -0.867524
      vertex 16.016 19.65 0
      vertex 14.7891 21.385 0
    endloop
  endfacet
endsolid OpenSCAD_Model
