%
M48
M72
T01C0.0236
T02C0.0315
T03C0.0400
T04C0.1260
%
T01
X2376Y2751
X3626Y3001
X3719Y4251
X2751Y5001
X3501Y5501
X4344Y5563
X5126Y6251
X5126Y6876
X5501Y7376
X4251Y6626
X3001Y8501
X3876Y9251
X5626Y9126
X5251Y10876
X4626Y11126
X4126Y11626
X3876Y12751
X6001Y11751
X7001Y11001
X7751Y11251
X9876Y10751
X10501Y10751
X12001Y10876
X13126Y10251
X12251Y9876
X10251Y8001
X9626Y8251
X8501Y8126
X8501Y7626
X9063Y6876
X10251Y5876
X10751Y5376
X9001Y5001
X10251Y2626
X10876Y1251
X11626Y1251
X13376Y2626
X13501Y4876
X12501Y7751
X6126Y2626
X8001Y1251
X2001Y8251
T02
X15001Y7876
X15001Y8876
X15001Y9876
X15001Y10876
X15001Y6876
T03
X15126Y5376
X15126Y4376
X10126Y876
X9126Y876
X1001Y3626
X1001Y4626
X1001Y5626
X1001Y6626
X1001Y7626
X1001Y8626
X2876Y10001
X2626Y15126
X3626Y15126
X4751Y15126
X5751Y15126
X6876Y15126
X7876Y15126
X9126Y15126
X10126Y15126
X11126Y15126
X12126Y15126
X13126Y15126
X14126Y15126
X14126Y13126
X15126Y13126
X16126Y13126
X13126Y13126
X11751Y13626
X11751Y12626
X10751Y12626
X10751Y13626
X9751Y13626
X9751Y12626
T04
X1126Y1126
X1126Y14876
X15751Y14876
X15751Y1126
M30
