G75*
G70*
%OFA0B0*%
%FSLAX24Y24*%
%IPPOS*%
%LPD*%
%AMOC8*
5,1,8,0,0,1.08239X$1,22.5*
%
%ADD10C,0.0000*%
%ADD11C,0.0300*%
%ADD12R,0.0394X0.0551*%
%ADD13R,0.0630X0.0512*%
%ADD14R,0.0300X0.0600*%
%ADD15R,0.0220X0.0500*%
%ADD16R,0.0500X0.0220*%
%ADD17R,0.0512X0.0630*%
%ADD18R,0.0591X0.0512*%
%ADD19R,0.0472X0.0217*%
%ADD20R,0.0512X0.0591*%
%ADD21R,0.0630X0.0460*%
%ADD22R,0.0787X0.0866*%
%ADD23R,0.0866X0.0787*%
%ADD24R,0.0600X0.0300*%
D10*
X000126Y000126D02*
X000126Y015872D01*
X016746Y015872D01*
X016746Y000126D01*
X000126Y000126D01*
X000496Y001126D02*
X000498Y001176D01*
X000504Y001226D01*
X000514Y001275D01*
X000528Y001323D01*
X000545Y001370D01*
X000566Y001415D01*
X000591Y001459D01*
X000619Y001500D01*
X000651Y001539D01*
X000685Y001576D01*
X000722Y001610D01*
X000762Y001640D01*
X000804Y001667D01*
X000848Y001691D01*
X000894Y001712D01*
X000941Y001728D01*
X000989Y001741D01*
X001039Y001750D01*
X001088Y001755D01*
X001139Y001756D01*
X001189Y001753D01*
X001238Y001746D01*
X001287Y001735D01*
X001335Y001720D01*
X001381Y001702D01*
X001426Y001680D01*
X001469Y001654D01*
X001510Y001625D01*
X001549Y001593D01*
X001585Y001558D01*
X001617Y001520D01*
X001647Y001480D01*
X001674Y001437D01*
X001697Y001393D01*
X001716Y001347D01*
X001732Y001299D01*
X001744Y001250D01*
X001752Y001201D01*
X001756Y001151D01*
X001756Y001101D01*
X001752Y001051D01*
X001744Y001002D01*
X001732Y000953D01*
X001716Y000905D01*
X001697Y000859D01*
X001674Y000815D01*
X001647Y000772D01*
X001617Y000732D01*
X001585Y000694D01*
X001549Y000659D01*
X001510Y000627D01*
X001469Y000598D01*
X001426Y000572D01*
X001381Y000550D01*
X001335Y000532D01*
X001287Y000517D01*
X001238Y000506D01*
X001189Y000499D01*
X001139Y000496D01*
X001088Y000497D01*
X001039Y000502D01*
X000989Y000511D01*
X000941Y000524D01*
X000894Y000540D01*
X000848Y000561D01*
X000804Y000585D01*
X000762Y000612D01*
X000722Y000642D01*
X000685Y000676D01*
X000651Y000713D01*
X000619Y000752D01*
X000591Y000793D01*
X000566Y000837D01*
X000545Y000882D01*
X000528Y000929D01*
X000514Y000977D01*
X000504Y001026D01*
X000498Y001076D01*
X000496Y001126D01*
X000496Y014876D02*
X000498Y014926D01*
X000504Y014976D01*
X000514Y015025D01*
X000528Y015073D01*
X000545Y015120D01*
X000566Y015165D01*
X000591Y015209D01*
X000619Y015250D01*
X000651Y015289D01*
X000685Y015326D01*
X000722Y015360D01*
X000762Y015390D01*
X000804Y015417D01*
X000848Y015441D01*
X000894Y015462D01*
X000941Y015478D01*
X000989Y015491D01*
X001039Y015500D01*
X001088Y015505D01*
X001139Y015506D01*
X001189Y015503D01*
X001238Y015496D01*
X001287Y015485D01*
X001335Y015470D01*
X001381Y015452D01*
X001426Y015430D01*
X001469Y015404D01*
X001510Y015375D01*
X001549Y015343D01*
X001585Y015308D01*
X001617Y015270D01*
X001647Y015230D01*
X001674Y015187D01*
X001697Y015143D01*
X001716Y015097D01*
X001732Y015049D01*
X001744Y015000D01*
X001752Y014951D01*
X001756Y014901D01*
X001756Y014851D01*
X001752Y014801D01*
X001744Y014752D01*
X001732Y014703D01*
X001716Y014655D01*
X001697Y014609D01*
X001674Y014565D01*
X001647Y014522D01*
X001617Y014482D01*
X001585Y014444D01*
X001549Y014409D01*
X001510Y014377D01*
X001469Y014348D01*
X001426Y014322D01*
X001381Y014300D01*
X001335Y014282D01*
X001287Y014267D01*
X001238Y014256D01*
X001189Y014249D01*
X001139Y014246D01*
X001088Y014247D01*
X001039Y014252D01*
X000989Y014261D01*
X000941Y014274D01*
X000894Y014290D01*
X000848Y014311D01*
X000804Y014335D01*
X000762Y014362D01*
X000722Y014392D01*
X000685Y014426D01*
X000651Y014463D01*
X000619Y014502D01*
X000591Y014543D01*
X000566Y014587D01*
X000545Y014632D01*
X000528Y014679D01*
X000514Y014727D01*
X000504Y014776D01*
X000498Y014826D01*
X000496Y014876D01*
X015121Y014876D02*
X015123Y014926D01*
X015129Y014976D01*
X015139Y015025D01*
X015153Y015073D01*
X015170Y015120D01*
X015191Y015165D01*
X015216Y015209D01*
X015244Y015250D01*
X015276Y015289D01*
X015310Y015326D01*
X015347Y015360D01*
X015387Y015390D01*
X015429Y015417D01*
X015473Y015441D01*
X015519Y015462D01*
X015566Y015478D01*
X015614Y015491D01*
X015664Y015500D01*
X015713Y015505D01*
X015764Y015506D01*
X015814Y015503D01*
X015863Y015496D01*
X015912Y015485D01*
X015960Y015470D01*
X016006Y015452D01*
X016051Y015430D01*
X016094Y015404D01*
X016135Y015375D01*
X016174Y015343D01*
X016210Y015308D01*
X016242Y015270D01*
X016272Y015230D01*
X016299Y015187D01*
X016322Y015143D01*
X016341Y015097D01*
X016357Y015049D01*
X016369Y015000D01*
X016377Y014951D01*
X016381Y014901D01*
X016381Y014851D01*
X016377Y014801D01*
X016369Y014752D01*
X016357Y014703D01*
X016341Y014655D01*
X016322Y014609D01*
X016299Y014565D01*
X016272Y014522D01*
X016242Y014482D01*
X016210Y014444D01*
X016174Y014409D01*
X016135Y014377D01*
X016094Y014348D01*
X016051Y014322D01*
X016006Y014300D01*
X015960Y014282D01*
X015912Y014267D01*
X015863Y014256D01*
X015814Y014249D01*
X015764Y014246D01*
X015713Y014247D01*
X015664Y014252D01*
X015614Y014261D01*
X015566Y014274D01*
X015519Y014290D01*
X015473Y014311D01*
X015429Y014335D01*
X015387Y014362D01*
X015347Y014392D01*
X015310Y014426D01*
X015276Y014463D01*
X015244Y014502D01*
X015216Y014543D01*
X015191Y014587D01*
X015170Y014632D01*
X015153Y014679D01*
X015139Y014727D01*
X015129Y014776D01*
X015123Y014826D01*
X015121Y014876D01*
X015121Y001126D02*
X015123Y001176D01*
X015129Y001226D01*
X015139Y001275D01*
X015153Y001323D01*
X015170Y001370D01*
X015191Y001415D01*
X015216Y001459D01*
X015244Y001500D01*
X015276Y001539D01*
X015310Y001576D01*
X015347Y001610D01*
X015387Y001640D01*
X015429Y001667D01*
X015473Y001691D01*
X015519Y001712D01*
X015566Y001728D01*
X015614Y001741D01*
X015664Y001750D01*
X015713Y001755D01*
X015764Y001756D01*
X015814Y001753D01*
X015863Y001746D01*
X015912Y001735D01*
X015960Y001720D01*
X016006Y001702D01*
X016051Y001680D01*
X016094Y001654D01*
X016135Y001625D01*
X016174Y001593D01*
X016210Y001558D01*
X016242Y001520D01*
X016272Y001480D01*
X016299Y001437D01*
X016322Y001393D01*
X016341Y001347D01*
X016357Y001299D01*
X016369Y001250D01*
X016377Y001201D01*
X016381Y001151D01*
X016381Y001101D01*
X016377Y001051D01*
X016369Y001002D01*
X016357Y000953D01*
X016341Y000905D01*
X016322Y000859D01*
X016299Y000815D01*
X016272Y000772D01*
X016242Y000732D01*
X016210Y000694D01*
X016174Y000659D01*
X016135Y000627D01*
X016094Y000598D01*
X016051Y000572D01*
X016006Y000550D01*
X015960Y000532D01*
X015912Y000517D01*
X015863Y000506D01*
X015814Y000499D01*
X015764Y000496D01*
X015713Y000497D01*
X015664Y000502D01*
X015614Y000511D01*
X015566Y000524D01*
X015519Y000540D01*
X015473Y000561D01*
X015429Y000585D01*
X015387Y000612D01*
X015347Y000642D01*
X015310Y000676D01*
X015276Y000713D01*
X015244Y000752D01*
X015216Y000793D01*
X015191Y000837D01*
X015170Y000882D01*
X015153Y000929D01*
X015139Y000977D01*
X015129Y001026D01*
X015123Y001076D01*
X015121Y001126D01*
D11*
X011676Y001876D02*
X011376Y001876D01*
X011376Y002376D02*
X011676Y002376D01*
X011676Y002876D02*
X011376Y002876D01*
X011376Y003376D02*
X011676Y003376D01*
X011676Y003876D02*
X011376Y003876D01*
X011376Y004376D02*
X011676Y004376D01*
X011676Y004876D02*
X011376Y004876D01*
X011376Y005376D02*
X011676Y005376D01*
X011676Y005876D02*
X011376Y005876D01*
X011376Y006376D02*
X011676Y006376D01*
X011676Y006876D02*
X011376Y006876D01*
X011376Y007376D02*
X011676Y007376D01*
X011676Y007876D02*
X011376Y007876D01*
X011376Y008376D02*
X011676Y008376D01*
X007826Y008376D02*
X007526Y008376D01*
X007526Y007876D02*
X007826Y007876D01*
X007826Y007376D02*
X007526Y007376D01*
X007526Y006876D02*
X007826Y006876D01*
X007826Y006376D02*
X007526Y006376D01*
X007526Y005876D02*
X007826Y005876D01*
X007826Y005376D02*
X007526Y005376D01*
X007526Y004876D02*
X007826Y004876D01*
X007826Y004376D02*
X007526Y004376D01*
X007526Y003876D02*
X007826Y003876D01*
X007826Y003376D02*
X007526Y003376D01*
X007526Y002876D02*
X007826Y002876D01*
X007826Y002376D02*
X007526Y002376D01*
X007526Y001876D02*
X007826Y001876D01*
D12*
X008002Y013193D03*
X008750Y013193D03*
X008376Y014059D03*
D13*
X008751Y012500D03*
X008751Y011752D03*
X014126Y005500D03*
X014126Y004752D03*
X015876Y008377D03*
X015876Y009125D03*
X015876Y009752D03*
X015876Y010500D03*
D14*
X002126Y011251D03*
X000626Y011251D03*
X000626Y013251D03*
X002126Y013251D03*
D15*
X003398Y008316D03*
X003713Y008316D03*
X004028Y008316D03*
X004343Y008316D03*
X004658Y008316D03*
X004973Y008316D03*
X005288Y008316D03*
X005603Y008316D03*
X005603Y004936D03*
X005288Y004936D03*
X004973Y004936D03*
X004658Y004936D03*
X004343Y004936D03*
X004028Y004936D03*
X003713Y004936D03*
X003398Y004936D03*
D16*
X002811Y005523D03*
X002811Y005838D03*
X002811Y006153D03*
X002811Y006468D03*
X002811Y006783D03*
X002811Y007098D03*
X002811Y007413D03*
X002811Y007728D03*
X006191Y007728D03*
X006191Y007413D03*
X006191Y007098D03*
X006191Y006783D03*
X006191Y006468D03*
X006191Y006153D03*
X006191Y005838D03*
X006191Y005523D03*
D17*
X001750Y010126D03*
X001002Y010126D03*
X012252Y004876D03*
X013000Y004876D03*
X014002Y003376D03*
X014750Y003376D03*
X014750Y002626D03*
X014002Y002626D03*
D18*
X015626Y002752D03*
X015626Y003500D03*
X013501Y011127D03*
X013501Y011875D03*
X006001Y010625D03*
X006001Y009877D03*
X004751Y010000D03*
X004751Y009252D03*
X002001Y007750D03*
X002001Y007002D03*
X006876Y003000D03*
X006876Y002252D03*
X004251Y013502D03*
X004251Y014250D03*
D19*
X004864Y013500D03*
X004864Y013126D03*
X004864Y012752D03*
X005887Y012752D03*
X005887Y013500D03*
D20*
X006502Y013501D03*
X007250Y013501D03*
X007250Y012751D03*
X006502Y012751D03*
X003250Y009126D03*
X002502Y009126D03*
X010752Y009251D03*
X011500Y009251D03*
X012377Y005876D03*
X013125Y005876D03*
X013000Y004126D03*
X012252Y004126D03*
X012252Y003376D03*
X013000Y003376D03*
D21*
X003251Y012401D03*
X003251Y013001D03*
X003251Y013601D03*
D22*
X012410Y008501D03*
X013591Y008501D03*
X013591Y007001D03*
X012410Y007001D03*
X006841Y001251D03*
X005660Y001251D03*
D23*
X012501Y000910D03*
X012501Y002091D03*
D24*
X004626Y002126D03*
X004626Y000626D03*
X002626Y000626D03*
X002626Y002126D03*
M02*
